<svg version="1.1" id="master" xmlns="http://www.w3.org/2000/svg" xmlns:xlink="http://www.w3.org/1999/xlink" x="0px" y="0px"
	 width="24px" height="24px" viewBox="0 0 24 24" enable-background="new 0 0 24 24" xml:space="preserve">
<rect fill="none" width="24" height="24"/>
<path d="M21.167,3.111c-0.461,0-0.834,0.373-0.834,0.833v1.667h-1.666V4.778c0-0.307-0.249-0.556-0.556-0.556h-0.557
	C17.249,4.222,17,4.471,17,4.778v0.833h-6.667V4.778c0-0.307-0.249-0.556-0.556-0.556H9.222c-0.307,0-0.556,0.249-0.556,0.556v0.833
	H7V4.778c0-0.307-0.249-0.556-0.556-0.556H5.889c-0.307,0-0.555,0.249-0.555,0.556v0.833H3.667V3.944
	c0-0.46-0.373-0.833-0.833-0.833C2.373,3.111,2,3.484,2,3.944v16.527c0,0.231,0.187,0.417,0.417,0.417H3.25
	c0.23,0,0.417-0.186,0.417-0.417v-2.083h1.667v0.833c0,0.308,0.249,0.557,0.555,0.557h0.556C6.751,19.778,7,19.529,7,19.222v-0.833
	h1.667v0.833c0,0.308,0.249,0.557,0.556,0.557h0.556c0.307,0,0.556-0.249,0.556-0.557v-0.833H17v0.833
	c0,0.308,0.249,0.557,0.555,0.557h0.557c0.307,0,0.556-0.249,0.556-0.557v-0.833h1.666v2.083c0,0.231,0.187,0.417,0.417,0.417h0.833
	c0.23,0,0.417-0.186,0.417-0.417V3.944C22,3.484,21.627,3.111,21.167,3.111z M5.333,7.278v0.833c0,0.307,0.249,0.555,0.555,0.555
	h0.556C6.751,8.667,7,8.418,7,8.111V7.278h1.667v0.833c0,0.307,0.249,0.555,0.556,0.555h0.556c0.307,0,0.556-0.249,0.556-0.555
	V7.278H17v0.833c0,0.307,0.249,0.555,0.555,0.555h0.557c0.307,0,0.556-0.249,0.556-0.555V7.278h1.666v3.889h-6.666v-0.833
	c0-0.307-0.249-0.556-0.556-0.556h-0.557c-0.306,0-0.555,0.249-0.555,0.556v0.833h-1.667v-0.833c0-0.307-0.249-0.556-0.556-0.556
	H9.222c-0.307,0-0.556,0.249-0.556,0.556v0.833H7v-0.833c0-0.307-0.249-0.556-0.556-0.556H5.889c-0.307,0-0.555,0.249-0.555,0.556
	v0.833H3.667V7.278H5.333z M18.667,16.722v-0.833c0-0.307-0.249-0.556-0.556-0.556h-0.557c-0.306,0-0.555,0.249-0.555,0.556v0.833
	h-6.667v-0.833c0-0.307-0.249-0.556-0.556-0.556H9.222c-0.307,0-0.556,0.249-0.556,0.556v0.833H7v-0.833
	c0-0.307-0.249-0.556-0.556-0.556H5.889c-0.307,0-0.555,0.249-0.555,0.556v0.833H3.667v-3.889h1.667v0.834
	c0,0.307,0.249,0.555,0.555,0.555h0.556C6.751,14.222,7,13.974,7,13.667v-0.834h1.667v0.834c0,0.307,0.249,0.555,0.556,0.555h0.556
	c0.307,0,0.556-0.248,0.556-0.555v-0.834H12v0.834c0,0.307,0.249,0.555,0.555,0.555h0.557c0.307,0,0.556-0.248,0.556-0.555v-0.834
	h6.666v3.889H18.667z"/>
</svg>
