<svg version="1.1" id="master" xmlns="http://www.w3.org/2000/svg" xmlns:xlink="http://www.w3.org/1999/xlink" x="0px" y="0px"
	 width="24px" height="24px" viewBox="0 0 24 24" enable-background="new 0 0 24 24" xml:space="preserve">
<g>
	<circle cx="12" cy="4" r="2"/>
	<path d="M19,13v-2c-1.54,0.02-3.09-0.75-4.07-1.83l-1.289-1.43c-0.17-0.19-0.381-0.34-0.611-0.45c-0.01,0-0.01-0.01-0.02-0.01H13
		c-0.35-0.2-0.75-0.3-1.19-0.26C10.76,7.11,10,8.04,10,9.09V15c0,1.1,0.9,2,2,2h5v5h2v-5.5c0-1.1-0.9-2-2-2h-3v-3.45
		C15.29,12.12,17.25,12.99,19,13z M12.83,18c-0.41,1.16-1.52,2-2.83,2c-1.66,0-3-1.34-3-3c0-1.311,0.84-2.41,2-2.83V12.1
		c-2.28,0.46-4,2.48-4,4.9c0,2.76,2.24,5,5,5c2.42,0,4.439-1.72,4.9-4H12.83z"/>
</g>
</svg>
