<svg version="1.1" id="master" xmlns="http://www.w3.org/2000/svg" xmlns:xlink="http://www.w3.org/1999/xlink" x="0px" y="0px"
	 width="24px" height="24px" viewBox="0 0 24 24" enable-background="new 0 0 24 24" xml:space="preserve">
<path d="M2,4.223v15.556C2,21,2.989,22,4.223,22h15.556C21,22,22,21,22,19.777V4.223C22,3,21,2,19.777,2H4.223C2.989,2,2,3,2,4.223z
	 M15.333,8.667C15.333,10.512,13.845,12,12,12s-3.333-1.488-3.333-3.333c0-1.844,1.489-3.333,3.333-3.333S15.333,6.823,15.333,8.667
	z M5.333,17.556c0-2.223,4.444-3.444,6.667-3.444s6.667,1.222,6.667,3.444v1.111H5.333V17.556z"/>
</svg>
