<svg version="1.1" id="master" xmlns="http://www.w3.org/2000/svg" xmlns:xlink="http://www.w3.org/1999/xlink"
	 x="0px" y="0px" width="24px" height="24px" viewBox="0 0 24 24" enable-background="new 0 0 24 24" xml:space="preserve">
<path d="M10.09,21.045L12,22l1.909-0.955C17.336,19.332,19.5,15.831,19.5,12h-15C4.5,15.831,6.664,19.332,10.09,21.045z M17,4.5
	h-3.926c0.133-0.367,0.33-0.71,0.593-1.017c0.216-0.255,0.206-0.622-0.024-0.854l-0.443-0.442c-0.122-0.123-0.303-0.201-0.469-0.184
	c-0.171,0.005-0.331,0.081-0.441,0.207c-0.577,0.656-0.959,1.447-1.148,2.291H7c-2.071,0-3.75,1.679-3.75,3.75V9.5
	c0,0.69,0.56,1.25,1.25,1.25h15c0.69,0,1.25-0.56,1.25-1.25V8.25C20.75,6.179,19.071,4.5,17,4.5z"/>
</svg>
