<svg version="1.1" id="master" xmlns="http://www.w3.org/2000/svg" xmlns:xlink="http://www.w3.org/1999/xlink" x="0px" y="0px"
	 width="24px" height="24px" viewBox="0 0 24 24" enable-background="new 0 0 24 24" xml:space="preserve">
<path d="M21.694,14.833c-0.594-0.634-1.807-0.998-3.525-0.998c-0.918,0-1.982,0.092-3.139,0.309
	c-0.652-0.644-1.305-1.395-1.926-2.271c-0.442-0.618-0.828-1.27-1.185-1.912c0.677-2.12,1.005-3.849,1.005-5.091
	c0-1.396-0.502-2.852-1.952-2.852c-0.445,0-0.89,0.271-1.126,0.667c-0.654,1.175-0.359,3.75,0.765,6.293
	c-0.419,1.27-0.863,2.481-1.418,3.845c-0.482,1.146-1.038,2.33-1.605,3.418c-3.258,1.322-5.367,2.865-5.564,4.076
	c-0.086,0.455,0.062,0.875,0.381,1.209c0.111,0.093,0.531,0.455,1.235,0.455c2.162,0,4.44-3.571,5.598-5.726
	c0.889-0.3,1.778-0.573,2.665-0.847c0.975-0.27,1.953-0.487,2.842-0.639c2.281,2.09,4.295,2.42,5.306,2.42
	c1.246,0,1.689-0.516,1.839-0.937c0.234-0.543,0.06-1.144-0.209-1.453l0.017,0.033L21.694,14.833z M20.537,15.712
	c-0.086,0.454-0.532,0.756-1.156,0.756c-0.175,0-0.325-0.029-0.503-0.06c-1.135-0.271-2.197-0.849-3.258-1.759
	c1.044-0.178,1.929-0.209,2.486-0.209c0.619,0,1.151,0.027,1.512,0.121c0.408,0.088,1.061,0.362,0.914,1.151h0.017L20.537,15.712z
	 M14.259,14.289c-0.768,0.157-1.598,0.345-2.456,0.577c-0.681,0.187-1.391,0.396-2.104,0.644c0.386-0.753,0.712-1.479,1.008-2.173
	c0.357-0.852,0.651-1.729,0.947-2.542c0.292,0.509,0.618,1.026,0.943,1.485c0.533,0.727,1.094,1.42,1.652,2.021v-0.017
	L14.259,14.289z M10.378,3.033c0.121-0.242,0.359-0.364,0.566-0.364c0.622,0,0.74,0.725,0.74,1.302c0,0.975-0.295,2.455-0.801,4.146
	C9.998,5.763,9.937,3.793,10.378,3.033L10.378,3.033z M7.122,17.135c-1.51,2.54-2.961,4.117-3.85,4.117
	c-0.175,0-0.323-0.063-0.442-0.151c-0.179-0.182-0.267-0.396-0.207-0.636C2.8,19.556,4.488,18.284,7.122,17.135L7.122,17.135z"/>
</svg>
