<svg version="1.1" id="master" xmlns="http://www.w3.org/2000/svg" xmlns:xlink="http://www.w3.org/1999/xlink" x="0px" y="0px"
	 width="24px" height="24px" viewBox="0 0 24 24" enable-background="new 0 0 24 24" xml:space="preserve">
<rect fill="none" width="24" height="24"/>
<path d="M12,17.229c-1.127-1.414-1.79-2.652-2.011-3.714c-0.219-0.855-0.133-1.54,0.243-2.054c0.397-0.592,0.989-0.879,1.767-0.879
	s1.369,0.288,1.767,0.885c0.371,0.509,0.465,1.194,0.238,2.054c-0.243,1.082-0.905,2.321-2.01,3.715L12,17.229z M20.001,18.179
	c-0.154,1.038-0.861,1.899-1.834,2.319c-1.876,0.817-3.734-0.485-5.325-2.253c2.63-3.293,3.116-5.856,1.987-7.515
	C14.166,9.78,13.218,9.317,12,9.317c-2.454,0-3.802,2.076-3.272,4.485c0.308,1.304,1.126,2.786,2.43,4.443
	c-0.817,0.903-1.592,1.546-2.276,1.944c-0.53,0.286-1.038,0.464-1.523,0.507c-2.232,0.332-3.982-1.833-3.188-4.066
	c0.11-0.287,0.33-0.816,0.705-1.635l0.021-0.044C6.116,12.304,7.598,9.294,9.3,5.957l0.044-0.11l0.484-0.93
	c0.375-0.685,0.529-0.992,1.126-1.37c0.288-0.174,0.641-0.262,1.038-0.262c0.795,0,1.415,0.464,1.68,0.838
	c0.132,0.2,0.288,0.464,0.485,0.794l0.465,0.907l0.067,0.133c1.7,3.336,3.184,6.34,4.398,8.995l0.021,0.021l0.444,1.018l0.265,0.637
	c0.203,0.51,0.245,1.018,0.178,1.548L20.001,18.179z M21.018,16.188c-0.155-0.486-0.42-1.06-0.75-1.745v-0.024
	c-1.573-3.339-3.035-6.34-4.422-9.038l-0.093-0.135C14.765,3.218,14.057,2,12,2C9.968,2,9.104,3.412,8.222,5.249L8.154,5.382
	c-1.391,2.696-2.851,5.701-4.419,9.039v0.044L3.27,15.481c-0.175,0.42-0.264,0.641-0.288,0.706C1.856,19.282,4.176,22,6.983,22
	c0.022,0,0.11,0,0.22-0.022h0.31C8.973,21.8,10.476,20.873,12,19.213c1.524,1.657,3.029,2.587,4.485,2.765h0.311
	C16.906,22,16.994,22,17.016,22C19.824,22.003,22.144,19.282,21.018,16.188L21.018,16.188z"/>
</svg>
