<svg version="1.1" id="master" xmlns="http://www.w3.org/2000/svg" xmlns:xlink="http://www.w3.org/1999/xlink" x="0px" y="0px"
	 width="24px" height="24px" viewBox="0 0 24 24" enable-background="new 0 0 24 24" xml:space="preserve">
<path d="M16.546,5.636H3.818C2.818,5.636,2,6.445,2,7.455v8.182h1.818c0,1.5,1.218,2.727,2.727,2.727s2.728-1.227,2.728-2.727h5
	c0,1.5,1.219,2.727,2.728,2.727s2.728-1.227,2.728-2.727H22v-4.546L16.546,5.636z M3.818,11.091V7.455h3.636v3.636H3.818z M6.545,17
	c-0.754,0-1.364-0.609-1.364-1.363c0-0.756,0.609-1.363,1.364-1.363c0.755,0,1.364,0.607,1.364,1.363C7.909,16.391,7.3,17,6.545,17z
	 M12.909,11.091H9.273V7.455h3.636V11.091z M17,17c-0.755,0-1.363-0.609-1.363-1.363c0-0.756,0.608-1.363,1.363-1.363
	s1.363,0.607,1.363,1.363C18.363,16.391,17.755,17,17,17z M14.728,11.091V7.455h0.909l3.636,3.636H14.728z"/>
</svg>
