<svg version="1.1" id="master" xmlns="http://www.w3.org/2000/svg" xmlns:xlink="http://www.w3.org/1999/xlink" x="0px" y="0px"
	 width="24px" height="24px" viewBox="0 0 24 24" enable-background="new 0 0 24 24" xml:space="preserve">
<path d="M21.93,5.834L17.363,2L16.08,3.52l4.57,3.833L21.93,5.834z M7.909,3.52L6.638,2L2.07,5.823l1.281,1.52L7.909,3.52z
	 M12.497,8.098h-1.489v5.959l4.717,2.829l0.744-1.221l-3.972-2.354V8.098z M12,4.126c-4.936,0-8.937,4.001-8.937,8.938
	C3.063,17.999,7.055,22,12,22c4.936,0,8.938-4.001,8.938-8.937C20.938,8.127,16.936,4.126,12,4.126z M12,20.015
	c-3.843,0-6.951-3.108-6.951-6.951c0-3.844,3.108-6.952,6.951-6.952c3.844,0,6.951,3.108,6.951,6.952
	C18.951,16.906,15.844,20.015,12,20.015z"/>
</svg>
