<svg version="1.1" id="master" xmlns="http://www.w3.org/2000/svg" xmlns:xlink="http://www.w3.org/1999/xlink" x="0px" y="0px"
	 width="24px" height="24px" viewBox="0 0 24 24" enable-background="new 0 0 24 24" xml:space="preserve">
<rect fill="none" width="24" height="24"/>
<path d="M11.284,16.284h1.432v2.862h-1.432V16.284z M19.147,19.146V17H17v2.146H19.147z M22,4.853h-1.432v5H22V4.853z M14.147,22
	h1.421v-3.568h-1.421V22z M5.568,22H7v-1.422H5.568V22z M8.432,22h1.421v-3.568H8.432V22z M11.284,22h1.432v-1.422h-1.432V22z
	 M17,22h1.432v-1.422H17V22z M4.853,19.146H7V17H4.853V19.146z M19.147,9.853h1.421v1.431h-1.421v3.579H17V17h-2.147v-2.137H9.137
	V17H7v-2.137H4.853v-3.579H3.422V9.853h1.431V6.284H7V4.137h1.432V2h1.421v2.137h4.295V2h1.421v2.137H17v2.147h2.147V9.853z
	 M9.137,8.432H7v4.284h2.137V8.432z M17,8.432h-2.147v4.284H17V8.432z M2,4.853v5h1.422v-5H2z"/>
</svg>
