<svg version="1.1" id="master" xmlns="http://www.w3.org/2000/svg" xmlns:xlink="http://www.w3.org/1999/xlink" x="0px" y="0px"
	 width="24px" height="24px" viewBox="0 0 24 24" enable-background="new 0 0 24 24" xml:space="preserve">
<rect fill="none" width="24" height="24"/>
<path d="M12,2c0.806,0,1.581,0.104,2.326,0.313c0.745,0.209,1.44,0.503,2.087,0.883c0.646,0.379,1.236,0.836,1.77,1.37
	c0.533,0.533,0.99,1.123,1.369,1.77c0.38,0.646,0.675,1.342,0.883,2.087c0.209,0.745,0.313,1.521,0.313,2.326
	c0,0.533-0.05,1.065-0.148,1.595c-0.099,0.531-0.241,1.045-0.43,1.543c-0.188,0.499-0.422,0.977-0.7,1.436
	c-0.278,0.457-0.601,0.883-0.966,1.277l-4.052,4.375c-0.313,0.336-0.687,0.591-1.122,0.765C12.896,21.913,12.452,22,12,22
	c-0.481,0-0.916-0.082-1.305-0.248c-0.388-0.165-0.756-0.412-1.104-0.743c-0.277-0.261-0.543-0.538-0.795-0.831
	c-0.252-0.292-0.509-0.58-0.77-0.865c-0.418-0.451-0.838-0.899-1.261-1.343c-0.424-0.444-0.841-0.897-1.253-1.36
	c-0.741-0.836-1.304-1.741-1.687-2.719c-0.383-0.977-0.574-2.024-0.574-3.143c0-0.806,0.104-1.582,0.313-2.326
	c0.208-0.745,0.503-1.44,0.883-2.087c0.379-0.646,0.836-1.236,1.369-1.77c0.533-0.534,1.123-0.99,1.77-1.37
	c0.646-0.38,1.342-0.674,2.087-0.883C10.419,2.104,11.194,2,12,2z M12,20.748c0.296,0,0.571-0.054,0.826-0.161
	s0.492-0.263,0.713-0.466c0.243-0.22,0.474-0.456,0.691-0.708c0.218-0.253,0.437-0.5,0.656-0.743
	c0.452-0.487,0.904-0.97,1.356-1.448c0.452-0.478,0.896-0.966,1.331-1.466c0.632-0.719,1.111-1.492,1.438-2.321
	c0.328-0.829,0.491-1.725,0.491-2.687c0-0.69-0.09-1.354-0.27-1.992c-0.18-0.638-0.432-1.234-0.756-1.791
	c-0.325-0.557-0.716-1.063-1.174-1.518s-0.966-0.845-1.522-1.169c-0.556-0.325-1.153-0.577-1.791-0.756S12.689,3.252,12,3.252
	s-1.354,0.09-1.991,0.27S8.773,3.954,8.218,4.278C7.661,4.603,7.155,4.993,6.7,5.448S5.855,6.409,5.53,6.965
	C5.206,7.522,4.954,8.119,4.773,8.756c-0.18,0.638-0.27,1.302-0.27,1.992c0,0.921,0.163,1.816,0.487,2.683
	c0.325,0.866,0.803,1.642,1.435,2.325l4.044,4.365c0.191,0.203,0.425,0.358,0.7,0.466S11.722,20.748,12,20.748z M11.374,15.121
	c0,0.174-0.061,0.322-0.183,0.444s-0.27,0.183-0.443,0.183H9.191c-0.476,0-0.922-0.09-1.339-0.27
	c-0.418-0.18-0.783-0.425-1.096-0.734c-0.313-0.311-0.56-0.675-0.739-1.092c-0.18-0.418-0.27-0.863-0.27-1.339v-1.565
	c0-0.168,0.063-0.314,0.187-0.439c0.125-0.125,0.271-0.187,0.439-0.187h1.565c0.475,0,0.922,0.09,1.339,0.27
	c0.417,0.18,0.781,0.426,1.091,0.739c0.311,0.313,0.556,0.678,0.735,1.096s0.27,0.864,0.27,1.339V15.121z M7.313,12.626
	c0.127,0,0.249-0.024,0.365-0.073c0.115-0.05,0.216-0.117,0.3-0.201s0.15-0.183,0.2-0.295c0.049-0.113,0.073-0.236,0.073-0.37
	c0-0.127-0.024-0.248-0.073-0.361c-0.05-0.113-0.118-0.213-0.205-0.3c-0.087-0.087-0.187-0.155-0.3-0.204s-0.233-0.074-0.36-0.074
	c-0.128,0-0.248,0.024-0.361,0.074s-0.213,0.117-0.3,0.204c-0.087,0.087-0.155,0.187-0.204,0.3c-0.05,0.113-0.074,0.233-0.074,0.361
	s0.024,0.248,0.074,0.361c0.049,0.113,0.117,0.213,0.204,0.3s0.187,0.155,0.3,0.205C7.065,12.602,7.186,12.626,7.313,12.626z
	 M12,17.617c0.215,0,0.419-0.033,0.613-0.1s0.372-0.139,0.534-0.218c0.163-0.078,0.305-0.15,0.427-0.218
	c0.121-0.066,0.223-0.1,0.304-0.1c0.174,0,0.322,0.064,0.443,0.191c0.122,0.127,0.183,0.275,0.183,0.443
	c0,0.139-0.046,0.268-0.139,0.383c-0.093,0.116-0.215,0.221-0.365,0.313c-0.15,0.094-0.318,0.176-0.504,0.248
	s-0.371,0.133-0.557,0.179s-0.361,0.081-0.526,0.104S12.11,18.879,12,18.879s-0.248-0.012-0.413-0.035s-0.341-0.059-0.526-0.104
	s-0.371-0.106-0.557-0.179s-0.352-0.154-0.5-0.248c-0.147-0.092-0.268-0.198-0.36-0.316c-0.093-0.119-0.14-0.248-0.14-0.387
	c0-0.169,0.062-0.314,0.183-0.439c0.122-0.125,0.268-0.188,0.436-0.188c0.087,0,0.192,0.033,0.317,0.1
	c0.124,0.067,0.267,0.14,0.426,0.218c0.159,0.079,0.333,0.151,0.521,0.218S11.779,17.617,12,17.617z M17.626,10.122
	c0.168,0,0.314,0.063,0.439,0.187c0.124,0.125,0.187,0.271,0.187,0.439v1.565c0,0.476-0.09,0.921-0.27,1.339
	c-0.18,0.417-0.425,0.781-0.734,1.092c-0.311,0.31-0.674,0.555-1.092,0.734c-0.417,0.18-0.863,0.27-1.339,0.27h-1.565
	c-0.174,0-0.321-0.061-0.443-0.183s-0.183-0.271-0.183-0.444v-1.556c0-0.476,0.09-0.922,0.27-1.339s0.425-0.783,0.735-1.096
	c0.31-0.313,0.674-0.56,1.091-0.739c0.417-0.179,0.864-0.27,1.339-0.27H17.626z M15.443,12.626c0.128,0,0.249-0.024,0.365-0.073
	c0.116-0.05,0.215-0.118,0.296-0.205s0.146-0.187,0.195-0.3c0.05-0.113,0.074-0.233,0.074-0.361s-0.024-0.248-0.074-0.361
	c-0.049-0.113-0.116-0.213-0.2-0.3c-0.084-0.087-0.183-0.155-0.295-0.204c-0.113-0.049-0.233-0.074-0.361-0.074
	c-0.127,0-0.248,0.024-0.36,0.074c-0.113,0.049-0.214,0.117-0.301,0.204c-0.087,0.087-0.154,0.187-0.204,0.3
	c-0.049,0.113-0.074,0.233-0.074,0.361c0,0.133,0.025,0.256,0.074,0.37c0.05,0.113,0.116,0.211,0.2,0.295s0.183,0.151,0.296,0.201
	C15.187,12.602,15.311,12.626,15.443,12.626z"/>
</svg>
