<svg version="1.1" id="master" xmlns="http://www.w3.org/2000/svg" xmlns:xlink="http://www.w3.org/1999/xlink" x="0px" y="0px"
	 width="24px" height="24px" viewBox="0 0 24 24" enable-background="new 0 0 24 24" xml:space="preserve">
<rect fill="none" width="24" height="24"/>
<path d="M2.037,17.018c0.06-0.096,0.156-0.103,0.29-0.018c3.031,1.759,6.331,2.64,9.896,2.64c2.378,0,4.726-0.444,7.042-1.33
	l0.263-0.117c0.115-0.05,0.195-0.083,0.244-0.108c0.188-0.073,0.325-0.038,0.438,0.108c0.1,0.146,0.074,0.28-0.101,0.4
	c-0.214,0.158-0.5,0.342-0.839,0.546c-1.037,0.619-2.201,1.097-3.488,1.438c-1.276,0.339-2.539,0.509-3.765,0.509
	c-1.889,0-3.677-0.33-5.365-0.99c-1.684-0.662-3.185-1.592-4.527-2.793C2.042,17.241,2,17.178,2,17.12
	c0-0.039,0.017-0.075,0.042-0.108L2.037,17.018z M7.51,11.834c0-0.838,0.206-1.553,0.619-2.148C8.542,9.094,9.105,8.644,9.83,8.339
	c0.664-0.279,1.464-0.479,2.428-0.6c0.325-0.039,0.861-0.086,1.601-0.145V7.286c0-0.775-0.088-1.299-0.25-1.563
	c-0.252-0.358-0.65-0.542-1.201-0.542h-0.151c-0.4,0.039-0.747,0.164-1.039,0.383c-0.292,0.225-0.479,0.525-0.563,0.914
	c-0.05,0.25-0.172,0.388-0.363,0.425L8.191,6.641C7.984,6.59,7.881,6.49,7.881,6.315c0-0.039,0.006-0.075,0.019-0.125
	c0.206-1.076,0.713-1.876,1.517-2.401c0.814-0.513,1.751-0.813,2.827-0.875h0.45c1.375,0,2.465,0.362,3.241,1.075
	c0.112,0.125,0.225,0.25,0.338,0.4c0.1,0.137,0.187,0.262,0.235,0.375c0.063,0.112,0.125,0.275,0.163,0.475
	c0.05,0.212,0.087,0.35,0.112,0.425c0.025,0.087,0.052,0.25,0.063,0.513c0.008,0.261,0.017,0.411,0.017,0.461v4.402
	c0,0.313,0.05,0.6,0.138,0.864c0.087,0.261,0.175,0.45,0.263,0.562l0.425,0.562c0.075,0.113,0.113,0.213,0.113,0.3
	c0,0.101-0.05,0.188-0.15,0.262c-1,0.875-1.551,1.351-1.636,1.426c-0.138,0.112-0.313,0.125-0.525,0.037
	c-0.163-0.138-0.313-0.276-0.438-0.413l-0.259-0.289c-0.05-0.062-0.139-0.176-0.265-0.351l-0.25-0.362
	c-0.675,0.738-1.336,1.2-2,1.388c-0.412,0.125-0.911,0.189-1.525,0.189c-0.926,0-1.701-0.286-2.301-0.862
	c-0.6-0.575-0.9-1.388-0.9-2.451l-0.042-0.063L7.51,11.834z M10.639,11.469c0,0.472,0.117,0.85,0.354,1.137
	c0.238,0.283,0.563,0.427,0.963,0.427c0.038,0,0.088-0.006,0.163-0.017c0.075-0.014,0.112-0.02,0.138-0.02
	c0.512-0.133,0.9-0.461,1.188-0.982c0.138-0.233,0.237-0.483,0.3-0.759c0.075-0.267,0.1-0.492,0.112-0.667
	c0.013-0.163,0.013-0.45,0.013-0.838v-0.45c-0.7,0-1.237,0.05-1.601,0.15c-1.063,0.3-1.601,0.976-1.601,2.026l-0.029-0.017V11.469z
	 M18.277,17.327c0.024-0.05,0.063-0.092,0.109-0.142c0.302-0.202,0.596-0.342,0.876-0.417c0.458-0.11,0.908-0.185,1.344-0.2
	c0.116-0.01,0.233,0,0.342,0.025c0.542,0.05,0.875,0.14,0.978,0.275C21.978,16.944,22,17.059,22,17.194v0.125
	c0,0.425-0.116,0.925-0.346,1.5c-0.231,0.575-0.554,1.041-0.964,1.401c-0.061,0.05-0.117,0.074-0.164,0.074
	c-0.025,0-0.05,0-0.075-0.01c-0.075-0.036-0.089-0.1-0.054-0.2c0.451-1.05,0.673-1.786,0.673-2.2c0-0.126-0.025-0.226-0.073-0.287
	c-0.121-0.139-0.458-0.214-1.021-0.214c-0.202,0-0.444,0.013-0.725,0.038c-0.303,0.037-0.584,0.075-0.834,0.112
	c-0.075,0-0.123-0.012-0.15-0.037c-0.024-0.024-0.029-0.039-0.017-0.063c0-0.015,0.005-0.025,0.017-0.053v-0.05L18.277,17.327z"/>
</svg>
