<svg version="1.1" id="master" xmlns="http://www.w3.org/2000/svg" xmlns:xlink="http://www.w3.org/1999/xlink" x="0px" y="0px"
	 width="24px" height="24px" viewBox="0 0 24 24" enable-background="new 0 0 24 24" xml:space="preserve">
<rect fill="none" width="24" height="24"/>
<path d="M21.5,15H21v-3.378c0-0.397-0.159-0.778-0.44-1.06L17.438,7.44C17.156,7.16,16.775,7,16.378,7H15V5.5
	C15,4.672,14.328,4,13.5,4h-10C2.672,4,2,4.672,2,5.5v10C2,16.328,2.672,17,3.5,17H4c0,1.656,1.344,3,3,3s3-1.344,3-3h4
	c0,1.656,1.344,3,3,3s3-1.344,3-3h1.5c0.275,0,0.5-0.225,0.5-0.5v-1C22,15.225,21.775,15,21.5,15z M7,18.5
	c-0.828,0-1.5-0.672-1.5-1.5s0.672-1.5,1.5-1.5s1.5,0.672,1.5,1.5S7.828,18.5,7,18.5z M11.5,10.75c0,0.138-0.112,0.25-0.25,0.25H9.5
	v1.75C9.5,12.887,9.388,13,9.25,13h-1.5c-0.138,0-0.25-0.113-0.25-0.25V11H5.75c-0.138,0-0.25-0.112-0.25-0.25v-1.5
	C5.5,9.113,5.612,9,5.75,9H7.5V7.25C7.5,7.112,7.612,7,7.75,7h1.5C9.388,7,9.5,7.112,9.5,7.25V9h1.75c0.138,0,0.25,0.113,0.25,0.25
	V10.75z M17,18.5c-0.828,0-1.5-0.672-1.5-1.5s0.672-1.5,1.5-1.5s1.5,0.672,1.5,1.5S17.828,18.5,17,18.5z M19.5,12H15V8.5h1.378
	l3.122,3.122V12z"/>
</svg>
