<svg version="1.1" id="master" xmlns="http://www.w3.org/2000/svg" xmlns:xlink="http://www.w3.org/1999/xlink"
	 x="0px" y="0px" width="24px" height="24px" viewBox="0 0 24 24" enable-background="new 0 0 24 24" xml:space="preserve">
<path d="M19.729,6.327c0.188,0.073,0.391,0.117,0.604,0.117C21.254,6.444,22,5.698,22,4.778c0-0.921-0.746-1.667-1.667-1.667
	c-0.92,0-1.666,0.746-1.666,1.667c0,0.084,0.013,0.165,0.024,0.246l-3.311,2.648c-0.188-0.073-0.39-0.117-0.604-0.117
	s-0.416,0.044-0.603,0.117l-3.311-2.648c0.012-0.081,0.024-0.162,0.024-0.247c0-0.921-0.746-1.667-1.667-1.667
	c-0.92,0-1.667,0.746-1.667,1.667c0,0.148,0.025,0.29,0.062,0.426L4.093,8.729C3.957,8.692,3.815,8.667,3.667,8.667
	C2.746,8.667,2,9.413,2,10.333S2.746,12,3.667,12s1.667-0.746,1.667-1.667c0-0.148-0.026-0.29-0.062-0.427l3.524-3.524
	c0.137,0.036,0.278,0.062,0.426,0.062c0.213,0,0.416-0.044,0.604-0.117l3.31,2.649c-0.012,0.081-0.024,0.162-0.024,0.246
	c0,0.921,0.746,1.667,1.667,1.667s1.667-0.746,1.667-1.667c0-0.084-0.014-0.166-0.024-0.246L19.729,6.327L19.729,6.327z
	 M15.889,14.222h-2.222c-0.308,0-0.556,0.249-0.556,0.557v5.555c0,0.307,0.248,0.556,0.556,0.556h2.222
	c0.308,0,0.557-0.249,0.557-0.556v-5.555C16.445,14.471,16.196,14.222,15.889,14.222z M21.445,9.778h-2.224
	c-0.306,0-0.555,0.249-0.555,0.556v10c0,0.307,0.249,0.556,0.555,0.556h2.224c0.306,0,0.555-0.249,0.555-0.556v-10
	C22,10.026,21.751,9.778,21.445,9.778z M10.333,9.778H8.111c-0.307,0-0.556,0.249-0.556,0.556v10c0,0.307,0.249,0.556,0.556,0.556
	h2.222c0.307,0,0.555-0.249,0.555-0.556v-10C10.889,10.026,10.64,9.778,10.333,9.778z M4.778,15.333H2.556
	C2.249,15.333,2,15.582,2,15.889v4.444c0,0.307,0.249,0.556,0.556,0.556h2.222c0.307,0,0.556-0.249,0.556-0.556v-4.444
	C5.333,15.582,5.085,15.333,4.778,15.333z"/>
</svg>
