<svg version="1.1" id="master" xmlns="http://www.w3.org/2000/svg" xmlns:xlink="http://www.w3.org/1999/xlink"
	 x="0px" y="0px" width="24px" height="24px" viewBox="0 0 24 24" enable-background="new 0 0 24 24" xml:space="preserve">
<path d="M2.418,15.345h1.128c0.76,3.579,4.758,5.573,8.453,5.573c3.7,0,7.694-1.999,8.452-5.573h1.129
	c0.372,0,0.56-0.451,0.296-0.714l-2.336-2.335c-0.162-0.163-0.428-0.163-0.591,0l-2.335,2.335c-0.264,0.263-0.077,0.714,0.295,0.714
	h1.226c-0.708,1.893-2.96,3.016-5.021,3.275V12h1.812c0.229,0,0.418-0.187,0.418-0.418v-1.394c0-0.231-0.188-0.418-0.418-0.418
	h-1.812V9.58c1.299-0.459,2.229-1.697,2.229-3.153c0-1.82-1.478-3.319-3.297-3.344c-1.869-0.026-3.392,1.481-3.392,3.344
	c0,1.456,0.931,2.694,2.229,3.153v0.191H9.074c-0.231,0-0.418,0.187-0.418,0.418v1.394C8.656,11.813,8.842,12,9.074,12h1.812v6.62
	c-2.053-0.258-4.314-1.383-5.021-3.275h1.225c0.373,0,0.559-0.451,0.295-0.714l-2.335-2.335c-0.163-0.163-0.428-0.163-0.591,0
	l-2.335,2.335C1.86,14.894,2.046,15.345,2.418,15.345z M12,5.311c0.615,0,1.115,0.5,1.115,1.115c0,0.614-0.5,1.114-1.115,1.114
	c-0.615,0-1.115-0.5-1.115-1.114C10.885,5.811,11.385,5.311,12,5.311z"/>
</svg>
