<svg version="1.1" id="master" xmlns="http://www.w3.org/2000/svg" xmlns:xlink="http://www.w3.org/1999/xlink" x="0px" y="0px"
	 width="24px" height="24px" viewBox="0 0 24 24" enable-background="new 0 0 24 24" xml:space="preserve">
<rect fill="none" width="24" height="24"/>
<path d="M16.889,20.372c0.188,0.19,0.372,0.377,0.556,0.56L16.366,22l-0.138-0.137c-0.317-0.318-0.624-0.615-0.92-0.895
	c-0.296-0.277-0.607-0.518-0.936-0.719c-0.327-0.2-0.682-0.359-1.063-0.475c-0.38-0.117-0.817-0.175-1.311-0.175
	s-0.931,0.056-1.311,0.169c-0.381,0.113-0.731,0.27-1.052,0.471c-0.321,0.201-0.628,0.437-0.92,0.708
	c-0.292,0.271-0.598,0.565-0.914,0.883L7.634,22l-1.078-1.068l1.121-1.119c0.281-0.282,0.592-0.531,0.93-0.746
	c0.339-0.215,0.692-0.396,1.063-0.545c0.37-0.147,0.751-0.258,1.142-0.332c0.392-0.074,0.788-0.111,1.189-0.111
	c0.824,0,1.602,0.148,2.331,0.443c0.729,0.297,1.394,0.727,1.992,1.291C16.514,19.995,16.702,20.182,16.889,20.372z M9.664,5.483
	C10.403,5.775,11.183,5.922,12,5.922s1.596-0.146,2.336-0.439c0.74-0.292,1.402-0.724,1.987-1.295l1.121-1.11L16.366,2l-0.138,0.137
	c-0.317,0.317-0.624,0.615-0.92,0.894s-0.607,0.518-0.936,0.719c-0.327,0.201-0.682,0.359-1.063,0.476
	C12.931,4.341,12.493,4.399,12,4.399s-0.931-0.056-1.311-0.169c-0.381-0.113-0.731-0.27-1.052-0.47
	C9.316,3.559,9.01,3.323,8.718,3.052C8.426,2.781,8.12,2.486,7.804,2.169L7.634,2L6.556,3.078l1.121,1.11
	C8.262,4.759,8.924,5.191,9.664,5.483z M5.922,12c0-0.402-0.037-0.798-0.111-1.189s-0.185-0.771-0.333-1.142
	C5.33,9.299,5.148,8.947,4.934,8.612C4.719,8.277,4.47,7.966,4.188,7.677L3.067,6.556L2,7.634l0.138,0.137
	c0.316,0.317,0.614,0.624,0.893,0.92s0.519,0.608,0.719,0.936c0.201,0.328,0.359,0.682,0.477,1.063
	C4.342,11.07,4.399,11.507,4.399,12s-0.057,0.93-0.169,1.311s-0.27,0.731-0.471,1.053c-0.2,0.32-0.437,0.627-0.708,0.919
	s-0.565,0.597-0.883,0.915L2,16.365l1.067,1.078c0.184-0.183,0.37-0.367,0.561-0.555c0.19-0.186,0.377-0.375,0.561-0.565
	c0.57-0.599,1.002-1.261,1.295-1.987C5.775,13.61,5.922,12.832,5.922,12z M20.251,9.627c0.2-0.328,0.44-0.64,0.719-0.936
	s0.576-0.603,0.893-0.92L22,7.634l-1.078-1.078l-1.11,1.121c-0.281,0.289-0.53,0.601-0.745,0.935
	c-0.215,0.335-0.396,0.688-0.544,1.057c-0.148,0.37-0.259,0.75-0.333,1.142S18.078,11.598,18.078,12
	c0,0.817,0.146,1.596,0.438,2.336c0.293,0.74,0.725,1.402,1.295,1.987l1.11,1.12L22,16.365l-0.169-0.168
	c-0.317-0.318-0.611-0.623-0.883-0.915s-0.508-0.599-0.708-0.919c-0.201-0.321-0.358-0.672-0.471-1.053S19.601,12.493,19.601,12
	s0.058-0.93,0.174-1.311C19.892,10.309,20.05,9.955,20.251,9.627z"/>
</svg>
