<svg version="1.1" id="master" xmlns="http://www.w3.org/2000/svg" xmlns:xlink="http://www.w3.org/1999/xlink" x="0px" y="0px"
	 width="24px" height="24px" viewBox="0 0 24 24" enable-background="new 0 0 24 24" xml:space="preserve">
<path d="M17.557,10.889V2H6.444v4.444H2V22h8.889v-4.443h2.222V22H22V10.889H17.557z M6.444,19.777H4.222v-2.223h2.222V19.777z
	 M6.444,15.333H4.222v-2.222h2.222V15.333z M6.444,10.889H4.222V8.667h2.222V10.889z M10.889,15.333H8.667v-2.222h2.222V15.333z
	 M10.889,10.889H8.667V8.667h2.222V10.889z M10.889,6.444H8.667V4.222h2.222V6.444z M15.333,15.333h-2.222v-2.222h2.222V15.333z
	 M15.333,10.889h-2.222V8.667h2.222V10.889z M15.333,6.444h-2.222V4.222h2.222V6.444z M19.777,19.777h-2.223v-2.223h2.223V19.777z
	 M19.777,15.333h-2.223v-2.222h2.223V15.333z"/>
</svg>
