<svg version="1.1" id="master" xmlns="http://www.w3.org/2000/svg" xmlns:xlink="http://www.w3.org/1999/xlink"
	 x="0px" y="0px" width="24px" height="24px" viewBox="0 0 24 24" enable-background="new 0 0 24 24" xml:space="preserve">
<path d="M16.956,7.039c1.015,0.182,1.847,0.729,2.497,1.641c0.572,0.807,0.963,1.823,1.17,3.047c0.183,1.12,0.169,2.239-0.039,3.359
	c-0.312,1.849-0.937,3.398-1.872,4.648C17.593,21.245,16.188,22,14.498,22c-0.417,0-0.871-0.13-1.366-0.391
	c-0.338-0.208-0.716-0.313-1.132-0.313c-0.417,0-0.793,0.104-1.132,0.313C10.374,21.87,9.919,22,9.503,22
	c-1.691,0-3.095-0.755-4.214-2.266c-0.937-1.25-1.561-2.8-1.873-4.648c-0.208-1.12-0.222-2.239-0.039-3.359
	c0.208-1.224,0.598-2.24,1.17-3.047C5.198,7.768,6.03,7.221,7.044,7.039C7.669,6.935,8.527,7.026,9.62,7.313
	c0.936,0.26,1.729,0.573,2.38,0.938c0.651-0.365,1.444-0.677,2.381-0.938C15.473,7.026,16.332,6.935,16.956,7.039z M14.811,5.438
	c-0.365,0.338-0.847,0.586-1.444,0.742C12.95,6.31,12.494,6.375,12,6.375l-0.585-0.039c-0.052-0.365-0.052-0.781,0-1.25
	c0.104-0.938,0.403-1.654,0.897-2.148c0.365-0.338,0.846-0.586,1.444-0.742C14.173,2.065,14.628,2,15.122,2l0.585,0.039l0.039,0.586
	c0,0.495-0.065,0.951-0.195,1.367C15.396,4.591,15.148,5.073,14.811,5.438z"/>
</svg>
