<?xml version="1.0" encoding="utf-8"?>
<!-- Generator: Adobe Illustrator 16.0.0, SVG Export Plug-In . SVG Version: 6.00 Build 0)  -->
<!DOCTYPE svg PUBLIC "-//W3C//DTD SVG 1.1//EN" "http://www.w3.org/Graphics/SVG/1.1/DTD/svg11.dtd">
<svg version="1.1" id="master" xmlns="http://www.w3.org/2000/svg" xmlns:xlink="http://www.w3.org/1999/xlink" x="0px" y="0px"
	 width="24px" height="24px" viewBox="0 0 24 24" enable-background="new 0 0 24 24" xml:space="preserve">
<path d="M17.648,12.568c-0.01-1.638,0.732-2.875,2.232-3.786c-0.84-1.201-2.107-1.862-3.781-1.991
	c-1.586-0.125-3.317,0.924-3.953,0.924c-0.67,0-2.205-0.879-3.411-0.879c-2.491,0.04-5.14,1.987-5.14,5.947
	c0,1.17,0.215,2.38,0.643,3.626c0.572,1.639,2.635,5.657,4.787,5.59c1.126-0.026,1.92-0.799,3.385-0.799
	c1.421,0,2.157,0.799,3.411,0.799c2.17-0.03,4.037-3.685,4.58-5.326C17.493,15.302,17.648,12.654,17.648,12.568z M15.122,5.237
	C16.341,3.791,16.229,2.474,16.193,2c-1.076,0.063-2.321,0.732-3.031,1.558c-0.782,0.884-1.242,1.978-1.144,3.211
	C13.186,6.858,14.246,6.259,15.122,5.237z"/>
</svg>
