<svg version="1.1" id="master" xmlns="http://www.w3.org/2000/svg" xmlns:xlink="http://www.w3.org/1999/xlink"
	 x="0px" y="0px" width="24px" height="24px" viewBox="0 0 24 24" enable-background="new 0 0 24 24" xml:space="preserve">
<path d="M21.445,18.667h-0.557V6.444H3.111v12.223H2.556c-0.307,0-0.555,0.249-0.555,0.555v1.111c0,0.307,0.249,0.556,0.555,0.556
	h5.555c0.307,0,0.555-0.249,0.555-0.556v-6.111c0-1.84,1.493-3.333,3.333-3.333s3.333,1.493,3.333,3.333l0.001,5.557v0.555
	c0,0.307,0.248,0.556,0.556,0.556h5.556c0.306,0,0.555-0.249,0.555-0.556v-1.111C22,18.916,21.751,18.667,21.445,18.667z
	 M21.445,3.111H2.556C2.249,3.111,2,3.36,2,3.667v1.111c0,0.307,0.249,0.556,0.556,0.556h18.89C21.751,5.333,22,5.084,22,4.778
	V3.667C22,3.36,21.751,3.111,21.445,3.111z"/>
</svg>
