<svg version="1.1" id="master" xmlns="http://www.w3.org/2000/svg" xmlns:xlink="http://www.w3.org/1999/xlink" x="0px" y="0px"
	 width="24px" height="24px" viewBox="0 0 24 24" enable-background="new 0 0 24 24" xml:space="preserve">
<rect fill="none" width="24" height="24"/>
<path d="M21.489,4.478l-1.544-1.867C19.645,2.233,19.189,2,18.667,2H5.333C4.811,2,4.355,2.233,4.044,2.611L2.511,4.478
	C2.189,4.855,2,5.355,2,5.889v13.889C2,21,3,22,4.222,22h15.555C21,22,22,21,22,19.777V5.889C22,5.355,21.812,4.855,21.489,4.478z
	 M12,18.111L5.889,12h3.889V9.778h4.445V12h3.889L12,18.111z M4.355,4.222l0.9-1.111h13.333l1.045,1.111H4.355z"/>
</svg>
