<svg version="1.1" id="master" xmlns="http://www.w3.org/2000/svg" xmlns:xlink="http://www.w3.org/1999/xlink" x="0px" y="0px"
	 width="24px" height="24px" viewBox="0 0 24 24" enable-background="new 0 0 24 24" xml:space="preserve">
<path d="M21.851,12c-0.051-2.657-2.243-4.771-4.901-4.725c-0.24,0-0.499,0.017-0.749,0.042c-2.101,0.309-3.5,1.817-4.275,2.976
	c-0.792-1.159-2.2-2.667-4.284-2.976c-0.25-0.025-0.5-0.042-0.75-0.042C4.238,7.233,2.05,9.346,2,12
	c0.05,2.653,2.238,4.768,4.892,4.725c0.25,0,0.5-0.016,0.767-0.05c2.1-0.3,3.5-1.809,4.284-2.967
	c0.792,1.158,2.192,2.667,4.284,2.976c0.258,0.025,0.499,0.041,0.758,0.041C19.627,16.753,21.8,14.644,21.851,12z M7.4,15
	c-0.167,0.034-0.358,0.034-0.525,0.034c-1.726,0.036-3.158-1.325-3.208-3.051c0.055-1.727,1.49-3.088,3.217-3.05
	c0.167,0,0.35,0.017,0.525,0.033c1.975,0.292,3.183,2.225,3.591,3.017C10.583,12.774,9.375,14.732,7.409,15H7.4z M12.833,12
	c0.409-0.775,1.616-2.725,3.593-3.017c0.166-0.034,0.35-0.034,0.516-0.034c1.73-0.051,3.174,1.31,3.225,3.04
	c0,0.003,0,0.007,0,0.011c-0.054,1.727-1.488,3.088-3.217,3.05c-0.166,0-0.35-0.016-0.516-0.033
	c-1.967-0.292-3.184-2.242-3.592-3.017H12.833z M5.508,12.492h2.95v-0.967H5.517v0.967H5.508z M17.283,12.492h0.991v-0.967h-0.999
	v-0.991h-0.941v1h-1.001v0.958h1.001v0.983h0.957V12.5L17.283,12.492z M22,7.883c0,0.25-0.184,0.425-0.441,0.425
	c-0.234,0.009-0.433-0.173-0.441-0.408c-0.001-0.003-0.001-0.006-0.001-0.009c0-0.233,0.2-0.434,0.442-0.434
	C21.816,7.458,22,7.642,22,7.883z M21.241,7.883c0,0.183,0.134,0.333,0.334,0.333c0.183,0,0.316-0.15,0.316-0.333
	c0-0.184-0.134-0.333-0.316-0.333C21.375,7.533,21.241,7.683,21.241,7.883z M21.492,8.1h-0.084V7.667l0.167-0.008
	c0.075,0,0.116,0.008,0.149,0.025s0.051,0.05,0.051,0.092c0,0.05-0.034,0.083-0.092,0.092c0.041,0.017,0.058,0.05,0.074,0.108
	l0.025,0.108h-0.1c-0.018-0.017-0.018-0.058-0.033-0.108c-0.017-0.042-0.033-0.059-0.092-0.059h-0.042L21.5,8.1H21.492z
	 M21.509,7.85h0.05c0.059,0,0.083-0.009,0.083-0.058c0-0.042-0.024-0.059-0.083-0.059H21.5V7.85H21.509z"/>
</svg>
