<svg version="1.1" id="master" xmlns="http://www.w3.org/2000/svg" xmlns:xlink="http://www.w3.org/1999/xlink" x="0px" y="0px"
	 width="24px" height="24px" viewBox="0 0 24 24" enable-background="new 0 0 24 24" xml:space="preserve">
<rect fill="none" width="24" height="24"/>
<path d="M5.75,10.75h0.527C7.242,12.957,9.438,14.5,12,14.5s4.758-1.543,5.723-3.75h0.527c0.344,0,0.625-0.281,0.625-0.625v-3.75
	c0-0.344-0.281-0.625-0.625-0.625h-0.527C16.758,3.543,14.563,2,12,2S7.242,3.543,6.277,5.75H5.75c-0.344,0-0.625,0.281-0.625,0.625
	v3.75C5.125,10.469,5.406,10.75,5.75,10.75z M7.313,7.313c0-0.863,0.84-1.563,1.875-1.563h5.625c1.035,0,1.875,0.699,1.875,1.563
	V8.25c0,2.07-1.68,3.75-3.75,3.75h-1.875c-2.07,0-3.75-1.68-3.75-3.75V7.313z M10.125,10.125l0.469-1.406L12,8.25l-1.406-0.469
	l-0.469-1.406L9.656,7.781L8.25,8.25l1.406,0.469L10.125,10.125z M16.047,14.555C14.879,15.309,13.492,15.75,12,15.75
	s-2.879-0.441-4.047-1.195C5.316,14.832,3.25,17.039,3.25,19.75v0.375C3.25,21.16,4.09,22,5.125,22H8.25v-2.5
	c0-0.691,0.559-1.25,1.25-1.25h5c0.691,0,1.25,0.559,1.25,1.25V22h3.125c1.035,0,1.875-0.84,1.875-1.875V19.75
	C20.75,17.039,18.684,14.832,16.047,14.555z M13.875,19.5c-0.344,0-0.625,0.281-0.625,0.625s0.281,0.625,0.625,0.625
	s0.625-0.281,0.625-0.625S14.219,19.5,13.875,19.5z M10.125,19.5c-0.344,0-0.625,0.281-0.625,0.625V22h1.25v-1.875
	C10.75,19.781,10.469,19.5,10.125,19.5z"/>
</svg>
