<svg version="1.1" id="master" xmlns="http://www.w3.org/2000/svg" xmlns:xlink="http://www.w3.org/1999/xlink" x="0px" y="0px"
	 width="24px" height="24px" viewBox="0 0 24 24" enable-background="new 0 0 24 24" xml:space="preserve">
<rect fill="none" width="24" height="24"/>
<path d="M19.074,9.521c-1.819-0.774-4.264-1.275-6.875-1.412c-0.417-0.025-0.823-0.034-1.208-0.034
	c1.932-2.358,4.002-3.941,5.364-3.991c0.269-0.011,0.497,0.046,0.678,0.163c0.589,0.382,0.755,1.474,0.454,2.992
	c-0.033,0.208,0.101,0.411,0.301,0.45c0.208,0.042,0.408-0.092,0.45-0.3c0.375-1.9,0.1-3.205-0.784-3.781
	c-0.316-0.207-0.699-0.304-1.124-0.288c-1.709,0.064-4.118,1.916-6.326,4.766C9.042,8.114,8.137,8.193,7.31,8.324
	C6.771,5.91,6.985,4.177,7.805,3.76C7.92,3.7,8.042,3.668,8.186,3.657c0.581-0.045,1.383,0.329,2.258,1.058
	c0.162,0.133,0.405,0.117,0.539-0.05c0.136-0.163,0.111-0.4-0.05-0.537c-1.05-0.87-2.018-1.295-2.81-1.237
	C7.884,2.912,7.659,2.973,7.453,3.075C6.461,3.58,6.062,5.013,6.312,7.105c0.058,0.434,0.133,0.885,0.242,1.35
	c-2.734,0.547-4.476,1.642-4.551,3.02c-0.05,0.975,0.721,1.903,2.233,2.685c0.187,0.097,0.418,0.025,0.517-0.166
	c0.095-0.187,0.025-0.416-0.167-0.514c-1.208-0.621-1.858-1.323-1.819-1.965c0.042-0.9,1.477-1.825,3.967-2.316
	c0.225,0.828,0.517,1.693,0.875,2.575c-0.849,1.574-1.463,3.123-1.781,4.5c-0.467,2.055-0.217,3.516,0.717,4.122
	c0.3,0.195,0.65,0.292,1.039,0.292c0.779,0,1.722-0.384,2.789-1.143c0.175-0.126,0.213-0.362,0.092-0.533
	c-0.123-0.172-0.361-0.213-0.534-0.088c-1.286,0.918-2.369,1.226-2.968,0.834c-0.633-0.411-0.771-1.618-0.383-3.313
	c0.267-1.154,0.756-2.441,1.423-3.767c0.167,0.365,0.342,0.73,0.525,1.095c1.188,2.329,2.641,4.356,4.092,5.703
	c1.156,1.075,2.229,1.636,3.112,1.636c0.292,0,0.567-0.063,0.813-0.186c0.954-0.488,1.367-1.841,1.166-3.812
	c-0.188-1.845-0.884-4.092-1.963-6.334c-0.092-0.189-0.319-0.269-0.508-0.18c-0.191,0.092-0.275,0.321-0.184,0.51
	c2.242,4.669,2.4,8.491,1.142,9.133c-1.324,0.678-4.52-1.962-6.992-6.816c-0.283-0.546-0.531-1.083-0.75-1.608
	c0.284-0.506,0.583-1.017,0.912-1.525c0.33-0.503,0.672-0.99,1.021-1.455h0.328c0.45,0,0.938,0.009,1.445,0.04
	c5.442,0.286,9.146,2.133,9.07,3.612c-0.033,0.637-0.77,1.281-2.021,1.767c-0.195,0.08-0.294,0.301-0.217,0.496
	c0.059,0.151,0.2,0.244,0.355,0.244c0.048,0,0.095-0.009,0.139-0.025c1.587-0.616,2.458-1.464,2.509-2.441
	c0.059-1.108-0.976-2.175-2.917-3V9.525L19.074,9.521z M8.728,9.874c-0.225,0.346-0.433,0.689-0.637,1.037
	c-0.243-0.64-0.443-1.258-0.603-1.846c0.594-0.092,1.238-0.158,1.924-0.2C9.18,9.19,8.952,9.527,8.73,9.874V9.865L8.728,9.874z
	 M11.998,10.853c-0.633,0-1.146,0.513-1.146,1.146s0.513,1.146,1.146,1.146s1.146-0.513,1.146-1.146S12.631,10.853,11.998,10.853z"
	/>
</svg>
