<?xml version="1.0" encoding="utf-8"?>
<!-- Generator: Adobe Illustrator 16.0.0, SVG Export Plug-In . SVG Version: 6.00 Build 0)  -->
<!DOCTYPE svg PUBLIC "-//W3C//DTD SVG 1.1//EN" "http://www.w3.org/Graphics/SVG/1.1/DTD/svg11.dtd">
<svg version="1.1" id="master" xmlns="http://www.w3.org/2000/svg" xmlns:xlink="http://www.w3.org/1999/xlink" x="0px" y="0px"
	 width="24px" height="24px" viewBox="0 0 24 24" enable-background="new 0 0 24 24" xml:space="preserve">
<path d="M2,12c0-3.039,2.46-5.5,5.5-5.5H18c2.21,0,4,1.79,4,4.001c0,2.209-1.79,4-4,4H9.5C8.12,14.501,7,13.381,7,12
	c0-1.379,1.12-2.5,2.5-2.5H17v2H9.41c-0.55,0-0.55,1,0,1H18c1.1,0,2-0.899,2-1.999C20,9.4,19.1,8.5,18,8.5H7.5
	C5.57,8.5,4,10.07,4,12c0,1.931,1.57,3.501,3.5,3.501H17V17.5H7.5C4.46,17.5,2,15.041,2,12z"/>
</svg>
