<svg version="1.1" id="master" xmlns="http://www.w3.org/2000/svg" xmlns:xlink="http://www.w3.org/1999/xlink" x="0px" y="0px"
	 width="24px" height="24px" viewBox="0 0 24 24" enable-background="new 0 0 24 24" xml:space="preserve">
<rect fill="none" width="24" height="24"/>
<path d="M8.294,16.165c-0.34-0.34-0.163-0.244-0.981-0.462c-0.372-0.101-0.698-0.292-0.993-0.521l-1.772,4.346
	c-0.171,0.42,0.149,0.878,0.603,0.86l2.059-0.079l1.416,1.496c0.313,0.329,0.861,0.227,1.032-0.194l2.033-4.984
	C11.266,16.861,10.795,17,10.31,17C9.548,17,8.833,16.704,8.294,16.165z M19.453,19.527l-1.772-4.346
	c-0.295,0.229-0.622,0.421-0.993,0.521c-0.823,0.22-0.643,0.123-0.981,0.462C15.167,16.704,14.451,17,13.689,17
	c-0.485,0-0.955-0.139-1.379-0.374l2.033,4.984c0.171,0.421,0.72,0.523,1.032,0.194l1.416-1.496l2.059,0.079
	C19.305,20.405,19.624,19.947,19.453,19.527z M14.773,15.281c0.598-0.607,0.666-0.555,1.516-0.786
	c0.542-0.148,0.967-0.58,1.111-1.133c0.293-1.109,0.217-0.976,1.014-1.787c0.397-0.404,0.553-0.994,0.407-1.546
	c-0.291-1.109-0.292-0.954,0-2.063c0.146-0.552-0.01-1.142-0.407-1.546c-0.797-0.812-0.721-0.678-1.014-1.787
	C17.256,4.08,16.831,3.648,16.289,3.5c-1.089-0.297-0.958-0.219-1.757-1.032c-0.396-0.404-0.977-0.562-1.519-0.415
	c-1.088,0.297-0.937,0.297-2.027,0c-0.542-0.147-1.122,0.01-1.519,0.415C8.67,3.281,8.801,3.203,7.712,3.5
	C7.169,3.648,6.745,4.08,6.6,4.632C6.308,5.742,6.383,5.608,5.586,6.419C5.188,6.824,5.033,7.414,5.179,7.966
	c0.292,1.108,0.292,0.953,0,2.063c-0.145,0.552,0.01,1.142,0.407,1.546c0.797,0.812,0.722,0.678,1.014,1.787
	c0.146,0.553,0.57,0.984,1.112,1.133c0.874,0.237,0.939,0.2,1.515,0.786c0.517,0.525,1.322,0.62,1.943,0.228
	c0.507-0.322,1.154-0.322,1.662,0C13.452,15.901,14.257,15.807,14.773,15.281z M8.315,8.874c0-2.072,1.65-3.751,3.685-3.751
	s3.685,1.679,3.685,3.751c0,2.071-1.649,3.75-3.685,3.75S8.315,10.945,8.315,8.874z"/>
</svg>
