<svg version="1.1" id="master" xmlns="http://www.w3.org/2000/svg" xmlns:xlink="http://www.w3.org/1999/xlink"
	 x="0px" y="0px" width="24px" height="24px" viewBox="0 0 24 24" enable-background="new 0 0 24 24" xml:space="preserve">
<path d="M13.638,14.482l-2.12-2.122l-7.371,7.371c-0.195,0.195-0.195,0.512,0,0.707l1.415,1.415c0.195,0.195,0.511,0.195,0.706,0
	L13.638,14.482z M15,2h-1.001C10.134,2,7,5.134,7,9v0.999h3.571l4.708,4.708c0.39,0.391,1.022,0.391,1.413,0l3.015-3.016
	c0.195-0.195,0.293-0.451,0.293-0.708c0-0.255-0.098-0.511-0.293-0.707l-0.932-0.932l1.078-1.078c0.195-0.195,0.195-0.512,0-0.707
	l-1.414-1.414c-0.195-0.195-0.512-0.195-0.707,0l-1.077,1.077L15,5.571V2z M12.999,4.1v1.186C11.772,5.793,10.794,6.772,10.286,8
	H9.101C9.5,6.043,11.044,4.499,12.999,4.1z"/>
</svg>
