<svg version="1.1" id="master" xmlns="http://www.w3.org/2000/svg" xmlns:xlink="http://www.w3.org/1999/xlink" x="0px" y="0px"
	 width="24px" height="24px" viewBox="0 0 24 24" enable-background="new 0 0 24 24" xml:space="preserve">
<rect fill="none" width="24" height="24"/>
<path d="M14.272,9.5c0.628,0,1.137,0.509,1.137,1.137c0,0.627-0.509,1.136-1.137,1.136c-0.627,0-1.136-0.509-1.136-1.136
	C13.137,10.009,13.646,9.5,14.272,9.5z M9.727,9.5c0.628,0,1.137,0.509,1.137,1.137c0,0.627-0.509,1.136-1.137,1.136
	c-0.627,0-1.136-0.509-1.136-1.136C8.591,10.009,9.1,9.5,9.727,9.5z M21.945,12.6C21.982,12.41,22,12.209,22,12
	c0-0.209-0.018-0.409-0.055-0.6c-0.228-1.373-1.236-2.491-2.555-2.882c-0.481-1.018-1.164-1.909-1.991-2.646
	C15.963,4.591,14.072,3.818,12,3.818c-2.073,0-3.963,0.773-5.4,2.054C5.764,6.609,5.082,7.509,4.609,8.518
	c-1.318,0.391-2.328,1.5-2.555,2.882C2.018,11.591,2,11.791,2,12c0,0.209,0.018,0.41,0.055,0.6c0.227,1.373,1.236,2.492,2.555,2.883
	c0.473,1.008,1.154,1.899,1.973,2.628C8.018,19.4,9.918,20.182,12,20.182s3.981-0.781,5.428-2.071
	c0.817-0.729,1.5-1.629,1.973-2.628C20.709,15.092,21.718,13.981,21.945,12.6z M18.363,13.818c-0.09,0-0.172-0.018-0.264-0.026
	c-0.182,0.608-0.444,1.172-0.782,1.69c-1.136,1.736-3.09,2.882-5.317,2.882s-4.182-1.146-5.318-2.882
	c-0.336-0.519-0.6-1.082-0.782-1.69c-0.091,0.009-0.172,0.026-0.264,0.026c-1,0-1.818-0.818-1.818-1.818s0.818-1.818,1.818-1.818
	c0.091,0,0.173,0.018,0.264,0.027C6.082,9.6,6.345,9.037,6.682,8.518C7.818,6.782,9.772,5.637,12,5.637s4.182,1.145,5.317,2.881
	c0.338,0.519,0.601,1.082,0.782,1.691c0.092-0.009,0.174-0.027,0.264-0.027c1,0,1.818,0.818,1.818,1.818
	S19.363,13.818,18.363,13.818z M7.909,13.818c0.69,1.608,2.264,2.728,4.091,2.728s3.4-1.119,4.091-2.728H7.909z"/>
</svg>
