<svg version="1.1" id="master" xmlns="http://www.w3.org/2000/svg" xmlns:xlink="http://www.w3.org/1999/xlink"
	 x="0px" y="0px" width="24px" height="24px" viewBox="0 0 24 24" enable-background="new 0 0 24 24" xml:space="preserve">
<path d="M12,8.25c1.726,0,3.125-1.398,3.125-3.125S13.726,2,12,2c-1.727,0-3.125,1.398-3.125,3.125S10.273,8.25,12,8.25z
	 M9.914,17.969l1-1.25l-2.402-2l-1.793,2.242c-0.445,0.555-0.457,1.344-0.031,1.914l1.875,2.5C8.871,21.785,9.339,22,9.812,22
	c0.324,0,0.656-0.102,0.938-0.313c0.691-0.516,0.828-1.496,0.313-2.188L9.914,17.969z M15.487,14.719l-2.402,2l1,1.25L12.937,19.5
	c-0.515,0.691-0.379,1.672,0.313,2.188C13.53,21.898,13.858,22,14.187,22c0.477,0,0.945-0.215,1.25-0.625l1.875-2.5
	c0.426-0.57,0.414-1.359-0.031-1.914L15.487,14.719z M19.214,7.664c-0.496-0.707-1.469-0.875-2.176-0.383l-1.586,1.113
	c-2.059,1.445-4.851,1.445-6.905,0L6.96,7.285c-0.707-0.496-1.68-0.324-2.176,0.379C4.289,8.371,4.46,9.344,5.164,9.84l1.586,1.113
	c0.664,0.465,1.382,0.816,2.125,1.09v1.207h6.25v-1.203c0.742-0.273,1.461-0.625,2.125-1.09l1.586-1.113
	C19.542,9.344,19.71,8.371,19.214,7.664z"/>
</svg>
