<svg version="1.1" id="master" xmlns="http://www.w3.org/2000/svg" xmlns:xlink="http://www.w3.org/1999/xlink" x="0px" y="0px"
	 width="24px" height="24px" viewBox="0 0 24 24" enable-background="new 0 0 24 24" xml:space="preserve">
<path d="M13.5,2v8h8C21.5,5.58,17.92,2,13.5,2z M19.82,15.891C20.87,14.54,21.5,12.84,21.5,11H6.94L5.99,9H2.5v2h2.22
	c0,0,1.89,4.07,2.12,4.42C5.74,16.01,5,17.17,5,18.5C5,20.43,6.57,22,8.5,22c1.76,0,3.22-1.3,3.46-3h2.08c0.239,1.7,1.7,3,3.46,3
	c1.93,0,3.5-1.57,3.5-3.5C21,17.46,20.54,16.53,19.82,15.891z M8.5,20C7.67,20,7,19.33,7,18.5S7.67,17,8.5,17s1.5,0.67,1.5,1.5
	S9.33,20,8.5,20z M17.5,20c-0.83,0-1.5-0.67-1.5-1.5s0.67-1.5,1.5-1.5s1.5,0.67,1.5,1.5S18.33,20,17.5,20z"/>
</svg>
