<?xml version="1.0" encoding="utf-8"?>
<!-- Generator: Adobe Illustrator 16.0.0, SVG Export Plug-In . SVG Version: 6.00 Build 0)  -->
<!DOCTYPE svg PUBLIC "-//W3C//DTD SVG 1.1//EN" "http://www.w3.org/Graphics/SVG/1.1/DTD/svg11.dtd">
<svg version="1.1" id="master" xmlns="http://www.w3.org/2000/svg" xmlns:xlink="http://www.w3.org/1999/xlink" x="0px" y="0px"
	 width="24px" height="24px" viewBox="0 0 24 24" enable-background="new 0 0 24 24" xml:space="preserve">
<path d="M16.676,9.677l-0.353-0.354c-0.195-0.195-0.513-0.195-0.708,0L14,10.939l-1.616-1.616c-0.195-0.195-0.512-0.195-0.707,0
	l-0.354,0.354c-0.195,0.195-0.195,0.512,0,0.707L12.939,12l-1.617,1.616c-0.195,0.195-0.195,0.512,0,0.707l0.354,0.354
	c0.195,0.195,0.512,0.195,0.707,0L14,13.062l1.616,1.616c0.195,0.195,0.512,0.195,0.707,0l0.354-0.354
	c0.195-0.195,0.195-0.512,0-0.707L15.061,12l1.616-1.616C16.871,10.188,16.871,9.872,16.676,9.677z M20,6H8.415
	C7.884,6,7.375,6.211,7,6.586l-4.707,4.707c-0.391,0.391-0.391,1.024,0,1.414L7,17.414C7.375,17.79,7.884,18,8.414,18H20
	c1.104,0,2-0.896,2-2V8C22,6.896,21.104,6,20,6z M20.5,16c0,0.276-0.225,0.501-0.5,0.501H8.415c-0.134,0-0.259-0.053-0.354-0.146
	L3.708,12l4.353-4.354C8.155,7.552,8.28,7.5,8.414,7.5H20c0.275,0,0.5,0.225,0.5,0.5V16z"/>
</svg>
