<?xml version="1.0" encoding="utf-8"?>
<!-- Generator: Adobe Illustrator 16.0.0, SVG Export Plug-In . SVG Version: 6.00 Build 0)  -->
<!DOCTYPE svg PUBLIC "-//W3C//DTD SVG 1.1//EN" "http://www.w3.org/Graphics/SVG/1.1/DTD/svg11.dtd">
<svg version="1.1" id="master" xmlns="http://www.w3.org/2000/svg" xmlns:xlink="http://www.w3.org/1999/xlink" x="0px" y="0px"
	 width="24px" height="24px" viewBox="0 0 24 24" enable-background="new 0 0 24 24" xml:space="preserve">
<path d="M20.333,4.5h-12.5c-0.575,0-1.025,0.292-1.325,0.733L2,12l4.508,6.758c0.3,0.442,0.75,0.742,1.325,0.742h12.5
	C21.25,19.5,22,18.75,22,17.833V6.167C22,5.25,21.25,4.5,20.333,4.5z M17.833,14.991l-1.175,1.176l-2.992-2.991l-2.991,2.991
	L9.5,14.991L12.492,12L9.5,9.008l1.175-1.175l2.991,2.991l2.992-2.991l1.175,1.175L14.842,12L17.833,14.991z"/>
</svg>
