<svg version="1.1" id="master" xmlns="http://www.w3.org/2000/svg" xmlns:xlink="http://www.w3.org/1999/xlink" x="0px" y="0px"
	 width="24px" height="24px" viewBox="0 0 24 24" enable-background="new 0 0 24 24" xml:space="preserve">
<rect fill="none" width="24" height="24"/>
<path d="M15.75,14.5h-7.5C7.56,14.5,7,15.06,7,15.75V17h10v-1.25C17,15.06,16.44,14.5,15.75,14.5z M7,22h10v-3.75H7V22z
	 M15.75,5.125h-0.313V4.188C15.438,2.981,14.456,2,13.25,2h-2.5C9.544,2,8.563,2.981,8.563,4.188v0.938H8.25c-2.761,0-5,2.239-5,5
	V19.5c0,1.381,1.119,2.5,2.5,2.5v-6.25c0-1.379,1.122-2.5,2.5-2.5h7.5c1.379,0,2.5,1.121,2.5,2.5V22c1.381,0,2.5-1.119,2.5-2.5
	v-9.375C20.75,7.364,18.512,5.125,15.75,5.125z M10.438,4.188c0-0.172,0.141-0.313,0.313-0.313h2.5c0.173,0,0.313,0.141,0.313,0.313
	v0.938h-3.125V4.188z M15.75,9.813c0,0.172-0.14,0.313-0.313,0.313H8.563c-0.172,0-0.313-0.14-0.313-0.313V9.188
	c0-0.172,0.14-0.313,0.313-0.313h6.875c0.173,0,0.313,0.14,0.313,0.313V9.813z"/>
</svg>
