<svg version="1.1" id="master" xmlns="http://www.w3.org/2000/svg" xmlns:xlink="http://www.w3.org/1999/xlink"
	 x="0px" y="0px" width="24px" height="24px" viewBox="0 0 24 24" enable-background="new 0 0 24 24" xml:space="preserve">
<path d="M9.602,14.791c1.211-1.211,1.535-2.072,1.876-2.986c0.369-0.982,0.75-1.998,2.13-3.38c1.382-1.382,2.398-1.762,3.381-2.131
	c0.829-0.313,1.619-0.614,2.666-1.575l-1.308-1.298c-0.378-0.372-0.97-0.414-1.396-0.098c-0.474,0.35-0.874,0.499-1.424,0.705
	c-4.952,1.845-6.262,5.726-6.561,6.518c-1.033,2.737-3.109,3.288-3.428,3.406c-0.863,0.321-1.9,0.707-3.162,1.748
	c-0.481,0.397-0.503,1.126-0.062,1.564l1.242,1.233c1.221-1.132,2.159-1.492,3.061-1.831C7.53,16.324,8.391,16.002,9.602,14.791z
	 M21.684,6.736l-1.241-1.233c-1.221,1.133-2.158,1.493-3.063,1.833c-0.911,0.342-1.772,0.665-2.984,1.875
	c-1.211,1.209-1.533,2.072-1.875,2.986c-0.369,0.983-0.75,1.999-2.132,3.378c-1.381,1.382-2.396,1.763-3.378,2.13
	c-0.829,0.313-1.618,0.613-2.664,1.574l1.308,1.3c0.378,0.371,0.969,0.413,1.396,0.098c0.472-0.35,0.871-0.498,1.421-0.703
	c4.938-1.84,6.25-5.697,6.561-6.517c1.032-2.735,3.108-3.287,3.428-3.406c0.863-0.322,1.901-0.708,3.164-1.75
	C22.104,7.905,22.126,7.174,21.684,6.736L21.684,6.736z"/>
</svg>
