<svg version="1.1" id="master" xmlns="http://www.w3.org/2000/svg" xmlns:xlink="http://www.w3.org/1999/xlink" x="0px" y="0px"
	 width="24px" height="24px" viewBox="0 0 24 24" enable-background="new 0 0 24 24" xml:space="preserve">
<rect fill="none" width="24" height="24"/>
<path d="M10,14.5L10,14.5c-0.001-0.506,0.041-0.271-2.659-5.672c-0.551-1.103-2.131-1.105-2.683,0
	C1.936,14.273,2.001,14.01,2.001,14.5H2C2,15.88,3.791,17,6,17S10,15.88,10,14.5z M6,9.5L8.25,14h-4.5L6,9.5z M21.999,14.5
	c0-0.506,0.042-0.271-2.657-5.672c-0.552-1.103-2.131-1.105-2.684,0C13.936,14.273,14,14.01,14,14.5l0,0c0,1.38,1.791,2.5,4,2.5
	C20.21,17,22,15.88,21.999,14.5L21.999,14.5z M15.75,14L18,9.5l2.25,4.5H15.75z M18.5,18H13V8.789
	C13.734,8.467,14.287,7.805,14.449,7H18.5C18.775,7,19,6.776,19,6.5v-1C19,5.224,18.775,5,18.5,5h-4.511C13.532,4.396,12.814,4,12,4
	c-0.815,0-1.532,0.396-1.989,1H5.5C5.224,5,5,5.224,5,5.5v1C5,6.776,5.224,7,5.5,7h4.05C9.714,7.805,10.265,8.467,11,8.789V18H5.5
	C5.224,18,5,18.225,5,18.5v1C5,19.775,5.224,20,5.5,20h13c0.275,0,0.5-0.225,0.5-0.5v-1C19,18.225,18.775,18,18.5,18z"/>
</svg>
