<svg version="1.1" id="master" xmlns="http://www.w3.org/2000/svg" xmlns:xlink="http://www.w3.org/1999/xlink" x="0px" y="0px"
	 width="24px" height="24px" viewBox="0 0 24 24" enable-background="new 0 0 24 24" xml:space="preserve">
<path d="M13.111,7h5.556v2.222h-5.556V7z M13.111,14.777h5.556V17h-5.556V14.777z M19.777,2H4.222C3,2,2,3,2,4.222v15.555
	C2,21,3,22,4.222,22h15.555C21,22,22,21,22,19.777V4.222C22,3,21,2,19.777,2z M20,20H4V4h16V20z M10.889,5.333H5.333v5.555h5.555
	V5.333z M9.778,9.778H6.444V6.444h3.333V9.778z M10.889,13.111H5.333v5.556h5.555V13.111z M9.778,17.556H6.444v-3.333h3.333V17.556z
	"/>
</svg>
