<svg version="1.1" id="master" xmlns="http://www.w3.org/2000/svg" xmlns:xlink="http://www.w3.org/1999/xlink" x="0px" y="0px"
	 width="24px" height="24px" viewBox="0 0 24 24" enable-background="new 0 0 24 24" xml:space="preserve">
<path d="M7,19.863h10v1.421h-0.716V22H7.716v-0.716H7V19.863z M8.422,8.432v1.421l1.431-1.421H12L8.422,12v2.146l5.715-5.715h2.147
	v10.715h-0.716v-1.431l-1.432,1.431H12l3.568-3.578v-2.137l-5.716,5.715H7.716V8.432H8.422z M8.422,16.284v2.147l7.146-7.147V9.147
	L8.422,16.284z M15.713,4.142c-0.255-0.434-0.571-0.81-0.949-1.128c-0.378-0.318-0.804-0.566-1.277-0.745
	C13.013,2.089,12.517,2,12,2s-1.013,0.089-1.486,0.269C10.04,2.447,9.614,2.696,9.236,3.014C8.858,3.332,8.542,3.708,8.287,4.142
	s-0.426,0.91-0.512,1.426h8.449C16.139,5.052,15.968,4.576,15.713,4.142z M7,7.716h10V6.284H7V7.716z"/>
</svg>
