<svg version="1.1" id="master" xmlns="http://www.w3.org/2000/svg" xmlns:xlink="http://www.w3.org/1999/xlink" x="0px" y="0px"
	 width="24px" height="24px" viewBox="0 0 24 24" enable-background="new 0 0 24 24" xml:space="preserve">
<rect fill="none" width="24" height="24"/>
<path d="M3.81,6.28C2.67,7.9,2,9.87,2,12s0.67,4.1,1.81,5.721C6.23,16.95,8,14.68,8,12C8,9.32,6.23,7.05,3.81,6.28z M20.189,6.28
	C17.77,7.05,16,9.32,16,12c0,2.68,1.77,4.95,4.189,5.721C21.33,16.1,22,14.13,22,12S21.33,7.9,20.189,6.28z M14,12
	c0-3.28,1.971-6.09,4.79-7.33C17.01,3.02,14.63,2,12,2S6.99,3.02,5.21,4.67C8.03,5.91,10,8.72,10,12c0,3.279-1.97,6.09-4.79,7.33
	C6.99,20.98,9.37,22,12,22s5.01-1.02,6.79-2.67C15.971,18.09,14,15.279,14,12z"/>
</svg>
