<svg version="1.1" id="master" xmlns="http://www.w3.org/2000/svg" xmlns:xlink="http://www.w3.org/1999/xlink" x="0px" y="0px"
	 width="24px" height="24px" viewBox="0 0 24 24" enable-background="new 0 0 24 24" xml:space="preserve">
<path d="M17.115,10.995H22c-0.16-1.618-0.713-3.126-1.547-4.422C18.713,7.407,17.447,9.035,17.115,10.995z M6.885,10.995
	c-0.332-1.96-1.599-3.588-3.337-4.422C2.714,7.869,2.161,9.377,2,10.995H6.885z M15.086,10.995c0.322-2.603,1.889-4.814,4.08-6.03
	C17.557,3.327,15.408,2.241,13.006,2v8.995H15.086z M8.915,10.995h2.08V2C8.593,2.241,6.433,3.327,4.834,4.965
	C7.025,6.181,8.593,8.393,8.915,10.995z M15.086,13.006h-2.08V22c2.402-0.242,4.563-1.326,6.16-2.965
	C16.975,17.818,15.408,15.607,15.086,13.006z M3.548,17.428c1.729-0.834,3.005-2.473,3.337-4.422H2
	C2.161,14.623,2.714,16.131,3.548,17.428z M17.115,13.006c0.332,1.959,1.598,3.588,3.338,4.422c0.834-1.297,1.387-2.805,1.547-4.422
	H17.115z M8.915,13.006c-0.322,2.602-1.89,4.813-4.081,6.029c1.608,1.639,3.759,2.723,6.161,2.965v-8.994H8.915z"/>
</svg>
