<svg version="1.1" id="master" xmlns="http://www.w3.org/2000/svg" xmlns:xlink="http://www.w3.org/1999/xlink" x="0px" y="0px"
	 width="24px" height="24px" viewBox="0 0 24 24" enable-background="new 0 0 24 24" xml:space="preserve">
<rect fill="none" width="24" height="24"/>
<path d="M19.451,8.053c-0.239-0.557-0.914-0.775-1.434-0.463l-3.148,1.888L14,6l-1.334,1h-1.333L10,6L9.13,9.478L5.982,7.589
	c-0.52-0.312-1.195-0.093-1.434,0.463L2,14l1.551-0.518c0.855-0.284,1.796,0.038,2.296,0.788L7,16l0.37-0.369
	c0.86-0.86,2.284-0.76,3.014,0.214L12,18l1.616-2.155c0.73-0.974,2.153-1.074,3.015-0.214L17,16l1.152-1.729
	c0.5-0.75,1.441-1.072,2.297-0.788L22,14L19.451,8.053z"/>
</svg>
