<svg version="1.1" id="master" xmlns="http://www.w3.org/2000/svg" xmlns:xlink="http://www.w3.org/1999/xlink" x="0px" y="0px"
	 width="24px" height="24px" viewBox="0 0 24 24" enable-background="new 0 0 24 24" xml:space="preserve">
<rect fill="none" width="24" height="24"/>
<path d="M13.253,14.845l1.589-1.59l7.156,7.16L20.412,22L13.253,14.845z M18.023,8.477L21.2,5.299
	C16.813,0.91,9.701,0.898,5.312,5.277C9.679,3.832,14.545,5,18.023,8.477z M5.278,5.31C0.9,9.7,0.912,16.812,5.301,21.2l3.178-3.178
	C5.001,14.544,3.833,9.677,5.278,5.31z M5.301,5.288L5.29,5.299c-0.422,3.345,1.3,7.645,4.778,11.135l6.367-6.368
	C12.955,6.588,8.645,4.866,5.301,5.288z"/>
</svg>
