<svg version="1.1" id="master" xmlns="http://www.w3.org/2000/svg" xmlns:xlink="http://www.w3.org/1999/xlink" x="0px" y="0px"
	 width="24px" height="24px" viewBox="0 0 24 24" enable-background="new 0 0 24 24" xml:space="preserve">
<rect fill="none" width="24" height="24"/>
<path d="M18.429,4.857h-2.143V3.071C16.286,2.48,15.806,2,15.214,2H3.071C2.48,2,2,2.48,2,3.071v17.857C2,21.521,2.48,22,3.071,22
	h12.143c0.592,0,1.072-0.479,1.072-1.071v-1.881l3.598-1.605C21.17,16.869,22,15.588,22,14.182V8.429
	C22,6.459,20.398,4.857,18.429,4.857z M19.143,14.182c0,0.281-0.165,0.537-0.423,0.651l-2.434,1.086V7.714h2.143
	c0.395,0,0.714,0.32,0.714,0.714V14.182z M11.286,17.714c-0.394,0-0.714-0.319-0.714-0.714V7c0-0.395,0.32-0.714,0.714-0.714
	C11.68,6.286,12,6.605,12,7v10C12,17.395,11.68,17.714,11.286,17.714z M7,17.714c-0.395,0-0.714-0.319-0.714-0.714V7
	c0-0.395,0.32-0.714,0.714-0.714S7.714,6.605,7.714,7v10C7.714,17.395,7.395,17.714,7,17.714z"/>
</svg>
