<svg version="1.1" id="master" xmlns="http://www.w3.org/2000/svg" xmlns:xlink="http://www.w3.org/1999/xlink" x="0px" y="0px"
	 width="24px" height="24px" viewBox="0 0 24 24" enable-background="new 0 0 24 24" xml:space="preserve">
<path d="M14.917,6.792c0.916,0,1.666-0.75,1.666-1.667c0-0.917-0.75-1.667-1.666-1.667c-0.917,0-1.667,0.75-1.667,1.667
	C13.25,6.042,14,6.792,14.917,6.792z M6.167,12.208C3.833,12.208,2,14.042,2,16.375c0,2.334,1.833,4.166,4.167,4.166
	c2.333,0,4.167-1.832,4.167-4.166C10.333,14.042,8.5,12.208,6.167,12.208z M6.167,19.291c-1.583,0-2.917-1.332-2.917-2.916
	s1.333-2.916,2.917-2.916c1.583,0,2.917,1.332,2.917,2.916S7.75,19.291,6.167,19.291z M11,10.958l2-2l0.666,0.667
	c1.084,1.083,2.501,1.75,4.25,1.75V9.708c-1.25,0-2.249-0.5-2.999-1.25l-1.584-1.583c-0.417-0.333-0.833-0.5-1.333-0.5
	c-0.5,0-0.917,0.167-1.167,0.5L8.5,9.208C8.167,9.542,8,9.958,8,10.375c0,0.5,0.167,0.917,0.5,1.167l2.667,2.333v4.166h1.667v-5.166
	L11,10.958z M17.833,12.208c-2.333,0-4.167,1.833-4.167,4.167c0,2.334,1.834,4.166,4.167,4.166S22,18.709,22,16.375
	C22,14.042,20.166,12.208,17.833,12.208z M17.833,19.291c-1.583,0-2.916-1.332-2.916-2.916s1.333-2.916,2.916-2.916
	c1.584,0,2.917,1.332,2.917,2.916S19.417,19.291,17.833,19.291z"/>
</svg>
