<svg version="1.1" id="master" xmlns="http://www.w3.org/2000/svg" xmlns:xlink="http://www.w3.org/1999/xlink" x="0px" y="0px"
	 width="24px" height="24px" viewBox="0 0 24 24" enable-background="new 0 0 24 24" xml:space="preserve">
<rect fill="none" width="24" height="24"/>
<path d="M18.25,3.875c0-0.346-0.28-0.625-0.625-0.625h-2.5c-0.345,0-0.625,0.279-0.625,0.625V5.75h3.75V3.875z M4.496,8.25
	C4.398,11.916,2.135,12.711,2,17.781V19.5c0,0.69,0.56,1.25,1.25,1.25H7c0.69,0,1.25-0.56,1.25-1.25v-6.25H9.5V7H5.744
	C5.055,7,4.515,7.562,4.496,8.25z M19.503,8.25C19.485,7.562,18.945,7,18.257,7H14.5v6.25h1.25v6.25c0,0.69,0.56,1.25,1.25,1.25
	h3.75c0.69,0,1.25-0.56,1.25-1.25v-1.719C21.865,12.711,19.602,11.916,19.503,8.25z M8.875,3.25h-2.5
	c-0.346,0-0.625,0.279-0.625,0.625V5.75H9.5V3.875C9.5,3.529,9.221,3.25,8.875,3.25z M10.75,13.25h2.5V7h-2.5V13.25z"/>
</svg>
