<svg version="1.1" id="master" xmlns="http://www.w3.org/2000/svg" xmlns:xlink="http://www.w3.org/1999/xlink"
	 x="0px" y="0px" width="24px" height="24px" viewBox="0 0 24 24" enable-background="new 0 0 24 24" xml:space="preserve">
<path d="M12,6.999c0.646,0,1.257,0.132,1.833,0.333c0.462-0.358,0.82-0.844,1.024-1.414c-0.875-0.378-1.84-0.59-2.854-0.59
	c-1.011,0-1.976,0.208-2.851,0.587c0.205,0.569,0.563,1.056,1.024,1.413C10.75,7.13,11.358,6.999,12,6.999z M7.684,18.344
	c0.417-0.409,0.708-0.917,0.851-1.473c-1.143-0.916-1.903-2.268-2.045-3.806c-0.295-0.098-0.598-0.159-0.917-0.159
	c-0.264,0-0.528,0.034-0.781,0.107C4.934,15.194,6.034,17.11,7.684,18.344z M15.469,16.864c0.143,0.556,0.435,1.066,0.852,1.476
	c1.646-1.232,2.746-3.149,2.882-5.33c-0.25-0.069-0.511-0.104-0.771-0.104c-0.32,0-0.625,0.064-0.925,0.162
	C17.365,14.604,16.604,15.947,15.469,16.864z M19.41,9.746c-0.611-0.361-1.261-0.577-1.92-0.691
	c0.209-0.615,0.347-1.264,0.347-1.952c0-1.424-0.503-2.806-1.424-3.896c-0.087-0.104-0.229-0.128-0.347-0.063
	c-0.115,0.066-0.167,0.208-0.126,0.337c0.156,0.479,0.229,0.913,0.229,1.337c0,2.354-1.868,4.268-4.166,4.268
	c-2.299,0-4.167-1.914-4.167-4.268c0-0.42,0.077-0.858,0.229-1.337c0.042-0.128-0.01-0.271-0.125-0.337
	C7.823,3.078,7.68,3.103,7.594,3.207c-0.917,1.09-1.424,2.472-1.424,3.896c0,0.688,0.136,1.336,0.347,1.952
	c-0.656,0.114-1.309,0.33-1.92,0.691c-1.201,0.712-2.118,1.851-2.58,3.209c-0.045,0.127,0.007,0.267,0.122,0.34
	c0.114,0.069,0.26,0.045,0.347-0.056c0.326-0.376,0.66-0.664,1.014-0.872c1.989-1.177,4.542-0.476,5.691,1.562
	c1.149,2.039,0.465,4.654-1.524,5.831c-0.354,0.211-0.764,0.361-1.243,0.465c-0.129,0.028-0.222,0.146-0.222,0.282
	c0.003,0.139,0.093,0.253,0.225,0.276c1.379,0.272,2.799,0.028,4.001-0.684c0.625-0.368,1.142-0.851,1.573-1.393
	c0.431,0.542,0.947,1.024,1.572,1.393c1.202,0.712,2.622,0.956,4.001,0.684c0.132-0.023,0.223-0.138,0.226-0.276
	c0-0.136-0.09-0.254-0.222-0.282c-0.483-0.101-0.89-0.254-1.244-0.465c-1.989-1.177-2.674-3.792-1.523-5.831
	c1.149-2.038,3.701-2.739,5.69-1.562c0.355,0.211,0.688,0.496,1.015,0.872c0.087,0.101,0.232,0.125,0.348,0.056
	c0.114-0.07,0.166-0.213,0.121-0.34C21.529,11.596,20.611,10.454,19.41,9.746z M12,14.226c-0.92,0-1.667-0.747-1.667-1.667
	c0-0.92,0.747-1.667,1.667-1.667s1.667,0.747,1.667,1.667C13.667,13.479,12.92,14.226,12,14.226z"/>
</svg>
