<svg version="1.1" id="master" xmlns="http://www.w3.org/2000/svg" xmlns:xlink="http://www.w3.org/1999/xlink" x="0px" y="0px"
	 width="24px" height="24px" viewBox="0 0 24 24" enable-background="new 0 0 24 24" xml:space="preserve">
<rect fill="none" width="24" height="24"/>
<path d="M12.424,13.012c0.039-0.667,0.366-1.255,0.859-1.672c0.518-0.43,1.171-0.663,1.844-0.658c0.708,0,1.358,0.25,1.842,0.658
	c0.493,0.417,0.819,1.005,0.857,1.671c0.037,0.686-0.237,1.321-0.721,1.794c-0.532,0.509-1.243,0.789-1.979,0.782
	c-0.736,0.007-1.447-0.273-1.98-0.782c-0.483-0.473-0.759-1.108-0.721-1.793 M8.125,14.359c0.005,0.261,0.088,0.768,0.213,1.164
	c0.27,0.854,0.723,1.638,1.328,2.299c0.648,0.713,1.439,1.28,2.322,1.666c0.961,0.424,2.001,0.64,3.051,0.635
	c1.05,0.002,2.088-0.218,3.047-0.645c0.882-0.39,1.673-0.96,2.32-1.675c0.604-0.662,1.057-1.446,1.327-2.301
	c0.26-0.828,0.332-1.703,0.208-2.563c-0.117-0.823-0.405-1.612-0.847-2.316c-0.408-0.655-0.931-1.231-1.543-1.703h0.002
	l-6.248-4.797l-0.018-0.012c-0.409-0.315-1.099-0.313-1.55,0.001c-0.456,0.318-0.507,0.846-0.103,1.179l0,0.001l2.604,2.119
	L6.298,7.421H6.287C5.63,7.422,5,7.853,4.875,8.398c-0.128,0.554,0.317,1.014,1,1.017v0.001l4.025-0.008l-7.183,5.514l-0.028,0.021
	c-0.677,0.519-0.896,1.381-0.469,1.928c0.434,0.556,1.354,0.557,2.039,0.004l3.92-3.208C8.178,13.667,8.121,14.1,8.125,14.359
	L8.125,14.359z M18.199,15.811c-0.807,0.823-1.938,1.289-3.162,1.291c-1.225,0.003-2.355-0.46-3.164-1.281
	c-0.382-0.384-0.676-0.845-0.863-1.353c-0.347-0.966-0.261-2.034,0.234-2.933c0.244-0.438,0.571-0.827,0.961-1.143
	c0.786-0.64,1.785-0.985,2.83-0.987c1.047-0.002,2.046,0.342,2.832,0.979c0.4,0.326,0.726,0.712,0.961,1.14
	c0.242,0.438,0.391,0.922,0.435,1.421c0.044,0.512-0.023,1.027-0.199,1.509c-0.187,0.509-0.481,0.971-0.862,1.356"/>
</svg>
