<svg version="1.1" id="master" xmlns="http://www.w3.org/2000/svg" xmlns:xlink="http://www.w3.org/1999/xlink" x="0px" y="0px"
	 width="24px" height="24px" viewBox="0 0 24 24" enable-background="new 0 0 24 24" xml:space="preserve">
<rect fill="none" width="24" height="24"/>
<path d="M19.35,21.954c-0.147,0.09-0.34,0.043-0.429-0.104l-4.896-8.064c0.197-0.078,0.371-0.205,0.507-0.369l4.923,8.108
	C19.544,21.673,19.497,21.865,19.35,21.954L19.35,21.954z M10.078,14.278l-1.271,3.496l1.411,3.448
	c0.261,0.639,0.991,0.945,1.63,0.684c0.639-0.261,0.945-0.991,0.684-1.63L10.078,14.278z M8.25,5.438
	c0.949,0,1.719-0.77,1.719-1.719S9.199,2,8.25,2S6.531,2.77,6.531,3.719S7.301,5.438,8.25,5.438z M14.298,12.044L9.611,6.106
	C9.426,5.873,9.152,5.751,8.875,5.751V5.75h-1.25v0.001c-0.279,0-0.556,0.124-0.74,0.361L4.5,9.179v3.737
	c0,0.526,0.43,0.969,0.956,0.959c0.509-0.01,0.919-0.426,0.919-0.938V9.821L7,9.018v5.497l-2.112,5.808
	c-0.236,0.649,0.099,1.366,0.748,1.602c0.648,0.236,1.366-0.098,1.602-0.747l2.575-7.082V9.908L8.585,8.353
	c-0.054-0.067-0.042-0.166,0.025-0.22c0.068-0.053,0.166-0.042,0.22,0.026l3.997,5.047c0.356,0.452,0.952,0.442,1.316,0.154
	C14.551,13.04,14.619,12.449,14.298,12.044z"/>
</svg>
