<svg version="1.1" id="icon_block" xmlns="http://www.w3.org/2000/svg" xmlns:xlink="http://www.w3.org/1999/xlink" x="0px" y="0px"
	 width="24px" height="24px" viewBox="0 0 24 24" enable-background="new 0 0 24 24" xml:space="preserve">
<path d="M12,2C6.48,2,2,6.48,2,12c0,5.52,4.48,10,10,10c5.52,0,10-4.48,10-10C22,6.48,17.52,2,12,2z M4,12c0-4.42,3.58-8,8-8
	c1.85,0,3.55,0.63,4.9,1.69L5.69,16.9C4.63,15.55,4,13.85,4,12z M12,20c-1.85,0-3.55-0.63-4.9-1.689L18.311,7.1
	C19.37,8.45,20,10.15,20,12C20,16.42,16.42,20,12,20z"/>
</svg>
