<svg version="1.1" id="master" xmlns="http://www.w3.org/2000/svg" xmlns:xlink="http://www.w3.org/1999/xlink" x="0px" y="0px"
	 width="24px" height="24px" viewBox="0 0 24 24" enable-background="new 0 0 24 24" xml:space="preserve">
<rect fill="none" width="24" height="24"/>
<path d="M20.313,22H3.688C2.75,22,2,21.25,2,20.313V3.688C2,2.75,2.75,2,3.688,2h16.688C21.25,2,22,2.75,22,3.688v16.625
	C22,21.25,21.25,22,20.313,22z M12,5.313H9.5c-2.313,0-4.188,1.875-4.188,4.188v5c0,2.312,1.875,4.187,4.188,4.187h5
	c2.312,0,4.187-1.875,4.187-4.187v-3.313c0-0.5-0.375-0.875-0.874-0.875H17c-0.437,0-0.813-0.375-0.813-0.813
	c0-2.313-1.875-4.188-4.187-4.188V5.313z M14.562,15.313H9.5c-0.438,0-0.813-0.375-0.813-0.813s0.375-0.813,0.813-0.813h5.062
	c0.438,0,0.814,0.376,0.814,0.813s-0.375,0.813-0.813,0.813L14.562,15.313z M12.436,8.688c0.44,0,0.814,0.375,0.814,0.813
	s-0.375,0.813-0.812,0.813h-3C9,10.313,8.625,9.938,8.625,9.5s0.375-0.813,0.812-0.813H12.436z"/>
</svg>
