<svg version="1.1" id="master" xmlns="http://www.w3.org/2000/svg" xmlns:xlink="http://www.w3.org/1999/xlink" x="0px" y="0px"
	 width="24px" height="24px" viewBox="0 0 24 24" enable-background="new 0 0 24 24" xml:space="preserve">
<rect fill="none" width="24" height="24"/>
<path d="M19.207,5.459L17.176,7.49l1.035,1.035c0.367,0.367,0.367,0.962,0,1.324l-0.68,0.68c0.461,1.02,0.719,2.152,0.719,3.344
	c0,4.488-3.637,8.125-8.125,8.125S2,18.365,2,13.878c0-4.488,3.637-8.126,8.125-8.126c1.191,0,2.324,0.259,3.344,0.719l0.68-0.68
	c0.367-0.366,0.961-0.366,1.324,0l1.035,1.035l2.031-2.031L19.207,5.459z M21.531,4.346h-0.938c-0.258,0-0.469,0.211-0.469,0.469
	c0,0.259,0.211,0.469,0.469,0.469h0.938c0.258,0,0.469-0.21,0.469-0.469C22,4.557,21.789,4.346,21.531,4.346z M19.188,2.002
	c-0.258,0-0.469,0.211-0.469,0.469v0.938c0,0.259,0.211,0.469,0.469,0.469s0.469-0.21,0.469-0.469V2.471
	C19.656,2.213,19.445,2.002,19.188,2.002z M20.512,4.15l0.664-0.664c0.184-0.184,0.184-0.48,0-0.664s-0.48-0.184-0.664,0
	l-0.664,0.664c-0.184,0.184-0.184,0.48,0,0.664C20.035,4.334,20.332,4.334,20.512,4.15z M17.863,4.15
	c0.184,0.184,0.48,0.184,0.664,0s0.184-0.48,0-0.664l-0.664-0.664c-0.184-0.184-0.48-0.184-0.664,0s-0.184,0.48,0,0.664L17.863,4.15
	z M20.512,5.479c-0.184-0.184-0.48-0.184-0.664,0s-0.184,0.48,0,0.664l0.664,0.664c0.184,0.184,0.48,0.184,0.664,0
	s0.184-0.48,0-0.664L20.512,5.479z M6.375,12.628c0-1.38,1.121-2.501,2.5-2.501c0.344,0,0.625-0.281,0.625-0.625
	S9.219,8.877,8.875,8.877c-2.066,0-3.75,1.685-3.75,3.751c0,0.343,0.281,0.625,0.625,0.625S6.375,12.971,6.375,12.628z"/>
</svg>
