<svg version="1.1" id="master" xmlns="http://www.w3.org/2000/svg" xmlns:xlink="http://www.w3.org/1999/xlink"
	 x="0px" y="0px" width="24px" height="24px" viewBox="0 0 24 24" enable-background="new 0 0 24 24" xml:space="preserve">
<path d="M20.715,11.643C21.502,11.249,22,10.443,22,9.563V9.325C22,8.041,20.96,7,19.676,7c-1.001,0-1.89,0.641-2.205,1.589
	C17.229,9.309,17.107,10,16.279,10H7.721C6.865,10,6.734,9.202,6.53,8.589C6.213,7.641,5.325,7,4.325,7C3.041,7,2,8.041,2,9.325
	v0.239c0,0.88,0.498,1.686,1.285,2.079c0.294,0.147,0.294,0.568,0,0.715C2.498,12.751,2,13.556,2,14.437v0.239
	C2,15.96,3.041,17,4.324,17c1.001,0,1.889-0.641,2.206-1.59C6.77,14.69,6.892,14,7.721,14h8.559c0.855,0,0.986,0.798,1.191,1.41
	c0.315,0.949,1.204,1.59,2.205,1.59C20.959,17,22,15.96,22,14.676v-0.239c0-0.881-0.498-1.686-1.286-2.079
	C20.42,12.21,20.42,11.79,20.715,11.643z"/>
</svg>
