<svg version="1.1" id="master" xmlns="http://www.w3.org/2000/svg" xmlns:xlink="http://www.w3.org/1999/xlink" x="0px" y="0px"
	 width="24px" height="24px" viewBox="0 0 24 24" enable-background="new 0 0 24 24" xml:space="preserve">
<rect fill="none" width="24" height="24"/>
<path d="M18.667,2H5.333C3.494,2.005,2.005,3.494,2,5.333v13.333C2,20.5,3.5,22,5.333,22h13.333C20.5,22,22,20.5,22,18.667V5.333
	C22,3.5,20.5,2,18.667,2z M16.844,16.046c-0.166,0.401-0.431,0.756-0.769,1.028c-0.35,0.284-0.794,0.517-1.339,0.684
	c-0.546,0.168-1.193,0.254-1.944,0.254h-5.36V6.345h5.669c1.048,0,1.888,0.236,2.516,0.717c0.634,0.483,0.949,1.203,0.949,2.175
	c0,0.587-0.144,1.092-0.433,1.508c-0.286,0.414-0.699,0.738-1.232,0.963v0.039c0.711,0.15,1.262,0.488,1.624,1.013
	c0.363,0.524,0.549,1.188,0.549,1.988c0,0.448-0.086,0.875-0.25,1.273L16.844,16.046L16.844,16.046z M14.531,13.17
	c-0.342-0.313-0.822-0.464-1.442-0.464H9.487v3.64h3.611c0.617,0,1.101-0.159,1.442-0.483c0.342-0.32,0.517-0.778,0.517-1.366
	c-0.006-0.575-0.175-1.02-0.517-1.326h-0.014H14.531z M14.031,10.818c0.33-0.28,0.491-0.681,0.491-1.203
	c0-0.587-0.146-1.003-0.441-1.242c-0.294-0.237-0.717-0.361-1.273-0.361H9.474v3.22h3.333c0.485,0,0.899-0.142,1.221-0.414H14.031z"
	/>
</svg>
