<svg version="1.1" id="master" xmlns="http://www.w3.org/2000/svg" xmlns:xlink="http://www.w3.org/1999/xlink" x="0px" y="0px"
	 width="24px" height="24px" viewBox="0 0 24 24" enable-background="new 0 0 24 24" xml:space="preserve">
<rect fill="none" width="24" height="24"/>
<path d="M2,20.75L3.25,22h2.5L7,20.75L8.25,22h2.5L12,20.75L13.25,22h2.5L17,20.75L18.25,22h2.5L22,20.75V19.5H2V20.75z
	 M15.75,5.125v-2.5C15.75,2.281,15.469,2,15.125,2h-12.5C2.281,2,2,2.281,2,2.625V5.75h13.125C15.469,5.75,15.75,5.469,15.75,5.125z
	 M19.16,13.164L14.5,12h-2.188C12.141,12,12,11.859,12,11.688v-0.625c0-0.172,0.141-0.313,0.313-0.313H14.5V9.5h-2.188
	C12.141,9.5,12,9.359,12,9.188V8.563c0-0.172,0.141-0.313,0.313-0.313H14.5V7H2v11.25h20v-1.445
	C22,15.082,20.828,13.582,19.16,13.164z"/>
</svg>
