<svg version="1.1" id="master" xmlns="http://www.w3.org/2000/svg" xmlns:xlink="http://www.w3.org/1999/xlink"
	 x="0px" y="0px" width="24px" height="24px" viewBox="0 0 24 24" enable-background="new 0 0 24 24" xml:space="preserve">
<path d="M12,2C6.476,2,2,6.476,2,12s4.476,10,10,10s10-4.476,10-10S17.524,2,12,2z M6.839,9.419c-0.714,0-1.291-0.577-1.291-1.291
	c0-0.713,0.577-1.29,1.291-1.29c0.713,0,1.29,0.577,1.29,1.29C8.129,8.843,7.552,9.419,6.839,9.419z M9.419,5.548
	c0-0.713,0.577-1.29,1.29-1.29c0.714,0,1.291,0.577,1.291,1.29c0,0.714-0.577,1.291-1.291,1.291
	C9.996,6.839,9.419,6.262,9.419,5.548z M11.355,11.355c-0.714,0-1.291-0.577-1.291-1.291c0-0.713,0.577-1.29,1.291-1.29
	c0.713,0,1.291,0.577,1.291,1.29C12.646,10.778,12.068,11.355,11.355,11.355z"/>
</svg>
