<svg version="1.1" id="master" xmlns="http://www.w3.org/2000/svg" xmlns:xlink="http://www.w3.org/1999/xlink" x="0px" y="0px"
	 width="24px" height="24px" viewBox="0 0 24 24" enable-background="new 0 0 24 24" xml:space="preserve">
<rect fill="none" width="24" height="24"/>
<path d="M6.444,20.889C6.444,21.5,6.945,22,7.556,22h8.889c0.611,0,1.111-0.5,1.111-1.111v-3.333H6.444V20.889z M18.667,6.444
	c-0.611,0-1.111,0.5-1.111,1.111V4.222C17.556,3,16.555,2,15.333,2H6.444C5.222,2,4.222,3,4.222,4.222v6.444
	c0,0.145,0.011,0.289,0.044,0.434l0.889,4.444c0.101,0.522,0.556,0.89,1.089,0.89h11.511c0.501,0,0.99-0.4,1.09-0.89l0.889-4.444
	c0.033-0.145,0.044-0.289,0.044-0.434V7.556C19.777,6.945,19.277,6.444,18.667,6.444z M15.333,9.778H6.444V6.444h8.889V9.778z"/>
</svg>
