<svg version="1.1" id="master" xmlns="http://www.w3.org/2000/svg" xmlns:xlink="http://www.w3.org/1999/xlink" x="0px" y="0px"
	 width="24px" height="24px" viewBox="0 0 24 24" enable-background="new 0 0 24 24" xml:space="preserve">
<rect fill="none" width="24" height="24"/>
<path d="M9.222,3.111c-1.038,0-1.899,0.711-2.146,1.673C7.048,4.785,7.028,4.778,7,4.778C5.774,4.778,4.778,5.774,4.778,7
	c0,0.167,0.021,0.33,0.059,0.486c-1.014,0.417-1.726,1.409-1.726,2.569c0,0.438,0.111,0.844,0.288,1.212
	C2.566,11.747,2,12.636,2,13.667c0,1.156,0.708,2.148,1.715,2.565c-0.031,0.16-0.048,0.323-0.048,0.489c0,1.383,1.118,2.5,2.5,2.5
	c0.143,0,0.281-0.017,0.417-0.041c0.333,0.99,1.257,1.708,2.361,1.708c1.382,0,2.5-1.118,2.5-2.5V5.333
	C11.444,4.108,10.448,3.111,9.222,3.111z M22,13.667c0-1.031-0.566-1.92-1.399-2.399c0.181-0.368,0.288-0.774,0.288-1.212
	c0-1.16-0.712-2.152-1.726-2.569C19.198,7.33,19.222,7.167,19.222,7c0-1.226-0.996-2.222-2.222-2.222
	c-0.027,0-0.052,0.007-0.076,0.007c-0.247-0.962-1.107-1.673-2.146-1.673c-1.227,0-2.224,0.993-2.224,2.222v13.055
	c0,1.382,1.118,2.5,2.5,2.5c1.105,0,2.028-0.718,2.362-1.708c0.135,0.024,0.274,0.041,0.416,0.041c1.382,0,2.5-1.117,2.5-2.5
	c0-0.166-0.018-0.329-0.049-0.489C21.292,15.815,22,14.823,22,13.667z"/>
</svg>
