<svg version="1.1" id="master" xmlns="http://www.w3.org/2000/svg" xmlns:xlink="http://www.w3.org/1999/xlink" x="0px" y="0px"
	 width="24px" height="24px" viewBox="0 0 24 24" enable-background="new 0 0 24 24" xml:space="preserve">
<rect fill="none" width="24" height="24"/>
<path d="M14.5,5h-5C5.358,5,2,7.238,2,10c0,1.105,0.839,2,1.875,2H4v6c0,0.553,0.448,1,1,1h14c0.552,0,1-0.447,1-1v-6h0.125
	C21.16,12,22,11.105,22,10C22,7.238,18.643,5,14.5,5z M15.125,10.5H13.5v7h-8v-7H3.875C3.694,10.5,3.5,10.299,3.5,10
	c0-1.864,2.804-3.5,6-3.5s6,1.636,6,3.5C15.5,10.299,15.306,10.5,15.125,10.5z"/>
</svg>
