<svg version="1.1" id="icon_broadcast" xmlns="http://www.w3.org/2000/svg" xmlns:xlink="http://www.w3.org/1999/xlink" x="0px"
	 y="0px" width="24px" height="24px" viewBox="0 0 24 24" enable-background="new 0 0 24 24" xml:space="preserve">
<path d="M6.717,10h1.054c0.344,0,0.582-0.338,0.464-0.662C8.081,8.913,8,8.463,8,8s0.082-0.914,0.236-1.338
	C8.353,6.338,8.115,6,7.771,6H6.717C6.498,6,6.296,6.14,6.235,6.351C6.083,6.881,6,7.433,6,8s0.083,1.118,0.236,1.649
	C6.296,9.859,6.498,10,6.717,10z M4.81,4.729C4.986,4.397,4.749,4,4.374,4H3.27C3.074,4,2.89,4.112,2.809,4.291
	C2.294,5.423,2,6.676,2,8c0,0.773,0.098,2.135,0.834,3.714C2.916,11.89,3.097,12,3.291,12h1.089c0.375,0,0.613-0.398,0.436-0.73
	C3.26,8.353,4.293,5.702,4.81,4.729z M21.189,4.29C21.108,4.111,20.925,4,20.729,4h-1.106c-0.374,0-0.614,0.396-0.438,0.727
	c0.571,1.071,1.513,3.732,0.008,6.539C19.014,11.598,19.249,12,19.627,12h1.102c0.195,0,0.38-0.112,0.46-0.291
	C21.705,10.577,22,9.323,22,8S21.705,5.422,21.189,4.29z M17.283,6h-1.055c-0.344,0-0.581,0.338-0.464,0.662
	C15.919,7.086,16.001,7.536,16.001,8s-0.082,0.914-0.236,1.338C15.647,9.661,15.885,10,16.229,10h1.055
	c0.22,0,0.421-0.14,0.481-0.351C17.918,9.118,18,8.566,18,8s-0.082-1.118-0.236-1.648C17.704,6.14,17.502,6,17.283,6z M13.648,9.128
	c0.22-0.322,0.351-0.709,0.351-1.129c0-1.104-0.896-2-1.999-2c-1.104,0-1.999,0.896-1.999,2c0,0.419,0.129,0.807,0.35,1.129
	l-4.078,9.794c-0.107,0.255,0.014,0.548,0.269,0.653l0.922,0.386c0.254,0.106,0.547-0.015,0.653-0.27L9.655,16h4.689l1.537,3.692
	c0.106,0.255,0.398,0.376,0.654,0.27l0.921-0.386c0.256-0.105,0.376-0.398,0.27-0.653L13.648,9.128z M10.488,14L12,10.369L13.512,14
	H10.488z"/>
</svg>
