<svg version="1.1" id="master" xmlns="http://www.w3.org/2000/svg" xmlns:xlink="http://www.w3.org/1999/xlink" x="0px" y="0px"
	 width="24px" height="24px" viewBox="0 0 24 24" enable-background="new 0 0 24 24" xml:space="preserve">
<rect fill="none" width="24" height="24"/>
<path d="M22,4.222v7.322L18.667,8.2l-4.444,4.455L9.778,8.211l-4.444,4.444L2,9.311V4.222C2,3,3,2,4.222,2h15.555
	C21,2,22,3,22,4.222z M18.667,11.355L22,14.699v5.078C22,21,21,22,19.777,22H4.222C3,22,2,21,2,19.777v-7.311l3.333,3.322
	l4.444-4.444l4.445,4.444L18.667,11.355z"/>
</svg>
