<svg version="1.1" id="master" xmlns="http://www.w3.org/2000/svg" xmlns:xlink="http://www.w3.org/1999/xlink"
	 x="0px" y="0px" width="24px" height="24px" viewBox="0 0 24 24" enable-background="new 0 0 24 24" xml:space="preserve">
<path d="M10.015,10.774l2.711,3.412c0,0-0.519,3.198-2.394,4.691C8.458,20.371,2,19.943,2,19.943s0.119-0.724,0.344-1.732
	l2.957-3.505c0.124-0.147-0.027-0.363-0.208-0.297l-1.888,0.689c0.451-1.301,1.022-2.5,1.706-3.045
	C6.786,10.561,10.015,10.774,10.015,10.774z M21.892,4.97l-0.621-0.781c-0.171-0.216-0.484-0.251-0.699-0.08l-7.266,5.556
	l-1.067-1.343c-0.159-0.201-0.473-0.163-0.581,0.069l-0.792,1.705l2.711,3.411l1.837-0.389c0.25-0.052,0.357-0.35,0.197-0.55
	l-1.064-1.341l7.265-5.556C22.027,5.5,22.063,5.186,21.892,4.97z"/>
</svg>
