<svg version="1.1" id="master" xmlns="http://www.w3.org/2000/svg" xmlns:xlink="http://www.w3.org/1999/xlink" x="0px" y="0px"
	 width="24px" height="24px" viewBox="0 0 24 24" enable-background="new 0 0 24 24" xml:space="preserve">
<rect fill="none" width="24" height="24"/>
<path d="M21.821,17.199c0.238,0.118,0.238,0.223,0,0.313l-9.465,4.352c-0.239,0.122-0.475,0.122-0.711,0l-9.467-4.352
	c-0.236-0.09-0.236-0.194,0-0.313l2.269-1.026c0.236-0.116,0.475-0.116,0.71,0l6.49,2.979c0.237,0.117,0.475,0.117,0.712,0
	l6.489-2.979c0.236-0.117,0.474-0.117,0.71,0L21.821,17.199L21.821,17.199z M21.821,11.821c0.238,0.119,0.238,0.237,0,0.355
	l-9.465,4.356c-0.239,0.087-0.475,0.087-0.711,0l-9.467-4.357c-0.236-0.12-0.236-0.237,0-0.355l2.269-1.022
	c0.236-0.12,0.475-0.12,0.71,0l6.49,2.974c0.237,0.121,0.475,0.121,0.712,0l6.489-2.974c0.236-0.12,0.474-0.12,0.71,0l2.265,1.021
	V11.821z M2.179,6.799c-0.237-0.119-0.237-0.222,0-0.313l9.467-4.354c0.236-0.117,0.475-0.117,0.709,0l9.466,4.358
	c0.238,0.089,0.238,0.193,0,0.313l-9.465,4.353c-0.239,0.119-0.475,0.119-0.711,0L2.179,6.799L2.179,6.799z"/>
</svg>
