<svg version="1.1" id="icon_bug" xmlns="http://www.w3.org/2000/svg" xmlns:xlink="http://www.w3.org/1999/xlink" x="0px" y="0px"
	 width="24px" height="24px" viewBox="0 0 24 24" enable-background="new 0 0 24 24" xml:space="preserve">
<path d="M20.888,7.556h-3.123c-0.498-0.867-1.188-1.611-2.021-2.178l1.812-1.811L15.987,2l-2.41,2.411
	c-0.512-0.122-1.033-0.189-1.578-0.189s-1.065,0.067-1.566,0.189L8.01,2L6.443,3.567l1.8,1.811C7.421,5.944,6.732,6.689,6.232,7.556
	H3.11v2.222h2.322c-0.056,0.367-0.101,0.733-0.101,1.111V12H3.11v2.223h2.222v1.11c0,0.378,0.044,0.745,0.101,1.11H3.11v2.224h3.122
	C7.389,20.654,9.532,22,11.999,22c2.468,0,4.611-1.346,5.766-3.333h3.123v-2.224h-2.322c0.057-0.365,0.102-0.732,0.102-1.11v-1.11
	h2.223V12h-2.223v-1.111c0-0.377-0.045-0.744-0.102-1.111h2.322V7.556z M14.222,16.443H9.777v-2.221h4.444V16.443z M14.222,12H9.777
	V9.778h4.444V12z"/>
</svg>
