<svg version="1.1" id="master" xmlns="http://www.w3.org/2000/svg" xmlns:xlink="http://www.w3.org/1999/xlink" x="0px" y="0px"
	 width="24px" height="24px" viewBox="0 0 24 24" enable-background="new 0 0 24 24" xml:space="preserve">
<rect fill="none" width="24" height="24"/>
<path d="M20.889,7.556h-3.122c-0.499-0.867-1.188-1.611-2.021-2.177l1.811-1.811L15.989,2l-2.411,2.411
	C13.066,4.289,12.546,4.223,12,4.223c-0.545,0-1.066,0.066-1.567,0.189L8.012,2L6.445,3.566l1.8,1.811
	C7.423,5.944,6.734,6.688,6.234,7.556H3.111v2.223h2.323c-0.055,0.366-0.1,0.733-0.1,1.111V12H3.111v2.223h2.223v1.11
	c0,0.378,0.045,0.746,0.1,1.111H3.111v2.223h3.123C7.39,20.655,9.534,22,12,22c2.466,0,4.611-1.345,5.766-3.333h3.121v-2.223h-2.32
	c0.056-0.365,0.1-0.733,0.1-1.111v-1.11h2.222V12h-2.222v-1.111c0-0.377-0.044-0.745-0.1-1.111h2.321V7.556z M14.223,16.444H9.778
	v-2.222h4.445V16.444z M14.223,12H9.778V9.777h4.445V12z"/>
</svg>
