<svg version="1.1" id="master" xmlns="http://www.w3.org/2000/svg" xmlns:xlink="http://www.w3.org/1999/xlink"
	 x="0px" y="0px" width="24px" height="24px" viewBox="0 0 24 24" enable-background="new 0 0 24 24" xml:space="preserve">
<path d="M22,11.444c0-0.82-0.449-1.529-1.111-1.914V4.223c0-0.304-0.242-1.111-1.11-1.111c-0.247,0-0.493,0.083-0.694,0.244
	l-2.952,2.362c-1.483,1.186-3.345,1.838-5.243,1.838H4.222C2.995,7.555,2,8.55,2,9.778v3.333c0,1.228,0.995,2.222,2.222,2.222h1.17
	c-0.049,0.364-0.076,0.734-0.076,1.112c0,1.38,0.322,2.686,0.888,3.852c0.18,0.371,0.574,0.592,0.986,0.592H9.77
	c0.904,0,1.448-1.035,0.899-1.755c-0.569-0.748-0.908-1.68-0.908-2.688c0-0.386,0.056-0.757,0.153-1.112h0.975
	c1.898,0,3.76,0.653,5.242,1.839l2.952,2.362c0.197,0.158,0.442,0.243,0.694,0.244c0.865,0,1.111-0.791,1.111-1.111v-5.308
	C21.551,12.974,22,12.265,22,11.444z M18.667,16.354l-1.147-0.918c-1.875-1.5-4.23-2.325-6.631-2.325V9.778
	c2.4,0,4.756-0.826,6.631-2.326l1.147-0.918V16.354z"/>
</svg>
