<svg version="1.1" id="master" xmlns="http://www.w3.org/2000/svg" xmlns:xlink="http://www.w3.org/1999/xlink"
	 x="0px" y="0px" width="24px" height="24px" viewBox="0 0 24 24" enable-background="new 0 0 24 24" xml:space="preserve">
<path d="M14.004,10.998c-1.132,3.13-4.126,5.378-7.646,5.378c-1.534,0-3.036-0.438-4.33-1.26c-0.146,1.319,0.268,2.69,1.279,3.7
	l1.857,1.855c1.772,1.77,4.643,1.77,6.415,0l8.436-8.427c-1.213-0.968-2.72-1.496-4.271-1.495
	C15.148,10.751,14.57,10.85,14.004,10.998z M13.24,8.251c0-1.552-0.527-3.057-1.497-4.269l-8.438,8.427
	C2.9,12.818,2.577,13.3,2.353,13.83c1.166,0.843,2.568,1.296,4.007,1.296C10.153,15.126,13.24,12.042,13.24,8.251z M22,6.806
	c-0.002-1.27-0.83-2.389-2.044-2.763c-0.474-1.529-2.097-2.385-3.625-1.911c-0.118,0.037-0.233,0.081-0.347,0.132
	C15.587,2.09,15.159,2,14.727,2.001c-0.86,0-1.641,0.366-2.219,0.948c1.604,1.824,2.287,4.279,1.86,6.669
	c0.454-0.078,0.915-0.117,1.375-0.117c1.95,0,3.835,0.704,5.308,1.982C21.634,10.907,22,10.126,22,9.267
	c0-0.432-0.09-0.859-0.264-1.255C21.911,7.634,22.001,7.222,22,6.806z"/>
</svg>
