<svg version="1.1" id="icon_bus" xmlns="http://www.w3.org/2000/svg" xmlns:xlink="http://www.w3.org/1999/xlink" x="0px" y="0px"
	 width="24px" height="24px" viewBox="0 0 24 24" enable-background="new 0 0 24 24" xml:space="preserve">
<path d="M22,7.938v3.125C22,11.58,21.58,12,21.063,12H20.75v6.563c0,0.518-0.42,0.938-0.938,0.938H19.5v1.563
	C19.5,21.58,19.08,22,18.563,22h-1.875c-0.518,0-0.938-0.42-0.938-0.938V19.5h-7.5v1.563C8.25,21.58,7.83,22,7.313,22H5.438
	C4.92,22,4.5,21.58,4.5,21.063V19.5H4.188c-0.518,0-0.938-0.42-0.938-0.938V12H2.938C2.42,12,2,11.58,2,11.063V7.938
	C2,7.42,2.42,7,2.938,7H3.25V5.125C3.25,3.399,7.167,2,12,2c4.832,0,8.75,1.399,8.75,3.125V7h0.313C21.58,7,22,7.42,22,7.938z
	 M6.375,14.5c-0.863,0-1.563,0.7-1.563,1.563s0.699,1.563,1.563,1.563s1.563-0.7,1.563-1.563S7.238,14.5,6.375,14.5z M17.625,14.5
	c-0.862,0-1.563,0.7-1.563,1.563s0.7,1.563,1.563,1.563s1.563-0.7,1.563-1.563S18.487,14.5,17.625,14.5z M18.875,12.313V6.688
	c0-0.518-0.42-0.938-0.938-0.938H6.063c-0.518,0-0.938,0.42-0.938,0.938v5.625c0,0.518,0.42,0.938,0.938,0.938h11.875
	C18.455,13.25,18.875,12.83,18.875,12.313z"/>
</svg>
