<svg version="1.1" id="master" xmlns="http://www.w3.org/2000/svg" xmlns:xlink="http://www.w3.org/1999/xlink" x="0px" y="0px"
	 width="24px" height="24px" viewBox="0 0 24 24" enable-background="new 0 0 24 24" xml:space="preserve">
<rect fill="none" width="24" height="24"/>
<path d="M3.579,16.737c0,0.926,0.411,1.758,1.053,2.336v1.874C4.632,21.526,5.105,22,5.685,22h1.052
	c0.579,0,1.053-0.474,1.053-1.053v-1.053h8.421v1.053c0,0.579,0.474,1.053,1.053,1.053h1.053c0.578,0,1.052-0.474,1.052-1.053
	v-1.874c0.642-0.578,1.053-1.41,1.053-2.336V6.21C20.421,2.526,16.652,2,12,2S3.579,2.526,3.579,6.21V16.737z M7.263,17.789
	c-0.874,0-1.579-0.705-1.579-1.578c0-0.874,0.705-1.579,1.579-1.579c0.874,0,1.579,0.705,1.579,1.579
	C8.842,17.084,8.137,17.789,7.263,17.789z M16.737,17.789c-0.874,0-1.579-0.705-1.579-1.578c0-0.874,0.705-1.579,1.579-1.579
	c0.873,0,1.579,0.705,1.579,1.579C18.316,17.084,17.61,17.789,16.737,17.789z M18.316,11.474H5.685V6.21h12.632V11.474z"/>
</svg>
