<svg version="1.1" id="master" xmlns="http://www.w3.org/2000/svg" xmlns:xlink="http://www.w3.org/1999/xlink"
	 x="0px" y="0px" width="24px" height="24px" viewBox="0 0 24 24" enable-background="new 0 0 24 24" xml:space="preserve">
<path d="M21.063,7H20.75V5.125C20.75,3.375,16.875,2,12,2S3.25,3.375,3.25,5.125V7H2.938C2.42,7,2,7.419,2,7.938v3.125
	C2,11.58,2.42,12,2.938,12H3.25v6.25c0,0.69,0.56,1.25,1.25,1.25v1.25C4.5,21.44,5.06,22,5.75,22H7c0.69,0,1.25-0.56,1.25-1.25V19.5
	h7.5v1.25c0,0.69,0.56,1.25,1.25,1.25h1.25c0.69,0,1.25-0.56,1.25-1.25V19.5h0.25c0.625,0,1-0.5,1-1V12h0.313
	C21.58,12,22,11.58,22,11.063V7.938C22,7.419,21.58,7,21.063,7z M8.25,4.813C8.25,4.64,8.39,4.5,8.563,4.5h6.875
	c0.173,0,0.313,0.14,0.313,0.313v0.625c0,0.172-0.14,0.313-0.313,0.313H8.563C8.39,5.75,8.25,5.61,8.25,5.438V4.813z M6.375,17.625
	c-0.69,0-1.25-0.56-1.25-1.25s0.56-1.25,1.25-1.25s1.25,0.56,1.25,1.25S7.065,17.625,6.375,17.625z M11.375,13.25H7
	c-0.69,0-1.25-0.56-1.25-1.25V8.25C5.75,7.56,6.31,7,7,7h4.375V13.25z M12.625,13.25V7H17c0.69,0,1.25,0.56,1.25,1.25V12
	c0,0.69-0.56,1.25-1.25,1.25H12.625z M17.625,17.625c-0.69,0-1.25-0.56-1.25-1.25s0.56-1.25,1.25-1.25s1.25,0.56,1.25,1.25
	S18.315,17.625,17.625,17.625z"/>
</svg>
