<svg version="1.1" id="master" xmlns="http://www.w3.org/2000/svg" xmlns:xlink="http://www.w3.org/1999/xlink" x="0px" y="0px"
	 width="24px" height="24px" viewBox="0 0 24 24" enable-background="new 0 0 24 24" xml:space="preserve">
<path d="M22,20.801l-1.39-1.391L6.969,5.77L3.199,2L2,3.199l2.57,2.57H3.96c-1.056,0-1.894,0.847-1.894,1.904l-0.01,10.471
	c0,1.058,0.848,1.904,1.904,1.904h14.888L20.801,22L22,20.801z M21.048,7.673c0.048-1.057-0.799-1.904-1.856-1.856h-3.808V3.866
	c0-1.057-0.847-1.904-1.904-1.856H9.672C8.616,1.962,7.769,2.809,7.769,3.866V4.17l13.279,13.327V7.673z M13.479,5.817H9.625V3.866
	h3.854V5.817z"/>
</svg>
