<svg version="1.1" id="master" xmlns="http://www.w3.org/2000/svg" xmlns:xlink="http://www.w3.org/1999/xlink" x="0px" y="0px"
	 width="24px" height="24px" viewBox="0 0 24 24" enable-background="new 0 0 24 24" xml:space="preserve">
<rect fill="none" width="24" height="24"/>
<path d="M10,16v-1H3.01L3,19c0,1.109,0.89,2,2,2h14c1.109,0,2-0.891,2-2v-4h-7v1H10z M20,7h-4.01V5l-2-2h-4l-2,2v2H4
	C2.9,7,2,7.9,2,9v3c0,1.109,0.89,2,2,2h6v-2h4v2h6c1.1,0,2-0.9,2-2V9C22,7.9,21.1,7,20,7z M14,7h-4V5h4V7z"/>
</svg>
