<svg version="1.1" id="master" xmlns="http://www.w3.org/2000/svg" xmlns:xlink="http://www.w3.org/1999/xlink" x="0px" y="0px"
	 width="24px" height="24px" viewBox="0 0 24 24" enable-background="new 0 0 24 24" xml:space="preserve">
<rect fill="none" width="24" height="24"/>
<path d="M12.343,10.568h-0.716V8.412c0.371-0.04,0.721-0.141,1.049-0.303s0.618-0.369,0.87-0.621s0.459-0.542,0.621-0.87
	s0.264-0.677,0.303-1.049H8.078c0.04,0.372,0.141,0.721,0.304,1.049c0.162,0.328,0.369,0.618,0.621,0.87s0.542,0.458,0.87,0.621
	s0.677,0.263,1.049,0.303v12.167H9.49v0.706H8.774V22h5v-0.716h-0.716v-0.706h-1.432v-5h0.716v0.706h3.579v-5h-3.549v-0.716h3.549
	V9.853h-3.579V10.568z M12.343,14.863h-0.716v-3.579h0.716V14.863z M14.49,12h0.716v0.716H14.49V12z M14.49,13.432h0.716v0.715
	H14.49V13.432z M14.49,14.863h0.716v0.715H14.49V14.863z M13.059,12h0.716v0.716h-0.716V12z M13.059,13.432h0.716v0.715h-0.716
	V13.432z M13.059,14.863h0.716v0.715h-0.716V14.863z M14.47,4.853H8.078c0.047-0.404,0.163-0.78,0.349-1.128
	C8.612,3.377,8.848,3.075,9.132,2.82c0.285-0.255,0.61-0.456,0.975-0.602S10.858,2,11.27,2c0.404,0,0.79,0.073,1.158,0.219
	c0.367,0.146,0.695,0.346,0.983,0.602c0.289,0.255,0.525,0.557,0.711,0.904C14.308,4.073,14.424,4.449,14.47,4.853z"/>
</svg>
