<svg version="1.1" id="master" xmlns="http://www.w3.org/2000/svg" xmlns:xlink="http://www.w3.org/1999/xlink" x="0px" y="0px"
	 width="24px" height="24px" viewBox="0 0 24 24" enable-background="new 0 0 24 24" xml:space="preserve">
<path d="M18.363,8.363L14.728,12h2.727c0,3.01-2.444,5.455-5.454,5.455c-0.918,0-1.791-0.229-2.545-0.637l-1.327,1.326
	c1.118,0.709,2.445,1.129,3.873,1.129c4.019,0,7.272-3.256,7.272-7.273H22L18.363,8.363z M6.545,12c0-3.009,2.445-5.455,5.455-5.455
	c0.918,0,1.792,0.227,2.545,0.636l1.327-1.327C14.754,5.145,13.428,4.727,12,4.727c-4.018,0-7.273,3.254-7.273,7.273H2l3.636,3.637
	L9.273,12H6.545z"/>
</svg>
