<svg version="1.1" id="icon_cake" xmlns="http://www.w3.org/2000/svg" xmlns:xlink="http://www.w3.org/1999/xlink" x="0px" y="0px"
	 width="24px" height="24px" viewBox="0 0 24 24" enable-background="new 0 0 24 24" xml:space="preserve">
<path d="M12,7.455c1.009,0,1.818-0.818,1.818-1.818c0-0.345-0.092-0.664-0.264-0.936L12,2l-1.555,2.7
	c-0.172,0.272-0.264,0.591-0.264,0.936C10.183,6.636,11,7.455,12,7.455z M16.182,16.536l-0.973-0.974l-0.98,0.974
	c-1.182,1.182-3.255,1.19-4.446,0L8.81,15.563l-0.991,0.974c-0.591,0.592-1.382,0.918-2.218,0.918c-0.664,0-1.273-0.209-1.783-0.554
	v4.189c0,0.501,0.409,0.91,0.91,0.91h14.544c0.5,0,0.91-0.409,0.91-0.91V16.9c-0.51,0.345-1.117,0.554-1.781,0.554
	C17.563,17.454,16.771,17.128,16.182,16.536z M17.455,10.182H12.91V8.364h-1.819v1.818H6.545c-1.509,0-2.727,1.218-2.727,2.728v1.4
	c0,0.98,0.8,1.78,1.783,1.78c0.473,0,0.927-0.181,1.254-0.519L8.8,13.636l1.937,1.938c0.673,0.673,1.847,0.673,2.519,0l1.945-1.938
	l1.939,1.938c0.334,0.337,0.779,0.519,1.252,0.519c0.98,0,1.781-0.8,1.781-1.781v-1.399C20.182,11.4,18.965,10.182,17.455,10.182z"
	/>
</svg>
