<?xml version="1.0" encoding="utf-8"?>
<!-- Generator: Adobe Illustrator 16.0.0, SVG Export Plug-In . SVG Version: 6.00 Build 0)  -->
<!DOCTYPE svg PUBLIC "-//W3C//DTD SVG 1.1//EN" "http://www.w3.org/Graphics/SVG/1.1/DTD/svg11.dtd">
<svg version="1.1" id="master" xmlns="http://www.w3.org/2000/svg" xmlns:xlink="http://www.w3.org/1999/xlink" x="0px" y="0px"
	 width="24px" height="24px" viewBox="0 0 24 24" enable-background="new 0 0 24 24" xml:space="preserve">
<path d="M12,7.455c1.008,0,1.816-0.817,1.816-1.818c0-0.346-0.088-0.663-0.262-0.937L12,2l-1.556,2.7
	c-0.173,0.272-0.264,0.591-0.264,0.937C10.182,6.638,10.999,7.455,12,7.455z M16.182,16.537l-0.975-0.975l-0.98,0.975
	c-1.182,1.182-3.253,1.189-4.444,0L8.81,15.563l-0.99,0.975c-0.591,0.59-1.381,0.918-2.219,0.918c-0.663,0-1.271-0.209-1.781-0.555
	v4.189c0,0.5,0.408,0.91,0.909,0.91h14.545c0.5,0,0.908-0.41,0.908-0.91V16.9c-0.509,0.346-1.117,0.555-1.781,0.555
	C17.563,17.455,16.773,17.127,16.182,16.537z M17.453,10.183h-4.545V8.363h-1.817v1.818H6.546c-1.511,0-2.728,1.217-2.728,2.727v1.4
	c0,0.982,0.8,1.783,1.781,1.783c0.473,0,0.928-0.184,1.255-0.52L8.8,13.637l1.937,1.938c0.674,0.674,1.847,0.674,2.518,0
	l1.944-1.938l1.938,1.938c0.334,0.336,0.78,0.52,1.252,0.52c0.982,0,1.783-0.801,1.783-1.783v-1.4
	C20.182,11.4,18.962,10.183,17.453,10.183z"/>
</svg>
