<svg version="1.1" id="master" xmlns="http://www.w3.org/2000/svg" xmlns:xlink="http://www.w3.org/1999/xlink" x="0px" y="0px"
	 width="24px" height="24px" viewBox="0 0 24 24" enable-background="new 0 0 24 24" xml:space="preserve">
<path d="M12,7.455c1.009,0,1.818-0.818,1.818-1.818c0-0.345-0.091-0.664-0.264-0.937L12,2l-1.554,2.7
	c-0.173,0.273-0.264,0.591-0.264,0.937C10.182,6.636,11,7.455,12,7.455z M16.182,16.536l-0.973-0.973l-0.981,0.973
	c-1.182,1.182-3.254,1.191-4.445,0L8.81,15.563l-0.991,0.973c-0.591,0.592-1.382,0.918-2.218,0.918
	c-0.664,0-1.272-0.209-1.782-0.554v4.19c0,0.5,0.409,0.909,0.909,0.909h14.545c0.5,0,0.909-0.409,0.909-0.909V16.9
	c-0.509,0.345-1.118,0.554-1.781,0.554C17.563,17.454,16.772,17.128,16.182,16.536z M17.455,10.182h-4.546V8.364h-1.818v1.818H6.545
	c-1.509,0-2.727,1.218-2.727,2.728v1.399c0,0.982,0.8,1.782,1.782,1.782c0.473,0,0.927-0.182,1.254-0.519L8.8,13.637l1.936,1.936
	c0.673,0.673,1.846,0.673,2.518,0l1.946-1.936l1.937,1.936c0.336,0.337,0.781,0.519,1.254,0.519c0.981,0,1.782-0.8,1.782-1.782
	v-1.399C20.182,11.4,18.964,10.182,17.455,10.182z"/>
</svg>
