<?xml version="1.0" encoding="utf-8"?>
<!-- Generator: Adobe Illustrator 16.0.0, SVG Export Plug-In . SVG Version: 6.00 Build 0)  -->
<!DOCTYPE svg PUBLIC "-//W3C//DTD SVG 1.1//EN" "http://www.w3.org/Graphics/SVG/1.1/DTD/svg11.dtd">
<svg version="1.1" id="master" xmlns="http://www.w3.org/2000/svg" xmlns:xlink="http://www.w3.org/1999/xlink" x="0px" y="0px"
	 width="24px" height="24px" viewBox="0 0 24 24" enable-background="new 0 0 24 24" xml:space="preserve">
<path d="M12,7.454c1.008,0,1.817-0.817,1.817-1.818c0-0.346-0.089-0.663-0.262-0.937L12,2l-1.556,2.7
	c-0.173,0.272-0.264,0.591-0.264,0.937C10.181,6.637,10.999,7.454,12,7.454z M16.181,16.536l-0.974-0.974l-0.98,0.974
	c-1.182,1.182-3.254,1.19-4.445,0l-0.973-0.974l-0.99,0.974c-0.591,0.591-1.381,0.919-2.219,0.919c-0.663,0-1.271-0.21-1.781-0.555
	v4.19c0,0.5,0.408,0.909,0.909,0.909h14.546c0.5,0,0.908-0.409,0.908-0.909V16.9c-0.509,0.345-1.118,0.555-1.782,0.555
	C17.563,17.455,16.773,17.127,16.181,16.536z M17.453,10.182h-4.545V8.363h-1.817v1.818H6.546c-1.511,0-2.728,1.217-2.728,2.727v1.4
	c0,0.983,0.8,1.783,1.781,1.783c0.473,0,0.928-0.184,1.255-0.519L8.8,13.637l1.936,1.937c0.674,0.673,1.847,0.673,2.518,0
	l1.944-1.937l1.938,1.937c0.334,0.335,0.781,0.519,1.253,0.519c0.982,0,1.783-0.8,1.783-1.783v-1.4
	C20.182,11.4,18.962,10.182,17.453,10.182z"/>
</svg>
