<svg version="1.1" id="icon_cake" xmlns="http://www.w3.org/2000/svg" xmlns:xlink="http://www.w3.org/1999/xlink" x="0px" y="0px"
	 width="24px" height="24px" viewBox="0 0 24 24" enable-background="new 0 0 24 24" xml:space="preserve">
<path d="M12,7.455c1.009,0,1.818-0.818,1.818-1.818c0-0.345-0.091-0.664-0.264-0.936L12,2l-1.555,2.7
	c-0.172,0.272-0.264,0.591-0.264,0.936C10.182,6.636,11,7.455,12,7.455z M16.182,16.536l-0.974-0.973l-0.98,0.973
	c-1.182,1.182-3.255,1.191-4.446,0l-0.973-0.973l-0.991,0.973c-0.591,0.592-1.382,0.918-2.218,0.918
	c-0.664,0-1.273-0.209-1.782-0.554v4.19c0,0.5,0.409,0.909,0.909,0.909h14.545c0.5,0,0.909-0.409,0.909-0.909V16.9
	c-0.51,0.345-1.118,0.554-1.781,0.554C17.563,17.454,16.772,17.128,16.182,16.536z M17.454,10.182h-4.545V8.364h-1.818v1.818H6.545
	c-1.509,0-2.727,1.218-2.727,2.728v1.4c0,0.981,0.8,1.781,1.782,1.781c0.473,0,0.927-0.182,1.254-0.519L8.8,13.636l1.937,1.937
	c0.673,0.673,1.846,0.673,2.519,0l1.944-1.937l1.938,1.937c0.336,0.337,0.781,0.519,1.254,0.519c0.981,0,1.782-0.8,1.782-1.781v-1.4
	C20.182,11.4,18.964,10.182,17.454,10.182z"/>
</svg>
