<svg version="1.1" id="master" xmlns="http://www.w3.org/2000/svg" xmlns:xlink="http://www.w3.org/1999/xlink" x="0px" y="0px"
	 width="24px" height="24px" viewBox="0 0 24 24" enable-background="new 0 0 24 24" xml:space="preserve">
<rect fill="none" width="24" height="24"/>
<path d="M18.875,2H5.125c-1,0-1.875,0.875-1.875,1.875v16.25c0,1,0.875,1.875,1.875,1.875h13.75c1,0,1.875-0.875,1.875-1.875V3.875
	C20.75,2.875,19.875,2,18.875,2z M8.25,19c0,0.25-0.25,0.5-0.5,0.5h-1.5c-0.25,0-0.5-0.25-0.5-0.5v-1.5c0-0.25,0.25-0.5,0.5-0.5h1.5
	c0.25,0,0.5,0.25,0.5,0.5V19z M8.25,14c0,0.25-0.25,0.5-0.5,0.5h-1.5c-0.25,0-0.5-0.25-0.5-0.5v-1.5c0-0.25,0.25-0.5,0.5-0.5h1.5
	c0.25,0,0.5,0.25,0.5,0.5V14z M13.25,19c0,0.25-0.25,0.5-0.5,0.5h-1.5c-0.25,0-0.5-0.25-0.5-0.5v-1.5c0-0.25,0.25-0.5,0.5-0.5h1.5
	c0.25,0,0.5,0.25,0.5,0.5V19z M13.25,14c0,0.25-0.25,0.5-0.5,0.5h-1.5c-0.25,0-0.5-0.25-0.5-0.5v-1.5c0-0.25,0.25-0.5,0.5-0.5h1.5
	c0.25,0,0.5,0.25,0.5,0.5V14z M18.25,19c0,0.25-0.25,0.5-0.5,0.5h-1.5c-0.25,0-0.5-0.25-0.5-0.5v-6.5c0-0.25,0.25-0.5,0.5-0.5h1.5
	c0.25,0,0.5,0.25,0.5,0.5V19z M18.25,9c0,0.25-0.25,0.5-0.5,0.5H6.25C6,9.5,5.75,9.25,5.75,9V5c0-0.25,0.25-0.5,0.5-0.5h11.5
	c0.25,0,0.5,0.25,0.5,0.5V9z"/>
</svg>
