<svg version="1.1" id="master" xmlns="http://www.w3.org/2000/svg" xmlns:xlink="http://www.w3.org/1999/xlink" x="0px" y="0px"
	 width="24px" height="24px" viewBox="0 0 24 24" enable-background="new 0 0 24 24" xml:space="preserve">
<g>
	<path d="M9,3L7.17,5H4C2.9,5,2,5.9,2,7v12c0,1.1,0.9,2,2,2h16c1.1,0,2-0.9,2-2V7c0-1.1-0.9-2-2-2h-3.17L15,3H9z M12,18
		c-2.76,0-5-2.24-5-5s2.24-5,5-5s5,2.24,5,5S14.76,18,12,18z"/>
	<path d="M12,17l1.25-2.75L16,13l-2.75-1.25L12,9l-1.25,2.75L8,13l2.75,1.25L12,17z"/>
</g>
</svg>
