<svg version="1.1" id="master" xmlns="http://www.w3.org/2000/svg" xmlns:xlink="http://www.w3.org/1999/xlink" x="0px" y="0px"
	 width="24px" height="24px" viewBox="0 0 24 24" enable-background="new 0 0 24 24" xml:space="preserve">
<rect fill="none" width="24" height="24"/>
<path d="M21.5,18h-0.771L13.235,7.68l1.67-2.298c0.161-0.224,0.112-0.536-0.11-0.699l-0.811-0.587
	c-0.224-0.162-0.536-0.113-0.698,0.111L12,5.978l-1.287-1.772c-0.162-0.223-0.475-0.273-0.698-0.111L9.206,4.683
	c-0.223,0.163-0.273,0.475-0.11,0.699l1.669,2.298L3.271,18H2.5C2.224,18,2,18.224,2,18.5v1C2,19.776,2.224,20,2.5,20h19
	c0.276,0,0.5-0.224,0.5-0.5v-1C22,18.224,21.776,18,21.5,18z M12,13l3.636,5H8.364L12,13z"/>
</svg>
