<svg version="1.1" id="master" xmlns="http://www.w3.org/2000/svg" xmlns:xlink="http://www.w3.org/1999/xlink"
	 x="0px" y="0px" width="24px" height="24px" viewBox="0 0 24 24" enable-background="new 0 0 24 24" xml:space="preserve">
<path d="M7.846,13.6c-1.367,1.366-2.241,2.531-2.78,3.359c3.62,2.124,7.624,3.822,8.778,2.667l0.002-0.002
	c1.152-1.159-0.543-5.165-2.669-8.787C10.351,11.378,9.196,12.248,7.846,13.6z M12.188,17.967c-0.613-0.109-1.566-0.438-2.74-0.965
	c0.267-0.298,0.551-0.604,0.875-0.928c0.313-0.314,0.611-0.592,0.9-0.852C11.75,16.398,12.078,17.354,12.188,17.967z M10.66,9.976
	c-0.303-0.492-0.609-0.973-0.915-1.432c-0.582-0.874-1.391-1.741-5.09,1.887c-3.628,3.701-2.761,4.508-1.887,5.09
	c0.46,0.307,0.943,0.615,1.438,0.92c0.572-0.883,1.498-2.114,2.935-3.551C8.56,11.47,9.779,10.548,10.66,9.976z M17,4
	c-5.183,0.051-5.141,1.236-4.935,2.265c0.109,0.542,0.232,1.103,0.367,1.667c1.028-0.219,2.554-0.435,4.585-0.435
	c2.01,0,3.523,0.211,4.551,0.428c0.135-0.562,0.258-1.119,0.365-1.659C22.141,5.236,22.182,4.051,17,4z M12.676,8.907
	C13.732,12.971,15.364,17,16.997,17H17c1.634-0.005,3.27-4.036,4.326-8.1c-0.967-0.202-2.396-0.404-4.309-0.404
	C15.085,8.496,13.643,8.703,12.676,8.907z M16.998,14.654c-0.355-0.512-0.797-1.416-1.255-2.619
	c0.399-0.022,0.817-0.037,1.274-0.037c0.443,0,0.852,0.014,1.238,0.035C17.799,13.236,17.354,14.145,16.998,14.654z"/>
</svg>
