<svg version="1.1" id="master" xmlns="http://www.w3.org/2000/svg" xmlns:xlink="http://www.w3.org/1999/xlink" x="0px" y="0px"
	 width="24px" height="24px" viewBox="0 0 24 24" enable-background="new 0 0 24 24" xml:space="preserve">
<rect fill="none" width="24" height="24"/>
<path d="M21.433,5.594C20.343,3.293,18.085,2,15.765,2c-1.09,0-2.195,0.285-3.195,0.883l-1.074,0.641
	c-0.594,0.355-0.786,1.121-0.43,1.715l1.281,2.145c0.234,0.391,0.648,0.609,1.074,0.609c0.219,0,0.438-0.059,0.641-0.176
	l1.074-0.641C15.335,7.055,15.558,7,15.776,7c0.426,0,0.84,0.219,1.074,0.609c0.355,0.59,0.16,1.359-0.43,1.715L2.609,17.531
	c-0.594,0.355-0.786,1.121-0.43,1.715l1.281,2.145C3.694,21.781,4.108,22,4.534,22c0.219,0,0.438-0.059,0.641-0.176l13.566-8.066
	C21.542,12.082,22.827,8.543,21.433,5.594z M14.491,6.102L14.394,6.16l-0.801-2.402c0.379-0.184,0.773-0.316,1.184-0.398
	l0.805,2.414C15.198,5.805,14.823,5.902,14.491,6.102z M7.698,18.867l-2.363-1.504l1.203-0.715l2.363,1.504L7.698,18.867z
	 M11.897,16.371l-2.363-1.504l1.203-0.715l2.363,1.504L11.897,16.371z M16.229,13.797l-2.363-1.504l1.203-0.715l2.363,1.504
	L16.229,13.797z M17.026,6.09l1.797-1.797c0.328,0.254,0.625,0.551,0.883,0.883l-1.785,1.785C17.698,6.598,17.386,6.301,17.026,6.09
	z M20.233,10.301l-2.324-0.773c0.125-0.207,0.227-0.426,0.289-0.668c0.043-0.176,0.066-0.355,0.07-0.531l2.359,0.785
	C20.546,9.52,20.413,9.918,20.233,10.301z"/>
</svg>
