<svg version="1.1" id="master" xmlns="http://www.w3.org/2000/svg" xmlns:xlink="http://www.w3.org/1999/xlink" x="0px" y="0px"
	 width="24px" height="24px" viewBox="0 0 24 24" enable-background="new 0 0 24 24" xml:space="preserve">
<rect fill="none" width="24" height="24"/>
<path d="M21.666,16.072c-0.06-0.032-1.265-0.659-2.999-1.009c2.51-2.934,3.284-6.314,3.318-6.47
	c0.046-0.208-0.018-0.426-0.168-0.577c-0.118-0.119-0.278-0.184-0.442-0.184c-0.044,0-0.09,0.004-0.135,0.015
	c-0.151,0.033-3.38,0.765-6.272,3.116c0.001-0.057,0.001-0.115,0.001-0.172c0-4.64-2.344-8.348-2.443-8.504
	C12.411,2.109,12.213,2,12,2s-0.412,0.109-0.526,0.288c-0.1,0.156-2.442,3.864-2.442,8.504c0,0.057,0,0.115,0,0.172
	C6.14,8.614,2.911,7.882,2.759,7.848c-0.044-0.01-0.089-0.015-0.134-0.015c-0.164,0-0.324,0.064-0.442,0.184
	c-0.15,0.151-0.214,0.369-0.167,0.577c0.035,0.155,0.808,3.536,3.318,6.47c-1.734,0.35-2.938,0.977-2.999,1.009
	c-0.305,0.161-0.422,0.539-0.261,0.845c0.059,0.11,0.149,0.202,0.26,0.261c0.096,0.05,2.374,1.238,5.214,1.238
	c0.24,0,0.467-0.003,0.684-0.012c-0.444,0.868-0.646,1.496-0.657,1.532c-0.07,0.222-0.011,0.464,0.153,0.63
	c0.164,0.164,0.407,0.225,0.629,0.155c0.072-0.022,1.473-0.468,3.02-1.535v2.501c0,0.173,0.14,0.313,0.313,0.313h0.625
	c0.172,0,0.313-0.14,0.313-0.313v-2.5c1.546,1.066,2.947,1.512,3.02,1.535c0.223,0.068,0.465,0.008,0.629-0.156
	c0.164-0.165,0.224-0.407,0.152-0.63c-0.011-0.035-0.212-0.664-0.656-1.532c0.217,0.009,0.444,0.013,0.684,0.013
	c2.84,0,5.119-1.189,5.215-1.239C21.872,17.069,22,16.856,22,16.625C22,16.393,21.871,16.18,21.666,16.072z"/>
</svg>
