<svg version="1.1" id="master" xmlns="http://www.w3.org/2000/svg" xmlns:xlink="http://www.w3.org/1999/xlink" x="0px" y="0px"
	 width="24px" height="24px" viewBox="0 0 24 24" enable-background="new 0 0 24 24" xml:space="preserve">
<rect fill="none" width="24" height="24"/>
<path d="M21.281,13.531l-4.553-6.504c-0.773-1.104-2.007-1.694-3.256-1.694c-0.785,0-1.581,0.233-2.274,0.719
	c-0.684,0.479-1.17,1.139-1.441,1.868C9.656,5.861,7.972,4.222,5.889,4.222C3.74,4.222,2,5.962,2,8.111v7.777
	c0,2.149,1.74,3.89,3.889,3.89c2.149,0,3.889-1.74,3.889-3.89v-5.177c0.114,0.298,0.253,0.594,0.444,0.868l4.556,6.503
	c0.77,1.104,2.003,1.695,3.257,1.695c0.788,0,1.579-0.232,2.273-0.72C22.104,17.803,22.539,15.327,21.281,13.531z M7.556,12H4.222
	V8.111c0-0.921,0.747-1.667,1.667-1.667c0.92,0,1.667,0.746,1.667,1.667V12z M14.319,13.56l-2.278-3.254
	C11.774,9.924,11.67,9.458,11.753,9c0.08-0.458,0.337-0.861,0.719-1.129c0.295-0.208,0.643-0.315,1-0.315
	c0.572,0,1.107,0.277,1.434,0.746l2.277,3.254L14.319,13.56z"/>
</svg>
