<svg version="1.1" id="master" xmlns="http://www.w3.org/2000/svg" xmlns:xlink="http://www.w3.org/1999/xlink" x="0px" y="0px"
	 width="24px" height="24px" viewBox="0 0 24 24" enable-background="new 0 0 24 24" xml:space="preserve">
<rect fill="none" width="24" height="24"/>
<path d="M19.69,4.231c-0.224-0.654-0.844-1.122-1.577-1.122H5.89c-0.732,0-1.344,0.468-1.579,1.122L2,10.891v8.893
	c0,0.608,0.5,1.107,1.111,1.107h1.111c0.611,0,1.111-0.499,1.111-1.107v-1.112h13.334v1.111c0,0.609,0.5,1.108,1.108,1.108h1.11
	c0.613,0,1.113-0.499,1.113-1.11V10.89L19.69,4.231z M5.89,15.335c-0.922,0-1.667-0.746-1.667-1.667
	c-0.001-0.923,0.744-1.667,1.667-1.667c0.922,0,1.667,0.744,1.667,1.667C7.558,14.589,6.812,15.335,5.89,15.335z M18.113,15.335
	c-0.924,0-1.669-0.746-1.669-1.667c0-0.923,0.745-1.667,1.669-1.667c0.923,0,1.667,0.744,1.667,1.667
	C19.78,14.589,19.036,15.335,18.113,15.335z M4.222,9.777l1.667-5h12.224l1.667,5H4.222z"/>
</svg>
