<svg version="1.1" id="master" xmlns="http://www.w3.org/2000/svg" xmlns:xlink="http://www.w3.org/1999/xlink" x="0px" y="0px"
	 width="24px" height="24px" viewBox="0 0 24 24" enable-background="new 0 0 24 24" xml:space="preserve">
<path d="M19.688,4.233c-0.221-0.655-0.844-1.122-1.577-1.122H5.889c-0.733,0-1.344,0.467-1.578,1.122L2,10.889v8.889
	c0,0.61,0.5,1.11,1.111,1.11h1.111c0.611,0,1.111-0.5,1.111-1.11v-1.111h13.333v1.111c0,0.61,0.5,1.11,1.11,1.11h1.111
	c0.611,0,1.111-0.5,1.111-1.11v-8.889L19.688,4.233z M5.889,15.334c-0.922,0-1.667-0.745-1.667-1.667
	C4.222,12.744,4.967,12,5.889,12c0.922,0,1.667,0.744,1.667,1.667C7.556,14.589,6.811,15.334,5.889,15.334z M18.111,15.334
	c-0.923,0-1.667-0.745-1.667-1.667c0-0.923,0.744-1.667,1.667-1.667c0.922,0,1.666,0.744,1.666,1.667
	C19.777,14.589,19.033,15.334,18.111,15.334z M4.222,9.778l1.667-5h12.223l1.666,5H4.222z"/>
</svg>
