<svg version="1.1" id="master" xmlns="http://www.w3.org/2000/svg" xmlns:xlink="http://www.w3.org/1999/xlink"
	 x="0px" y="0px" width="24px" height="24px" viewBox="0 0 24 24" enable-background="new 0 0 24 24" xml:space="preserve">
<path d="M19,10h-0.5l-3.399-4.249C14.722,5.276,14.146,5,13.539,5H6.854C6.037,5,5.301,5.498,4.997,6.257L3.5,10.07
	C2.639,10.294,2,11.069,2,12v3.5C2,15.776,2.224,16,2.5,16H4c0,1.657,1.343,3,3,3s3-1.343,3-3h4c0,1.657,1.343,3,3,3s3-1.343,3-3
	h1.5c0.276,0,0.5-0.224,0.5-0.5V13C22,11.343,20.657,10,19,10z M7,17.5c-0.827,0-1.5-0.673-1.5-1.5s0.673-1.5,1.5-1.5
	s1.5,0.673,1.5,1.5S7.827,17.5,7,17.5z M9.25,10H5.654l1.2-3H9.25V10z M10.75,10V7h2.789l2.399,3H10.75z M17,17.5
	c-0.827,0-1.5-0.673-1.5-1.5s0.673-1.5,1.5-1.5s1.5,0.673,1.5,1.5S17.827,17.5,17,17.5z"/>
</svg>
