<svg version="1.1" id="master" xmlns="http://www.w3.org/2000/svg" xmlns:xlink="http://www.w3.org/1999/xlink" x="0px" y="0px"
	 width="24px" height="24px" viewBox="0 0 24 24" enable-background="new 0 0 24 24" xml:space="preserve">
<rect fill="none" width="24" height="24"/>
<path d="M13.648,8.118c-2.06-1.004-4.474-0.41-5.868,1.281l2.156,2.157c0.246,0.246,0.246,0.641,0,0.883
	c-0.121,0.122-0.281,0.184-0.441,0.184s-0.32-0.063-0.441-0.184l-1.961-1.961L2.088,20.74c-0.113,0.234-0.121,0.519,0,0.769
	c0.211,0.434,0.738,0.614,1.172,0.403l5.219-2.548l-1.922-1.922c-0.247-0.242-0.247-0.641,0-0.883c0.246-0.242,0.641-0.242,0.883,0
	l2.227,2.228l3.984-1.946c0.938-0.457,1.738-1.223,2.23-2.23C17.058,12.2,16.058,9.293,13.648,8.118z M17.245,6.754
	c0.762-1.59,0.368-3.469-1.184-4.754c-1.964,1.629-2.051,4.199-0.308,5.934l0.313,0.313C17.801,9.989,20.375,9.903,22,7.938
	C20.715,6.387,18.836,5.992,17.245,6.754z"/>
</svg>
