<svg version="1.1" id="master" xmlns="http://www.w3.org/2000/svg" xmlns:xlink="http://www.w3.org/1999/xlink" x="0px" y="0px"
	 width="24px" height="24px" viewBox="0 0 24 24" enable-background="new 0 0 24 24" xml:space="preserve">
<rect fill="none" width="24" height="24"/>
<path d="M16.505,5.783c0.747,0,1.351-0.604,1.351-1.351C17.855,3.531,16.505,2,16.505,2s-1.352,1.531-1.352,2.433
	C15.153,5.18,15.757,5.783,16.505,5.783z M12,5.783c0.748,0,1.352-0.604,1.352-1.351C13.352,3.531,12,2,12,2
	s-1.352,1.531-1.352,2.433C10.648,5.18,11.252,5.783,12,5.783z M7.495,5.783c0.748,0,1.352-0.604,1.352-1.351
	C8.847,3.531,7.495,2,7.495,2S6.144,3.531,6.144,4.433C6.144,5.18,6.747,5.783,7.495,5.783z M18.234,8.495
	c-0.18-0.531-0.685-0.909-1.279-0.909h-9.91c-0.595,0-1.09,0.378-1.279,0.909l-1.874,5.396v7.207C3.892,21.594,4.297,22,4.793,22
	h0.9c0.495,0,0.901-0.406,0.901-0.901v-0.901h10.811v0.901c0,0.495,0.405,0.901,0.901,0.901h0.9c0.495,0,0.901-0.406,0.901-0.901
	v-7.207L18.234,8.495z M7.045,17.495c-0.748,0-1.352-0.604-1.352-1.352s0.604-1.352,1.352-1.352s1.352,0.604,1.352,1.352
	S7.793,17.495,7.045,17.495z M16.955,17.495c-0.748,0-1.352-0.604-1.352-1.352s0.604-1.352,1.352-1.352s1.352,0.604,1.352,1.352
	S17.703,17.495,16.955,17.495z M5.693,12.99l1.352-4.054h9.91l1.352,4.054H5.693z"/>
</svg>
