<svg version="1.1" id="master" xmlns="http://www.w3.org/2000/svg" xmlns:xlink="http://www.w3.org/1999/xlink"
	 x="0px" y="0px" width="24px" height="24px" viewBox="0 0 24 24" enable-background="new 0 0 24 24" xml:space="preserve">
<path d="M21.968,16.796l-1.043-6.249c-0.102-0.602-0.621-1.043-1.234-1.043h-9.562v-2.5h3.749c0.344,0,0.625-0.281,0.625-0.625
	V2.625C14.503,2.281,14.222,2,13.878,2H3.879C3.535,2,3.254,2.281,3.254,2.625v3.75C3.254,6.719,3.535,7,3.879,7h3.75v2.5H4.313
	c-0.609,0-1.132,0.441-1.234,1.043l-1.043,6.25C2.012,16.93,2,17.066,2,17.203v3.547C2,21.441,2.559,22,3.25,22h17.499
	c0.691,0,1.25-0.559,1.25-1.25v-3.544C22.003,17.069,21.991,16.933,21.968,16.796z M12.94,11.688c0-0.344,0.282-0.625,0.625-0.625
	h0.625c0.344,0,0.625,0.281,0.625,0.625v0.625c0,0.344-0.281,0.625-0.625,0.625h-0.625c-0.343,0-0.625-0.281-0.625-0.625V11.688z
	 M11.691,14.188h0.625c0.343,0,0.625,0.281,0.625,0.625v0.625c0,0.344-0.281,0.625-0.625,0.625h-0.625
	c-0.344,0-0.625-0.281-0.625-0.625v-0.625C11.066,14.469,11.347,14.188,11.691,14.188z M10.441,11.063
	c0.344,0,0.625,0.281,0.625,0.625v0.625c0,0.344-0.281,0.625-0.625,0.625H9.816c-0.344,0-0.625-0.281-0.625-0.625v-0.625
	c0-0.344,0.281-0.625,0.625-0.625H10.441z M5.129,5.125v-1.25h7.499v1.25H5.129z M6.691,12.938H6.066
	c-0.344,0-0.625-0.281-0.625-0.625v-0.625c0-0.344,0.281-0.625,0.625-0.625h0.625c0.344,0,0.625,0.281,0.625,0.625v0.625
	C7.316,12.656,7.035,12.938,6.691,12.938z M7.316,15.438v-0.625c0-0.344,0.281-0.625,0.625-0.625h0.625
	c0.344,0,0.625,0.281,0.625,0.625v0.625c0,0.344-0.281,0.625-0.625,0.625H7.941C7.598,16.063,7.316,15.781,7.316,15.438z
	 M15.753,19.813c0,0.172-0.141,0.313-0.313,0.313H8.566c-0.172,0-0.313-0.141-0.313-0.313v-0.625c0-0.172,0.141-0.313,0.313-0.313
	h6.874c0.172,0,0.313,0.141,0.313,0.313V19.813z M16.69,15.438c0,0.344-0.281,0.625-0.625,0.625H15.44
	c-0.344,0-0.625-0.281-0.625-0.625v-0.625c0-0.344,0.281-0.625,0.625-0.625h0.625c0.344,0,0.625,0.281,0.625,0.625V15.438z
	 M18.565,12.313c0,0.344-0.281,0.625-0.625,0.625h-0.625c-0.344,0-0.625-0.281-0.625-0.625v-0.625c0-0.344,0.281-0.625,0.625-0.625
	h0.625c0.344,0,0.625,0.281,0.625,0.625V12.313z"/>
</svg>
