<svg version="1.1" id="master" xmlns="http://www.w3.org/2000/svg" xmlns:xlink="http://www.w3.org/1999/xlink"
	 x="0px" y="0px" width="24px" height="24px" viewBox="0 0 24 24" enable-background="new 0 0 24 24" xml:space="preserve">
<path d="M22,6.464V4.679c0-0.296-0.28-0.536-0.625-0.536H2.625C2.28,4.143,2,4.383,2,4.679v1.785C2,6.76,2.28,7,2.625,7h0.884
	C2.553,8.72,2,10.629,2,12.429c0,1.744,0.528,3.154,1.429,4.265v2.093c0,0.591,0.48,1.071,1.071,1.071s1.071-0.48,1.071-1.071
	v-0.335C7.31,19.402,9.551,19.857,12,19.857c2.45,0,4.689-0.455,6.429-1.406v0.335c0,0.591,0.479,1.071,1.071,1.071
	s1.071-0.48,1.071-1.071v-2.093c0.9-1.11,1.429-2.521,1.429-4.265c0-1.8-0.553-3.709-1.509-5.429h0.884C21.72,7,22,6.76,22,6.464z"
	/>
</svg>
