<svg version="1.1" id="master" xmlns="http://www.w3.org/2000/svg" xmlns:xlink="http://www.w3.org/1999/xlink" x="0px" y="0px"
	 width="24px" height="24px" viewBox="0 0 24 24" enable-background="new 0 0 24 24" xml:space="preserve">
<rect fill="none" width="24" height="24"/>
<path d="M19.967,8.965L6.835,3.191C6.32,2.985,5.732,3.19,5.458,3.672L2.147,9.466c-0.305,0.532-0.121,1.211,0.412,1.517
	c0.055,0.032,0.113,0.059,0.174,0.081l5.436,2.252l-1.383,3.686H4.222v-1.112c0-0.306-0.249-0.555-0.555-0.555H2.556
	C2.249,15.334,2,15.583,2,15.889v4.445c0,0.307,0.249,0.555,0.556,0.555h1.111c0.307,0,0.555-0.248,0.555-0.555v-1.111h3.333
	c0.464,0.001,0.879-0.287,1.042-0.722l1.626-4.337l2.379,0.984c0.322,0.117,0.679,0.08,0.969-0.102l6.571-4.108
	C20.914,10.457,20.812,9.303,19.967,8.965z M21.649,12.618l-1.23-0.542l-4.806,3.003l4.151,1.826
	c0.297,0.13,0.642-0.005,0.771-0.301l0,0l1.414-3.216C22.08,13.095,21.946,12.749,21.649,12.618
	C21.649,12.618,21.649,12.618,21.649,12.618L21.649,12.618z"/>
</svg>
