<svg version="1.1" id="master" xmlns="http://www.w3.org/2000/svg" xmlns:xlink="http://www.w3.org/1999/xlink"
	 x="0px" y="0px" width="24px" height="24px" viewBox="0 0 24 24" enable-background="new 0 0 24 24" xml:space="preserve">
<path d="M7.626,7c0-1.152,0.632-2.148,1.563-2.691V12h1.875V3.875h1.875V12h1.875V4.309C15.743,4.852,16.377,5.848,16.377,7v5h1.875
	V7c0-2.762-2.238-5-5-5h-2.5c-2.762,0-5,2.238-5,5v5h1.875V7z M20.685,15.355l-0.417-1.25c-0.172-0.512-0.648-0.855-1.188-0.855
	H4.919c-0.539,0-1.016,0.344-1.187,0.855l-0.418,1.25C3.048,16.164,3.649,17,4.501,17v4.375C4.501,21.719,4.782,22,5.126,22h1.25
	c0.344,0,0.625-0.281,0.625-0.625V17h10v4.375c0,0.344,0.281,0.625,0.625,0.625h1.25c0.343,0,0.625-0.281,0.625-0.625V17
	C20.353,17,20.955,16.164,20.685,15.355z"/>
</svg>
