<svg version="1.1" id="master" xmlns="http://www.w3.org/2000/svg" xmlns:xlink="http://www.w3.org/1999/xlink"
	 x="0px" y="0px" width="24px" height="24px" viewBox="0 0 24 24" enable-background="new 0 0 24 24" xml:space="preserve">
<path d="M18.25,3.25c-0.815,0.002-1.608,0.273-2.255,0.771C15.083,2.801,13.641,2,12,2S8.917,2.801,8.005,4.021
	C6.369,2.766,4.026,3.075,2.771,4.71C2.268,5.367,1.996,6.172,2,7c0,1.63,2.5,7.5,2.5,7.5h2.348L6.375,8.611
	C6.361,8.439,6.489,8.289,6.662,8.275l0.625-0.05c0.171-0.014,0.323,0.114,0.336,0.287l0,0L8.102,14.5h3.248V8.563
	c0-0.172,0.14-0.313,0.313-0.313h0.625c0.172,0,0.312,0.14,0.312,0.313V14.5h3.3l0.479-5.988c0.014-0.172,0.164-0.3,0.336-0.287l0,0
	l0.625,0.05c0.172,0.014,0.301,0.165,0.286,0.336L17.153,14.5H19.5c0,0,2.5-5.87,2.5-7.5C22,4.929,20.321,3.25,18.25,3.25z
	 M4.5,20.75C4.5,21.44,5.06,22,5.75,22h12.5c0.69,0,1.25-0.56,1.25-1.25v-5h-15V20.75z"/>
</svg>
