<svg version="1.1" id="master" xmlns="http://www.w3.org/2000/svg" xmlns:xlink="http://www.w3.org/1999/xlink"
	 x="0px" y="0px" width="24px" height="24px" viewBox="0 0 24 24" enable-background="new 0 0 24 24" xml:space="preserve">
<path d="M4.891,10.125H4.5c-0.345,0-0.625,0.28-0.625,0.625v0.625C3.875,11.72,4.155,12,4.5,12h0.623
	c-0.005,1.687-0.214,3.364-0.623,5h5c-0.408-1.636-0.617-3.313-0.623-5H9.5c0.345,0,0.625-0.28,0.625-0.625V10.75
	c0-0.345-0.28-0.625-0.625-0.625H9.109l1.324-3.53c0.121-0.323-0.042-0.684-0.366-0.805c-0.07-0.026-0.145-0.04-0.22-0.04H7.625V4.5
	h0.938c0.172,0,0.313-0.14,0.313-0.313V3.563c0-0.172-0.14-0.313-0.313-0.313H7.625V2.313C7.625,2.14,7.485,2,7.313,2H6.688
	C6.515,2,6.375,2.14,6.375,2.313V3.25H5.438c-0.172,0-0.313,0.14-0.313,0.313v0.625c0,0.172,0.14,0.313,0.313,0.313h0.938v1.25
	H4.152c-0.346,0-0.625,0.279-0.626,0.624c0,0.075,0.013,0.15,0.04,0.221L4.891,10.125z M11.654,19.952L10.75,19.5v-0.625
	c0-0.345-0.28-0.625-0.625-0.625h-6.25c-0.345,0-0.625,0.28-0.625,0.625V19.5l-0.904,0.452C2.134,20.059,2,20.274,2,20.511v0.864
	C2,21.72,2.28,22,2.625,22h8.75C11.72,22,12,21.72,12,21.375v-0.864C12,20.274,11.867,20.059,11.654,19.952z M15.278,13.789
	L15.149,17h4.951l-0.129-3.211l0.961-0.813c0.281-0.237,0.442-0.587,0.442-0.956V9.734c0-0.129-0.105-0.234-0.234-0.234h-1.03
	c-0.13,0-0.234,0.105-0.234,0.234v1.016h-0.965V9.734c0-0.129-0.105-0.234-0.234-0.234h-2.103c-0.129,0-0.234,0.105-0.234,0.234
	v1.016h-0.966V9.734c0-0.129-0.104-0.234-0.234-0.234h-1.03c-0.129,0-0.234,0.105-0.234,0.234v2.289
	c0.001,0.368,0.163,0.717,0.444,0.953L15.278,13.789z M17,13.875c0-0.345,0.28-0.625,0.625-0.625s0.625,0.28,0.625,0.625v1.25H17
	V13.875z M21.655,19.952L20.75,19.5v-0.625c0-0.345-0.28-0.625-0.625-0.625h-5c-0.345,0-0.625,0.28-0.625,0.625V19.5l-0.904,0.452
	c-0.212,0.106-0.346,0.322-0.346,0.559v0.864c0,0.345,0.28,0.625,0.625,0.625h7.5C21.72,22,22,21.72,22,21.375v-0.864
	C22,20.274,21.866,20.059,21.655,19.952z"/>
</svg>
