<svg version="1.1" id="master" xmlns="http://www.w3.org/2000/svg" xmlns:xlink="http://www.w3.org/1999/xlink" x="0px" y="0px"
	 width="24px" height="24px" viewBox="0 0 24 24" enable-background="new 0 0 24 24" xml:space="preserve">
<rect fill="none" width="24" height="24"/>
<path d="M9.188,4.813C9.188,3.259,10.447,2,12,2c1.553,0,2.813,1.259,2.813,2.813S13.553,7.625,12,7.625
	C10.447,7.625,9.188,6.366,9.188,4.813z M19.134,4.866c-0.488-0.488-1.279-0.488-1.768,0L13.982,8.25h-3.965L6.634,4.866
	c-0.488-0.488-1.28-0.488-1.768,0c-0.488,0.488-0.488,1.28,0,1.768l3.696,3.696v10.42c0,0.69,0.56,1.25,1.25,1.25h0.625
	c0.69,0,1.25-0.56,1.25-1.25v-4.375h0.625v4.375c0,0.69,0.56,1.25,1.25,1.25h0.625c0.69,0,1.25-0.56,1.25-1.25V10.33l3.696-3.696
	C19.622,6.146,19.622,5.354,19.134,4.866z"/>
</svg>
