<svg version="1.1" id="master" xmlns="http://www.w3.org/2000/svg" xmlns:xlink="http://www.w3.org/1999/xlink" x="0px" y="0px"
	 width="24px" height="24px" viewBox="0 0 24 24" enable-background="new 0 0 24 24" xml:space="preserve">
<rect fill="none" width="24" height="24"/>
<path d="M14.189,15.367l0.499,0.997c-0.146,0.066-0.414,0.194-0.803,0.384c-0.39,0.189-0.852,0.414-1.387,0.674
	c-0.535,0.259-1.122,0.545-1.761,0.857s-1.28,0.625-1.926,0.938c-0.645,0.313-1.27,0.615-1.875,0.908s-1.144,0.552-1.616,0.777
	c-0.472,0.227-0.853,0.408-1.142,0.544S3.735,21.65,3.716,21.65c-0.033,0-0.068-0.015-0.104-0.045
	c-0.037-0.029-0.07-0.068-0.101-0.114c-0.029-0.046-0.053-0.091-0.069-0.135c-0.017-0.043-0.025-0.081-0.025-0.114
	c0-0.054,0.052-0.117,0.155-0.189c0.103-0.074,0.221-0.146,0.354-0.22c0.134-0.073,0.265-0.14,0.395-0.2
	c0.13-0.059,0.221-0.103,0.274-0.129L14.189,15.367z M12.314,9.242l-0.798-0.798c-1.111,1.17-2.22,2.328-3.327,3.471
	s-2.22,2.298-3.337,3.462l-1.775,1.846c-0.173,0.179-0.346,0.355-0.519,0.527c-0.173,0.174-0.343,0.354-0.509,0.539
	C2.017,18.322,2,18.365,2,18.419c0,0.033,0.014,0.069,0.04,0.11c0.026,0.039,0.057,0.076,0.09,0.109s0.069,0.063,0.109,0.09
	c0.04,0.026,0.076,0.039,0.11,0.039c0.046,0,0.086-0.016,0.119-0.049c1.662-1.557,3.307-3.133,4.933-4.729
	C9.027,12.394,10.665,10.812,12.314,9.242z M17.915,3.865c0.083-0.073,0.161-0.151,0.234-0.234c0.073-0.083,0.135-0.171,0.185-0.264
	s0.075-0.196,0.075-0.31c0-0.192-0.071-0.359-0.215-0.499c-0.143-0.14-0.311-0.209-0.504-0.209c-0.112,0-0.214,0.025-0.304,0.075
	s-0.175,0.111-0.255,0.185c-0.079,0.073-0.156,0.151-0.229,0.234c-0.072,0.083-0.143,0.162-0.209,0.234l0.987,0.998
	C17.754,4.008,17.832,3.938,17.915,3.865z M17.162,4.574c-0.153-0.173-0.31-0.341-0.469-0.504c-0.16-0.163-0.326-0.321-0.499-0.474
	l-4.18,4.329l0.818,0.818L17.162,4.574z M17.217,13.756c-0.795,0.422-1.594,0.846-2.398,1.271c0.106,0.16,0.197,0.328,0.273,0.504
	c0.077,0.176,0.158,0.351,0.245,0.523l4.897-2.363l-0.618-1.228C18.812,12.902,18.012,13.334,17.217,13.756z M21.282,11.666
	c-0.087,0-0.175,0.017-0.265,0.05s-0.18,0.073-0.27,0.12s-0.176,0.096-0.259,0.149c-0.084,0.054-0.165,0.1-0.245,0.14l0.629,1.247
	c0.106-0.053,0.226-0.105,0.358-0.159c0.134-0.054,0.257-0.114,0.369-0.185c0.113-0.07,0.208-0.156,0.285-0.26
	C21.962,12.665,22,12.537,22,12.384c0-0.193-0.071-0.361-0.215-0.504C21.643,11.737,21.475,11.666,21.282,11.666z"/>
</svg>
