<svg version="1.1" id="master" xmlns="http://www.w3.org/2000/svg" xmlns:xlink="http://www.w3.org/1999/xlink" x="0px" y="0px"
	 width="24px" height="24px" viewBox="0 0 24 24" enable-background="new 0 0 24 24" xml:space="preserve">
<rect fill="none" width="24" height="24"/>
<path d="M16.514,11.708L13,9.6V8h1.5C14.776,8,15,7.776,15,7.5v-1C15,6.224,14.776,6,14.5,6H13V4.5C13,4.224,12.776,4,12.5,4h-1
	C11.224,4,11,4.224,11,4.5V6H9.5C9.224,6,9,6.224,9,6.5v1C9,7.776,9.224,8,9.5,8H11v1.6l-3.514,2.108
	C7.185,11.889,7,12.215,7,12.566V20h3v-3c0-1.105,0.896-2,2-2c1.105,0,2,0.895,2,2v3h3v-7.434
	C17,12.215,16.816,11.889,16.514,11.708z M2,16.373V19.5C2,19.776,2.224,20,2.5,20H6v-6l-3.394,1.454
	C2.238,15.611,2,15.974,2,16.373z M21.395,15.454L18,14v6h3.5c0.276,0,0.5-0.224,0.5-0.5v-3.127
	C22,15.974,21.762,15.611,21.395,15.454z"/>
</svg>
