<?xml version="1.0" encoding="utf-8"?>
<!-- Generator: Adobe Illustrator 16.0.0, SVG Export Plug-In . SVG Version: 6.00 Build 0)  -->
<!DOCTYPE svg PUBLIC "-//W3C//DTD SVG 1.1//EN" "http://www.w3.org/Graphics/SVG/1.1/DTD/svg11.dtd">
<svg version="1.1" id="master" xmlns="http://www.w3.org/2000/svg" xmlns:xlink="http://www.w3.org/1999/xlink" x="0px" y="0px"
	 width="24px" height="24px" viewBox="0 0 24 24" enable-background="new 0 0 24 24" xml:space="preserve">
<path d="M15.16,11.474V5.158L12.002,2L8.844,5.158v2.105H2.526V22h18.947V11.474H15.16z M6.737,19.895H4.633V17.79h2.104V19.895
	L6.737,19.895z M6.737,15.686H4.633V13.58h2.104V15.686L6.737,15.686z M6.737,11.474H4.633V9.369h2.104V11.474L6.737,11.474z
	 M13.057,19.895h-2.104V17.79h2.104V19.895z M13.057,15.686h-2.104V13.58h2.104V15.686z M13.057,11.474h-2.104V9.369h2.104V11.474z
	 M13.057,7.263h-2.104V5.158h2.104V7.263z M19.37,19.895h-2.104V17.79h2.104V19.895z M19.37,15.686h-2.104V13.58h2.104V15.686z"/>
</svg>
