<svg version="1.1" id="master" xmlns="http://www.w3.org/2000/svg" xmlns:xlink="http://www.w3.org/1999/xlink" x="0px" y="0px"
	 width="24px" height="24px" viewBox="0 0 24 24" enable-background="new 0 0 24 24" xml:space="preserve">
<path d="M15.158,11.474V5.158L12,2L8.842,5.158v2.105H2.526V22h18.947V11.474H15.158z M6.737,19.895H4.632v-2.105h2.105V19.895z
	 M6.737,15.685H4.632v-2.105h2.105V15.685z M6.737,11.474H4.632V9.369h2.105V11.474z M13.053,19.895h-2.105v-2.105h2.105V19.895z
	 M13.053,15.685h-2.105v-2.105h2.105V15.685z M13.053,11.474h-2.105V9.369h2.105V11.474z M13.053,7.263h-2.105V5.158h2.105V7.263z
	 M19.368,19.895h-2.104v-2.105h2.104V19.895z M19.368,15.685h-2.104v-2.105h2.104V15.685z"/>
</svg>
