<svg version="1.1" id="master" xmlns="http://www.w3.org/2000/svg" xmlns:xlink="http://www.w3.org/1999/xlink" x="0px" y="0px"
	 width="24px" height="24px" viewBox="0 0 24 24" enable-background="new 0 0 24 24" xml:space="preserve">
<rect fill="none" width="24" height="24"/>
<path d="M19.5,6.375v13.75C19.5,21.16,18.66,22,17.625,22H6.375C5.339,22,4.5,21.16,4.5,20.125V6.375C4.5,5.339,5.339,4.5,6.375,4.5
	H9.5C9.5,3.122,10.622,2,12,2c1.379,0,2.5,1.122,2.5,2.5h3.125C18.66,4.5,19.5,5.339,19.5,6.375z M12,3.563
	c-0.518,0-0.938,0.42-0.938,0.938S11.482,5.438,12,5.438s0.938-0.42,0.938-0.938S12.518,3.563,12,3.563 M15.75,8.016V7.234
	C15.75,7.105,15.645,7,15.516,7H8.484C8.355,7,8.25,7.105,8.25,7.234v0.781c0,0.129,0.105,0.234,0.234,0.234h7.031
	C15.645,8.25,15.75,8.145,15.75,8.016z"/>
</svg>
