<svg version="1.1" id="master" xmlns="http://www.w3.org/2000/svg" xmlns:xlink="http://www.w3.org/1999/xlink" x="0px" y="0px"
	 width="24px" height="24px" viewBox="0 0 24 24" enable-background="new 0 0 24 24" xml:space="preserve">
<rect fill="none" width="24" height="24"/>
<path d="M17.625,4.5H14.5C14.5,3.121,13.379,2,12,2S9.5,3.121,9.5,4.5H6.375C5.34,4.5,4.5,5.34,4.5,6.375v13.75
	C4.5,21.16,5.34,22,6.375,22h11.25c1.035,0,1.875-0.84,1.875-1.875V6.375C19.5,5.34,18.66,4.5,17.625,4.5z M8.25,18.563
	c-0.52,0-0.938-0.418-0.938-0.938s0.418-0.938,0.938-0.938s0.938,0.418,0.938,0.938S8.77,18.563,8.25,18.563z M8.25,14.813
	c-0.52,0-0.938-0.418-0.938-0.938s0.418-0.938,0.938-0.938s0.938,0.418,0.938,0.938S8.77,14.813,8.25,14.813z M8.25,11.063
	c-0.52,0-0.938-0.418-0.938-0.938S7.73,9.188,8.25,9.188s0.938,0.418,0.938,0.938S8.77,11.063,8.25,11.063z M12,3.563
	c0.52,0,0.938,0.418,0.938,0.938S12.52,5.438,12,5.438S11.063,5.02,11.063,4.5S11.48,3.563,12,3.563z M17,17.938
	c0,0.172-0.141,0.313-0.313,0.313h-5.625c-0.172,0-0.313-0.141-0.313-0.313v-0.625c0-0.172,0.141-0.313,0.313-0.313h5.625
	C16.859,17,17,17.141,17,17.313V17.938z M17,14.188c0,0.172-0.141,0.313-0.313,0.313h-5.625c-0.172,0-0.313-0.141-0.313-0.313
	v-0.625c0-0.172,0.141-0.313,0.313-0.313h5.625c0.172,0,0.313,0.141,0.313,0.313V14.188z M17,10.438
	c0,0.172-0.141,0.313-0.313,0.313h-5.625c-0.172,0-0.313-0.141-0.313-0.313V9.813c0-0.172,0.141-0.313,0.313-0.313h5.625
	C16.859,9.5,17,9.641,17,9.813V10.438z"/>
</svg>
