<svg version="1.1" id="master" xmlns="http://www.w3.org/2000/svg" xmlns:xlink="http://www.w3.org/1999/xlink"
	 x="0px" y="0px" width="24px" height="24px" viewBox="0 0 24 24" enable-background="new 0 0 24 24" xml:space="preserve">
<path d="M17.625,4.5H14.5C14.5,3.121,13.379,2,12,2S9.5,3.121,9.5,4.5H6.375C5.34,4.5,4.5,5.34,4.5,6.375v13.75
	C4.5,21.16,5.34,22,6.375,22h11.25c1.035,0,1.875-0.84,1.875-1.875V6.375C19.5,5.34,18.66,4.5,17.625,4.5z M12,3.563
	c0.52,0,0.938,0.418,0.938,0.938S12.52,5.438,12,5.438S11.063,5.02,11.063,4.5S11.48,3.563,12,3.563z M17.625,19.891
	c0,0.129-0.105,0.234-0.234,0.234H6.609c-0.129,0-0.234-0.105-0.234-0.234V6.609c0-0.129,0.105-0.234,0.234-0.234H8.25v1.406
	c0,0.258,0.211,0.469,0.469,0.469h6.563c0.258,0,0.469-0.211,0.469-0.469V6.375h1.641c0.129,0,0.234,0.105,0.234,0.234V19.891z"/>
</svg>
