<svg version="1.1" id="master" xmlns="http://www.w3.org/2000/svg" xmlns:xlink="http://www.w3.org/1999/xlink" x="0px" y="0px"
	 width="24px" height="24px" viewBox="0 0 24 24" enable-background="new 0 0 24 24" xml:space="preserve">
<path d="M12,2C6.476,2,2,6.476,2,12c0,5.523,4.476,10,10,10c5.523,0,10-4.477,10-10C22,6.476,17.523,2,12,2z M12,20.064
	c-4.456,0-8.064-3.608-8.064-8.064S7.545,3.936,12,3.936c4.456,0,8.064,3.609,8.064,8.064C20.064,16.456,16.456,20.064,12,20.064z
	 M14.491,15.855l-3.423-2.488c-0.125-0.094-0.197-0.238-0.197-0.391V6.355c0-0.267,0.217-0.484,0.484-0.484h1.292
	c0.266,0,0.482,0.217,0.482,0.484v5.713l2.693,1.959c0.219,0.158,0.262,0.461,0.104,0.679L15.17,15.75
	C15.014,15.963,14.71,16.012,14.491,15.855z"/>
</svg>
