<svg version="1.1" id="icon_clock" xmlns="http://www.w3.org/2000/svg" xmlns:xlink="http://www.w3.org/1999/xlink" x="0px" y="0px"
	 width="24px" height="24px" viewBox="0 0 24 24" enable-background="new 0 0 24 24" xml:space="preserve">
<path d="M12,2C6.476,2,2,6.476,2,12s4.476,10,10,10s10-4.476,10-10S17.524,2,12,2z M12,20.064c-4.456,0-8.064-3.608-8.064-8.064
	c0-4.456,3.609-8.064,8.064-8.064c4.456,0,8.064,3.609,8.064,8.064C20.064,16.456,16.456,20.064,12,20.064z M14.491,15.855
	l-3.423-2.488c-0.125-0.093-0.197-0.238-0.197-0.391V6.355c0-0.267,0.217-0.484,0.484-0.484h1.291c0.266,0,0.483,0.217,0.483,0.484
	v5.713l2.693,1.96c0.219,0.157,0.262,0.46,0.105,0.678L15.17,15.75C15.013,15.963,14.71,16.012,14.491,15.855z"/>
</svg>
