<svg version="1.1" id="master" xmlns="http://www.w3.org/2000/svg" xmlns:xlink="http://www.w3.org/1999/xlink" x="0px" y="0px"
	 width="24px" height="24px" viewBox="0 0 24 24" enable-background="new 0 0 24 24" xml:space="preserve">
<path d="M15.758,16.037c0.122-0.422,0.075-0.809-0.13-1.096c-0.188-0.264-0.504-0.416-0.885-0.434l-7.216-0.094
	c-0.045,0-0.087-0.022-0.111-0.06c-0.023-0.035-0.029-0.082-0.017-0.13c0.023-0.069,0.093-0.123,0.169-0.13l7.28-0.094
	c0.862-0.04,1.8-0.739,2.128-1.595l0.416-1.084c0.018-0.047,0.024-0.094,0.012-0.14c-0.469-2.122-2.362-3.705-4.625-3.705
	c-2.086,0-3.856,1.348-4.489,3.218c-0.411-0.305-0.933-0.469-1.495-0.416c-1.002,0.099-1.806,0.902-1.905,1.905
	c-0.023,0.258-0.005,0.511,0.053,0.745C3.307,12.976,2,14.313,2,15.96c0,0.146,0.012,0.293,0.029,0.439
	c0.012,0.069,0.07,0.123,0.141,0.123h13.318c0.075,0,0.146-0.054,0.169-0.13L15.758,16.037L15.758,16.037z M18.055,11.401
	c-0.064,0-0.135,0-0.198,0.009c-0.048,0-0.088,0.035-0.106,0.082l-0.281,0.979c-0.123,0.422-0.076,0.809,0.129,1.097
	c0.188,0.264,0.504,0.415,0.885,0.433l1.537,0.095c0.046,0,0.088,0.022,0.11,0.059c0.023,0.036,0.029,0.09,0.018,0.13
	c-0.023,0.07-0.094,0.124-0.17,0.13l-1.601,0.094c-0.867,0.04-1.799,0.738-2.127,1.595L16.133,16.4
	c-0.023,0.06,0.018,0.118,0.082,0.118h5.498c0.064,0,0.123-0.041,0.141-0.105C21.947,16.073,22,15.716,22,15.347
	c0-2.169-1.771-3.939-3.945-3.939"/>
</svg>
