<svg version="1.1" id="master" xmlns="http://www.w3.org/2000/svg" xmlns:xlink="http://www.w3.org/1999/xlink" x="0px" y="0px"
	 width="24px" height="24px" viewBox="0 0 24 24" enable-background="new 0 0 24 24" xml:space="preserve">
<path d="M18.125,10.367C17.559,7.492,15.034,5.333,12,5.333C9.592,5.333,7.5,6.7,6.458,8.7C3.95,8.967,2,11.092,2,13.667
	c0,2.759,2.242,4.999,5,4.999h10.833c2.3,0,4.167-1.865,4.167-4.166C22,12.3,20.292,10.517,18.125,10.367z M17.833,17H7
	c-1.842,0-3.333-1.492-3.333-3.333c0-1.842,1.492-3.333,3.333-3.333h0.592C8.142,8.409,9.9,7,12,7c2.533,0,4.583,2.05,4.583,4.583
	V12h1.25c1.384,0,2.5,1.117,2.5,2.5S19.217,17,17.833,17z"/>
</svg>
