<svg version="1.1" id="master" xmlns="http://www.w3.org/2000/svg" xmlns:xlink="http://www.w3.org/1999/xlink" x="0px" y="0px"
	 width="24px" height="24px" viewBox="0 0 24 24" enable-background="new 0 0 24 24" xml:space="preserve">
<rect fill="none" width="24" height="24"/>
<path d="M18.125,9.533C17.559,6.658,15.034,4.5,12,4.5c-1.233,0-2.375,0.358-3.341,0.975l1.216,1.216
	C10.508,6.358,11.233,6.167,12,6.167c2.533,0,4.583,2.05,4.583,4.583v0.417h1.25c1.384,0,2.5,1.117,2.5,2.5
	c0,0.941-0.533,1.758-1.3,2.183l1.209,1.209C21.3,16.3,22,15.066,22,13.667C22,11.467,20.292,9.684,18.125,9.533z M4.5,5.559
	l2.292,2.283C4.133,7.958,2,10.142,2,12.834c0,2.758,2.242,4.999,5,4.999h9.775l1.667,1.667l1.058-1.058L5.559,4.5L4.5,5.559z
	 M8.441,9.5l6.667,6.667H7c-1.842,0-3.333-1.492-3.333-3.333C3.667,10.992,5.158,9.5,7,9.5H8.441z"/>
</svg>
