<svg version="1.1" id="master" xmlns="http://www.w3.org/2000/svg" xmlns:xlink="http://www.w3.org/1999/xlink" x="0px" y="0px"
	 width="24px" height="24px" viewBox="0 0 24 24" enable-background="new 0 0 24 24" xml:space="preserve">
<rect fill="none" width="24" height="24"/>
<path d="M22,8.825l-0.015-0.072l-0.015-0.042c-0.008-0.02-0.015-0.042-0.024-0.062c-0.003-0.015-0.013-0.029-0.017-0.042L21.9,8.551
	L21.875,8.51l-0.036-0.05L21.8,8.422l-0.05-0.038l-0.038-0.025l-0.051-0.037L21.625,8.29l-0.013-0.017l-9.129-6.108
	c-0.289-0.193-0.663-0.193-0.952,0L2.377,8.259L2.365,8.271L2.328,8.3l-0.05,0.042L2.247,8.375L2.205,8.422L2.174,8.459L2.133,8.51
	C2.116,8.523,2.107,8.535,2.107,8.548l-0.042,0.05L2.049,8.647C2.033,8.656,2.033,8.681,2.024,8.706L2.016,8.748
	C2,8.774,2,8.798,2,8.824v6.247c0,0.037,0.002,0.076,0.008,0.113l0.008,0.037c0.004,0.026,0.008,0.051,0.017,0.072l0.013,0.042
	c0.008,0.022,0.013,0.044,0.022,0.062l0.019,0.043c0,0.008,0.012,0.033,0.024,0.05l0.025,0.033c0.013,0.008,0.025,0.033,0.038,0.05
	l0.025,0.033l0.033,0.034c0.008,0.01,0.008,0.024,0.025,0.024l0.05,0.035l0.033,0.024l0.008,0.012l9.142,6.108
	c0.137,0.1,0.313,0.136,0.475,0.136s0.325-0.05,0.475-0.149l9.159-6.067l0.012-0.008l0.038-0.031l0.05-0.035l0.04-0.03l0.043-0.048
	l0.027-0.038l0.034-0.05l0.024-0.042l0.025-0.058l0.014-0.044l0.024-0.063l0.013-0.038l0.024-0.066v-6.25
	c0-0.042,0-0.08-0.013-0.117l-0.012-0.038L21.98,8.81L22,8.825z M12.008,14.058l-3.042-2.032l3.042-2.035l3.042,2.033L12.008,14.058
	L12.008,14.058z M11.146,8.497l-3.728,2.491L4.408,8.975l6.738-4.491v4.015V8.497z M5.872,12.024L3.72,13.466V10.59l2.152,1.438
	V12.024z M7.419,13.066l3.728,2.49v4.018l-6.738-4.493l3.015-2.014v-0.003L7.419,13.066z M12.867,15.557l3.728-2.482l3.011,2.017
	l-6.738,4.491v-4.016V15.557z M18.142,12.033l2.152-1.434v2.88l-2.152-1.441V12.033z M16.597,11l-3.729-2.493V4.482l6.737,4.492
	l-3.009,2.012v0.002V11z"/>
</svg>
