<svg version="1.1" id="master" xmlns="http://www.w3.org/2000/svg" xmlns:xlink="http://www.w3.org/1999/xlink" x="0px" y="0px"
	 width="24px" height="24px" viewBox="0 0 24 24" enable-background="new 0 0 24 24" xml:space="preserve">
<rect fill="none" width="24" height="24"/>
<path d="M5.871,8.226c1.75,0.441,3.982,0.667,6.673,0.667c2.749,0,4.933-0.225,6.674-0.667c1.858-0.433,2.749-1.017,2.749-1.566
	c0-0.392-0.399-0.775-1.125-1.066c0.167,0.108,0.292,0.292,0.292,0.491c0,0.559-0.842,1.017-2.533,1.4
	c-1.566,0.342-3.565,0.583-5.998,0.583c-2.35,0-4.441-0.241-5.949-0.566c-1.625-0.4-2.475-0.833-2.475-1.399
	c0-0.233,0.109-0.434,0.433-0.667C3.596,5.826,3.046,6.16,3.046,6.66C3.104,7.226,4.013,7.793,5.871,8.226z M9.778,6.426
	c1.892-0.167,2.441-1.383,4.658-1.583c1.092-0.083,1.783,0.133,1.857,0.516c0.067,0.358-0.475,0.6-1.133,0.65
	c-0.908,0.092-1.283-0.233-1.358-0.542c-0.675,0.075-0.782,0.358-0.75,0.558c0.075,0.383,0.892,0.767,2.291,0.633
	c1.584-0.125,2.116-0.75,1.983-1.375c-0.167-0.817-1.383-1.5-3.566-1.292c-2.799,0.25-2.782,1.55-4.69,1.708
	C8.287,5.776,7.854,5.593,7.779,5.285c-0.05-0.309,0.333-0.458,0.783-0.492C8.979,4.751,9.486,4.827,9.728,4.96
	c0.175-0.092,0.233-0.183,0.216-0.292C9.861,4.377,9.287,4.252,8.562,4.302C7.145,4.427,7.145,5.06,7.195,5.343
	C7.337,6.068,8.428,6.551,9.778,6.426z M19.292,9.625c-1.749,0.408-3.981,0.675-6.673,0.675c-2.75,0-4.991-0.283-6.732-0.667
	C4.321,9.234,3.488,8.792,3.196,8.334c0.15,1.024,0.408,2.016,0.741,2.957c-0.4,0.25-0.758,0.559-1.083,0.975
	c-0.595,0.726-0.898,1.646-0.85,2.583c0.061,0.863,0.492,1.659,1.183,2.183C3.913,17.6,4.696,17.766,5.587,17.6
	c0.341-0.059,0.725-0.234,1.075-0.352c-0.733,0-1.35-0.233-1.966-0.725c-0.676-0.47-1.126-1.201-1.241-2.016
	c-0.167-0.783,0-1.508,0.441-2.149c0.1-0.125,0.208-0.233,0.325-0.333c0.25,0.608,0.516,1.208,0.816,1.767
	c0.675,1.023,1.35,1.916,2.024,2.881c0.292,0.567,0.483,1.126,0.617,1.684c0.451,0.624,1.11,1.066,1.858,1.25
	c0.958,0.333,1.958,0.483,2.983,0.426h0.107c1.043,0.045,2.085-0.103,3.074-0.434c0.718-0.21,1.349-0.646,1.8-1.242h0.059
	c0.108-0.558,0.291-1.116,0.558-1.684c0.667-0.975,1.35-1.857,2.017-2.881c0.919-1.701,1.549-3.542,1.866-5.45
	C21.642,8.842,20.801,9.284,19.292,9.625z"/>
</svg>
