<svg version="1.1" id="master" xmlns="http://www.w3.org/2000/svg" xmlns:xlink="http://www.w3.org/1999/xlink" x="0px" y="0px"
	 width="24px" height="24px" viewBox="0 0 24 24" enable-background="new 0 0 24 24" xml:space="preserve">
<rect fill="none" width="24" height="24"/>
<path d="M21.374,4.504H22v11.244h-0.626V22h-5v-6.252H7.626V22h-5v-6.252H2V4.504h0.626c0-0.348,0.065-0.674,0.195-0.979
	C2.952,3.222,3.129,2.957,3.353,2.73c0.223-0.226,0.486-0.404,0.791-0.535S4.773,2,5.122,2C5.47,2,5.796,2.065,6.1,2.196
	c0.305,0.13,0.57,0.309,0.796,0.535C7.122,2.957,7.3,3.222,7.431,3.526c0.13,0.305,0.195,0.631,0.195,0.979h8.748
	c0-0.348,0.065-0.674,0.195-0.979c0.131-0.304,0.309-0.569,0.535-0.795c0.226-0.226,0.491-0.404,0.796-0.535
	C18.204,2.065,18.53,2,18.878,2c0.343,0,0.666,0.067,0.97,0.2c0.305,0.133,0.569,0.313,0.796,0.539
	c0.226,0.226,0.404,0.491,0.535,0.795C21.309,3.839,21.374,4.162,21.374,4.504z M3.252,10.122v2.504l6.87-6.878H7.626L3.252,10.122z
	 M3.252,5.748v1.878l1.87-1.878H3.252z M15.122,5.748h-2.496C11.159,7.22,9.703,8.681,8.257,10.13s-2.906,2.907-4.379,4.374h2.505
	L15.122,5.748z M5.122,3.878c-0.168,0-0.314,0.062-0.439,0.187C4.558,4.19,4.496,4.336,4.496,4.504s0.062,0.313,0.187,0.435
	c0.125,0.122,0.271,0.183,0.439,0.183s0.314-0.061,0.438-0.183c0.125-0.122,0.188-0.267,0.188-0.435
	c0-0.174-0.062-0.322-0.183-0.443C5.443,3.939,5.296,3.878,5.122,3.878z M17.626,5.748l-8.748,8.756h2.505l8.739-8.756H17.626z
	 M16.383,14.504l4.365-4.382V7.626l-6.87,6.878H16.383z M18.878,3.878c-0.174,0-0.321,0.061-0.443,0.183
	c-0.121,0.122-0.183,0.27-0.183,0.443c0,0.168,0.063,0.313,0.188,0.435c0.124,0.122,0.271,0.183,0.438,0.183
	s0.313-0.061,0.436-0.183c0.121-0.122,0.183-0.267,0.183-0.435s-0.062-0.314-0.183-0.439C19.191,3.94,19.046,3.878,18.878,3.878z
	 M18.878,14.504h1.87v-1.878L18.878,14.504z"/>
</svg>
