<svg version="1.1" id="master" xmlns="http://www.w3.org/2000/svg" xmlns:xlink="http://www.w3.org/1999/xlink" x="0px" y="0px"
	 width="24px" height="24px" viewBox="0 0 24 24" enable-background="new 0 0 24 24" xml:space="preserve">
<rect fill="none" width="24" height="24"/>
<path d="M18.667,2H5.334v1.667h13.333V2z M5.334,22h13.333v-1.667H5.334V22z M18.667,5.333H5.334c-0.917,0-1.667,0.75-1.667,1.667
	v10c0,0.916,0.75,1.667,1.667,1.667h13.333c0.916,0,1.666-0.751,1.666-1.667V7C20.333,6.083,19.583,5.333,18.667,5.333z M12,7.625
	c1.033,0,1.875,0.841,1.875,1.875S13.033,11.375,12,11.375s-1.875-0.841-1.875-1.875S10.967,7.625,12,7.625z M16.167,16.167H7.834
	v-1.25c0-1.392,2.774-2.084,4.166-2.084s4.167,0.692,4.167,2.084V16.167z"/>
</svg>
