<svg version="1.1" id="master" xmlns="http://www.w3.org/2000/svg" xmlns:xlink="http://www.w3.org/1999/xlink" x="0px" y="0px"
	 width="24px" height="24px" viewBox="0 0 24 24" enable-background="new 0 0 24 24" xml:space="preserve">
<rect fill="none" width="24" height="24"/>
<path d="M21.643,9.342c-0.238-0.85-0.575-1.645-1.011-2.384c-0.437-0.739-0.959-1.413-1.567-2.022
	c-0.609-0.609-1.283-1.132-2.022-1.568s-1.535-0.773-2.389-1.011C13.8,2.119,12.915,2,12,2s-1.8,0.119-2.653,0.357
	C8.493,2.595,7.697,2.932,6.958,3.368S5.545,4.327,4.936,4.936C4.327,5.545,3.805,6.219,3.368,6.958
	C2.933,7.697,2.596,8.494,2.357,9.347C2.119,10.2,2,11.085,2,12s0.119,1.8,0.357,2.652c0.238,0.854,0.575,1.65,1.011,2.389
	c0.437,0.74,0.959,1.414,1.567,2.023c0.609,0.609,1.283,1.131,2.022,1.567s1.534,0.772,2.385,1.011C10.192,21.881,11.078,22,12,22
	s1.808-0.119,2.657-0.357c0.851-0.238,1.647-0.573,2.39-1.006c0.741-0.434,1.417-0.954,2.026-1.563
	c0.609-0.608,1.13-1.284,1.563-2.026c0.433-0.742,0.768-1.539,1.006-2.389C21.881,13.808,22,12.922,22,12
	C22,11.079,21.881,10.193,21.643,9.342z M7.334,14.004c0,0.18-0.066,0.336-0.199,0.469s-0.289,0.199-0.469,0.199H5.664
	c-0.136,0-0.265-0.026-0.385-0.079c-0.121-0.052-0.228-0.125-0.32-0.218s-0.165-0.199-0.218-0.32s-0.079-0.249-0.079-0.385v-0.334
	c0-0.186,0.036-0.359,0.106-0.52c0.071-0.16,0.167-0.302,0.288-0.422c0.12-0.121,0.262-0.216,0.422-0.288
	C5.64,12.036,5.813,12,5.998,12s0.358,0.036,0.52,0.106c0.161,0.071,0.302,0.167,0.422,0.288c0.121,0.121,0.217,0.262,0.288,0.422
	s0.106,0.334,0.106,0.52V14.004z M8.002,7.334c0,0.186-0.065,0.343-0.195,0.473S7.52,8.002,7.334,8.002H7
	c-0.093,0-0.172-0.033-0.236-0.098C6.698,7.839,6.666,7.761,6.666,7.668V7.334c0-0.186,0.065-0.343,0.195-0.473
	c0.129-0.13,0.287-0.195,0.473-0.195h0.501c0.111,0,0.167,0.056,0.167,0.167V7.334z M12,17.334c0,0.186-0.035,0.359-0.106,0.52
	s-0.167,0.301-0.288,0.422c-0.12,0.121-0.261,0.217-0.422,0.287c-0.161,0.072-0.334,0.107-0.52,0.107
	c-0.18,0-0.335-0.066-0.469-0.199c-0.133-0.133-0.199-0.289-0.199-0.469c0-0.186,0.036-0.359,0.106-0.52
	c0.071-0.16,0.167-0.302,0.288-0.422c0.12-0.121,0.261-0.217,0.422-0.287c0.161-0.072,0.334-0.107,0.52-0.107h0.334
	c0.093,0,0.172,0.033,0.236,0.098C11.968,16.828,12,16.907,12,17V17.334z M12,10.33c0,0.143-0.026,0.274-0.079,0.395
	s-0.123,0.226-0.213,0.315c-0.09,0.089-0.196,0.161-0.32,0.213c-0.124,0.052-0.254,0.079-0.39,0.079h-0.334
	c-0.186,0-0.358-0.036-0.52-0.106c-0.16-0.071-0.302-0.167-0.422-0.288c-0.121-0.121-0.215-0.261-0.283-0.422
	c-0.067-0.161-0.102-0.334-0.102-0.52s0.034-0.358,0.102-0.52c0.068-0.161,0.162-0.301,0.283-0.422
	c0.12-0.121,0.262-0.215,0.422-0.283c0.161-0.068,0.334-0.102,0.52-0.102h0.668c0.186,0,0.344,0.065,0.474,0.195S12,9.152,12,9.338
	V10.33z M13.336,5.831c0-0.142,0.048-0.261,0.144-0.357c0.096-0.096,0.215-0.144,0.357-0.144h0.501c0.136,0,0.264,0.026,0.385,0.079
	c0.12,0.052,0.226,0.125,0.315,0.218s0.161,0.2,0.213,0.32c0.053,0.121,0.079,0.249,0.079,0.385v0.334
	c0,0.18-0.064,0.335-0.194,0.468c-0.13,0.133-0.285,0.2-0.464,0.2h-0.668c-0.186,0-0.344-0.065-0.474-0.195
	s-0.194-0.288-0.194-0.473V5.831z M14.152,14.564c-0.161-0.07-0.302-0.166-0.422-0.287c-0.121-0.121-0.217-0.262-0.288-0.422
	c-0.071-0.161-0.106-0.334-0.106-0.52v-0.668c0-0.186,0.064-0.343,0.194-0.473S13.818,12,14.004,12h0.668
	c0.186,0,0.358,0.036,0.52,0.106c0.16,0.071,0.301,0.167,0.422,0.288c0.12,0.121,0.215,0.262,0.283,0.422
	c0.067,0.16,0.102,0.334,0.102,0.52v0.668c0,0.18-0.066,0.336-0.199,0.469s-0.289,0.199-0.469,0.199h-0.658
	C14.486,14.672,14.313,14.637,14.152,14.564z M17.228,17.189c-0.071,0.164-0.167,0.307-0.288,0.428
	c-0.12,0.12-0.261,0.215-0.422,0.283c-0.161,0.067-0.334,0.102-0.52,0.102c-0.18,0-0.335-0.066-0.469-0.199
	c-0.133-0.133-0.199-0.289-0.199-0.469v-1.002c0-0.086,0.034-0.164,0.103-0.232c0.067-0.067,0.145-0.102,0.231-0.102h1.002
	c0.186,0,0.344,0.064,0.473,0.195c0.13,0.129,0.195,0.287,0.195,0.473S17.299,17.026,17.228,17.189z M18.67,10.998
	c0,0.093-0.032,0.172-0.098,0.237c-0.064,0.065-0.144,0.097-0.236,0.097h-0.668c-0.093,0-0.172-0.032-0.236-0.097
	c-0.065-0.065-0.098-0.144-0.098-0.237v-0.334c0-0.179,0.066-0.335,0.199-0.468s0.289-0.2,0.469-0.2h0.501
	c0.111,0,0.167,0.056,0.167,0.167V10.998z"/>
</svg>
