<?xml version="1.0" encoding="utf-8"?>
<!-- Generator: Adobe Illustrator 16.0.0, SVG Export Plug-In . SVG Version: 6.00 Build 0)  -->
<!DOCTYPE svg PUBLIC "-//W3C//DTD SVG 1.1//EN" "http://www.w3.org/Graphics/SVG/1.1/DTD/svg11.dtd">
<svg version="1.1" id="master" xmlns="http://www.w3.org/2000/svg" xmlns:xlink="http://www.w3.org/1999/xlink" x="0px" y="0px"
	 width="24px" height="24px" viewBox="0 0 24 24" enable-background="new 0 0 24 24" xml:space="preserve">
<path d="M10.08,10.86c0.05-0.33,0.16-0.62,0.299-0.869c0.14-0.25,0.34-0.46,0.591-0.62c0.239-0.15,0.539-0.22,0.909-0.23
	c0.23,0.01,0.44,0.05,0.631,0.13c0.199,0.09,0.381,0.21,0.52,0.36c0.141,0.151,0.25,0.33,0.342,0.53
	c0.088,0.2,0.128,0.42,0.138,0.64h1.79c-0.02-0.469-0.11-0.9-0.28-1.29C14.85,9.12,14.62,8.78,14.32,8.5
	C14.02,8.22,13.66,8,13.24,7.84c-0.42-0.159-0.881-0.23-1.391-0.23c-0.649,0-1.22,0.11-1.701,0.34C9.67,8.18,9.27,8.48,8.95,8.87
	c-0.32,0.39-0.56,0.84-0.71,1.36C8.09,10.75,8,11.29,8,11.87v0.271c0,0.579,0.08,1.12,0.23,1.641C8.38,14.3,8.62,14.75,8.94,15.13
	s0.72,0.69,1.2,0.91c0.479,0.22,1.05,0.34,1.7,0.34c0.47,0,0.91-0.08,1.32-0.229c0.41-0.15,0.77-0.36,1.081-0.63
	c0.31-0.271,0.559-0.581,0.739-0.94s0.29-0.74,0.299-1.15H13.49c-0.01,0.211-0.06,0.4-0.15,0.58c-0.089,0.18-0.211,0.33-0.359,0.461
	C12.83,14.6,12.66,14.7,12.46,14.77c-0.19,0.07-0.39,0.09-0.6,0.1c-0.36-0.01-0.66-0.079-0.889-0.229
	c-0.25-0.16-0.451-0.37-0.591-0.621c-0.139-0.25-0.25-0.549-0.299-0.879c-0.05-0.33-0.081-0.67-0.081-1V11.87
	C10,11.52,10.03,11.19,10.08,10.86z M12,2C6.48,2,2,6.48,2,12c0,5.52,4.48,10,10,10c5.52,0,10-4.48,10-10C22,6.48,17.52,2,12,2z
	 M12,20c-4.41,0-8-3.59-8-8s3.59-8,8-8s8,3.59,8,8S16.41,20,12,20z"/>
</svg>
