<svg version="1.1" id="icon_copyright" xmlns="http://www.w3.org/2000/svg" xmlns:xlink="http://www.w3.org/1999/xlink" x="0px"
	 y="0px" width="24px" height="24px" viewBox="0 0 24 24" enable-background="new 0 0 24 24" xml:space="preserve">
<path d="M10.08,10.86c0.05-0.33,0.16-0.62,0.3-0.87c0.14-0.25,0.34-0.46,0.59-0.62c0.24-0.15,0.54-0.22,0.91-0.23
	c0.23,0.01,0.44,0.05,0.63,0.13c0.2,0.09,0.381,0.21,0.52,0.36c0.141,0.15,0.25,0.33,0.341,0.53c0.09,0.2,0.13,0.42,0.14,0.64h1.79
	c-0.021-0.47-0.11-0.9-0.28-1.29C14.85,9.12,14.62,8.78,14.32,8.5C14.02,8.22,13.66,8,13.24,7.84c-0.42-0.16-0.88-0.23-1.39-0.23
	c-0.65,0-1.22,0.11-1.7,0.34s-0.88,0.53-1.2,0.92c-0.32,0.39-0.56,0.84-0.71,1.36C8.09,10.75,8,11.29,8,11.87v0.27
	c0,0.581,0.08,1.12,0.23,1.639C8.38,14.3,8.62,14.75,8.94,15.13s0.72,0.69,1.2,0.91s1.05,0.34,1.7,0.34c0.47,0,0.91-0.08,1.32-0.229
	c0.41-0.15,0.77-0.36,1.08-0.631c0.31-0.27,0.56-0.58,0.74-0.939c0.18-0.359,0.289-0.74,0.299-1.15H13.49
	c-0.01,0.211-0.061,0.4-0.15,0.58s-0.21,0.33-0.359,0.461C12.83,14.6,12.66,14.7,12.46,14.77c-0.19,0.07-0.39,0.09-0.6,0.101
	c-0.36-0.011-0.66-0.08-0.89-0.229c-0.25-0.16-0.45-0.371-0.59-0.621c-0.14-0.25-0.25-0.549-0.3-0.879c-0.05-0.33-0.08-0.67-0.08-1
	v-0.27C10,11.52,10.03,11.19,10.08,10.86L10.08,10.86z M12,2C6.48,2,2,6.48,2,12c0,5.52,4.48,10,10,10c5.52,0,10-4.48,10-10
	C22,6.48,17.52,2,12,2z M12,20c-4.41,0-8-3.59-8-8s3.59-8,8-8s8,3.59,8,8S16.41,20,12,20z"/>
</svg>
