<svg version="1.1" id="master" xmlns="http://www.w3.org/2000/svg" xmlns:xlink="http://www.w3.org/1999/xlink" x="0px" y="0px"
	 width="24px" height="24px" viewBox="0 0 24 24" enable-background="new 0 0 24 24" xml:space="preserve">
<rect fill="none" width="24" height="24"/>
<path d="M6.634,16.482l-2.651,2.651l1.768,1.768c1.464,1.465,3.838,1.465,5.303,0l3.536-3.535l3.814-0.764
	c0.252-0.05,0.347-0.374,0.152-0.542C15.118,13.071,9.904,13.213,6.634,16.482z M9.853,13.127c0.603-2.647-0.031-5.518-1.914-7.684
	C7.771,5.25,7.447,5.345,7.396,5.596L6.634,9.411l-3.536,3.536c-1.464,1.464-1.464,3.839,0,5.303l2.652-2.651
	C6.937,14.412,8.351,13.592,9.853,13.127z M21.997,3.77V3.645c0.05-0.838-0.575-1.563-1.425-1.637
	c-0.649-0.063-1.236,0.274-1.524,0.825c-0.388-0.375-0.951-0.537-1.501-0.375c-0.524,0.15-0.925,0.55-1.074,1.05
	c-0.425-0.274-0.975-0.337-1.476-0.125c-0.5,0.225-0.824,0.675-0.912,1.163c-0.45-0.212-0.999-0.212-1.463,0.063
	c-0.462,0.262-0.737,0.738-0.775,1.225c-0.462-0.175-1.012-0.125-1.45,0.188c-0.127,0.09-0.232,0.201-0.325,0.319
	c1.107,2.001,1.475,4.299,1.106,6.502c2.203-0.366,4.502-0.015,6.503,1.099c0.067-0.064,0.134-0.128,0.19-0.208
	c0.313-0.438,0.363-0.975,0.188-1.437c0.5-0.038,0.975-0.313,1.238-0.775c0.273-0.462,0.287-1.012,0.062-1.462
	c0.5-0.088,0.949-0.4,1.175-0.9s0.162-1.049-0.112-1.476c0.487-0.149,0.899-0.537,1.063-1.062c0.162-0.55,0-1.112-0.351-1.5
	C21.622,4.869,21.973,4.369,21.997,3.77z"/>
</svg>
