<svg version="1.1" id="master" xmlns="http://www.w3.org/2000/svg" xmlns:xlink="http://www.w3.org/1999/xlink" x="0px" y="0px"
	 width="24px" height="24px" viewBox="0 0 24 24" enable-background="new 0 0 24 24" xml:space="preserve">
<rect fill="none" width="24" height="24"/>
<path d="M7,11v2h10v-2c0-1.104,0.896-2,2-2h1c0-1.656-1.344-3-3-3H7C5.344,6,4,7.344,4,9h1C6.103,9,7,9.896,7,11z M20,10h-1
	c-0.553,0-1,0.447-1,1v3H6v-3c0-0.553-0.447-1-1-1H4c-1.103,0-2,0.897-2,2c0,0.737,0.406,1.375,1,1.722V17.5
	C3,17.774,3.225,18,3.5,18h2C5.775,18,6,17.774,6,17.5V17h12v0.5c0,0.274,0.226,0.5,0.5,0.5h2c0.274,0,0.5-0.226,0.5-0.5v-3.778
	c0.594-0.347,1-0.984,1-1.722C22,10.897,21.104,10,20,10z"/>
</svg>
