<svg version="1.1" id="master" xmlns="http://www.w3.org/2000/svg" xmlns:xlink="http://www.w3.org/1999/xlink" x="0px" y="0px"
	 width="24px" height="24px" viewBox="0 0 24 24" enable-background="new 0 0 24 24" xml:space="preserve">
<rect fill="none" width="24" height="24"/>
<path d="M21.813,12.647L21.5,12.217V9.81c0-0.372-0.391-0.613-0.724-0.447c-0.338,0.169-0.608,0.425-0.822,0.719L17.897,7.24
	C17.334,6.461,16.43,6,15.468,6H5.5C3.981,6,2.75,7.231,2.75,8.75v2.7C2.296,11.817,2,12.371,2,13v1h0.25c1.105,0,2-0.895,2-2V8.75
	c0-0.527,0.33-0.974,0.792-1.157C5.015,7.725,5,7.86,5,8v9.5C5,17.776,5.224,18,5.5,18h2C7.777,18,8,17.776,8,17.5V14
	c0.291,0.292,0.634,0.516,1.001,0.684V15.5c0,0.276,0.224,0.5,0.5,0.5s0.5-0.224,0.5-0.5v-0.541c0.284,0.035,0.4,0.073,1,0V15.5
	c0,0.276,0.223,0.5,0.5,0.5s0.5-0.224,0.5-0.5v-0.817c0.366-0.168,0.708-0.392,0.997-0.682V17.5c0,0.276,0.225,0.5,0.501,0.5h2
	c0.275,0,0.5-0.224,0.5-0.5V12l0.999,1v1.297c0,0.395,0.117,0.78,0.337,1.109l1.291,1.937C18.9,17.754,19.361,18,19.854,18
	c0.703,0,1.309-0.497,1.447-1.187l0.679-3.395C22.034,13.149,21.974,12.869,21.813,12.647z M13.789,9.23l-0.716,0.711
	C12.392,10.619,11.467,11,10.503,11h-0.005c-0.964,0-1.889-0.381-2.57-1.059L7.212,9.23C6.721,8.742,7.14,8,7.907,8h5.186
	C13.86,8,14.28,8.742,13.789,9.23L13.789,9.23z M20.001,15c-0.276,0-0.501-0.224-0.501-0.5s0.225-0.5,0.501-0.5
	c0.275,0,0.499,0.224,0.499,0.5S20.276,15,20.001,15z"/>
</svg>
