<svg version="1.1" id="master" xmlns="http://www.w3.org/2000/svg" xmlns:xlink="http://www.w3.org/1999/xlink" x="0px" y="0px"
	 width="24px" height="24px" viewBox="0 0 24 24" enable-background="new 0 0 24 24" xml:space="preserve">
<rect fill="none" width="24" height="24"/>
<path d="M11.986,2C9.242,2,6.828,3.014,4.963,4.904C3.042,6.849,2,9.37,2,12c0,2.658,1.014,5.124,2.935,7.042
	C6.856,20.958,9.352,22,11.986,22c2.633,0,5.185-1.042,7.161-2.986C21.012,17.178,22,14.739,22,12c0-2.712-0.988-5.178-2.882-7.069
	C17.198,3.014,14.729,2,11.986,2z M12.014,3.808c2.25,0,4.252,0.85,5.816,2.411c1.535,1.534,2.358,3.562,2.358,5.781
	c0,2.246-0.795,4.219-2.332,5.727c-1.619,1.588-3.703,2.438-5.843,2.438c-2.168,0-4.199-0.849-5.762-2.411
	C4.688,16.191,3.81,14.137,3.81,12c0-2.164,0.877-4.219,2.442-5.809C7.788,4.63,9.763,3.808,12.014,3.808z M9.233,8.898
	c-1.631,0-2.929,1.152-2.929,3.102c0,1.983,1.221,3.103,2.984,3.103c1.131,0,2.097-0.62,2.629-1.563l-1.242-0.632
	c-0.278,0.666-0.7,0.864-1.232,0.864c-0.921,0-1.342-0.765-1.342-1.771c0-1.008,0.355-1.772,1.342-1.772
	c0.267,0,0.8,0.144,1.11,0.808l1.33-0.698C11.317,9.309,10.354,8.898,9.233,8.898z M15.01,8.898c-1.631,0-2.928,1.152-2.928,3.102
	c0,1.983,1.22,3.103,2.982,3.103c1.133,0,2.097-0.62,2.63-1.563l-1.242-0.632c-0.277,0.666-0.7,0.864-1.231,0.864
	c-0.921,0-1.343-0.765-1.343-1.771c0-1.008,0.355-1.772,1.342-1.772c0.267,0,0.801,0.144,1.109,0.808l1.332-0.698
	C17.095,9.309,16.13,8.898,15.01,8.898z"/>
</svg>
