<svg version="1.1" id="master" xmlns="http://www.w3.org/2000/svg" xmlns:xlink="http://www.w3.org/1999/xlink" x="0px" y="0px"
	 width="24px" height="24px" viewBox="0 0 24 24" enable-background="new 0 0 24 24" xml:space="preserve">
<path d="M15.037,12.811L6.546,4.32c-0.39-0.39-1.02-0.39-1.41,0l-2.83,2.83c-0.39,0.39-0.39,1.02,0,1.41l8.491,8.488
	c0.39,0.391,1.02,0.391,1.41,0l2.83-2.828C15.426,13.83,15.426,13.199,15.037,12.811z M14.328,17.756l1.414-1.414l4.242,4.242
	L18.57,22L14.328,17.756z M18.486,2c1.934,0,3.5,1.567,3.5,3.5c0,1.934-1.566,3.5-3.5,3.5s-3.5-1.566-3.5-3.5
	C14.986,3.567,16.553,2,18.486,2z"/>
</svg>
