<svg version="1.1" id="master" xmlns="http://www.w3.org/2000/svg" xmlns:xlink="http://www.w3.org/1999/xlink"
	 x="0px" y="0px" width="24px" height="24px" viewBox="0 0 24 24" enable-background="new 0 0 24 24" xml:space="preserve">
<path d="M19,5h-0.511c-0.456-0.604-1.174-1-1.989-1C15.119,4,14,5.119,14,6.5v0.655L2.377,16.299C2.14,16.478,2,16.758,2,17.055
	c0,0.702,0.739,1.158,1.366,0.845L7.165,16h3.015l1.388,3.753c0.071,0.194,0.286,0.296,0.48,0.224l0.706-0.256
	c0.193-0.071,0.294-0.286,0.224-0.481L11.779,16H13c0.06,0,0.117-0.008,0.177-0.009l1.392,3.761c0.07,0.195,0.285,0.296,0.48,0.225
	l0.704-0.257c0.194-0.07,0.295-0.285,0.224-0.48l-1.288-3.484C17.179,15.024,19,12.727,19,10V7.5L22,7C22,5.895,20.657,5,19,5z
	 M16.5,7.25c-0.414,0-0.75-0.336-0.75-0.75c0-0.415,0.336-0.75,0.75-0.75s0.75,0.335,0.75,0.75C17.25,6.914,16.914,7.25,16.5,7.25z"
	/>
</svg>
