<svg version="1.1" id="master" xmlns="http://www.w3.org/2000/svg" xmlns:xlink="http://www.w3.org/1999/xlink"
	 x="0px" y="0px" width="24px" height="24px" viewBox="0 0 24 24" enable-background="new 0 0 24 24" xml:space="preserve">
<path d="M18.5,18h-13C5.225,18,5,18.226,5,18.5v1C5,19.775,5.225,20,5.5,20h13c0.275,0,0.5-0.225,0.5-0.5v-1
	C19,18.226,18.775,18,18.5,18z M20.5,8C19.672,8,19,8.672,19,9.5c0,0.222,0.05,0.428,0.137,0.619l-2.262,1.356
	c-0.481,0.287-1.104,0.125-1.381-0.363l-2.547-4.456C13.281,6.381,13.5,5.969,13.5,5.5C13.5,4.672,12.828,4,12,4s-1.5,0.672-1.5,1.5
	c0,0.469,0.219,0.881,0.553,1.156l-2.547,4.456c-0.278,0.488-0.903,0.65-1.381,0.363l-2.259-1.356C4.95,9.931,5.003,9.722,5.003,9.5
	c0-0.828-0.672-1.5-1.5-1.5S2,8.672,2,9.5S2.672,11,3.5,11c0.081,0,0.163-0.012,0.241-0.025L6,17h12l2.26-6.025
	C20.338,10.988,20.419,11,20.5,11c0.828,0,1.5-0.672,1.5-1.5S21.328,8,20.5,8z"/>
</svg>
