<svg version="1.1" id="master" xmlns="http://www.w3.org/2000/svg" xmlns:xlink="http://www.w3.org/1999/xlink" x="0px" y="0px"
	 width="24px" height="24px" viewBox="0 0 24 24" enable-background="new 0 0 24 24" xml:space="preserve">
<rect fill="none" width="24" height="24"/>
<path d="M6.965,7.723C7.016,8.023,7.277,8.25,7.59,8.25h0.645c0.383,0,0.688-0.332,0.637-0.703C8.723,6.445,8.23,5.43,7.441,4.629
	C6.879,4.055,6.52,3.328,6.41,2.539C6.367,2.23,6.102,2,5.781,2H5.141c-0.383,0-0.68,0.332-0.637,0.703
	C4.656,3.949,5.207,5.098,6.09,6C6.559,6.477,6.859,7.074,6.965,7.723z M11.34,7.723c0.051,0.301,0.313,0.527,0.625,0.527h0.645
	c0.383,0,0.688-0.332,0.637-0.703c-0.148-1.102-0.641-2.117-1.43-2.918c-0.563-0.574-0.922-1.301-1.031-2.09
	C10.742,2.23,10.477,2,10.156,2H9.516C9.133,2,8.832,2.332,8.879,2.703C9.031,3.949,9.582,5.098,10.465,6
	C10.934,6.477,11.234,7.074,11.34,7.723z M17.625,9.5H3.25C2.559,9.5,2,10.059,2,10.75v7.5C2,20.32,3.68,22,5.75,22h7.5
	c2.07,0,3.75-1.68,3.75-3.75h0.625c2.414,0,4.375-1.961,4.375-4.375S20.039,9.5,17.625,9.5z M17.625,15.75H17V12h0.625
	c1.035,0,1.875,0.84,1.875,1.875S18.66,15.75,17.625,15.75z"/>
</svg>
