<svg version="1.1" id="master" xmlns="http://www.w3.org/2000/svg" xmlns:xlink="http://www.w3.org/1999/xlink" x="0px" y="0px"
	 width="24px" height="24px" viewBox="0 0 24 24" enable-background="new 0 0 24 24" xml:space="preserve">
<path d="M6.307,5.581l0.391,1.675c-1.954,0-6.698,0-6.698,0s0.111,0.502,0.167,0.558c0.167,0.279,0.335,0.614,0.558,0.838
	c1.061,1.228,2.902,1.73,4.409,2.009c1.061,0.224,2.121,0.279,3.182,0.335l1.228,3.293h0.67l0.391,1.061h-0.558l-0.949,3.07h9.32
	l-0.947-3.07h-0.559l0.391-1.061h0.67c0,0,0.56-3.405,2.287-4.968C21.936,7.757,24,7.535,24,7.535V5.581H6.307z M15.684,14.008
	c-0.444,0.279-0.949,0.279-1.283,0.504c-0.224,0.111-0.336,0.445-0.336,0.445c-0.223-0.502-0.502-0.67-0.836-0.781
	c-0.336-0.109-0.949-0.055-1.787-0.779c-0.558-0.504-0.614-1.172-0.558-1.507v-0.056c0-0.057,0-0.057,0-0.112
	c0-0.055,0-0.111,0.056-0.167l0,0l0,0c0.111-0.335,0.391-0.67,0.949-0.894c0,0-0.391,0.559,0,1.116
	c0.223,0.335,0.669,0.503,1.061,0.279c0.167-0.111,0.278-0.335,0.334-0.502c0.112-0.391,0.112-0.781-0.224-1.061
	c-0.502-0.446-0.615-1.061-0.278-1.451c0,0,0.11,0.502,0.614,0.446c0.334,0,0.334-0.111,0.224-0.224
	c-0.058-0.167-0.782-1.228,0.278-2.009c0,0,0.67-0.446,1.451-0.391C14.902,6.92,14.4,7.2,14.232,7.646c0,0,0,0,0,0.056
	c-0.168,0.446-0.058,0.949,0.277,1.396c0.225,0.335,0.504,0.614,0.613,1.061c-0.167-0.056-0.277,0-0.393,0.111
	c-0.109,0.112-0.166,0.335-0.109,0.503c0.056,0.111,0.168,0.223,0.277,0.223c0.058,0,0.058,0,0.111,0h0.057
	c0.168-0.056,0.279-0.279,0.225-0.446c0.109,0.111,0.168,0.391,0.109,0.559c0,0.167-0.109,0.334-0.166,0.446
	c-0.057,0.111-0.168,0.223-0.225,0.335C14.956,12,14.9,12.112,14.9,12.225c0,0.111,0,0.277,0.057,0.391
	c0.225,0.336,0.67,0,0.781-0.279c0.166-0.335,0.111-0.726-0.111-1.061c0,0,0.391,0.224,0.669,1.005
	C16.521,12.949,16.131,13.73,15.684,14.008z"/>
</svg>
