<svg version="1.1" id="master" xmlns="http://www.w3.org/2000/svg" xmlns:xlink="http://www.w3.org/1999/xlink" x="0px" y="0px"
	 width="24px" height="24px" viewBox="0 0 24 24" enable-background="new 0 0 24 24" xml:space="preserve">
<path d="M14.596,4.295c0.823,0.278,1.573,0.672,2.252,1.183c0.678,0.51,1.261,1.104,1.748,1.783c0.486,0.678,0.863,1.42,1.13,2.226
	s0.4,1.644,0.4,2.513c0,0.922-0.119,1.807-0.356,2.657c-0.238,0.85-0.574,1.645-1.009,2.387s-0.957,1.418-1.565,2.026
	s-1.284,1.13-2.026,1.565c-0.741,0.435-1.539,0.771-2.391,1.008C11.926,21.881,11.042,22,10.126,22H7.108l2.296-2.296
	c-0.823-0.278-1.574-0.673-2.252-1.183c-0.679-0.51-1.261-1.104-1.748-1.783c-0.487-0.678-0.864-1.42-1.131-2.226
	S3.874,12.869,3.874,12c0-0.916,0.118-1.8,0.356-2.652c0.237-0.852,0.573-1.649,1.009-2.392C5.674,6.214,6.195,5.539,6.804,4.93
	C7.413,4.321,8.088,3.8,8.83,3.365c0.742-0.435,1.538-0.771,2.387-1.008C12.066,2.119,12.952,2,13.874,2h3.017L14.596,4.295z
	 M5.144,12.539c0.046,0.597,0.165,1.168,0.356,1.713s0.44,1.053,0.748,1.521c0.307,0.47,0.666,0.896,1.078,1.278
	c0.411,0.383,0.863,0.709,1.356,0.979c0.492,0.27,1.019,0.478,1.578,0.626s1.138,0.222,1.734,0.222l-1.869,1.87h0.078
	c0.075,0,0.194-0.021,0.356-0.062s0.335-0.087,0.518-0.14c0.183-0.051,0.356-0.105,0.521-0.16s0.289-0.1,0.37-0.135
	c0.857-0.33,1.636-0.773,2.334-1.33c0.699-0.557,1.295-1.193,1.787-1.909c0.493-0.716,0.873-1.499,1.14-2.348
	s0.399-1.735,0.399-2.657c0-0.58-0.091-1.136-0.273-1.669s-0.438-1.019-0.766-1.457c-0.327-0.438-0.722-0.819-1.183-1.144
	s-0.97-0.568-1.525-0.73c0.638,0,1.243,0.113,1.817,0.339c0.573,0.226,1.082,0.539,1.525,0.939s0.809,0.873,1.096,1.417
	s0.466,1.133,0.535,1.765c-0.047-0.597-0.165-1.168-0.356-1.713s-0.44-1.052-0.748-1.522c-0.308-0.469-0.668-0.897-1.083-1.283
	c-0.414-0.385-0.868-0.713-1.36-0.982C14.815,5.7,14.29,5.491,13.73,5.343s-1.138-0.222-1.735-0.222l1.879-1.87h-0.07
	c-0.075,0-0.193,0.021-0.356,0.061c-0.162,0.041-0.334,0.087-0.517,0.139c-0.183,0.052-0.357,0.105-0.522,0.161
	s-0.288,0.1-0.369,0.135c-0.864,0.331-1.646,0.772-2.344,1.326s-1.294,1.19-1.787,1.909C7.416,7.701,7.034,8.485,6.765,9.334
	S6.36,11.069,6.36,11.991c0,0.579,0.092,1.136,0.274,1.669s0.439,1.02,0.77,1.457s0.726,0.818,1.187,1.144s0.97,0.567,1.526,0.73
	c-0.638,0-1.242-0.113-1.813-0.339c-0.57-0.227-1.079-0.538-1.525-0.936c-0.446-0.396-0.813-0.866-1.101-1.408
	C5.391,13.766,5.213,13.177,5.144,12.539z M15.752,12c0,0.69-0.132,1.338-0.396,1.944s-0.622,1.135-1.074,1.587
	s-0.982,0.81-1.591,1.073C12.082,16.867,11.437,17,10.752,17l1.243-1.252c-0.516,0-1.001-0.1-1.456-0.296
	c-0.455-0.197-0.853-0.466-1.191-0.805s-0.607-0.735-0.805-1.191C8.347,13.001,8.248,12.516,8.248,12
	c0-0.689,0.13-1.339,0.391-1.948c0.261-0.608,0.618-1.139,1.07-1.591s0.982-0.809,1.591-1.069S12.558,7,13.248,7l-1.253,1.252
	c0.517,0,1.002,0.099,1.457,0.295c0.455,0.197,0.854,0.465,1.195,0.805c0.342,0.339,0.611,0.736,0.809,1.191
	C15.653,10.999,15.752,11.484,15.752,12z M11.369,13.878c0.261,0,0.505-0.05,0.73-0.147c0.227-0.1,0.425-0.234,0.596-0.404
	c0.171-0.172,0.306-0.37,0.404-0.596c0.099-0.227,0.148-0.47,0.148-0.731c0-0.174-0.034-0.336-0.101-0.487s-0.156-0.283-0.27-0.396
	c-0.113-0.113-0.245-0.203-0.396-0.27c-0.15-0.067-0.313-0.1-0.487-0.1l0.626-0.626c-0.261,0-0.504,0.049-0.729,0.147
	c-0.227,0.099-0.424,0.234-0.592,0.405s-0.302,0.369-0.4,0.595c-0.098,0.226-0.147,0.47-0.147,0.73c0,0.174,0.032,0.336,0.096,0.487
	S11,12.77,11.113,12.883c0.112,0.112,0.244,0.203,0.396,0.27c0.15,0.066,0.313,0.1,0.486,0.1L11.369,13.878z"/>
</svg>
