<svg version="1.1" id="master" xmlns="http://www.w3.org/2000/svg" xmlns:xlink="http://www.w3.org/1999/xlink" x="0px" y="0px"
	 width="24px" height="24px" viewBox="0 0 24 24" enable-background="new 0 0 24 24" xml:space="preserve">
<rect fill="none" width="24" height="24"/>
<path d="M19.654,8.688c0.887,0.16,1.609,0.284,1.775,0.659c0.187,0.423-0.779,0.45-1.267,0.459c-2.333,0.045-3.738,0.092-3.81,0.884
	c-0.092,1.021,0.996,2.047,2.071,3.488c0.982,1.314,2.099,2.612,1.777,3.822c-0.401,1.507-2.249,1.827-4.008,1.827
	c-1.685,0-3.282-0.271-3.953-0.402c-0.834-0.166-0.71-0.579-0.488-0.711c0.249-0.148,1.668-0.152,2.655-0.21
	c0.813-0.049,3.171-0.047,3.539-0.651c0.45-0.74-0.653-2.007-1.667-3.332c-1.266-1.654-2.655-3.363-1.919-4.611
	C15.313,8.296,18.099,8.408,19.654,8.688 M8.245,11.146c1.477-0.087,3.272,0.172,4.277,0.943c0.503,0.383,0.855,1.088,0.652,1.897
	c-0.584,2.293-2.754,5.069-7.578,7.202c-1.535,0.678-2.741,0.938-2.995,0.756c-0.272-0.195,0.52-1.71,0.757-2.213
	c0.771-1.626,1.732-3.211,2.671-4.662c0.345-0.533,0.879-1.46,1.362-1.385c0.432,0.066-0.074,1.051-0.407,1.677
	c-0.56,1.049-2.102,3.966-1.593,4.14c1.125,0.386,6.4-3.629,5.622-5.862c-0.36-1.037-2.651-1.137-4.094-1.137
	c-0.656,0-2.089,0.155-2.168-0.348C4.667,11.691,6.929,11.224,8.245,11.146 M11.889,2.011c1.723-0.082,3.761,0.285,4.141,1.501
	c0.622,1.992-2.533,4.898-5.281,6.323c-0.674,0.35-1.083,0.446-1.253,0.422c-0.163-0.022-0.188-0.184-0.135-0.296
	c0.099-0.209,0.542-0.636,1.135-1.101c3.094-2.417,4.101-4.19,3.516-4.909c-0.374-0.46-1.942-0.781-3.572-0.781
	c-0.441,0-1.604,0.103-1.724-0.306C8.619,2.529,10.178,2.091,11.889,2.011"/>
</svg>
