<svg version="1.1" id="master" xmlns="http://www.w3.org/2000/svg" xmlns:xlink="http://www.w3.org/1999/xlink" x="0px" y="0px"
	 width="24px" height="24px" viewBox="0 0 24 24" enable-background="new 0 0 24 24" xml:space="preserve">
<rect fill="none" width="24" height="24"/>
<path d="M20.75,4.857v1.785C20.75,8.217,16.831,9.5,12,9.5c-4.831,0-8.75-1.283-8.75-2.857V4.857C3.25,3.283,7.169,2,12,2
	C16.831,2,20.75,3.283,20.75,4.857z M20.75,8.875v4.018c0,1.574-3.919,2.857-8.75,2.857c-4.831,0-8.75-1.283-8.75-2.857V8.875
	c1.88,1.295,5.321,1.897,8.75,1.897C15.43,10.772,18.87,10.17,20.75,8.875z M20.75,15.125v4.018C20.75,20.717,16.831,22,12,22
	c-4.831,0-8.75-1.283-8.75-2.857v-4.018c1.88,1.295,5.321,1.897,8.75,1.897C15.43,17.022,18.87,16.42,20.75,15.125z"/>
</svg>
