<?xml version="1.0" encoding="utf-8"?>
<!-- Generator: Adobe Illustrator 16.0.0, SVG Export Plug-In . SVG Version: 6.00 Build 0)  -->
<!DOCTYPE svg PUBLIC "-//W3C//DTD SVG 1.1//EN" "http://www.w3.org/Graphics/SVG/1.1/DTD/svg11.dtd">
<svg version="1.1" id="master" xmlns="http://www.w3.org/2000/svg" xmlns:xlink="http://www.w3.org/1999/xlink" x="0px" y="0px"
	 width="24px" height="24px" viewBox="0 0 24 24" enable-background="new 0 0 24 24" xml:space="preserve">
<path d="M13,2.025v3.03c3.391,0.49,6,3.39,6,6.92c0,0.9-0.18,1.75-0.48,2.541l2.601,1.529c0.56-1.24,0.88-2.619,0.88-4.07
	C22,6.795,18.05,2.525,13,2.025z M12,18.975c-3.87,0-7-3.129-7-7c0-3.53,2.61-6.43,6-6.92v-3.03c-5.06,0.5-9,4.76-9,9.95
	c0,5.519,4.47,10,9.99,10c3.31,0,6.24-1.609,8.06-4.09l-2.6-1.529C16.17,17.955,14.21,18.975,12,18.975z"/>
</svg>
