<svg version="1.1" id="master" xmlns="http://www.w3.org/2000/svg" xmlns:xlink="http://www.w3.org/1999/xlink"
	 x="0px" y="0px" width="24px" height="24px" viewBox="0 0 24 24" enable-background="new 0 0 24 24" xml:space="preserve">
<path d="M10.438,12.156c0,0.604-0.489,1.094-1.094,1.094S8.25,12.76,8.25,12.156c0-1.723,1.402-3.125,3.125-3.125
	c1.724,0,3.125,1.402,3.125,3.125c0,0.604-0.49,1.094-1.094,1.094s-1.094-0.49-1.094-1.094c0-0.517-0.421-0.938-0.938-0.938
	S10.438,11.64,10.438,12.156z M11.375,5.281c-3.791,0-6.875,3.084-6.875,6.875c0,0.604,0.489,1.094,1.094,1.094
	c0.604,0,1.094-0.49,1.094-1.094c0-2.584,2.103-4.688,4.688-4.688c2.585,0,4.688,2.103,4.688,4.688c0,2.937-2.773,2.747-2.813,5.61
	v0.015c0,1.12-0.911,2.031-2.031,2.031c-0.604,0-1.094,0.49-1.094,1.094S10.615,22,11.219,22c2.323,0,4.214-1.888,4.219-4.21
	c0.022-1.345,2.813-1.884,2.813-5.634C18.25,8.366,15.166,5.281,11.375,5.281z M21.863,3.242l-1.105-1.105
	c-0.184-0.183-0.479-0.183-0.663,0l-3.399,3.399c-0.184,0.183-0.184,0.48,0,0.663l1.105,1.105c0.183,0.183,0.479,0.183,0.662,0
	l3.4-3.399C22.046,3.722,22.046,3.425,21.863,3.242z M8.6,14.295c-0.183-0.183-0.479-0.183-0.663,0l-5.8,5.8
	c-0.183,0.184-0.183,0.479,0,0.663l1.105,1.105c0.183,0.183,0.48,0.183,0.663,0l5.8-5.801c0.183-0.183,0.183-0.48,0-0.662
	L8.6,14.295z"/>
</svg>
