<svg version="1.1" id="master" xmlns="http://www.w3.org/2000/svg" xmlns:xlink="http://www.w3.org/1999/xlink" x="0px" y="0px"
	 width="24px" height="24px" viewBox="0 0 24 24" enable-background="new 0 0 24 24" xml:space="preserve">
<path d="M16.969,14.167V9.77h1.019v3.503h1.783v0.892h-2.802V14.167z M8.816,11.427l2.483-1.91c0.234,0.19,0.466,0.382,0.701,0.573
	l-2.356,1.783l0.509,0.446l2.355-1.847c0.234,0.19,0.467,0.382,0.701,0.573c-0.781,0.621-1.567,1.236-2.356,1.847l0.508,0.446
	l2.358-1.912L13.72,9.771h1.02v3.503h1.847v0.892h-2.802V12.51c-0.829,0.636-1.656,1.274-2.484,1.91l-2.484-1.91
	c-0.12,0.607-0.544,1.134-1.093,1.412c-0.238,0.122-0.498,0.199-0.763,0.229c-0.152,0.019-0.306,0.015-0.459,0.015H4.93V9.771h1.812
	c0.474,0.005,0.932,0.168,1.302,0.464C8.422,10.535,8.692,10.961,8.816,11.427 M5.887,10.663v2.675l0.794-0.001
	c0.338-0.011,0.654-0.171,0.863-0.437c0.358-0.448,0.417-1.065,0.152-1.574c-0.166-0.321-0.462-0.553-0.813-0.638
	c-0.138-0.034-0.282-0.025-0.422-0.027L5.887,10.663L5.887,10.663z M11.85,2h0.281c1.57,0.021,3.114,0.413,4.504,1.144
	c1.356,0.714,2.532,1.728,3.438,2.964C21.297,7.775,21.971,9.782,22,11.85v0.3c-0.031,2.49-0.993,4.877-2.696,6.694
	c-1.855,1.981-4.438,3.121-7.152,3.156h-0.301c-1.182-0.018-2.352-0.245-3.455-0.672C7.054,20.806,5.839,20,4.835,18.965
	c-1.074-1.104-1.88-2.441-2.355-3.906c-0.303-0.94-0.464-1.92-0.48-2.908V11.85c0.033-1.899,0.609-3.749,1.66-5.33
	c0.982-1.482,2.335-2.681,3.925-3.477C8.911,2.38,10.368,2.024,11.85,2 M11.723,3.025C9.768,3.081,7.886,3.776,6.364,5.004
	C5.12,6.006,4.165,7.321,3.598,8.815c-0.824,2.191-0.766,4.617,0.161,6.767c0.639,1.469,1.659,2.741,2.955,3.684
	c1.177,0.858,2.546,1.415,3.988,1.622c1.213,0.174,2.462,0.104,3.647-0.217c1.62-0.438,3.086-1.322,4.229-2.552
	c1.145-1.228,1.92-2.752,2.238-4.4c0.249-1.292,0.215-2.624-0.102-3.901c-0.748-2.994-2.981-5.395-5.915-6.355
	C13.808,3.139,12.766,2.991,11.723,3.025L11.723,3.025z"/>
</svg>
