<svg version="1.1" id="master" xmlns="http://www.w3.org/2000/svg" xmlns:xlink="http://www.w3.org/1999/xlink" x="0px" y="0px"
	 width="24px" height="24px" viewBox="0 0 24 24" enable-background="new 0 0 24 24" xml:space="preserve">
<path d="M15.637,2c-2.183,0-4.109,1.1-5.255,2.772c0.009-0.009,0.009-0.018,0.019-0.027c-0.364-0.019-0.746-0.019-1.127-0.019
	C5.254,4.727,2,5.182,2,8.364v9.09c0,0.801,0.354,1.519,0.909,2.02v1.617c0,0.5,0.409,0.909,0.909,0.909h0.909
	c0.5,0,0.909-0.409,0.909-0.909v-0.909h7.273v0.909c0,0.5,0.409,0.909,0.909,0.909h0.909c0.5,0,0.909-0.409,0.909-0.909v-1.617
	c0.554-0.501,0.909-1.219,0.909-2.02v-2.8C19.628,14.209,22,11.573,22,8.364C22,4.845,19.154,2,15.637,2z M5.182,18.363
	c-0.754,0-1.363-0.608-1.363-1.363s0.609-1.363,1.363-1.363c0.755,0,1.364,0.608,1.364,1.363S5.937,18.363,5.182,18.363z
	 M3.818,12.909V8.364h5.455c0,1.782,0.736,3.391,1.918,4.545H3.818z M13.363,18.363C12.609,18.363,12,17.755,12,17
	s0.609-1.363,1.363-1.363c0.755,0,1.364,0.608,1.364,1.363S14.118,18.363,13.363,18.363z M15.637,12.909
	c-2.509,0-4.546-2.037-4.546-4.545s2.037-4.545,4.546-4.545s4.545,2.037,4.545,4.545S18.146,12.909,15.637,12.909z M16.091,4.727
	h-1.363v4.546l3.291,1.963l0.682-1.118l-2.609-1.527V4.727z"/>
</svg>
