<svg version="1.1" id="master" xmlns="http://www.w3.org/2000/svg" xmlns:xlink="http://www.w3.org/1999/xlink" x="0px" y="0px"
	 width="24px" height="24px" viewBox="0 0 24 24" enable-background="new 0 0 24 24" xml:space="preserve">
<rect fill="none" width="24" height="24"/>
<path d="M21.336,10.792l-0.672,0.042c-0.207-1.542-0.813-2.955-1.714-4.134l0.506-0.446c0.271-0.239,0.283-0.656,0.028-0.911
	l-0.826-0.827c-0.255-0.255-0.673-0.242-0.911,0.028L17.301,5.05c-1.18-0.901-2.592-1.507-4.134-1.713l0.042-0.672
	C13.231,2.304,12.945,2,12.584,2h-1.169c-0.36,0-0.646,0.304-0.624,0.664l0.042,0.673C9.291,3.542,7.879,4.149,6.7,5.05L6.253,4.544
	c-0.238-0.27-0.655-0.283-0.91-0.028L4.516,5.342C4.261,5.598,4.274,6.015,4.544,6.253L5.05,6.699
	c-0.901,1.18-1.507,2.592-1.713,4.134l-0.673-0.042C2.304,10.769,2,11.055,2,11.415v1.169c0,0.361,0.304,0.646,0.664,0.625
	l0.673-0.042c0.206,1.542,0.812,2.954,1.713,4.134l-0.506,0.446c-0.27,0.238-0.283,0.656-0.028,0.91l0.827,0.827
	c0.255,0.255,0.672,0.242,0.91-0.028L6.7,18.95c1.18,0.9,2.591,1.507,4.134,1.714l-0.042,0.672C10.769,21.695,11.055,22,11.415,22
	h1.169c0.361,0,0.646-0.305,0.625-0.664l-0.042-0.672c1.542-0.207,2.954-0.813,4.134-1.714l0.446,0.506
	c0.239,0.271,0.656,0.283,0.911,0.028l0.827-0.827c0.254-0.255,0.241-0.673-0.029-0.91l-0.506-0.446
	c0.901-1.18,1.507-2.593,1.714-4.134l0.672,0.042C21.695,13.231,22,12.945,22,12.584v-1.169C22,11.055,21.695,10.769,21.336,10.792z
	 M13.009,5.852c0.97,0.159,1.86,0.534,2.627,1.085l-1.665,1.886c-0.342-0.212-0.716-0.373-1.118-0.467L13.009,5.852z M10.99,5.852
	l0.157,2.504c-0.402,0.094-0.777,0.255-1.118,0.467L8.364,6.937C9.13,6.386,10.021,6.011,10.99,5.852z M6.937,8.365l1.887,1.665
	c-0.212,0.341-0.373,0.716-0.467,1.118L5.852,10.99C6.011,10.021,6.386,9.13,6.937,8.365z M5.852,13.009l2.504-0.156
	c0.094,0.402,0.255,0.776,0.467,1.118l-1.886,1.665C6.386,14.869,6.011,13.979,5.852,13.009z M10.99,18.147
	c-0.969-0.158-1.86-0.533-2.626-1.084l1.665-1.888c0.341,0.213,0.716,0.373,1.118,0.468L10.99,18.147z M12,13.25
	c-0.69,0-1.25-0.56-1.25-1.25c0-0.69,0.56-1.25,1.25-1.25c0.69,0,1.25,0.56,1.25,1.25C13.25,12.69,12.69,13.25,12,13.25z
	 M13.009,18.147l-0.156-2.504c0.402-0.094,0.776-0.255,1.118-0.468l1.664,1.888C14.869,17.614,13.979,17.989,13.009,18.147z
	 M17.063,15.635l-1.887-1.664c0.212-0.342,0.373-0.716,0.467-1.118l2.504,0.156C17.989,13.979,17.614,14.869,17.063,15.635z
	 M15.644,11.147c-0.094-0.402-0.255-0.777-0.468-1.118l1.888-1.665c0.551,0.766,0.926,1.657,1.084,2.626L15.644,11.147z"/>
</svg>
