<svg version="1.1" id="master" xmlns="http://www.w3.org/2000/svg" xmlns:xlink="http://www.w3.org/1999/xlink" x="0px" y="0px"
	 width="24px" height="24px" viewBox="0 0 24 24" enable-background="new 0 0 24 24" xml:space="preserve">
<path d="M12,18.363c-1,0-1.818,0.819-1.818,1.818C10.182,21.182,11,22,12,22s1.818-0.818,1.818-1.818
	C13.818,19.183,13,18.363,12,18.363z M6.546,2c-1,0-1.818,0.818-1.818,1.818c0,1,0.818,1.818,1.818,1.818s1.818-0.818,1.818-1.818
	C8.364,2.818,7.546,2,6.546,2z M6.546,7.455c-1,0-1.818,0.818-1.818,1.818c0,1,0.818,1.818,1.818,1.818s1.818-0.818,1.818-1.818
	C8.364,8.272,7.546,7.455,6.546,7.455z M6.546,12.909c-1,0-1.818,0.818-1.818,1.818c0,0.999,0.818,1.818,1.818,1.818
	s1.818-0.819,1.818-1.818C8.364,13.728,7.546,12.909,6.546,12.909z M17.454,5.636c1,0,1.818-0.818,1.818-1.818
	c0-1-0.818-1.818-1.818-1.818c-0.999,0-1.817,0.818-1.817,1.818C15.637,4.818,16.455,5.636,17.454,5.636z M12,12.909
	c-1,0-1.818,0.818-1.818,1.818c0,0.999,0.818,1.818,1.818,1.818s1.818-0.819,1.818-1.818C13.818,13.728,13,12.909,12,12.909z
	 M17.454,12.909c-0.999,0-1.817,0.818-1.817,1.818c0,0.999,0.818,1.818,1.817,1.818c1,0,1.818-0.819,1.818-1.818
	C19.272,13.728,18.454,12.909,17.454,12.909z M17.454,7.455c-0.999,0-1.817,0.818-1.817,1.818c0,1,0.818,1.818,1.817,1.818
	c1,0,1.818-0.818,1.818-1.818C19.272,8.272,18.454,7.455,17.454,7.455z M12,7.455c-1,0-1.818,0.818-1.818,1.818
	c0,1,0.818,1.818,1.818,1.818s1.818-0.818,1.818-1.818C13.818,8.272,13,7.455,12,7.455z M12,2c-1,0-1.818,0.818-1.818,1.818
	c0,1,0.818,1.818,1.818,1.818s1.818-0.818,1.818-1.818C13.818,2.818,13,2,12,2z"/>
</svg>
