<svg version="1.1" id="master" xmlns="http://www.w3.org/2000/svg" xmlns:xlink="http://www.w3.org/1999/xlink" x="0px" y="0px"
	 width="24px" height="24px" viewBox="0 0 24 24" enable-background="new 0 0 24 24" xml:space="preserve">
<path d="M19.777,2H4.222C3,2,2,3,2,4.222v15.555C2,21,3,22,4.222,22h15.555C21,22,22,21,22,19.777V4.222C22,3,21,2,19.777,2z
	 M7,18.667c-0.922,0-1.667-0.745-1.667-1.667S6.078,15.333,7,15.333S8.667,16.078,8.667,17S7.922,18.667,7,18.667z M7,8.667
	C6.078,8.667,5.333,7.922,5.333,7S6.078,5.333,7,5.333S8.667,6.078,8.667,7S7.922,8.667,7,8.667z M12,13.667
	c-0.922,0-1.667-0.745-1.667-1.667c0-0.922,0.744-1.667,1.667-1.667c0.922,0,1.667,0.744,1.667,1.667
	C13.667,12.922,12.922,13.667,12,13.667z M17,18.667c-0.922,0-1.667-0.745-1.667-1.667s0.745-1.667,1.667-1.667
	s1.667,0.745,1.667,1.667S17.922,18.667,17,18.667z M17,8.667c-0.922,0-1.667-0.744-1.667-1.667S16.078,5.333,17,5.333
	S18.667,6.078,18.667,7S17.922,8.667,17,8.667z"/>
</svg>
