<svg version="1.1" id="master" xmlns="http://www.w3.org/2000/svg" xmlns:xlink="http://www.w3.org/1999/xlink"
	 x="0px" y="0px" width="24px" height="24px" viewBox="0 0 24 24" enable-background="new 0 0 24 24" xml:space="preserve">
<path d="M11.444,6.443c0.92,0,1.667-0.746,1.667-1.667c0-0.921-0.747-1.667-1.667-1.667S9.778,3.855,9.778,4.776
	C9.778,5.697,10.524,6.443,11.444,6.443z M9.284,15.518c-0.896-0.596-1.817-1.152-2.763-1.67l-2.484-1.354l-1.994,6.979
	c-0.169,0.591,0.173,1.206,0.763,1.375c0.59,0.168,1.206-0.174,1.374-0.764l1.271-4.45l2.104,1.403v2.739
	c0,0.614,0.498,1.11,1.111,1.11c0.614,0,1.111-0.496,1.111-1.11v-3.333C9.778,16.07,9.592,15.724,9.284,15.518z M12.801,17.554
	c-0.478,0-0.902,0.306-1.054,0.76l-0.858,2.573H22l-3.539-7.163c-0.392-0.784-1.495-0.827-1.947-0.075l-1.105,1.885l-2.269-1.236
	l-0.833-4.208c-0.271-1.375-1.166-2.545-2.42-3.167C9.852,6.905,9.813,6.899,9.778,6.883C9.699,6.842,9.615,6.811,9.528,6.79
	C8.995,6.579,8.432,6.443,7.858,6.443H5.333c-0.32,0-0.625,0.138-0.836,0.379L2.553,9.044c-0.029,0.035-0.056,0.071-0.08,0.11
	c-0.306,0.489-0.104,1.141,0.404,1.418l11.688,6.399l-0.343,0.582H12.801z M5.677,10.228L4.861,9.782l0.977-1.117H7.03L5.677,10.228
	z M8.932,12.003l1.206-1.432l0.469,2.345L8.932,12.003z"/>
</svg>
