<svg version="1.1" id="master" xmlns="http://www.w3.org/2000/svg" xmlns:xlink="http://www.w3.org/1999/xlink" x="0px" y="0px"
	 width="24px" height="24px" viewBox="0 0 24 24" enable-background="new 0 0 24 24" xml:space="preserve">
<path fill="#7289DA" d="M10.19,10.39c-0.57,0-1.021,0.5-1.021,1.11s0.46,1.11,1.021,1.11c0.569,0,1.02-0.5,1.02-1.11
	C11.22,10.89,10.76,10.39,10.19,10.39z M13.84,10.39c-0.57,0-1.02,0.5-1.02,1.11s0.46,1.11,1.02,1.11c0.57,0,1.021-0.5,1.021-1.11
	S14.41,10.39,13.84,10.39z M18.7,2H5.3C4.17,2,3.25,2.92,3.25,4.06V17.58c0,1.14,0.92,2.06,2.05,2.06h11.34l-0.529-1.85l1.279,1.19
	L18.6,20.1l2.15,1.9V4.06C20.75,2.92,19.83,2,18.7,2z M14.84,15.06c0,0-0.359-0.43-0.66-0.81c1.311-0.37,1.811-1.19,1.811-1.19
	c-0.41,0.271-0.8,0.46-1.15,0.591c-0.5,0.21-0.979,0.35-1.45,0.43c-0.96,0.18-1.84,0.13-2.59-0.01C10.23,13.96,9.74,13.8,9.33,13.64
	C9.1,13.55,8.85,13.44,8.6,13.3c-0.029-0.02-0.06-0.03-0.09-0.05c-0.02-0.01-0.029-0.02-0.04-0.03c-0.18-0.1-0.279-0.17-0.279-0.17
	s0.479,0.8,1.75,1.181C9.64,14.61,9.27,15.06,9.27,15.06c-2.21-0.069-3.05-1.52-3.05-1.52c0-3.22,1.44-5.83,1.44-5.83
	c1.439-1.08,2.81-1.05,2.81-1.05l0.101,0.12C8.77,7.3,7.94,8.09,7.94,8.09S8.16,7.97,8.53,7.8C9.6,7.33,10.45,7.2,10.8,7.17
	c0.061-0.01,0.11-0.02,0.17-0.02c0.61-0.08,1.3-0.101,2.021-0.021c0.95,0.11,1.97,0.39,3.01,0.96c0,0-0.79-0.75-2.49-1.27
	l0.141-0.16c0,0,1.369-0.03,2.81,1.05c0,0,1.44,2.61,1.44,5.83C17.9,13.54,17.05,14.99,14.84,15.06z"/>
</svg>
