<svg version="1.1" id="master" xmlns="http://www.w3.org/2000/svg" xmlns:xlink="http://www.w3.org/1999/xlink" x="0px" y="0px"
	 width="24px" height="24px" viewBox="0 0 24 24" enable-background="new 0 0 24 24" xml:space="preserve">
<path fill="#7289DA" d="M8.796,11.196c-0.976,0-1.748,0.856-1.748,1.9s0.788,1.899,1.748,1.899c0.974,0,1.747-0.855,1.747-1.899
	C10.56,12.052,9.771,11.196,8.796,11.196z M15.045,11.196c-0.977,0-1.746,0.856-1.746,1.9s0.786,1.899,1.746,1.899
	c0.977,0,1.749-0.855,1.749-1.899S16.021,11.196,15.045,11.196z M16.757,19.191c0,0-0.615-0.737-1.13-1.388
	c2.245-0.634,3.101-2.036,3.101-2.036c-0.702,0.463-1.369,0.785-1.969,1.01c-0.856,0.36-1.678,0.6-2.483,0.737
	c-1.643,0.308-3.149,0.222-4.434-0.019c-0.977-0.189-1.816-0.463-2.518-0.735c-0.394-0.156-0.822-0.345-1.25-0.584
	c-0.05-0.035-0.103-0.052-0.155-0.085c-0.033-0.017-0.049-0.034-0.068-0.051c-0.308-0.172-0.478-0.292-0.478-0.292
	s0.82,1.369,2.996,2.021c-0.515,0.648-1.148,1.421-1.148,1.421C3.438,19.072,2,16.588,2,16.588c0-5.512,2.465-9.98,2.465-9.98
	C6.929,4.758,9.276,4.81,9.276,4.81l0.172,0.205C6.365,5.905,4.944,7.258,4.944,7.258s0.377-0.205,1.01-0.497
	C7.786,5.957,9.242,5.735,9.84,5.683c0.104-0.017,0.188-0.034,0.292-0.034c1.044-0.137,2.225-0.173,3.46-0.036
	c1.627,0.188,3.372,0.667,5.152,1.643c0,0-1.353-1.284-4.261-2.174l0.24-0.273c0,0,2.344-0.052,4.811,1.797
	c0,0,2.466,4.468,2.466,9.98C21.996,16.588,20.54,19.071,16.757,19.191z"/>
</svg>
