<svg version="1.1" id="master" xmlns="http://www.w3.org/2000/svg" xmlns:xlink="http://www.w3.org/1999/xlink" x="0px" y="0px"
	 width="24px" height="24px" viewBox="0 0 24 24" enable-background="new 0 0 24 24" xml:space="preserve">
<rect fill="none" width="24" height="24"/>
<path d="M3.254,21.301c-0.043,0.371,0.246,0.695,0.621,0.695L5.137,22c0.316,0,0.582-0.23,0.625-0.543
	c0.027-0.191,0.07-0.434,0.133-0.707h12.199c0.063,0.27,0.113,0.516,0.137,0.707c0.043,0.313,0.309,0.547,0.625,0.543l1.262-0.004
	c0.375,0,0.668-0.324,0.621-0.695c-0.18-1.48-1-5.039-4.645-8.113c-0.688,0.484-1.449,0.945-2.285,1.383
	c0.242,0.18,0.445,0.367,0.664,0.555H9.488c0.832-0.707,1.836-1.391,3.074-2.008c6.723-3.34,7.957-8.547,8.184-10.418
	c0.043-0.371-0.246-0.695-0.621-0.695L18.859,2c-0.316,0-0.582,0.23-0.625,0.543c-0.027,0.191-0.07,0.434-0.133,0.707H5.898
	C5.836,2.977,5.793,2.738,5.766,2.543C5.723,2.23,5.457,1.996,5.141,2L3.879,2.004c-0.375,0-0.668,0.324-0.625,0.695
	C3.457,4.375,4.477,8.711,9.5,12C4.48,15.289,3.457,19.625,3.254,21.301z M12,10.578c-0.98-0.535-1.813-1.109-2.512-1.703h5.02
	C13.813,9.469,12.98,10.047,12,10.578z M17.121,5.75c-0.227,0.406-0.5,0.824-0.82,1.25H7.703c-0.324-0.426-0.598-0.844-0.82-1.25
	H17.121z M6.879,18.25c0.227-0.406,0.5-0.824,0.82-1.25h8.57c0.324,0.426,0.602,0.844,0.828,1.25H6.879z"/>
</svg>
