<svg version="1.1" id="master" xmlns="http://www.w3.org/2000/svg" xmlns:xlink="http://www.w3.org/1999/xlink" x="0px" y="0px"
	 width="24px" height="24px" viewBox="0 0 24 24" enable-background="new 0 0 24 24" xml:space="preserve">
<rect fill="none" width="24" height="24"/>
<path d="M6.016,16.395c-0.57,0-1.086-0.468-1.086-1.034s0.467-1.036,1.087-1.036c0.624,0,1.092,0.467,1.092,1.035
	s-0.519,1.033-1.087,1.033L6.016,16.395z M19.361,10.758c-0.112-0.827-0.626-1.5-1.301-2.018l-0.263-0.208l-0.211,0.259
	c-0.412,0.467-0.575,1.294-0.525,1.913c0.05,0.468,0.199,0.934,0.462,1.295c-0.212,0.108-0.474,0.208-0.676,0.314
	c-0.475,0.155-0.937,0.208-1.4,0.208H2.08l-0.05,0.309c-0.1,0.985,0.05,2.018,0.468,2.95l0.203,0.362v0.051
	c1.25,2.069,3.476,3,5.899,3c4.663,0,8.487-2.017,10.298-6.361c1.188,0.052,2.388-0.259,2.951-1.396L22,11.176l-0.25-0.156
	c-0.675-0.412-1.602-0.467-2.376-0.258l-0.015,0.001L19.361,10.758z M12.687,9.931h-2.023v2.017h2.025V9.929L12.687,9.931
	L12.687,9.931z M12.687,7.395h-2.023v2.017h2.025V7.397L12.687,7.395z M12.687,4.808h-2.023v2.017h2.025V4.808H12.687z
	 M15.162,9.931H13.15v2.017h2.017V9.929L15.162,9.931L15.162,9.931z M7.663,9.931H5.651v2.017H7.67V9.929L7.663,9.931L7.663,9.931z
	 M10.188,9.931h-2v2.017H10.2V9.929L10.188,9.931L10.188,9.931z M5.162,9.931H3.166v2.017h2.023V9.929L5.164,9.932L5.162,9.931z
	 M10.188,7.395h-2v2.017H10.2V7.397L10.188,7.395L10.188,7.395z M7.65,7.395H5.655v2.017h2.011V7.397L7.653,7.395H7.65z"/>
</svg>
