<svg version="1.1" id="master" xmlns="http://www.w3.org/2000/svg" xmlns:xlink="http://www.w3.org/1999/xlink"
	 x="0px" y="0px" width="24px" height="24px" viewBox="0 0 24 24" enable-background="new 0 0 24 24" xml:space="preserve">
<path d="M12,12c2.762,0,5-2.238,5-5s-2.238-5-5-5S7,4.238,7,7S9.238,12,12,12z M7.313,18.563c0,0.52,0.418,0.938,0.938,0.938
	s0.938-0.418,0.938-0.938S8.77,17.625,8.25,17.625S7.313,18.043,7.313,18.563z M15.75,13.273v1.914c1.426,0.289,2.5,1.555,2.5,3.063
	v1.629c0,0.297-0.211,0.555-0.504,0.613l-1.258,0.25c-0.168,0.035-0.332-0.074-0.367-0.246L16,19.883
	c-0.035-0.168,0.074-0.336,0.246-0.367L17,19.363V18.25c0-2.453-3.75-2.543-3.75,0.074v1.043l0.754,0.152
	c0.168,0.035,0.277,0.199,0.246,0.367L14.129,20.5c-0.035,0.168-0.199,0.277-0.367,0.246l-1.219-0.164
	c-0.309-0.043-0.539-0.305-0.539-0.621V18.25c0-1.508,1.074-2.77,2.5-3.063v-1.766c-0.086,0.027-0.172,0.043-0.258,0.074
	c-0.703,0.246-1.457,0.383-2.242,0.383s-1.539-0.137-2.242-0.383c-0.289-0.102-0.582-0.164-0.883-0.203v3.188
	c0.902,0.27,1.563,1.098,1.563,2.086c0,1.207-0.98,2.188-2.188,2.188s-2.188-0.98-2.188-2.188c0-0.988,0.66-1.816,1.563-2.086V13.34
	C5.145,13.758,3.25,15.898,3.25,18.5v1.75C3.25,21.215,4.035,22,5,22h14c0.965,0,1.75-0.785,1.75-1.75V18.5
	C20.75,15.688,18.531,13.41,15.75,13.273z"/>
</svg>
