<svg version="1.1" id="master" xmlns="http://www.w3.org/2000/svg" xmlns:xlink="http://www.w3.org/1999/xlink" x="0px" y="0px"
	 width="24px" height="24px" viewBox="0 0 24 24" enable-background="new 0 0 24 24" xml:space="preserve">
<rect fill="none" width="24" height="24"/>
<path d="M21.375,5.125h-2.5l-0.28-0.559c-0.211-0.423-0.645-0.691-1.118-0.691h-2.094L14.317,2.81
	c-0.395-0.394-1.067-0.115-1.067,0.442v5.853l5,1.786V9.5h1.25C20.881,9.5,22,8.381,22,7V5.75C22,5.405,21.72,5.125,21.375,5.125z
	 M17,7c-0.345,0-0.625-0.279-0.625-0.625c0-0.345,0.28-0.625,0.625-0.625s0.625,0.28,0.625,0.625C17.625,6.721,17.345,7,17,7z
	 M5.75,10.125c-0.689,0-1.25-0.561-1.25-1.25c0-0.69-0.56-1.25-1.25-1.25S2,8.185,2,8.875c0,1.627,1.048,3.002,2.5,3.52v8.355
	c0,0.345,0.279,0.625,0.625,0.625h2.5c0.346,0,0.625-0.28,0.625-0.625v-4.375h6.25v4.375c0,0.345,0.28,0.625,0.625,0.625h2.5
	c0.345,0,0.625-0.28,0.625-0.625v-8.533l-5.857-2.092H5.75z"/>
</svg>
