<svg version="1.1" id="master" xmlns="http://www.w3.org/2000/svg" xmlns:xlink="http://www.w3.org/1999/xlink" x="0px" y="0px"
	 width="24px" height="24px" viewBox="0 0 24 24" enable-background="new 0 0 24 24" xml:space="preserve">
<path d="M12.434,10.778C9.911,10.122,9.1,9.445,9.1,8.389c0-1.211,1.123-2.056,3.001-2.056c1.977,0,2.71,0.945,2.777,2.333h2.455
	C17.256,6.755,16.089,5,13.767,4.433V2h-3.333v2.4C8.278,4.867,6.545,6.267,6.545,8.411c0,2.567,2.122,3.845,5.223,4.589
	c2.777,0.667,3.333,1.645,3.333,2.679c0,0.766-0.545,1.987-3,1.987c-2.289,0-3.189-1.021-3.312-2.333H6.345
	c0.133,2.433,1.956,3.8,4.089,4.256V22h3.333v-2.39c2.167-0.41,3.889-1.666,3.889-3.944C17.655,12.511,14.956,11.434,12.434,10.778z
	"/>
</svg>
