<svg version="1.1" id="master" xmlns="http://www.w3.org/2000/svg" xmlns:xlink="http://www.w3.org/1999/xlink" x="0px" y="0px"
	 width="24px" height="24px" viewBox="0 0 24 24" enable-background="new 0 0 24 24" xml:space="preserve">
<rect fill="none" width="24" height="24"/>
<path d="M12.215,12.754c0.625,0.174,1.205,0.466,1.719,0.858l5.607-1.869c0.292-0.097,0.448-0.414,0.351-0.702L17.795,4.75
	c-0.097-0.291-0.413-0.447-0.701-0.35l-2.122,0.708l1.149,3.451l-2.107,0.698l-1.149-3.451l-2.139,0.711
	c-0.292,0.097-0.448,0.413-0.351,0.702L12.215,12.754z M21.972,14.445l-0.354-1.057c-0.097-0.291-0.413-0.447-0.701-0.35
	l-7.412,2.473c-0.598-0.765-1.515-1.265-2.553-1.285L7.5,3.873c-0.153-0.455-0.577-0.76-1.056-0.76H2.556
	C2.25,3.112,2,3.362,2,3.667v1.111c0,0.305,0.25,0.555,0.556,0.555h3.086l3.201,9.607c-0.906,0.708-1.447,1.861-1.25,3.143
	c0.212,1.367,1.315,2.51,2.684,2.749c2.09,0.372,3.899-1.207,3.937-3.214l7.406-2.473C21.909,15.049,22.069,14.736,21.972,14.445z
	 M10.888,19.222c-0.92,0-1.667-0.745-1.667-1.666c0-0.92,0.747-1.667,1.667-1.667c0.92,0,1.667,0.747,1.667,1.667
	C12.555,18.477,11.809,19.222,10.888,19.222z"/>
</svg>
