<?xml version="1.0" encoding="utf-8"?>
<!-- Generator: Adobe Illustrator 16.0.0, SVG Export Plug-In . SVG Version: 6.00 Build 0)  -->
<!DOCTYPE svg PUBLIC "-//W3C//DTD SVG 1.1//EN" "http://www.w3.org/Graphics/SVG/1.1/DTD/svg11.dtd">
<svg version="1.1" id="master" xmlns="http://www.w3.org/2000/svg" xmlns:xlink="http://www.w3.org/1999/xlink" x="0px" y="0px"
	 width="24px" height="24px" viewBox="0 0 24 24" enable-background="new 0 0 24 24" xml:space="preserve">
<path d="M12,2C6.48,2,2,6.48,2,12c0,5.52,4.48,10,10,10c5.52,0,10-4.48,10-10C22,6.48,17.52,2,12,2z M13.41,18.09V20h-2.67v-1.93
	c-1.71-0.36-3.16-1.461-3.27-3.4h1.96c0.1,1.051,0.82,1.87,2.65,1.87c1.96,0,2.4-0.979,2.4-1.59c0-0.83-0.44-1.61-2.67-2.14
	C9.33,12.21,7.63,11.19,7.63,9.14c0-1.72,1.39-2.84,3.11-3.21V4h2.67v1.95c1.859,0.45,2.79,1.86,2.85,3.39H14.3
	c-0.05-1.11-0.64-1.87-2.22-1.87c-1.5,0-2.4,0.68-2.4,1.64c0,0.84,0.65,1.39,2.67,1.91s4.179,1.39,4.179,3.91
	C16.52,16.76,15.15,17.76,13.41,18.09z"/>
</svg>
