<svg version="1.1" id="master" xmlns="http://www.w3.org/2000/svg" xmlns:xlink="http://www.w3.org/1999/xlink"
	 x="0px" y="0px" width="24px" height="24px" viewBox="0 0 24 24" enable-background="new 0 0 24 24" xml:space="preserve">
<path d="M13.25,8.53V7.433c-1.102-1.418-1.84-3.098-2.113-4.891c-0.082-0.527-0.742-0.734-1.086-0.324
	C9.227,3.19,8.578,4.331,8.141,5.597C9.477,7.092,11.266,8.12,13.25,8.53z M17.625,4.499c-1.727,0-3.125,1.402-3.125,3.129v2.32
	c-4.078-0.242-7.539-2.754-9.102-6.316C5.184,3.144,4.492,3.116,4.266,3.597C3.617,4.968,3.25,6.499,3.25,8.116
	c0,2.765,1.333,5.347,3.324,7.261c0.516,0.497,1.02,0.907,1.52,1.281l-5.621,1.406c-0.418,0.105-0.605,0.59-0.371,0.953
	c0.679,1.051,2.359,2.832,5.984,2.98c0.313,0.012,0.625-0.102,0.863-0.309l2.547-2.191H14.5c3.453,0,6.25-2.793,6.25-6.246V6.999
	l1.25-2.5H17.625z M17.625,8.253C17.281,8.253,17,7.971,17,7.628c0-0.344,0.281-0.625,0.625-0.625c0.343,0,0.625,0.281,0.625,0.625
	C18.25,7.971,17.968,8.253,17.625,8.253z"/>
</svg>
