<svg version="1.1" id="master" xmlns="http://www.w3.org/2000/svg" xmlns:xlink="http://www.w3.org/1999/xlink" x="0px" y="0px"
	 width="24px" height="24px" viewBox="0 0 24 24" enable-background="new 0 0 24 24" xml:space="preserve">
<rect fill="none" width="24" height="24"/>
<path d="M2.572,11.993L8,10.999l-2.853,2.148C4.832,13.461,5.056,14,5.501,14h6.959C12.165,13.174,12,12.296,12,11.393v-1.321
	L8.259,7.334C7.514,6.838,6.53,6.897,5.85,7.478l-3.668,3.636C1.795,11.436,2.073,12.064,2.572,11.993z M19.976,13.059l-3.146-1.573
	c-0.508-0.254-0.828-0.772-0.828-1.341V8.999h2l0.877,0.707c0.188,0.188,0.441,0.293,0.707,0.293h0.969
	c0.379,0,0.725-0.214,0.893-0.553l0.447-0.895c0.17-0.339,0.135-0.744-0.094-1.047l-2.328-3.105C19.282,4.147,18.985,4,18.671,4
	h-7.42c-0.223,0-0.334,0.268-0.177,0.426l1.927,1.573l-1.863,0.776c-0.184,0.093-0.184,0.355,0,0.447l1.863,0.776v3.395
	c0,2.253,1.125,4.357,3,5.605c-6.113,0.213-10.769,1.283-13.566,1.904C2.181,18.959,2,19.184,2,19.443C2,19.75,2.249,20,2.555,20
	h15.597c1.979,0,3.738-1.486,3.844-3.461C22.073,15.063,21.284,13.715,19.976,13.059L19.976,13.059z M17.286,6.07l1.428,0.357
	c-0.086,0.34-0.391,0.59-0.754,0.57C17.554,6.975,17.151,6.606,17.286,6.07z"/>
</svg>
