<svg version="1.1" id="master" xmlns="http://www.w3.org/2000/svg" xmlns:xlink="http://www.w3.org/1999/xlink" x="0px" y="0px"
	 width="24px" height="24px" viewBox="0 0 24 24" enable-background="new 0 0 24 24" xml:space="preserve">
<rect fill="none" width="24" height="24"/>
<path d="M10.75,19.5c0,1.375-1.125,2.5-2.5,2.5s-2.5-1.125-2.5-2.5S6.875,17,8.25,17S10.75,18.125,10.75,19.5z M8.25,9.5
	c-1.375,0-2.5,1.125-2.5,2.5s1.125,2.5,2.5,2.5s2.5-1.125,2.5-2.5S9.625,9.5,8.25,9.5z M8.25,2c-1.375,0-2.5,1.125-2.5,2.5
	S6.875,7,8.25,7s2.5-1.125,2.5-2.5S9.625,2,8.25,2z M15.75,7c1.375,0,2.5-1.125,2.5-2.5S17.125,2,15.75,2s-2.5,1.125-2.5,2.5
	S14.375,7,15.75,7z M15.75,9.5c-1.375,0-2.5,1.125-2.5,2.5s1.125,2.5,2.5,2.5s2.5-1.125,2.5-2.5S17.125,9.5,15.75,9.5z M15.75,17
	c-1.375,0-2.5,1.125-2.5,2.5s1.125,2.5,2.5,2.5s2.5-1.125,2.5-2.5S17.125,17,15.75,17z"/>
</svg>
