<svg version="1.1" id="master" xmlns="http://www.w3.org/2000/svg" xmlns:xlink="http://www.w3.org/1999/xlink" x="0px" y="0px"
	 width="24px" height="24px" viewBox="0 0 24 24" enable-background="new 0 0 24 24" xml:space="preserve">
<rect fill="none" width="24" height="24"/>
<path d="M20.063,3.937c-2.58-2.581-6.764-2.581-9.345,0c0,0,0,0,0,0C9.333,5.32,8.253,7,8.253,9.499v3.352l-1.585,1.585
	c-0.379,0.38-0.938,0.434-1.436,0.234c-1.207-0.483-2.579,0.103-3.063,1.31c-0.352,0.877-0.146,1.88,0.524,2.546
	c0.596,0.597,1.425,0.765,2.191,0.59c-0.175,0.766-0.007,1.595,0.589,2.191c0.918,0.922,2.41,0.924,3.332,0.006
	c0.669-0.667,0.875-1.668,0.524-2.545c-0.199-0.497-0.145-1.055,0.234-1.436l1.585-1.584h3.352c2.499,0,4.179-1.081,5.563-2.466
	C22.646,10.702,22.645,6.518,20.063,3.937z"/>
</svg>
