<svg version="1.1" id="master" xmlns="http://www.w3.org/2000/svg" xmlns:xlink="http://www.w3.org/1999/xlink"
	 x="0px" y="0px" width="24px" height="24px" viewBox="0 0 24 24" enable-background="new 0 0 24 24" xml:space="preserve">
<path d="M18.849,6.768l2.873-1.853c0.286-0.191,0.364-0.58,0.173-0.867l0,0l-0.346-0.52c-0.191-0.287-0.58-0.365-0.867-0.173l0,0
	l-4.299,2.773C14.438,5.786,12.594,5.75,12,5.75c-1.424,0-10,0.178-10,4.381v6.259c0,1.183,1.074,2.254,2.813,3.042V15.45
	c0-0.518,0.42-0.938,0.938-0.938s0.938,0.42,0.938,0.938v4.646c1.291,0.355,2.776,0.588,4.375,0.653v-4.048
	c0-0.518,0.42-0.938,0.938-0.938s0.938,0.42,0.938,0.938v4.048c1.599-0.065,3.084-0.298,4.375-0.653V15.45
	c0-0.518,0.42-0.938,0.938-0.938s0.938,0.42,0.938,0.938v3.981C20.926,18.644,22,17.572,22,16.39v-6.259
	C22,8.439,20.604,7.406,18.849,6.768z M12,12.635c-4.487,0-8.125-1.121-8.125-2.504S7.513,7.628,12,7.628
	c0.67,0,1.317,0.028,1.94,0.074l-2.844,1.836c-0.287,0.192-0.365,0.58-0.173,0.867l0,0l0.347,0.52
	c0.191,0.288,0.58,0.365,0.867,0.173l0,0l4.634-2.989c2.029,0.453,3.354,1.189,3.354,2.021C20.125,11.514,16.487,12.635,12,12.635z"
	/>
</svg>
