<svg version="1.1" id="master" xmlns="http://www.w3.org/2000/svg" xmlns:xlink="http://www.w3.org/1999/xlink" x="0px" y="0px"
	 width="24px" height="24px" viewBox="0 0 24 24" enable-background="new 0 0 24 24" xml:space="preserve">
<path d="M12,2C6.478,2,2,6.478,2,12s4.478,10,10,10s10-4.478,10-10S17.522,2,12,2z M12,21.167c-5.063,0-9.167-4.105-9.167-9.167
	c0-5.062,4.104-9.167,9.167-9.167c5.062,0,9.167,4.104,9.167,9.167S17.063,21.167,12,21.167z M20.516,12
	c0,4.004-2.764,7.361-6.487,8.271c-0.226-0.434-0.443-0.847-0.625-1.198c0.538,0.208,1.607,0.599,1.841,0.513
	c0.313-0.12,0.234-2.624-0.117-2.704c-0.282-0.063-1.36,0.697-1.784,1.008l0.027,0.13c0.065,0.331,0.121,0.827,0.025,1.039
	c-0.001,0.003-0.001,0.008-0.003,0.011c-0.013,0.029-0.032,0.054-0.057,0.073c-0.237,0.156-0.901,0.236-1.252,0.156
	c-0.019-0.004-0.036-0.01-0.053-0.016c-0.579,0.329-1.675,0.924-1.875,0.809c-0.274-0.156-0.314-2.229-0.274-2.74
	c0.029-0.383,1.377,0.238,2.035,0.565c0.145-0.135,0.501-0.226,0.816-0.258c-0.475-1.158-0.825-2.481-0.611-3.42
	c0,0.001,0.001,0.001,0.001,0.001c0.297,0.207,2.275,0.874,3.259,0.855c0.983-0.021,2.595-0.619,2.419-1.103
	c-0.177-0.483-1.779,0.425-3.452,0.271c-1.237-0.115-1.457-0.67-1.184-1.075c0.346-0.509,0.974,0.097,2.011-0.213
	c1.036-0.31,2.488-0.863,3.025-1.165c1.245-0.694-0.521-0.981-0.938-0.789c-0.395,0.183-1.77,0.531-2.407,0.683
	c0.356-1.263-0.502-3.458-1.464-4.417c-0.313-0.313-0.792-0.51-1.336-0.614c-0.208-0.286-0.545-0.559-1.021-0.814
	C10.116,5.379,9.065,5.208,8.04,5.373L8.02,5.376L7.992,5.38l0.003,0.002C7.872,5.405,7.797,5.448,7.697,5.463
	c0.124,0.013,0.588,0.23,0.881,0.349c-0.145,0.056-0.343,0.09-0.497,0.153c-0.058,0.009-0.116,0.024-0.17,0.047
	c-0.144,0.066-0.252,0.313-0.25,0.429c0.7-0.072,1.735-0.021,2.493,0.205C9.618,6.721,9.125,6.861,8.77,7.048
	C8.757,7.054,8.745,7.063,8.73,7.071C8.685,7.087,8.642,7.106,8.603,7.126c-1.139,0.6-1.642,2.004-1.342,3.687
	c0.27,1.52,1.388,6.74,1.908,9.22C5.858,18.866,3.484,15.711,3.484,12c0-4.703,3.813-8.516,8.516-8.516
	C16.704,3.484,20.516,7.297,20.516,12z M9.579,9.984c-0.349,0-0.632,0.282-0.632,0.631c0,0.349,0.282,0.632,0.631,0.632h0
	c0.349,0,0.632-0.283,0.631-0.632C10.21,10.267,9.928,9.984,9.579,9.984z M9.861,10.569c-0.09,0-0.164-0.073-0.164-0.164
	s0.073-0.163,0.164-0.163l0,0c0.09,0,0.163,0.073,0.163,0.163S9.951,10.569,9.861,10.569z M13.798,9.7
	c-0.299-0.012-0.551,0.221-0.563,0.52c-0.013,0.299,0.221,0.55,0.52,0.563c0.015,0,0.029,0,0.043,0c0.299,0,0.541-0.243,0.541-0.542
	C14.339,9.942,14.097,9.699,13.798,9.7L13.798,9.7z M14.039,10.201c-0.078,0-0.14-0.063-0.14-0.14c0-0.077,0.062-0.14,0.14-0.14
	c0.077,0,0.141,0.063,0.141,0.14C14.18,10.138,14.116,10.201,14.039,10.201z M9.761,8.788c0,0-0.476-0.217-0.938,0.075
	C8.361,9.153,8.378,9.45,8.378,9.45S8.133,8.903,8.787,8.635C9.442,8.368,9.762,8.788,9.761,8.788L9.761,8.788z M14.124,8.745
	c0,0-0.342-0.195-0.608-0.191C12.971,8.56,12.823,8.8,12.823,8.8s0.092-0.574,0.788-0.458C13.838,8.383,14.029,8.534,14.124,8.745z"
	/>
</svg>
