<svg version="1.1" id="master" xmlns="http://www.w3.org/2000/svg" xmlns:xlink="http://www.w3.org/1999/xlink" x="0px" y="0px"
	 width="24px" height="24px" viewBox="0 0 24 24" enable-background="new 0 0 24 24" xml:space="preserve">
<rect fill="none" width="24" height="24"/>
<path d="M20.57,14.859L22,13.43L20.57,12L17,15.57L8.43,7L12,3.43L10.57,2L9.14,3.43L7.71,2L5.57,4.14L4.14,2.71L2.71,4.14
	l1.43,1.43L2,7.71l1.43,1.43L2,10.57L3.43,12L7,8.43L15.57,17L12,20.57L13.43,22l1.43-1.43L16.29,22l2.14-2.141l1.43,1.431
	l1.431-1.431l-1.431-1.43L22,16.29L20.57,14.859z"/>
</svg>
