<svg version="1.1" id="master" xmlns="http://www.w3.org/2000/svg" xmlns:xlink="http://www.w3.org/1999/xlink" x="0px" y="0px"
	 width="24px" height="24px" viewBox="0 0 24 24" enable-background="new 0 0 24 24" xml:space="preserve">
<rect fill="none" width="24" height="24"/>
<path d="M7.028,9.63L3.793,7.608C3.479,7.412,3.052,7.523,2.898,7.86c-0.502,1.099-0.799,2.281-0.877,3.487
	C1.998,11.702,2.297,12,2.652,12h3.794c0.311,0,0.55-0.244,0.586-0.553c0.042-0.365,0.126-0.716,0.244-1.053
	C7.376,10.108,7.286,9.791,7.028,9.63z M14.463,2.313C13.675,2.11,12.851,2,12,2s-1.674,0.11-2.462,0.313
	C9.18,2.404,8.995,2.805,9.132,3.148l1.463,4.063c0.089,0.249,0.324,0.414,0.588,0.414h1.633c0.264,0,0.499-0.165,0.588-0.414
	l1.464-4.063C15.006,2.805,14.82,2.405,14.463,2.313z M6.375,13.25h-3.75C2.279,13.25,2,13.53,2,13.875v2.5
	C2,16.72,2.279,17,2.625,17h3.75C6.721,17,7,16.72,7,16.375v-2.5C7,13.53,6.721,13.25,6.375,13.25z M6.375,18.25h-3.75
	C2.279,18.25,2,18.53,2,18.875v2.5C2,21.72,2.279,22,2.625,22h3.75C6.721,22,7,21.72,7,21.375v-2.5C7,18.53,6.721,18.25,6.375,18.25
	z M9.395,7.169L7.976,3.622C7.838,3.277,7.424,3.115,7.101,3.298C6.033,3.9,5.085,4.693,4.303,5.637
	c-0.237,0.286-0.15,0.722,0.165,0.918l3.24,2.025C7.962,8.739,8.28,8.683,8.493,8.471c0.202-0.201,0.421-0.384,0.656-0.548
	C9.394,7.75,9.506,7.447,9.395,7.169z M17.554,12h3.794c0.356,0,0.654-0.298,0.631-0.653c-0.078-1.206-0.374-2.388-0.877-3.487
	c-0.153-0.337-0.581-0.448-0.896-0.252L16.972,9.63c-0.258,0.161-0.348,0.478-0.248,0.765c0.118,0.336,0.201,0.688,0.244,1.053
	C17.004,11.756,17.242,12,17.554,12z M19.697,5.637c-0.783-0.944-1.73-1.737-2.798-2.339c-0.324-0.183-0.737-0.021-0.876,0.324
	l-1.419,3.547c-0.111,0.278,0.001,0.581,0.246,0.753c0.234,0.164,0.453,0.348,0.656,0.548c0.212,0.212,0.531,0.269,0.785,0.109
	l3.239-2.024C19.847,6.359,19.934,5.923,19.697,5.637z M21.375,13.25h-3.75C17.28,13.25,17,13.53,17,13.875v2.5
	C17,16.72,17.28,17,17.625,17h3.75C21.72,17,22,16.72,22,16.375v-2.5C22,13.53,21.72,13.25,21.375,13.25z M21.375,18.25h-3.75
	C17.28,18.25,17,18.53,17,18.875v2.5C17,21.72,17.28,22,17.625,22h3.75C21.72,22,22,21.72,22,21.375v-2.5
	C22,18.53,21.72,18.25,21.375,18.25z M11.375,8.938v11.499c0,0.173,0.14,0.313,0.313,0.313h0.625c0.172,0,0.313-0.14,0.313-0.313
	V8.938C12.421,8.903,12.214,8.875,12,8.875S11.579,8.903,11.375,8.938z M8.875,10.56v9.878c0,0.173,0.14,0.313,0.313,0.313h0.625
	c0.172,0,0.313-0.14,0.313-0.313V9.397C9.626,9.688,9.193,10.08,8.875,10.56z M13.875,9.397v11.041c0,0.173,0.14,0.313,0.313,0.313
	h0.625c0.173,0,0.313-0.14,0.313-0.313V10.56C14.806,10.08,14.375,9.688,13.875,9.397z"/>
</svg>
