<svg version="1.1" id="master" xmlns="http://www.w3.org/2000/svg" xmlns:xlink="http://www.w3.org/1999/xlink" x="0px" y="0px"
	 width="24px" height="24px" viewBox="0 0 24 24" enable-background="new 0 0 24 24" xml:space="preserve">
<rect fill="none" width="24" height="24"/>
<path d="M12.004,2c0.633,0,1.241,0.083,1.826,0.248c0.586,0.165,1.132,0.397,1.64,0.695c0.507,0.299,0.971,0.657,1.392,1.074
	c0.42,0.417,0.779,0.881,1.078,1.391c0.298,0.51,0.528,1.058,0.691,1.644c0.162,0.585,0.243,1.194,0.243,1.826v1.243
	c0,1.079-0.209,2.041-0.626,2.887c-0.418,0.847-1.018,1.629-1.8,2.348c-0.418,0.383-0.843,0.757-1.274,1.122s-0.865,0.73-1.3,1.096
	c0,0.608-0.113,1.181-0.339,1.717c-0.227,0.537-0.536,1.006-0.931,1.409s-0.856,0.72-1.387,0.952C10.687,21.885,10.114,22,9.5,22
	c-0.603,0-1.17-0.114-1.7-0.344c-0.53-0.229-0.994-0.542-1.391-0.939c-0.397-0.396-0.711-0.86-0.939-1.391
	c-0.229-0.53-0.344-1.098-0.344-1.7V8.878c0-0.632,0.083-1.241,0.248-1.826s0.397-1.133,0.695-1.644
	c0.299-0.51,0.657-0.974,1.074-1.391C7.561,3.6,8.024,3.242,8.535,2.943c0.51-0.298,1.058-0.53,1.644-0.695
	C10.764,2.083,11.372,2,12.004,2z M17.622,8.878c0-0.777-0.146-1.507-0.439-2.191s-0.694-1.28-1.204-1.787
	c-0.511-0.507-1.106-0.909-1.787-1.204c-0.682-0.296-1.41-0.444-2.188-0.444c-0.521,0-1.021,0.067-1.5,0.2
	c-0.478,0.133-0.926,0.322-1.343,0.565c-0.418,0.243-0.798,0.536-1.14,0.878C7.68,5.238,7.387,5.617,7.144,6.035
	S6.712,6.901,6.578,7.383c-0.133,0.481-0.2,0.979-0.2,1.496v8.748c0,0.429,0.081,0.833,0.244,1.214
	c0.162,0.379,0.385,0.711,0.669,0.995s0.616,0.507,0.996,0.669s0.784,0.244,1.213,0.244s0.833-0.083,1.213-0.248
	s0.71-0.389,0.991-0.67s0.505-0.611,0.67-0.99c0.165-0.381,0.248-0.785,0.248-1.214V17c0.51-0.435,1.017-0.862,1.521-1.283
	c0.504-0.42,1.003-0.855,1.495-1.309c0.633-0.579,1.121-1.22,1.466-1.921c0.345-0.701,0.518-1.49,0.518-2.365V8.878z M16.239,7.787
	c-0.093-0.356-0.227-0.694-0.4-1.013s-0.385-0.613-0.635-0.883c-0.249-0.27-0.53-0.503-0.843-0.7c-0.4-0.255-0.801-0.434-1.2-0.535
	c-0.4-0.102-0.838-0.152-1.313-0.152c-0.585,0-1.135,0.121-1.647,0.361C9.687,5.106,9.239,5.428,8.856,5.831
	S8.173,6.699,7.952,7.226s-0.33,1.078-0.33,1.652V16.2c0.196-0.337,0.462-0.601,0.795-0.792c0.334-0.191,0.694-0.287,1.083-0.287
	c0.383,0,0.742,0.1,1.078,0.297c0.336,0.196,0.604,0.457,0.8,0.782v-2.321c0-0.174,0.032-0.337,0.096-0.488
	c0.064-0.15,0.152-0.281,0.266-0.395s0.245-0.203,0.396-0.27s0.313-0.101,0.487-0.101c0.127,0,0.304,0.003,0.53,0.009
	c0.226,0.006,0.464,0.009,0.713,0.009c0.261,0,0.507-0.007,0.739-0.022c0.231-0.014,0.396-0.044,0.495-0.091
	c0.093-0.046,0.186-0.09,0.278-0.13s0.18-0.093,0.261-0.156c0.244-0.18,0.428-0.4,0.553-0.661s0.187-0.539,0.187-0.834v-1.87
	C16.378,8.507,16.332,8.144,16.239,7.787z M9.987,12.191c-0.093,0.261-0.222,0.498-0.388,0.713c-0.165,0.215-0.362,0.4-0.591,0.557
	c-0.229,0.156-0.482,0.27-0.761,0.339c0,0,0-4.399,0-4.843c0.272,0.069,0.524,0.181,0.756,0.335C9.236,9.445,9.435,9.629,9.6,9.843
	c0.166,0.215,0.295,0.453,0.388,0.713s0.139,0.533,0.139,0.817S10.08,11.931,9.987,12.191z M14.939,9.812
	c-0.125,0.125-0.271,0.187-0.439,0.187s-0.314-0.062-0.439-0.187c-0.124-0.125-0.187-0.271-0.187-0.439
	c0-0.255-0.05-0.496-0.147-0.722c-0.099-0.226-0.233-0.425-0.405-0.596c-0.171-0.171-0.369-0.307-0.595-0.409
	C12.5,7.545,12.26,7.495,12.004,7.495c-0.174,0-0.321-0.061-0.443-0.183c-0.121-0.122-0.183-0.27-0.183-0.443
	s0.062-0.322,0.183-0.443c0.122-0.122,0.27-0.183,0.443-0.183c0.43,0,0.834,0.083,1.214,0.248c0.379,0.166,0.71,0.39,0.991,0.674
	c0.281,0.284,0.504,0.616,0.669,0.996c0.166,0.38,0.248,0.784,0.248,1.213C15.126,9.541,15.063,9.688,14.939,9.812z"/>
</svg>
