<svg version="1.1" id="master" xmlns="http://www.w3.org/2000/svg" xmlns:xlink="http://www.w3.org/1999/xlink" x="0px" y="0px"
	 width="24px" height="24px" viewBox="0 0 24 24" enable-background="new 0 0 24 24" xml:space="preserve">
<path d="M12,2C6.48,2,2,6.48,2,12c0,5.52,4.48,10,10,10c5.52,0,10-4.48,10-10C22,6.48,17.52,2,12,2z M11,19.93
	c-3.95-0.49-7-3.85-7-7.93c0-0.62,0.08-1.21,0.21-1.79L9,15v1c0,1.1,0.9,2,2,2V19.93z M17.9,17.391C17.641,16.58,16.9,16,16,16h-1
	v-3c0-0.55-0.45-1-1-1H8v-2h2c0.55,0,1-0.45,1-1V7h2c1.1,0,2-0.9,2-2V4.59c2.93,1.19,5,4.06,5,7.41
	C20,14.08,19.2,15.971,17.9,17.391z"/>
</svg>
