<svg version="1.1" id="master" xmlns="http://www.w3.org/2000/svg" xmlns:xlink="http://www.w3.org/1999/xlink" x="0px" y="0px"
	 width="24px" height="24px" viewBox="0 0 24 24" enable-background="new 0 0 24 24" xml:space="preserve">
<path d="M7.047,12.11v-4.1h1v2.521c0.492-0.585,1.169-0.754,1.835-0.754c1.116,0,2.356,0.753,2.356,2.379
	c0,0.194-0.013,0.381-0.05,0.557c0.2-0.795,1.062-1.088,2.413-1.121c0.425-0.015,0.912-0.015,1.3-0.015v-0.113
	c0-0.737-0.463-1.037-1.274-1.037c-0.601,0-1.037,0.25-1.087,0.675h-1.063c0.113-1.075,1.25-1.35,2.238-1.35
	c0.887,0,1.662,0.225,2.013,0.85l-0.364-0.7h1.176l1.713,3.438l1.712-3.438H22l-3.101,6.088h-1.121l0.892-1.7l-1.941-3.65
	c0.108,0.212,0.166,0.462,0.166,0.775v2.05c0,0.288,0.009,0.574,0.034,0.838H16c-0.025-0.213-0.038-0.426-0.038-0.638
	c-0.503,0.612-1.101,0.8-1.934,0.8c-1.233,0-1.893-0.65-1.893-1.412c0-0.125,0.012-0.237,0.031-0.338
	c-0.25,1.038-1.134,1.738-2.306,1.738c-0.726,0-1.412-0.263-1.834-0.775c0,0.2-0.012,0.412-0.033,0.612H7.01
	c0.017-0.325,0.033-0.713,0.033-1.038v-0.875H3.019c0.054,0.913,0.682,1.451,1.544,1.451c0.598,0,1.129-0.251,1.307-0.775h1.033
	c-0.2,1.074-1.342,1.438-2.325,1.438C2.792,14.508,2,13.519,2,12.193c0-1.462,0.818-2.425,2.597-2.425
	c1.407,0,2.441,0.739,2.45,2.338V12.11L7.047,12.11z M14.661,12.263c-0.913,0.028-1.476,0.194-1.476,0.792
	c0,0.388,0.301,0.808,1.088,0.808c1.05,0,1.612-0.575,1.612-1.512v-0.108c-0.375,0-0.825,0.005-1.236,0.018h0.01L14.661,12.263z
	 M9.611,13.824c0.925,0,1.563-0.671,1.563-1.683s-0.64-1.684-1.577-1.684c-0.925,0-1.575,0.672-1.575,1.684s0.638,1.683,1.563,1.683
	h0.025H9.611z M5.986,11.73c-0.037-0.938-0.711-1.289-1.438-1.289c-0.787,0-1.412,0.396-1.512,1.289H5.986z"/>
</svg>
