<svg version="1.1" id="master" xmlns="http://www.w3.org/2000/svg" xmlns:xlink="http://www.w3.org/1999/xlink" x="0px" y="0px"
	 width="24px" height="24px" viewBox="0 0 24 24" enable-background="new 0 0 24 24" xml:space="preserve">
<path d="M11.257,2.02c-0.229,0.003-0.503,0.01-0.614,0.019C7.606,2.301,4.891,4.098,3.316,6.883
	c-0.75,1.345-1.194,2.839-1.298,4.376c-0.033,0.431-0.017,1.454,0.029,1.84c0.255,2.234,1.127,4.217,2.558,5.804
	c1.635,1.811,3.822,2.889,6.197,3.053c0.35,0.026,0.869,0.033,0.85,0.01c-0.092-0.027-0.187-0.048-0.282-0.062
	c-1.395-0.275-2.823-0.941-3.98-1.86c-0.784-0.628-1.472-1.368-2.042-2.196c-1.092-1.607-1.708-3.49-1.778-5.432
	c-0.053-1.206,0.105-2.411,0.467-3.562c0.654-2.102,1.975-3.938,3.729-5.19c1.054-0.764,2.257-1.296,3.531-1.563l0.369-0.082H11.257
	z M12.486,2.445C10.872,2.542,9.339,3.083,8.084,4c-1.563,1.142-2.755,2.703-3.4,4.455C4.563,8.786,4.449,9.138,4.449,9.187
	c0,0.01,3.19,0.02,8.592,0.02c7.053,0,8.596-0.006,8.596-0.03c0-0.039-0.127-0.438-0.235-0.732c-0.128-0.35-0.48-1.091-0.684-1.435
	c-0.334-0.569-0.759-1.145-1.229-1.66c-1.376-1.517-2.994-2.445-4.85-2.778C13.985,2.455,13.14,2.406,12.486,2.445L12.486,2.445z
	 M21.858,10.308c-0.017,0-3.993,0-8.841,0.003l-8.811,0.007l-0.009,0.049c-0.03,0.133-0.112,0.901-0.112,1.036
	c0,0.023,1.487,0.027,8.955,0.027H22v-0.063c0-0.085-0.059-0.66-0.088-0.879C21.896,10.354,21.878,10.308,21.858,10.308
	L21.858,10.308z M13.048,12.505c-7.808-0.004-8.942,0-8.952,0.028c-0.017,0.034,0.02,0.465,0.063,0.812
	c0.017,0.131,0.029,0.248,0.029,0.262c0,0.022,1.781,0.028,8.854,0.028h8.854l0.02-0.156c0.036-0.271,0.085-0.809,0.078-0.889
	l-0.006-0.079L13.048,12.505z M13.051,14.77c-7.402,0-8.602,0.003-8.602,0.029c0,0.017,0.045,0.173,0.101,0.35
	c0.369,1.141,0.955,2.199,1.726,3.117c0.235,0.285,0.788,0.863,1.023,1.072c1.307,1.167,2.706,1.847,4.317,2.108
	c0.504,0.078,0.739,0.095,1.458,0.092c0.758,0,1.081-0.026,1.687-0.147c1.758-0.347,3.262-1.209,4.607-2.642
	c1.056-1.123,1.755-2.3,2.19-3.676l0.098-0.304H13.051z"/>
</svg>
