<svg version="1.1" id="master" xmlns="http://www.w3.org/2000/svg" xmlns:xlink="http://www.w3.org/1999/xlink" x="0px" y="0px"
	 width="24px" height="24px" viewBox="0 0 24 24" enable-background="new 0 0 24 24" xml:space="preserve">
<path d="M4.189,11.708c-0.867-1.512-1.044-2.927-0.427-3.994c0.825-1.43,2.896-1.929,5.516-1.453c0.147,0.02,0.25,0.156,0.23,0.303
	c-0.021,0.147-0.155,0.25-0.303,0.23C9.198,6.794,9.19,6.792,9.183,6.791C6.76,6.35,4.913,6.795,4.228,7.983
	c-0.505,0.875-0.354,2.096,0.428,3.458c0.08,0.125,0.044,0.292-0.082,0.372c-0.125,0.08-0.291,0.043-0.371-0.082
	C4.197,11.724,4.193,11.716,4.189,11.708L4.189,11.708z M16.651,6.639c1.532,0.02,2.636,0.498,3.133,1.358
	c0.685,1.186,0.15,3.003-1.435,4.876c-0.104,0.106-0.1,0.277,0.007,0.38c0.107,0.103,0.277,0.1,0.381-0.008
	c0.008-0.008,0.015-0.017,0.021-0.025c1.715-2.026,2.314-4.064,1.49-5.491c-0.606-1.05-1.888-1.604-3.591-1.626
	c-0.147-0.01-0.276,0.102-0.286,0.25c-0.01,0.148,0.103,0.276,0.251,0.286C16.633,6.639,16.643,6.639,16.651,6.639L16.651,6.639z
	 M15.103,19.368c-0.127-0.077-0.293-0.036-0.369,0.092l0,0c-0.78,1.297-1.737,2.003-2.723,2.003c-1.372,0-2.68-1.375-3.508-3.689
	c-0.046-0.142-0.197-0.22-0.339-0.174s-0.219,0.197-0.174,0.339c0.002,0.006,0.004,0.011,0.006,0.016
	C8.893,20.458,10.36,22,12.009,22c1.203,0,2.316-0.819,3.185-2.263C15.271,19.609,15.229,19.444,15.103,19.368L15.103,19.368
	L15.103,19.368z M21.247,17.201c-0.001,0.71-0.578,1.285-1.289,1.284c-0.268-0.001-0.528-0.085-0.746-0.24
	c-2.051,1.207-5.969,0.593-9.655-1.537c-1.57-0.906-2.946-1.998-4.005-3.161c-0.104-0.105-0.104-0.276,0.002-0.381
	c0.106-0.104,0.276-0.103,0.381,0.003c0.005,0.005,0.01,0.011,0.015,0.017c1.021,1.121,2.353,2.179,3.875,3.058
	c3.48,2.01,7.145,2.605,9.019,1.592c-0.352-0.617-0.137-1.402,0.48-1.754c0.617-0.353,1.403-0.137,1.755,0.48
	C21.189,16.755,21.247,16.976,21.247,17.201z M5.325,17.201c0.001,0.71-0.573,1.287-1.284,1.288
	c-0.71,0.002-1.287-0.573-1.288-1.283c-0.001-0.469,0.253-0.901,0.664-1.128c-0.195-2.403,2.33-5.625,6.147-7.829
	c1.585-0.916,3.235-1.565,4.786-1.897c0.147-0.021,0.283,0.082,0.304,0.229c0.019,0.132-0.063,0.258-0.19,0.295
	c-1.495,0.321-3.093,0.95-4.632,1.838c-3.595,2.076-5.97,5.067-5.887,7.206c0.032-0.003,0.063-0.005,0.095-0.005
	C4.75,15.916,5.326,16.492,5.325,17.201L5.325,17.201z M10.725,3.24c0.025-0.71,0.621-1.265,1.331-1.239
	c0.674,0.024,1.215,0.565,1.239,1.239c0,0.02-0.002,0.038-0.003,0.056c2.13,1.1,3.609,4.853,3.609,9.191
	c0,1.783-0.249,3.494-0.714,4.978c-0.038,0.144-0.185,0.229-0.328,0.191c-0.145-0.037-0.229-0.185-0.192-0.328
	c0.002-0.008,0.005-0.016,0.008-0.023c0.447-1.43,0.689-3.088,0.689-4.817c0-4.085-1.358-7.597-3.214-8.656
	c-0.325,0.63-1.1,0.878-1.73,0.553C10.992,4.163,10.724,3.722,10.725,3.24L10.725,3.24z M11.813,11.577
	c-0.502,0.108-0.821,0.604-0.713,1.106c0.108,0.502,0.604,0.821,1.105,0.713s0.821-0.604,0.713-1.106S12.316,11.468,11.813,11.577
	L11.813,11.577z"/>
</svg>
