<svg version="1.1" id="master" xmlns="http://www.w3.org/2000/svg" xmlns:xlink="http://www.w3.org/1999/xlink" x="0px" y="0px"
	 width="256px" height="256px" viewBox="0 0 256 256" enable-background="new 0 0 256 256" xml:space="preserve">
<g>
	<path fill="#47848F" d="M98.973,67.153c-27.95-5.158-50.021,0.288-58.909,15.481c-6.594,11.324-4.73,26.516,4.586,42.57
		c0.715,1.434,2.58,1.863,3.871,1.003c1.434-0.716,1.862-2.58,1.003-3.871c-8.314-14.476-9.89-27.52-4.586-36.836
		c7.309-12.614,27.09-17.487,52.89-12.757c1.576,0.287,3.009-0.716,3.294-2.294C101.409,68.874,100.552,67.441,98.973,67.153z
		 M59.271,144.842c11.324,12.47,25.941,24.08,42.714,33.684c40.565,23.363,83.707,29.669,105.065,15.193
		c1.292-0.86,1.578-2.723,0.717-4.013c-0.859-1.291-2.724-1.576-4.014-0.716c-19.064,13.042-60.056,7.023-98.902-15.338
		c-16.196-9.319-30.529-20.642-41.423-32.681c-1.003-1.147-2.867-1.289-4.015-0.144C58.267,141.83,58.124,143.694,59.271,144.842z"
		/>
	<path fill="#47848F" d="M200.17,141.401c18.347-21.645,24.655-43.432,15.909-58.625c-6.448-11.181-20.21-17.057-38.271-17.344
		c-1.576,0-2.865,1.29-2.865,2.866c0,1.579,1.289,2.866,2.865,2.866c16.34,0.144,28.093,5.304,33.396,14.478
		c7.312,12.613,1.577,32.106-15.336,52.031c-1.004,1.146-0.859,3.009,0.286,4.014C197.305,142.69,199.166,142.547,200.17,141.401
		L200.17,141.401z M153.156,68.014c-16.483,3.583-34.115,10.463-51.028,20.211c-41.996,24.223-69.229,59.912-65.503,85.715
		c0.289,1.575,1.723,2.578,3.296,2.436c1.576-0.287,2.581-1.721,2.438-3.295c-3.44-22.935,22.506-56.618,62.637-79.838
		c16.484-9.46,33.542-16.197,49.45-19.637c1.577-0.286,2.581-1.863,2.149-3.441C156.164,68.73,154.733,67.727,153.156,68.014z"/>
	<path fill="#47848F" d="M85.356,191.855C94.961,218.515,110.584,235,128.214,235c12.901,0,24.655-8.744,33.974-24.224
		c0.858-1.291,0.431-3.155-1.004-3.872c-1.29-0.859-3.153-0.433-3.872,1.001c-8.309,13.909-18.49,21.36-29.098,21.36
		c-14.619,0-28.523-14.621-37.41-39.417c-0.575-1.434-2.148-2.294-3.726-1.721C85.501,188.7,84.785,190.423,85.356,191.855z
		 M172.791,186.694c5.018-15.767,7.599-34.112,7.599-53.175c0-47.443-16.627-88.437-40.278-98.901c-1.433-0.573-3.151,0-3.726,1.433
		c-0.574,1.433,0,3.154,1.433,3.727c21.073,9.316,36.838,48.16,36.838,93.741c0,18.49-2.577,36.12-7.31,51.459
		c-0.431,1.574,0.431,3.151,1.864,3.582C170.644,188.99,172.219,188.128,172.791,186.694L172.791,186.694z M226.688,183.829
		c0-7.597-6.164-13.761-13.762-13.761c-7.596,0-13.759,6.164-13.759,13.761c0,7.596,6.163,13.759,13.759,13.759
		C220.668,197.588,226.688,191.425,226.688,183.829z M220.953,183.829c0,4.443-3.585,8.026-8.029,8.026
		c-4.439,0-8.024-3.583-8.024-8.026c0-4.442,3.583-8.026,8.024-8.026C217.368,175.804,220.953,179.386,220.953,183.829z
		 M43.074,197.588c7.596,0,13.759-6.163,13.759-13.759c0-7.597-6.163-13.761-13.759-13.761c-7.599,0-13.762,6.164-13.762,13.761
		C29.312,191.425,35.474,197.588,43.074,197.588z M43.074,191.855c-4.443,0-8.029-3.583-8.029-8.026
		c0-4.442,3.583-8.026,8.029-8.026c4.442,0,8.026,3.584,8.026,8.026C51.101,188.272,47.518,191.855,43.074,191.855z"/>
	<path fill="#47848F" d="M128.215,48.52c7.598,0,13.761-6.163,13.761-13.759c0-7.596-6.163-13.761-13.761-13.761
		c-7.596,0-13.759,6.163-13.759,13.76C114.455,42.356,120.618,48.52,128.215,48.52z M128.215,42.787
		c-4.442,0-8.027-3.583-8.027-8.027c0-4.444,3.583-8.028,8.027-8.028s8.026,3.583,8.026,8.028
		C136.241,39.205,132.516,42.787,128.215,42.787z M130.223,143.264c-5.306,1.149-10.607-2.291-11.755-7.595
		c-1.147-5.305,2.291-10.607,7.596-11.754c5.302-1.147,10.607,2.293,11.755,7.598C138.966,136.814,135.667,142.119,130.223,143.264z
		"/>
</g>
</svg>
