<svg version="1.1" id="master" xmlns="http://www.w3.org/2000/svg" xmlns:xlink="http://www.w3.org/1999/xlink"
	 x="0px" y="0px" width="24px" height="24px" viewBox="0 0 24 24" enable-background="new 0 0 24 24" xml:space="preserve">
<path d="M21.968,3.544c-0.142-0.752-0.726-1.343-1.476-1.493c-0.896-0.168-0.889-0.021-4.167,2.093
	c-0.358,0.23-0.574,0.626-0.576,1.052v1.299l-4.228,4.225c-0.3-0.445-0.347-1.013-0.124-1.501l0.675-1.45
	c0.171-0.368,0.012-0.805-0.356-0.977c-0.28-0.131-0.612-0.072-0.831,0.147L9.39,8.434C9.071,8.751,8.828,9.136,8.677,9.56
	c-0.273,0.767-0.844,1.391-1.583,1.733l-2.985,1.382c-2.236,0.893-2.828,3.777-1.127,5.479l2.867,2.864
	c1.702,1.699,4.587,1.107,5.482-1.125l1.382-2.984c0.343-0.737,0.968-1.309,1.734-1.581c0.425-0.151,0.81-0.394,1.128-0.711
	l0.842-0.842c0.305-0.303,0.306-0.794,0.003-1.098c-0.206-0.207-0.511-0.28-0.787-0.19l-0.927,0.294
	c-0.495,0.154-1.035,0.05-1.436-0.278L20.03,5.75c0.032,0.002,0.062,0.014,0.094,0.014c1.035,0,1.875-0.839,1.876-1.874
	C22.001,3.774,21.989,3.658,21.968,3.544z M9.095,17.402l-0.441,0.442c-0.122,0.122-0.32,0.122-0.442,0l-2.058-2.057
	c-0.122-0.122-0.123-0.32,0-0.442c0,0,0,0,0,0l0.441-0.441c0.122-0.122,0.32-0.122,0.442,0c0,0,0,0,0,0l2.058,2.056
	c0.123,0.122,0.123,0.319,0.001,0.441C9.096,17.402,9.096,17.402,9.095,17.402z M11.595,14.902l-0.441,0.442
	c-0.122,0.122-0.32,0.122-0.442,0l-2.058-2.057c-0.122-0.122-0.123-0.319,0-0.441c0,0,0,0,0-0.001l0.441-0.441
	c0.122-0.123,0.32-0.123,0.442,0c0,0,0,0,0,0l2.058,2.055C11.718,14.582,11.718,14.779,11.595,14.902
	C11.596,14.902,11.596,14.902,11.595,14.902z"/>
</svg>
