<svg version="1.1" id="master" xmlns="http://www.w3.org/2000/svg" xmlns:xlink="http://www.w3.org/1999/xlink" x="0px" y="0px"
	 width="24px" height="24px" viewBox="0 0 24 24" enable-background="new 0 0 24 24" xml:space="preserve">
<rect fill="none" width="24" height="24"/>
<path d="M18,5c-0.411,0-0.797,0.083-1.169,0.2C16.522,4.494,15.82,4,15,4c-1.104,0-2,0.896-2,2c0,0.738,0.404,1.376,1,1.723V9
	c0,0.552,0.448,1,1,1h0.25c0.139,0,0.25,0.112,0.25,0.25v0.5c0,0.138-0.111,0.25-0.25,0.25H15c-1.104,0-2-0.897-2-2V8.225
	C12.372,7.662,12,6.853,12,6c0-0.353,0.072-0.686,0.185-1H8c-3.313,0-6,2.686-6,6v3.5C2,14.776,2.224,15,2.5,15H3v4.5
	C3,19.776,3.224,20,3.5,20h2C5.776,20,6,19.776,6,19.5v-3.371C7.011,16.678,8.21,17,9.5,17s2.489-0.322,3.5-0.871V19.5
	c0,0.276,0.224,0.5,0.5,0.5h2c0.276,0,0.5-0.224,0.5-0.5V13h2c0.732,0,1.41-0.212,2-0.555V15.5c0,0.276-0.225,0.5-0.5,0.5
	S19,15.776,19,15.5c0-0.275-0.225-0.5-0.5-0.5h-1c-0.276,0-0.5,0.225-0.5,0.5c0,1.464,1.267,2.64,2.762,2.486
	C21.062,17.854,22,16.66,22,15.352V9C22,6.791,20.21,5,18,5z M18.5,9C18.224,9,18,8.776,18,8.5S18.224,8,18.5,8
	C18.775,8,19,8.224,19,8.5S18.775,9,18.5,9z"/>
</svg>
