<svg version="1.1" id="master" xmlns="http://www.w3.org/2000/svg" xmlns:xlink="http://www.w3.org/1999/xlink" x="0px" y="0px"
	 width="24px" height="24px" viewBox="0 0 24 24" enable-background="new 0 0 24 24" xml:space="preserve">
<path d="M20.182,20.892L4.928,5.636L3.818,6.745L5.673,8.6c-0.563,0.31-0.945,0.9-0.945,1.582v9.091c0,1,0.818,1.818,1.818,1.818
	h10.91c0.209,0,0.409-0.045,0.6-0.109L19.072,22L20.182,20.892z M9.182,6.545c0-1.555,1.264-2.818,2.818-2.818
	c1.555,0,2.818,1.264,2.818,2.818v1.818H9.873l9.399,9.4v-7.582c0-1-0.818-1.818-1.817-1.818h-0.909V6.545
	C16.546,4.037,14.509,2,12,2C9.673,2,7.782,3.755,7.509,6l1.673,1.673V6.545z"/>
</svg>
