<svg version="1.1" id="master" xmlns="http://www.w3.org/2000/svg" xmlns:xlink="http://www.w3.org/1999/xlink" x="0px" y="0px"
	 width="24px" height="24px" viewBox="0 0 24 24" enable-background="new 0 0 24 24" xml:space="preserve">
<path d="M17.714,8.667h-0.952V6.762C16.762,4.134,14.628,2,12,2C9.372,2,7.238,4.134,7.238,6.762v1.905H6.286
	c-1.048,0-1.905,0.857-1.905,1.905v9.524C4.381,21.143,5.238,22,6.286,22h11.428c1.048,0,1.905-0.857,1.905-1.904v-9.524
	C19.619,9.524,18.762,8.667,17.714,8.667z M9.047,6.762c0-1.628,1.324-2.952,2.953-2.952c1.629,0,2.952,1.324,2.952,2.952v1.905
	H9.047V6.762z M15.81,16.286h-2.857v2.856h-1.905v-2.856H8.19v-1.905h2.857v-2.857h1.905v2.857h2.857V16.286z"/>
</svg>
