<svg version="1.1" id="master" xmlns="http://www.w3.org/2000/svg" xmlns:xlink="http://www.w3.org/1999/xlink" x="0px" y="0px"
	 width="24px" height="24px" viewBox="0 0 24 24" enable-background="new 0 0 24 24" xml:space="preserve">
<path d="M4.948,2C3.805,2,3.383,2.421,3.383,3.565v13.804c0,0.129,0.006,0.249,0.016,0.359c0.028,0.251,0.03,0.494,0.264,0.769
	c0.021,0.031,0.258,0.205,0.258,0.205c0.125,0.063,0.214,0.106,0.358,0.166l6.945,2.91c0.359,0.165,0.511,0.229,0.772,0.221H12
	c0.264,0.009,0.416-0.056,0.774-0.221l6.945-2.91c0.145-0.06,0.229-0.103,0.358-0.166c0,0,0.237-0.177,0.259-0.205
	c0.233-0.274,0.235-0.518,0.264-0.769c0.011-0.11,0.017-0.23,0.017-0.359V3.564C20.616,2.421,20.194,2,19.051,2H4.948z
	 M16.079,4.591h0.566c0.944,0,1.404,0.46,1.404,1.415v1.566h-1.143V6.069c0-0.306-0.143-0.447-0.438-0.447h-0.195
	c-0.307,0-0.448,0.142-0.448,0.447v4.844c0,0.305,0.142,0.447,0.448,0.447h0.216c0.294,0,0.436-0.142,0.436-0.447V9.18h1.146v1.786
	c0,0.954-0.47,1.423-1.417,1.423h-0.576c-0.951,0-1.418-0.472-1.418-1.423V6.016C14.661,5.064,15.128,4.591,16.079,4.591z
	 M5.922,4.655h2.595v1.064h-1.43v2.17h1.376v1.062H7.087v2.312h1.449v1.062H5.922V4.655z M9.103,4.655h1.83
	c0.948,0,1.417,0.473,1.417,1.427v2.038c0,0.954-0.469,1.424-1.417,1.424h-0.662v2.781H9.103V4.655z M12.876,4.655h1.165v7.669
	h-1.165V4.655z M10.268,5.688v2.825h0.482c0.292,0,0.434-0.142,0.434-0.45V6.138c0-0.308-0.142-0.45-0.434-0.45H10.268z
	 M7.055,14.15h0.173l0.038,0.006h0.063l0.032,0.01h0.032l0.031,0.009l0.031,0.007l0.028,0.006l0.028,0.007L7.54,14.2l0.032,0.01
	l0.025,0.006l0.025,0.01l0.032,0.009l0.025,0.014l0.033,0.012l0.028,0.013l0.025,0.017l0.032,0.012l0.021,0.017l0.032,0.015
	l0.025,0.017l0.028,0.016l0.025,0.019l0.025,0.017l0.025,0.018l0.026,0.02l0.025,0.022l0.025,0.019l-0.019,0.024l-0.023,0.022
	l-0.018,0.026l-0.022,0.024l-0.018,0.022l-0.02,0.021l-0.022,0.025l-0.019,0.024l-0.019,0.023l-0.021,0.024l-0.019,0.025
	l-0.022,0.024L7.792,14.79l-0.019,0.024L7.751,14.84l-0.019,0.024l-0.021,0.022l-0.019,0.025l-0.025-0.019l-0.025-0.022
	l-0.025-0.017l-0.029-0.018L7.566,14.82l-0.028-0.016L7.513,14.79l-0.029-0.017l-0.025-0.013l-0.024-0.013l-0.025-0.009l-0.029-0.01
	l-0.032-0.008l-0.024-0.008l-0.032-0.007L7.26,14.701l-0.032-0.003H7.194l-0.039-0.006H7.093l-0.031,0.003H7.03l-0.032,0.009
	L6.97,14.711L6.942,14.72l-0.031,0.01l-0.025,0.013l-0.031,0.014l-0.023,0.015l-0.025,0.016l-0.025,0.015l-0.022,0.02l-0.021,0.02
	l-0.022,0.019l-0.019,0.022l-0.025,0.021l-0.017,0.025L6.64,14.95l-0.02,0.025l-0.012,0.027l-0.017,0.025l-0.015,0.028l-0.009,0.028
	l-0.013,0.028l-0.008,0.031l-0.004,0.032l-0.009,0.028L6.526,15.24v0.03L6.52,15.303v0.074l0.003,0.033l0.002,0.028l0.003,0.031
	l0.006,0.031l0.009,0.024l0.003,0.032l0.009,0.024l0.01,0.025l0.013,0.033l0.016,0.029l0.012,0.026l0.016,0.024l0.019,0.026
	l0.02,0.024l0.015,0.022l0.025,0.022l0.019,0.021l0.021,0.019l0.025,0.019l0.025,0.02l0.026,0.017l0.025,0.015l0.028,0.013
	l0.031,0.014l0.025,0.012l0.032,0.009l0.032,0.01l0.031,0.007l0.031,0.007l0.032,0.003l0.038,0.003h0.104l0.038-0.006h0.031
	l0.032-0.01l0.032-0.007l0.032-0.01l0.028-0.006l0.028-0.012l0.025-0.014l0.032-0.013l0.019-0.013l0.025-0.016v-0.289H7.09v-0.467
	h1.04v1.04L8.107,16.2l-0.025,0.019L8.06,16.235l-0.025,0.02L8.01,16.27l-0.024,0.02L7.96,16.305l-0.026,0.015l-0.032,0.017
	l-0.028,0.017l-0.025,0.015L7.817,16.38l-0.025,0.017l-0.032,0.012l-0.032,0.013l-0.032,0.013l-0.028,0.012l-0.028,0.01l-0.029,0.01
	l-0.03,0.01l-0.029,0.009l-0.032,0.011l-0.028,0.005l-0.031,0.007L7.43,16.513l-0.032,0.006l-0.031,0.003l-0.032,0.003l-0.032,0.004
	l-0.038,0.003l-0.031,0.003L7.2,16.538H7.037l-0.035-0.007H6.97l-0.031-0.007H6.908l-0.032-0.01L6.844,16.51l-0.032-0.008
	l-0.031-0.005l-0.025-0.011L6.725,16.48l-0.032-0.01l-0.028-0.013l-0.028-0.009l-0.032-0.013l-0.028-0.013l-0.032-0.012L6.52,16.397
	l-0.031-0.015l-0.022-0.016l-0.032-0.015l-0.022-0.018l-0.025-0.016l-0.025-0.019l-0.025-0.019l-0.028-0.019l-0.019-0.02
	l-0.025-0.019l-0.023-0.022l-0.021-0.019l-0.022-0.022L6.18,16.14l-0.023-0.021l-0.018-0.024L6.12,16.07l-0.016-0.024l-0.019-0.024
	l-0.016-0.025l-0.015-0.024l-0.017-0.029l-0.015-0.025L6.01,15.889L5.998,15.86l-0.013-0.029l-0.013-0.027l-0.009-0.025L5.95,15.75
	l-0.007-0.028l-0.009-0.028l-0.007-0.031l-0.009-0.029l-0.007-0.031l-0.002-0.028l-0.006-0.031l-0.003-0.028l-0.003-0.032
	L5.893,15.45L5.89,15.42v-0.175l0.006-0.03v-0.034l0.009-0.033v-0.03l0.01-0.032l0.01-0.03l0.006-0.032l0.009-0.028l0.01-0.032
	l0.009-0.027l0.013-0.032l0.013-0.028l0.013-0.028l0.013-0.028l0.012-0.027l0.016-0.029l0.016-0.024l0.015-0.025l0.017-0.025
	l0.015-0.024l0.02-0.026l0.019-0.025l0.018-0.024l0.023-0.022l0.018-0.021l0.02-0.023l0.024-0.021l0.02-0.023l0.025-0.02
	l0.022-0.021l0.025-0.02l0.025-0.019l0.025-0.016l0.025-0.019l0.025-0.016l0.026-0.017l0.029-0.017l0.031-0.016l0.025-0.015
	l0.032-0.014l0.028-0.012l0.032-0.016l0.025-0.008l0.031-0.011l0.028-0.013l0.028-0.006l0.028-0.01l0.032-0.007l0.028-0.01
	l0.031-0.007h0.032l0.032-0.009h0.032l0.032-0.006h0.031L7.055,14.15z M17.046,14.156h0.172l0.039,0.007h0.063l0.031,0.008h0.038
	l0.031,0.011l0.028,0.006l0.032,0.007l0.03,0.006l0.029,0.007l0.031,0.009l0.031,0.01l0.025,0.006l0.031,0.013l0.032,0.01
	l0.024,0.014l0.031,0.011l0.032,0.014l0.028,0.016l0.022,0.013l0.031,0.017l0.027,0.015l0.026,0.016l0.028,0.02l0.025,0.015
	l0.024,0.019l0.025,0.02l0.024,0.02l-0.018,0.024l-0.017,0.025l-0.02,0.025l-0.018,0.024l-0.02,0.029l-0.016,0.024l-0.019,0.025
	l-0.019,0.025l-0.018,0.025l-0.018,0.024l-0.02,0.025l-0.018,0.025l-0.017,0.029l-0.019,0.024l-0.022,0.025l-0.016,0.025
	l-0.019,0.025l-0.025-0.02l-0.028-0.016l-0.024-0.015l-0.025-0.02l-0.029-0.013l-0.024-0.017l-0.033-0.012l-0.021-0.012
	l-0.032-0.015l-0.025-0.012l-0.024-0.009l-0.028-0.014l-0.031-0.009l-0.032-0.01l-0.031-0.009l-0.034-0.007l-0.031-0.006
	l-0.032-0.007l-0.031-0.003l-0.031-0.004l-0.028-0.002h-0.069l-0.034,0.006l-0.032,0.006l-0.031,0.007l-0.025,0.013l-0.021,0.013
	l-0.028,0.025l-0.02,0.027l-0.013,0.029v0.078l0.017,0.034l0.012,0.02l0.022,0.022l0.031,0.017l0.025,0.015l0.031,0.013l0.032,0.012
	l0.04,0.013l0.025,0.007l0.024,0.01l0.032,0.007l0.024,0.009l0.032,0.007l0.035,0.009l0.034,0.01l0.035,0.01l0.034,0.006l0.031,0.01
	l0.035,0.009l0.031,0.006l0.031,0.01l0.031,0.01l0.032,0.01l0.031,0.01l0.028,0.009l0.031,0.01l0.031,0.013l0.032,0.016l0.031,0.012
	l0.031,0.017l0.032,0.017l0.024,0.016l0.025,0.015l0.028,0.02l0.022,0.017l0.028,0.021l0.021,0.021l0.025,0.026l0.022,0.022
	L18,15.426l0.022,0.031l0.016,0.022l0.012,0.031l0.017,0.022l0.009,0.031l0.01,0.024l0.006,0.032l0.006,0.031l0.007,0.032
	l0.003,0.031l0.004,0.031v0.079l-0.004,0.034l-0.003,0.031l-0.003,0.035l-0.007,0.031l-0.009,0.031l-0.007,0.032l-0.009,0.031
	l-0.013,0.027l-0.013,0.025l-0.014,0.028l-0.015,0.025l-0.02,0.025l-0.017,0.024l-0.015,0.026l-0.021,0.022l-0.019,0.021
	l-0.023,0.02l-0.024,0.021l-0.022,0.02l-0.024,0.02l-0.025,0.015l-0.025,0.02l-0.032,0.016l-0.024,0.013l-0.031,0.017l-0.032,0.012
	l-0.031,0.012l-0.031,0.011l-0.032,0.009l-0.024,0.01l-0.032,0.007l-0.031,0.007l-0.024,0.006l-0.032,0.006h-0.031l-0.03,0.006
	h-0.033l-0.03,0.007h-0.233l-0.031-0.004l-0.032-0.003l-0.034-0.002l-0.032-0.007L16.9,16.51l-0.031-0.006l-0.032-0.007l-0.034-0.01
	l-0.03-0.007l-0.033-0.009l-0.03-0.007l-0.033-0.009l-0.029-0.011l-0.032-0.012l-0.028-0.01l-0.032-0.009l-0.031-0.013l-0.025-0.013
	l-0.031-0.013l-0.024-0.017l-0.032-0.013l-0.028-0.015l-0.022-0.017l-0.03-0.016l-0.023-0.016l-0.028-0.016l-0.025-0.019
	l-0.024-0.02l-0.024-0.018l-0.025-0.02l-0.023-0.02l-0.024-0.021l0.019-0.024l0.022-0.023l0.02-0.025l0.021-0.024l0.02-0.022
	l0.018-0.024l0.022-0.026l0.02-0.021l0.021-0.025l0.02-0.021l0.021-0.024l0.02-0.025l0.018-0.023l0.022-0.024l0.02-0.024
	l0.021-0.022l0.022-0.025l0.021,0.019l0.032,0.02l0.021,0.019l0.032,0.019l0.024,0.017l0.028,0.019l0.025,0.016l0.029,0.013
	l0.024,0.016l0.028,0.013l0.032,0.013l0.024,0.012l0.032,0.01l0.024,0.013l0.032,0.009l0.03,0.01l0.032,0.011l0.031,0.005
	l0.032,0.007l0.031,0.007h0.034l0.031,0.01h0.174l0.031-0.007l0.031-0.007l0.025-0.006l0.024-0.009l0.022-0.015l0.028-0.018
	l0.018-0.022l0.015-0.024l0.009-0.033v-0.071l-0.013-0.031l-0.019-0.024l-0.019-0.02l-0.028-0.02l-0.022-0.013l-0.03-0.012
	l-0.033-0.013l-0.037-0.017l-0.022-0.006l-0.024-0.007l-0.032-0.008l-0.025-0.007l-0.03-0.011l-0.033-0.006l-0.034-0.01l-0.03-0.006
	l-0.036-0.01l-0.031-0.006l-0.03-0.01l-0.032-0.006l-0.031-0.01l-0.032-0.009l-0.03-0.007l-0.029-0.011l-0.027-0.008l-0.029-0.011
	l-0.031-0.012l-0.034-0.014l-0.032-0.012l-0.031-0.013l-0.031-0.016l-0.032-0.016l-0.021-0.016L16.5,15.396l-0.021-0.018
	l-0.028-0.017l-0.019-0.02l-0.022-0.021l-0.025-0.023l-0.019-0.021l-0.019-0.023l-0.018-0.021l-0.015-0.025l-0.016-0.027
	l-0.012-0.023l-0.011-0.024l-0.009-0.029l-0.01-0.024l-0.007-0.031l-0.005-0.028v-0.032l-0.007-0.031V14.82l0.003-0.03l0.004-0.033
	l0.005-0.024l0.007-0.031l0.01-0.025l0.007-0.031l0.013-0.025l0.013-0.031l0.012-0.025l0.017-0.031l0.016-0.025l0.021-0.025
	l0.017-0.024l0.025-0.025l0.021-0.021l0.019-0.026l0.028-0.021l0.019-0.016l0.028-0.02l0.025-0.019l0.024-0.017l0.032-0.016
	l0.024-0.012l0.032-0.016l0.025-0.014l0.032-0.01l0.03-0.013l0.031-0.008l0.022-0.007l0.031-0.007l0.025-0.006l0.031-0.006
	l0.032-0.008l0.031-0.003l0.031-0.003l0.032-0.002L17.046,14.156z M9.348,14.179h0.589l0.013,0.028l0.013,0.027l0.012,0.029
	l0.009,0.031l0.013,0.028l0.012,0.028l0.013,0.028l0.013,0.029l0.009,0.027l0.016,0.031l0.013,0.028l0.012,0.028l0.007,0.029
	l0.013,0.027l0.016,0.028l0.012,0.031l0.013,0.028l0.009,0.028l0.012,0.029l0.017,0.027l0.009,0.028l0.013,0.032l0.009,0.031
	l0.012,0.025l0.017,0.031l0.012,0.025l0.012,0.031l0.01,0.032l0.009,0.024l0.016,0.032l0.013,0.025l0.013,0.03l0.009,0.025
	l0.014,0.032l0.016,0.031l0.013,0.028l0.009,0.028l0.009,0.029l0.012,0.027l0.017,0.028l0.012,0.031l0.014,0.029l0.008,0.028
	l0.014,0.027l0.013,0.029l0.012,0.028l0.012,0.03l0.01,0.028l0.013,0.029l0.016,0.027l0.013,0.028l0.012,0.028l0.007,0.032
	l0.013,0.028l0.016,0.027l0.013,0.029l0.009,0.028l0.013,0.028l0.013,0.031l0.017,0.032l0.008,0.025l0.013,0.03l0.009,0.025
	l0.012,0.032l0.016,0.031l0.013,0.025l0.009,0.031l0.014,0.025l0.009,0.031l0.016,0.025l0.013,0.031l0.009,0.032l0.012,0.025
	l0.014,0.03l0.015,0.025l0.013,0.032l0.008,0.03l0.01,0.024l0.012,0.033l0.017,0.024h-0.652l-0.017-0.028l-0.009-0.027l-0.013-0.028
	l-0.013-0.032l-0.009-0.028l-0.012-0.028l-0.013-0.027l-0.01-0.029l-0.012-0.028l-0.013-0.028l-0.009-0.028l-0.012-0.031
	l-0.013-0.029l-0.01-0.027l-0.012-0.028H9.181L9.168,16.09l-0.009,0.024l-0.012,0.033l-0.016,0.03l-0.007,0.024l-0.012,0.033
	L9.099,16.26L9.09,16.292l-0.012,0.024l-0.013,0.031l-0.01,0.025l-0.012,0.032l-0.012,0.03l-0.013,0.025l-0.009,0.031H8.362
	l0.013-0.031l0.013-0.027L8.4,16.405l0.01-0.032l0.008-0.028l0.017-0.028l0.012-0.027L8.46,16.26l0.009-0.028L8.481,16.2
	l0.017-0.028l0.012-0.028l0.01-0.029l0.009-0.027l0.013-0.028l0.017-0.032l0.011-0.028l0.013-0.028l0.01-0.027l0.012-0.029
	l0.013-0.028l0.012-0.031l0.013-0.032l0.01-0.024l0.013-0.032l0.016-0.024l0.012-0.031l0.009-0.031l0.009-0.025l0.012-0.031
	l0.017-0.025l0.012-0.031l0.014-0.025l0.008-0.031l0.014-0.032l0.016-0.025l0.009-0.03l0.013-0.025l0.01-0.032l0.012-0.031
	l0.016-0.025l0.013-0.031l0.009-0.025l0.012-0.031l0.01-0.025l0.016-0.031l0.013-0.032l0.012-0.028l0.009-0.027l0.012-0.029
	l0.017-0.028l0.012-0.028l0.007-0.031l0.012-0.028l0.013-0.029l0.016-0.027l0.013-0.028l0.009-0.028l0.014-0.032l0.013-0.03
	l0.012-0.025l0.012-0.031l0.01-0.025l0.012-0.031l0.012-0.032l0.017-0.025l0.012-0.03l0.01-0.026L9.2,14.493l0.012-0.024
	l0.017-0.032l0.012-0.031l0.01-0.025l0.012-0.031l0.013-0.025l0.016-0.031l0.01-0.032l0.009-0.025l0.013-0.03L9.348,14.179z
	 M11.175,14.194h0.646l0.018,0.024l0.017,0.029l0.019,0.024l0.016,0.028l0.016,0.025l0.016,0.028l0.015,0.025l0.019,0.029
	l0.016,0.024l0.016,0.025l0.016,0.028l0.016,0.024l0.022,0.028l0.012,0.025l0.017,0.029l0.018,0.024l0.019,0.025l0.013,0.028
	l0.019,0.024l0.017,0.029l0.012,0.024l0.022,0.029l0.016,0.024l0.016,0.029l0.016,0.024l0.015,0.024l0.02,0.029l0.016,0.024
	l0.015,0.029l0.016,0.025l0.016,0.028l0.019,0.024l0.017,0.029l0.015,0.024l0.019-0.024l0.013-0.033l0.019-0.021l0.019-0.032
	l0.018-0.021l0.011-0.031l0.023-0.022l0.016-0.031l0.012-0.022l0.02-0.024l0.018-0.033l0.018-0.021l0.016-0.032l0.016-0.021
	l0.019-0.031l0.016-0.022l0.016-0.032l0.016-0.021l0.017-0.024l0.018-0.032l0.017-0.022l0.016-0.031l0.019-0.021l0.016-0.033
	l0.016-0.021l0.019-0.024l0.017-0.033l0.018-0.021l0.018-0.031l0.016-0.022l0.016-0.032l0.019-0.021l0.016-0.032l0.017-0.021h0.651
	v2.324h-0.612v-1.366l-0.015,0.021l-0.02,0.031l-0.016,0.021l-0.019,0.025l-0.017,0.031l-0.018,0.022l-0.017,0.025l-0.02,0.031
	l-0.015,0.021l-0.016,0.025L12.8,15.435l-0.016,0.032l-0.02,0.021l-0.016,0.025l-0.015,0.031l-0.02,0.021l-0.016,0.025l-0.019,0.031
	l-0.017,0.022l-0.018,0.024l-0.018,0.033l-0.016,0.021l-0.019,0.025l-0.016,0.032l-0.019,0.022l-0.019,0.024l-0.017,0.025
	l-0.016,0.031l-0.019,0.023l-0.019,0.024l-0.012,0.031l-0.022,0.022l-0.016,0.024l-0.019,0.032l-0.017,0.021h-0.012l-0.02-0.028
	l-0.015-0.024l-0.02-0.029l-0.016-0.024l-0.018-0.029l-0.017-0.024l-0.019-0.029l-0.015-0.024l-0.019-0.028l-0.017-0.025
	l-0.022-0.029l-0.012-0.024l-0.02-0.028l-0.019-0.025l-0.017-0.027l-0.018-0.026l-0.016-0.03L12.06,15.58l-0.017-0.028l-0.018-0.024
	l-0.016-0.029l-0.02-0.025l-0.015-0.028l-0.02-0.024l-0.015-0.029l-0.02-0.024l-0.016-0.028l-0.019-0.025l-0.017-0.029l-0.019-0.024
	l-0.016-0.028l-0.022-0.025l-0.012-0.028l-0.02-0.024v1.369h-0.604v-2.3L11.175,14.194z M14.067,14.194h1.832v0.525h-1.226v0.372
	h1.103v0.494h-1.102v0.4h1.241v0.525H14.07v-2.3L14.067,14.194z M9.635,14.905l-0.013,0.032l-0.01,0.024L9.6,14.994l-0.013,0.031
	l-0.009,0.028l-0.012,0.028l-0.013,0.031L9.54,15.145l-0.009,0.026l-0.012,0.03l-0.013,0.025l-0.01,0.032L9.483,15.29l-0.013,0.025
	l-0.009,0.031l-0.013,0.025l-0.013,0.031l-0.013,0.032L9.415,15.46l-0.014,0.031l-0.012,0.032L9.38,15.548L9.367,15.58h0.536
	L9.89,15.548l-0.01-0.027l-0.012-0.032L9.855,15.46l-0.009-0.028l-0.012-0.028l-0.013-0.031l-0.01-0.029l-0.013-0.027l-0.013-0.029
	l-0.009-0.027l-0.013-0.032l-0.01-0.028l-0.013-0.027l-0.013-0.029L9.72,15.113l-0.013-0.03l-0.013-0.032l-0.01-0.025l-0.013-0.031
	L9.66,14.962l-0.009-0.027L9.635,14.905z M8.677,19.259h6.678l-3.409,1.125L8.677,19.259z"/>
</svg>
