<svg version="1.1" id="master" xmlns="http://www.w3.org/2000/svg" xmlns:xlink="http://www.w3.org/1999/xlink"
	 x="0px" y="0px" width="24px" height="24px" viewBox="0 0 24 24" enable-background="new 0 0 24 24" xml:space="preserve">
<path d="M21.45,12.7c0.732-0.731,0.732-1.919,0-2.651l-6.25-6.25c-0.731-0.732-1.919-0.732-2.651,0l-10,10
	c-0.732,0.732-0.732,1.92,0,2.651l3.75,3.75c0.352,0.352,0.829,0.55,1.326,0.55h13.906c0.259,0,0.469-0.21,0.469-0.469v-1.563
	c0-0.259-0.21-0.469-0.469-0.469h-5.63L21.45,12.7z M9.629,10.254l5.366,5.366l-2.629,2.63H7.884l-3.125-3.125L9.629,10.254z"/>
</svg>
