<svg version="1.1" id="master" xmlns="http://www.w3.org/2000/svg" xmlns:xlink="http://www.w3.org/1999/xlink" x="0px" y="0px"
	 width="24px" height="24px" viewBox="0 0 24 24" enable-background="new 0 0 24 24" xml:space="preserve">
<rect fill="none" width="24" height="24"/>
<path d="M20.355,6.7l0.01-0.012l-4.131-4.133l-1.178,1.178L17.4,6.078c-1.045,0.4-1.789,1.4-1.789,2.589
	c0,1.533,1.244,2.778,2.777,2.778c0.4,0,0.766-0.089,1.111-0.233v8.012c0,0.61-0.5,1.11-1.111,1.11s-1.111-0.5-1.111-1.11v-5
	c0-1.223-1-2.223-2.221-2.223h-1.111V4.222C13.945,3,12.943,2,11.722,2H5.056C3.833,2,2.833,3,2.833,4.222V22h11.112v-8.333h1.666
	v5.556c0,1.533,1.244,2.777,2.777,2.777s2.777-1.244,2.777-2.777V8.667C21.166,7.9,20.857,7.2,20.355,6.7z M18.389,9.778
	c-0.611,0-1.111-0.5-1.111-1.111s0.5-1.111,1.111-1.111s1.111,0.5,1.111,1.111S19,9.778,18.389,9.778z M7.278,18.667v-5H5.056
	L9.5,5.333v5.555h2.222L7.278,18.667z"/>
</svg>
