<svg version="1.1" id="master" xmlns="http://www.w3.org/2000/svg" xmlns:xlink="http://www.w3.org/1999/xlink" x="0px" y="0px"
	 width="24px" height="24px" viewBox="0 0 24 24" enable-background="new 0 0 24 24" xml:space="preserve">
<path d="M12,10.9c-0.61,0-1.1,0.49-1.1,1.1c0,0.609,0.49,1.1,1.1,1.1c0.609,0,1.1-0.49,1.1-1.1C13.1,11.39,12.609,10.9,12,10.9z
	 M12,2C6.48,2,2,6.48,2,12c0,5.52,4.48,10,10,10c5.52,0,10-4.48,10-10C22,6.48,17.52,2,12,2z M14.189,14.189L6,18l3.81-8.19L18,6
	L14.189,14.189z"/>
</svg>
