<svg version="1.1" id="icon_x5F_extension" xmlns="http://www.w3.org/2000/svg" xmlns:xlink="http://www.w3.org/1999/xlink" x="0px"
	 y="0px" width="24px" height="24px" viewBox="0 0 24 24" enable-background="new 0 0 24 24" xml:space="preserve">
<path d="M19.619,11.524H18.19v-3.81c0-1.048-0.857-1.905-1.904-1.905h-3.81V4.381C12.477,3.067,11.409,2,10.095,2
	S7.714,3.067,7.714,4.381V5.81h-3.81c-1.048,0-1.896,0.857-1.896,1.905v3.619h1.419C4.848,11.333,6,12.485,6,13.904
	c0,1.42-1.152,2.572-2.571,2.572H2v3.619C2,21.143,2.857,22,3.905,22h3.619v-1.429c0-1.419,1.152-2.571,2.572-2.571
	s2.572,1.152,2.572,2.571V22h3.619c1.047,0,1.904-0.857,1.904-1.904v-3.81h1.429c1.314,0,2.381-1.067,2.381-2.382
	C22,12.591,20.934,11.524,19.619,11.524z"/>
</svg>
