<svg version="1.1" id="master" xmlns="http://www.w3.org/2000/svg" xmlns:xlink="http://www.w3.org/1999/xlink" x="0px" y="0px"
	 width="24px" height="24px" viewBox="0 0 24 24" enable-background="new 0 0 24 24" xml:space="preserve">
<rect fill="none" width="24" height="24"/>
<path d="M12,5.182C7.455,5.182,3.573,8.009,2,12c1.573,3.991,5.455,6.818,10,6.818c4.546,0,8.427-2.827,10-6.818
	C20.427,8.009,16.546,5.182,12,5.182z M12,16.545c-2.509,0-4.545-2.036-4.545-4.545c0-2.509,2.037-4.545,4.545-4.545
	S16.546,9.491,16.546,12C16.546,14.509,14.509,16.545,12,16.545z M12,9.272c-1.509,0-2.727,1.218-2.727,2.728
	c0,1.509,1.218,2.728,2.727,2.728c1.509,0,2.728-1.219,2.728-2.728C14.728,10.491,13.509,9.272,12,9.272z"/>
</svg>
