<svg version="1.1" id="master" xmlns="http://www.w3.org/2000/svg" xmlns:xlink="http://www.w3.org/1999/xlink" x="0px" y="0px"
	 width="24px" height="24px" viewBox="0 0 24 24" enable-background="new 0 0 24 24" xml:space="preserve">
<rect fill="none" width="24" height="24"/>
<path d="M17,3.252c0.684,0,1.33,0.132,1.939,0.396c0.608,0.264,1.139,0.622,1.591,1.074s0.811,0.983,1.074,1.591
	C21.868,6.922,22,7.568,22,8.252v7.496c0,0.689-0.132,1.338-0.396,1.943s-0.622,1.135-1.074,1.587s-0.982,0.81-1.591,1.073
	c-0.609,0.264-1.256,0.396-1.939,0.396c-0.689,0-1.338-0.133-1.943-0.396s-1.135-0.621-1.587-1.073s-0.811-0.981-1.074-1.587
	S12,16.438,12,15.748c0,0.689-0.132,1.338-0.396,1.943s-0.622,1.135-1.074,1.587s-0.982,0.81-1.591,1.073
	C8.33,20.615,7.684,20.748,7,20.748c-0.689,0-1.338-0.133-1.943-0.396S3.922,19.73,3.47,19.278s-0.811-0.981-1.074-1.587
	S2,16.438,2,15.748V8.252c0-0.684,0.132-1.33,0.396-1.939C2.659,5.705,3.018,5.174,3.47,4.722s0.981-0.81,1.587-1.074
	S6.311,3.252,7,3.252c0.684,0,1.33,0.132,1.939,0.396c0.608,0.264,1.139,0.622,1.591,1.074s0.811,0.983,1.074,1.591
	C11.868,6.922,12,7.568,12,8.252c0-0.684,0.132-1.33,0.396-1.939c0.264-0.608,0.622-1.139,1.074-1.591s0.981-0.81,1.587-1.074
	S16.311,3.252,17,3.252z M6.374,17c-0.429,0-0.833-0.082-1.213-0.248c-0.38-0.165-0.712-0.39-0.996-0.674
	c-0.284-0.283-0.507-0.615-0.669-0.996c-0.163-0.379-0.244-0.783-0.244-1.213v1.879c0,0.516,0.099,1.002,0.296,1.457
	c0.197,0.454,0.465,0.852,0.805,1.19c0.339,0.339,0.736,0.607,1.191,0.805c0.455,0.196,0.94,0.296,1.456,0.296
	s1.001-0.1,1.456-0.296c0.455-0.197,0.853-0.466,1.191-0.805c0.34-0.339,0.607-0.736,0.805-1.19
	c0.197-0.455,0.296-0.941,0.296-1.457V8.252c0-0.521-0.098-1.01-0.292-1.465c-0.193-0.455-0.46-0.853-0.8-1.191
	C9.317,5.256,8.92,4.988,8.465,4.792C8.01,4.594,7.521,4.496,7,4.496S5.99,4.594,5.535,4.792C5.08,4.988,4.683,5.256,4.344,5.596
	c-0.34,0.339-0.606,0.736-0.8,1.191C3.35,7.242,3.252,7.73,3.252,8.252v5.617c0-0.429,0.083-0.833,0.248-1.213
	c0.165-0.379,0.389-0.71,0.67-0.991c0.281-0.281,0.611-0.504,0.991-0.669s0.784-0.248,1.213-0.248s0.833,0.083,1.213,0.248
	s0.71,0.389,0.991,0.669c0.281,0.281,0.505,0.612,0.67,0.991c0.165,0.38,0.248,0.784,0.248,1.213c0,0.436-0.082,0.843-0.244,1.223
	c-0.162,0.379-0.386,0.709-0.669,0.99c-0.284,0.281-0.615,0.505-0.992,0.67C7.215,16.918,6.809,17,6.374,17z M7.313,12
	c-0.134,0-0.257,0.025-0.37,0.074c-0.113,0.049-0.212,0.116-0.296,0.2s-0.15,0.184-0.199,0.3c-0.05,0.115-0.074,0.237-0.074,0.365
	c0,0.133,0.024,0.256,0.074,0.369c0.049,0.113,0.117,0.211,0.204,0.291c0.087,0.082,0.187,0.146,0.3,0.195
	c0.113,0.05,0.233,0.074,0.361,0.074c0.127,0,0.247-0.024,0.36-0.074c0.113-0.049,0.213-0.115,0.3-0.199s0.155-0.183,0.205-0.296
	c0.049-0.112,0.073-0.233,0.073-0.36c0-0.128-0.024-0.248-0.073-0.361c-0.05-0.113-0.118-0.213-0.205-0.3s-0.187-0.155-0.3-0.205
	C7.561,12.025,7.44,12,7.313,12z M16.374,17c-0.429,0-0.833-0.082-1.213-0.248c-0.38-0.165-0.712-0.39-0.996-0.674
	c-0.284-0.283-0.507-0.615-0.669-0.996c-0.163-0.379-0.244-0.783-0.244-1.213v1.879c0,0.516,0.099,1.002,0.296,1.457
	c0.197,0.454,0.465,0.852,0.805,1.19c0.339,0.339,0.736,0.607,1.191,0.805c0.455,0.196,0.94,0.296,1.456,0.296
	s1.001-0.1,1.456-0.296c0.455-0.197,0.853-0.466,1.191-0.805c0.34-0.339,0.607-0.736,0.805-1.19
	c0.197-0.455,0.296-0.941,0.296-1.457V8.252c0-0.521-0.098-1.01-0.292-1.465c-0.193-0.455-0.46-0.853-0.8-1.191
	c-0.339-0.339-0.736-0.607-1.191-0.804C18.01,4.594,17.521,4.496,17,4.496s-1.01,0.099-1.465,0.296
	c-0.455,0.197-0.853,0.465-1.191,0.804c-0.34,0.339-0.606,0.736-0.8,1.191c-0.194,0.455-0.292,0.943-0.292,1.465v5.617
	c0-0.429,0.083-0.833,0.248-1.213c0.165-0.379,0.389-0.71,0.67-0.991c0.281-0.281,0.611-0.504,0.991-0.669s0.784-0.248,1.213-0.248
	s0.833,0.083,1.213,0.248s0.71,0.389,0.991,0.669c0.281,0.281,0.505,0.612,0.67,0.991c0.165,0.38,0.248,0.784,0.248,1.213
	c0,0.436-0.082,0.843-0.244,1.223c-0.162,0.379-0.386,0.709-0.669,0.99c-0.284,0.281-0.615,0.505-0.992,0.67
	C17.215,16.918,16.809,17,16.374,17z M17.313,12c-0.134,0-0.257,0.025-0.37,0.074c-0.113,0.049-0.212,0.116-0.296,0.2
	s-0.15,0.184-0.199,0.3c-0.05,0.115-0.074,0.237-0.074,0.365c0,0.133,0.024,0.256,0.074,0.369c0.049,0.113,0.117,0.211,0.204,0.291
	c0.087,0.082,0.187,0.146,0.3,0.195c0.113,0.05,0.233,0.074,0.361,0.074c0.127,0,0.247-0.024,0.36-0.074
	c0.113-0.049,0.213-0.115,0.3-0.199s0.155-0.183,0.205-0.296c0.049-0.112,0.073-0.233,0.073-0.36c0-0.128-0.024-0.248-0.073-0.361
	c-0.05-0.113-0.118-0.213-0.205-0.3s-0.187-0.155-0.3-0.205C17.561,12.025,17.44,12,17.313,12z"/>
</svg>
