<svg version="1.1" id="master" xmlns="http://www.w3.org/2000/svg" xmlns:xlink="http://www.w3.org/1999/xlink" x="0px" y="0px"
	 width="24px" height="24px" viewBox="0 0 24 24" enable-background="new 0 0 24 24" xml:space="preserve">
<rect fill="none" width="24" height="24"/>
<path d="M22,3.103v17.79c0,0.611-0.496,1.104-1.104,1.104h-5.099v-7.742h2.599l0.389-3.016h-2.99v-1.93
	c0-0.875,0.24-1.469,1.495-1.469h1.599V5.138c-0.277-0.035-1.224-0.119-2.33-0.119c-2.305,0-3.885,1.405-3.885,3.99v2.229h-2.607
	v3.016h2.607V22h-9.57C2.496,22,2,21.504,2,20.898V3.103C2,2.496,2.496,2,3.104,2h17.789C21.504,2,22,2.496,22,3.103z"/>
</svg>
