<svg version="1.1" id="icon_facebook" xmlns="http://www.w3.org/2000/svg" xmlns:xlink="http://www.w3.org/1999/xlink" x="0px" y="0px"
	 width="24px" height="24px" viewBox="0 0 24 24" enable-background="new 0 0 24 24" xml:space="preserve">
<path d="M22.5,2.658v18.68c0,0.642-0.521,1.157-1.159,1.157h-5.353v-8.128h2.728l0.409-3.169h-3.141V9.173
	c0-0.918,0.253-1.542,1.57-1.542h1.678V4.795c-0.291-0.038-1.284-0.126-2.446-0.126c-2.419,0-4.078,1.477-4.078,4.19v2.339H9.97
	v3.169h2.738V22.5H2.658c-0.637,0-1.158-0.521-1.158-1.159V2.658C1.5,2.021,2.021,1.5,2.658,1.5h18.68
	C21.979,1.5,22.5,2.021,22.5,2.658z"/>
</svg>
