<svg version="1.1" id="icon_facebook" xmlns="http://www.w3.org/2000/svg" xmlns:xlink="http://www.w3.org/1999/xlink" x="0px"
	 y="0px" width="24px" height="24px" viewBox="0 0 24 24" enable-background="new 0 0 24 24" xml:space="preserve">
<path d="M22,3.103v17.791c0,0.611-0.497,1.102-1.104,1.102h-5.098v-7.74h2.598l0.39-3.019h-2.991V9.308
	c0-0.875,0.239-1.469,1.495-1.469h1.598V5.138c-0.276-0.037-1.223-0.12-2.329-0.12c-2.304,0-3.885,1.407-3.885,3.99v2.228h-2.607
	v3.019h2.607V22H3.103C2.496,22,2,21.503,2,20.896V3.103C2,2.496,2.496,2,3.103,2h17.791C21.503,2,22,2.496,22,3.103z"/>
</svg>
