<svg version="1.1" id="master" xmlns="http://www.w3.org/2000/svg" xmlns:xlink="http://www.w3.org/1999/xlink"
	 x="0px" y="0px" width="24px" height="24px" viewBox="0 0 24 24" enable-background="new 0 0 24 24" xml:space="preserve">
<path d="M15.772,7c-1.098,0-2.113,0.177-3.011,0.502l0.485-4.809c0.042-0.408-0.317-0.739-0.727-0.688C9.407,2.396,7,5.033,7,8.228
	c0,1.098,0.177,2.113,0.502,3.01l-4.809-0.484c-0.408-0.042-0.739,0.316-0.688,0.726C2.396,14.593,5.033,17,8.228,17
	c1.098,0,2.113-0.177,3.01-0.503l-0.484,4.81c-0.041,0.406,0.316,0.738,0.726,0.688C14.593,21.604,17,18.968,17,15.772
	c0-1.098-0.177-2.113-0.503-3.011l4.81,0.485c0.407,0.04,0.738-0.317,0.688-0.727C21.604,9.407,18.968,7,15.772,7z M12,13.25
	c-0.69,0-1.25-0.56-1.25-1.25s0.56-1.25,1.25-1.25s1.25,0.56,1.25,1.25S12.69,13.25,12,13.25z"/>
</svg>
