<svg version="1.1" id="master" xmlns="http://www.w3.org/2000/svg" xmlns:xlink="http://www.w3.org/1999/xlink" x="0px" y="0px"
	 width="24px" height="24px" viewBox="0 0 24 24" enable-background="new 0 0 24 24" xml:space="preserve">
<path d="M16.5,2.825c-1.74,0-3.41,0.81-4.5,2.09c-1.09-1.28-2.76-2.09-4.5-2.09c-3.08,0-5.5,2.42-5.5,5.5
	c0,3.78,3.4,6.859,8.55,11.54l1.45,1.31l1.45-1.32C18.6,15.185,22,12.105,22,8.325C22,5.245,19.58,2.825,16.5,2.825z M12.1,18.375
	L12,18.476l-0.1-0.101C7.14,14.065,4,11.215,4,8.325c0-2,1.5-3.5,3.5-3.5c1.54,0,3.04,0.99,3.57,2.36h1.87
	c0.521-1.37,2.021-2.36,3.561-2.36c2,0,3.5,1.5,3.5,3.5C20,11.215,16.859,14.065,12.1,18.375z"/>
</svg>
