<svg version="1.1" id="master" xmlns="http://www.w3.org/2000/svg" xmlns:xlink="http://www.w3.org/1999/xlink" x="0px" y="0px"
	 width="24px" height="24px" viewBox="0 0 24 24" enable-background="new 0 0 24 24" xml:space="preserve">
<path d="M21.835,8.739c-0.11-0.244-0.264-0.455-0.461-0.635V2.626H8.878v1.583c-0.388-0.22-0.806-0.33-1.252-0.33H5.122
	c-0.343,0-0.666,0.065-0.97,0.195C3.848,4.205,3.583,4.383,3.356,4.609C3.131,4.835,2.952,5.1,2.821,5.404
	c-0.13,0.304-0.195,0.627-0.195,0.97v1.73c-0.197,0.18-0.351,0.391-0.461,0.635C2.055,8.982,2,9.238,2,9.504v10
	c0,0.262,0.049,0.505,0.147,0.73c0.099,0.227,0.233,0.424,0.404,0.592c0.172,0.168,0.37,0.301,0.596,0.4
	c0.227,0.098,0.47,0.147,0.73,0.147h16.244c0.261,0,0.504-0.05,0.73-0.147c0.226-0.1,0.424-0.232,0.596-0.4
	c0.171-0.168,0.306-0.365,0.404-0.592C21.951,20.009,22,19.766,22,19.504v-10C22,9.238,21.945,8.982,21.835,8.739z M8.252,18.252
	c0,0.174-0.061,0.322-0.183,0.443c-0.121,0.122-0.27,0.184-0.443,0.184H5.122c-0.168,0-0.314-0.063-0.439-0.188
	s-0.187-0.271-0.187-0.439V6.374c0-0.168,0.062-0.314,0.187-0.439C4.808,5.81,4.954,5.748,5.122,5.748h2.504
	c0.168,0,0.314,0.062,0.439,0.187C8.189,6.06,8.252,6.206,8.252,6.374V18.252z M11.374,5.13h7.504v0.618h-7.504V5.13z M11.374,7
	h7.504v0.626h-7.504V7z M12,18.879h-1.252v-1.253H12V18.879z M12,17h-1.252v-1.252H12V17z M12,15.131h-1.252v-1.252H12V15.131z
	 M13.878,18.879h-1.252v-1.253h1.252V18.879z M13.878,17h-1.252v-1.252h1.252V17z M13.878,15.131h-1.252v-1.252h1.252V15.131z
	 M15.748,18.879h-1.252v-1.253h1.252V18.879z M15.748,17h-1.252v-1.252h1.252V17z M15.748,15.131h-1.252v-1.252h1.252V15.131z
	 M19.404,18.156c-0.061,0.064-0.132,0.096-0.213,0.096h-1.878c-0.087,0-0.161-0.03-0.223-0.092C17.03,18.1,17,18.025,17,17.939
	c0-0.088,0.03-0.161,0.091-0.223c0.062-0.061,0.136-0.091,0.223-0.091h1.878c0.081,0,0.152,0.032,0.213,0.096
	s0.092,0.136,0.092,0.218C19.496,18.021,19.465,18.093,19.404,18.156z M19.404,16.278c-0.061,0.063-0.132,0.096-0.213,0.096h-1.878
	c-0.087,0-0.161-0.03-0.223-0.091C17.03,16.222,17,16.148,17,16.061c0-0.081,0.032-0.153,0.096-0.217
	c0.063-0.064,0.136-0.096,0.218-0.096h1.878c0.081,0,0.152,0.031,0.213,0.096c0.061,0.063,0.092,0.136,0.092,0.217
	C19.496,16.143,19.465,16.215,19.404,16.278z M19.404,14.408c-0.061,0.064-0.132,0.096-0.213,0.096h-1.878
	c-0.087,0-0.161-0.029-0.223-0.091C17.03,14.352,17,14.278,17,14.191s0.03-0.161,0.091-0.222c0.062-0.062,0.136-0.091,0.223-0.091
	h1.878c0.081,0,0.152,0.031,0.213,0.096c0.061,0.063,0.092,0.136,0.092,0.217S19.465,14.345,19.404,14.408z M19.496,12.626h-8.748
	V10.13h8.748V12.626z"/>
</svg>
