<svg version="1.1" id="master" xmlns="http://www.w3.org/2000/svg" xmlns:xlink="http://www.w3.org/1999/xlink"
	 x="0px" y="0px" width="24px" height="24px" viewBox="0 0 24 24" enable-background="new 0 0 24 24" xml:space="preserve">
<path d="M22,2C19.977,2.14,5.767,3.492,4.774,13.235c-0.121,1.041-0.189,2.087-0.234,3.134l6.987-6.98
	c0.244-0.244,0.641-0.244,0.885,0c0.245,0.244,0.245,0.641,0,0.885L2.275,20.4c-0.367,0.365-0.367,0.959,0,1.324
	c0.366,0.366,0.96,0.366,1.328,0l2.231-2.229c1.644-0.006,3.287-0.099,4.92-0.287c2.088-0.213,3.79-1.034,5.179-2.209H11.99
	l5.735-1.909c0.439-0.582,0.834-1.199,1.188-1.841h-3.17l4.162-2.078C21.543,7.19,21.93,3.026,22,2z"/>
</svg>
