<svg version="1.1" id="master" xmlns="http://www.w3.org/2000/svg" xmlns:xlink="http://www.w3.org/1999/xlink" x="0px" y="0px"
	 width="24px" height="24px" viewBox="0 0 24 24" enable-background="new 0 0 24 24" xml:space="preserve">
<rect fill="none" width="24" height="24"/>
<path d="M12,2c1.38,0,2.5,1.119,2.5,2.5S13.38,7,12,7S9.5,5.881,9.5,4.5S10.619,2,12,2 M16.66,15.835l-1.875-7.5
	c-0.104-0.417-0.48-0.71-0.91-0.71h-0.444c-0.887,0.408-1.937,0.426-2.862,0h-0.444c-0.43,0-0.805,0.293-0.909,0.71l-1.875,7.5
	C7.192,16.426,7.64,17,8.25,17h2.188v4.063c0,0.518,0.42,0.938,0.938,0.938h1.25c0.518,0,0.938-0.42,0.938-0.938V17h2.188
	C16.358,17,16.808,16.427,16.66,15.835z"/>
</svg>
