<svg version="1.1" id="master" xmlns="http://www.w3.org/2000/svg" xmlns:xlink="http://www.w3.org/1999/xlink"
	 x="0px" y="0px" width="24px" height="24px" viewBox="0 0 24 24" enable-background="new 0 0 24 24" xml:space="preserve">
<path d="M19,11l-4-0.5L13.5,10h-0.75L9.099,5.375h1.235C10.698,5.375,11,5.293,11,5.188S10.698,5,10.333,5H6.75v0.375h0.5V10.5h-1.5
	L3.667,8H2.583L2.25,8.333V10.5H2.5V11H4v0.083l-2,0.25v1.333l2,0.249V13H2.5v0.5H2.25v2.167L2.583,16h1.083l2.083-2.5h1.5v5.125
	h-0.5V19h3.583C10.698,19,11,18.918,11,18.813s-0.302-0.188-0.667-0.188H9.099L12.75,14h0.75l1.5-0.5l4-0.5c3-0.667,3-0.831,3-1
	S22,11.667,19,11z"/>
</svg>
