<svg version="1.1" id="master" xmlns="http://www.w3.org/2000/svg" xmlns:xlink="http://www.w3.org/1999/xlink" x="0px" y="0px"
	 width="24px" height="24px" viewBox="0 0 24 24" enable-background="new 0 0 24 24" xml:space="preserve">
<path d="M16.054,9.946L8.108,2L6.854,3.253L8.97,5.369L4.393,9.946c-0.523,0.524-0.523,1.369,0,1.884l4.889,4.889
	c0.258,0.257,0.604,0.391,0.942,0.391c0.337,0,0.685-0.134,0.941-0.391l4.889-4.889C16.578,11.314,16.578,10.47,16.054,9.946z
	 M5.966,10.888l4.258-4.257l4.257,4.257H5.966z M18.222,12.221c0,0-1.777,1.929-1.777,3.111c0,0.977,0.801,1.777,1.777,1.777
	c0.978,0,1.778-0.801,1.778-1.777C20,14.149,18.222,12.221,18.222,12.221z"/>
<path fill-opacity="0.36" d="M0,20h24v4H0V20z"/>
</svg>
