<svg version="1.1" id="master" xmlns="http://www.w3.org/2000/svg" xmlns:xlink="http://www.w3.org/1999/xlink" x="0px" y="0px"
	 width="24px" height="24px" viewBox="0 0 24 24" enable-background="new 0 0 24 24" xml:space="preserve">
<rect fill="none" width="24" height="24"/>
<path d="M20,19.59V8l-6-6H6C4.9,2,4.01,2.9,4.01,4L4,20c0,1.1,0.89,2,1.99,2H18c0.45,0,0.85-0.15,1.189-0.4l-4.43-4.43
	C13.96,17.689,13.02,18,12,18c-2.76,0-5-2.24-5-5s2.24-5,5-5s5,2.24,5,5c0,1.02-0.311,1.96-0.83,2.75L20,19.59z M9,13
	c0,1.66,1.34,3,3,3s3-1.34,3-3s-1.34-3-3-3S9,11.34,9,13z"/>
</svg>
