<svg version="1.1" id="master" xmlns="http://www.w3.org/2000/svg" xmlns:xlink="http://www.w3.org/1999/xlink"
	 x="0px" y="0px" width="24px" height="24px" viewBox="0 0 24 24" enable-background="new 0 0 24 24" xml:space="preserve">
<path d="M20.205,3.029l-6.563,1.094c-0.444,0.074-0.393,0.526-0.393,0.69h-2.279C11.389,3.41,10.338,2,8.875,2
	c-1.541,0-2.592,1.55-2.04,2.977c-2.033,0.509-2.944,2.117-3.518,3.55C3.125,9.008,3.358,9.553,3.839,9.745
	C4.32,9.938,4.866,9.704,5.058,9.223c1.124-2.81,2.37-2.536,4.754-2.536v1.058C8.19,8.169,7,9.668,7,11.422v9.64
	C7,21.58,7.42,22,7.938,22h5.625c0.518,0,0.938-0.42,0.938-0.938v-9.688c0-1.747-1.194-3.215-2.813-3.632V6.688h1.563
	c0,0.116-0.066,0.614,0.393,0.69l6.563,1.094c0.284,0.048,0.545-0.172,0.545-0.462V3.491C20.75,3.201,20.489,2.981,20.205,3.029z
	 M8.875,4.813c-0.345,0-0.625-0.28-0.625-0.625s0.28-0.625,0.625-0.625S9.5,3.843,9.5,4.188S9.22,4.813,8.875,4.813z"/>
</svg>
