<svg version="1.1" id="master" xmlns="http://www.w3.org/2000/svg" xmlns:xlink="http://www.w3.org/1999/xlink" x="0px" y="0px"
	 width="24px" height="24px" viewBox="0 0 24 24" enable-background="new 0 0 24 24" xml:space="preserve">
<path d="M11.389,3.327c-0.069-0.07-0.104-0.154-0.104-0.253V2.358c0-0.1,0.035-0.184,0.104-0.253C11.458,2.035,11.543,2,11.643,2
	c0.099,0,0.184,0.035,0.253,0.104C11.965,2.174,12,2.258,12,2.358v0.716c0,0.099-0.035,0.184-0.104,0.253
	c-0.069,0.069-0.154,0.104-0.253,0.104C11.543,3.432,11.458,3.396,11.389,3.327z M11.643,6.284c0.099,0,0.184-0.035,0.253-0.104
	C11.965,6.11,12,6.026,12,5.926V4.495c0-0.093-0.036-0.176-0.109-0.249s-0.155-0.109-0.248-0.109s-0.176,0.037-0.249,0.109
	s-0.109,0.156-0.109,0.249v1.431c0,0.1,0.035,0.184,0.104,0.253C11.458,6.25,11.543,6.284,11.643,6.284z M7.1,7.606
	c0.072,0.073,0.159,0.109,0.258,0.109c0.093,0,0.175-0.037,0.244-0.109s0.104-0.156,0.104-0.249c0-0.1-0.033-0.182-0.1-0.249
	L6.175,5.678C6.108,5.612,6.025,5.579,5.927,5.579c-0.093,0-0.176,0.035-0.249,0.104c-0.072,0.069-0.109,0.15-0.109,0.243
	c0,0.1,0.037,0.186,0.109,0.259L7.1,7.606z M8.789,5.568c0.093,0,0.174-0.036,0.244-0.109c0.069-0.073,0.104-0.156,0.104-0.249
	S9.103,5.035,9.033,4.962c-0.07-0.073-0.151-0.109-0.244-0.109c-0.1,0-0.184,0.035-0.253,0.104c-0.07,0.07-0.104,0.154-0.104,0.254
	c0,0.099,0.034,0.184,0.104,0.253C8.605,5.534,8.689,5.568,8.789,5.568z M4.495,12h1.432c0.099,0,0.184-0.035,0.253-0.104
	c0.069-0.069,0.104-0.154,0.104-0.253c0-0.099-0.035-0.184-0.104-0.253c-0.069-0.07-0.154-0.104-0.253-0.104H4.495
	c-0.1,0-0.184,0.035-0.254,0.104c-0.069,0.069-0.104,0.154-0.104,0.253c0,0.1,0.035,0.184,0.104,0.253
	C4.312,11.965,4.396,12,4.495,12z M4.495,9.147c0.093,0,0.176-0.036,0.248-0.109c0.073-0.073,0.109-0.155,0.109-0.249
	c0-0.099-0.034-0.184-0.104-0.253C4.679,8.466,4.595,8.432,4.495,8.432S4.312,8.466,4.241,8.536C4.172,8.605,4.137,8.69,4.137,8.789
	c0,0.093,0.037,0.176,0.109,0.249C4.319,9.111,4.402,9.147,4.495,9.147z M4.743,4.753c0.073-0.073,0.109-0.156,0.109-0.249
	c0-0.106-0.033-0.192-0.099-0.258L4.038,3.531C3.972,3.465,3.886,3.432,3.779,3.432c-0.093,0-0.176,0.036-0.248,0.109
	C3.458,3.614,3.422,3.696,3.422,3.789c0,0.093,0.036,0.176,0.109,0.249l0.715,0.716c0.073,0.073,0.156,0.109,0.249,0.109
	S4.671,4.827,4.743,4.753z M19.962,20.469c0.073,0.073,0.156,0.109,0.249,0.109s0.176-0.036,0.248-0.109
	c0.073-0.072,0.109-0.155,0.109-0.248c0-0.105-0.033-0.192-0.1-0.258l-0.715-0.717c-0.066-0.066-0.153-0.1-0.259-0.1
	c-0.093,0-0.176,0.037-0.249,0.109c-0.072,0.074-0.109,0.156-0.109,0.249s0.037,0.176,0.109,0.249L19.962,20.469z M4.748,14.252
	c-0.069-0.07-0.153-0.105-0.253-0.105s-0.184,0.035-0.254,0.105c-0.069,0.069-0.104,0.154-0.104,0.253
	c0,0.1,0.035,0.185,0.104,0.253c0.07,0.07,0.154,0.105,0.254,0.105s0.184-0.035,0.253-0.105c0.07-0.068,0.104-0.153,0.104-0.253
	C4.853,14.406,4.818,14.321,4.748,14.252z M14.505,5.568c0.1,0,0.183-0.035,0.249-0.104c0.065-0.07,0.099-0.154,0.099-0.253
	c0-0.1-0.033-0.184-0.099-0.254c-0.066-0.069-0.149-0.104-0.249-0.104s-0.184,0.035-0.253,0.104c-0.07,0.07-0.104,0.154-0.104,0.254
	c0,0.099,0.034,0.184,0.104,0.253C14.321,5.534,14.405,5.568,14.505,5.568z M3.063,11.284H2.357c-0.099,0-0.184,0.035-0.253,0.104
	C2.035,11.458,2,11.543,2,11.642c0,0.1,0.035,0.184,0.104,0.253C2.174,11.965,2.259,12,2.357,12h0.706
	c0.1,0,0.186-0.035,0.259-0.104c0.072-0.069,0.109-0.154,0.109-0.253c0-0.099-0.037-0.184-0.109-0.253
	C3.249,11.319,3.163,11.284,3.063,11.284z M3.779,19.146c-0.1,0-0.183,0.033-0.248,0.1l-0.716,0.717
	c-0.073,0.072-0.109,0.158-0.109,0.258c0,0.093,0.036,0.176,0.109,0.248c0.072,0.073,0.155,0.109,0.248,0.109
	c0.1,0,0.186-0.036,0.259-0.109l0.716-0.715c0.066-0.066,0.099-0.149,0.099-0.249c0-0.099-0.034-0.184-0.104-0.253
	C3.963,19.182,3.879,19.146,3.779,19.146z M15.927,7.716c0.099,0,0.186-0.037,0.258-0.109l1.432-1.421
	c0.066-0.066,0.1-0.152,0.1-0.259c0-0.099-0.035-0.182-0.104-0.249c-0.069-0.066-0.154-0.099-0.254-0.099
	c-0.099,0-0.182,0.033-0.248,0.099l-1.432,1.432c-0.072,0.073-0.109,0.156-0.109,0.249s0.037,0.176,0.109,0.249
	C15.751,7.679,15.834,7.716,15.927,7.716z M18.779,4.863c0.1,0,0.186-0.036,0.259-0.109l0.716-0.716
	c0.065-0.066,0.099-0.149,0.099-0.249c0-0.099-0.034-0.184-0.104-0.253c-0.069-0.069-0.153-0.104-0.253-0.104
	s-0.183,0.033-0.249,0.099l-0.715,0.716c-0.073,0.073-0.109,0.159-0.109,0.258c0,0.093,0.036,0.176,0.109,0.249
	C18.604,4.827,18.687,4.863,18.779,4.863z M18.789,11.284h-1.432c-0.099,0-0.184,0.035-0.253,0.104
	C17.035,11.458,17,11.543,17,11.642c0,0.1,0.035,0.184,0.104,0.253C17.174,11.965,17.259,12,17.357,12h1.432
	c0.1,0,0.185-0.035,0.254-0.104c0.069-0.069,0.104-0.154,0.104-0.253c0-0.099-0.035-0.184-0.104-0.253
	C18.974,11.319,18.889,11.284,18.789,11.284z M18.789,14.146c-0.1,0-0.184,0.035-0.253,0.105c-0.07,0.069-0.104,0.154-0.104,0.253
	c0,0.1,0.034,0.185,0.104,0.253c0.069,0.07,0.153,0.105,0.253,0.105s0.185-0.035,0.254-0.105c0.069-0.068,0.104-0.153,0.104-0.253
	c0-0.099-0.035-0.184-0.104-0.253C18.974,14.182,18.889,14.146,18.789,14.146z M15.568,14.146h-1.421v1.432
	c0,0.199-0.073,0.367-0.219,0.502c-0.146,0.137-0.315,0.204-0.507,0.204c-0.173,0-0.306-0.041-0.398-0.124s-0.195-0.181-0.308-0.293
	L12,15.15c-0.06-0.059-0.121-0.115-0.184-0.168c-0.063-0.053-0.121-0.116-0.174-0.189c-0.054,0.073-0.111,0.137-0.175,0.189
	c-0.063,0.053-0.124,0.109-0.184,0.168l-0.716,0.717c-0.112,0.112-0.215,0.21-0.308,0.293s-0.229,0.124-0.408,0.124
	c-0.191,0-0.359-0.069-0.502-0.208c-0.143-0.14-0.214-0.305-0.214-0.498v-1.432H7.716c-0.192,0-0.359-0.07-0.502-0.213
	S7,13.623,7,13.432c0-0.199,0.069-0.368,0.209-0.508l1.223-1.232L7.209,10.36C7.069,10.208,7,10.039,7,9.853
	c0-0.199,0.069-0.366,0.209-0.502c0.139-0.136,0.308-0.204,0.507-0.204h1.421V7.716c0-0.199,0.071-0.368,0.214-0.507
	S9.664,7,9.863,7c0.099,0,0.188,0.019,0.268,0.055c0.08,0.037,0.156,0.088,0.229,0.154l1.283,1.223l1.282-1.223
	C13.077,7.07,13.246,7,13.432,7c0.192,0,0.359,0.071,0.502,0.214s0.214,0.31,0.214,0.502v1.431h1.421
	c0.199,0,0.368,0.07,0.507,0.209c0.14,0.139,0.209,0.308,0.209,0.507c0,0.113-0.017,0.204-0.05,0.273
	c-0.033,0.069-0.086,0.144-0.159,0.224l-1.223,1.332l1.223,1.232c0.14,0.14,0.209,0.309,0.209,0.508
	c0,0.191-0.071,0.359-0.214,0.502S15.761,14.146,15.568,14.146z M14.853,13.074c0-0.106-0.033-0.193-0.099-0.26l-1.174-1.172
	l1.174-1.173c0.065-0.066,0.099-0.152,0.099-0.258c0-0.093-0.034-0.176-0.104-0.249c-0.069-0.073-0.15-0.109-0.243-0.109h-1.073
	V8.789c0-0.093-0.037-0.175-0.109-0.249c-0.073-0.073-0.156-0.109-0.249-0.109c-0.105,0-0.191,0.033-0.258,0.099l-1.173,1.183
	l-1.174-1.183c-0.065-0.066-0.152-0.099-0.258-0.099c-0.093,0-0.176,0.036-0.249,0.109C9.89,8.614,9.853,8.696,9.853,8.789v1.064
	H8.789c-0.093,0-0.176,0.036-0.248,0.109c-0.073,0.073-0.109,0.156-0.109,0.249c0,0.106,0.033,0.192,0.1,0.258l1.183,1.173
	l-1.183,1.172c-0.066,0.066-0.1,0.153-0.1,0.26c0,0.099,0.034,0.184,0.104,0.253c0.069,0.069,0.153,0.104,0.253,0.104h1.063v1.073
	c0,0.093,0.037,0.174,0.109,0.243c0.073,0.07,0.156,0.105,0.249,0.105c0.105,0,0.192-0.033,0.258-0.1l1.174-1.174l1.173,1.174
	c0.066,0.066,0.152,0.1,0.258,0.1c0.093,0,0.176-0.035,0.249-0.105c0.072-0.069,0.109-0.15,0.109-0.243v-1.073h1.073
	c0.093,0,0.174-0.037,0.243-0.109C14.818,13.249,14.853,13.166,14.853,13.074z M18.789,8.432c-0.1,0-0.184,0.035-0.253,0.104
	c-0.07,0.07-0.104,0.154-0.104,0.253c0,0.093,0.036,0.176,0.109,0.249c0.072,0.073,0.155,0.109,0.248,0.109s0.176-0.036,0.249-0.109
	c0.072-0.073,0.109-0.155,0.109-0.249c0-0.099-0.035-0.184-0.104-0.253C18.974,8.466,18.889,8.432,18.789,8.432z M16.185,15.678
	c-0.066-0.066-0.152-0.1-0.258-0.1c-0.093,0-0.176,0.037-0.249,0.109c-0.072,0.073-0.109,0.156-0.109,0.249s0.037,0.175,0.109,0.249
	l2.147,2.137c0.072,0.072,0.155,0.109,0.248,0.109s0.174-0.037,0.244-0.109c0.069-0.073,0.104-0.156,0.104-0.248
	c0-0.1-0.033-0.184-0.1-0.249L16.185,15.678z M21.643,11.284h-0.716c-0.093,0-0.174,0.037-0.244,0.109
	c-0.069,0.073-0.104,0.156-0.104,0.249s0.035,0.176,0.104,0.249C20.753,11.964,20.834,12,20.927,12h0.716
	c0.099,0,0.184-0.035,0.253-0.104C21.965,11.826,22,11.742,22,11.642c0-0.099-0.035-0.184-0.104-0.253
	C21.826,11.319,21.741,11.284,21.643,11.284z M7.357,15.578c-0.105,0-0.191,0.033-0.258,0.1l-2.138,2.147
	c-0.072,0.073-0.109,0.155-0.109,0.249c0,0.092,0.037,0.175,0.109,0.248c0.073,0.072,0.156,0.109,0.249,0.109
	c0.1,0,0.186-0.037,0.258-0.109l2.138-2.137c0.066-0.066,0.1-0.15,0.1-0.249c0-0.093-0.035-0.176-0.104-0.249
	C7.532,15.615,7.45,15.578,7.357,15.578z M12.154,16.344c-0.183-0.199-0.354-0.377-0.512-0.537c-0.159,0.16-0.33,0.338-0.513,0.537
	c-0.182,0.199-0.369,0.354-0.562,0.467V22h2.147v-5.189C12.523,16.698,12.336,16.543,12.154,16.344z M14.505,17.716
	c-0.1,0-0.184,0.034-0.253,0.104c-0.07,0.069-0.104,0.154-0.104,0.254c0,0.099,0.034,0.184,0.104,0.253
	c0.069,0.069,0.153,0.104,0.253,0.104s0.183-0.035,0.249-0.104c0.065-0.069,0.099-0.154,0.099-0.253c0-0.1-0.033-0.185-0.099-0.254
	C14.688,17.75,14.604,17.716,14.505,17.716z M12.397,10.887c-0.1-0.1-0.214-0.177-0.343-0.233c-0.129-0.057-0.267-0.085-0.412-0.085
	c-0.146,0-0.284,0.028-0.413,0.085c-0.129,0.056-0.243,0.134-0.343,0.233s-0.178,0.214-0.233,0.343
	c-0.057,0.129-0.085,0.267-0.085,0.413c0,0.153,0.028,0.293,0.085,0.422c0.056,0.129,0.132,0.242,0.229,0.338
	c0.096,0.096,0.209,0.173,0.338,0.229c0.129,0.057,0.27,0.085,0.423,0.085c0.146,0,0.284-0.028,0.417-0.085
	c0.133-0.056,0.247-0.132,0.343-0.229c0.097-0.096,0.173-0.208,0.229-0.338c0.057-0.129,0.085-0.27,0.085-0.422
	c0-0.146-0.028-0.283-0.085-0.413C12.575,11.101,12.497,10.986,12.397,10.887z M8.789,17.716c-0.1,0-0.184,0.034-0.253,0.104
	c-0.07,0.069-0.104,0.154-0.104,0.254c0,0.099,0.034,0.184,0.104,0.253c0.069,0.069,0.153,0.104,0.253,0.104
	c0.093,0,0.174-0.037,0.244-0.109c0.069-0.073,0.104-0.156,0.104-0.248c0-0.094-0.034-0.176-0.104-0.249
	C8.963,17.752,8.882,17.716,8.789,17.716z"/>
</svg>
