<svg version="1.1" id="master" xmlns="http://www.w3.org/2000/svg" xmlns:xlink="http://www.w3.org/1999/xlink" x="0px" y="0px"
	 width="24px" height="24px" viewBox="0 0 24 24" enable-background="new 0 0 24 24" xml:space="preserve">
<rect fill="none" width="24" height="24"/>
<path d="M2,2v20h20V2H2z M11.86,16.96c0.76-0.239,1.4-1.04,1.531-1.63c0.129-0.561-0.101-1.051-0.201-1.6
	c-0.08-0.461-0.069-0.851,0.08-1.28c0.541,1.21,2.15,1.64,1.98,3.18C15.061,17.33,13.141,18.01,11.86,16.96z M20,20h-2v-2h-2.02
	c0.629-0.84,1.02-1.87,1.02-3c0-1.891-1.09-2.85-1.85-3.37C12.2,9.61,13,7,13,7c-6.73,3.57-6.02,7.471-6,8
	c0.03,0.96,0.49,2.07,1.23,3H6v2H4V4h16V20z"/>
</svg>
