<svg version="1.1" id="master" xmlns="http://www.w3.org/2000/svg" xmlns:xlink="http://www.w3.org/1999/xlink"
	 x="0px" y="0px" width="24px" height="24px" viewBox="0 0 24 24" enable-background="new 0 0 24 24" xml:space="preserve">
<path d="M2,5.889v12.223c0,0.92,0.747,1.667,1.667,1.667h1.667V4.222H3.667C2.747,4.222,2,4.969,2,5.889z M6.444,19.778h11.11V4.222
	H6.444V19.778z M8.667,11.167c0-0.152,0.125-0.278,0.278-0.278h1.944V8.945c0-0.153,0.125-0.278,0.278-0.278h1.667
	c0.153,0,0.278,0.125,0.278,0.278v1.944h1.943c0.153,0,0.278,0.125,0.278,0.278v1.667c0,0.153-0.125,0.278-0.278,0.278h-1.943v1.943
	c0,0.153-0.125,0.278-0.278,0.278h-1.667c-0.152,0-0.278-0.125-0.278-0.278v-1.943H8.944c-0.153,0-0.278-0.125-0.278-0.278V11.167z
	 M20.333,4.222h-1.666v15.556h1.666c0.92,0,1.667-0.747,1.667-1.667V5.889C22,4.969,21.253,4.222,20.333,4.222z"/>
</svg>
