<svg version="1.1" id="master" xmlns="http://www.w3.org/2000/svg" xmlns:xlink="http://www.w3.org/1999/xlink" x="0px" y="0px"
	 width="24px" height="24px" viewBox="0 0 24 24" enable-background="new 0 0 24 24" xml:space="preserve">
<rect fill="none" width="24" height="24"/>
<path d="M13.357,6.445c-3.124,0-5.852,1.902-7.37,3.529L2.955,7.68c-0.421-0.318-1.05,0.021-0.942,0.509L2.852,12l-0.84,3.812
	c-0.108,0.488,0.521,0.826,0.942,0.508l3.032-2.293c1.519,1.627,4.247,3.527,7.371,3.527C18.131,17.555,22,13.111,22,12
	C22,10.889,18.131,6.445,13.357,6.445z M16.393,12.834c-0.459,0-0.833-0.373-0.833-0.833s0.374-0.833,0.833-0.833
	c0.461,0,0.834,0.373,0.834,0.833S16.854,12.834,16.393,12.834z"/>
</svg>
