<svg version="1.1" id="master" xmlns="http://www.w3.org/2000/svg" xmlns:xlink="http://www.w3.org/1999/xlink" x="0px" y="0px"
	 width="24px" height="24px" viewBox="0 0 24 24" enable-background="new 0 0 24 24" xml:space="preserve">
<path d="M16.373,3.243c0.313,0,0.654,0.013,1.025,0.039c0.371,0.026,0.746,0.068,1.125,0.126c0.379,0.058,0.75,0.132,1.107,0.222
	c0.359,0.09,0.686,0.195,0.975,0.317l0.773,0.331v11.456l-0.295-0.122c-0.436-0.18-0.83-0.338-1.184-0.474s-0.707-0.251-1.061-0.343
	c-0.352-0.094-0.725-0.162-1.115-0.209c-0.393-0.047-0.842-0.07-1.352-0.07c-0.262,0-0.533,0.01-0.813,0.027
	c-0.281,0.017-0.564,0.046-0.848,0.086c-0.285,0.041-0.563,0.095-0.836,0.161c-0.271,0.067-0.529,0.149-0.773,0.247
	c-0.307,0.129-0.637,0.236-0.99,0.326c-0.354,0.09-0.716,0.164-1.087,0.223c-0.371,0.058-0.74,0.1-1.108,0.125
	C9.55,15.737,9.201,15.75,8.871,15.75c-0.417,0-0.836-0.016-1.256-0.047c-0.42-0.032-0.833-0.098-1.239-0.195V22h-3.12V5.703
	c-0.203-0.203-0.359-0.436-0.47-0.7c-0.11-0.264-0.165-0.54-0.165-0.83c0-0.301,0.058-0.583,0.174-0.847
	c0.116-0.264,0.274-0.494,0.474-0.691c0.2-0.197,0.432-0.352,0.695-0.465C4.228,2.057,4.511,2,4.812,2
	c0.313,0,0.603,0.06,0.869,0.178s0.499,0.28,0.695,0.482S6.729,3.1,6.842,3.369c0.113,0.269,0.169,0.558,0.169,0.865
	c0,0.029-0.006,0.061-0.018,0.096c0.614,0.104,1.24,0.156,1.877,0.156c0.376,0,0.753-0.018,1.13-0.052
	c0.377-0.035,0.748-0.092,1.113-0.174c0.318-0.063,0.628-0.15,0.93-0.261c0.302-0.11,0.609-0.211,0.921-0.304
	c0.551-0.156,1.113-0.271,1.686-0.343C15.225,3.279,15.799,3.243,16.373,3.243z M20.152,6.354c-0.201-0.075-0.408-0.14-0.621-0.195
	c-0.211-0.055-0.424-0.106-0.639-0.152V4.738l-0.096-0.026c-0.191-0.046-0.383-0.087-0.578-0.122
	c-0.193-0.035-0.389-0.052-0.586-0.052v1.269c-0.209-0.023-0.418-0.042-0.627-0.057c-0.207-0.014-0.416-0.021-0.625-0.021V4.486
	c-0.209,0-0.416,0.006-0.621,0.018s-0.414,0.023-0.621,0.035v1.269c-0.215,0.023-0.426,0.049-0.631,0.078
	c-0.205,0.029-0.41,0.069-0.613,0.122V4.729c-0.213,0.017-0.43,0.063-0.646,0.139c-0.217,0.076-0.422,0.154-0.613,0.235v1.251
	c-0.203,0.087-0.41,0.16-0.622,0.217c-0.211,0.058-0.424,0.11-0.639,0.157V5.494c-0.186,0.012-0.377,0.045-0.574,0.1
	c-0.197,0.055-0.388,0.083-0.574,0.083c-0.018,0-0.035-0.001-0.052-0.004c-0.017-0.003-0.035-0.004-0.052-0.004v1.251
	C9.92,6.943,9.714,6.96,9.506,6.972C9.297,6.983,9.088,6.989,8.88,6.989v-1.26c-0.214,0-0.426-0.01-0.635-0.031
	c-0.208-0.02-0.417-0.03-0.625-0.03v1.251c-0.209-0.023-0.417-0.05-0.626-0.083C6.785,6.805,6.58,6.769,6.376,6.729V5.494
	c-0.214-0.046-0.426-0.1-0.634-0.161c-0.209-0.061-0.415-0.138-0.617-0.23c0.186-0.087,0.339-0.213,0.46-0.378
	C5.707,4.56,5.768,4.376,5.768,4.173c0-0.127-0.026-0.248-0.078-0.36C5.638,3.699,5.568,3.601,5.481,3.517s-0.188-0.15-0.304-0.2
	C5.061,3.268,4.939,3.243,4.812,3.243S4.564,3.268,4.451,3.317c-0.113,0.049-0.213,0.116-0.3,0.2S3.996,3.699,3.947,3.813
	c-0.049,0.113-0.074,0.233-0.074,0.36c0,0.203,0.055,0.384,0.166,0.543c0.11,0.159,0.258,0.279,0.443,0.361v15.68h0.643v-6.866
	c0.203,0.081,0.408,0.15,0.617,0.209c0.208,0.058,0.42,0.109,0.634,0.156v-1.252c0.203,0.041,0.409,0.077,0.617,0.109
	c0.208,0.031,0.417,0.062,0.626,0.09v1.252c0.214,0.018,0.426,0.032,0.634,0.044s0.417,0.017,0.626,0.017v-1.26
	c0.411,0,0.826-0.018,1.243-0.053v1.252h0.035c0.197,0,0.401-0.022,0.613-0.069c0.211-0.046,0.413-0.09,0.604-0.13v-1.252
	c0.214-0.047,0.426-0.099,0.635-0.156c0.208-0.059,0.414-0.127,0.618-0.209v1.252c0.045-0.018,0.129-0.048,0.246-0.092
	c0.119-0.043,0.246-0.085,0.379-0.125c0.133-0.041,0.26-0.078,0.379-0.109c0.117-0.031,0.201-0.048,0.246-0.048
	c0.006-0.028,0.012-0.083,0.014-0.161c0.004-0.078,0.004-0.202,0.004-0.373s0-0.413,0-0.726c0.412-0.099,0.824-0.159,1.234-0.183
	v1.252c0.064,0,0.131-0.005,0.201-0.014c0.068-0.009,0.135-0.016,0.199-0.021c0.139-0.012,0.279-0.021,0.422-0.026
	c0.141-0.006,0.285-0.009,0.43-0.009v-1.251c0.209,0,0.418,0.004,0.625,0.013c0.209,0.008,0.418,0.027,0.627,0.056v1.252h0.07
	c0.189,0,0.389,0.02,0.594,0.061c0.207,0.04,0.402,0.084,0.588,0.13v-1.251c0.219,0.046,0.436,0.096,0.646,0.148
	c0.213,0.052,0.416,0.128,0.613,0.226v-1.277c-0.203-0.075-0.408-0.142-0.617-0.2c-0.209-0.058-0.42-0.113-0.635-0.165V9.762
	c0.215,0.046,0.426,0.1,0.635,0.161c0.209,0.061,0.414,0.132,0.617,0.213V8.858c-0.203-0.075-0.408-0.141-0.617-0.196
	c-0.209-0.055-0.42-0.105-0.635-0.152V7.259c0.215,0.052,0.426,0.107,0.635,0.165c0.209,0.058,0.414,0.13,0.617,0.217L20.152,6.354z
	 M5.125,6.389c0.203,0.082,0.408,0.149,0.617,0.205c0.208,0.055,0.417,0.105,0.625,0.152V7.98C6.159,7.934,5.951,7.883,5.742,7.828
	C5.533,7.773,5.328,7.702,5.125,7.615V6.389z M5.125,8.893c0.203,0.082,0.408,0.146,0.617,0.196
	c0.208,0.049,0.417,0.097,0.625,0.143v1.252c-0.208-0.046-0.417-0.099-0.625-0.157c-0.209-0.058-0.415-0.125-0.617-0.2V8.893z
	 M5.125,11.387c0.203,0.081,0.408,0.148,0.617,0.2c0.208,0.052,0.417,0.102,0.625,0.148v1.251c-0.208-0.052-0.418-0.105-0.63-0.16
	c-0.212-0.056-0.416-0.133-0.613-0.23V11.387z M6.376,7.998C6.58,8.038,6.785,8.074,6.994,8.106S7.411,8.163,7.62,8.18v1.243
	C7.411,9.4,7.202,9.371,6.994,9.336S6.58,9.264,6.376,9.223V7.998z M6.376,10.492c0.203,0.046,0.409,0.085,0.617,0.117
	s0.417,0.06,0.626,0.083v1.217c-0.209-0.012-0.417-0.035-0.626-0.069c-0.208-0.035-0.414-0.073-0.617-0.113V10.492z M7.637,6.928
	C7.84,6.952,8.044,6.97,8.25,6.985s0.41,0.021,0.613,0.021v1.234c-0.412,0-0.82-0.026-1.226-0.078V6.928z M7.637,9.432
	C7.84,9.449,8.044,9.465,8.25,9.479c0.206,0.014,0.41,0.021,0.613,0.021v1.234c-0.203,0-0.407-0.006-0.613-0.018
	c-0.206-0.011-0.41-0.026-0.613-0.043V9.432z M7.637,11.943c0.203,0.018,0.407,0.032,0.613,0.043
	c0.206,0.012,0.41,0.018,0.613,0.018v1.234c-0.203,0-0.407-0.006-0.613-0.018s-0.41-0.028-0.613-0.052V11.943z M8.88,8.258
	c0.208,0,0.416-0.006,0.622-0.018c0.206-0.012,0.413-0.026,0.621-0.043v1.226C9.914,9.44,9.707,9.455,9.501,9.466
	C9.295,9.478,9.088,9.484,8.88,9.484V8.258z M8.88,10.753c0.208,0,0.416-0.006,0.622-0.018c0.206-0.012,0.413-0.026,0.621-0.043
	v1.226c-0.203,0.023-0.408,0.042-0.617,0.057c-0.209,0.014-0.417,0.021-0.626,0.021V10.753z M10.14,6.928
	c0.405-0.035,0.814-0.096,1.226-0.183V7.98c-0.203,0.041-0.407,0.078-0.613,0.113c-0.206,0.035-0.41,0.058-0.613,0.07V6.928z
	 M10.14,9.432c0.203-0.018,0.407-0.043,0.613-0.078c0.206-0.035,0.41-0.073,0.613-0.113v1.243c-0.203,0.046-0.407,0.083-0.613,0.108
	c-0.206,0.026-0.41,0.054-0.613,0.083V9.432z M10.14,11.943c0.203-0.023,0.407-0.051,0.613-0.083s0.41-0.071,0.613-0.117v1.243
	c-0.203,0.041-0.407,0.077-0.613,0.109c-0.206,0.031-0.41,0.057-0.613,0.073V11.943z M11.375,7.998
	C11.589,7.951,11.8,7.9,12.009,7.845c0.208-0.055,0.414-0.123,0.618-0.204v1.217c-0.204,0.081-0.41,0.149-0.618,0.204
	c-0.209,0.055-0.42,0.103-0.635,0.144V7.998z M11.375,10.492l0.122-0.026c0.191-0.046,0.381-0.093,0.57-0.139
	c0.188-0.046,0.375-0.107,0.561-0.183v1.217c-0.204,0.081-0.41,0.149-0.618,0.204c-0.209,0.055-0.42,0.106-0.635,0.152V10.492z
	 M12.643,6.381c0.197-0.087,0.398-0.158,0.605-0.213c0.205-0.055,0.412-0.106,0.621-0.152v1.226
	c-0.209,0.052-0.416,0.107-0.621,0.165c-0.207,0.058-0.408,0.127-0.605,0.208V6.381z M12.643,8.884
	c0.197-0.081,0.398-0.15,0.605-0.208c0.205-0.058,0.412-0.11,0.621-0.156v1.234C13.66,9.8,13.455,9.85,13.252,9.905
	s-0.406,0.123-0.609,0.204V8.884z M12.643,11.387c0.18-0.081,0.363-0.148,0.549-0.2c0.186-0.052,0.373-0.102,0.564-0.148
	l0.113-0.026v1.226c-0.209,0.046-0.414,0.097-0.617,0.152s-0.406,0.123-0.609,0.205V11.387z M13.895,7.259
	c0.203-0.035,0.408-0.07,0.613-0.104s0.412-0.061,0.621-0.078V8.31c-0.209,0.018-0.416,0.043-0.621,0.079
	c-0.205,0.035-0.41,0.072-0.613,0.113V7.259z M13.895,9.762c0.203-0.052,0.408-0.091,0.613-0.117s0.412-0.051,0.621-0.074v1.226
	c-0.203,0.029-0.408,0.058-0.617,0.087c-0.209,0.029-0.414,0.066-0.617,0.113V9.762z M15.139,5.816
	c0.203-0.023,0.408-0.039,0.617-0.048c0.207-0.009,0.414-0.016,0.617-0.022v1.243c-0.418,0-0.83,0.017-1.234,0.052V5.816z
	 M15.139,8.328c0.203-0.023,0.408-0.041,0.617-0.052c0.207-0.011,0.414-0.017,0.617-0.017v1.226c-0.203,0-0.41,0.004-0.617,0.013
	c-0.209,0.009-0.414,0.025-0.617,0.048V8.328z M15.139,10.822c0.203-0.023,0.408-0.041,0.617-0.052
	c0.207-0.012,0.414-0.017,0.617-0.017v1.243c-0.203,0-0.41,0.004-0.617,0.013c-0.209,0.009-0.414,0.024-0.617,0.048V10.822z
	 M16.381,7.006c0.209,0,0.418,0.006,0.625,0.018c0.209,0.012,0.418,0.029,0.627,0.052V8.31c-0.209-0.023-0.418-0.04-0.627-0.052
	c-0.207-0.012-0.416-0.018-0.625-0.018V7.006z M16.381,9.501c0.209,0,0.418,0.007,0.625,0.022c0.209,0.014,0.418,0.03,0.627,0.048
	v1.226c-0.209-0.018-0.418-0.032-0.627-0.043c-0.207-0.012-0.416-0.018-0.625-0.018V9.501z M17.65,5.816
	c0.203,0.029,0.404,0.058,0.607,0.087c0.203,0.029,0.406,0.066,0.609,0.113v1.217c-0.395-0.075-0.801-0.136-1.217-0.183V5.816z
	 M17.65,8.328c0.203,0.018,0.404,0.043,0.607,0.078c0.203,0.035,0.406,0.073,0.609,0.113v1.226
	c-0.203-0.046-0.406-0.085-0.609-0.118c-0.203-0.032-0.404-0.059-0.607-0.083V8.328z M17.65,10.822
	c0.203,0.023,0.404,0.051,0.607,0.083s0.406,0.068,0.609,0.109v1.226c-0.203-0.046-0.406-0.083-0.609-0.109
	s-0.404-0.051-0.607-0.074V10.822z"/>
</svg>
