<svg version="1.1" id="master" xmlns="http://www.w3.org/2000/svg" xmlns:xlink="http://www.w3.org/1999/xlink" x="0px" y="0px"
	 width="24px" height="24px" viewBox="0 0 24 24" enable-background="new 0 0 24 24" xml:space="preserve">
<rect fill="none" width="24" height="24"/>
<path d="M6.991,4.426l13.53,4.513c0.261,0.087,0.469,0.238,0.622,0.452c0.153,0.215,0.23,0.461,0.23,0.739s-0.077,0.523-0.23,0.735
	c-0.153,0.212-0.361,0.361-0.622,0.448L6.374,16.025V22H3.252V5.713c-0.203-0.203-0.357-0.436-0.465-0.7S2.626,4.473,2.626,4.183
	c0-0.307,0.057-0.594,0.17-0.861S3.063,2.825,3.257,2.63s0.425-0.348,0.691-0.461C4.215,2.057,4.501,2,4.809,2
	C5.11,2,5.395,2.058,5.661,2.174c0.267,0.116,0.5,0.274,0.7,0.474c0.199,0.2,0.356,0.433,0.469,0.7C6.943,3.614,7,3.896,7,4.191
	c0,0.041,0,0.08,0,0.117C7,4.347,6.997,4.386,6.991,4.426z M4.817,3.252c-0.134,0-0.257,0.025-0.369,0.074
	c-0.113,0.049-0.212,0.116-0.296,0.2c-0.084,0.084-0.151,0.184-0.2,0.3S3.878,4.064,3.878,4.191c0,0.203,0.059,0.384,0.174,0.543
	c0.116,0.16,0.267,0.271,0.452,0.334v15.679h0.618V5.069c0.186-0.063,0.336-0.175,0.452-0.334c0.115-0.16,0.174-0.34,0.174-0.543
	c0-0.127-0.024-0.248-0.074-0.361c-0.049-0.113-0.116-0.213-0.2-0.3S5.291,3.375,5.179,3.326C5.065,3.277,4.945,3.252,4.817,3.252z"
	/>
</svg>
