<svg version="1.1" id="master" xmlns="http://www.w3.org/2000/svg" xmlns:xlink="http://www.w3.org/1999/xlink" x="0px" y="0px"
	 width="24px" height="24px" viewBox="0 0 24 24" enable-background="new 0 0 24 24" xml:space="preserve">
<rect fill="none" width="24" height="24"/>
<path d="M16.374,3.252c0.492,0,0.944,0.019,1.356,0.057c0.411,0.038,0.812,0.099,1.2,0.183c0.388,0.084,0.779,0.191,1.174,0.322
	c0.394,0.13,0.817,0.286,1.27,0.465v11.443c-0.064-0.028-0.125-0.055-0.183-0.078c-0.059-0.022-0.119-0.046-0.183-0.068
	c-0.418-0.169-0.802-0.319-1.152-0.453c-0.351-0.133-0.703-0.244-1.057-0.334s-0.724-0.16-1.108-0.209
	c-0.386-0.049-0.825-0.074-1.317-0.074c-0.58,0-1.135,0.038-1.665,0.113c-0.531,0.075-1.068,0.215-1.613,0.418
	c-0.696,0.26-1.387,0.444-2.074,0.551c-0.687,0.107-1.401,0.162-2.144,0.162c-0.423,0-0.842-0.018-1.257-0.053
	c-0.414-0.035-0.83-0.093-1.247-0.174V22H3.252V5.713c-0.203-0.203-0.358-0.436-0.465-0.7C2.68,4.749,2.626,4.475,2.626,4.191
	c0-0.301,0.058-0.585,0.174-0.852S3.072,2.84,3.27,2.643C3.466,2.446,3.698,2.29,3.965,2.174C4.231,2.058,4.516,2,4.817,2
	s0.584,0.058,0.848,0.174C5.929,2.29,6.159,2.448,6.356,2.647c0.197,0.2,0.354,0.432,0.47,0.696C6.941,3.607,7,3.89,7,4.191
	C7,4.22,7,4.246,7,4.27c0,0.023-0.003,0.049-0.009,0.078c0.626,0.104,1.255,0.156,1.887,0.156c0.58,0,1.135-0.039,1.665-0.117
	c0.531-0.078,1.068-0.219,1.613-0.422c0.695-0.261,1.387-0.445,2.074-0.552C14.917,3.306,15.632,3.252,16.374,3.252z M3.878,4.191
	c0,0.203,0.058,0.384,0.174,0.543c0.116,0.16,0.267,0.271,0.452,0.335v15.679h0.618V5.069c0.185-0.064,0.336-0.175,0.452-0.335
	c0.115-0.159,0.174-0.34,0.174-0.543c0-0.127-0.025-0.248-0.074-0.361c-0.05-0.113-0.116-0.213-0.2-0.3S5.291,3.375,5.178,3.326
	c-0.112-0.049-0.233-0.074-0.36-0.074c-0.134,0-0.257,0.025-0.37,0.074c-0.112,0.049-0.211,0.116-0.295,0.2
	c-0.085,0.084-0.151,0.184-0.2,0.3C3.902,3.942,3.878,4.063,3.878,4.191z"/>
</svg>
