<svg version="1.1" id="master" xmlns="http://www.w3.org/2000/svg" xmlns:xlink="http://www.w3.org/1999/xlink" x="0px" y="0px"
	 width="24px" height="24px" viewBox="0 0 24 24" enable-background="new 0 0 24 24" xml:space="preserve">
<path d="M6.545,10.909H0v2.182h6.545V10.909z M8.913,7.375L6.6,5.062L5.062,6.6l2.313,2.313L8.913,7.375z M13.091,0h-2.182v6.545
	h2.182V0z M18.938,6.6L17.4,5.062l-2.313,2.313l1.539,1.538L18.938,6.6z M17.454,10.909v2.182H24v-2.182H17.454z M12,8.727
	c-1.811,0-3.273,1.462-3.273,3.273c0,1.812,1.462,3.272,3.273,3.272c1.812,0,3.272-1.461,3.272-3.272
	C15.272,10.189,13.812,8.727,12,8.727z M15.087,16.626l2.313,2.312l1.537-1.537l-2.312-2.313L15.087,16.626L15.087,16.626z
	 M5.062,17.4L6.6,18.938l2.313-2.312l-1.538-1.539L5.062,17.4z M10.909,24h2.182v-6.546h-2.182V24z"/>
</svg>
