<svg version="1.1" id="master" xmlns="http://www.w3.org/2000/svg" xmlns:xlink="http://www.w3.org/1999/xlink" x="0px" y="0px"
	 width="24px" height="24px" viewBox="0 0 24 24" enable-background="new 0 0 24 24" xml:space="preserve">
<rect fill="none" width="24" height="24"/>
<path d="M12,22c4.734,0,8.571-3.838,8.571-8.571C15.838,13.429,12,17.267,12,22z M5.905,10.81c0,1.314,1.067,2.381,2.381,2.381
	c0.504,0,0.961-0.152,1.352-0.419l-0.019,0.181c0,1.314,1.067,2.381,2.381,2.381c1.314,0,2.381-1.066,2.381-2.381l-0.019-0.181
	c0.381,0.267,0.848,0.419,1.353,0.419c1.313,0,2.381-1.067,2.381-2.381c0-0.953-0.562-1.762-1.361-2.143
	c0.8-0.381,1.361-1.19,1.361-2.143c0-1.314-1.067-2.381-2.381-2.381c-0.505,0-0.962,0.152-1.353,0.419l0.019-0.181
	C14.381,3.067,13.314,2,12,2c-1.314,0-2.381,1.067-2.381,2.381l0.019,0.181C9.257,4.295,8.791,4.143,8.286,4.143
	c-1.314,0-2.381,1.066-2.381,2.381c0,0.952,0.562,1.762,1.362,2.143C6.467,9.047,5.905,9.857,5.905,10.81z M12,6.286
	c1.314,0,2.381,1.067,2.381,2.381c0,1.314-1.066,2.381-2.381,2.381c-1.314,0-2.381-1.067-2.381-2.381
	C9.619,7.353,10.686,6.286,12,6.286z M3.429,13.429C3.429,18.162,7.267,22,12,22C12,17.267,8.162,13.429,3.429,13.429z"/>
</svg>
