<svg version="1.1" id="master" xmlns="http://www.w3.org/2000/svg" xmlns:xlink="http://www.w3.org/1999/xlink" x="0px" y="0px"
	 width="24px" height="24px" viewBox="0 0 24 24" enable-background="new 0 0 24 24" xml:space="preserve">
<path d="M2.014,16.025c-0.089,2.691,0.355,4.826,0.745,5.216c0.389,0.389,2.536,0.845,5.215,0.745L2.014,16.025z M13.201,2.303
	c-2.592,0.467-5.327,1.49-7.362,3.536S2.77,10.61,2.303,13.201l8.485,8.484c2.602-0.456,5.327-1.49,7.361-3.537
	c2.035-2.046,3.07-4.77,3.537-7.36L13.201,2.303z M9.664,15.892l-1.557-1.557l6.228-6.227l1.557,1.557L9.664,15.892z M21.986,7.975
	c0.089-2.691-0.356-4.826-0.745-5.215c-0.39-0.39-2.537-0.845-5.216-0.745L21.986,7.975z"/>
</svg>
