<svg version="1.1" id="master" xmlns="http://www.w3.org/2000/svg" xmlns:xlink="http://www.w3.org/1999/xlink" x="0px" y="0px"
	 width="24px" height="24px" viewBox="0 0 24 24" enable-background="new 0 0 24 24" xml:space="preserve">
<rect fill="none" width="24" height="24"/>
<path d="M20.341,6.667l-4.423,4.422c-0.147,0.066-0.573-0.371-0.503-0.504c0.75-0.84,4.113-4.605,4.191-4.691
	c0.55-0.754-0.746-2.051-1.501-1.5c-0.089,0.078-3.854,3.441-4.69,4.191c-0.134,0.07-0.57-0.355-0.505-0.504l4.423-4.422
	c0.601-0.758-0.731-2.07-1.465-1.535c-0.172,0.121-3.461,2.453-4.539,3.527c-1.633,1.633-1.938,3.676-1.121,5.434l-7.855,7.058
	c-0.453,0.41-0.473,1.113-0.039,1.543l2.004,2.004c0.43,0.43,1.137,0.41,1.543-0.043l7.05-7.858
	c1.758,0.815,3.798,0.519,5.434-1.122c1.079-1.078,3.411-4.367,3.531-4.539C22.41,7.398,21.098,6.07,20.341,6.667z"/>
</svg>
