<svg version="1.1" id="master" xmlns="http://www.w3.org/2000/svg" xmlns:xlink="http://www.w3.org/1999/xlink" x="0px" y="0px"
	 width="24px" height="24px" viewBox="0 0 24 24" enable-background="new 0 0 24 24" xml:space="preserve">
<rect fill="none" width="24" height="24"/>
<path d="M21.5,16H19V4.5C19,4.225,18.775,4,18.5,4h-1C17.225,4,17,4.225,17,4.5v13c0,0.274,0.225,0.5,0.5,0.5h4
	c0.275,0,0.5-0.226,0.5-0.5v-1C22,16.226,21.775,16,21.5,16z M15,11.409c0-0.272-0.056-0.537-0.163-0.788l-2.446-5.712
	C12.153,4.356,11.613,4,11.009,4H6.5C5.672,4,5,4.672,5,5.5V9H3.5C2.672,9,2,9.672,2,10.5V17c0,1.656,1.344,3,3,3s3-1.344,3-3h2
	c0,1.656,1.344,3,3,3s3-1.344,3-3c0-0.884-0.391-1.672-1-2.222V11.409z M5,18.5c-0.828,0-1.5-0.672-1.5-1.5s0.672-1.5,1.5-1.5
	s1.5,0.672,1.5,1.5S5.828,18.5,5,18.5z M10,12L7,9V6h3.681L13,11.409V12H10z M13,18.5c-0.828,0-1.5-0.672-1.5-1.5s0.672-1.5,1.5-1.5
	s1.5,0.672,1.5,1.5S13.828,18.5,13,18.5z"/>
</svg>
