<?xml version="1.0" encoding="utf-8"?>
<!-- Generator: Adobe Illustrator 16.0.0, SVG Export Plug-In . SVG Version: 6.00 Build 0)  -->
<!DOCTYPE svg PUBLIC "-//W3C//DTD SVG 1.1//EN" "http://www.w3.org/Graphics/SVG/1.1/DTD/svg11.dtd">
<svg version="1.1" id="master" xmlns="http://www.w3.org/2000/svg" xmlns:xlink="http://www.w3.org/1999/xlink" x="0px" y="0px"
	 width="24px" height="24px" viewBox="0 0 24 24" enable-background="new 0 0 24 24" xml:space="preserve">
<path d="M16.606,11.7c1.387-0.957,2.357-2.529,2.357-3.986c0-3.229-2.5-5.714-5.714-5.714H4.321v20h10.058
	c2.985,0,5.3-2.429,5.3-5.414C19.679,14.413,18.451,12.558,16.606,11.7z M8.607,5.571h4.286c1.186,0,2.143,0.957,2.143,2.143
	c0,1.186-0.957,2.143-2.143,2.143H8.607V5.571z M13.607,18.429h-5v-4.286h5c1.186,0,2.143,0.957,2.143,2.144
	C15.75,17.472,14.793,18.429,13.607,18.429z"/>
</svg>
