<svg version="1.1" id="master" xmlns="http://www.w3.org/2000/svg" xmlns:xlink="http://www.w3.org/1999/xlink"
	 x="0px" y="0px" width="24px" height="24px" viewBox="0 0 24 24" enable-background="new 0 0 24 24" xml:space="preserve">
<path d="M18.874,10.75h-1.328c-0.271,0-0.535,0.167-0.594,0.43c-0.336,1.523-2.426,2.695-4.952,2.695
	c-2.527,0-4.617-1.172-4.953-2.695c-0.058-0.264-0.323-0.43-0.593-0.43h-1.33c-0.345,0-0.625,0.28-0.625,0.625
	c0,0.045,0.005,0.091,0.015,0.135l2.113,9.51C6.754,21.593,7.263,22,7.849,22h8.303c0.586,0,1.093-0.407,1.22-0.979l2.114-9.511
	c0.074-0.337-0.139-0.67-0.477-0.745C18.965,10.755,18.92,10.75,18.874,10.75z M15.731,10.912c0.016-0.069,0.057-0.126,0.08-0.192
	l1.178-6.736c0.06-0.34-0.17-0.664-0.508-0.723c-0.097-0.017-0.193-0.011-0.287,0.017l-1.34,0.4
	c-0.166,0.05-0.279,0.176-0.355,0.326V12.1C15.185,11.771,15.638,11.336,15.731,10.912L15.731,10.912z M18.853,9.5l0.638-3.642
	c0.06-0.34-0.169-0.664-0.509-0.723c-0.096-0.017-0.192-0.011-0.285,0.017l-0.678,0.202l-0.731,4.19
	C17.373,9.531,17.455,9.5,17.545,9.5H18.853z M13.249,12.5V3.25c0-0.237-0.134-0.453-0.346-0.559l-1.249-0.625
	c-0.309-0.154-0.684-0.029-0.839,0.279c-0.043,0.087-0.066,0.183-0.066,0.28V12.5C11.575,12.667,12.424,12.667,13.249,12.5z
	 M6.453,9.5c0.141,0,0.273,0.039,0.404,0.068l-0.78-4.185L5.305,5.152C4.975,5.053,4.625,5.24,4.526,5.571
	C4.499,5.664,4.493,5.762,4.509,5.858L5.146,9.5H6.453z M9.5,12.099V3.295L9.353,2.511c-0.063-0.339-0.39-0.563-0.729-0.5
	C8.527,2.029,8.438,2.069,8.36,2.127L7.248,2.972C7.059,3.115,6.966,3.352,7.01,3.585l1.441,7.704
	C8.659,11.585,9.018,11.869,9.5,12.099z"/>
</svg>
