<svg version="1.1" id="master" xmlns="http://www.w3.org/2000/svg" xmlns:xlink="http://www.w3.org/1999/xlink"
	 x="0px" y="0px" width="24px" height="24px" viewBox="0 0 24 24" enable-background="new 0 0 24 24" xml:space="preserve">
<path d="M17.505,6.494c-0.239-1.292-1.366-2.272-2.727-2.272c-1.362,0-2.491,0.982-2.728,2.276C6.401,7.033,1.982,11.796,2,17.589
	c0.004,1.213,1.01,2.189,2.222,2.189h10.556c0.306,0,0.555-0.249,0.555-0.557c0-0.612-0.498-1.11-1.111-1.11h-2.76l1.243-1.679
	c0.838-1.257,0.359-3.065-1.17-3.701c-0.83-0.344-1.79-0.162-2.508,0.378l-1.137,0.854c-0.246,0.185-0.594,0.136-0.778-0.11
	c-0.184-0.246-0.135-0.595,0.11-0.778l1.208-0.906c1.279-0.96,3.065-0.959,4.344,0c0.378,0.282,1.593,1.357,1.417,3.237l4.115,4.373
	h3.14c0.306,0,0.555-0.249,0.555-0.557c0-0.612-0.498-1.11-1.111-1.11h-1.862l-3.421-3.635l5.362-3.009
	C21.606,11.11,22,10.437,22,9.707c0-0.743-0.407-1.422-1.058-1.779C19.533,7.156,17.505,6.494,17.505,6.494z M14.778,7.833
	c-0.461,0-0.833-0.373-0.833-0.833s0.372-0.833,0.833-0.833c0.459,0,0.833,0.373,0.833,0.833S15.237,7.833,14.778,7.833z"/>
</svg>
