<svg version="1.1" id="master" xmlns="http://www.w3.org/2000/svg" xmlns:xlink="http://www.w3.org/1999/xlink" x="0px" y="0px"
	 width="24px" height="24px" viewBox="0 0 24 24" enable-background="new 0 0 24 24" xml:space="preserve">
<path d="M21.973,16.258l-1.135-7.974c-0.291-2.051-2.051-3.571-4.123-3.571h-9.43c-2.072,0-3.831,1.52-4.123,3.571l-1.134,7.974
	c-0.229,1.603,1.01,3.029,2.623,3.029l0,0c0.708,0,1.374-0.28,1.874-0.781l2.353-2.342h6.246l2.342,2.342
	c0.501,0.501,1.177,0.781,1.874,0.781l0,0C20.962,19.287,22.201,17.86,21.973,16.258z M10.959,10.959H8.877v2.082H7.836v-2.082
	H5.754V9.918h2.082V7.836h1.041v2.082h2.082V10.959z M15.123,9.918c-0.572,0-1.041-0.469-1.041-1.041s0.469-1.041,1.041-1.041
	s1.041,0.469,1.041,1.041S15.695,9.918,15.123,9.918z M17.205,13.041c-0.572,0-1.041-0.469-1.041-1.041s0.469-1.041,1.041-1.041
	s1.041,0.469,1.041,1.041S17.777,13.041,17.205,13.041z"/>
</svg>
