<svg version="1.1" id="master" xmlns="http://www.w3.org/2000/svg" xmlns:xlink="http://www.w3.org/1999/xlink" x="0px" y="0px"
	 width="24px" height="24px" viewBox="0 0 24 24" enable-background="new 0 0 24 24" xml:space="preserve">
<path d="M19.438,12.977C19.477,12.663,19.5,12.338,19.5,12s-0.023-0.663-0.075-0.976l2.112-1.649
	c0.188-0.149,0.238-0.425,0.126-0.637l-2.001-3.462c-0.125-0.226-0.387-0.301-0.611-0.226l-2.486,1
	c-0.525-0.4-1.076-0.725-1.688-0.975L14.5,2.425C14.464,2.175,14.25,2,14,2h-4C9.75,2,9.55,2.175,9.512,2.425l-0.375,2.65
	C8.525,5.325,7.962,5.663,7.449,6.05l-2.487-1c-0.226-0.087-0.488,0-0.613,0.226l-2,3.462C2.225,8.962,2.275,9.226,2.475,9.375
	l2.112,1.649C4.537,11.337,4.5,11.676,4.5,12s0.025,0.663,0.075,0.977l-2.112,1.648c-0.188,0.148-0.238,0.424-0.125,0.637l2,3.463
	c0.125,0.228,0.387,0.301,0.612,0.228l2.488-1.002c0.525,0.399,1.075,0.726,1.688,0.976l0.375,2.65C9.55,21.824,9.75,22,10,22h4
	c0.25,0,0.464-0.176,0.487-0.425l0.374-2.65c0.613-0.25,1.177-0.587,1.688-0.976l2.486,1.002c0.228,0.086,0.487,0,0.612-0.227
	l2.002-3.464c0.123-0.225,0.072-0.487-0.127-0.637L19.438,12.977z M12,15.75c-2.063,0-3.75-1.688-3.75-3.75
	c0-2.062,1.687-3.75,3.75-3.75c2.063,0,3.75,1.688,3.75,3.75C15.75,14.063,14.063,15.75,12,15.75z"/>
</svg>
