<svg version="1.1" id="master" xmlns="http://www.w3.org/2000/svg" xmlns:xlink="http://www.w3.org/1999/xlink" x="0px" y="0px"
	 width="24px" height="24px" viewBox="0 0 24 24" enable-background="new 0 0 24 24" xml:space="preserve">
<rect fill="none" width="24" height="24"/>
<path d="M3.927,6.383C4.698,5.601,5.47,4.896,5.811,5.039c0.551,0.221,0,1.135-0.33,1.674c-0.275,0.463-3.15,4.284-3.15,6.95
	c0,1.408,0.529,2.576,1.476,3.282c0.826,0.616,1.917,0.804,2.908,0.505c1.178-0.341,2.147-1.541,3.37-3.05
	c1.333-1.641,3.116-3.788,4.493-3.788c1.796,0,1.817,1.112,1.938,1.971c-4.162,0.705-5.924,4.042-5.924,5.915
	c0,1.871,1.586,3.403,3.535,3.403c1.796,0,4.726-1.465,5.166-6.719H22v-2.754h-2.721c-0.165-1.816-1.2-4.625-4.438-4.625
	c-2.479,0-4.604,2.104-5.441,3.128c-0.639,0.804-2.269,2.731-2.522,2.996c-0.275,0.33-0.749,0.925-1.222,0.925
	c-0.496,0-0.793-0.914-0.397-2.114c0.386-1.201,1.542-3.15,2.038-3.877c0.859-1.256,1.432-2.115,1.432-3.613
	c0-2.39-1.806-3.149-2.765-3.149c-1.454,0-2.72,1.102-2.995,1.377C2.573,3.872,2.243,4.202,2,4.5L3.927,6.383z M14.158,19.225
	c-0.341,0-0.813-0.286-0.813-0.793c0-0.66,0.803-2.423,3.159-3.039C16.174,18.354,14.93,19.225,14.158,19.225z"/>
</svg>
