<svg version="1.1" id="master" xmlns="http://www.w3.org/2000/svg" xmlns:xlink="http://www.w3.org/1999/xlink" x="0px" y="0px"
	 width="24px" height="24px" viewBox="0 0 24 24" enable-background="new 0 0 24 24" xml:space="preserve">
<rect fill="none" width="24" height="24"/>
<path d="M11.762,14.346c-0.076-0.172-0.114-0.357-0.114-0.557v-2.147H14.5v2.147c0,0.199-0.036,0.385-0.109,0.557
	c-0.073,0.173-0.174,0.323-0.303,0.453c-0.13,0.129-0.28,0.229-0.453,0.303c-0.172,0.072-0.357,0.109-0.557,0.109
	c-0.198,0-0.384-0.037-0.557-0.109c-0.172-0.073-0.322-0.174-0.452-0.303C11.94,14.669,11.838,14.519,11.762,14.346z M21.712,12.035
	c0.188,0.434,0.283,0.9,0.283,1.397v1.073c0,0.093-0.036,0.176-0.109,0.249c-0.073,0.072-0.156,0.109-0.249,0.109
	c-0.139,0-0.229-0.035-0.272-0.105c-0.044-0.068-0.066-0.156-0.07-0.263c-0.003-0.106-0.005-0.222-0.005-0.349
	c0-0.125-0.029-0.241-0.089-0.348c-0.06-0.105-0.163-0.193-0.309-0.264c-0.146-0.068-0.368-0.104-0.666-0.104
	c-0.285,0-0.533,0.02-0.745,0.06c-0.213,0.04-0.396,0.114-0.552,0.224c-0.156,0.109-0.285,0.257-0.388,0.442
	s-0.188,0.421-0.254,0.706c-0.093,0.391-0.193,0.773-0.303,1.147s-0.25,0.744-0.423,1.108c-0.364,0.756-0.813,1.434-1.347,2.033
	s-1.132,1.111-1.794,1.535c-0.663,0.424-1.381,0.749-2.152,0.975C11.496,21.887,10.689,22,9.848,22c-0.821,0-1.61-0.104-2.365-0.313
	c-0.756-0.209-1.462-0.511-2.117-0.905c-0.656-0.394-1.256-0.876-1.8-1.446c-0.543-0.57-1.007-1.216-1.392-1.938
	c-0.046-0.086-0.086-0.173-0.119-0.259s-0.05-0.176-0.05-0.268c0-0.066,0.017-0.123,0.05-0.17c0.033-0.046,0.086-0.068,0.159-0.068
	c0.072,0,0.154,0.044,0.243,0.134c0.09,0.089,0.19,0.2,0.304,0.333c0.112,0.133,0.241,0.276,0.388,0.432
	c0.146,0.156,0.316,0.301,0.512,0.434c0.195,0.132,0.421,0.242,0.676,0.332s0.545,0.135,0.87,0.135c0.443,0,0.859-0.085,1.247-0.254
	s0.728-0.398,1.02-0.69c0.291-0.292,0.521-0.634,0.69-1.024s0.253-0.809,0.253-1.252v-0.348c0-0.199-0.036-0.385-0.108-0.557
	c-0.073-0.173-0.175-0.324-0.304-0.453s-0.28-0.231-0.452-0.308c-0.173-0.076-0.358-0.114-0.557-0.114H5.554
	c-0.192,0-0.357,0.07-0.497,0.213c-0.139,0.143-0.209,0.311-0.209,0.502v0.109c0,0.066-0.001,0.137-0.005,0.209
	c-0.003,0.073-0.017,0.14-0.04,0.199c-0.022,0.06-0.06,0.107-0.109,0.145c-0.049,0.036-0.117,0.055-0.203,0.055
	c-0.093,0-0.176-0.037-0.249-0.109c-0.072-0.073-0.109-0.156-0.109-0.249v-1.073c0-0.49,0.095-0.953,0.283-1.387
	c0.189-0.434,0.444-0.813,0.766-1.138s0.699-0.582,1.134-0.771C6.748,9.947,7.21,9.853,7.701,9.853V7.358
	c0-0.643,0.147-1.243,0.442-1.799s0.7-1.024,1.217-1.401L7.84,2.626c-0.04-0.04-0.073-0.08-0.1-0.12
	c-0.026-0.04-0.039-0.089-0.039-0.149c0-0.1,0.034-0.184,0.104-0.253C7.875,2.035,7.959,2,8.059,2h3.927
	c0.59,0,1.159,0.076,1.71,0.229c0.55,0.153,1.063,0.368,1.54,0.646c0.478,0.279,0.911,0.613,1.303,1.004
	c0.391,0.391,0.726,0.825,1.004,1.302c0.278,0.477,0.493,0.991,0.646,1.541c0.152,0.55,0.229,1.12,0.229,1.71v1.421
	c0.497,0,0.963,0.094,1.397,0.283c0.434,0.189,0.812,0.444,1.133,0.765C21.268,11.223,21.522,11.601,21.712,12.035z M14.857,8.432
	c0,0.192,0.071,0.359,0.214,0.502s0.311,0.213,0.502,0.213c0.192,0,0.359-0.071,0.502-0.213s0.214-0.31,0.214-0.502V7
	c0-0.199-0.069-0.368-0.209-0.507c-0.139-0.139-0.308-0.209-0.507-0.209c-0.191,0-0.359,0.071-0.502,0.214S14.857,6.808,14.857,7
	V8.432z M9.857,8.432c0,0.192,0.071,0.359,0.214,0.502s0.311,0.213,0.502,0.213c0.192,0,0.359-0.071,0.502-0.213
	s0.214-0.31,0.214-0.502V7c0-0.199-0.069-0.368-0.209-0.507c-0.139-0.139-0.308-0.209-0.507-0.209c-0.198,0-0.367,0.07-0.507,0.209
	C9.928,6.632,9.857,6.801,9.857,7V8.432z M17.005,10.568H9.143c0,0.259,0.044,0.507,0.134,0.746c0.09,0.239,0.214,0.453,0.373,0.641
	c0.159,0.189,0.348,0.348,0.566,0.478c0.219,0.129,0.457,0.214,0.716,0.253v1.104c0,0.299,0.056,0.576,0.169,0.835
	c0.112,0.259,0.267,0.483,0.462,0.677c0.195,0.191,0.423,0.344,0.681,0.457c0.259,0.112,0.537,0.168,0.835,0.168
	c0.299,0,0.577-0.056,0.835-0.168c0.259-0.113,0.484-0.266,0.677-0.457c0.191-0.193,0.344-0.418,0.457-0.677
	c0.112-0.259,0.169-0.536,0.169-0.835v-1.104c0.259-0.039,0.497-0.124,0.716-0.253c0.219-0.129,0.407-0.289,0.566-0.478
	c0.159-0.188,0.283-0.402,0.373-0.641C16.96,11.076,17.005,10.827,17.005,10.568z"/>
</svg>
