<svg version="1.1" id="master" xmlns="http://www.w3.org/2000/svg" xmlns:xlink="http://www.w3.org/1999/xlink"
	 x="0px" y="0px" width="24px" height="24px" viewBox="0 0 24 24" enable-background="new 0 0 24 24" xml:space="preserve">
<path d="M11.77,2.003C7.665,2.126,4.5,5.708,4.5,9.814v10.309c0,0.558,0.673,0.837,1.067,0.443l0.973-0.725
	c0.26-0.193,0.625-0.156,0.84,0.086l1.678,1.89c0.244,0.244,0.64,0.244,0.884,0l1.59-1.792c0.249-0.279,0.686-0.279,0.935,0
	l1.59,1.792c0.244,0.244,0.641,0.244,0.885,0l1.677-1.89c0.216-0.242,0.581-0.279,0.841-0.086l0.974,0.725
	c0.394,0.394,1.066,0.114,1.066-0.443V9.5C19.5,5.281,16.017,1.876,11.77,2.003z M9.5,10.75c-0.69,0-1.25-0.56-1.25-1.25
	S8.81,8.25,9.5,8.25s1.25,0.56,1.25,1.25S10.19,10.75,9.5,10.75z M14.5,10.75c-0.69,0-1.25-0.56-1.25-1.25s0.56-1.25,1.25-1.25
	s1.25,0.56,1.25,1.25S15.19,10.75,14.5,10.75z"/>
</svg>
