<svg version="1.1" id="master" xmlns="http://www.w3.org/2000/svg" xmlns:xlink="http://www.w3.org/1999/xlink"
	 x="0px" y="0px" width="24px" height="24px" viewBox="0 0 24 24" enable-background="new 0 0 24 24" xml:space="preserve">
<path d="M3.25,19.5c0,0.691,0.559,1.25,1.25,1.25h6.25V14.5h-7.5V19.5z M13.25,20.75h6.25c0.691,0,1.25-0.559,1.25-1.25v-5h-7.5
	V20.75z M20.75,8.25h-1.645C19.348,7.777,19.5,7.254,19.5,6.688c0-1.895-1.543-3.438-3.438-3.438c-1.625,0-2.676,0.832-4.023,2.668
	C10.691,4.082,9.641,3.25,8.016,3.25c-1.895,0-3.438,1.543-3.438,3.438c0,0.566,0.148,1.09,0.395,1.563H3.25
	C2.559,8.25,2,8.809,2,9.5v3.125c0,0.344,0.281,0.625,0.625,0.625h18.75c0.344,0,0.625-0.281,0.625-0.625V9.5
	C22,8.809,21.441,8.25,20.75,8.25z M8.012,8.25c-0.863,0-1.563-0.699-1.563-1.563s0.699-1.563,1.563-1.563
	c0.777,0,1.352,0.129,3.363,3.125H8.012z M16.063,8.25h-3.363c2.008-2.988,2.566-3.125,3.363-3.125c0.863,0,1.563,0.699,1.563,1.563
	S16.926,8.25,16.063,8.25z"/>
</svg>
