<svg version="1.1" id="master" xmlns="http://www.w3.org/2000/svg" xmlns:xlink="http://www.w3.org/1999/xlink"
	 x="0px" y="0px" width="24px" height="24px" viewBox="0 0 24 24" enable-background="new 0 0 24 24" xml:space="preserve">
<path d="M9.519,10.066c0.06-0.962,0.541-1.913,1.375-2.494C10.731,7.235,10.397,7,10,7H9.081l0.96-0.688
	c0.225-0.159,0.278-0.471,0.115-0.696L9.866,5.209c-0.16-0.225-0.472-0.278-0.697-0.115l-1,0.715l0.36-0.956
	c0.097-0.26-0.035-0.547-0.294-0.644L7.766,4.035C7.506,3.938,7.219,4.069,7.122,4.329L6.5,5.985l-0.622-1.66
	C5.781,4.066,5.494,3.935,5.234,4.032L4.766,4.207C4.506,4.303,4.375,4.594,4.475,4.85l0.359,0.957L3.831,5.094
	c-0.225-0.159-0.537-0.11-0.697,0.115L2.844,5.616C2.685,5.841,2.734,6.154,2.959,6.313L3.919,7H3C2.447,7,2,7.447,2,8v11
	c0,0.554,0.447,1,1,1h5.278C8.106,19.703,8,19.365,8,19v-7C8,11.066,8.65,10.282,9.519,10.066z M9,19c0,0.554,0.447,1,1,1h5v-4H9V19
	z M16,20h5c0.553,0,1-0.446,1-1v-3h-6V20z M21,11h-0.638c0.082-0.237,0.138-0.484,0.138-0.743C20.5,9.147,19.656,8,18.247,8
	c-1.503,0-2.372,1.491-2.747,2.353C15.122,9.491,14.253,8,12.754,8c-1.41,0-2.254,1.146-2.254,2.256
	c0,0.259,0.053,0.506,0.138,0.743H10c-0.553,0-1,0.447-1,1v3h6v-4h0.479l0.021-0.006L15.522,11H16v4h6v-3C22,11.447,21.553,11,21,11
	z M12.5,11c-0.084-0.043-0.159-0.093-0.225-0.149C12.047,10.65,12,10.419,12,10.257C12,9.954,12.2,9.5,12.754,9.5
	c0.584,0,1.111,0.856,1.39,1.5H12.5z M18.726,10.851C18.659,10.907,18.584,10.957,18.5,11h-1.644c0.275-0.634,0.806-1.5,1.391-1.5
	C18.8,9.5,19,9.954,19,10.257C19,10.419,18.953,10.65,18.726,10.851z"/>
</svg>
