<svg version="1.1" id="master" xmlns="http://www.w3.org/2000/svg" xmlns:xlink="http://www.w3.org/1999/xlink" x="0px" y="0px"
	 width="24px" height="24px" viewBox="0 0 24 24" enable-background="new 0 0 24 24" xml:space="preserve">
<rect fill="none" width="24" height="24"/>
<path d="M16.461,13.875h1.164c1.52,0,2.719-1.355,2.465-2.922c-0.199-1.23-1.355-2.078-2.598-2.078h-2.574
	c-0.277,0-0.41-0.328-0.215-0.527c0.813-0.844,1.234-2.063,0.973-3.371c-0.293-1.465-1.504-2.648-2.969-2.914
	C10.32,1.633,8.25,3.45,8.25,5.75c0,1.004,0.398,1.918,1.043,2.59c0.195,0.203,0.066,0.535-0.215,0.535h-2.57
	c-1.246,0-2.398,0.852-2.598,2.078c-0.254,1.566,0.946,2.922,2.465,2.922h1.164c0.395,0,0.711,0.32,0.711,0.711
	c0,0.168-0.059,0.328-0.164,0.457L5.813,17.77c-0.91,1.09-0.844,2.828,0.277,3.699C6.543,21.828,7.086,22,7.625,22
	c0.715,0,1.426-0.305,1.922-0.898l1.496-1.793c0.5-0.602,1.422-0.602,1.922,0l1.496,1.793C14.957,21.695,15.664,22,16.383,22
	c0.539,0,1.082-0.172,1.535-0.527c1.121-0.875,1.188-2.609,0.277-3.7l-2.273-2.726c-0.105-0.129-0.164-0.289-0.164-0.457
	C15.75,14.195,16.07,13.875,16.461,13.875z M10.75,5.75c-0.344,0-0.625-0.281-0.625-0.625S10.406,4.5,10.75,4.5
	s0.625,0.281,0.625,0.625S11.094,5.75,10.75,5.75z M12,16.375c-0.344,0-0.625-0.282-0.625-0.625c0-0.344,0.281-0.625,0.625-0.625
	s0.625,0.281,0.625,0.625C12.625,16.093,12.344,16.375,12,16.375z M12,13.875c-0.344,0-0.625-0.281-0.625-0.625
	s0.281-0.625,0.625-0.625s0.625,0.281,0.625,0.625S12.344,13.875,12,13.875z M12,11.375c-0.344,0-0.625-0.281-0.625-0.625
	s0.281-0.625,0.625-0.625s0.625,0.281,0.625,0.625S12.344,11.375,12,11.375z M13.25,5.75c-0.344,0-0.625-0.281-0.625-0.625
	S12.906,4.5,13.25,4.5s0.625,0.281,0.625,0.625S13.594,5.75,13.25,5.75z"/>
</svg>
