<svg version="1.1" id="master" xmlns="http://www.w3.org/2000/svg" xmlns:xlink="http://www.w3.org/1999/xlink" x="0px" y="0px"
	 width="24px" height="24px" viewBox="0 0 24 24" enable-background="new 0 0 24 24" xml:space="preserve">
<rect fill="none" width="24" height="24"/>
<path d="M21.623,11.109L12.89,2.377c-0.503-0.502-1.318-0.502-1.823,0L9.257,4.189l2.3,2.3c0.537-0.18,1.15-0.059,1.575,0.367
	c0.43,0.429,0.549,1.048,0.365,1.583l2.215,2.217c0.537-0.186,1.155-0.065,1.584,0.363c0.601,0.6,0.601,1.57,0,2.169
	c-0.6,0.601-1.567,0.601-2.168,0c-0.449-0.45-0.562-1.114-0.336-1.663l-2.075-2.063v5.438c0.147,0.071,0.286,0.169,0.407,0.29
	c0.594,0.601,0.594,1.568,0,2.166c-0.599,0.601-1.574,0.601-2.175,0c-0.599-0.599-0.599-1.565,0-2.165
	c0.152-0.149,0.323-0.264,0.504-0.338V9.363c-0.181-0.076-0.353-0.185-0.5-0.334C10.5,8.575,10.39,7.91,10.624,7.354l-2.26-2.271
	l-5.989,5.984c-0.5,0.504-0.5,1.32,0,1.825l8.734,8.73c0.503,0.503,1.318,0.503,1.822,0l8.692-8.691
	C22.126,12.429,22.126,11.613,21.623,11.109"/>
</svg>
