<svg version="1.1" id="icon_github" xmlns="http://www.w3.org/2000/svg" xmlns:xlink="http://www.w3.org/1999/xlink" x="0px" y="0px"
	 width="24px" height="24px" viewBox="0 0 24 24" enable-background="new 0 0 24 24" xml:space="preserve">
<path d="M8.691,17.95c0,0.081-0.094,0.146-0.211,0.146c-0.133,0.012-0.226-0.055-0.226-0.146c0-0.08,0.093-0.145,0.21-0.145
	C8.585,17.793,8.691,17.856,8.691,17.95z M7.437,17.771c-0.028,0.08,0.051,0.174,0.174,0.197c0.104,0.039,0.225,0,0.25-0.08
	c0.023-0.082-0.053-0.174-0.174-0.211C7.582,17.647,7.463,17.688,7.437,17.771z M9.218,17.701c-0.117,0.028-0.197,0.104-0.186,0.198
	c0.012,0.078,0.117,0.132,0.236,0.104c0.118-0.027,0.198-0.104,0.187-0.186C9.445,17.742,9.334,17.688,9.218,17.701z M11.872,2.25
	C6.279,2.25,2,6.496,2,12.089c0,4.471,2.814,8.298,6.835,9.644c0.516,0.094,0.697-0.226,0.697-0.488
	c0-0.249-0.012-1.628-0.012-2.475c0,0-2.824,0.604-3.416-1.203c0,0-0.459-1.173-1.121-1.475c0,0-0.923-0.634,0.064-0.622
	c0,0,1.003,0.08,1.557,1.04c0.883,1.557,2.363,1.108,2.94,0.844c0.093-0.646,0.354-1.095,0.646-1.358
	c-2.255-0.25-4.529-0.576-4.529-4.456c0-1.108,0.306-1.666,0.951-2.375C6.508,8.903,6.166,7.823,6.717,6.428
	C7.56,6.166,9.5,7.517,9.5,7.517c0.806-0.226,1.673-0.343,2.533-0.343s1.727,0.117,2.531,0.343c0,0,1.94-1.354,2.782-1.089
	c0.553,1.399,0.209,2.478,0.105,2.738c0.646,0.713,1.039,1.27,1.039,2.375c0,3.891-2.373,4.203-4.63,4.456
	c0.373,0.318,0.687,0.923,0.687,1.87c0,1.357-0.012,3.04-0.012,3.371c0,0.263,0.187,0.582,0.698,0.488
	C19.266,20.388,22,16.561,22,12.088C22.002,6.496,17.465,2.25,11.872,2.25z M5.919,16.157c-0.053,0.04-0.04,0.133,0.027,0.21
	c0.064,0.063,0.158,0.093,0.211,0.04c0.052-0.04,0.039-0.134-0.028-0.21C6.066,16.133,5.972,16.104,5.919,16.157z M5.484,15.83
	c-0.028,0.053,0.013,0.117,0.093,0.158c0.065,0.039,0.146,0.027,0.174-0.028c0.028-0.053-0.013-0.117-0.093-0.157
	C5.577,15.777,5.511,15.791,5.484,15.83z M6.792,17.267c-0.065,0.053-0.041,0.174,0.052,0.25c0.094,0.092,0.21,0.104,0.262,0.041
	c0.054-0.055,0.028-0.175-0.052-0.252C6.964,17.213,6.843,17.202,6.792,17.267z M6.331,16.674c-0.063,0.04-0.063,0.145,0,0.237
	s0.174,0.134,0.228,0.093c0.063-0.053,0.063-0.156,0-0.25C6.5,16.661,6.396,16.621,6.331,16.674z"/>
</svg>
