<svg version="1.1" id="master" xmlns="http://www.w3.org/2000/svg" xmlns:xlink="http://www.w3.org/1999/xlink" x="0px" y="0px"
	 width="24px" height="24px" viewBox="0 0 24 24" enable-background="new 0 0 24 24" xml:space="preserve">
<path d="M8.69,17.95c0,0.083-0.094,0.146-0.21,0.146c-0.132,0.013-0.226-0.054-0.226-0.146c0-0.079,0.094-0.145,0.21-0.145
	C8.585,17.794,8.69,17.856,8.69,17.95z M7.437,17.772c-0.027,0.08,0.051,0.174,0.173,0.196c0.104,0.039,0.225,0,0.25-0.08
	c0.022-0.082-0.053-0.174-0.174-0.212C7.582,17.646,7.463,17.688,7.437,17.772z M9.218,17.702c-0.117,0.027-0.197,0.104-0.186,0.197
	c0.012,0.078,0.117,0.133,0.236,0.104c0.118-0.026,0.197-0.104,0.188-0.187C9.445,17.744,9.334,17.688,9.218,17.702z M11.873,2.25
	C6.279,2.25,2,6.497,2,12.089c0,4.473,2.814,8.297,6.835,9.644c0.516,0.094,0.697-0.226,0.697-0.487
	c0-0.249-0.013-1.627-0.013-2.476c0,0-2.824,0.604-3.416-1.202c0,0-0.459-1.172-1.121-1.476c0,0-0.922-0.634,0.064-0.623
	c0,0,1.003,0.081,1.557,1.041c0.883,1.557,2.363,1.107,2.94,0.844c0.093-0.646,0.354-1.095,0.646-1.357
	c-2.255-0.25-4.529-0.576-4.529-4.456c0-1.108,0.305-1.667,0.951-2.376C6.508,8.904,6.166,7.823,6.717,6.428
	C7.56,6.167,9.5,7.518,9.5,7.518c0.806-0.226,1.673-0.343,2.533-0.343c0.859,0,1.727,0.118,2.531,0.343c0,0,1.939-1.354,2.781-1.089
	c0.553,1.399,0.209,2.479,0.105,2.739c0.646,0.712,1.039,1.27,1.039,2.375c0,3.891-2.374,4.203-4.631,4.455
	c0.372,0.318,0.688,0.924,0.688,1.871c0,1.356-0.013,3.04-0.013,3.371c0,0.263,0.188,0.582,0.697,0.488
	C19.266,20.389,22,16.563,22,12.088C22.002,6.497,17.466,2.25,11.873,2.25z M5.919,16.158c-0.053,0.04-0.041,0.132,0.026,0.21
	c0.064,0.063,0.158,0.092,0.211,0.039c0.052-0.039,0.039-0.133-0.028-0.209C6.066,16.134,5.973,16.104,5.919,16.158z M5.484,15.831
	c-0.028,0.053,0.013,0.117,0.093,0.158c0.065,0.039,0.146,0.026,0.173-0.028c0.028-0.053-0.014-0.118-0.093-0.157
	C5.577,15.778,5.511,15.792,5.484,15.831z M6.792,17.269c-0.065,0.053-0.041,0.174,0.052,0.25c0.094,0.092,0.21,0.104,0.262,0.041
	c0.054-0.055,0.028-0.176-0.052-0.252C6.964,17.214,6.843,17.203,6.792,17.269z M6.331,16.675c-0.063,0.04-0.063,0.145,0,0.237
	c0.063,0.091,0.173,0.134,0.228,0.092c0.063-0.053,0.063-0.157,0-0.25C6.5,16.661,6.396,16.622,6.331,16.675z"/>
</svg>
