<svg version="1.1" id="master" xmlns="http://www.w3.org/2000/svg" xmlns:xlink="http://www.w3.org/1999/xlink"
	 x="0px" y="0px" width="24px" height="24px" viewBox="0 0 24 24" enable-background="new 0 0 24 24" xml:space="preserve">
<path d="M21.934,12.847l-1.574-6.31c-0.205-0.823-0.75-1.53-1.492-1.938c-0.746-0.408-1.631-0.49-2.438-0.22l-0.529,0.176
	c-0.291,0.097-0.449,0.412-0.352,0.703l0.176,0.527c0.097,0.291,0.412,0.448,0.702,0.352l0.459-0.153
	c0.377-0.125,0.798-0.124,1.15,0.06c0.358,0.187,0.61,0.505,0.708,0.896l1.335,5.341c-0.771-0.237-1.729-0.433-2.819-0.433
	c-1.208,0-2.568,0.244-3.987,0.929h-2.542c-1.419-0.686-2.78-0.929-3.988-0.929c-1.091,0-2.049,0.196-2.82,0.433L5.257,6.94
	c0.097-0.391,0.35-0.71,0.708-0.896C6.317,5.86,6.738,5.858,7.116,5.984l0.457,0.153c0.291,0.097,0.605-0.061,0.702-0.352
	l0.176-0.527C8.549,4.967,8.391,4.652,8.1,4.555L7.57,4.379c-0.806-0.271-1.692-0.188-2.437,0.22C4.39,5.007,3.845,5.713,3.64,6.536
	l-1.574,6.311C2.022,13.022,2,13.203,2,13.384v2.439c0,2.185,1.791,3.955,4,3.955h1.289c2.093,0,3.832-1.596,3.989-3.659
	l0.102-1.341h1.242l0.102,1.341c0.156,2.063,1.896,3.659,3.988,3.659H18c2.209,0,4-1.771,4-3.955v-2.438
	C22,13.203,21.978,13.022,21.934,12.847z M9.062,15.951c-0.068,0.899-0.847,1.604-1.772,1.604H6c-0.98,0-1.778-0.776-1.778-1.731
	V14.52c0.629-0.225,1.507-0.448,2.52-0.448c0.829,0,1.641,0.15,2.428,0.448L9.062,15.951L9.062,15.951z M19.778,15.823
	c0,0.955-0.798,1.731-1.778,1.731h-1.289c-0.926,0-1.705-0.704-1.773-1.604L14.83,14.52c0.786-0.298,1.6-0.448,2.429-0.448
	c1.011,0,1.89,0.224,2.519,0.449L19.778,15.823L19.778,15.823z"/>
</svg>
