<svg version="1.1" id="master" xmlns="http://www.w3.org/2000/svg" xmlns:xlink="http://www.w3.org/1999/xlink" x="0px" y="0px"
	 width="24px" height="24px" viewBox="0 0 24 24" enable-background="new 0 0 24 24" xml:space="preserve">
<rect fill="none" width="24" height="24"/>
<path d="M17,9.504h2.496c0.336,0,0.656,0.066,0.96,0.2c0.305,0.133,0.571,0.313,0.801,0.539c0.229,0.226,0.41,0.491,0.543,0.795
	C21.934,11.343,22,11.664,22,12c0,0.348-0.065,0.674-0.195,0.979c-0.131,0.305-0.309,0.569-0.535,0.795
	c-0.226,0.227-0.491,0.404-0.796,0.535c-0.304,0.131-0.63,0.195-0.978,0.195H17c0,0.69-0.09,1.354-0.27,1.992
	c-0.18,0.637-0.432,1.232-0.757,1.787c-0.324,0.553-0.716,1.059-1.174,1.517s-0.965,0.85-1.521,1.175
	c-0.557,0.324-1.153,0.576-1.791,0.756S10.186,22,9.496,22c-0.69,0-1.354-0.09-1.992-0.27s-1.232-0.432-1.786-0.756
	C5.164,20.649,4.658,20.258,4.2,19.8s-0.85-0.964-1.174-1.517c-0.325-0.555-0.577-1.15-0.757-1.787C2.09,15.857,2,15.194,2,14.504V2
	h15V9.504z M3.252,3.252v10h5.313v-0.626c0-0.278,0.048-0.539,0.144-0.783c0.096-0.243,0.228-0.462,0.396-0.656
	s0.368-0.355,0.6-0.482c0.232-0.127,0.484-0.212,0.757-0.252c-0.018-0.11-0.026-0.22-0.026-0.331c0-0.208,0.023-0.394,0.069-0.556
	c0.047-0.163,0.109-0.312,0.188-0.448c0.078-0.136,0.172-0.266,0.282-0.391c0.11-0.125,0.229-0.256,0.356-0.396l0.07-0.079
	c-0.191-0.023-0.35-0.11-0.475-0.261c-0.124-0.15-0.187-0.319-0.187-0.504c0-0.22,0.075-0.406,0.226-0.556l2.817-2.817
	c0.151-0.151,0.334-0.227,0.548-0.227c0.221,0,0.406,0.076,0.557,0.227c0.151,0.15,0.227,0.336,0.227,0.556
	c0,0.215-0.075,0.397-0.227,0.548l-1.53,1.531c0.162-0.041,0.336-0.061,0.521-0.061c0.389,0,0.747,0.094,1.074,0.283
	s0.593,0.448,0.796,0.778V3.252H3.252z M8.227,8.252c0.139,0.145,0.268,0.284,0.387,0.417C8.731,8.803,8.835,8.94,8.922,9.083
	s0.153,0.297,0.2,0.465c0.046,0.168,0.069,0.359,0.069,0.574c0,0.302-0.058,0.586-0.174,0.853s-0.272,0.499-0.47,0.695
	c-0.197,0.197-0.429,0.354-0.695,0.47S7.302,12.313,7,12.313c-0.296,0-0.577-0.057-0.844-0.169
	c-0.267-0.113-0.501-0.271-0.704-0.474L4.2,10.426c-0.203-0.203-0.359-0.439-0.47-0.709S3.565,9.168,3.565,8.878
	c0-0.301,0.057-0.585,0.169-0.853C3.848,7.76,4.003,7.527,4.2,7.331c0.197-0.197,0.429-0.354,0.695-0.47
	c0.267-0.116,0.551-0.174,0.853-0.174c0.186,0,0.359,0.021,0.521,0.061l-1.53-1.531c-0.15-0.15-0.227-0.333-0.227-0.548
	c0-0.22,0.074-0.406,0.222-0.556c0.148-0.151,0.332-0.227,0.553-0.227c0.22,0,0.405,0.076,0.557,0.227l2.817,2.817
	c0.15,0.15,0.226,0.336,0.226,0.556c0,0.186-0.063,0.354-0.187,0.504C8.575,8.142,8.417,8.229,8.227,8.252z M9.496,20.748
	c0.562,0,1.106-0.071,1.635-0.213c0.527-0.143,1.022-0.348,1.486-0.617s0.892-0.598,1.283-0.983c0.391-0.386,0.729-0.819,1.013-1.3
	c-0.278-0.48-0.613-0.916-1.004-1.305c-0.392-0.389-0.82-0.717-1.287-0.986s-0.966-0.477-1.496-0.622
	c-0.53-0.145-1.074-0.218-1.63-0.218c-0.557,0-1.101,0.073-1.631,0.218c-0.53,0.146-1.027,0.353-1.491,0.622
	s-0.892,0.598-1.283,0.986c-0.391,0.389-0.726,0.824-1.004,1.305c0.278,0.48,0.613,0.913,1.004,1.296
	c0.392,0.382,0.82,0.708,1.287,0.978s0.964,0.478,1.491,0.622C8.397,20.676,8.939,20.748,9.496,20.748z M7,11.687
	c0.215,0,0.417-0.041,0.608-0.122c0.191-0.082,0.358-0.193,0.5-0.335c0.143-0.142,0.254-0.307,0.335-0.496s0.122-0.393,0.122-0.613
	c0-0.429-0.154-0.797-0.461-1.104L6.853,7.774C6.707,7.629,6.538,7.516,6.344,7.435C6.149,7.354,5.951,7.313,5.748,7.313
	c-0.221,0-0.425,0.041-0.613,0.122C4.946,7.516,4.781,7.627,4.639,7.77c-0.142,0.142-0.253,0.309-0.334,0.5S4.183,8.664,4.183,8.878
	c0,0.429,0.153,0.797,0.461,1.104l1.252,1.244c0.15,0.151,0.319,0.265,0.505,0.343C6.586,11.648,6.785,11.687,7,11.687z
	 M9.496,15.748c0.295,0,0.612,0.033,0.952,0.1c0.339,0.066,0.671,0.164,0.995,0.291c0.325,0.128,0.629,0.286,0.913,0.475
	c0.284,0.188,0.521,0.401,0.713,0.639c0.059,0.07,0.104,0.137,0.135,0.2c0.032,0.063,0.048,0.142,0.048,0.235
	c0,0.174-0.061,0.321-0.183,0.443c-0.121,0.121-0.27,0.182-0.443,0.182c-0.133,0-0.287-0.067-0.461-0.203
	c-0.174-0.137-0.384-0.287-0.63-0.453c-0.247-0.165-0.535-0.315-0.865-0.451C10.339,17.068,9.948,17,9.496,17
	c-0.296,0-0.56,0.024-0.792,0.074c-0.231,0.049-0.45,0.121-0.656,0.217s-0.407,0.215-0.604,0.357
	c-0.197,0.142-0.405,0.303-0.626,0.482c-0.081,0.063-0.147,0.111-0.2,0.143c-0.052,0.032-0.133,0.049-0.243,0.049
	c-0.168,0-0.314-0.063-0.439-0.188c-0.124-0.125-0.187-0.271-0.187-0.439c0-0.098,0.016-0.18,0.048-0.243
	c0.031-0.063,0.076-0.13,0.135-0.2c0.186-0.231,0.422-0.44,0.708-0.626c0.287-0.186,0.593-0.343,0.918-0.474
	c0.324-0.131,0.656-0.23,0.995-0.301C8.892,15.783,9.206,15.748,9.496,15.748z M7,9.174c0.128,0,0.249,0.025,0.365,0.074
	C7.481,9.297,7.583,9.365,7.67,9.452s0.154,0.188,0.204,0.304c0.049,0.116,0.074,0.238,0.074,0.365c0,0.134-0.025,0.258-0.074,0.374
	c-0.05,0.116-0.117,0.217-0.204,0.304s-0.188,0.155-0.305,0.205S7.128,11.078,7,11.078c-0.134,0-0.257-0.024-0.369-0.074
	C6.518,10.955,6.417,10.887,6.33,10.8s-0.154-0.188-0.204-0.304c-0.049-0.116-0.074-0.24-0.074-0.374
	c0-0.127,0.025-0.249,0.074-0.365c0.05-0.116,0.117-0.217,0.204-0.304s0.188-0.155,0.301-0.204C6.743,9.199,6.866,9.174,7,9.174z
	 M19.496,12.939c0.127,0,0.247-0.025,0.36-0.074s0.213-0.117,0.3-0.205c0.087-0.086,0.155-0.186,0.205-0.299
	c0.049-0.113,0.073-0.233,0.073-0.361s-0.024-0.248-0.073-0.361c-0.05-0.113-0.118-0.213-0.205-0.3
	c-0.087-0.087-0.187-0.155-0.3-0.205s-0.233-0.074-0.36-0.074h-8.748c-0.215,0-0.416,0.042-0.604,0.126s-0.354,0.197-0.496,0.339
	c-0.142,0.143-0.253,0.308-0.334,0.496c-0.082,0.188-0.122,0.39-0.122,0.604v0.313H19.496z M13.878,7.313
	c-0.214,0-0.414,0.039-0.6,0.118c-0.186,0.078-0.354,0.192-0.505,0.343l-1.252,1.244c-0.145,0.145-0.258,0.314-0.339,0.508
	c-0.081,0.194-0.122,0.393-0.122,0.596c0,0.116,0.012,0.221,0.035,0.313h0.626c-0.012-0.052-0.023-0.104-0.035-0.156
	c-0.011-0.052-0.017-0.104-0.017-0.157c0-0.133,0.024-0.258,0.073-0.374c0.05-0.116,0.118-0.216,0.205-0.3s0.188-0.151,0.304-0.2
	c0.116-0.049,0.241-0.074,0.374-0.074c0.128,0,0.249,0.025,0.365,0.074c0.116,0.049,0.218,0.117,0.305,0.204
	s0.155,0.188,0.204,0.304c0.049,0.116,0.074,0.238,0.074,0.365c0,0.104-0.018,0.209-0.053,0.313h1
	c0.122-0.122,0.238-0.236,0.348-0.343c0.11-0.107,0.208-0.219,0.292-0.335c0.084-0.116,0.15-0.245,0.2-0.387
	c0.049-0.142,0.073-0.306,0.073-0.491c0-0.214-0.04-0.417-0.121-0.609c-0.082-0.191-0.193-0.358-0.335-0.5
	c-0.143-0.142-0.308-0.253-0.496-0.335C14.294,7.354,14.093,7.313,13.878,7.313z M15.748,10.435v-0.426
	c-0.093,0.151-0.206,0.292-0.339,0.426H15.748z"/>
</svg>
