<svg version="1.1" id="icon_googleplus" xmlns="http://www.w3.org/2000/svg" xmlns:xlink="http://www.w3.org/1999/xlink" x="0px"
	 y="0px" width="24px" height="24px" viewBox="0 0 24 24" enable-background="new 0 0 24 24" xml:space="preserve">
<path d="M12,2C6.48,2,2,6.48,2,12c0,5.52,4.48,10,10,10c5.52,0,10-4.48,10-10C22,6.48,17.52,2,12,2z M9.149,17c-2.774,0-5-2.237-5-5
	c0-2.762,2.226-5,5-5c1.262,0,2.423,0.444,3.347,1.303l-1.354,1.314c-0.533-0.52-1.263-0.771-1.993-0.771
	c-1.73,0-3.113,1.431-3.113,3.149c0,1.718,1.379,3.149,3.113,3.149c1.314,0,2.617-0.771,2.827-2.149H9.149v-1.718h4.714
	c0.052,0.274,0.077,0.548,0.077,0.834C13.94,14.968,12.024,17,9.149,17z M18.432,12.718v1.431H17v-1.431h-1.432v-1.432H17v-1.43
	h1.432v1.431h1.42v1.431H18.432z"/>
</svg>
