<svg version="1.1" id="icon_googleandroid" xmlns="http://www.w3.org/2000/svg" xmlns:xlink="http://www.w3.org/1999/xlink" x="0px"
	 y="0px" width="24px" height="24px" viewBox="0 0 24 24" enable-background="new 0 0 24 24" xml:space="preserve">
<path d="M7,17c0,0.458,0.375,0.833,0.834,0.833h0.833v2.917c0,0.692,0.559,1.25,1.25,1.25s1.25-0.558,1.25-1.25v-2.917h1.666v2.917
	c0,0.692,0.559,1.25,1.25,1.25c0.692,0,1.25-0.558,1.25-1.25v-2.917h0.834C16.625,17.833,17,17.458,17,17V8.667H7V17z M4.917,8.667
	c-0.692,0-1.25,0.559-1.25,1.25v5.833c0,0.691,0.558,1.25,1.25,1.25c0.691,0,1.25-0.559,1.25-1.25V9.917
	C6.167,9.225,5.608,8.667,4.917,8.667z M19.083,8.667c-0.691,0-1.25,0.559-1.25,1.25v5.833c0,0.691,0.559,1.25,1.25,1.25
	c0.692,0,1.25-0.559,1.25-1.25V9.917C20.333,9.225,19.775,8.667,19.083,8.667z M14.941,3.8l1.084-1.083
	c0.166-0.167,0.166-0.425,0-0.591c-0.167-0.167-0.425-0.167-0.592,0L14.2,3.358c-0.659-0.333-1.408-0.525-2.2-0.525
	c-0.8,0-1.55,0.192-2.217,0.525L8.542,2.125c-0.167-0.167-0.425-0.167-0.592,0s-0.167,0.425,0,0.591l1.092,1.092
	C7.809,4.716,7,6.175,7,7.833h10C17,6.175,16.191,4.708,14.941,3.8z M10.334,6.167H9.5V5.333h0.834V6.167z M14.5,6.167h-0.833V5.333
	H14.5V6.167z"/>
</svg>
