<svg version="1.1" id="icon_googleplus_alt" xmlns="http://www.w3.org/2000/svg" xmlns:xlink="http://www.w3.org/1999/xlink"
	 x="0px" y="0px" width="24px" height="24px" viewBox="0 0 24 24" enable-background="new 0 0 24 24" xml:space="preserve">
<path d="M13.688,11.297c0.047,0.247,0.08,0.495,0.08,0.816c0,2.807-1.881,4.793-4.713,4.793C6.344,16.908,4.148,14.711,4.148,12
	c0-2.712,2.196-4.907,4.907-4.907c1.325,0,2.43,0.482,3.288,1.285l-1.333,1.278C10.648,9.309,10.013,8.9,9.056,8.9
	c-1.674,0-3.04,1.386-3.04,3.1S7.382,15.1,9.056,15.1c1.942,0,2.671-1.398,2.785-2.115H9.056v-1.687L13.688,11.297L13.688,11.297z
	 M18.427,11.462v-1.424h-1.431v1.424h-1.424v1.433h1.424v1.424h1.431v-1.424h1.425v-1.433H18.427z"/>
</svg>
