<svg version="1.1" id="master" xmlns="http://www.w3.org/2000/svg" xmlns:xlink="http://www.w3.org/1999/xlink" x="0px" y="0px"
	 width="24px" height="24px" viewBox="0 0 24 24" enable-background="new 0 0 24 24" xml:space="preserve">
<rect fill="none" width="24" height="24"/>
<path d="M20.182,4.727h-9.091L10.182,2H3.818C2.818,2,2,2.818,2,3.818v13.636c0,1,0.818,1.818,1.818,1.818h7.272L12,22h8.182
	c1,0,1.818-0.818,1.818-1.818V6.545C22,5.545,21.182,4.727,20.182,4.727z M7.455,15.637c-2.509,0-4.545-2.037-4.545-4.546
	s2.037-4.545,4.545-4.545C8.682,6.545,9.709,7,10.5,7.727L9.3,8.882C8.955,8.555,8.355,8.173,7.455,8.173
	c-1.582,0-2.864,1.309-2.864,2.918c0,1.608,1.282,2.918,2.864,2.918c1.827,0,2.582-1.31,2.654-2.191H7.455v-1.554h4.255
	c0.063,0.282,0.108,0.555,0.108,0.927C11.818,13.792,10.082,15.637,7.455,15.637z M13.063,10.709h3.364
	c-0.392,1.137-1.01,2.209-1.864,3.154c-0.282-0.317-0.545-0.654-0.781-0.999L13.063,10.709z M20.637,19.728
	c0,0.5-0.409,0.909-0.909,0.909h-5.909l1.818-2.273l-0.946-2.817l2.819,2.817l0.836-0.836l-3.001-2.954l0.02-0.019
	c1.026-1.136,1.754-2.445,2.181-3.836h1.728V9.537h-4.117V8.364h-1.174v1.173h-1.309l-1.164-3.446h8.218
	c0.5,0,0.909,0.409,0.909,0.909V19.728z"/>
</svg>
