<svg version="1.1" id="icon_googleplus" xmlns="http://www.w3.org/2000/svg" xmlns:xlink="http://www.w3.org/1999/xlink" x="0px" y="0px"
	 width="24px" height="24px" viewBox="0 0 24 24" enable-background="new 0 0 24 24" xml:space="preserve">
<path d="M12,1.5C6.204,1.5,1.5,6.204,1.5,12S6.204,22.5,12,22.5S22.5,17.796,22.5,12S17.796,1.5,12,1.5z M9.007,17.25
	c-2.913,0-5.25-2.35-5.25-5.25s2.337-5.25,5.25-5.25c1.325,0,2.544,0.466,3.514,1.368l-1.422,1.38
	C10.54,8.952,9.773,8.689,9.007,8.689c-1.817,0-3.269,1.503-3.269,3.307c0,1.804,1.448,3.307,3.269,3.307
	c1.38,0,2.748-0.81,2.968-2.257H9.007v-1.804h4.949c0.055,0.288,0.081,0.576,0.081,0.876C14.037,15.116,12.025,17.25,9.007,17.25z
	 M18.753,12.754v1.502H17.25v-1.502h-1.503V11.25h1.503V9.748h1.503v1.503h1.491v1.503H18.753z"/>
</svg>
