<?xml version="1.0" encoding="utf-8"?>
<!-- Generator: Adobe Illustrator 16.0.0, SVG Export Plug-In . SVG Version: 6.00 Build 0)  -->
<!DOCTYPE svg PUBLIC "-//W3C//DTD SVG 1.1//EN" "http://www.w3.org/Graphics/SVG/1.1/DTD/svg11.dtd">
<svg version="1.1" id="master" xmlns="http://www.w3.org/2000/svg" xmlns:xlink="http://www.w3.org/1999/xlink" x="0px" y="0px"
	 width="24px" height="24px" viewBox="0 0 24 24" enable-background="new 0 0 24 24" xml:space="preserve">
<path d="M7.303,10.448L4.217,5.714C6.141,3.327,9.011,2.013,11.96,2c1.708-0.012,3.447,0.423,5.028,1.339
	c1.748,1.016,3.087,2.476,3.927,4.153l-8.271-0.436C10.3,6.92,8.064,8.238,7.303,10.448z M8.621,12.001
	c0,1.863,1.513,3.371,3.378,3.371c1.854,0,3.369-1.508,3.369-3.371c0-1.863-1.515-3.372-3.369-3.372
	C10.134,8.629,8.621,10.134,8.621,12.001z M21.325,8.404l-5.636,0.29c1.523,1.787,1.554,4.363,0.265,6.339l-4.521,6.951
	c1.875,0.102,3.808-0.311,5.555-1.325C21.325,18.159,23.083,12.917,21.325,8.404z M7.391,13.921l-3.77-7.4
	C2.596,8.094,2,9.98,2,12.001c0,5,3.662,9.142,8.447,9.875l2.569-5.032C10.691,17.279,8.445,16.005,7.391,13.921z"/>
</svg>
