<?xml version="1.0" encoding="utf-8"?>
<!-- Generator: Adobe Illustrator 16.0.0, SVG Export Plug-In . SVG Version: 6.00 Build 0)  -->
<!DOCTYPE svg PUBLIC "-//W3C//DTD SVG 1.1//EN" "http://www.w3.org/Graphics/SVG/1.1/DTD/svg11.dtd">
<svg version="1.1" id="master" xmlns="http://www.w3.org/2000/svg" xmlns:xlink="http://www.w3.org/1999/xlink" x="0px" y="0px"
	 width="24px" height="24px" viewBox="0 0 24 24" enable-background="new 0 0 24 24" xml:space="preserve">
<path d="M7,17c0,0.458,0.375,0.834,0.833,0.834h0.833v2.916c0,0.692,0.559,1.25,1.25,1.25c0.692,0,1.25-0.558,1.25-1.25v-2.916
	h1.667v2.916c0,0.692,0.558,1.25,1.25,1.25c0.691,0,1.25-0.558,1.25-1.25v-2.916h0.832C16.625,17.834,17,17.458,17,17V8.667H7V17z
	 M4.917,8.667c-0.692,0-1.25,0.558-1.25,1.25v5.833c0,0.692,0.558,1.25,1.25,1.25s1.25-0.558,1.25-1.25V9.917
	C6.167,9.225,5.608,8.667,4.917,8.667z M19.084,8.667c-0.691,0-1.25,0.558-1.25,1.25v5.833c0,0.692,0.559,1.25,1.25,1.25
	s1.25-0.558,1.25-1.25V9.917C20.334,9.225,19.775,8.667,19.084,8.667z M14.941,3.8l1.084-1.083c0.166-0.167,0.166-0.425,0-0.592
	c-0.168-0.167-0.426-0.167-0.592,0l-1.232,1.233C13.541,3.025,12.792,2.833,12,2.833c-0.8,0-1.55,0.191-2.217,0.525L8.542,2.125
	c-0.167-0.167-0.425-0.167-0.591,0c-0.167,0.167-0.167,0.425,0,0.592l1.092,1.092C7.809,4.717,7,6.175,7,7.833h10
	C17,6.175,16.191,4.708,14.941,3.8z M10.333,6.167H9.5V5.333h0.833V6.167z M14.5,6.167h-0.834V5.333H14.5V6.167z"/>
</svg>
