<svg version="1.1" id="master" xmlns="http://www.w3.org/2000/svg" xmlns:xlink="http://www.w3.org/1999/xlink" x="0px" y="0px"
	 width="24px" height="24px" viewBox="0 0 24 24" enable-background="new 0 0 24 24" xml:space="preserve">
<path d="M18.662,8.663C18.662,5,15.664,2,12,2C8.337,2,5.338,5,5.338,8.663c0,2.125,1,4.075,2.662,5.337v6.649h1.35V22h5.3v-1.35H16
	V14C17.676,12.75,18.662,10.775,18.662,8.663z M9.338,19.312v-1.313h5.325v1.313H9.338z M9.338,16.65v-1.313h5.325v1.313H9.338z
	 M14.962,13.099l-0.299,0.2V14H9.338v-0.699l-0.288-0.2c-1.499-1-2.375-2.65-2.375-4.437c0-2.938,2.375-5.326,5.325-5.326
	s5.325,2.376,5.325,5.326c0,1.788-0.875,3.45-2.375,4.437h0.012V13.099z"/>
</svg>
