<svg version="1.1" id="icon_googleplus_alt" xmlns="http://www.w3.org/2000/svg" xmlns:xlink="http://www.w3.org/1999/xlink"
	 x="0px" y="0px" width="24px" height="24px" viewBox="0 0 24 24" enable-background="new 0 0 24 24" xml:space="preserve">
<path d="M14.149,11.104c0.06,0.315,0.102,0.631,0.102,1.039c0,3.575-2.395,6.105-6.001,6.105C4.796,18.251,2,15.453,2,12
	c0-3.454,2.796-6.249,6.25-6.249c1.687,0,3.094,0.614,4.187,1.637l-1.698,1.627c-0.46-0.442-1.269-0.963-2.488-0.963
	c-2.132,0-3.872,1.766-3.872,3.948s1.74,3.948,3.872,3.948c2.473,0,3.401-1.78,3.546-2.694H8.251v-2.148L14.149,11.104
	L14.149,11.104z M20.186,11.315V9.501h-1.822v1.813H16.55v1.825h1.813v1.813h1.822V13.14H22v-1.825H20.186z"/>
</svg>
