<svg version="1.1" id="master" xmlns="http://www.w3.org/2000/svg" xmlns:xlink="http://www.w3.org/1999/xlink" x="0px" y="0px"
	 width="24px" height="24px" viewBox="0 0 24 24" enable-background="new 0 0 24 24" xml:space="preserve">
<path d="M11.72,2.004c-0.585,0.015-1.181,0.082-1.784,0.203c-3.947,0.788-7.038,3.938-7.763,7.9c-1.133,6.171,3.414,11.88,9.3,11.88
	L20.521,22C21.339,22,22,21.339,22,20.522V12C21.999,6.383,17.37,1.85,11.72,2.004z M11.999,7.112c2.699,0,4.885,2.188,4.885,4.888
	v4.675c0,0.205-0.244,0.306-0.389,0.162l-1.216-1.217c-0.868,0.787-2.017,1.267-3.281,1.267c-2.7,0-4.888-2.188-4.888-4.887
	C7.111,9.3,9.3,7.112,11.999,7.112L11.999,7.112z"/>
</svg>
