<svg version="1.1" id="icon_googleplus_alt" xmlns="http://www.w3.org/2000/svg" xmlns:xlink="http://www.w3.org/1999/xlink" x="0px" y="0px"
	 width="24px" height="24px" viewBox="0 0 24 24" enable-background="new 0 0 24 24" xml:space="preserve">
<path d="M14.15,11.104c0.06,0.315,0.103,0.631,0.103,1.04c0,3.574-2.396,6.105-6.003,6.105C4.797,18.25,2,15.453,2,12
	c0-3.454,2.797-6.25,6.25-6.25c1.688,0,3.095,0.614,4.187,1.637L10.74,9.015c-0.461-0.443-1.271-0.963-2.49-0.963
	c-2.132,0-3.871,1.765-3.871,3.948c0,2.184,1.739,3.947,3.871,3.947c2.473,0,3.402-1.781,3.547-2.694H8.25v-2.148H14.15
	L14.15,11.104z M20.186,11.314V9.5h-1.823v1.814h-1.813v1.824h1.813v1.813h1.823v-1.813H22v-1.824H20.186z"/>
</svg>
