<svg version="1.1" id="master" xmlns="http://www.w3.org/2000/svg" xmlns:xlink="http://www.w3.org/1999/xlink" x="0px" y="0px"
	 width="24px" height="24px" viewBox="0 0 24 24" enable-background="new 0 0 24 24" xml:space="preserve">
<path fill="#3DDC84" d="M16.604,14.785c-0.461,0-0.834-0.373-0.834-0.833s0.373-0.833,0.834-0.833c0.459,0,0.832,0.373,0.832,0.833
	C17.436,14.411,17.063,14.784,16.604,14.785 M7.397,14.785c-0.46,0-0.833-0.373-0.833-0.833s0.373-0.833,0.833-0.833
	s0.833,0.373,0.833,0.833C8.229,14.411,7.857,14.784,7.397,14.785 M16.9,9.769l1.664-2.883c0.097-0.166,0.039-0.377-0.125-0.473
	c-0.166-0.096-0.377-0.039-0.474,0.126l0,0l-1.685,2.919C14.992,8.871,13.544,8.542,12,8.542S9.008,8.871,7.719,9.458L6.034,6.54
	C5.938,6.374,5.727,6.316,5.561,6.413C5.396,6.507,5.339,6.719,5.434,6.885l0,0l1.665,2.883C4.241,11.322,2.286,14.216,2,17.634h20
	C21.714,14.216,19.759,11.322,16.9,9.769"/>
</svg>
