<svg version="1.1" id="master" xmlns="http://www.w3.org/2000/svg" xmlns:xlink="http://www.w3.org/1999/xlink" x="0px" y="0px"
	 width="24px" height="24px" viewBox="0 0 24 24" enable-background="new 0 0 24 24" xml:space="preserve">
<rect fill="none" width="24" height="24"/>
<path d="M3.509,10.526c-0.039,0-0.048-0.019-0.029-0.049l0.205-0.263c0.019-0.029,0.067-0.048,0.106-0.048h3.477
	c0.039,0,0.048,0.029,0.029,0.058l-0.166,0.253c-0.02,0.03-0.068,0.058-0.098,0.058L3.509,10.526z M2.039,11.422
	c-0.039,0-0.049-0.019-0.029-0.048l0.204-0.264c0.02-0.029,0.068-0.048,0.108-0.048h4.44c0.039,0,0.059,0.029,0.048,0.059
	l-0.078,0.233c-0.01,0.039-0.048,0.058-0.087,0.058L2.039,11.422z M4.396,12.318c-0.039,0-0.049-0.029-0.029-0.059l0.136-0.244
	c0.019-0.029,0.059-0.058,0.098-0.058h1.947c0.039,0,0.058,0.029,0.058,0.069L6.586,12.26c0,0.039-0.039,0.068-0.068,0.068
	L4.396,12.318z M14.503,10.351c-0.613,0.156-1.031,0.273-1.636,0.429c-0.146,0.038-0.156,0.048-0.283-0.098
	c-0.145-0.166-0.252-0.272-0.457-0.37c-0.614-0.301-1.208-0.214-1.762,0.146c-0.663,0.428-1.003,1.062-0.994,1.851
	c0.009,0.778,0.545,1.421,1.314,1.528c0.663,0.088,1.217-0.145,1.656-0.643c0.088-0.107,0.164-0.224,0.262-0.36h-1.878
	c-0.204,0-0.253-0.127-0.185-0.292c0.126-0.302,0.36-0.808,0.497-1.062c0.042-0.096,0.139-0.157,0.244-0.156h3.544
	c-0.02,0.264-0.02,0.526-0.059,0.79c-0.102,0.693-0.376,1.35-0.798,1.908c-0.701,0.925-1.617,1.5-2.775,1.655
	c-0.955,0.126-1.841-0.059-2.62-0.643c-0.721-0.546-1.13-1.267-1.237-2.162c-0.126-1.062,0.185-2.016,0.828-2.854
	c0.692-0.905,1.607-1.48,2.727-1.684c0.915-0.166,1.791-0.058,2.581,0.477c0.516,0.341,0.885,0.808,1.129,1.373
	C14.659,10.273,14.62,10.322,14.503,10.351 M17.727,15.736c-0.886-0.02-1.695-0.273-2.377-0.857
	c-0.566-0.479-0.94-1.146-1.052-1.879c-0.175-1.101,0.127-2.075,0.79-2.941c0.711-0.935,1.567-1.421,2.726-1.625
	c0.994-0.175,1.929-0.079,2.775,0.497c0.77,0.525,1.247,1.237,1.374,2.171c0.164,1.315-0.215,2.387-1.12,3.302
	c-0.643,0.652-1.433,1.061-2.337,1.246C18.242,15.697,17.979,15.707,17.727,15.736z M20.044,11.802
	c-0.01-0.127-0.01-0.224-0.029-0.322c-0.175-0.964-1.062-1.509-1.986-1.295c-0.906,0.204-1.49,0.779-1.704,1.694
	c-0.176,0.76,0.194,1.53,0.896,1.841c0.536,0.233,1.071,0.204,1.588-0.058C19.576,13.263,19.995,12.64,20.044,11.802L20.044,11.802z
	"/>
</svg>
