<svg version="1.1" id="master" xmlns="http://www.w3.org/2000/svg" xmlns:xlink="http://www.w3.org/1999/xlink" x="0px" y="0px"
	 width="24px" height="24px" viewBox="0 0 24 24" enable-background="new 0 0 24 24" xml:space="preserve">
<rect fill="none" width="24" height="24"/>
<path d="M21.375,15.75H20.75v-4.375c0-0.344-0.281-0.625-0.625-0.625H19.5V7.625C19.5,7.281,19.219,7,18.875,7H18.25V2.625
	C18.25,2.281,17.969,2,17.625,2S17,2.281,17,2.625V3.25h-2.5V2.625C14.5,2.281,14.219,2,13.875,2S13.25,2.281,13.25,2.625V3.25h-2.5
	V2.625C10.75,2.281,10.469,2,10.125,2S9.5,2.281,9.5,2.625V3.25H7V2.625C7,2.281,6.719,2,6.375,2S5.75,2.281,5.75,2.625V7H5.125
	C4.781,7,4.5,7.281,4.5,7.625v3.125H3.875c-0.344,0-0.625,0.281-0.625,0.625v4.375H2.625C2.281,15.75,2,16.031,2,16.375v5
	C2,21.719,2.281,22,2.625,22H5.75v-6.25H7v-5h1.25V7H9.5v3.75H8.25v5H7V22h3.125v-3.125c0-0.344,0.281-0.625,0.625-0.625h2.5
	c0.344,0,0.625,0.281,0.625,0.625V22H17v-6.25h-1.25v-5H14.5V7h1.25v3.75H17v5h1.25V22h3.125C21.719,22,22,21.719,22,21.375v-5
	C22,16.031,21.719,15.75,21.375,15.75z M11.063,8.875c0-0.344,0.281-0.625,0.625-0.625h0.625c0.344,0,0.625,0.281,0.625,0.625v1.875
	h-1.875V8.875z M13.25,15.75h-2.5v-2.5c0-0.344,0.281-0.625,0.625-0.625h1.25c0.344,0,0.625,0.281,0.625,0.625V15.75z"/>
</svg>
