<svg version="1.1" id="master" xmlns="http://www.w3.org/2000/svg" xmlns:xlink="http://www.w3.org/1999/xlink" x="0px" y="0px"
	 width="24px" height="24px" viewBox="0 0 24 24" enable-background="new 0 0 24 24" xml:space="preserve">
<path d="M15.559,12.735c0.226,0.226,0.402,0.489,0.531,0.79c0.13,0.303,0.194,0.625,0.194,0.97s-0.064,0.669-0.194,0.974
	c-0.129,0.305-0.306,0.57-0.531,0.796c-0.225,0.226-0.49,0.403-0.795,0.536S14.134,17,13.789,17c-0.344,0-0.669-0.064-0.975-0.193
	c-0.305-0.13-0.569-0.307-0.794-0.532c-0.226-0.226-0.404-0.49-0.537-0.796c-0.132-0.305-0.199-0.629-0.199-0.974
	s0.066-0.669,0.199-0.974c0.133-0.305,0.313-0.57,0.542-0.796s0.494-0.404,0.795-0.537C13.121,12.066,13.445,12,13.789,12
	c0.345,0,0.67,0.066,0.975,0.199C15.068,12.332,15.334,12.51,15.559,12.735z M11.423,8.74c-0.377-0.206-0.775-0.308-1.193-0.308
	c-0.351,0-0.679,0.064-0.984,0.194c-0.305,0.129-0.57,0.306-0.795,0.532c-0.225,0.225-0.404,0.49-0.537,0.795
	c-0.133,0.305-0.199,0.633-0.199,0.984c0,0.219,0.026,0.426,0.08,0.621c0.053,0.195,0.129,0.389,0.229,0.582
	c0.298-0.278,0.636-0.49,1.014-0.636c0.378-0.146,0.772-0.219,1.183-0.219c0.06,0,0.121,0.002,0.184,0.005
	c0.063,0.003,0.124,0.009,0.184,0.015c-0.006-0.06-0.012-0.119-0.015-0.179c-0.003-0.06-0.005-0.116-0.005-0.169
	c0-0.417,0.073-0.815,0.219-1.193C10.933,9.386,11.145,9.044,11.423,8.74z M10.032,7.716l0.179-0.01
	c0.318,0,0.629,0.048,0.934,0.145C11.45,7.946,11.735,8.08,12,8.252c0.438-0.285,0.904-0.457,1.401-0.517
	c0.021-0.119,0.03-0.242,0.03-0.368c0-0.344-0.064-0.669-0.193-0.974c-0.13-0.305-0.309-0.571-0.537-0.8
	c-0.229-0.229-0.496-0.409-0.801-0.542c-0.305-0.133-0.629-0.199-0.974-0.199c-0.265,0-0.52,0.04-0.765,0.119
	S9.69,5.166,9.485,5.315C9.28,5.464,9.098,5.642,8.938,5.847C8.779,6.052,8.657,6.278,8.571,6.523
	c0.298,0.119,0.573,0.28,0.825,0.482S9.859,7.444,10.032,7.716z M12.02,9.162c-0.226,0.229-0.404,0.496-0.537,0.8
	c-0.132,0.305-0.199,0.629-0.199,0.974c0,0.093,0.003,0.186,0.01,0.278c0.006,0.093,0.023,0.186,0.049,0.278
	c0.239,0.093,0.458,0.205,0.656,0.338c0.543-0.364,1.14-0.547,1.789-0.547c0.404,0,0.795,0.075,1.174,0.224
	c0.377,0.149,0.715,0.36,1.014,0.631c0.211-0.371,0.318-0.775,0.318-1.213c0-0.344-0.066-0.667-0.199-0.969
	c-0.133-0.301-0.312-0.566-0.537-0.795c-0.225-0.229-0.49-0.409-0.795-0.542c-0.305-0.132-0.63-0.199-0.975-0.199
	c-0.344,0-0.669,0.066-0.975,0.199C12.51,8.753,12.245,8.934,12.02,9.162z M16.543,9.276C16.848,9.793,17,10.347,17,10.937
	c0,0.377-0.066,0.749-0.199,1.113c0.094-0.013,0.188-0.025,0.283-0.035C17.181,12.005,17.275,12,17.367,12
	c0.404,0,0.794,0.073,1.168,0.219c0.375,0.146,0.711,0.357,1.01,0.637c0.212-0.372,0.318-0.776,0.318-1.213
	c0-0.351-0.066-0.679-0.199-0.984s-0.314-0.568-0.547-0.791c-0.232-0.222-0.502-0.397-0.811-0.527
	c-0.308-0.129-0.634-0.194-0.979-0.194C17.043,9.147,16.781,9.19,16.543,9.276z M4.853,9.495c0,0.332,0.06,0.643,0.179,0.934
	c0.119,0.292,0.283,0.549,0.492,0.771c0.208,0.222,0.456,0.404,0.741,0.547c0.285,0.143,0.589,0.224,0.914,0.244
	C7.06,11.652,7,11.298,7,10.926c0-0.344,0.055-0.679,0.164-1.004S7.427,9.3,7.626,9.028c0.199-0.271,0.436-0.508,0.71-0.711
	c0.275-0.202,0.578-0.353,0.91-0.452C9.015,7.586,8.733,7.373,8.401,7.224C8.07,7.075,7.726,7,7.368,7
	C7.023,7,6.698,7.064,6.394,7.194S5.822,7.5,5.593,7.726C5.365,7.951,5.184,8.216,5.052,8.521C4.919,8.826,4.853,9.15,4.853,9.495z
	 M17.716,16.115c0.536-0.364,1.13-0.547,1.779-0.547c0.053,0,0.109,0.002,0.169,0.006c0.06,0.002,0.115,0.008,0.169,0.014
	c0.021-0.125,0.03-0.252,0.03-0.377c0-0.345-0.066-0.668-0.199-0.969c-0.133-0.303-0.313-0.565-0.542-0.791
	c-0.229-0.225-0.493-0.404-0.795-0.537s-0.624-0.198-0.97-0.198c-0.277,0-0.55,0.046-0.814,0.14C16.848,13.352,17,13.896,17,14.484
	c0,0.404-0.076,0.806-0.229,1.203C17.123,15.781,17.438,15.924,17.716,16.115z M14.137,7.542c0,0.063-0.006,0.127-0.02,0.193
	c0.378,0.034,0.736,0.133,1.074,0.298C15.529,8.2,15.83,8.418,16.096,8.69c0.199-0.093,0.407-0.159,0.626-0.199
	c0.219-0.04,0.438-0.06,0.656-0.06c0.053,0,0.104,0,0.153,0c0.051,0,0.102,0.003,0.154,0.01c0.02-0.119,0.03-0.242,0.03-0.368
	c0-0.345-0.066-0.669-0.198-0.974c-0.133-0.305-0.313-0.57-0.537-0.795c-0.226-0.225-0.49-0.404-0.795-0.537
	c-0.306-0.133-0.631-0.199-0.975-0.199c-0.246,0-0.484,0.037-0.716,0.109c-0.231,0.073-0.45,0.176-0.656,0.308
	c0.198,0.431,0.298,0.885,0.298,1.362C14.137,7.414,14.137,7.479,14.137,7.542z M7.621,16.408c-0.202-0.281-0.356-0.594-0.462-0.939
	C7.053,15.125,7,14.764,7,14.386c-0.438,0.206-0.785,0.512-1.044,0.919c-0.258,0.408-0.388,0.854-0.388,1.338
	c0,0.344,0.066,0.669,0.199,0.974c0.132,0.305,0.312,0.569,0.537,0.796c0.225,0.225,0.49,0.404,0.795,0.536
	c0.305,0.133,0.629,0.198,0.974,0.198c0.364,0,0.722-0.082,1.073-0.248V18.76c0-0.411,0.073-0.795,0.219-1.153
	c-0.371-0.1-0.704-0.253-0.999-0.462S7.823,16.69,7.621,16.408z M21.26,17.016c-0.229-0.223-0.497-0.398-0.806-0.527
	c-0.308-0.129-0.634-0.193-0.979-0.193c-0.338,0-0.657,0.065-0.959,0.198c-0.301,0.132-0.564,0.312-0.79,0.536
	c-0.226,0.227-0.402,0.489-0.532,0.791C17.064,18.121,17,18.441,17,18.779c0,0.352,0.064,0.678,0.193,0.979
	c0.13,0.303,0.309,0.567,0.537,0.796s0.494,0.407,0.795,0.536c0.302,0.13,0.629,0.194,0.979,0.194c0.345,0,0.669-0.064,0.975-0.194
	c0.305-0.129,0.569-0.306,0.795-0.531c0.226-0.225,0.402-0.49,0.532-0.795C21.936,19.459,22,19.134,22,18.789
	c0-0.352-0.066-0.68-0.199-0.984C21.669,17.5,21.488,17.236,21.26,17.016z M16.284,18.789c0-0.418,0.073-0.809,0.219-1.173
	s0.358-0.702,0.636-1.014c-0.112-0.06-0.229-0.112-0.348-0.159s-0.242-0.083-0.367-0.109c-0.305,0.443-0.691,0.785-1.158,1.023
	s-0.969,0.358-1.506,0.358h-0.09c-0.159,0.338-0.238,0.696-0.238,1.073c0,0.345,0.066,0.668,0.199,0.969
	c0.132,0.303,0.311,0.565,0.536,0.791c0.226,0.225,0.489,0.404,0.79,0.537c0.302,0.133,0.625,0.198,0.969,0.198
	c0.445,0,0.85-0.103,1.213-0.308c-0.277-0.299-0.49-0.637-0.636-1.014C16.357,19.584,16.284,19.193,16.284,18.789z M5.131,7.179
	c-0.543-0.477-0.964-1.04-1.263-1.689C3.571,4.84,3.421,4.154,3.421,3.432c0-0.192-0.069-0.359-0.208-0.502
	C3.074,2.787,2.908,2.716,2.716,2.716c-0.199,0-0.368,0.069-0.507,0.208S2,3.232,2,3.432c0,0.477,0.053,0.948,0.159,1.411
	C2.265,5.307,2.417,5.749,2.616,6.17s0.442,0.819,0.73,1.193c0.289,0.375,0.618,0.714,0.989,1.019
	C4.508,7.918,4.773,7.517,5.131,7.179z M12.716,18.779c0-0.41,0.073-0.802,0.219-1.173c-0.166-0.054-0.327-0.114-0.482-0.185
	c-0.156-0.068-0.306-0.15-0.452-0.243c-0.265,0.179-0.552,0.313-0.86,0.403c-0.308,0.089-0.621,0.134-0.939,0.134h-0.099
	c-0.166,0.351-0.249,0.712-0.249,1.083c0,0.346,0.066,0.668,0.199,0.97c0.132,0.302,0.313,0.565,0.542,0.79
	c0.229,0.226,0.494,0.402,0.795,0.531c0.302,0.13,0.625,0.194,0.969,0.194c0.212,0,0.421-0.024,0.626-0.074s0.4-0.128,0.586-0.233
	c-0.277-0.299-0.49-0.637-0.636-1.014C12.789,19.584,12.716,19.19,12.716,18.779z M10.842,16.926
	c0.202-0.05,0.396-0.128,0.582-0.234c-0.02-0.033-0.042-0.061-0.064-0.084c-0.023-0.023-0.048-0.051-0.075-0.084
	c-0.232-0.285-0.409-0.602-0.532-0.949c-0.123-0.349-0.184-0.708-0.184-1.079c0-0.411,0.073-0.8,0.219-1.168
	c0.146-0.368,0.358-0.704,0.636-1.009C11.052,12.106,10.651,12,10.221,12c-0.345,0-0.669,0.064-0.974,0.194s-0.57,0.308-0.795,0.537
	s-0.404,0.496-0.537,0.801c-0.133,0.305-0.199,0.629-0.199,0.974s0.066,0.668,0.199,0.97c0.132,0.301,0.312,0.564,0.537,0.79
	s0.491,0.403,0.795,0.536S9.876,17,10.221,17C10.433,17,10.64,16.975,10.842,16.926z M6.026,14.162
	c0.332-0.275,0.702-0.473,1.113-0.592c0.046-0.152,0.103-0.299,0.169-0.441s0.143-0.281,0.229-0.413H7.338
	c-0.51,0-0.991-0.114-1.441-0.343c-0.451-0.229-0.825-0.548-1.123-0.959c-0.206,0.225-0.363,0.482-0.472,0.771
	c-0.109,0.288-0.164,0.585-0.164,0.89c0,0.417,0.098,0.809,0.293,1.172c0.196,0.365,0.462,0.663,0.8,0.895
	C5.429,14.764,5.694,14.438,6.026,14.162z"/>
</svg>
