<svg version="1.1" id="master" xmlns="http://www.w3.org/2000/svg" xmlns:xlink="http://www.w3.org/1999/xlink" x="0px" y="0px"
	 width="24px" height="24px" viewBox="0 0 24 24" enable-background="new 0 0 24 24" xml:space="preserve">
<rect fill="none" width="24" height="24"/>
<path d="M12,2c-1.105,0-2,0.895-2,2v7c0,1.104,0.895,1.998,2,1.998c1.105,0,2-0.895,2-1.998V6.342
	c2.329,0.825,3.999,3.045,3.999,5.657c0,3.313-2.687,5.999-5.999,5.999c-3.312,0-6-2.686-6-5.998c0-1.658,0.671-3.158,1.757-4.242
	c0.781-0.782,0.781-2.048,0-2.83c-0.782-0.782-2.048-0.782-2.83,0C3.12,6.738,2,9.238,2,12c0,5.522,4.478,10,10,10s10-4.478,10-10
	S17.522,2,12,2"/>
</svg>
