<svg version="1.1" id="master" xmlns="http://www.w3.org/2000/svg" xmlns:xlink="http://www.w3.org/1999/xlink" x="0px" y="0px"
	 width="24px" height="24px" viewBox="0 0 24 24" enable-background="new 0 0 24 24" xml:space="preserve">
<rect fill="none" width="24" height="24"/>
<path d="M8.667,10.75h-2.5v-2.5H4.5v2.5H2v1.666h2.5v2.501h1.667v-2.501h2.5V10.75z M17,11.583c1.384,0,2.492-1.116,2.492-2.5
	s-1.108-2.5-2.492-2.5c-0.267,0-0.525,0.042-0.759,0.117c0.476,0.675,0.751,1.491,0.751,2.383s-0.283,1.7-0.751,2.384
	C16.475,11.542,16.733,11.583,17,11.583z M12.833,11.583c1.384,0,2.492-1.116,2.492-2.5s-1.108-2.5-2.492-2.5
	c-1.383,0-2.5,1.116-2.5,2.5S11.45,11.583,12.833,11.583z M18.35,13.384c0.692,0.608,1.15,1.383,1.15,2.366v1.667H22V15.75
	C22,14.467,20.025,13.675,18.35,13.384z M12.833,13.25c-1.667,0-5,0.833-5,2.5v1.667h10V15.75
	C17.833,14.083,14.5,13.25,12.833,13.25z"/>
</svg>
