<svg version="1.1" id="master" xmlns="http://www.w3.org/2000/svg" xmlns:xlink="http://www.w3.org/1999/xlink" x="0px" y="0px"
	 width="24px" height="24px" viewBox="0 0 24 24" enable-background="new 0 0 24 24" xml:space="preserve">
<rect fill="none" width="24" height="24"/>
<path d="M15.637,11.091c1.509,0,2.718-1.218,2.718-2.727c0-1.51-1.209-2.728-2.718-2.728c-1.51,0-2.728,1.218-2.728,2.728
	C12.909,9.873,14.127,11.091,15.637,11.091z M8.364,11.091c1.509,0,2.718-1.218,2.718-2.727c0-1.51-1.209-2.728-2.718-2.728
	S5.636,6.854,5.636,8.364C5.636,9.873,6.854,11.091,8.364,11.091z M8.364,12.909C6.246,12.909,2,13.973,2,16.091v2.272h12.728
	v-2.272C14.728,13.973,10.482,12.909,8.364,12.909z M15.637,12.909c-0.264,0-0.564,0.018-0.883,0.045
	c1.055,0.765,1.792,1.791,1.792,3.137v2.272H22v-2.272C22,13.973,17.755,12.909,15.637,12.909z"/>
</svg>
