<svg version="1.1" id="master" xmlns="http://www.w3.org/2000/svg" xmlns:xlink="http://www.w3.org/1999/xlink"
	 x="0px" y="0px" width="24px" height="24px" viewBox="0 0 24 24" enable-background="new 0 0 24 24" xml:space="preserve">
<path d="M21.637,3.525l-1.158-1.158c-0.488-0.488-1.279-0.488-1.768,0l0,0l-1.809,1.81c-0.15,0.151-0.266,0.336-0.334,0.539
	l-0.475,1.427l-2.979,2.979c-0.476-0.342-0.997-0.614-1.568-0.747C10.241,8.07,8.93,8.338,8.037,9.233
	c-0.364,0.366-0.636,0.814-0.791,1.308C7.011,11.265,6.34,11.817,5.6,11.886c-0.926,0.089-1.787,0.447-2.446,1.111
	c-1.783,1.776-1.462,4.979,0.705,7.147c2.168,2.164,5.368,2.482,7.148,0.705c0.664-0.66,1.021-1.52,1.111-2.449
	c0.068-0.736,0.621-1.412,1.344-1.646c0.494-0.154,0.943-0.428,1.309-0.791c0.895-0.895,1.162-2.201,0.859-3.506
	c-0.131-0.572-0.404-1.093-0.748-1.57l2.979-2.979l1.426-0.475c0.201-0.067,0.387-0.183,0.537-0.334l1.811-1.81
	C22.122,4.803,22.122,4.013,21.637,3.525z M10.125,15.75c-1.036,0-1.875-0.84-1.875-1.873c0-1.036,0.839-1.875,1.875-1.875
	c1.035,0,1.875,0.839,1.875,1.875C12,14.91,11.161,15.75,10.125,15.75z"/>
</svg>
