<svg version="1.1" id="master" xmlns="http://www.w3.org/2000/svg" xmlns:xlink="http://www.w3.org/1999/xlink"
	 x="0px" y="0px" width="24px" height="24px" viewBox="0 0 24 24" enable-background="new 0 0 24 24" xml:space="preserve">
<path d="M20.125,12H3.875C2.839,12,2,12.84,2,13.875s0.839,1.875,1.875,1.875h16.25c1.035,0,1.875-0.84,1.875-1.875
	S21.16,12,20.125,12L20.125,12z M20.75,17H3.25c-0.345,0-0.625,0.28-0.625,0.625v0.625c0,1.38,1.119,2.5,2.5,2.5h13.75
	c1.38,0,2.5-1.12,2.5-2.5v-0.625C21.375,17.28,21.095,17,20.75,17z M4.291,10.75H19.71c1.35,0,2.133-1.715,1.359-2.964
	C19.5,5.25,16.045,3.254,12,3.25c-4.044,0.004-7.5,2-9.069,4.536C2.156,9.035,2.94,10.75,4.291,10.75z M17,6.375
	c0.345,0,0.625,0.28,0.625,0.625S17.345,7.625,17,7.625S16.375,7.345,16.375,7S16.655,6.375,17,6.375z M12,5.125
	c0.345,0,0.625,0.28,0.625,0.625S12.345,6.375,12,6.375s-0.625-0.28-0.625-0.625S11.655,5.125,12,5.125z M7,6.375
	c0.345,0,0.625,0.28,0.625,0.625S7.345,7.625,7,7.625S6.375,7.345,6.375,7S6.655,6.375,7,6.375z"/>
</svg>
