<svg version="1.1" id="master" xmlns="http://www.w3.org/2000/svg" xmlns:xlink="http://www.w3.org/1999/xlink"
	 x="0px" y="0px" width="24px" height="24px" viewBox="0 0 24 24" enable-background="new 0 0 24 24" xml:space="preserve">
<path d="M14.155,2.163c-0.218-0.216-0.569-0.216-0.785-0.001l-3.144,3.143c-0.217,0.217-0.217,0.569,0,0.785l0.786,0.787
	c0.217,0.217,0.569,0.217,0.786,0l0.393-0.393l1.003,1.003c-0.195,0.74-0.012,1.559,0.568,2.14l1.706,1.706
	c0.416,0.417,0.982,0.651,1.571,0.651h0.651l1.571,3.143c2.169-2.17,2.169-5.688,0-7.857l-1.571-1.572
	c-0.581-0.58-1.4-0.763-2.14-0.567l-1.004-1.003l0.394-0.393c0.216-0.217,0.216-0.569,0-0.785L14.155,2.163L14.155,2.163z
	 M12.977,10.412c-0.123-0.123-0.226-0.259-0.326-0.397l-8.857,8.268c-0.889,0.83-0.913,2.229-0.054,3.089
	c0.859,0.857,2.259,0.834,3.087-0.054l8.271-8.858c-0.146-0.104-0.287-0.213-0.415-0.342L12.977,10.412z"/>
</svg>
