<svg version="1.1" id="master" xmlns="http://www.w3.org/2000/svg" xmlns:xlink="http://www.w3.org/1999/xlink" x="0px" y="0px"
	 width="24px" height="24px" viewBox="0 0 24 24" enable-background="new 0 0 24 24" xml:space="preserve">
<rect fill="none" width="24" height="24"/>
<path d="M15.584,5.998H12.9c-0.251,0-0.491,0.094-0.675,0.263L9.153,9.073C9.15,9.076,9.147,9.083,9.144,9.085
	c-0.519,0.487-0.509,1.266-0.065,1.75c0.397,0.435,1.231,0.55,1.753,0.084c0.002-0.003,0.009-0.003,0.012-0.006l2.497-2.288
	c0.203-0.184,0.521-0.172,0.706,0.031c0.188,0.203,0.172,0.519-0.031,0.707l-0.816,0.747l4.551,3.693
	c0.091,0.075,0.172,0.156,0.247,0.24V7.998L16.29,6.292C16.106,6.104,15.85,5.998,15.584,5.998z M19,8.004V15
	c0,0.554,0.446,1.001,1,1.001h2V8.004H19z M20.5,15c-0.275,0-0.5-0.225-0.5-0.499c0-0.275,0.225-0.5,0.5-0.5
	c0.274,0,0.5,0.225,0.5,0.5C21,14.775,20.774,15,20.5,15z M2,15.997h2c0.553,0,1-0.446,1-1V8.004H2V15.997z M3.5,14.001
	c0.275,0,0.5,0.225,0.5,0.5C4,14.775,3.775,15,3.5,15S3,14.775,3,14.501C3,14.223,3.225,14.001,3.5,14.001z M17.122,14.582
	l-4.667-3.787l-0.937,0.859c-0.928,0.846-2.35,0.765-3.178-0.138C7.5,10.598,7.565,9.176,8.479,8.339l2.556-2.341H8.416
	c-0.266,0-0.519,0.106-0.707,0.293L6,7.998v6.996h0.572l2.828,2.56c0.856,0.697,2.116,0.565,2.813-0.291l0.006-0.007l0.56,0.485
	c0.496,0.406,1.231,0.328,1.634-0.169l0.981-1.206l0.169,0.138c0.429,0.347,1.06,0.283,1.406-0.146l0.297-0.366
	C17.615,15.561,17.55,14.932,17.122,14.582z"/>
</svg>
