<svg version="1.1" id="master" xmlns="http://www.w3.org/2000/svg" xmlns:xlink="http://www.w3.org/1999/xlink" x="0px" y="0px"
	 width="24px" height="24px" viewBox="0 0 24 24" enable-background="new 0 0 24 24" xml:space="preserve">
<rect fill="none" width="24" height="24"/>
<path d="M13.983,6.363c-0.479,0.829-0.191,1.903,0.638,2.382c0.829,0.48,1.902,0.192,2.383-0.637
	c0.479-0.83,0.191-1.903-0.638-2.382C15.537,5.246,14.465,5.534,13.983,6.363z M15.354,10.211c0,0-1.423-0.82-2.269-1.309
	c-2.078-1.205-2.793-3.875-1.589-5.952L9.988,2.078C8.6,4.469,9.037,7.419,10.834,9.33L6.34,17.114l1.51,0.872l1.309-2.269
	l1.51,0.873l-2.618,4.537L9.56,22l5.489-9.503c0.995,1.354,1.161,3.221,0.271,4.765l1.509,0.873
	C18.226,15.735,17.946,12.393,15.354,10.211z M12.658,4.443c0.629,0.358,1.422,0.149,1.788-0.479
	c0.358-0.628,0.149-1.422-0.479-1.789c-0.629-0.358-1.422-0.148-1.789,0.48C11.82,3.283,12.029,4.085,12.658,4.443z"/>
</svg>
