<svg version="1.1" id="master" xmlns="http://www.w3.org/2000/svg" xmlns:xlink="http://www.w3.org/1999/xlink" x="0px" y="0px"
	 width="24px" height="24px" viewBox="0 0 24 24" enable-background="new 0 0 24 24" xml:space="preserve">
<path d="M21.167,6.583v12.083c0,1.833-1.5,3.333-3.334,3.333H11.75c-0.9,0-1.75-0.358-2.375-0.991l-6.542-6.65
	c0,0,1.05-1.025,1.083-1.042c0.184-0.157,0.409-0.241,0.658-0.241c0.184,0,0.351,0.05,0.501,0.134
	c0.033,0.008,3.591,2.05,3.591,2.05V5.333c0-0.692,0.559-1.25,1.25-1.25c0.692,0,1.25,0.558,1.25,1.25v5.833H12V3.25
	C12,2.558,12.559,2,13.25,2s1.25,0.558,1.25,1.25v7.917h0.833V4.083c0-0.692,0.559-1.25,1.25-1.25c0.692,0,1.25,0.558,1.25,1.25
	v7.083h0.834V6.583c0-0.692,0.558-1.25,1.25-1.25C20.608,5.333,21.167,5.892,21.167,6.583z"/>
</svg>
