<svg version="1.1" id="master" xmlns="http://www.w3.org/2000/svg" xmlns:xlink="http://www.w3.org/1999/xlink" x="0px" y="0px"
	 width="24px" height="24px" viewBox="0 0 24 24" enable-background="new 0 0 24 24" xml:space="preserve">
<path d="M21.673,8.701l0.318-1.786c0.059-0.329-0.194-0.63-0.527-0.63h-3.34l0.653-3.656C18.836,2.301,18.583,2,18.25,2h-1.813
	c-0.261,0-0.482,0.186-0.528,0.442l-0.687,3.844h-4.402l0.653-3.656C11.531,2.301,11.278,2,10.945,2H9.131
	c-0.26,0-0.482,0.186-0.527,0.442L7.917,6.286H4.386c-0.26,0-0.482,0.186-0.528,0.442L3.54,8.513
	c-0.059,0.328,0.193,0.63,0.527,0.63h3.339l-1.021,5.714H2.855c-0.26,0-0.482,0.186-0.527,0.441l-0.319,1.786
	c-0.059,0.328,0.194,0.629,0.527,0.629h3.34L5.223,21.37C5.165,21.698,5.417,22,5.75,22h1.814c0.26,0,0.482-0.187,0.527-0.441
	l0.687-3.845h4.403l-0.653,3.656C12.47,21.698,12.722,22,13.056,22h1.814c0.259,0,0.481-0.187,0.526-0.441l0.687-3.845h3.531
	c0.26,0,0.481-0.186,0.527-0.441l0.319-1.786c0.059-0.328-0.193-0.629-0.527-0.629h-3.34l1.021-5.714h3.531
	C21.404,9.143,21.627,8.957,21.673,8.701z M13.69,14.857H9.289l1.021-5.714h4.403L13.69,14.857z"/>
</svg>
