<svg version="1.1" id="master" xmlns="http://www.w3.org/2000/svg" xmlns:xlink="http://www.w3.org/1999/xlink" x="0px" y="0px"
	 width="24px" height="24px" viewBox="0 0 24 24" enable-background="new 0 0 24 24" xml:space="preserve">
<rect fill="none" width="24" height="24"/>
<path d="M17.729,12l3.969-3.97c0.389-0.389,0.389-1.017,0-1.406L17.37,2.296c-0.388-0.389-1.018-0.389-1.406,0l-3.969,3.97
	l-3.969-3.97c-0.2-0.189-0.449-0.289-0.708-0.289c-0.25,0-0.509,0.1-0.698,0.289L2.292,6.624c-0.39,0.39-0.39,1.018,0,1.406
	L6.261,12l-3.969,3.969c-0.39,0.39-0.39,1.017,0,1.406l4.328,4.328c0.389,0.39,1.017,0.39,1.406,0l3.969-3.97l3.969,3.97
	c0.2,0.2,0.449,0.289,0.708,0.289c0.26,0,0.509-0.1,0.708-0.289l4.329-4.328c0.388-0.39,0.388-1.017,0-1.406L17.729,12z
	 M12.015,8.988c0.549,0,0.998,0.448,0.998,0.997c0,0.548-0.449,0.997-0.998,0.997c-0.548,0-0.997-0.449-0.997-0.997
	C11.018,9.437,11.467,8.988,12.015,8.988z M7.318,10.942l-3.62-3.61l3.62-3.62l3.61,3.61L7.318,10.942z M10.021,12.978
	c-0.548,0-0.997-0.449-0.997-0.998c0-0.548,0.449-0.997,0.997-0.997c0.549,0,0.997,0.449,0.997,0.997
	C11.018,12.528,10.569,12.978,10.021,12.978z M12.015,14.972c-0.548,0-0.997-0.449-0.997-0.997c0-0.549,0.449-0.997,0.997-0.997
	c0.549,0,0.998,0.448,0.998,0.997C13.013,14.522,12.563,14.972,12.015,14.972z M14.01,10.982c0.548,0,0.997,0.449,0.997,0.997
	c0,0.549-0.449,0.998-0.997,0.998c-0.549,0-0.997-0.449-0.997-0.998C13.013,11.432,13.461,10.982,14.01,10.982z M16.662,20.297
	l-3.62-3.609l3.62-3.621l3.609,3.61L16.662,20.297z"/>
</svg>
