<svg version="1.1" id="master" xmlns="http://www.w3.org/2000/svg" xmlns:xlink="http://www.w3.org/1999/xlink" x="0px" y="0px"
	 width="24px" height="24px" viewBox="0 0 24 24" enable-background="new 0 0 24 24" xml:space="preserve">
<rect fill="none" width="24" height="24"/>
<path d="M11.5,16H20c0.553,0,1-0.447,1-1c0-3.865-3.134-7-7-7V6h5.5C19.776,6,20,5.776,20,5.5v-1C20,4.224,19.776,4,19.5,4h-13
	C6.224,4,6,4.224,6,4.5v1C6,5.776,6.224,6,6.5,6H12v2H5.5L4.15,6.2C4.056,6.074,3.907,6,3.75,6H2.5C2.175,6,1.936,6.306,2.015,6.621
	L3,10l5,2l2.7,3.601C10.889,15.852,11.186,16,11.5,16z M15,10.109c1.954,0.4,3.501,1.936,3.899,3.891H15V10.109z M21.855,18.338
	l-0.691-0.693c-0.196-0.196-0.509-0.191-0.709,0c-0.221,0.212-0.432,0.352-0.77,0.352H9.5c-0.276,0-0.5,0.225-0.5,0.501v1.001
	C9,19.775,9.224,20,9.5,20h10.186c0.466,0,1.104-0.015,2.139-0.923C22.044,18.885,22.062,18.545,21.855,18.338z"/>
</svg>
