<svg version="1.1" id="master" xmlns="http://www.w3.org/2000/svg" xmlns:xlink="http://www.w3.org/1999/xlink"
	 x="0px" y="0px" width="24px" height="24px" viewBox="0 0 24 24" enable-background="new 0 0 24 24" xml:space="preserve">
<path d="M20.75,13.25c0-3.135-1.926-5.817-4.656-6.938L14.5,9.5V5.125c0-0.345-0.28-0.625-0.625-0.625h-3.75
	C9.78,4.5,9.5,4.78,9.5,5.125V9.5L7.906,6.312C5.175,7.433,3.25,10.115,3.25,13.25v2.5h17.5V13.25z M21.375,17H2.625
	C2.28,17,2,17.28,2,17.625v1.25C2,19.22,2.28,19.5,2.625,19.5h18.75C21.72,19.5,22,19.22,22,18.875v-1.25
	C22,17.28,21.72,17,21.375,17z"/>
</svg>
