<svg version="1.1" id="master" xmlns="http://www.w3.org/2000/svg" xmlns:xlink="http://www.w3.org/1999/xlink" x="0px" y="0px"
	 width="24px" height="24px" viewBox="0 0 24 24" enable-background="new 0 0 24 24" xml:space="preserve">
<path d="M12,2C6.48,2,2,6.48,2,12c0,5.52,4.48,10,10,10c5.52,0,10-4.48,10-10C22,6.48,17.52,2,12,2z M13,19h-2v-2h2V19z
	 M15.071,11.25l-0.901,0.92C13.45,12.9,13,13.5,13,15h-2v-0.5c0-1.099,0.45-2.101,1.17-2.83l1.24-1.259C13.779,10.05,14,9.55,14,9
	c0-1.1-0.901-2-2-2c-1.1,0-2,0.9-2,2H8c0-2.21,1.79-4,4-4c2.211,0,4,1.79,4,4C16,9.88,15.641,10.68,15.071,11.25z"/>
</svg>
