<svg version="1.1" id="master" xmlns="http://www.w3.org/2000/svg" xmlns:xlink="http://www.w3.org/1999/xlink" x="0px" y="0px"
	 width="24px" height="24px" viewBox="0 0 24 24" enable-background="new 0 0 24 24" xml:space="preserve">
<rect fill="none" width="24" height="24"/>
<path d="M2,20.234l3.673,1.177l1.304-1.303l-2.465-2.465L2,20.234z M6.582,11.411c-0.396,0.349-0.551,0.896-0.397,1.4l0.48,1.574
	l-1.873,1.873l3.538,3.537l1.87-1.869l1.571,0.481c0.505,0.154,1.053,0,1.403-0.396l1.307-1.531l-6.373-6.372L6.582,11.411z
	 M21.409,5.503L19.085,3.18c-0.753-0.753-1.962-0.792-2.762-0.086L9.006,9.342l6.241,6.241l6.248-7.318
	C22.2,7.466,22.163,6.257,21.409,5.503z"/>
</svg>
