<svg version="1.1" id="master" xmlns="http://www.w3.org/2000/svg" xmlns:xlink="http://www.w3.org/1999/xlink" x="0px" y="0px"
	 width="24px" height="24px" viewBox="0 0 24 24" enable-background="new 0 0 24 24" xml:space="preserve">
<path d="M7.662,20.446c-0.167,0.67,0.24,1.349,0.909,1.517C8.673,21.988,8.775,22,8.876,22c0.56,0,1.069-0.379,1.212-0.947
	l0.986-3.943l-2.062-2.063L7.662,20.446z M8.244,12.786L9.852,6.57c0.085-0.329-0.123-0.662-0.465-0.745
	c-1.714-0.411-3.452,0.589-3.88,2.233l-0.987,3.833c-0.085,0.329,0.123,0.663,0.465,0.745l2.483,0.596
	C7.811,13.314,8.158,13.115,8.244,12.786z M18.875,8.25H18.25c-0.345,0-0.625,0.279-0.625,0.625V9.5h-1.357l-1.828-1.827
	C14.007,7.239,13.431,7,12.817,7c-1.056,0-1.972,0.715-2.229,1.739l-1.051,4.208c-0.106,0.426,0.019,0.876,0.329,1.187l3.384,3.384
	v3.232c0,0.69,0.56,1.25,1.25,1.25s1.25-0.56,1.25-1.25v-3.232c0-0.667-0.261-1.296-0.732-1.768l-1.829-1.829
	c0.006-0.02,0.02-0.034,0.024-0.055l0.776-3.108l0.877,0.876C15.101,11.868,15.418,12,15.75,12h1.875v9.375
	c0,0.346,0.279,0.625,0.625,0.625h0.625c0.345,0,0.625-0.279,0.625-0.625v-12.5C19.5,8.529,19.22,8.25,18.875,8.25z M13.875,5.75
	c1.035,0,1.875-0.839,1.875-1.875S14.91,2,13.875,2S12,2.839,12,3.875S12.84,5.75,13.875,5.75z"/>
</svg>
