<svg version="1.1" id="master" xmlns="http://www.w3.org/2000/svg" xmlns:xlink="http://www.w3.org/1999/xlink"
	 x="0px" y="0px" width="24px" height="24px" viewBox="0 0 24 24" enable-background="new 0 0 24 24" xml:space="preserve">
<path d="M20.16,7.006c-0.865-0.005-1.641,0.549-2.394,0.832C17.312,6.758,16.245,6,15,6c-0.353,0-0.686,0.072-1,0.184V5.75
	C14,5.336,13.664,5,13.25,5h-0.5C12.336,5,12,5.336,12,5.75v1.531C10.938,6.487,9.539,6,8,6c-3.313,0-6,2.239-6,5v7.5
	C2,18.775,2.224,19,2.5,19h2C4.776,19,5,18.775,5,18.5v-2.212C6.011,16.736,7.21,17,8.5,17s2.489-0.264,3.5-0.712V18.5
	c0,0.275,0.224,0.5,0.5,0.5h2c0.276,0,0.5-0.225,0.5-0.5V13h4v1c0,0.276,0.224,0.5,0.5,0.5h1c0.276,0,0.5-0.224,0.5-0.5v-1
	c0.553,0,1-0.448,1-1V9.125C22,8.059,21.226,7.012,20.16,7.006z M16,9.5c-0.276,0-0.5-0.224-0.5-0.5s0.224-0.5,0.5-0.5
	c0.275,0,0.5,0.224,0.5,0.5S16.275,9.5,16,9.5z"/>
</svg>
