<svg version="1.1" id="master" xmlns="http://www.w3.org/2000/svg" xmlns:xlink="http://www.w3.org/1999/xlink" x="0px" y="0px"
	 width="24px" height="24px" viewBox="0 0 24 24" enable-background="new 0 0 24 24" xml:space="preserve">
<path d="M13.429,3.429c-4.734,0-8.572,3.838-8.572,8.571H2l3.705,3.705l0.066,0.133L9.619,12H6.762c0-3.686,2.981-6.667,6.667-6.667
	c3.686,0,6.667,2.98,6.667,6.667c0,3.686-2.981,6.667-6.667,6.667c-1.838,0-3.505-0.753-4.705-1.963l-1.352,1.353
	c1.552,1.553,3.686,2.515,6.057,2.515C18.162,20.571,22,16.734,22,12C22,7.267,18.162,3.429,13.429,3.429z M12.476,8.19v4.762
	l4.076,2.419l0.687-1.152l-3.334-1.98V8.19H12.476z"/>
</svg>
