<svg version="1.1" id="master" xmlns="http://www.w3.org/2000/svg" xmlns:xlink="http://www.w3.org/1999/xlink" x="0px" y="0px"
	 width="24px" height="24px" viewBox="0 0 24 24" enable-background="new 0 0 24 24" xml:space="preserve">
<path d="M2,17v3h2v-4H3C2.45,16,2,16.45,2,17z M9,16H5v4l4.69-0.01c0.38,0,0.72-0.211,0.89-0.551l0.87-1.899l-1.59-3.479L9,16z
	 M21.71,16.29C21.529,16.109,21.279,16,21,16h-1v4h2v-3C22,16.721,21.891,16.471,21.71,16.29z M13.6,12.84L17.65,4H14.3l-1.76,3.97
	l-0.49,1.1L12,9.21L9.7,4H6.35l4.05,8.84l1.52,3.32L12,16.34l1.42,3.1c0.17,0.34,0.51,0.551,0.891,0.551L19,20v-4h-4L13.6,12.84z"/>
</svg>
