<svg version="1.1" id="master" xmlns="http://www.w3.org/2000/svg" xmlns:xlink="http://www.w3.org/1999/xlink" x="0px" y="0px"
	 width="24px" height="24px" viewBox="0 0 24 24" enable-background="new 0 0 24 24" xml:space="preserve">
<path d="M21.997,5.771c0-0.282-0.104-0.551-0.298-0.757c-0.131-0.14-0.298-0.316-0.476-0.503c0.384-0.237,0.677-0.607,0.771-1.064
	c0.035-0.172-0.1-0.334-0.275-0.334h-4.166c-2.454,0-4.444,1.99-4.444,4.444H7.555c-1.001,0-1.889,0.451-2.5,1.15V8.667
	C3.371,8.667,2,10.037,2,11.723v1.944c0,0.307,0.249,0.555,0.555,0.555h0.556c0.307,0,0.555-0.248,0.555-0.555v-1.944
	c0-0.459,0.239-0.848,0.583-1.101c-0.007,0.09-0.027,0.175-0.027,0.267c0,0.96,0.411,1.817,1.06,2.427L4.39,15.697
	c-0.158,0.422-0.185,0.882-0.075,1.319l0.863,3.452c0.062,0.247,0.284,0.42,0.539,0.42h2.291c0.361,0,0.626-0.339,0.539-0.69
	l-0.914-3.654l0.828-2.208l4.652,0.775v5.222c0,0.308,0.248,0.556,0.556,0.556h2.222c0.308,0,0.557-0.248,0.557-0.556V14.16
	c0.685-0.7,1.109-1.657,1.109-2.716c0-0.007-0.001-0.015-0.002-0.022V7.864l0.556,0.247l0.656,1.309
	c0.259,0.517,0.87,0.748,1.406,0.533L21.3,9.502c0.424-0.169,0.7-0.578,0.699-1.033L21.997,5.771z M19.775,6.444
	c-0.307,0-0.556-0.249-0.556-0.556c0-0.307,0.249-0.556,0.556-0.556s0.555,0.249,0.555,0.556C20.33,6.196,20.082,6.444,19.775,6.444
	z"/>
</svg>
