<svg version="1.1" id="master" xmlns="http://www.w3.org/2000/svg" xmlns:xlink="http://www.w3.org/1999/xlink" x="0px" y="0px"
	 width="24px" height="24px" viewBox="0 0 24 24" enable-background="new 0 0 24 24" xml:space="preserve">
<rect fill="none" width="24" height="24"/>
<path d="M20.75,21.219V22H3.25v-0.781c0-0.259,0.21-0.469,0.469-0.469H4.5V6.688C4.5,6.17,4.92,5.75,5.438,5.75h3.438V2.938
	C8.875,2.42,9.295,2,9.813,2h4.375c0.518,0,0.938,0.42,0.938,0.938V5.75h3.438c0.518,0,0.938,0.42,0.938,0.938V20.75h0.781
	C20.54,20.75,20.75,20.96,20.75,21.219z M15.281,9.5h-1.563c-0.259,0-0.469,0.21-0.469,0.469v1.563c0,0.259,0.21,0.469,0.469,0.469
	h1.563c0.259,0,0.469-0.21,0.469-0.469V9.969C15.75,9.71,15.54,9.5,15.281,9.5z M8.719,12h1.563c0.259,0,0.469-0.21,0.469-0.469
	V9.969c0-0.259-0.21-0.469-0.469-0.469H8.719C8.46,9.5,8.25,9.71,8.25,9.969v1.563C8.25,11.79,8.46,12,8.719,12z M12.781,17h-1.563
	c-0.259,0-0.469,0.21-0.469,0.469v3.281h2.5v-3.281C13.25,17.21,13.04,17,12.781,17z M15.281,13.25h-1.563
	c-0.259,0-0.469,0.21-0.469,0.469v1.563c0,0.259,0.21,0.469,0.469,0.469h1.563c0.259,0,0.469-0.21,0.469-0.469v-1.563
	C15.75,13.46,15.54,13.25,15.281,13.25z M10.75,13.719c0-0.259-0.21-0.469-0.469-0.469H8.719c-0.259,0-0.469,0.21-0.469,0.469v1.563
	c0,0.259,0.21,0.469,0.469,0.469h1.563c0.259,0,0.469-0.21,0.469-0.469V13.719z M10.359,5.75h1.016v1.016
	C11.375,6.895,11.48,7,11.609,7h0.781c0.129,0,0.234-0.105,0.234-0.234V5.75h1.016c0.129,0,0.234-0.105,0.234-0.234V4.734
	c0-0.129-0.105-0.234-0.234-0.234h-1.016V3.484c0-0.129-0.105-0.234-0.234-0.234h-0.781c-0.129,0-0.234,0.105-0.234,0.234V4.5
	h-1.016c-0.129,0-0.234,0.105-0.234,0.234v0.781C10.125,5.645,10.23,5.75,10.359,5.75z"/>
</svg>
