<svg version="1.1" id="master" xmlns="http://www.w3.org/2000/svg" xmlns:xlink="http://www.w3.org/1999/xlink" x="0px" y="0px"
	 width="24px" height="24px" viewBox="0 0 24 24" enable-background="new 0 0 24 24" xml:space="preserve">
<rect fill="none" width="24" height="24"/>
<path d="M21.086,2.914c-1.217-1.217-3.192-1.217-4.41,0L2.952,16.638c-1.239,1.196-1.273,3.172-0.077,4.41
	c1.197,1.239,3.171,1.273,4.41,0.077c0.026-0.025,0.052-0.051,0.077-0.077L21.086,7.324C22.304,6.106,22.304,4.132,21.086,2.914z
	 M19.14,6.625c-0.764,0.764-1.462,0.884-2.024,0.98c-0.505,0.087-0.87,0.149-1.353,0.633c-0.483,0.483-0.546,0.848-0.633,1.353
	c-0.097,0.562-0.217,1.261-0.98,2.024c-0.765,0.764-1.463,0.884-2.025,0.981c-0.505,0.087-0.87,0.149-1.353,0.632
	c-0.483,0.483-0.546,0.849-0.633,1.354c-0.096,0.562-0.216,1.261-0.98,2.024s-1.463,0.884-2.025,0.98
	c-0.504,0.087-0.869,0.149-1.353,0.632c-0.244,0.244-0.639,0.244-0.882,0c-0.244-0.243-0.244-0.638,0-0.882
	c0.764-0.764,1.462-0.884,2.024-0.98c0.507-0.087,0.869-0.148,1.353-0.633c0.484-0.483,0.546-0.848,0.632-1.353
	c0.097-0.562,0.216-1.261,0.981-2.025c0.764-0.763,1.462-0.883,2.024-0.98c0.507-0.086,0.87-0.149,1.354-0.632
	c0.482-0.483,0.545-0.849,0.632-1.354c0.097-0.562,0.217-1.26,0.98-2.024c0.764-0.763,1.462-0.884,2.024-0.98
	c0.505-0.087,0.869-0.149,1.354-0.633c0.243-0.244,0.638-0.244,0.882,0C19.383,5.987,19.383,6.382,19.14,6.625z M3.264,14.561
	L14.6,3.226l-0.45-0.451c-0.975-0.975-2.489-1.039-3.384-0.145l-8.097,8.097c-0.895,0.895-0.83,2.409,0.145,3.384L3.264,14.561z
	 M20.774,9.401L9.439,20.736l0.45,0.451c0.975,0.975,2.489,1.038,3.383,0.145l8.098-8.098c0.894-0.895,0.829-2.409-0.145-3.384
	L20.774,9.401z"/>
</svg>
