<svg version="1.1" id="master" xmlns="http://www.w3.org/2000/svg" xmlns:xlink="http://www.w3.org/1999/xlink" x="0px" y="0px"
	 width="24px" height="24px" viewBox="0 0 24 24" enable-background="new 0 0 24 24" xml:space="preserve">
<path d="M21.445,5.333C21.751,5.333,22,5.084,22,4.778V3.667c0-0.307-0.249-0.555-0.555-0.555H2.556C2.249,3.111,2,3.36,2,3.667
	v1.111c0,0.307,0.249,0.556,0.556,0.556H3.11v13.333H2.556C2.249,18.667,2,18.916,2,19.222v1.111c0,0.307,0.249,0.556,0.556,0.556
	h8.333v-2.777c0-0.306,0.25-0.557,0.556-0.557h1.11c0.307,0,0.557,0.251,0.557,0.557v2.777h8.334c0.306,0,0.555-0.249,0.555-0.556
	v-1.111c0-0.306-0.249-0.555-0.555-0.555h-0.557V5.333H21.445z M10.889,6.889c0-0.222,0.222-0.444,0.445-0.444h1.333
	c0.223,0,0.445,0.222,0.445,0.444v1.333c0,0.222-0.223,0.444-0.445,0.444h-1.333c-0.223,0-0.445-0.222-0.445-0.444V6.889z
	 M10.889,10.222c0-0.222,0.222-0.444,0.445-0.444h1.333c0.223,0,0.445,0.222,0.445,0.444v1.333c0,0.222-0.223,0.444-0.445,0.444
	h-1.333c-0.223,0-0.445-0.222-0.445-0.444V10.222z M6.444,6.889c0-0.222,0.223-0.444,0.444-0.444h1.333
	c0.222,0,0.444,0.222,0.444,0.444v1.333c0,0.222-0.222,0.444-0.444,0.444H6.889c-0.222,0-0.444-0.222-0.444-0.444V6.889z M8.222,12
	H6.889c-0.222,0-0.444-0.222-0.444-0.444v-1.333c0-0.222,0.223-0.444,0.444-0.444h1.333c0.222,0,0.444,0.222,0.444,0.444v1.333
	C8.667,11.778,8.444,12,8.222,12z M8.667,16.445c0-1.842,1.493-3.334,3.333-3.334s3.333,1.492,3.333,3.334H8.667z M17.555,11.556
	c0,0.222-0.221,0.444-0.444,0.444h-1.333c-0.222,0-0.444-0.222-0.444-0.444v-1.333c0-0.222,0.223-0.444,0.444-0.444h1.333
	c0.224,0,0.444,0.222,0.444,0.444V11.556z M17.555,8.222c0,0.222-0.221,0.444-0.444,0.444h-1.333c-0.222,0-0.444-0.222-0.444-0.444
	V6.889c0-0.222,0.223-0.444,0.444-0.444h1.333c0.224,0,0.444,0.222,0.444,0.444V8.222z"/>
</svg>
