<svg version="1.1" id="master" xmlns="http://www.w3.org/2000/svg" xmlns:xlink="http://www.w3.org/1999/xlink" x="0px" y="0px"
	 width="24px" height="24px" viewBox="0 0 24 24" enable-background="new 0 0 24 24" xml:space="preserve">
<path d="M7,3.5c1.104,0,2,0.896,2,2s-0.896,2-2,2s-2-0.896-2-2S5.896,3.5,7,3.5z M11.15,11.5c-0.31-0.22-0.59-0.46-0.82-0.72
	l-1.4-1.55C8.74,9.02,8.5,8.85,8.24,8.73C7.95,8.59,7.62,8.5,7.28,8.5H7.25C6.01,8.5,5,9.51,5,10.75v0.75H2v8c0,1.1,0.9,2,2,2h16
	c1.1,0,2-0.9,2-2v-8H11.15z M7,19.5H5v-6h2V19.5z M11,19.5H9v-6h2V19.5z M15,19.5h-2v-6h2V19.5z M19,19.5h-2v-6h2V19.5z M18.65,5.36
	l-0.07-0.07c-0.57-0.62-0.82-1.41-0.67-2.2L18,2.5h-1.891l-0.06,0.43c-0.2,1.36,0.271,2.71,1.3,3.72l0.07,0.06
	c0.57,0.62,0.82,1.41,0.67,2.2L17.98,9.5h1.91l0.06-0.43C20.16,7.71,19.68,6.36,18.65,5.36z M14.65,5.36l-0.07-0.07
	c-0.57-0.62-0.82-1.41-0.67-2.2L14,2.5h-1.89l-0.06,0.43c-0.2,1.36,0.27,2.71,1.3,3.72l0.07,0.06c0.57,0.62,0.82,1.41,0.67,2.2
	L13.98,9.5h1.91l0.06-0.43C16.16,7.71,15.68,6.36,14.65,5.36z"/>
</svg>
