<?xml version="1.0" encoding="utf-8"?>
<!-- Generator: Adobe Illustrator 16.0.0, SVG Export Plug-In . SVG Version: 6.00 Build 0)  -->
<!DOCTYPE svg PUBLIC "-//W3C//DTD SVG 1.1//EN" "http://www.w3.org/Graphics/SVG/1.1/DTD/svg11.dtd">
<svg version="1.1" id="master" xmlns="http://www.w3.org/2000/svg" xmlns:xlink="http://www.w3.org/1999/xlink" x="0px" y="0px"
	 width="24px" height="24px" viewBox="0 0 24 24" enable-background="new 0 0 24 24" xml:space="preserve">
<path d="M17.715,8.667h-0.953V6.762C16.763,4.133,14.629,2,12,2C9.372,2,7.239,4.133,7.239,6.762v1.905H6.286
	c-1.047,0-1.905,0.857-1.905,1.905v9.523C4.381,21.143,5.237,22,6.286,22h11.429c1.047,0,1.904-0.857,1.904-1.905v-9.523
	C19.619,9.523,18.762,8.667,17.715,8.667z M12,17.238c-1.047,0-1.904-0.857-1.904-1.905c0-1.047,0.857-1.905,1.904-1.905
	s1.905,0.858,1.905,1.905C13.905,16.381,13.047,17.238,12,17.238z M14.953,8.667H9.048V6.762c0-1.628,1.323-2.953,2.952-2.953
	c1.628,0,2.952,1.324,2.952,2.953L14.953,8.667L14.953,8.667z"/>
</svg>
