<svg version="1.1" id="master" xmlns="http://www.w3.org/2000/svg" xmlns:xlink="http://www.w3.org/1999/xlink" x="0px" y="0px"
	 width="24px" height="24px" viewBox="0 0 24 24" enable-background="new 0 0 24 24" xml:space="preserve">
<path d="M5.182,11.091H3.364V9.273H2v5.454h1.364v-2.272h1.818v2.272h1.364V9.273H5.182V11.091z M7.455,10.637h1.364v4.09h1.363
	v-4.09h1.364V9.273H7.455V10.637z M12.455,10.637h1.364v4.09h1.363v-4.09h1.364V9.273h-4.091V10.637z M20.637,9.273h-3.183v5.454
	h1.364V12.91h1.818c0.727,0,1.363-0.637,1.363-1.364v-0.909C22,9.91,21.363,9.273,20.637,9.273z M20.637,11.546h-1.818v-0.909h1.818
	V11.546z"/>
</svg>
