<svg version="1.1" id="master" xmlns="http://www.w3.org/2000/svg" xmlns:xlink="http://www.w3.org/1999/xlink" x="0px" y="0px"
	 width="24px" height="24px" viewBox="0 0 24 24" enable-background="new 0 0 24 24" xml:space="preserve">
<path d="M5.183,11.092H3.364V9.273H2v5.453h1.364v-2.271h1.818v2.271h1.363V9.273H5.183V11.092z M7.455,10.638h1.364v4.089h1.363
	v-4.089h1.363V9.273H7.455V10.638z M12.456,10.638h1.363v4.089h1.363v-4.089h1.364V9.273h-4.091V10.638z M20.638,9.273h-3.183v5.453
	h1.364V12.91h1.817c0.728,0,1.363-0.637,1.363-1.363v-0.909C22.001,9.911,21.364,9.273,20.638,9.273z M20.638,11.547h-1.818v-0.909
	h1.818V11.547z"/>
</svg>
