<svg version="1.1" id="master" xmlns="http://www.w3.org/2000/svg" xmlns:xlink="http://www.w3.org/1999/xlink" x="0px" y="0px"
	 width="24px" height="24px" viewBox="0 0 24 24" enable-background="new 0 0 24 24" xml:space="preserve">
<path d="M20.333,4.222H3.667C2.747,4.222,2,4.969,2,5.889v12.223c0,0.92,0.747,1.667,1.667,1.667h16.667
	c0.92,0,1.667-0.747,1.667-1.667V5.889C22,4.969,21.253,4.222,20.333,4.222z M20.333,18.111h-7.806
	c0.031-0.156,0.027,0.125,0.027-0.777c0-1.104-1.044-2.001-2.333-2.001c-0.375,0-0.649,0.278-1.556,0.278
	c-0.934,0-1.16-0.278-1.555-0.278c-1.289,0-2.333,0.896-2.333,2.001c0,0.902-0.007,0.621,0.028,0.777H3.667v-10h16.667V18.111z
	 M14.5,15.333h3.889c0.152,0,0.278-0.125,0.278-0.278V14.5c0-0.153-0.126-0.278-0.278-0.278H14.5c-0.153,0-0.278,0.125-0.278,0.278
	v0.555C14.222,15.208,14.347,15.333,14.5,15.333z M14.5,13.111h3.889c0.152,0,0.278-0.125,0.278-0.278v-0.555
	c0-0.153-0.126-0.278-0.278-0.278H14.5c-0.153,0-0.278,0.125-0.278,0.278v0.555C14.222,12.986,14.347,13.111,14.5,13.111z
	 M14.5,10.889h3.889c0.152,0,0.278-0.125,0.278-0.277v-0.556c0-0.153-0.126-0.278-0.278-0.278H14.5
	c-0.153,0-0.278,0.125-0.278,0.278v0.556C14.222,10.764,14.347,10.889,14.5,10.889z M8.667,14.222c1.226,0,2.222-0.996,2.222-2.222
	S9.892,9.778,8.667,9.778S6.444,10.774,6.444,12S7.441,14.222,8.667,14.222z"/>
</svg>
