<svg version="1.1" id="master" xmlns="http://www.w3.org/2000/svg" xmlns:xlink="http://www.w3.org/1999/xlink" x="0px" y="0px"
	 width="24px" height="24px" viewBox="0 0 24 24" enable-background="new 0 0 24 24" xml:space="preserve">
<rect fill="none" width="24" height="24"/>
<path d="M13.111,4.289C12.747,4.247,12.375,4.222,12,4.222c-3.465,0-6.521,1.764-8.313,4.444h9.424V4.289z M5.333,9.778H3.052
	C2.385,11.118,2,12.625,2,14.222h3.333V9.778z M14.222,4.479v4.187h6.091C18.916,6.58,16.75,5.052,14.222,4.479z M18.667,14.222H22
	c0-1.597-0.386-3.104-1.053-4.444h-2.28V14.222z M16.445,16.445v3.333h4.443c0.615,0,1.111-0.497,1.111-1.111v-3.334h-5.711
	C16.378,15.691,16.445,16.06,16.445,16.445z M17.555,9.778H6.444v4.444h1.729C8.944,12.899,10.361,12,12,12
	c1.639,0,3.055,0.899,3.826,2.222h1.729V9.778z M2,18.667c0,0.614,0.497,1.111,1.111,1.111h4.444v-3.333
	c0-0.386,0.065-0.754,0.156-1.112H2V18.667z M12,13.111c-1.84,0-3.333,1.493-3.333,3.334v3.333h6.667v-3.333
	C15.333,14.604,13.841,13.111,12,13.111z"/>
</svg>
