<svg version="1.1" id="master" xmlns="http://www.w3.org/2000/svg" xmlns:xlink="http://www.w3.org/1999/xlink" x="0px" y="0px"
	 width="24px" height="24px" viewBox="0 0 24 24" enable-background="new 0 0 24 24" xml:space="preserve">
<path d="M20.125,4.5H3.875C2.839,4.5,2,5.339,2,6.375v11.25C2,18.66,2.839,19.5,3.875,19.5h16.25C21.16,19.5,22,18.66,22,17.625
	V6.375C22,5.339,21.16,4.5,20.125,4.5z M19.891,17.625H4.109c-0.129,0-0.234-0.105-0.234-0.234V6.609
	c0-0.129,0.105-0.234,0.234-0.234h15.781c0.129,0,0.234,0.105,0.234,0.234v10.781C20.125,17.52,20.02,17.625,19.891,17.625z
	 M7,7.938c-0.863,0-1.563,0.699-1.563,1.563S6.137,11.063,7,11.063S8.563,10.363,8.563,9.5S7.863,7.938,7,7.938z M5.75,15.75h12.5
	v-3.125l-3.418-3.418c-0.184-0.183-0.48-0.183-0.664,0L9.5,13.875l-1.543-1.543c-0.183-0.183-0.48-0.183-0.663,0L5.75,13.875V15.75z
	"/>
</svg>
