<svg version="1.1" id="master" xmlns="http://www.w3.org/2000/svg" xmlns:xlink="http://www.w3.org/1999/xlink" x="0px" y="0px"
	 width="24px" height="24px" viewBox="0 0 24 24" enable-background="new 0 0 24 24" xml:space="preserve">
<path d="M4.318,17.969L5.6,19.25l1.627-1.637l-1.282-1.281L4.318,17.969z M11.091,21.523h1.818V18.84h-1.818V21.523z M4.727,10.659
	H2v1.818h2.727V10.659z M14.728,6.85V2.477H9.273V6.85c-1.627,0.946-2.728,2.7-2.728,4.718c0,3.01,2.445,5.456,5.455,5.456
	c3.01,0,5.454-2.445,5.454-5.456C17.454,9.55,16.354,7.795,14.728,6.85z M19.272,10.659v1.818H22v-1.818H19.272z M16.764,17.623
	l1.627,1.637l1.281-1.283l-1.635-1.627L16.764,17.623z"/>
</svg>
