<svg version="1.1" id="master" xmlns="http://www.w3.org/2000/svg" xmlns:xlink="http://www.w3.org/1999/xlink" x="0px" y="0px"
	 width="24px" height="24px" viewBox="0 0 24 24" enable-background="new 0 0 24 24" xml:space="preserve">
<rect fill="none" width="24" height="24"/>
<path d="M11,11h2v6h-2V11z M11,9h2V7h-2V9z M22,12c0,5.52-4.48,10-10,10C6.48,22,2,17.52,2,12C2,6.48,6.48,2,12,2
	C17.52,2,22,6.48,22,12z M20.5,12c0-4.694-3.806-8.5-8.5-8.5S3.5,7.306,3.5,12c0,4.693,3.806,8.5,8.5,8.5S20.5,16.693,20.5,12z"/>
</svg>
