<svg version="1.1" id="master" xmlns="http://www.w3.org/2000/svg" xmlns:xlink="http://www.w3.org/1999/xlink" x="0px" y="0px"
	 width="24px" height="24px" viewBox="0 0 24 24" enable-background="new 0 0 24 24" xml:space="preserve">
<rect fill="none" width="24" height="24"/>
<path d="M11.893,2.159c-0.621-0.009-1.22,0.231-1.661,0.67l-7.354,7.532c-2.786,2.783,1.803,2.549,3.461,3.603
	c0.768,0.502-2.462,1.143-1.803,1.803c0.643,0.661,3.875,1.269,4.518,1.911c0.643,0.659-1.303,1.355-0.661,2.015
	c0.625,0.661,2.124,0.036,2.392,1.536c0.196,1.105,2.75,0.555,3.892-0.394c0.712-0.606-1.231-0.606-0.59-1.267
	c1.607-1.625,3.035-0.729,3.624-2.23c0.323-0.803-2.427-1.375-1.694-1.893c1.751-1.23,8.176-1.855,5.212-4.817l-7.622-7.799
	C13.141,2.395,12.528,2.157,11.893,2.159z M11.956,2.875c0.441,0.003,0.882,0.168,1.203,0.487l2.91,2.964
	c0.27,0.268,0.27,0.821,0.107,0.981L14.73,6.13l-0.285,1.731l-1.196-0.643L11.303,8.45l-0.643-2.588L9.625,8.11L7.037,8.092
	c-0.5,0-0.429-0.518,0.089-1.035c1.018-1.125,3-3.033,3.625-3.694c0.321-0.33,0.763-0.491,1.204-0.486L11.956,2.875L11.956,2.875z
	 M20.084,16.438c-0.617,0.021-1.247,0.329-1.407,0.9c0,0.374,2.909,0.589,2.751-0.09c-0.118-0.571-0.726-0.835-1.343-0.813
	L20.084,16.438L20.084,16.438z M7.296,18.059c-0.84,0.049-1.74,0.659-1.026,1.26c0.659,0.571,1.66-0.125,1.98-0.928
	c-0.2-0.264-0.572-0.354-0.953-0.332H7.296L7.296,18.059z M18.319,18.122c-0.82,0.75,0.142,1.535,0.945,1.018
	C19.479,18.996,19.247,18.303,18.319,18.122z"/>
</svg>
