<svg version="1.1" id="master" xmlns="http://www.w3.org/2000/svg" xmlns:xlink="http://www.w3.org/1999/xlink" x="0px" y="0px"
	 width="24px" height="24px" viewBox="0 0 24 24" enable-background="new 0 0 24 24" xml:space="preserve">
<path d="M12,2C9.284,2,8.944,2.013,7.878,2.06C6.813,2.11,6.087,2.277,5.45,2.525C4.792,2.78,4.234,3.123,3.679,3.679
	C3.123,4.234,2.779,4.792,2.525,5.45C2.277,6.087,2.109,6.813,2.06,7.878C2.01,8.944,2,9.284,2,12c0,2.717,0.013,3.056,0.06,4.123
	c0.05,1.064,0.218,1.79,0.465,2.427c0.255,0.657,0.598,1.216,1.154,1.772c0.556,0.555,1.113,0.898,1.771,1.152
	c0.638,0.247,1.363,0.416,2.428,0.465C8.944,21.99,9.284,22,12,22c2.717,0,3.056-0.013,4.123-0.061
	c1.064-0.049,1.79-0.218,2.427-0.465c0.657-0.254,1.216-0.598,1.772-1.152c0.555-0.557,0.898-1.113,1.152-1.772
	c0.247-0.637,0.416-1.362,0.465-2.427C21.99,15.056,22,14.717,22,12c0-2.716-0.013-3.056-0.061-4.122
	c-0.049-1.064-0.218-1.792-0.465-2.428c-0.254-0.658-0.598-1.216-1.152-1.771c-0.557-0.556-1.113-0.899-1.772-1.154
	c-0.637-0.248-1.362-0.416-2.427-0.465C15.056,2.01,14.717,2,12,2z M12,3.8c2.669,0,2.987,0.013,4.041,0.059
	c0.976,0.046,1.504,0.207,1.856,0.346c0.468,0.181,0.8,0.397,1.151,0.747c0.35,0.35,0.566,0.682,0.747,1.151
	c0.137,0.352,0.3,0.881,0.344,1.855C20.188,9.013,20.198,9.33,20.198,12s-0.013,2.987-0.062,4.041
	c-0.051,0.976-0.214,1.504-0.352,1.856c-0.186,0.468-0.399,0.8-0.749,1.151c-0.349,0.35-0.687,0.566-1.149,0.747
	c-0.35,0.137-0.888,0.3-1.862,0.344c-1.063,0.048-1.375,0.059-4.049,0.059c-2.676,0-2.989-0.013-4.049-0.062
	c-0.976-0.051-1.513-0.214-1.863-0.352c-0.474-0.186-0.8-0.398-1.149-0.749c-0.351-0.349-0.575-0.687-0.75-1.149
	c-0.138-0.35-0.299-0.888-0.351-1.862c-0.037-1.051-0.05-1.375-0.05-4.037c0-2.663,0.013-2.988,0.05-4.051
	c0.051-0.975,0.213-1.512,0.351-1.861c0.175-0.476,0.399-0.8,0.75-1.151C5.263,4.575,5.588,4.35,6.063,4.176
	c0.35-0.139,0.875-0.301,1.851-0.351c1.063-0.038,1.375-0.05,4.049-0.05L12,3.8z M12,6.865c-2.837,0-5.135,2.3-5.135,5.135
	c0,2.837,2.3,5.135,5.135,5.135c2.837,0,5.135-2.3,5.135-5.135C17.135,9.163,14.835,6.865,12,6.865z M12,15.333
	c-1.842,0-3.333-1.491-3.333-3.333S10.158,8.667,12,8.667s3.333,1.492,3.333,3.333S13.842,15.333,12,15.333z M18.538,6.663
	c0,0.663-0.538,1.2-1.199,1.2c-0.663,0-1.2-0.539-1.2-1.2c0-0.662,0.537-1.199,1.2-1.199C17.999,5.462,18.538,6,18.538,6.663z"/>
</svg>
