<svg version="1.1" id="master" xmlns="http://www.w3.org/2000/svg" xmlns:xlink="http://www.w3.org/1999/xlink" x="0px" y="0px"
	 width="24px" height="24px" viewBox="0 0 24 24" enable-background="new 0 0 24 24" xml:space="preserve">
<path d="M7.892,11v3.231H6.864V10.17l2.123,0.001c0.9,0,1.208,0.636,1.208,1.213v2.846H9.169v-2.84C9.169,11.148,9.045,11,8.742,11
	H7.892z M14.883,10.952c-0.352,0-0.624,0.18-0.737,0.425c-0.064,0.139-0.098,0.289-0.099,0.442h1.581
	C15.609,11.376,15.409,10.952,14.883,10.952z M14.047,12.519c0,0.524,0.328,0.912,0.911,0.912c0.453,0,0.68-0.125,0.943-0.388
	l0.635,0.607c-0.406,0.4-0.835,0.644-1.585,0.644c-0.983,0-1.926-0.536-1.926-2.1c0-1.337,0.821-2.093,1.901-2.093
	c1.096,0,1.729,0.886,1.729,2.045v0.37h-2.608V12.519z M12.157,14.224c-0.836,0-1.193-0.581-1.193-1.159v-4h1.026v1.105h0.774V11
	h-0.775v2c0,0.236,0.113,0.366,0.358,0.366h0.417v0.856H12.157L12.157,14.224z M5.949,9.609H4.915V8.625h1.035V9.609z M5.952,14.272
	c-0.775-0.073-1.039-0.543-1.039-1.088v-3.013H5.95v4.104L5.952,14.272z M18.289,14.185c-0.774-0.074-1.035-0.542-1.035-1.086V8.486
	h1.035v5.7V14.185z M21.912,9.153c-0.938-4.577-9.827-4.867-15.554-1.381v0.385c5.721-2.94,13.836-2.923,14.575,1.292
	c0.247,1.396-0.538,2.848-1.94,3.686v1.092C20.681,13.608,22.414,11.604,21.912,9.153z M11.499,17.161
	c-3.952,0.365-8.072-0.208-8.647-3.298c-0.281-1.522,0.414-3.137,1.332-4.139V9.189c-1.656,1.453-2.554,3.292-2.037,5.464
	c0.66,2.788,4.196,4.365,9.591,3.841c2.135-0.208,4.929-0.896,6.873-1.961V15.02C16.845,16.069,13.929,16.938,11.499,17.161z
	 M19.486,8.792c0-0.05-0.03-0.066-0.097-0.066h-0.064v0.142l0.064,0.002c0.066,0,0.097-0.021,0.097-0.07V8.792z M19.586,9.144
	h-0.075c-0.008,0-0.015-0.003-0.018-0.01l-0.104-0.177c-0.003-0.004-0.011-0.009-0.016-0.009h-0.047v0.177
	c0,0.01-0.007,0.021-0.019,0.021h-0.068c-0.01,0-0.018-0.012-0.018-0.021V8.681c0-0.024,0.01-0.038,0.031-0.041
	c0.042-0.004,0.084-0.005,0.126-0.005c0.127,0,0.205,0.039,0.205,0.157v0.009c0,0.075-0.037,0.112-0.094,0.131l0.108,0.183
	c0,0.005,0.004,0.01,0.004,0.015C19.604,9.136,19.599,9.144,19.586,9.144v0.001V9.144z M19.405,8.553
	c-0.188,0-0.34,0.153-0.34,0.341c0,0.189,0.154,0.341,0.342,0.34c0.187,0,0.338-0.152,0.341-0.338
	C19.746,8.708,19.594,8.554,19.405,8.553z M19.405,9.309c-0.228,0-0.413-0.186-0.413-0.413c0-0.228,0.186-0.413,0.411-0.413h0.002
	c0.226,0,0.412,0.187,0.412,0.413C19.817,9.125,19.631,9.309,19.405,9.309z"/>
</svg>
