<svg version="1.1" id="master" xmlns="http://www.w3.org/2000/svg" xmlns:xlink="http://www.w3.org/1999/xlink" x="0px" y="0px"
	 width="24px" height="24px" viewBox="0 0 24 24" enable-background="new 0 0 24 24" xml:space="preserve">
<path d="M5.603,14.739h12.786V9.26H5.603V14.739z M11.083,2v2.694h1.827V2H11.083z M18.426,4.283l-1.635,1.635l1.287,1.288
	l1.643-1.635L18.426,4.283z M12.909,22v-2.694h-1.827V22H12.909z M19.713,18.429l-1.645-1.634l-1.287,1.287l1.635,1.644
	L19.713,18.429z M4.279,5.571l1.635,1.635l1.288-1.288L5.566,4.283L4.279,5.571z M5.566,19.717l1.635-1.644l-1.288-1.288
	l-1.635,1.634L5.566,19.717z"/>
</svg>
