<svg version="1.1" id="master" xmlns="http://www.w3.org/2000/svg" xmlns:xlink="http://www.w3.org/1999/xlink" x="0px" y="0px"
	 width="24px" height="24px" viewBox="0 0 24 24" enable-background="new 0 0 24 24" xml:space="preserve">
<path d="M14.221,6.813V4.354c0-0.21-0.117-0.403-0.305-0.497L12.539,3.17c-0.29-0.146-0.643-0.012-0.763,0.291l-1.252,3.13
	C10.979,6.5,11.466,6.444,12,6.444C12.842,6.444,13.57,6.583,14.221,6.813z M19.197,8.428c-0.938-0.802-2.27-1.034-3.455-0.727
	c0.213,0.19,0.422,0.382,0.598,0.618c0.107,0.148,0.189,0.327,0.283,0.492C15.52,7.991,13.998,7.555,12,7.555
	c-1.998,0-3.521,0.436-4.623,1.256C7.47,8.646,7.551,8.467,7.659,8.319c0.174-0.235,0.386-0.427,0.597-0.618
	C7.071,7.395,5.739,7.626,4.801,8.428c-3.735,3.194-3.735,8.393,0,11.587c1.342,1.147,3.501,1.158,4.866,0.044
	c0.619,0.534,1.385,0.829,2.333,0.829c0.948,0,1.713-0.295,2.333-0.829c1.365,1.114,3.525,1.104,4.865-0.044
	C22.934,16.821,22.934,11.623,19.197,8.428z M13.141,12.764l1.43-2.315c0.08-0.159,0.297-0.153,0.416,0l1.428,2.315
	c0.059,0.113,0.031,0.348-0.207,0.348H13.35C13.109,13.111,13.082,12.879,13.141,12.764z M7.584,12.764l1.429-2.315
	c0.081-0.159,0.299-0.153,0.417,0l1.429,2.315c0.058,0.113,0.031,0.348-0.208,0.348H7.793C7.554,13.111,7.526,12.879,7.584,12.764z
	 M18.313,15.111c-0.207,0.592-0.443,0.993-0.65,1.283c-0.326,0.449-0.74,0.827-1.221,1.146c-0.01-0.299-0.252-0.54-0.553-0.54
	h-0.557c-0.307,0-0.555,0.249-0.555,0.555v0.746c-0.814,0.239-1.742,0.366-2.777,0.366c-1.037,0-1.964-0.127-2.779-0.365v-0.747
	C9.222,17.249,8.973,17,8.666,17H8.111c-0.302,0-0.546,0.242-0.553,0.543c-0.476-0.315-0.886-0.688-1.206-1.129
	c-0.212-0.298-0.452-0.706-0.662-1.301c-0.169-0.482,0.367-0.908,0.807-0.648c1.144,0.675,2.444,1.137,3.836,1.349v0.632
	c0,0.306,0.249,0.555,0.555,0.555h0.556C11.751,17,12,16.751,12,16.445v-0.496H12c2.027,0,3.914-0.546,5.505-1.486
	C17.945,14.204,18.48,14.629,18.313,15.111z"/>
</svg>
