<svg version="1.1" id="icon_javascript" xmlns="http://www.w3.org/2000/svg" xmlns:xlink="http://www.w3.org/1999/xlink" x="0px" y="0px"
	 width="24px" height="24px" viewBox="0 0 24 24" enable-background="new 0 0 24 24" xml:space="preserve">
<path d="M1.5,1.5v21h21v-21H1.5z M12.928,17.878c0,2.044-1.2,2.977-2.948,2.977c-1.58,0-2.494-0.815-2.962-1.805l1.608-0.97
	c0.31,0.548,0.591,1.012,1.271,1.012c0.646,0,1.059-0.253,1.059-1.242v-6.708h1.973V17.878z M17.597,20.854
	c-1.833,0-3.019-0.872-3.595-2.016l1.607-0.928c0.422,0.688,0.975,1.2,1.945,1.2c0.815,0,1.341-0.408,1.341-0.976
	c0-0.675-0.534-0.914-1.439-1.313l-0.492-0.211c-1.425-0.604-2.367-1.368-2.367-2.977c0-1.481,1.13-2.606,2.888-2.606
	c1.256,0,2.156,0.436,2.803,1.58l-1.537,0.984c-0.338-0.604-0.703-0.844-1.271-0.844c-0.576,0-0.942,0.365-0.942,0.844
	c0,0.591,0.366,0.83,1.215,1.2l0.492,0.211c1.678,0.717,2.62,1.453,2.62,3.103C20.864,19.88,19.467,20.854,17.597,20.854z"/>
</svg>
