<svg version="1.1" id="master" xmlns="http://www.w3.org/2000/svg" xmlns:xlink="http://www.w3.org/1999/xlink" x="0px" y="0px"
	 width="24px" height="24px" viewBox="0 0 24 24" enable-background="new 0 0 24 24" xml:space="preserve">
<rect fill="none" width="24" height="24"/>
<path d="M9.376,17.467c0,0-0.764,0.444,0.544,0.595c1.585,0.182,2.395,0.156,4.141-0.176c0,0,0.461,0.289,1.101,0.538
	C11.246,20.103,6.301,18.326,9.376,17.467 M8.896,15.278c0,0-0.856,0.633,0.452,0.77c1.693,0.174,3.03,0.188,5.344-0.257
	c0,0,0.32,0.323,0.822,0.501C10.783,17.677,5.509,16.401,8.896,15.278 M12.93,11.563c0.965,1.111-0.253,2.11-0.253,2.11
	s2.449-1.264,1.323-2.848c-1.05-1.477-1.856-2.21,2.507-4.74C16.507,6.084,9.66,7.794,12.93,11.563 M18.108,19.087
	c0,0,0.565,0.465-0.622,0.826c-2.261,0.684-9.407,0.891-11.392,0.026c-0.713-0.311,0.625-0.74,1.045-0.832
	c0.439-0.094,0.69-0.076,0.69-0.076c-0.794-0.56-5.13,1.097-2.203,1.572C13.611,21.897,20.179,20.021,18.108,19.087 M9.743,13.008
	c0,0-3.635,0.864-1.287,1.178c0.991,0.132,2.968,0.103,4.808-0.052c1.506-0.127,3.016-0.398,3.016-0.398s-0.531,0.228-0.915,0.489
	c-3.691,0.972-10.822,0.52-8.769-0.474C8.332,12.913,9.743,13.008,9.743,13.008 M16.264,16.653c3.752-1.95,2.018-3.824,0.807-3.571
	c-0.297,0.063-0.43,0.116-0.43,0.116s0.11-0.173,0.321-0.248c2.396-0.843,4.238,2.484-0.774,3.802
	C16.188,16.751,16.246,16.7,16.264,16.653 M14,2c0,0,2.079,2.078-1.97,5.275c-3.247,2.564-0.74,4.027-0.001,5.697
	c-1.895-1.711-3.286-3.215-2.354-4.616C11.046,6.298,14.84,5.301,14,2 M10.111,21.937c3.603,0.231,9.133-0.127,9.264-1.831
	c0,0-0.252,0.646-2.978,1.159c-3.072,0.577-6.865,0.511-9.114,0.14C7.284,21.403,7.745,21.785,10.111,21.937"/>
</svg>
