<svg version="1.1" id="master" xmlns="http://www.w3.org/2000/svg" xmlns:xlink="http://www.w3.org/1999/xlink" x="0px" y="0px"
	 width="24px" height="24px" viewBox="0 0 24 24" enable-background="new 0 0 24 24" xml:space="preserve">
<path d="M2,2v20h20V2H2z M12.884,17.598c0,1.948-1.142,2.836-2.807,2.836c-1.505,0-2.375-0.775-2.821-1.72l1.531-0.923
	c0.295,0.521,0.563,0.962,1.21,0.962c0.615,0,1.009-0.241,1.009-1.184v-6.386h1.879L12.884,17.598L12.884,17.598L12.884,17.598z
	 M17.33,20.432c-1.746,0-2.875-0.828-3.424-1.92l1.531-0.884c0.4,0.654,0.928,1.142,1.854,1.142c0.773,0,1.275-0.39,1.275-0.93
	c0-0.642-0.507-0.869-1.371-1.251l-0.47-0.201c-1.356-0.572-2.253-1.302-2.253-2.834c0-1.411,1.074-2.481,2.75-2.481
	c1.196,0,2.053,0.416,2.67,1.503l-1.462,0.938c-0.322-0.574-0.672-0.803-1.211-0.803c-0.549,0-0.896,0.348-0.896,0.803
	c0,0.564,0.348,0.791,1.156,1.145l0.47,0.201c1.597,0.682,2.495,1.382,2.495,2.954C20.441,19.504,19.111,20.432,17.33,20.432z"/>
</svg>
