<svg version="1.1" id="icon_javascript" xmlns="http://www.w3.org/2000/svg" xmlns:xlink="http://www.w3.org/1999/xlink" x="0px"
	 y="0px" width="24px" height="24px" viewBox="0 0 24 24" enable-background="new 0 0 24 24" xml:space="preserve">
<path d="M2,2v20h20V2H2z M12.884,17.598c0,1.947-1.143,2.836-2.808,2.836c-1.505,0-2.375-0.776-2.821-1.72l1.531-0.923
	c0.295,0.521,0.563,0.963,1.21,0.963c0.615,0,1.009-0.24,1.009-1.183v-6.388h1.88v6.415H12.884z M17.331,20.432
	c-1.747,0-2.876-0.829-3.425-1.919l1.531-0.884c0.401,0.654,0.928,1.142,1.853,1.142c0.775,0,1.276-0.388,1.276-0.929
	c0-0.643-0.508-0.87-1.37-1.251l-0.469-0.201c-1.357-0.574-2.254-1.302-2.254-2.835c0-1.41,1.075-2.481,2.75-2.481
	c1.196,0,2.053,0.415,2.67,1.505l-1.464,0.937c-0.322-0.575-0.67-0.803-1.21-0.803c-0.549,0-0.897,0.347-0.897,0.803
	c0,0.563,0.349,0.791,1.156,1.144l0.469,0.201c1.599,0.683,2.496,1.384,2.496,2.955C20.442,19.505,19.111,20.432,17.331,20.432z"/>
</svg>
