<svg version="1.1" id="master" xmlns="http://www.w3.org/2000/svg" xmlns:xlink="http://www.w3.org/1999/xlink" x="0px" y="0px"
	 width="24px" height="24px" viewBox="0 0 24 24" enable-background="new 0 0 24 24" xml:space="preserve">
<rect fill="none" width="24" height="24"/>
<path d="M8.728,22c-0.29,0-0.574-0.052-0.85-0.158c-1.146-0.437-1.753-1.683-1.438-2.834l-0.013-0.006l0.075-0.188l5.831-15.14
	c0.087-0.225,0.047-0.758,0.005-1.056c-0.013-0.071-0.013-0.134,0.007-0.2L12.351,2.4l0.005-0.013V2.382l0.008-0.016
	C12.454,2.123,12.739,2,13.203,2c0.562,0,1.335,0.175,2.126,0.478c0.664,0.256,1.269,0.574,1.693,0.896
	c0.502,0.375,0.702,0.712,0.59,1l-0.025,0.038l-0.014,0.012c-0.038,0.051-0.075,0.1-0.125,0.138c-0.261,0.226-0.637,0.612-0.7,0.788
	l-5.885,15.351l-0.013-0.005c-0.412,0.79-1.214,1.298-2.119,1.301H8.725L8.728,22z M6.906,18.902l-0.017,0.041
	c-0.373,1.001,0.134,2.131,1.136,2.515c0.226,0.088,0.459,0.129,0.697,0.129c0.81,0,1.525-0.487,1.824-1.25l0.022-0.051
	l5.798-15.075c0.122-0.325,0.7-0.85,0.816-0.95l0.014-0.014c0.01-0.012,0.016-0.012,0.016-0.024c0-0.05-0.05-0.225-0.464-0.538
	c-0.398-0.3-0.962-0.6-1.587-0.837c-0.724-0.273-1.473-0.449-1.974-0.449c-0.324,0-0.437,0.068-0.454,0.105v0.033
	c0.015,0.087,0.123,0.863-0.028,1.263l-5.8,15.1V18.902L6.906,18.902z M14.363,9.313c0,0-0.804,0.924-1.536,1.258
	c-0.733,0.332-1.273,0.244-1.933,0.63c-0.658,0.384-0.99,0.919-0.99,0.919l-2.679,6.969c-0.29,0.786,0.14,1.708,0.938,2.016
	c0.8,0.309,1.7-0.1,2.01-0.879L14.363,9.313z M10.254,17.633c0.087-0.034,0.188,0,0.222,0.088c0.035,0.087,0,0.186-0.087,0.22
	c-0.086,0.036-0.188,0-0.222-0.086C10.132,17.773,10.167,17.674,10.254,17.633z M9.41,16.132c-0.127,0.056-0.278,0-0.331-0.13
	c-0.059-0.127,0-0.278,0.128-0.33c0.128-0.059,0.279,0,0.332,0.127c0.062,0.125,0.007,0.262-0.129,0.325V16.132z M9.648,15.218
	c-0.103-0.239,0-0.519,0.239-0.632c0.237-0.103,0.513,0,0.625,0.238c0.101,0.24,0,0.521-0.237,0.631
	c-0.25,0.104-0.524,0-0.638-0.237H9.648z M11.669,13.336c0.127-0.062,0.279,0,0.332,0.126c0.058,0.128,0,0.279-0.127,0.332
	c-0.129,0.059-0.281,0-0.333-0.129C11.479,13.538,11.542,13.387,11.669,13.336L11.669,13.336z M10.592,12.188
	c0.087-0.035,0.188,0,0.222,0.087c0.036,0.087,0,0.189-0.087,0.222c-0.086,0.036-0.188,0-0.221-0.086
	C10.47,12.321,10.511,12.221,10.592,12.188z M13.401,2.95c0.083-0.218,0.827-0.135,1.662,0.188c0.832,0.32,1.44,0.757,1.358,0.975
	c-0.087,0.22-0.831,0.137-1.663-0.184c-0.838-0.321-1.445-0.758-1.36-0.98L13.401,2.95L13.401,2.95z"/>
</svg>
