<svg version="1.1" id="master" xmlns="http://www.w3.org/2000/svg" xmlns:xlink="http://www.w3.org/1999/xlink" x="0px" y="0px"
	 width="24px" height="24px" viewBox="0 0 24 24" enable-background="new 0 0 24 24" xml:space="preserve">
<path d="M20.182,6.545H3.818C2.818,6.545,2,7.363,2,8.364v7.273c0,1,0.818,1.818,1.818,1.818h16.363c1,0,1.818-0.818,1.818-1.818
	V8.364C22,7.363,21.182,6.545,20.182,6.545z M11.091,12.909H8.364v2.728H6.545v-2.728H3.818v-1.818h2.727V8.364h1.818v2.727h2.727
	V12.909z M15.182,14.727c-0.755,0-1.363-0.607-1.363-1.363c0-0.754,0.608-1.363,1.363-1.363s1.364,0.609,1.364,1.363
	C16.546,14.119,15.937,14.727,15.182,14.727z M18.818,12c-0.755,0-1.364-0.609-1.364-1.364c0-0.754,0.609-1.364,1.364-1.364
	s1.363,0.609,1.363,1.364C20.182,11.391,19.573,12,18.818,12z"/>
</svg>
