<svg version="1.1" id="master" xmlns="http://www.w3.org/2000/svg" xmlns:xlink="http://www.w3.org/1999/xlink" x="0px" y="0px"
	 width="24px" height="24px" viewBox="0 0 24 24" enable-background="new 0 0 24 24" xml:space="preserve">
<path d="M3.271,6.893C1.5,9.437,1.719,12.746,3.073,15.449c0.031,0.066,0.065,0.129,0.099,0.191c0.02,0.043,0.041,0.084,0.064,0.125
	c0.011,0.023,0.025,0.047,0.039,0.068c0.021,0.043,0.045,0.086,0.067,0.127l0.131,0.221c0.024,0.041,0.048,0.082,0.075,0.123
	c0.046,0.078,0.101,0.156,0.147,0.234c0.022,0.033,0.042,0.064,0.066,0.098c0.081,0.127,0.167,0.25,0.259,0.371
	c0.065,0.088,0.13,0.176,0.2,0.262c0.022,0.033,0.048,0.063,0.07,0.096l0.185,0.223c0.022,0.027,0.046,0.057,0.069,0.084
	c0.082,0.098,0.169,0.193,0.256,0.291c0,0.002,0.002,0.004,0.004,0.006c0.105,0.133,0.224,0.258,0.354,0.367
	c0.067,0.068,0.134,0.137,0.205,0.203l0.084,0.082c0.093,0.086,0.186,0.174,0.282,0.256c0.002,0,0.003,0.002,0.005,0.004
	l0.047,0.041c0.086,0.073,0.172,0.146,0.259,0.214l0.104,0.088c0.071,0.059,0.145,0.111,0.217,0.168l0.114,0.086
	c0.077,0.059,0.159,0.117,0.239,0.174c0.028,0.02,0.058,0.041,0.088,0.061l0.024,0.02l0.234,0.154l0.101,0.066
	c0.122,0.078,0.244,0.152,0.365,0.227c0.035,0.018,0.07,0.035,0.103,0.057c0.09,0.051,0.184,0.104,0.274,0.152
	c0.05,0.027,0.102,0.053,0.153,0.078c0.063,0.035,0.128,0.068,0.194,0.105c0.017,0.004,0.032,0.012,0.047,0.018
	c0.027,0.014,0.054,0.027,0.08,0.039c0.101,0.051,0.204,0.098,0.313,0.146c0.02,0.008,0.041,0.016,0.063,0.027
	c0.12,0.053,0.24,0.104,0.364,0.152c0.028,0.008,0.058,0.021,0.087,0.033c0.112,0.043,0.229,0.086,0.343,0.127l0.041,0.016
	c0.128,0.043,0.254,0.084,0.384,0.125c0.03,0.008,0.061,0.018,0.093,0.027c0.132,0.039,0.261,0.088,0.395,0.113
	c8.561,1.561,11.049-5.146,11.049-5.146c-2.09,2.722-5.801,3.437-9.312,2.641c-0.131-0.029-0.261-0.072-0.392-0.109
	c-0.159-0.047-0.316-0.098-0.473-0.15l-0.052-0.021c-0.114-0.037-0.224-0.08-0.334-0.123c-0.03-0.014-0.062-0.023-0.092-0.033
	c-0.123-0.051-0.242-0.102-0.361-0.154c-0.025-0.008-0.047-0.02-0.073-0.029c-0.101-0.047-0.201-0.094-0.301-0.143
	c-0.031-0.014-0.059-0.027-0.088-0.043c-0.079-0.037-0.157-0.078-0.234-0.119c-0.053-0.023-0.104-0.053-0.156-0.08
	c-0.094-0.049-0.188-0.104-0.282-0.156c-0.028-0.02-0.061-0.035-0.094-0.055c-0.123-0.072-0.245-0.146-0.365-0.225
	c-0.034-0.02-0.066-0.043-0.099-0.064c-0.088-0.055-0.175-0.111-0.261-0.172c-0.029-0.02-0.056-0.041-0.086-0.063
	c-0.082-0.057-0.164-0.115-0.245-0.176c-0.035-0.029-0.072-0.057-0.109-0.084c-0.074-0.057-0.148-0.111-0.222-0.174l-0.099-0.078
	c-0.095-0.076-0.188-0.154-0.278-0.234c-0.01-0.01-0.02-0.018-0.031-0.025l-0.289-0.264l-0.084-0.078
	c-0.068-0.068-0.139-0.137-0.208-0.205L6.812,15.75c-0.088-0.088-0.174-0.178-0.258-0.27l-0.013-0.014
	c-0.088-0.098-0.174-0.195-0.261-0.295c-0.023-0.025-0.044-0.055-0.067-0.082l-0.188-0.23c-0.096-0.123-0.19-0.248-0.283-0.373
	c-1.948-2.662-2.653-6.333-1.094-9.344 M8.767,4.749c-1.284,1.844-1.212,4.308-0.212,6.257c0.165,0.328,0.354,0.643,0.564,0.944
	c0.192,0.275,0.404,0.601,0.661,0.823c0.089,0.102,0.186,0.2,0.287,0.3l0.075,0.076c0.095,0.09,0.192,0.182,0.292,0.27l0.012,0.012
	c0.113,0.098,0.229,0.193,0.346,0.285c0.028,0.02,0.053,0.043,0.08,0.061c0.117,0.092,0.234,0.178,0.356,0.264l0.013,0.008
	c0.052,0.037,0.106,0.072,0.165,0.107c0.023,0.016,0.051,0.035,0.075,0.051c0.089,0.057,0.175,0.109,0.265,0.164
	c0.014,0.006,0.026,0.014,0.04,0.02c0.075,0.045,0.157,0.09,0.235,0.131c0.027,0.018,0.054,0.029,0.082,0.045
	c0.057,0.027,0.111,0.057,0.165,0.086l0.026,0.012c0.112,0.055,0.229,0.105,0.341,0.158c0.028,0.012,0.052,0.02,0.076,0.031
	c0.093,0.039,0.188,0.078,0.28,0.113c0.041,0.016,0.08,0.031,0.119,0.045c0.086,0.031,0.174,0.061,0.258,0.09l0.119,0.037
	c0.121,0.037,0.244,0.088,0.373,0.107C20.469,16.34,22,11.25,22,11.25c-1.379,1.983-4.045,2.928-6.885,2.19
	c-0.125-0.033-0.25-0.068-0.373-0.107c-0.041-0.012-0.076-0.025-0.113-0.035c-0.088-0.029-0.178-0.059-0.262-0.092l-0.121-0.045
	c-0.092-0.037-0.188-0.072-0.277-0.113c-0.029-0.012-0.055-0.02-0.078-0.033c-0.115-0.052-0.234-0.104-0.346-0.159l-0.174-0.09
	l-0.1-0.051c-0.076-0.039-0.146-0.081-0.221-0.125c-0.016-0.009-0.035-0.018-0.05-0.028c-0.089-0.056-0.182-0.109-0.266-0.166
	c-0.028-0.016-0.055-0.034-0.08-0.052l-0.174-0.113c-0.12-0.083-0.238-0.174-0.356-0.261c-0.027-0.023-0.053-0.044-0.079-0.065
	C10.798,10.922,9.812,9.58,9.345,8.06c-0.492-1.58-0.383-3.353,0.467-4.791 M13.389,3.146c-0.758,1.111-0.831,2.491-0.311,3.717
	c0.555,1.301,1.689,2.323,3.008,2.808c0.055,0.021,0.107,0.038,0.162,0.058l0.074,0.022c0.078,0.024,0.154,0.054,0.234,0.07
	c3.65,0.704,4.639-1.874,4.904-2.253c-0.869,1.248-2.326,1.548-4.115,1.112c-0.146-0.036-0.289-0.081-0.43-0.133
	C16.74,8.486,16.568,8.415,16.4,8.336c-0.316-0.154-0.619-0.339-0.9-0.551c-1.602-1.213-2.594-3.529-1.551-5.416"/>
</svg>
