<svg version="1.1" id="master" xmlns="http://www.w3.org/2000/svg" xmlns:xlink="http://www.w3.org/1999/xlink"
	 x="0px" y="0px" width="24px" height="24px" viewBox="0 0 24 24" enable-background="new 0 0 24 24" xml:space="preserve">
<path d="M20.124,8.563c0.006-1.547-1.243-2.806-2.791-2.812c-0.832-0.003-1.623,0.364-2.156,1.001l-0.404-0.503
	c-0.111-0.147-0.188-0.318-0.226-0.499H8.201C8.164,5.931,8.087,6.102,7.975,6.249L4.97,10.005
	c-0.709,0.887-1.095,1.989-1.094,3.125V19.5c0,1.38,1.119,2.5,2.5,2.5h9.998c1.381,0,2.5-1.12,2.5-2.5v-6.371
	c-0.006-0.687-0.152-1.365-0.434-1.992C19.464,10.688,20.123,9.679,20.124,8.563z M16.374,17c0,0.69-0.56,1.25-1.25,1.25h-7.5
	c-0.69,0-1.25-0.56-1.25-1.25v-2.5c0-0.69,0.56-1.25,1.25-1.25h7.5c0.69,0,1.25,0.56,1.25,1.25V17z M17.365,9.489l-0.94-1.176
	c0.11-0.394,0.457-0.688,0.887-0.688c0.516,0,0.933,0.417,0.933,0.933C18.244,9.052,17.858,9.46,17.365,9.489z M8.561,4.5h5.625
	c0.517,0.001,0.937-0.416,0.938-0.933c0-0.001,0-0.003,0-0.005V2.938C15.126,2.421,14.708,2.001,14.191,2c-0.001,0-0.003,0-0.005,0
	H8.561C8.045,1.999,7.625,2.417,7.624,2.933c0,0.001,0,0.003,0,0.005v0.625C7.623,4.079,8.04,4.499,8.556,4.5
	C8.558,4.5,8.56,4.5,8.561,4.5z"/>
</svg>
