<?xml version="1.0" encoding="utf-8"?>
<!-- Generator: Adobe Illustrator 16.0.0, SVG Export Plug-In . SVG Version: 6.00 Build 0)  -->
<!DOCTYPE svg PUBLIC "-//W3C//DTD SVG 1.1//EN" "http://www.w3.org/Graphics/SVG/1.1/DTD/svg11.dtd">
<svg version="1.1" id="master" xmlns="http://www.w3.org/2000/svg" xmlns:xlink="http://www.w3.org/1999/xlink" x="0px" y="0px"
	 width="24px" height="24px" viewBox="0 0 24 24" enable-background="new 0 0 24 24" xml:space="preserve">
<path d="M20,5H4C2.9,5,2.01,5.899,2.01,7L2,16.999C2,18.1,2.9,19,4,19h16c1.1,0,2-0.9,2-2.001V7C22,5.899,21.1,5,20,5z M11,8h2v2h-2
	V8z M11,10.999h2v2h-2V10.999z M8,8h2v2H8V8z M8,10.999h2v2H8V10.999z M7,12.999H5v-2h2V12.999z M7,10H5V8h2V10z M16,16.999H8v-2h8
	V16.999z M16,12.999h-2v-2h2V12.999z M16,10h-2V8h2V10z M19,12.999h-2v-2h2V12.999z M19,10h-2V8h2V10z"/>
</svg>
