<svg version="1.1" id="master" xmlns="http://www.w3.org/2000/svg" xmlns:xlink="http://www.w3.org/1999/xlink" x="0px" y="0px"
	 width="24px" height="24px" viewBox="0 0 24 24" enable-background="new 0 0 24 24" xml:space="preserve">
<path d="M5.304,2c0.358,0,0.7,0.067,1.023,0.202C6.65,2.336,6.938,2.53,7.188,2.781l10.521,10.521
	c0.066,0.065,0.138,0.13,0.216,0.192c0.077,0.063,0.152,0.127,0.225,0.193c0.144,0.132,0.282,0.267,0.417,0.404
	s0.265,0.277,0.391,0.422c0.771,0.873,1.364,1.831,1.777,2.873c0.413,1.041,0.619,2.147,0.619,3.32V22H20.07
	c-1.186,0-2.291-0.207-3.317-0.619c-1.026-0.413-1.985-1.006-2.877-1.777c-0.222-0.191-0.428-0.395-0.619-0.611
	c-0.191-0.215-0.389-0.428-0.593-0.637c-0.323-0.335-0.646-0.664-0.97-0.987c-0.322-0.323-0.648-0.646-0.978-0.97l-4.085-4.075
	l1.284-1.292L3.428,6.542C3.176,6.291,2.983,6.003,2.849,5.681C2.714,5.357,2.646,5.016,2.646,4.657c0-0.365,0.07-0.709,0.211-1.032
	c0.141-0.323,0.33-0.604,0.57-0.844c0.239-0.239,0.521-0.429,0.844-0.57S4.938,2,5.304,2z M6.192,5.223
	c-0.084,0-0.159,0.033-0.225,0.099C5.901,5.387,5.869,5.462,5.869,5.546c0,0.09,0.031,0.166,0.094,0.229
	c0.063,0.063,0.14,0.094,0.229,0.094s0.166-0.032,0.229-0.094c0.063-0.063,0.095-0.139,0.095-0.229c0-0.084-0.033-0.159-0.099-0.225
	C6.351,5.255,6.276,5.223,6.192,5.223z M8.131,7.808c0.09,0,0.166-0.032,0.229-0.094c0.063-0.063,0.094-0.139,0.094-0.229
	S8.423,7.319,8.36,7.256c-0.063-0.063-0.14-0.094-0.229-0.094S7.965,7.193,7.902,7.256C7.839,7.319,7.808,7.395,7.808,7.485
	s0.031,0.166,0.095,0.229C7.965,7.776,8.041,7.808,8.131,7.808z M8.454,12.323l5.171,5.171c0.186,0.186,0.365,0.369,0.538,0.552
	c0.174,0.183,0.356,0.36,0.548,0.534c0.778,0.688,1.604,1.215,2.478,1.58s1.834,0.547,2.882,0.547c0-0.49-0.051-0.984-0.153-1.48
	c-0.102-0.497-0.246-0.979-0.435-1.445s-0.418-0.914-0.688-1.342c-0.269-0.428-0.574-0.822-0.915-1.182
	c-0.168-0.173-0.34-0.34-0.517-0.502c-0.176-0.162-0.352-0.326-0.524-0.494c-1-0.945-1.976-1.906-2.927-2.881
	C12.961,10.405,12,9.43,11.03,8.454l-1.93,1.93l0.646,0.646L8.454,12.323z"/>
</svg>
