<svg version="1.1" id="master" xmlns="http://www.w3.org/2000/svg" xmlns:xlink="http://www.w3.org/1999/xlink"
	 x="0px" y="0px" width="24px" height="24px" viewBox="0 0 24 24" enable-background="new 0 0 24 24" xml:space="preserve">
<path d="M21.993,10.68C21.883,8.576,19.996,7,17.891,7h-0.326c-1.834,0-3.619-0.564-5.129-1.605
	c-1.458-1.006-3.334-1.445-5.32-0.997C6.49,4.539,1.998,5.827,2,10.888c0.001,2.464,1.343,4.612,3.333,5.765v2.568
	c0,0.308,0.249,0.557,0.556,0.557h0.556C6.751,19.778,7,19.529,7,19.222v-1.883c0.533,0.137,1.09,0.217,1.667,0.217
	c0.189,0,0.371-0.024,0.556-0.041v1.707c0,0.308,0.249,0.557,0.556,0.557h0.556c0.307,0,0.555-0.249,0.555-0.557v-2.063
	c0.495-0.176,0.969-0.396,1.401-0.679c1.587-1.035,3.385-1.702,5.282-1.702c0.886,0,0.557-0.012,0.801-0.027l2.583,4.738
	c0.1,0.181,0.288,0.289,0.488,0.289c0.046,0,0.091-0.006,0.137-0.018c0.247-0.063,0.418-0.285,0.418-0.539
	C21.998,19.222,22.003,10.88,21.993,10.68z M18.11,11.722c-0.461,0-0.834-0.373-0.834-0.833c0-0.46,0.373-0.833,0.834-0.833
	c0.46,0,0.833,0.373,0.833,0.833C18.943,11.349,18.57,11.722,18.11,11.722z M20.889,17.044l-1.386-2.538
	c0.526-0.203,0.998-0.507,1.386-0.901V17.044z"/>
</svg>
