<svg version="1.1" id="master" xmlns="http://www.w3.org/2000/svg" xmlns:xlink="http://www.w3.org/1999/xlink"
	 x="0px" y="0px" width="24px" height="24px" viewBox="0 0 24 24" enable-background="new 0 0 24 24" xml:space="preserve">
<path d="M21.595,5.598L12.439,2.08c-0.283-0.106-0.595-0.106-0.878,0L2.405,5.598C2.162,5.689,2,5.922,2,6.184v1.441
	C2,7.971,2.279,8.25,2.625,8.25h18.75C21.72,8.25,22,7.971,22,7.625V6.184C22,5.922,21.839,5.689,21.595,5.598z M4.5,9.5v6.25H3.875
	c-0.346,0-0.625,0.28-0.625,0.625v1.875h17.5v-1.875c0-0.345-0.28-0.625-0.625-0.625H19.5V9.5H17v6.25h-3.75V9.5h-2.5v6.25H7V9.5
	H4.5z M21.375,19.5H2.625C2.279,19.5,2,19.78,2,20.125v1.25C2,21.72,2.279,22,2.625,22h18.75C21.72,22,22,21.72,22,21.375v-1.25
	C22,19.78,21.72,19.5,21.375,19.5z"/>
</svg>
