<?xml version="1.0" encoding="utf-8"?>
<!-- Generator: Adobe Illustrator 16.0.0, SVG Export Plug-In . SVG Version: 6.00 Build 0)  -->
<!DOCTYPE svg PUBLIC "-//W3C//DTD SVG 1.1//EN" "http://www.w3.org/Graphics/SVG/1.1/DTD/svg11.dtd">
<svg version="1.1" id="master" xmlns="http://www.w3.org/2000/svg" xmlns:xlink="http://www.w3.org/1999/xlink" x="0px" y="0px"
	 width="24px" height="24px" viewBox="0 0 24 24" enable-background="new 0 0 24 24" xml:space="preserve">
<path d="M12.791,14.793l-2.309-2.281l0.026-0.027c1.582-1.764,2.708-3.792,3.373-5.938h2.662V4.728h-6.364V2.909H8.363v1.818H2
	v1.809h10.155c-0.609,1.754-1.574,3.418-2.883,4.873c-0.845-0.937-1.546-1.963-2.1-3.044H5.354c0.664,1.481,1.574,2.881,2.708,4.146
	l-4.626,4.562l1.291,1.291l4.546-4.546l2.827,2.827L12.791,14.793z M17.909,10.183h-1.818L12,21.091h1.82l1.017-2.726h4.319
	l1.025,2.726H22L17.909,10.183z M15.527,16.545L17,12.609l1.473,3.936H15.527z"/>
</svg>
