<svg version="1.1" id="master" xmlns="http://www.w3.org/2000/svg" xmlns:xlink="http://www.w3.org/1999/xlink"
	 x="0px" y="0px" width="24px" height="24px" viewBox="0 0 24 24" enable-background="new 0 0 24 24" xml:space="preserve">
<path d="M18.25,2H5.75C5.06,2,4.5,2.56,4.5,3.25V12h15V3.25C19.5,2.56,18.94,2,18.25,2z M4.5,14.5C4.5,15.881,5.619,17,7,17h2.5v2.5
	c0,1.381,1.119,2.5,2.5,2.5c1.38,0,2.5-1.119,2.5-2.5V17H17c1.38,0,2.5-1.119,2.5-2.5v-1.25h-15V14.5z M12,18.563
	c0.518,0,0.938,0.42,0.938,0.938s-0.42,0.938-0.938,0.938s-0.938-0.42-0.938-0.938S11.482,18.563,12,18.563z"/>
</svg>
