<svg version="1.1" id="master" xmlns="http://www.w3.org/2000/svg" xmlns:xlink="http://www.w3.org/1999/xlink" x="0px" y="0px"
	 width="24px" height="24px" viewBox="0 0 24 24" enable-background="new 0 0 24 24" xml:space="preserve">
<path d="M21.104,2.896c-0.902-0.901-2.125-1.128-2.934-0.657c-2.301,1.34-7.08-2.073-12.542,3.389S3.58,15.869,2.239,18.17
	c-0.471,0.809-0.245,2.031,0.657,2.934c0.903,0.901,2.125,1.128,2.934,0.657c2.301-1.34,7.08,2.073,12.542-3.389
	S20.421,8.131,21.761,5.83C22.231,5.021,22.005,3.799,21.104,2.896z M11.527,5.731C9.253,6.3,6.3,9.253,5.731,11.526
	C5.66,11.811,5.405,12,5.125,12c-0.05,0-0.102-0.006-0.152-0.019c-0.335-0.084-0.539-0.423-0.455-0.758
	c0.68-2.723,3.978-6.023,6.705-6.705c0.335-0.084,0.674,0.12,0.758,0.455C12.065,5.308,11.862,5.647,11.527,5.731z"/>
</svg>
