<svg version="1.1" id="master" xmlns="http://www.w3.org/2000/svg" xmlns:xlink="http://www.w3.org/1999/xlink" x="0px" y="0px"
	 width="24px" height="24px" viewBox="0 0 24 24" enable-background="new 0 0 24 24" xml:space="preserve">
<rect fill="none" width="24" height="24"/>
<path d="M12.006,6.055c-2.428,0-4.481,0.565-5.829,1.759C6.136,7.74,6.107,7.677,6.06,7.603C5.918,7.375,5.787,7.116,5.37,6.86
	C5.113,6.697,4.825,6.587,4.524,6.538C4.395,6.523,4.263,6.523,4.133,6.537l0.083-0.011c-0.758,0-1.202,0.455-1.49,0.847
	C2.439,7.765,2.254,8.205,2.134,8.688c-0.237,0.962-0.241,2.209,0.675,3.139c0.479,0.49,1.042,0.719,1.552,0.855
	c0.099,0.028,0.186,0.034,0.28,0.054c0.332,1.576,1.316,2.91,2.632,3.651l0,0h0.001c0.774,0.436,1.508,0.635,2.06,0.845
	c0.77,0.298,1.583,0.626,2.53,0.709l0.05,0.005h0.125c1.088,0,1.913-0.439,2.627-0.713c0.546-0.208,1.283-0.401,2.063-0.84
	c0.36-0.203,0.696-0.449,0.997-0.733c0.822-0.772,1.394-1.774,1.64-2.875c0.696-0.113,1.336-0.45,1.824-0.959
	c0.915-0.929,0.912-2.176,0.675-3.138c-0.12-0.482-0.306-0.922-0.592-1.314c-0.287-0.392-0.732-0.847-1.49-0.847l0.084,0.011
	c-0.131-0.014-0.263-0.014-0.394,0.002c-0.3,0.049-0.586,0.158-0.842,0.32c-0.416,0.256-0.549,0.514-0.689,0.74
	c-0.046,0.074-0.075,0.136-0.115,0.207C16.48,6.619,14.431,6.055,12.006,6.055z M12.026,7.196c2.964,0,5.011,0.888,5.88,2.476
	c0.525-0.203,0.912-1.575,1.344-1.842c0.351-0.217,0.555-0.162,0.555-0.162c0.791,0,1.608,2.331,0.593,3.36
	c-0.536,0.548-1.524,0.701-2.019,0.662c-0.037,1.589-0.962,3.022-2.187,3.709c-0.623,0.35-1.294,0.533-1.914,0.77
	c-0.767,0.294-1.487,0.636-2.217,0.636h-0.077c-0.727-0.063-1.45-0.339-2.219-0.636c-0.62-0.237-1.29-0.425-1.913-0.774
	c-1.217-0.687-2.143-2.117-2.18-3.705c-0.489,0.042-1.49-0.109-2.03-0.661c-1.015-1.029-0.199-3.36,0.593-3.36
	c0,0,0.205-0.054,0.555,0.162c0.435,0.268,0.823,1.653,1.351,1.846C7.011,8.083,9.059,7.196,12.026,7.196L12.026,7.196z
	 M8.795,9.138c-1.404-0.025-2.564,1.093-2.589,2.498c-0.026,1.405,1.092,2.564,2.498,2.59c0.031,0.001,0.062,0.001,0.092,0
	c1.405-0.025,2.523-1.185,2.498-2.59C11.269,10.267,10.165,9.163,8.795,9.138z M15.255,9.138c-1.404,0-2.544,1.14-2.544,2.544
	c0,1.405,1.14,2.544,2.544,2.544c1.405,0,2.544-1.139,2.544-2.544C17.799,10.277,16.66,9.138,15.255,9.138z M9.159,10.566
	c0.625,0.017,1.117,0.537,1.1,1.161c-0.016,0.601-0.499,1.084-1.1,1.101c-0.624-0.001-1.13-0.507-1.13-1.131
	c0-0.095,0.012-0.189,0.036-0.282c0.099,0.244,0.376,0.36,0.619,0.262c0.18-0.073,0.297-0.247,0.296-0.441
	c0-0.255-0.201-0.465-0.456-0.475C8.711,10.634,8.933,10.565,9.159,10.566z M14.898,10.566c0.625,0.017,1.117,0.537,1.101,1.161
	c-0.017,0.601-0.5,1.084-1.101,1.101c-0.623,0-1.129-0.506-1.13-1.13c0-0.096,0.012-0.19,0.036-0.283
	c0.099,0.243,0.376,0.359,0.619,0.261c0.242-0.1,0.359-0.377,0.26-0.619c-0.069-0.172-0.234-0.287-0.42-0.295
	C14.451,10.634,14.673,10.565,14.898,10.566z M11.6,14.441c-0.199,0.018-0.314,0.122-0.314,0.397c0,0.175,0.115,0.304,0.315,0.304
	c0.066,0,0.119-0.054,0.119-0.12c0-0.055-0.038-0.103-0.091-0.114c-0.018-0.005-0.108-0.037-0.108-0.113
	c0-0.078,0-0.104,0.152-0.126c0.065-0.01,0.097-0.088,0.077-0.149C11.729,14.457,11.671,14.436,11.6,14.441L11.6,14.441z
	 M12.453,14.441c-0.071-0.005-0.13,0.016-0.15,0.078c-0.02,0.062,0.013,0.14,0.078,0.149c0.152,0.021,0.152,0.048,0.152,0.126
	c0,0.076-0.089,0.108-0.109,0.113c-0.064,0.015-0.104,0.079-0.088,0.144c0.013,0.053,0.061,0.091,0.115,0.091
	c0.201,0,0.316-0.129,0.316-0.304C12.767,14.563,12.651,14.459,12.453,14.441z"/>
</svg>
