<svg version="1.1" id="master" xmlns="http://www.w3.org/2000/svg" xmlns:xlink="http://www.w3.org/1999/xlink" x="0px" y="0px"
	 width="24px" height="24px" viewBox="0 0 24 24" enable-background="new 0 0 24 24" xml:space="preserve">
<path d="M12,2C6.477,2,2,6.477,2,12c0,5.522,4.477,10,10,10c5.522,0,10-4.478,10-10C22,6.477,17.522,2,12,2z M19.004,6.821
	l-2.557,2.556c-0.442-0.749-1.075-1.381-1.824-1.825l2.556-2.557C17.874,5.511,18.488,6.126,19.004,6.821z M12,15.871
	c-2.138,0-3.871-1.733-3.871-3.871S9.862,8.129,12,8.129S15.871,9.862,15.871,12S14.138,15.871,12,15.871z M6.821,4.996l2.556,2.557
	C8.629,7.996,7.996,8.628,7.553,9.377L4.996,6.821C5.511,6.126,6.126,5.511,6.821,4.996z M4.996,17.179l2.557-2.556
	c0.443,0.748,1.075,1.381,1.825,1.824l-2.556,2.557C6.126,18.488,5.511,17.874,4.996,17.179z M17.179,19.004l-2.556-2.557
	c0.748-0.442,1.381-1.075,1.824-1.824l2.557,2.556C18.488,17.874,17.874,18.488,17.179,19.004z"/>
</svg>
