<svg version="1.1" id="master" xmlns="http://www.w3.org/2000/svg" xmlns:xlink="http://www.w3.org/1999/xlink" x="0px" y="0px"
	 width="24px" height="24px" viewBox="0 0 24 24" enable-background="new 0 0 24 24" xml:space="preserve">
<rect fill="none" width="24" height="24"/>
<path d="M12.002,2c-0.484,0-0.979,0.042-1.474,0.147C7.623,2.705,5.308,5.053,4.76,7.958c-0.505,2.747,0.505,5.273,2.336,6.906
	c0.453,0.398,0.695,0.957,0.695,1.546v2.432c0,1.158,0.947,2.105,2.105,2.105h0.294C10.56,21.578,11.223,22,12.002,22
	s1.452-0.422,1.812-1.053h0.294c1.157,0,2.105-0.947,2.105-2.105V16.41c0-0.578,0.232-1.147,0.674-1.536
	c1.525-1.348,2.483-3.316,2.483-5.505C19.37,5.294,16.076,2,12.002,2z M14.107,18.842h-4.21v-1.053h4.21V18.842z M14.107,16.737
	h-4.21v-1.053h4.21V16.737z M12.528,10.853v2.726h-1.053v-2.726L9.549,8.937l0.748-0.747l1.705,1.705l1.705-1.705l0.748,0.747
	L12.528,10.853z"/>
</svg>
