<svg version="1.1" id="master" xmlns="http://www.w3.org/2000/svg" xmlns:xlink="http://www.w3.org/1999/xlink" x="0px" y="0px"
	 width="24px" height="24px" viewBox="0 0 24 24" enable-background="new 0 0 24 24" xml:space="preserve">
<path d="M8.877,19.748c0,0.245,0.073,0.486,0.209,0.691l0.668,1.003C9.986,21.791,10.376,22,10.795,22h2.411
	c0.418,0,0.809-0.209,1.04-0.558l0.667-1.003c0.137-0.205,0.209-0.445,0.21-0.691l0.002-1.498h-6.25L8.877,19.748z M5.125,8.875
	c0,1.733,0.643,3.314,1.702,4.523c0.646,0.735,1.654,2.273,2.04,3.571C8.868,16.98,8.869,16.99,8.87,17h6.26
	c0.002-0.01,0.002-0.02,0.004-0.03c0.385-1.298,1.395-2.836,2.039-3.571c1.06-1.209,1.702-2.79,1.702-4.523
	c0-3.804-3.089-6.887-6.896-6.875C7.994,2.012,5.125,5.241,5.125,8.875z M12,5.75c-1.723,0-3.125,1.402-3.125,3.125
	C8.875,9.221,8.596,9.5,8.25,9.5c-0.345,0-0.625-0.279-0.625-0.625C7.625,6.462,9.587,4.5,12,4.5c0.345,0,0.625,0.28,0.625,0.625
	C12.625,5.471,12.345,5.75,12,5.75z"/>
</svg>
