<svg version="1.1" id="master" xmlns="http://www.w3.org/2000/svg" xmlns:xlink="http://www.w3.org/1999/xlink" x="0px" y="0px"
	 width="24px" height="24px" viewBox="0 0 24 24" enable-background="new 0 0 24 24" xml:space="preserve">
<path d="M14.146,9.688v3.175c0,0.082-0.063,0.146-0.143,0.146h-0.51c-0.051,0-0.096-0.028-0.116-0.059l-1.455-1.968v1.885
	c0,0.083-0.063,0.142-0.143,0.142h-0.509c-0.08,0-0.143-0.059-0.143-0.142V9.692c0-0.078,0.062-0.142,0.143-0.142h0.505
	c0.044,0,0.094,0.024,0.116,0.063l1.456,1.963V9.692c0-0.078,0.063-0.142,0.143-0.142H14C14.081,9.546,14.146,9.615,14.146,9.688z
	 M10.487,9.546h-0.51c-0.08,0-0.143,0.063-0.143,0.142v3.175c0,0.082,0.062,0.146,0.143,0.146h0.51c0.08,0,0.143-0.063,0.143-0.146
	V9.688C10.629,9.615,10.567,9.546,10.487,9.546z M9.259,12.208H7.871v-2.52c0-0.078-0.062-0.142-0.143-0.142h-0.51
	c-0.08,0-0.143,0.063-0.143,0.142v3.175c0,0.044,0.013,0.072,0.04,0.103c0.027,0.021,0.059,0.039,0.099,0.039h2.04
	c0.08,0,0.143-0.063,0.143-0.146v-0.509C9.397,12.276,9.335,12.208,9.259,12.208z M16.825,9.546h-2.041
	c-0.074,0-0.142,0.063-0.142,0.142v3.175c0,0.078,0.063,0.146,0.142,0.146h2.041c0.079,0,0.143-0.063,0.143-0.146v-0.508
	c0-0.078-0.063-0.142-0.143-0.142h-1.388v-0.538h1.388c0.079,0,0.143-0.063,0.143-0.142v-0.513c0-0.083-0.063-0.146-0.143-0.146
	h-1.388v-0.532h1.388c0.079,0,0.143-0.063,0.143-0.146V9.688C16.965,9.615,16.9,9.546,16.825,9.546z M22,5.648v12.736
	c-0.005,2.004-1.643,3.624-3.646,3.614H5.616c-2,0-3.621-1.642-3.616-3.644V5.62C2.005,3.618,3.646,1.996,5.647,2h12.737
	C20.384,2.005,22.005,3.642,22,5.648z M19.249,11.125c0-3.263-3.267-5.915-7.281-5.915c-4.013,0-7.282,2.652-7.282,5.915
	c0,2.919,2.59,5.368,6.089,5.832c0.853,0.181,0.754,0.493,0.563,1.646c-0.032,0.176-0.148,0.715,0.629,0.392
	c0.778-0.322,4.193-2.472,5.723-4.229C18.746,13.6,19.249,12.429,19.249,11.125z"/>
</svg>
