<svg version="1.1" id="master" xmlns="http://www.w3.org/2000/svg" xmlns:xlink="http://www.w3.org/1999/xlink" x="0px" y="0px"
	 width="24px" height="24px" viewBox="0 0 24 24" enable-background="new 0 0 24 24" xml:space="preserve">
<rect fill="none" width="24" height="24"/>
<path d="M2,16.444h5.556v-2.222H2V16.444z M9.222,16.444h5.555v-2.222H9.222V16.444z M16.444,16.444H22v-2.222h-5.556V16.444z
	 M2,20.889h2.222v-2.222H2V20.889z M6.444,20.889h2.222v-2.222H6.444V20.889z M10.889,20.889h2.223v-2.222h-2.223V20.889z
	 M15.333,20.889h2.223v-2.222h-2.223V20.889z M19.777,20.889H22v-2.222h-2.223V20.889z M2,12h8.889V9.778H2V12z M13.111,12H22V9.778
	h-8.889V12z M2,3.111v4.444h20V3.111H2z"/>
</svg>
