<svg version="1.1" id="icon_line" xmlns="http://www.w3.org/2000/svg" xmlns:xlink="http://www.w3.org/1999/xlink" x="0px"
	 y="0px" width="24px" height="24px" viewBox="0 0 24 24" enable-background="new 0 0 24 24" xml:space="preserve">
<path d="M14.255,9.572v3.333c0,0.085-0.065,0.15-0.15,0.15H13.57c-0.052,0-0.099-0.028-0.122-0.061l-1.528-2.063v1.978
	c0,0.085-0.066,0.15-0.15,0.15h-0.535c-0.084,0-0.15-0.065-0.15-0.15V9.577c0-0.084,0.065-0.15,0.15-0.15h0.53
	c0.047,0,0.099,0.023,0.122,0.065l1.528,2.063V9.577c0-0.084,0.065-0.15,0.149-0.15H14.1C14.185,9.422,14.255,9.492,14.255,9.572z
	 M10.411,9.422H9.876c-0.084,0-0.15,0.065-0.15,0.15v3.333c0,0.085,0.065,0.15,0.15,0.15h0.535c0.084,0,0.15-0.065,0.15-0.15V9.572
	C10.561,9.492,10.495,9.422,10.411,9.422z M9.122,12.216H7.664V9.572c0-0.084-0.065-0.15-0.15-0.15H6.979
	c-0.084,0-0.15,0.065-0.15,0.15v3.333c0,0.043,0.014,0.075,0.042,0.104C6.9,13.031,6.933,13.05,6.975,13.05h2.142
	c0.084,0,0.15-0.065,0.15-0.149v-0.535C9.267,12.286,9.202,12.216,9.122,12.216z M17.067,9.422h-2.143
	c-0.079,0-0.149,0.065-0.149,0.15v3.333c0,0.08,0.065,0.15,0.149,0.15h2.143c0.084,0,0.149-0.065,0.149-0.15V12.37
	c0-0.084-0.065-0.15-0.149-0.15h-1.458v-0.563h1.458c0.084,0,0.149-0.065,0.149-0.15v-0.539c0-0.084-0.065-0.15-0.149-0.15h-1.458
	v-0.563h1.458c0.084,0,0.149-0.066,0.149-0.15V9.572C17.213,9.492,17.146,9.422,17.067,9.422z M22.5,5.33v13.374
	c-0.005,2.1-1.725,3.802-3.83,3.797H5.297c-2.1-0.005-3.802-1.729-3.797-3.83V5.297c0.005-2.1,1.729-3.802,3.83-3.797h13.374
	C20.803,1.505,22.505,3.225,22.5,5.33z M19.612,11.077c0-3.422-3.431-6.207-7.645-6.207s-7.646,2.785-7.646,6.207
	c0,3.066,2.719,5.634,6.394,6.122c0.895,0.192,0.792,0.521,0.59,1.726c-0.033,0.191-0.155,0.754,0.661,0.412
	s4.402-2.592,6.009-4.439C19.083,13.678,19.612,12.445,19.612,11.077z"/>
</svg>
