<svg version="1.1" id="master" xmlns="http://www.w3.org/2000/svg" xmlns:xlink="http://www.w3.org/1999/xlink" x="0px" y="0px"
	 width="24px" height="24px" viewBox="0 0 24 24" enable-background="new 0 0 24 24" xml:space="preserve">
<rect fill="none" width="24" height="24"/>
<path d="M19.039,19.043h-2.962v-4.641c0-1.106-0.022-2.53-1.543-2.53c-1.545,0-1.78,1.204-1.78,2.449v4.722H9.792V9.5h2.845v1.301
	h0.038c0.397-0.75,1.364-1.542,2.809-1.542c3.001,0,3.556,1.975,3.556,4.545L19.039,19.043L19.039,19.043z M6.447,8.194
	c-0.953,0-1.719-0.772-1.719-1.721s0.767-1.719,1.719-1.719c0.95,0,1.72,0.771,1.72,1.719S7.396,8.194,6.447,8.194z M7.933,19.043
	h-2.97V9.5h2.97V19.043z M20.521,2H3.476C2.66,2,2,2.645,2,3.441V20.56C2,21.355,2.66,22,3.476,22h17.043
	C21.334,22,22,21.355,22,20.56V3.441C22,2.645,21.334,2,20.519,2H20.521z"/>
</svg>
