<svg version="1.1" id="icon_linux" xmlns="http://www.w3.org/2000/svg" xmlns:xlink="http://www.w3.org/1999/xlink" x="0px" y="0px"
	 width="24px" height="24px" viewBox="0 0 24 24" enable-background="new 0 0 24 24" xml:space="preserve">
<path d="M10.907,6.828c-0.008-0.055,0.074-0.09,0.125-0.114c0.066-0.027,0.152-0.039,0.215-0.003
	c0.016,0.007,0.031,0.027,0.023,0.042c-0.015,0.047-0.093,0.039-0.137,0.063c-0.039,0.02-0.07,0.066-0.117,0.066
	C10.977,6.886,10.911,6.867,10.907,6.828z M11.872,6.816c0.039,0.02,0.07,0.066,0.117,0.066c0.042,0,0.109-0.016,0.113-0.059
	c0.008-0.054-0.074-0.09-0.125-0.113c-0.066-0.028-0.152-0.039-0.215-0.004c-0.016,0.008-0.032,0.027-0.024,0.043
	C11.75,6.8,11.828,6.792,11.872,6.816z M20.257,18.933c-0.02,0.32-0.254,0.538-0.543,0.714c-0.581,0.352-1.457,0.618-1.987,1.258
	l-0.103-0.086l0.103,0.086c-0.556,0.66-1.239,1.04-1.888,1.09c-0.645,0.052-1.25-0.245-1.573-0.898v-0.004
	c-0.043-0.081-0.074-0.172-0.098-0.261c-0.84,0.046-1.57-0.208-2.152-0.161c-0.859,0.048-1.398,0.254-1.887,0.259
	c-0.188,0.414-0.559,0.688-1.012,0.788c-0.625,0.145-1.41,0-2.184-0.406l0.063-0.117l-0.063,0.117
	c-0.723-0.382-1.641-0.348-2.316-0.488c-0.34-0.069-0.637-0.195-0.785-0.479c-0.145-0.286-0.117-0.677,0.086-1.239
	c0.066-0.199,0.016-0.495-0.031-0.812c-0.023-0.152-0.047-0.309-0.047-0.462c0-0.167,0.027-0.332,0.109-0.483
	c0.176-0.332,0.461-0.474,0.723-0.566c0.262-0.094,0.5-0.156,0.664-0.324c0.203-0.215,0.395-0.563,0.648-0.789
	c-0.102-0.672,0.008-1.383,0.242-2.082c0.492-1.48,1.531-2.898,2.269-3.777c0.629-0.894,0.813-1.613,0.879-2.527
	C9.418,6.039,8.418,1.992,12.418,2c3.16,0.004,2.98,3.335,2.961,5.128c-0.013,1.176,0.636,1.973,1.304,2.813
	c0.595,0.703,1.371,1.73,1.816,2.906c0.363,0.961,0.504,2.023,0.146,3.09c0.054,0.02,0.108,0.047,0.159,0.078
	c0.056,0.031,0.105,0.07,0.156,0.113c0.258,0.218,0.34,0.559,0.41,0.875c0.075,0.316,0.141,0.612,0.281,0.769
	C20.085,18.257,20.272,18.611,20.257,18.933z M11.872,6.262c0.14,0.035,0.347,0.093,0.508,0.171
	c-0.083-0.477,0.174-0.918,0.46-0.898c0.348,0.012,0.543,0.605,0.355,1.066c-0.031,0.074-0.109,0.133-0.153,0.18
	c0.263,0.09,0.43,0.16,0.492,0.191c0.309-0.371,0.423-1.023,0.169-1.578c-0.383-0.835-1.335-0.851-1.719,0.016
	C11.86,5.691,11.833,5.992,11.872,6.262z M10.067,6.996c0.305-0.223,0.27-0.184,0.23-0.215c-0.313-0.27-0.258-1.07,0.07-1.097
	c0.246-0.02,0.422,0.417,0.375,0.765c0.122-0.082,0.262-0.141,0.399-0.18c0.066-0.754-0.352-1.308-0.746-1.308
	C9.657,4.961,9.458,6.425,10.067,6.996z M9.7,7.812c0.059,0.191,0.238,0.41,0.574,0.598c0.305,0.18,0.468,0.449,0.781,0.586
	c0.102,0.043,0.223,0.074,0.375,0.082c0.718,0.043,1.059-0.441,1.492-0.582c0.457-0.145,0.784-0.43,0.886-0.707
	c0.126-0.332-0.082-0.574-0.409-0.711c-0.441-0.191-0.637-0.203-0.884-0.363c-0.401-0.257-0.733-0.348-1.011-0.348
	c-0.562,0-0.906,0.383-1.089,0.555c-0.02,0.02-0.309,0.23-0.551,0.41C9.7,7.46,9.645,7.621,9.7,7.812z M8.391,17.687l-0.765-1.391
	c-0.266-0.359-0.539-0.578-0.856-0.625c-0.301-0.047-0.492,0.055-0.691,0.27c-0.188,0.199-0.344,0.48-0.559,0.703
	c-0.305,0.254-0.363,0.242-0.765,0.386c-0.246,0.087-0.441,0.181-0.578,0.442c-0.105,0.195-0.082,0.476-0.035,0.781
	c0.047,0.309,0.117,0.636,0.023,0.934v0.008c-0.195,0.534-0.195,0.847-0.102,1.031c0.309,0.601,1.82,0.238,2.988,0.854
	c1.227,0.641,2.836,0.669,2.941-0.703C10.075,19.577,8.762,18.464,8.391,17.687z M14.402,19.084c0.124-0.43,0.245-0.831,0.265-1.132
	c0.032-0.594,0.063-1.121,0.172-1.559c0.121-0.492,0.364-0.902,0.837-1.066c0.089-0.824,0.729-0.824,1.495-0.488
	c0.738,0.332,1.016,0.625,0.891,1.02c0.039,0,0.078-0.004,0.164,0c0.204-0.66-0.558-1.094-1.199-1.359
	c0.114-0.469,0.095-0.941-0.016-1.395c-0.234-0.988-0.883-1.867-1.374-2.304c-0.091-0.004-0.082,0.074,0.101,0.254
	c0.453,0.417,1.449,1.921,0.911,3.316c-0.152-0.039-0.298-0.059-0.426-0.055c-0.208-1.137-0.684-2.078-0.922-2.523
	c-0.449-0.835-1.152-2.551-1.454-3.738c-0.176,0.25-0.483,0.465-0.87,0.586c-0.184,0.059-0.379,0.215-0.621,0.352
	c-0.542,0.313-1.171,0.344-1.656-0.047c-0.176-0.141-0.313-0.297-0.492-0.402c-0.063-0.035-0.199-0.129-0.242-0.16
	c-0.078,1.477-1.066,3.332-1.535,4.402c-0.324,0.77-0.516,1.594-0.539,2.402c-0.851-1.137-0.23-2.59,0.102-3.219
	c0.371-0.687,0.43-0.879,0.34-0.813c-0.335,0.547-0.859,1.418-1.063,2.313c-0.105,0.465-0.125,0.938,0.012,1.375
	s0.433,0.84,0.96,1.168c0,0,0.969,0.559,1.496,1.27c0.289,0.391,0.379,0.73,0.289,0.973c-0.098,0.261-0.375,0.348-0.652,0.348
	c0.188,0.234,0.402,0.508,0.563,0.766C11.406,20.369,13.148,19.979,14.402,19.084L14.402,19.084z M19.456,17.956
	c-0.391-0.441-0.281-1.293-0.668-1.625c-0.27-0.234-0.531-0.211-0.883-0.2c-0.301,0.345-1.008,0.767-1.5,0.638
	c-0.449-0.113-0.703-0.638-0.733-1.152c-0.013,0.008-0.028,0.012-0.039,0.02c-0.277,0.152-0.434,0.422-0.536,0.824
	c-0.098,0.398-0.132,0.918-0.163,1.512c-0.027,0.461-0.242,1.03-0.388,1.586c-0.137,0.516-0.226,0.984-0.042,1.417
	c0.28,0.566,0.762,0.798,1.315,0.755c0.556-0.044,1.188-0.384,1.703-0.996c0.859-1.039,2.434-1.161,2.469-1.816
	C20.003,18.718,19.87,18.409,19.456,17.956z M10.016,7.808c0.078,0.074,0.184,0.176,0.313,0.277C10.586,8.289,10.946,8.5,11.395,8.5
	c0.453,0,0.879-0.23,1.242-0.422c0.19-0.102,0.425-0.273,0.578-0.406c0.152-0.133,0.23-0.246,0.12-0.258
	c-0.108-0.012-0.101,0.102-0.234,0.199c-0.171,0.125-0.378,0.289-0.542,0.383c-0.289,0.164-0.762,0.398-1.167,0.398
	c-0.406,0-0.73-0.188-0.973-0.379c-0.121-0.098-0.223-0.195-0.301-0.27c-0.059-0.055-0.074-0.18-0.168-0.191
	C9.895,7.55,9.879,7.699,10.016,7.808z"/>
</svg>
