<svg version="1.1" id="master" xmlns="http://www.w3.org/2000/svg" xmlns:xlink="http://www.w3.org/1999/xlink" x="0px" y="0px"
	 width="24px" height="24px" viewBox="0 0 24 24" enable-background="new 0 0 24 24" xml:space="preserve">
<path d="M10.908,6.828c-0.008-0.055,0.074-0.09,0.125-0.114c0.066-0.027,0.152-0.039,0.215-0.003
	c0.016,0.007,0.031,0.027,0.023,0.042c-0.015,0.047-0.093,0.039-0.137,0.063c-0.039,0.02-0.07,0.066-0.117,0.066
	C10.978,6.885,10.912,6.867,10.908,6.828z M11.873,6.815c0.039,0.02,0.07,0.066,0.117,0.066c0.042,0,0.109-0.016,0.113-0.059
	c0.008-0.054-0.074-0.09-0.125-0.113c-0.066-0.028-0.152-0.039-0.215-0.004c-0.016,0.008-0.032,0.027-0.024,0.043
	C11.751,6.799,11.829,6.792,11.873,6.815z M20.258,18.934c-0.021,0.319-0.254,0.537-0.543,0.713
	c-0.581,0.353-1.457,0.619-1.987,1.258l-0.103-0.086l0.103,0.086c-0.556,0.66-1.238,1.041-1.888,1.091
	c-0.646,0.052-1.25-0.245-1.573-0.897v-0.005c-0.043-0.081-0.074-0.172-0.098-0.261c-0.84,0.046-1.57-0.208-2.152-0.161
	c-0.859,0.048-1.398,0.254-1.887,0.259c-0.188,0.414-0.559,0.688-1.012,0.788c-0.625,0.146-1.41,0-2.184-0.405l0.063-0.117
	l-0.063,0.117c-0.723-0.383-1.641-0.349-2.316-0.488c-0.34-0.069-0.637-0.195-0.785-0.479c-0.145-0.287-0.117-0.678,0.086-1.24
	c0.066-0.198,0.016-0.494-0.031-0.812c-0.023-0.151-0.047-0.31-0.047-0.462c0-0.167,0.027-0.332,0.109-0.482
	c0.176-0.332,0.461-0.475,0.723-0.566c0.262-0.094,0.5-0.156,0.664-0.324c0.203-0.215,0.395-0.563,0.648-0.789
	c-0.102-0.672,0.008-1.383,0.242-2.082c0.492-1.48,1.531-2.898,2.269-3.777c0.629-0.894,0.813-1.613,0.879-2.527
	C9.419,6.039,8.419,1.992,12.419,2c3.16,0.004,2.98,3.335,2.961,5.128c-0.013,1.176,0.637,1.973,1.305,2.813
	c0.594,0.703,1.371,1.73,1.815,2.907c0.362,0.961,0.504,2.022,0.146,3.09c0.055,0.02,0.108,0.047,0.16,0.078
	c0.055,0.03,0.104,0.069,0.155,0.112c0.258,0.218,0.34,0.56,0.41,0.875c0.075,0.315,0.141,0.612,0.28,0.769
	C20.086,18.257,20.272,18.611,20.258,18.934z M11.873,6.262c0.14,0.035,0.347,0.093,0.508,0.171
	c-0.083-0.477,0.175-0.918,0.46-0.898c0.348,0.012,0.543,0.605,0.355,1.066c-0.031,0.074-0.109,0.133-0.153,0.18
	c0.263,0.09,0.431,0.16,0.492,0.191c0.309-0.371,0.423-1.023,0.169-1.578c-0.383-0.835-1.335-0.851-1.719,0.016
	C11.861,5.69,11.834,5.992,11.873,6.262z M10.068,6.996c0.305-0.223,0.27-0.184,0.23-0.215c-0.313-0.271-0.258-1.07,0.07-1.097
	c0.246-0.02,0.422,0.417,0.375,0.765c0.122-0.082,0.262-0.141,0.399-0.18c0.066-0.754-0.352-1.308-0.746-1.308
	C9.658,4.96,9.459,6.424,10.068,6.996z M9.701,7.812c0.059,0.191,0.238,0.41,0.574,0.598c0.305,0.18,0.468,0.449,0.781,0.586
	c0.102,0.043,0.223,0.074,0.375,0.082c0.718,0.043,1.059-0.441,1.492-0.582c0.457-0.145,0.784-0.43,0.887-0.707
	c0.125-0.332-0.082-0.574-0.41-0.711c-0.44-0.191-0.637-0.203-0.883-0.363c-0.401-0.257-0.733-0.348-1.012-0.348
	c-0.562,0-0.906,0.383-1.089,0.555c-0.02,0.02-0.309,0.23-0.551,0.41C9.701,7.459,9.646,7.621,9.701,7.812z M8.392,17.688
	l-0.765-1.392c-0.266-0.358-0.539-0.578-0.856-0.625c-0.301-0.047-0.492,0.056-0.691,0.271c-0.188,0.199-0.344,0.479-0.559,0.703
	c-0.305,0.254-0.363,0.241-0.765,0.385c-0.246,0.088-0.441,0.182-0.578,0.443c-0.105,0.194-0.082,0.476-0.035,0.78
	c0.047,0.31,0.117,0.636,0.023,0.935v0.008c-0.195,0.533-0.195,0.847-0.102,1.031c0.309,0.601,1.82,0.237,2.988,0.854
	c1.227,0.641,2.836,0.669,2.941-0.703C10.076,19.577,8.763,18.464,8.392,17.688z M14.403,19.084c0.123-0.43,0.244-0.831,0.265-1.132
	c0.032-0.595,0.063-1.121,0.172-1.56c0.121-0.492,0.364-0.901,0.837-1.065c0.09-0.824,0.729-0.824,1.495-0.488
	c0.738,0.332,1.017,0.625,0.892,1.021c0.039,0,0.078-0.004,0.164,0c0.203-0.66-0.559-1.094-1.199-1.359
	c0.113-0.469,0.095-0.941-0.017-1.395c-0.233-0.989-0.883-1.868-1.374-2.305c-0.091-0.004-0.082,0.074,0.102,0.254
	c0.453,0.417,1.449,1.922,0.91,3.316c-0.151-0.039-0.297-0.059-0.426-0.055c-0.207-1.137-0.684-2.079-0.922-2.524
	c-0.449-0.835-1.152-2.551-1.453-3.738c-0.177,0.25-0.483,0.465-0.871,0.586c-0.184,0.059-0.379,0.215-0.621,0.352
	c-0.542,0.313-1.171,0.344-1.656-0.047c-0.176-0.141-0.313-0.297-0.492-0.402c-0.063-0.035-0.199-0.129-0.242-0.16
	c-0.078,1.477-1.066,3.332-1.535,4.403c-0.324,0.771-0.516,1.594-0.539,2.401c-0.851-1.137-0.23-2.59,0.102-3.219
	c0.371-0.687,0.43-0.879,0.34-0.813C8,11.703,7.476,12.574,7.272,13.469c-0.105,0.465-0.125,0.938,0.012,1.375
	c0.137,0.438,0.433,0.84,0.96,1.168c0,0,0.969,0.559,1.496,1.271c0.289,0.391,0.379,0.729,0.289,0.973
	c-0.098,0.261-0.375,0.349-0.652,0.349c0.188,0.233,0.402,0.508,0.563,0.766C11.407,20.369,13.149,19.979,14.403,19.084
	L14.403,19.084z M19.457,17.956c-0.392-0.44-0.281-1.293-0.668-1.625c-0.271-0.233-0.531-0.211-0.884-0.2
	c-0.301,0.346-1.008,0.768-1.5,0.639c-0.448-0.113-0.702-0.639-0.732-1.152c-0.013,0.008-0.027,0.012-0.039,0.02
	c-0.277,0.152-0.434,0.422-0.535,0.824c-0.099,0.398-0.133,0.918-0.164,1.512c-0.026,0.461-0.242,1.03-0.388,1.586
	c-0.137,0.517-0.226,0.984-0.042,1.418c0.28,0.565,0.762,0.797,1.314,0.754c0.557-0.043,1.188-0.383,1.703-0.996
	c0.859-1.039,2.435-1.16,2.47-1.815C20.004,18.718,19.871,18.409,19.457,17.956z M10.017,7.808c0.078,0.074,0.184,0.176,0.313,0.277
	C10.587,8.289,10.947,8.5,11.396,8.5c0.453,0,0.879-0.23,1.242-0.422c0.19-0.102,0.426-0.273,0.578-0.406
	c0.152-0.133,0.23-0.246,0.12-0.258c-0.108-0.012-0.101,0.102-0.233,0.199c-0.172,0.125-0.379,0.289-0.543,0.383
	c-0.289,0.164-0.762,0.398-1.167,0.398c-0.406,0-0.73-0.188-0.973-0.379c-0.121-0.098-0.223-0.195-0.301-0.27
	c-0.059-0.055-0.074-0.18-0.168-0.191C9.896,7.549,9.88,7.699,10.017,7.808z"/>
</svg>
