<svg version="1.1" id="master" xmlns="http://www.w3.org/2000/svg" xmlns:xlink="http://www.w3.org/1999/xlink" x="0px" y="0px"
	 width="24px" height="24px" viewBox="0 0 24 24" enable-background="new 0 0 24 24" xml:space="preserve">
<path d="M3.622,10.378C2.724,10.378,2,11.103,2,12c0,0.898,0.724,1.621,1.622,1.621S5.243,12.898,5.243,12
	C5.243,11.103,4.519,10.378,3.622,10.378z M3.622,3.892C2.724,3.892,2,4.616,2,5.514s0.724,1.622,1.622,1.622
	s1.622-0.724,1.622-1.622S4.519,3.892,3.622,3.892z M3.622,16.865C2.724,16.865,2,17.6,2,18.486s0.735,1.621,1.622,1.621
	s1.622-0.734,1.622-1.621S4.519,16.865,3.622,16.865z M6.865,19.568H22v-2.162H6.865V19.568z M6.865,13.082H22v-2.163H6.865V13.082z
	 M6.865,4.433v2.162H22V4.433H6.865z"/>
</svg>
