<svg version="1.1" id="master" xmlns="http://www.w3.org/2000/svg" xmlns:xlink="http://www.w3.org/1999/xlink" x="0px" y="0px"
	 width="24px" height="24px" viewBox="0 0 24 24" enable-background="new 0 0 24 24" xml:space="preserve">
<path d="M18.875,10.75h-0.938V7.938C17.938,4.664,15.273,2,12,2S6.063,4.664,6.063,7.938v2.813H5.125
	c-1.035,0-1.875,0.84-1.875,1.875v7.5C3.25,21.16,4.09,22,5.125,22h13.75c1.035,0,1.875-0.84,1.875-1.875v-7.5
	C20.75,11.59,19.91,10.75,18.875,10.75z M14.813,10.75H9.188V7.938c0-1.551,1.262-2.813,2.813-2.813s2.813,1.262,2.813,2.813V10.75z
	"/>
</svg>
