<svg version="1.1" id="master" xmlns="http://www.w3.org/2000/svg" xmlns:xlink="http://www.w3.org/1999/xlink" x="0px" y="0px"
	 width="24px" height="24px" viewBox="0 0 24 24" enable-background="new 0 0 24 24" xml:space="preserve">
<path d="M2.317,10.647l-0.227-0.031c-0.04,0.287-0.068,0.58-0.084,0.867l0.229,0.014C2.251,11.214,2.278,10.929,2.317,10.647z
	 M5.447,4.742L5.294,4.571c-0.215,0.193-0.424,0.4-0.621,0.612l0.168,0.156C5.033,5.132,5.237,4.931,5.447,4.742z M6.808,3.717
	L6.687,3.521c-0.247,0.155-0.488,0.321-0.72,0.495l0.139,0.183C6.33,4.029,6.567,3.866,6.808,3.717z M3.521,17.307
	c0.153,0.248,0.319,0.488,0.493,0.72l0.184-0.137c-0.171-0.227-0.333-0.462-0.483-0.703L3.521,17.307z M2.94,15.668l-0.213,0.087
	c0.107,0.265,0.229,0.528,0.359,0.785l0.004,0.009l0.204-0.104l-0.004-0.008C3.163,16.186,3.045,15.927,2.94,15.668z M2.249,9.758
	l0.225,0.053C2.537,9.534,2.613,9.257,2.7,8.988L2.482,8.916C2.393,9.193,2.314,9.476,2.249,9.758z M2.229,12.35L2,12.358
	c0.011,0.289,0.033,0.582,0.069,0.869l0.228-0.028C2.262,12.92,2.239,12.633,2.229,12.35z M2.214,14.088
	c0.062,0.283,0.136,0.568,0.221,0.845l0.219-0.066c-0.083-0.271-0.155-0.548-0.215-0.824L2.214,14.088z M11.645,2.23l-0.009-0.229
	c-0.29,0.01-0.583,0.033-0.87,0.068l0.028,0.228C11.076,2.263,11.36,2.24,11.645,2.23z M21.35,9.139
	c0.083,0.271,0.155,0.55,0.213,0.827l0.226-0.049c-0.061-0.283-0.134-0.568-0.219-0.845L21.35,9.139z M16.684,3.159
	c-0.257-0.137-0.522-0.262-0.789-0.375l-0.09,0.21c0.263,0.111,0.521,0.234,0.772,0.366L16.684,3.159z M15.077,2.478
	c-0.276-0.087-0.558-0.166-0.841-0.23L14.184,2.47c0.276,0.063,0.553,0.14,0.822,0.228L15.077,2.478z M7.562,3.289
	C7.811,3.164,8.066,3.046,8.325,2.94L8.238,2.729c-0.264,0.106-0.526,0.227-0.78,0.356L7.445,3.092L7.55,3.295L7.562,3.289z
	 M21.771,11.657L22,11.648c-0.01-0.292-0.032-0.582-0.067-0.871l-0.229,0.027C21.738,11.086,21.762,11.374,21.771,11.657
	L21.771,11.657z M13.379,2.089c-0.288-0.039-0.581-0.067-0.869-0.082l-0.012,0.228c0.281,0.015,0.568,0.042,0.849,0.082
	L13.379,2.089z M9.953,2.44L9.905,2.215c-0.283,0.06-0.567,0.133-0.845,0.22l0.067,0.218C9.398,2.571,9.677,2.5,9.953,2.44z
	 M3.602,6.558l0.192,0.125c0.154-0.237,0.32-0.471,0.493-0.695L4.106,5.847C3.929,6.077,3.759,6.316,3.602,6.558z M2.787,8.099
	l0.21,0.089c0.11-0.261,0.234-0.521,0.366-0.77L3.161,7.312C3.025,7.567,2.899,7.832,2.787,8.099z M17.185,20.285l0.122,0.194
	c0.245-0.154,0.488-0.32,0.718-0.494l-0.137-0.183C17.662,19.973,17.424,20.136,17.185,20.285L17.185,20.285z M19.706,18.015
	l0.181,0.142c0.179-0.227,0.348-0.467,0.506-0.711L20.2,17.321C20.046,17.56,19.88,17.792,19.706,18.015z M18.546,19.262
	l0.152,0.169c0.215-0.192,0.425-0.398,0.622-0.61l-0.168-0.156C18.961,18.871,18.756,19.071,18.546,19.262z M20.632,16.586
	l0.203,0.107c0.136-0.256,0.262-0.521,0.374-0.787l-0.212-0.089C20.888,16.078,20.766,16.335,20.632,16.586z M21.68,13.357
	l0.229,0.032c0.04-0.288,0.068-0.579,0.084-0.869l-0.229-0.011C21.748,12.791,21.721,13.077,21.68,13.357z M21.296,15.018
	l0.22,0.071c0.09-0.276,0.168-0.559,0.232-0.842l-0.223-0.053C21.46,14.472,21.384,14.749,21.296,15.018z M20.71,7.561
	c0.129,0.252,0.247,0.514,0.354,0.776l0.213-0.086c-0.109-0.268-0.231-0.536-0.363-0.794L20.71,7.561z M8.913,21.514
	c0.276,0.09,0.559,0.168,0.842,0.232l0.051-0.223c-0.275-0.063-0.552-0.141-0.821-0.228L8.913,21.514z M10.612,21.906
	c0.288,0.04,0.58,0.068,0.869,0.085l0.012-0.229c-0.282-0.015-0.568-0.042-0.849-0.081L10.612,21.906z M16.438,20.707
	c-0.253,0.128-0.512,0.247-0.771,0.353l0.086,0.214c0.266-0.109,0.532-0.229,0.789-0.361l0.004-0.002l-0.103-0.205L16.438,20.707z
	 M5.845,19.888c0.229,0.178,0.468,0.349,0.712,0.505L6.681,20.2c-0.237-0.152-0.471-0.32-0.694-0.493L5.845,19.888z M12.348,21.77
	l0.007,0.229c0.29-0.012,0.583-0.034,0.871-0.07l-0.029-0.227C12.916,21.736,12.63,21.76,12.348,21.77z M7.309,20.835
	c0.256,0.136,0.521,0.263,0.788,0.375l0.089-0.212c-0.261-0.11-0.52-0.232-0.77-0.366L7.309,20.835z M4.57,18.7
	c0.193,0.215,0.399,0.425,0.611,0.621l0.156-0.167c-0.207-0.192-0.408-0.397-0.597-0.607L4.57,18.7L4.57,18.7z M14.037,21.561
	l0.049,0.226c0.283-0.062,0.566-0.135,0.845-0.222l-0.068-0.219C14.593,21.429,14.314,21.501,14.037,21.561z M19.648,2.108
	c-1.236,0-2.239,1.003-2.239,2.241c0,1.238,1.003,2.241,2.239,2.241c1.238,0,2.241-1.003,2.241-2.241
	C21.89,3.112,20.887,2.108,19.648,2.108z M14.77,14.872c0,0.393,0.263,0.551,0.71,0.551c0.559,0,1.081-0.331,1.081-0.848v-0.538
	c-0.191,0.09-0.316,0.118-0.923,0.2C15.025,14.329,14.77,14.493,14.77,14.872z M12,4.349c-4.225,0-7.649,3.424-7.649,7.649
	c0,4.223,3.425,7.649,7.649,7.649s7.648-3.426,7.648-7.649C19.648,7.774,16.225,4.349,12,4.349z M9.928,15.823H6.81v-5.019H7.45
	v4.455h2.479L9.928,15.823L9.928,15.823z M13.369,15.823h-0.517v-0.559c-0.337,0.476-0.676,0.661-1.204,0.661
	c-0.703,0-1.149-0.386-1.149-0.985v-2.726h0.57v2.5c0,0.433,0.29,0.708,0.744,0.708c0.6,0,0.984-0.482,0.984-1.218v-1.99h0.572
	L13.369,15.823L13.369,15.823z M12.928,8.83c0-1.237,1.004-2.241,2.24-2.241s2.24,1.004,2.24,2.241s-1.003,2.24-2.24,2.24
	S12.928,10.067,12.928,8.83z M17.565,15.375v0.434c-0.186,0.049-0.274,0.062-0.392,0.062c-0.283,0-0.53-0.198-0.593-0.475
	c-0.317,0.338-0.765,0.53-1.226,0.53c-0.73,0-1.185-0.386-1.185-1.04c0-0.438,0.213-0.763,0.633-0.936
	c0.222-0.089,0.346-0.117,1.157-0.22c0.454-0.055,0.6-0.159,0.6-0.399v-0.152c0-0.343-0.29-0.537-0.806-0.537
	c-0.537,0-0.798,0.2-0.847,0.642H14.33c0.034-0.833,0.571-1.17,1.445-1.17c0.889,0,1.355,0.343,1.355,0.985v2.01
	c0,0.179,0.111,0.281,0.312,0.281C17.477,15.389,17.504,15.389,17.565,15.375z"/>
</svg>
