<svg version="1.1" id="master" xmlns="http://www.w3.org/2000/svg" xmlns:xlink="http://www.w3.org/1999/xlink" x="0px" y="0px"
	 width="24px" height="24px" viewBox="0 0 24 24" enable-background="new 0 0 24 24" xml:space="preserve">
<path d="M14.146,18.432H7v-5h0.716v1.432h0.716v-1.432h5.715V18.432z M14.146,6.493l1.79,1.789l0.924-0.924l-1.789-1.79h-0.925
	V6.493z M7.214,7.214C7.07,7.356,7,7.523,7,7.716v3.568h7.146V7.716c0-0.086-0.016-0.172-0.049-0.259L13.689,7.05
	C13.637,7.023,13.544,7.007,13.411,7c-0.132-0.006-0.271-0.01-0.417-0.01c-0.133,0-0.254,0.001-0.363,0.005S12.44,7,12.388,7H8.432
	v1.432H7.716V7C7.523,7,7.356,7.071,7.214,7.214z M9.862,4.137h0.716V2.716h2.854v1.421h0.715V2.716h0.716V2H9.146v0.716h0.716
	V4.137z M19.146,17.109V7.716c0-0.298-0.043-0.583-0.129-0.855c-0.086-0.271-0.209-0.525-0.367-0.76
	c-0.159-0.235-0.352-0.442-0.577-0.622C17.848,5.3,17.6,5.158,17.328,5.052c-0.219-0.086-0.425-0.141-0.616-0.164
	c-0.192-0.023-0.404-0.035-0.637-0.035h-0.497c0.312,0.232,0.577,0.507,0.796,0.825c0.039,0.06,0.081,0.134,0.124,0.224
	c0.043,0.09,0.088,0.161,0.134,0.214c0.199,0.212,0.402,0.419,0.611,0.622s0.416,0.409,0.621,0.621L17.01,8.223v10.924
	c0,0.266-0.048,0.521-0.145,0.766c-0.096,0.246-0.229,0.468-0.402,0.666h1.193c-0.186,0.014-0.34,0.088-0.463,0.225
	c-0.122,0.135-0.184,0.296-0.184,0.481c0,0.192,0.069,0.36,0.209,0.502C17.357,21.929,17.523,22,17.716,22
	c0.191,0,0.359-0.07,0.502-0.209s0.214-0.305,0.214-0.496c0-0.193-0.062-0.357-0.185-0.492c-0.122-0.137-0.279-0.211-0.472-0.225
	c0.318-0.013,0.59-0.111,0.814-0.293c0.226-0.182,0.392-0.422,0.497-0.721c0.033-0.086,0.054-0.243,0.06-0.473
	c0.007-0.229,0.011-0.475,0.011-0.74c0-0.265-0.002-0.516-0.005-0.75C19.148,17.366,19.146,17.202,19.146,17.109z M16.299,18.67
	c0.004,0.093,0.005,0.186,0.005,0.278c0,0.073-0.001,0.144-0.005,0.214c-0.003,0.069-0.012,0.135-0.024,0.193
	c-0.073,0.346-0.228,0.632-0.463,0.86c-0.234,0.229-0.531,0.35-0.89,0.362c0.18,0.014,0.333,0.086,0.463,0.219
	c0.129,0.133,0.193,0.295,0.193,0.487c0,0.198-0.069,0.368-0.209,0.507C15.23,21.93,15.062,22,14.862,22
	c-0.198,0-0.367-0.07-0.507-0.209c-0.139-0.139-0.209-0.309-0.209-0.507c0-0.192,0.063-0.354,0.189-0.487s0.281-0.205,0.467-0.219
	H9.207c0.179,0.014,0.333,0.086,0.462,0.219s0.193,0.295,0.193,0.487c0,0.198-0.069,0.368-0.208,0.507
	C9.515,21.93,9.346,22,9.146,22c-0.198,0-0.367-0.07-0.507-0.209c-0.139-0.139-0.208-0.309-0.208-0.507
	c0-0.192,0.063-0.354,0.188-0.487s0.281-0.205,0.467-0.219H6.344c0.179,0.014,0.333,0.086,0.462,0.219
	C6.936,20.93,7,21.092,7,21.284c0,0.198-0.07,0.368-0.209,0.507C6.651,21.93,6.482,22,6.284,22c-0.192,0-0.358-0.071-0.497-0.214
	c-0.14-0.142-0.209-0.31-0.209-0.502c0-0.186,0.062-0.347,0.184-0.481c0.123-0.137,0.277-0.211,0.463-0.225
	c-0.192-0.006-0.371-0.049-0.537-0.129s-0.31-0.184-0.433-0.313c-0.122-0.13-0.219-0.279-0.288-0.447
	c-0.069-0.17-0.104-0.35-0.104-0.543V8.819c0-0.139-0.003-0.283-0.01-0.432s-0.01-0.3-0.01-0.452c0-0.179,0.01-0.354,0.029-0.527
	c0.04-0.338,0.13-0.649,0.269-0.935c0.14-0.285,0.316-0.537,0.532-0.755c0.215-0.219,0.464-0.399,0.745-0.542
	C6.7,5.034,7.01,4.936,7.348,4.883c0.133-0.02,0.269-0.033,0.407-0.04c0.14-0.006,0.282-0.01,0.428-0.01
	c0.192,0,0.383,0.003,0.571,0.01c0.189,0.007,0.37,0.01,0.542,0.01h4.136v1.431H9.018c-0.073,0-0.179-0.001-0.318-0.005
	C8.561,6.276,8.415,6.274,8.263,6.274c-0.206,0-0.404,0.006-0.597,0.02C7.474,6.308,7.331,6.331,7.238,6.364
	C7.065,6.437,6.92,6.523,6.801,6.622C6.682,6.722,6.575,6.848,6.482,7C6.351,7.225,6.284,7.464,6.284,7.716V12h8.578V8.223
	l1.074,1.063l0.357-0.358v9.473C16.294,18.488,16.296,18.577,16.299,18.67z M14.862,12.716H6.284v6.431h8.578V12.716z"/>
</svg>
