<svg version="1.1" id="master" xmlns="http://www.w3.org/2000/svg" xmlns:xlink="http://www.w3.org/1999/xlink" x="0px" y="0px"
	 width="24px" height="24px" viewBox="0 0 24 24" enable-background="new 0 0 24 24" xml:space="preserve">
<path d="M10.75,5.75l0.625-1.25l1.25-0.625l-1.25-0.625L10.75,2l-0.625,1.25l-1.25,0.625l1.25,0.625L10.75,5.75z M5.125,8.25
	l1.041-2.083L8.25,5.125L6.166,4.083L5.125,2L4.084,4.083L2,5.125l2.084,1.042L5.125,8.25z M18.875,13.25l-1.042,2.083l-2.083,1.042
	l2.083,1.042l1.042,2.083l1.042-2.083L22,16.375l-2.083-1.042L18.875,13.25z M21.634,5.681l-3.314-3.314
	C18.076,2.122,17.755,2,17.436,2c-0.32,0-0.64,0.122-0.884,0.366L2.366,16.552c-0.488,0.488-0.488,1.28,0,1.768l3.314,3.314
	C5.925,21.878,6.245,22,6.564,22s0.64-0.122,0.884-0.366L21.634,7.448C22.122,6.96,22.122,6.169,21.634,5.681z M16.041,9.948
	l-1.988-1.989l3.382-3.383l1.989,1.989L16.041,9.948z"/>
</svg>
