<svg version="1.1" id="master" xmlns="http://www.w3.org/2000/svg" xmlns:xlink="http://www.w3.org/1999/xlink" x="0px" y="0px"
	 width="24px" height="24px" viewBox="0 0 24 24" enable-background="new 0 0 24 24" xml:space="preserve">
<path d="M16.294,14.578h-0.903l-0.32-0.309c1.121-1.305,1.796-2.997,1.796-4.837C16.865,5.328,13.538,2,9.433,2S2,5.328,2,9.433
	s3.328,7.433,7.433,7.433c1.841,0,3.533-0.675,4.838-1.796l0.308,0.32v0.903L20.296,22L22,20.296L16.294,14.578z M9.433,14.578
	c-2.848,0-5.146-2.298-5.146-5.146c0-2.848,2.298-5.146,5.146-5.146s5.146,2.298,5.146,5.146
	C14.579,12.28,12.28,14.578,9.433,14.578z"/>
</svg>
