<svg version="1.1" id="master" xmlns="http://www.w3.org/2000/svg" xmlns:xlink="http://www.w3.org/1999/xlink" x="0px" y="0px"
	 width="24px" height="24px" viewBox="0 0 24 24" enable-background="new 0 0 24 24" xml:space="preserve">
<path d="M8.409,7.783h-5.94C2.21,7.783,2,7.573,2,7.314V4.189c0-0.777,0.629-1.406,1.406-1.406h4.063
	c0.777,0,1.406,0.629,1.406,1.406v3.125C8.877,7.57,8.671,7.78,8.415,7.783C8.413,7.783,8.411,7.783,8.409,7.783z M22,7.314V4.186
	c0-0.777-0.63-1.406-1.406-1.406h-4.063c-0.776,0-1.406,0.629-1.406,1.406v3.125c0,0.259,0.21,0.469,0.469,0.469h5.938
	C21.787,7.781,21.998,7.575,22,7.318C22,7.317,22,7.315,22,7.314z M15.594,9.033c-0.259,0-0.469,0.209-0.469,0.469v2.031
	c0,5.004-6.25,4.995-6.25,0V9.502c0-0.26-0.21-0.469-0.469-0.469H2.473c-0.259,0-0.469,0.209-0.469,0.469c0,0.001,0,0.002,0,0.004
	c0.004,0.836,0.023,1.574,0,2.082c0,5.883,5.319,9.633,10.029,9.633s9.961-3.75,9.961-9.638c-0.023-0.499-0.008-1.289,0-2.077
	c0.003-0.259-0.206-0.471-0.465-0.473c-0.001,0-0.003,0-0.004,0H15.594z"/>
</svg>
