<svg version="1.1" id="master" xmlns="http://www.w3.org/2000/svg" xmlns:xlink="http://www.w3.org/1999/xlink" x="0px" y="0px"
	 width="24px" height="24px" viewBox="0 0 24 24" enable-background="new 0 0 24 24" xml:space="preserve">
<rect fill="none" width="24" height="24"/>
<path d="M12,2c1.38,0,2.5,1.119,2.5,2.5S13.38,7,12,7c-1.381,0-2.5-1.119-2.5-2.5S10.619,2,12,2 M13.875,7.625h-0.444
	c-0.887,0.408-1.937,0.426-2.862,0h-0.444C9.089,7.625,8.25,8.464,8.25,9.5v5.313c0,0.518,0.42,0.938,0.938,0.938h0.625v5.313
	c0,0.518,0.42,0.938,0.938,0.938h2.5c0.518,0,0.938-0.42,0.938-0.938V15.75h0.625c0.518,0,0.938-0.42,0.938-0.938V9.5
	C15.75,8.464,14.91,7.625,13.875,7.625z"/>
</svg>
