<svg version="1.1" id="master" xmlns="http://www.w3.org/2000/svg" xmlns:xlink="http://www.w3.org/1999/xlink" x="0px" y="0px"
	 width="24px" height="24px" viewBox="0 0 24 24" enable-background="new 0 0 24 24" xml:space="preserve">
<rect fill="none" width="24" height="24"/>
<path d="M21.817,3.979l-1.796-1.797c-0.206-0.206-0.527-0.242-0.775-0.088l-2.5,1.565c-0.271,0.17-0.467,0.437-0.547,0.747
	l-0.566,2.192l-2.908,2.909C5.53,9.448,3.796,11.415,3.2,12.011c-1.829,1.828-1.543,5.873,0.686,8.104
	c2.229,2.229,6.275,2.513,8.103,0.684c0.597-0.595,2.563-2.329,2.503-9.523l2.909-2.908l2.192-0.567
	c0.31-0.08,0.577-0.276,0.747-0.547l1.564-2.5C22.06,4.507,22.022,4.186,21.817,3.979z M10.125,15.75
	c-1.036,0-1.875-0.84-1.875-1.875S9.089,12,10.125,12S12,12.84,12,13.875S11.16,15.75,10.125,15.75z"/>
</svg>
