<svg version="1.1" id="master" xmlns="http://www.w3.org/2000/svg" xmlns:xlink="http://www.w3.org/1999/xlink" x="0px" y="0px"
	 width="24px" height="24px" viewBox="0 0 24 24" enable-background="new 0 0 24 24" xml:space="preserve">
<path d="M17,7.681c0.179,0,0.321-0.037,0.428-0.109c0.105-0.073,0.205-0.154,0.298-0.244s0.19-0.17,0.293-0.244
	c0.104-0.073,0.24-0.109,0.413-0.109c0.192,0,0.359,0.07,0.502,0.209s0.214,0.305,0.214,0.497V9.47c0,0.1-0.035,0.184-0.104,0.253
	c-0.069,0.07-0.154,0.104-0.254,0.104c-0.133,0-0.219-0.037-0.258-0.109c-0.04-0.073-0.073-0.154-0.1-0.244
	s-0.062-0.172-0.104-0.249s-0.128-0.114-0.254-0.114c-0.152,0-0.25,0.048-0.293,0.144c-0.043,0.096-0.064,0.21-0.064,0.343v0.229
	c0,0.133,0.036,0.219,0.109,0.258c0.072,0.04,0.154,0.073,0.243,0.1c0.09,0.026,0.173,0.061,0.249,0.104
	c0.076,0.043,0.114,0.128,0.114,0.254c0,0.172-0.038,0.312-0.114,0.417s-0.159,0.207-0.249,0.303
	c-0.089,0.096-0.171,0.197-0.243,0.303c-0.073,0.106-0.109,0.242-0.109,0.408c0,0.1-0.035,0.184-0.104,0.253
	c-0.069,0.07-0.154,0.104-0.254,0.104c-0.099,0-0.184,0.035-0.253,0.104C17.035,12.507,17,12.592,17,12.691
	c-0.126,0-0.21-0.037-0.254-0.109c-0.043-0.073-0.077-0.155-0.104-0.244c-0.027-0.089-0.062-0.172-0.104-0.249
	s-0.128-0.114-0.254-0.114c-0.198,0-0.368,0.07-0.507,0.209c-0.14,0.139-0.209,0.308-0.209,0.507c-0.126,0-0.21-0.037-0.253-0.109
	c-0.043-0.073-0.078-0.155-0.104-0.244s-0.062-0.172-0.104-0.249s-0.128-0.114-0.254-0.114s-0.208,0.038-0.248,0.114
	s-0.073,0.159-0.1,0.249s-0.062,0.171-0.104,0.244c-0.043,0.072-0.127,0.109-0.253,0.109c0,0.191-0.038,0.336-0.114,0.432
	s-0.159,0.188-0.249,0.273c-0.089,0.086-0.171,0.189-0.243,0.309c-0.073,0.119-0.109,0.301-0.109,0.547v0.219
	c0,0.146-0.028,0.283-0.085,0.412c-0.056,0.129-0.134,0.244-0.233,0.343c-0.1,0.1-0.214,0.177-0.343,0.233s-0.267,0.085-0.413,0.085
	c-0.099,0-0.184-0.035-0.253-0.104C12.035,15.369,12,15.285,12,15.186v-1.073c0-0.192-0.071-0.359-0.214-0.502
	s-0.31-0.214-0.502-0.214s-0.359-0.069-0.502-0.209c-0.143-0.139-0.214-0.305-0.214-0.496c0-0.199,0.037-0.385,0.109-0.557
	c0.073-0.172,0.174-0.323,0.304-0.452c0.129-0.129,0.281-0.232,0.457-0.309c0.176-0.076,0.362-0.114,0.562-0.114v-0.179
	c-0.1,0.119-0.219,0.179-0.357,0.179c-0.1,0-0.185-0.035-0.254-0.104c-0.069-0.07-0.104-0.154-0.104-0.254
	c0-0.073,0.03-0.132,0.09-0.179s0.089-0.106,0.089-0.179c0-0.073-0.029-0.133-0.089-0.179s-0.09-0.106-0.09-0.179
	c0-0.126,0.036-0.21,0.109-0.253c0.073-0.043,0.154-0.078,0.243-0.104c0.09-0.026,0.173-0.06,0.249-0.1
	C11.962,9.689,12,9.603,12,9.47c0-0.1,0.035-0.184,0.104-0.253c0.069-0.07,0.154-0.104,0.253-0.104c0.1,0,0.185-0.035,0.254-0.104
	c0.069-0.069,0.104-0.154,0.104-0.253c0-0.099,0.035-0.184,0.104-0.253c0.069-0.069,0.154-0.104,0.253-0.104
	c0.06,0,0.109,0.014,0.149,0.04s0.078,0.058,0.114,0.094c0.036,0.037,0.076,0.068,0.119,0.095s0.095,0.04,0.154,0.04
	c0.066,0,0.112-0.01,0.139-0.03c0.027-0.02,0.061-0.046,0.1-0.08l0.03-0.02c0.053-0.046,0.116-0.081,0.188-0.104
	c0.073-0.023,0.141-0.046,0.204-0.07c0.063-0.023,0.117-0.058,0.164-0.104c0.046-0.046,0.069-0.119,0.069-0.219
	c0-0.125,0.036-0.21,0.109-0.253c0.073-0.043,0.154-0.076,0.243-0.099c0.09-0.023,0.171-0.055,0.244-0.095
	c0.072-0.04,0.109-0.125,0.109-0.258c0-0.1,0.034-0.184,0.104-0.253c0.069-0.07,0.153-0.104,0.253-0.104
	c0.173,0,0.31,0.037,0.413,0.109c0.103,0.073,0.2,0.154,0.293,0.244s0.192,0.17,0.298,0.244C16.679,7.645,16.821,7.681,17,7.681z
	 M18.874,13.422c-0.076-0.03-0.156-0.059-0.239-0.085c-0.082-0.026-0.15-0.065-0.203-0.119c-0.054-0.054-0.106-0.095-0.159-0.124
	c-0.053-0.03-0.119-0.045-0.199-0.045c-0.086,0-0.155,0.018-0.208,0.055c-0.054,0.036-0.104,0.076-0.149,0.119
	c-0.047,0.043-0.097,0.083-0.149,0.119c-0.053,0.037-0.122,0.055-0.209,0.055c-0.125,0-0.21-0.036-0.253-0.109
	c-0.043-0.072-0.078-0.154-0.104-0.243c-0.026-0.09-0.062-0.171-0.104-0.243c-0.043-0.073-0.128-0.109-0.253-0.109
	c-0.1,0-0.185,0.034-0.254,0.104c-0.069,0.07-0.104,0.154-0.104,0.254c0,0.146,0.028,0.283,0.085,0.412
	c0.056,0.129,0.134,0.242,0.233,0.338c0.1,0.097,0.214,0.173,0.343,0.229c0.129,0.057,0.267,0.085,0.412,0.085
	c0.087,0,0.156-0.019,0.209-0.055s0.103-0.077,0.149-0.124c0.046-0.047,0.096-0.088,0.149-0.125
	c0.053-0.035,0.122-0.055,0.208-0.055c0.087,0,0.156,0.02,0.209,0.055c0.053,0.037,0.103,0.078,0.149,0.125
	c0.046,0.047,0.096,0.088,0.148,0.124c0.054,0.036,0.123,0.055,0.209,0.055c0.1,0,0.185-0.034,0.254-0.104
	c0.069-0.069,0.104-0.154,0.104-0.254c0-0.092-0.026-0.164-0.08-0.213C19.015,13.491,18.95,13.451,18.874,13.422z M18.432,14.828
	h-0.358c-0.152,0-0.293,0.028-0.422,0.084c-0.13,0.057-0.242,0.133-0.338,0.229c-0.097,0.097-0.173,0.211-0.229,0.344
	C17.028,15.617,17,15.756,17,15.901c0,0.1,0.035,0.185,0.104,0.254s0.154,0.104,0.253,0.104c0.087,0,0.156-0.019,0.209-0.055
	c0.053-0.037,0.103-0.078,0.149-0.125c0.046-0.046,0.096-0.088,0.149-0.124c0.053-0.036,0.122-0.055,0.208-0.055
	c0.087,0,0.156,0.019,0.209,0.055s0.103,0.078,0.149,0.124c0.046,0.047,0.096,0.088,0.148,0.125
	c0.054,0.036,0.123,0.055,0.209,0.055c0.1,0,0.185-0.035,0.254-0.104s0.104-0.154,0.104-0.254v-0.357
	c0-0.199-0.07-0.368-0.209-0.507C18.799,14.897,18.63,14.828,18.432,14.828z M4.137,17.869l2.147-0.895v-1.431l-2.147,0.895V17.869z
	 M17,2.741l5,2.137V21.26l-5-2.147l-5,2.147l-5-2.147L2,21.26V4.878l5-2.137l5,2.137L17,2.741z M20.568,5.822L17,4.291l-5,2.147
	L7,4.291L3.422,5.822v3.966C3.428,9.669,3.47,9.591,3.546,9.555c0.076-0.036,0.157-0.066,0.243-0.089s0.166-0.055,0.239-0.095
	c0.072-0.04,0.108-0.125,0.108-0.258V8.725c0-0.125,0.007-0.252,0.021-0.378C4.17,8.221,4.202,8.108,4.252,8.009
	C4.301,7.91,4.372,7.83,4.465,7.771s0.223-0.089,0.388-0.089c0.173,0,0.31,0.038,0.413,0.114c0.103,0.076,0.2,0.159,0.293,0.249
	c0.093,0.089,0.192,0.17,0.298,0.243C5.963,8.36,6.105,8.396,6.284,8.396c0.133,0,0.221-0.036,0.264-0.109
	c0.043-0.073,0.076-0.154,0.1-0.243c0.022-0.09,0.055-0.172,0.094-0.249C6.781,7.719,6.867,7.681,7,7.681
	c0.179,0,0.321-0.037,0.428-0.109c0.105-0.073,0.205-0.154,0.298-0.244s0.19-0.17,0.293-0.244c0.104-0.073,0.24-0.109,0.413-0.109
	h1.421c0.192,0,0.359,0.07,0.502,0.209s0.214,0.305,0.214,0.497c0,0.179-0.038,0.321-0.114,0.427s-0.159,0.206-0.248,0.298
	c-0.09,0.093-0.171,0.192-0.244,0.298C9.89,8.811,9.853,8.947,9.853,9.112V9.47c0,0.1-0.034,0.184-0.104,0.253
	c-0.069,0.07-0.153,0.104-0.253,0.104c-0.093,0-0.164-0.021-0.214-0.065C9.231,9.72,9.195,9.667,9.172,9.604
	S9.134,9.472,9.127,9.396c-0.006-0.076-0.01-0.147-0.01-0.213c0-0.146,0.007-0.29,0.02-0.433C9.15,8.607,9.157,8.463,9.157,8.317
	c0-0.066-0.004-0.136-0.01-0.208c-0.007-0.073-0.023-0.141-0.05-0.204S9.034,7.789,8.988,7.746C8.941,7.703,8.875,7.681,8.789,7.681
	c-0.112,0-0.192,0.035-0.238,0.104c-0.047,0.07-0.08,0.158-0.1,0.264S8.416,8.271,8.406,8.396c-0.01,0.126-0.034,0.242-0.074,0.348
	S8.226,8.938,8.133,9.008C8.04,9.078,7.901,9.112,7.716,9.112H7.487c-0.119,0-0.23,0.02-0.333,0.06C7.052,9.212,7,9.311,7,9.47
	c0,0.1,0.035,0.184,0.104,0.253c0.069,0.07,0.154,0.104,0.253,0.104c0.126,0,0.211-0.037,0.254-0.109s0.078-0.154,0.104-0.244
	s0.06-0.172,0.1-0.249C7.854,9.15,7.941,9.112,8.073,9.112c0.1,0,0.185,0.035,0.254,0.104C8.396,9.286,8.432,9.371,8.432,9.47
	c0,0.126,0.036,0.21,0.109,0.253c0.072,0.043,0.154,0.078,0.243,0.104c0.09,0.026,0.171,0.061,0.244,0.104
	c0.072,0.043,0.108,0.127,0.108,0.253c0,0.093-0.034,0.175-0.104,0.249c-0.07,0.073-0.151,0.109-0.244,0.109
	c-0.152,0-0.293,0.028-0.422,0.084c-0.13,0.056-0.242,0.132-0.338,0.229C7.933,10.953,7.856,11.067,7.8,11.2
	c-0.056,0.133-0.084,0.272-0.084,0.417c0,0.1-0.035,0.184-0.104,0.253c-0.069,0.07-0.154,0.104-0.254,0.104
	c-0.132,0-0.218-0.036-0.258-0.109c-0.04-0.073-0.073-0.154-0.1-0.244c-0.026-0.089-0.062-0.172-0.104-0.249
	c-0.043-0.076-0.128-0.114-0.253-0.114c-0.1,0-0.185,0.035-0.254,0.104c-0.069,0.07-0.104,0.154-0.104,0.253
	c0,0.133,0.036,0.219,0.109,0.259c0.073,0.04,0.154,0.073,0.243,0.099c0.09,0.026,0.173,0.062,0.249,0.104S7,12.207,7,12.333
	c0,0.1,0.035,0.185,0.104,0.253c0.069,0.07,0.154,0.105,0.253,0.105h0.527c0.139,0,0.252,0.006,0.338,0.02s0.169,0.041,0.248,0.084
	c0.08,0.043,0.166,0.109,0.259,0.199s0.216,0.211,0.368,0.363l0.039,0.039C9.25,13.51,9.338,13.617,9.4,13.72
	c0.063,0.103,0.095,0.233,0.095,0.393c0,0.126-0.026,0.239-0.08,0.338c-0.053,0.1-0.119,0.194-0.198,0.283
	c-0.08,0.09-0.164,0.183-0.254,0.278c-0.089,0.096-0.174,0.203-0.253,0.318c-0.08,0.115-0.146,0.248-0.199,0.397
	s-0.079,0.327-0.079,0.532v0.715c-0.199,0-0.368-0.068-0.507-0.208c-0.14-0.14-0.209-0.309-0.209-0.507v-1.074
	c0-0.165-0.038-0.301-0.114-0.407s-0.159-0.207-0.249-0.304c-0.089-0.096-0.17-0.197-0.243-0.303S7,13.927,7,13.754v-0.357
	c0-0.066,0.019-0.109,0.055-0.129s0.078-0.037,0.124-0.05c0.047-0.013,0.088-0.03,0.124-0.05c0.037-0.02,0.055-0.06,0.055-0.119
	c0-0.1-0.034-0.184-0.104-0.254C7.184,12.726,7.1,12.691,7,12.691c-0.199,0-0.385-0.039-0.557-0.115
	C6.271,12.5,6.12,12.397,5.991,12.269c-0.129-0.129-0.232-0.28-0.309-0.453c-0.076-0.172-0.114-0.358-0.114-0.557V9.828
	c0-0.199-0.069-0.368-0.209-0.507C5.221,9.182,5.052,9.112,4.853,9.112c-0.172,0-0.31,0.038-0.412,0.114s-0.2,0.159-0.293,0.249
	S3.955,9.646,3.849,9.719C3.743,9.792,3.601,9.828,3.422,9.828v9.264L7,17.562l5,2.147l5-2.147l3.568,1.53V5.822z"/>
</svg>
