<svg version="1.1" id="master" xmlns="http://www.w3.org/2000/svg" xmlns:xlink="http://www.w3.org/1999/xlink"
	 x="0px" y="0px" width="24px" height="24px" viewBox="0 0 24 24" enable-background="new 0 0 24 24" xml:space="preserve">
<path d="M16.992,15.738c0.098-0.098,4.109-3.609,4.109-3.609l-0.684-0.293c-0.391-0.191-0.289-0.449-0.195-0.68
	c0.094-0.297,0.785-2.629,0.785-2.629s-1.863,0.391-2.254,0.488c-0.293,0.094-0.391-0.098-0.488-0.293S17.68,7.457,17.68,7.457
	s-2.055,2.34-2.152,2.434c-0.391,0.293-0.785,0-0.688-0.391c0-0.391,1.078-5.063,1.078-5.063s-1.176,0.68-1.566,0.875
	c-0.293,0.195-0.492,0.195-0.688-0.195C13.465,4.824,11.996,2,11.996,2s-1.465,2.824-1.66,3.117
	c-0.195,0.391-0.391,0.391-0.688,0.195C9.258,5.117,8.082,4.438,8.082,4.438S9.16,9.109,9.16,9.5
	c0.098,0.391-0.293,0.684-0.688,0.391C8.375,9.793,6.32,7.457,6.32,7.457S5.832,8.523,5.734,8.719S5.539,9.105,5.246,9.012
	C4.852,8.914,2.992,8.523,2.992,8.523s0.688,2.332,0.785,2.629c0.094,0.234,0.195,0.488-0.195,0.68l-0.684,0.297
	c0,0,4.008,3.512,4.109,3.609c0.199,0.195,0.391,0.293,0.199,0.879c-0.199,0.586-0.395,1.371-0.395,1.371s3.719-0.785,4.113-0.883
	c0.34-0.035,0.715,0.098,0.715,0.488S11.414,22,11.414,22h1.172c0,0-0.227-4.012-0.227-4.406s0.371-0.523,0.719-0.488
	c0.391,0.098,4.109,0.883,4.109,0.883s-0.195-0.785-0.391-1.371S16.797,15.934,16.992,15.738z"/>
</svg>
