<svg version="1.1" id="master" xmlns="http://www.w3.org/2000/svg" xmlns:xlink="http://www.w3.org/1999/xlink" x="0px" y="0px"
	 width="24px" height="24px" viewBox="0 0 24 24" enable-background="new 0 0 24 24" xml:space="preserve">
<path d="M20.559,18.154H3.442C2.646,18.154,2,17.509,2,16.712V7.287c0-0.796,0.646-1.441,1.442-1.441h17.117
	C21.354,5.846,22,6.491,22,7.287v9.424C22.001,17.508,21.355,18.153,20.559,18.154L20.559,18.154L20.559,18.154z M6.807,15.27v-3.75
	l1.923,2.405l1.922-2.405v3.75h1.923V8.731h-1.923L8.73,11.136L6.807,8.731H4.883v6.539L6.807,15.27z M19.692,12H17.77V8.73h-1.923
	V12h-1.923l2.885,3.366L19.692,12z"/>
</svg>
