<svg version="1.1" id="master" xmlns="http://www.w3.org/2000/svg" xmlns:xlink="http://www.w3.org/1999/xlink" x="0px" y="0px"
	 width="24px" height="24px" viewBox="0 0 24 24" enable-background="new 0 0 24 24" xml:space="preserve">
<rect fill="none" width="24" height="24"/>
<path d="M11.452,17.027c0.049,0.04,0.1,0.081,0.151,0.121c-0.981,0.652-2.158,1.031-3.423,1.031C4.767,18.181,2,15.414,2,12.001
	S4.767,5.82,8.18,5.82c1.265,0,2.442,0.381,3.42,1.032c-0.05,0.042-0.1,0.081-0.137,0.125C10,8.242,9.163,10.074,9.163,12.001
	C9.163,13.927,9.997,15.759,11.452,17.027z M15.82,5.82c-1.267,0-2.443,0.381-3.421,1.032c0.05,0.042,0.1,0.081,0.138,0.125
	c1.463,1.265,2.3,3.097,2.3,5.023c0,1.926-0.833,3.756-2.289,5.026c-0.048,0.04-0.1,0.081-0.151,0.121
	c0.98,0.652,2.157,1.031,3.423,1.031C19.233,18.181,22,15.414,22,12.001C22,8.589,19.233,5.82,15.82,5.82z M12,7.146
	c-0.08,0.063-0.157,0.125-0.233,0.192c-1.303,1.133-2.126,2.801-2.126,4.663c0,1.863,0.823,3.53,2.126,4.663
	c0.075,0.065,0.154,0.131,0.233,0.192c0.08-0.062,0.157-0.127,0.233-0.192c1.302-1.133,2.126-2.8,2.126-4.663
	c0-1.862-0.823-3.53-2.126-4.663C12.158,7.271,12.08,7.208,12,7.146z"/>
</svg>
