<svg version="1.1" id="master" xmlns="http://www.w3.org/2000/svg" xmlns:xlink="http://www.w3.org/1999/xlink" x="0px" y="0px"
	 width="24px" height="24px" viewBox="0 0 24 24" enable-background="new 0 0 24 24" xml:space="preserve">
<rect fill="none" width="24" height="24"/>
<path d="M19.342,4.676C17.602,2.939,15.479,2,13.685,2c-0.922,0-1.748,0.265-2.4,0.781C11.182,2.846,11.086,2.922,11,3.009
	c-1.512,1.51-3.994,4.443-3.994,7.17v3.92L6.67,14.434c-0.379,0.379-0.938,0.433-1.437,0.234c-1.208-0.481-2.579,0.106-3.062,1.314
	c-0.35,0.876-0.144,1.875,0.523,2.542c0.596,0.596,1.426,0.765,2.192,0.589c-0.176,0.766-0.007,1.595,0.59,2.191
	c0.918,0.924,2.411,0.927,3.334,0.009c0.67-0.667,0.877-1.67,0.526-2.548c-0.199-0.497-0.145-1.054,0.234-1.435l0.336-0.336h3.923
	c2.729,0,5.666-2.479,7.178-3.988c0.103-0.106,0.19-0.224,0.26-0.352C22.729,10.726,21.946,7.28,19.342,4.676z M19.683,11.682
	c-0.382,0.381-0.95,0.461-1.359,0.461c-1.356,0-3.015-0.814-4.327-2.127c-1.063-1.061-1.809-2.356-2.048-3.554
	c-0.185-0.925-0.046-1.701,0.38-2.127c0.379-0.379,0.947-0.459,1.356-0.459c1.356,0,3.016,0.815,4.329,2.127
	C20.117,8.104,20.63,10.734,19.683,11.682L19.683,11.682z M14.963,6.969c-0.383,0.383-0.229,1.159,0.347,1.733
	c0.575,0.574,1.352,0.729,1.735,0.346c0.383-0.383,0.229-1.158-0.347-1.733S15.347,6.586,14.963,6.969z"/>
</svg>
