<svg version="1.1" id="master" xmlns="http://www.w3.org/2000/svg" xmlns:xlink="http://www.w3.org/1999/xlink" x="0px" y="0px"
	 width="24px" height="24px" viewBox="0 0 24 24" enable-background="new 0 0 24 24" xml:space="preserve">
<rect fill="none" width="24" height="24"/>
<path d="M10.74,7.107l-2.7-4.5C7.814,2.23,7.407,2,6.968,2H2.626C2.121,2,1.824,2.569,2.114,2.983L6.46,9.193
	C7.621,8.108,9.098,7.364,10.74,7.107z M21.373,2h-4.341c-0.439,0-0.846,0.23-1.072,0.607l-2.7,4.5
	c1.643,0.256,3.118,1.001,4.28,2.085l4.346-6.209C22.176,2.569,21.88,2,21.373,2z M12,8.25c-3.797,0-6.875,3.078-6.875,6.875
	S8.203,22,12,22s6.875-3.078,6.875-6.875S15.797,8.25,12,8.25z M15.614,14.393l-1.482,1.443l0.351,2.041
	c0.063,0.365-0.322,0.645-0.649,0.473L12,17.386l-1.832,0.964c-0.328,0.173-0.713-0.107-0.65-0.473l0.35-2.041l-1.481-1.443
	c-0.267-0.259-0.119-0.711,0.248-0.765l2.048-0.298l0.915-1.857c0.083-0.167,0.242-0.25,0.401-0.25c0.161,0,0.321,0.083,0.404,0.25
	l0.916,1.857l2.048,0.298C15.733,13.682,15.88,14.134,15.614,14.393z"/>
</svg>
