<svg version="1.1" id="master" xmlns="http://www.w3.org/2000/svg" xmlns:xlink="http://www.w3.org/1999/xlink" x="0px" y="0px"
	 width="24px" height="24px" viewBox="0 0 24 24" enable-background="new 0 0 24 24" xml:space="preserve">
<rect fill="none" width="24" height="24"/>
<path d="M11.275,7.976c-0.414,0.35,2.453-0.381,2.167,1.033c-0.277,1.361-3.018-0.286-6.02-0.147
	c-1.328,0.061-2.544,0.442-3.321,1.39C4.913,9.329,6.519,9.549,6.1,10.185c-0.977,1.48-2.813,0.414-4.1,3.312
	c0.154-0.332,0.571-0.996,2.369-1.271c1.322-0.202,3.512-0.014,4.212,1.08c0.77,1.203-3.132,1.067-0.973,1.312
	c2.994,0.338,5.249,2.758,8.178,2.759c3.791,0,6.185-1.937,6.214-5.121C22.052,6.485,14.415,5.323,11.275,7.976z M16.915,14.271
	c-0.996-0.027-2.003-0.427-2.804-0.816c-1.971-0.962-2.781-1.294-2.781-1.339c0-0.056,1.184,0.403,3.177-0.658
	c1.153-0.613,1.194-1.147,2.408-1.254c1.442-0.126,2.47,0.942,2.47,2.065C19.385,13.392,18.365,14.312,16.915,14.271z"/>
</svg>
