<svg version="1.1" id="master" xmlns="http://www.w3.org/2000/svg" xmlns:xlink="http://www.w3.org/1999/xlink" x="0px" y="0px"
	 width="24px" height="24px" viewBox="0 0 24 24" enable-background="new 0 0 24 24" xml:space="preserve">
<path d="M5.75,20.75h12.5V7H17V5.125c0-1.036-0.84-1.875-1.875-1.875h-6.25C7.839,3.25,7,4.089,7,5.125V7H5.75V20.75z M9.5,5.75h5V7
	h-5V5.75z M22,8.875v10c0,1.035-0.84,1.875-1.875,1.875H19.5V7h0.625C21.16,7,22,7.839,22,8.875z M4.5,20.75H3.875
	C2.839,20.75,2,19.91,2,18.875v-10C2,7.839,2.839,7,3.875,7H4.5V20.75z M15.75,12.625v1.25c0,0.345-0.28,0.625-0.625,0.625H13.25
	v1.875c0,0.345-0.28,0.625-0.625,0.625h-1.25c-0.345,0-0.625-0.28-0.625-0.625V14.5H8.875c-0.345,0-0.625-0.28-0.625-0.625v-1.25
	C8.25,12.28,8.53,12,8.875,12h1.875v-1.875c0-0.345,0.28-0.625,0.625-0.625h1.25c0.345,0,0.625,0.28,0.625,0.625V12h1.875
	C15.47,12,15.75,12.28,15.75,12.625z"/>
</svg>
