<svg version="1.1" id="master" xmlns="http://www.w3.org/2000/svg" xmlns:xlink="http://www.w3.org/1999/xlink" x="0px" y="0px"
	 width="24px" height="24px" viewBox="0 0 24 24" enable-background="new 0 0 24 24" xml:space="preserve">
<rect fill="none" width="24" height="24"/>
<path d="M12,2C6.477,2,2,6.477,2,12s4.477,10,10,10s10-4.477,10-10S17.523,2,12,2z M17.192,15.537c0,0.171-0.139,0.309-0.31,0.31
	h-0.002h-1.306c-0.171,0.001-0.311-0.138-0.311-0.309c0-0.001,0-0.001,0-0.001v-4.024c0-0.033-0.038-0.05-0.066-0.027l-2.767,2.767
	c-0.24,0.237-0.627,0.237-0.869,0l-2.767-2.767c-0.022-0.022-0.066-0.006-0.066,0.027v4.024c0,0.171-0.138,0.309-0.309,0.31
	c-0.001,0-0.001,0-0.001,0H7.113c-0.171,0.001-0.31-0.138-0.31-0.309c0-0.001,0-0.001,0-0.001V8.464c0-0.171,0.138-0.31,0.31-0.31
	H8.01c0.165,0.002,0.322,0.067,0.438,0.184l3.442,3.442c0.057,0.06,0.152,0.062,0.212,0.005c0.001-0.002,0.002-0.003,0.004-0.005
	l3.441-3.442c0.117-0.117,0.271-0.184,0.438-0.184h0.896c0.171,0,0.31,0.139,0.31,0.31L17.192,15.537z"/>
</svg>
