<svg version="1.1" id="master" xmlns="http://www.w3.org/2000/svg" xmlns:xlink="http://www.w3.org/1999/xlink" x="0px" y="0px"
	 width="24px" height="24px" viewBox="0 0 24 24" enable-background="new 0 0 24 24" xml:space="preserve">
<rect fill="none" width="24" height="24"/>
<path d="M19.754,8.889l-0.537-0.537c-0.252-0.252-0.492-0.491-0.721-0.716S18.034,7.199,17.795,7
	c-0.238-0.199-0.492-0.388-0.76-0.566c-0.269-0.179-0.568-0.348-0.9-0.507c-0.205-0.119-0.445-0.224-0.721-0.313
	c-0.274-0.089-0.562-0.162-0.859-0.219c-0.298-0.056-0.593-0.099-0.885-0.129c-0.292-0.03-0.554-0.045-0.785-0.045
	c-0.266,0-0.547,0.017-0.845,0.05c-0.299,0.033-0.599,0.081-0.899,0.144c-0.302,0.063-0.594,0.144-0.875,0.244
	C9.983,5.757,9.727,5.874,9.495,6.006C9.383,6.079,9.27,6.142,9.157,6.195C9.044,6.248,8.932,6.311,8.819,6.384
	C8.415,6.629,8.034,6.92,7.676,7.258c-0.802,0.762-1.413,1.615-1.834,2.56s-0.631,1.973-0.631,3.086
	c0,0.822,0.131,1.624,0.393,2.406c0.262,0.781,0.635,1.504,1.118,2.166c0.305,0.418,0.647,0.813,1.029,1.184
	c0.381,0.371,0.76,0.735,1.138,1.094c0.357,0.351,0.749,0.664,1.173,0.939c0.424,0.274,0.868,0.51,1.332,0.705
	s0.944,0.345,1.441,0.447C13.332,21.949,13.829,22,14.326,22c0.669,0,1.323-0.09,1.963-0.269s1.243-0.429,1.81-0.751
	c0.566-0.32,1.09-0.709,1.57-1.162c0.48-0.454,0.893-0.956,1.237-1.506c0.345-0.551,0.613-1.141,0.806-1.77
	C21.904,15.913,22,15.258,22,14.574c0-1.119-0.178-2.147-0.532-3.081C21.113,10.559,20.542,9.69,19.754,8.889z M9.222,13.377
	c0.057-0.129,0.134-0.244,0.233-0.344c0.1-0.099,0.214-0.177,0.343-0.232c0.13-0.057,0.267-0.085,0.413-0.085
	c0.146,0,0.285,0.028,0.417,0.085c0.133,0.056,0.247,0.133,0.343,0.229c0.097,0.096,0.173,0.21,0.229,0.342
	c0.056,0.133,0.084,0.272,0.084,0.418c0,0.146-0.028,0.283-0.084,0.412c-0.057,0.13-0.135,0.244-0.234,0.344
	c-0.099,0.1-0.213,0.178-0.343,0.233c-0.129,0.056-0.267,0.085-0.412,0.085c-0.146,0-0.283-0.029-0.413-0.085
	c-0.129-0.056-0.243-0.134-0.343-0.233s-0.177-0.214-0.233-0.344c-0.057-0.129-0.085-0.266-0.085-0.412
	C9.137,13.644,9.165,13.506,9.222,13.377z M11.886,18.272c-0.076,0.173-0.179,0.323-0.309,0.452
	c-0.129,0.129-0.279,0.232-0.452,0.309c-0.172,0.076-0.357,0.113-0.557,0.113c-0.198,0-0.384-0.037-0.557-0.113
	c-0.172-0.076-0.323-0.18-0.452-0.309s-0.231-0.279-0.308-0.452c-0.077-0.173-0.115-0.358-0.115-0.557s0.038-0.384,0.115-0.557
	c0.076-0.173,0.179-0.323,0.308-0.452s0.28-0.232,0.452-0.309c0.173-0.076,0.358-0.114,0.557-0.114c0.199,0,0.385,0.038,0.557,0.114
	c0.173,0.076,0.323,0.18,0.452,0.309c0.13,0.129,0.232,0.279,0.309,0.452S12,17.518,12,17.716S11.962,18.1,11.886,18.272z
	 M15.484,19.918c-0.057,0.129-0.135,0.243-0.233,0.342c-0.1,0.1-0.214,0.178-0.344,0.234c-0.129,0.057-0.267,0.084-0.412,0.084
	s-0.283-0.027-0.413-0.084c-0.129-0.057-0.241-0.135-0.338-0.234c-0.096-0.099-0.172-0.213-0.229-0.342
	c-0.056-0.13-0.084-0.268-0.084-0.413s0.028-0.283,0.084-0.413c0.057-0.129,0.131-0.242,0.224-0.342s0.204-0.178,0.333-0.234
	c0.13-0.057,0.271-0.084,0.423-0.084c0.146,0,0.285,0.027,0.417,0.084c0.133,0.057,0.247,0.133,0.344,0.229
	c0.096,0.097,0.172,0.211,0.229,0.344c0.056,0.133,0.084,0.271,0.084,0.417S15.54,19.788,15.484,19.918z M16.17,15.42
	c-0.076,0.172-0.179,0.322-0.308,0.451c-0.13,0.13-0.28,0.23-0.453,0.304c-0.172,0.073-0.357,0.109-0.557,0.109
	c-0.198,0-0.384-0.036-0.557-0.109c-0.172-0.073-0.322-0.174-0.452-0.304c-0.129-0.129-0.23-0.279-0.303-0.451
	c-0.073-0.173-0.109-0.358-0.109-0.557c0-0.199,0.036-0.385,0.109-0.557c0.072-0.173,0.174-0.324,0.303-0.453
	c0.13-0.129,0.28-0.231,0.452-0.308c0.173-0.076,0.358-0.114,0.557-0.114c0.199,0,0.385,0.038,0.557,0.114
	c0.173,0.076,0.323,0.179,0.453,0.308c0.129,0.129,0.231,0.28,0.308,0.453c0.076,0.172,0.114,0.357,0.114,0.557
	C16.284,15.062,16.246,15.247,16.17,15.42z M19.063,17.771c-0.057,0.129-0.134,0.243-0.233,0.343s-0.214,0.178-0.343,0.233
	c-0.13,0.057-0.267,0.085-0.413,0.085c-0.152,0-0.293-0.028-0.422-0.085c-0.13-0.056-0.242-0.132-0.338-0.229
	c-0.097-0.096-0.173-0.208-0.229-0.338C17.028,17.65,17,17.51,17,17.357c0-0.145,0.028-0.283,0.085-0.412
	c0.056-0.129,0.134-0.244,0.233-0.343c0.1-0.1,0.214-0.177,0.343-0.233s0.267-0.085,0.412-0.085c0.146,0,0.283,0.028,0.413,0.085
	c0.129,0.057,0.243,0.134,0.343,0.233c0.1,0.099,0.177,0.214,0.233,0.343s0.085,0.268,0.085,0.412
	C19.147,17.504,19.119,17.641,19.063,17.771z M5.663,6.518C5.388,6.634,5.109,6.727,4.828,6.796C4.547,6.866,4.257,6.917,3.958,6.95
	C3.66,6.983,3.346,7,3.014,7C2.882,7,2.756,6.994,2.636,6.98C2.517,6.967,2.409,6.936,2.313,6.886
	c-0.097-0.05-0.173-0.123-0.229-0.219C2.028,6.571,2,6.443,2,6.284c0-0.159,0.03-0.287,0.09-0.383
	c0.06-0.096,0.139-0.169,0.238-0.218c0.1-0.05,0.212-0.083,0.338-0.1s0.255-0.025,0.388-0.025c0.073,0,0.143,0.002,0.209,0.005
	c0.066,0.003,0.143,0.005,0.229,0.005c0.318,0,0.63-0.041,0.935-0.124S5.023,5.25,5.305,5.111C5.587,4.972,5.855,4.808,6.11,4.619
	S6.605,4.23,6.831,4.018C7.176,3.687,7.509,3.395,7.83,3.143s0.654-0.462,0.999-0.631c0.345-0.169,0.714-0.296,1.108-0.382
	C10.332,2.043,10.777,2,11.274,2h2.157c0.192,0,0.359,0.071,0.502,0.214s0.214,0.31,0.214,0.502s-0.071,0.359-0.214,0.502
	s-0.31,0.214-0.502,0.214h-2.157c-0.418,0-0.789,0.04-1.113,0.119C9.836,3.63,9.535,3.746,9.257,3.898
	C8.979,4.051,8.711,4.238,8.456,4.46s-0.525,0.472-0.81,0.75l0.655,0.656C8.104,6,7.909,6.139,7.721,6.284
	C7.532,6.43,7.348,6.586,7.169,6.751L6.503,6.085C6.218,6.258,5.938,6.402,5.663,6.518z"/>
</svg>
