<svg version="1.1" id="master" xmlns="http://www.w3.org/2000/svg" xmlns:xlink="http://www.w3.org/1999/xlink" x="0px" y="0px"
	 width="24px" height="24px" viewBox="0 0 24 24" enable-background="new 0 0 24 24" xml:space="preserve">
<path d="M15.333,8.667H8.667v6.667h6.667V8.667z M13.111,13.111h-2.223v-2.223h2.223V13.111z M22,10.889V8.667h-2.223V6.444
	c0-1.222-1-2.222-2.222-2.222h-2.223V2h-2.222v2.222h-2.223V2H8.667v2.222H6.444c-1.222,0-2.222,1-2.222,2.222v2.222H2v2.222h2.222
	v2.223H2v2.222h2.222v2.223c0,1.222,1,2.222,2.222,2.222h2.222V22h2.222v-2.223h2.223V22h2.222v-2.223h2.223
	c1.222,0,2.222-1,2.222-2.222v-2.223H22v-2.222h-2.223v-2.223H22z M17.556,17.556H6.444V6.444h11.111V17.556z"/>
</svg>
