<svg version="1.1" id="master" xmlns="http://www.w3.org/2000/svg" xmlns:xlink="http://www.w3.org/1999/xlink" x="0px" y="0px"
	 width="24px" height="24px" viewBox="0 0 24 24" enable-background="new 0 0 24 24" xml:space="preserve">
<path d="M20.182,4.727C19.173,4.409,18.063,4.272,17,4.272c-1.772,0-3.682,0.363-5,1.363c-1.318-1-3.227-1.363-5-1.363
	S3.318,4.636,2,5.636v13.319c0,0.228,0.227,0.454,0.455,0.454c0.091,0,0.136-0.046,0.227-0.046c1.228-0.591,3-1,4.318-1
	c1.773,0,3.682,0.364,5,1.364c1.227-0.772,3.454-1.364,5-1.364c1.5,0,3.045,0.272,4.318,0.955c0.091,0.045,0.137,0.045,0.228,0.045
	c0.227,0,0.454-0.228,0.454-0.454V5.636C21.455,5.227,20.863,4.954,20.182,4.727z M20.182,17c-0.999-0.317-2.091-0.454-3.182-0.454
	c-1.546,0-3.773,0.591-5,1.363V7.454c1.227-0.772,3.454-1.363,5-1.363c1.091,0,2.183,0.136,3.182,0.454V17z M17,9.727
	c0.8,0,1.573,0.082,2.272,0.236V8.582C18.555,8.445,17.781,8.363,17,8.363c-1.546,0-2.945,0.264-4.091,0.755v1.509
	C13.937,10.045,15.364,9.727,17,9.727z M12.909,11.536v1.51c1.027-0.582,2.455-0.9,4.091-0.9c0.8,0,1.573,0.082,2.272,0.236V11
	c-0.718-0.137-1.491-0.219-2.272-0.219C15.454,10.781,14.055,11.055,12.909,11.536z M17,13.209c-1.546,0-2.945,0.264-4.091,0.755
	v1.509c1.027-0.582,2.455-0.899,4.091-0.899c0.8,0,1.573,0.081,2.272,0.235v-1.381C18.555,13.282,17.781,13.209,17,13.209z"/>
</svg>
