<svg version="1.1" id="master" xmlns="http://www.w3.org/2000/svg" xmlns:xlink="http://www.w3.org/1999/xlink" x="0px" y="0px"
	 width="24px" height="24px" viewBox="0 0 24 24" enable-background="new 0 0 24 24" xml:space="preserve">
<path d="M21.185,2.029c-1.512,0.453-4.367,1.339-7.331,2.394c-0.082-0.273-0.156-0.527-0.219-0.727
	c-0.117-0.379-0.543-0.555-0.895-0.371c-1.655,0.863-5.967,3.226-8.373,5.565C4.324,8.93,4.27,8.969,4.23,9.008
	C2.742,10.492,2,12.441,2,14.391c0,1.944,0.742,3.894,2.227,5.382c1.484,1.484,3.433,2.23,5.382,2.227
	c1.949,0,3.897-0.742,5.386-2.23c0.039-0.039,0.078-0.094,0.117-0.137c2.336-2.406,4.702-6.723,5.565-8.374
	c0.184-0.352,0.008-0.777-0.371-0.894c-0.203-0.063-0.453-0.137-0.727-0.219c1.055-2.968,1.941-5.819,2.395-7.331
	C22.114,2.329,21.669,1.884,21.185,2.029z M9.499,19.499c-2.761,0-4.999-2.237-4.999-4.999s2.238-5,4.999-5s4.999,2.238,4.999,5
	S12.26,19.499,9.499,19.499z M8.25,12C7.558,12,7,12.559,7,13.25s0.559,1.25,1.25,1.25c0.691,0,1.25-0.559,1.25-1.25
	S8.94,12,8.25,12z M10.124,15.749c-0.344,0-0.625,0.282-0.625,0.625c0,0.344,0.281,0.625,0.625,0.625s0.625-0.281,0.625-0.625
	C10.749,16.031,10.468,15.749,10.124,15.749z"/>
</svg>
