<svg version="1.1" id="master" xmlns="http://www.w3.org/2000/svg" xmlns:xlink="http://www.w3.org/1999/xlink" x="0px" y="0px"
	 width="24px" height="24px" viewBox="0 0 24 24" enable-background="new 0 0 24 24" xml:space="preserve">
<path d="M20.868,8.239c0.425-0.961,0.836-2.362,0.836-3.433c0-2.841-3.108-3.842-8.189-1.507c-4.204-0.281-8.249,2.876-9.261,7.284
	C5.458,9.221,7.312,7.368,9.019,6.63c-2.121,1.887-3.928,4.275-5.3,6.763C2.908,14.877,2,17.271,2,19.06
	c0,3.853,3.627,3.379,7.041,1.643c1.229,0.604,2.601,0.608,3.972,0.608c3.796,0,7.197-2.122,8.469-5.706h-4.719
	c-2.051,3.462-7.687,2.07-7.687-1.852h12.843C22.167,12.049,21.853,10.014,20.868,8.239z M4.522,15.55
	c0.691,1.998,2.098,3.744,3.917,4.815C4.972,22.277,1.67,21.503,4.522,15.55z M9.051,11.296c0.078-2.154,1.965-3.706,4.063-3.706
	c2.087,0,3.982,1.552,4.062,3.706H9.051z M16.262,3.969c0.835-0.402,1.896-0.86,2.834-0.86c1.229,0,2.119,0.848,2.119,2.099
	c0,0.781-0.291,1.914-0.568,2.65C19.618,6.207,18.068,4.671,16.262,3.969z"/>
</svg>
