<svg version="1.1" id="master" xmlns="http://www.w3.org/2000/svg" xmlns:xlink="http://www.w3.org/1999/xlink" x="0px" y="0px"
	 width="24px" height="24px" viewBox="0 0 24 24" enable-background="new 0 0 24 24" xml:space="preserve">
<rect fill="none" width="24" height="24"/>
<path d="M18.25,3.875v16.25c0,1.035-0.84,1.875-1.875,1.875h-8.75c-1.036,0-1.875-0.84-1.875-1.875V3.875
	C5.75,2.839,6.589,2,7.625,2h8.75C17.41,2,18.25,2.839,18.25,3.875z M22,6.141v0.469c0,0.129-0.105,0.234-0.234,0.234h-0.703v0.234
	c0,0.129-0.105,0.234-0.234,0.234h-1.641V5.438h1.641c0.129,0,0.234,0.105,0.234,0.234v0.234h0.703C21.895,5.906,22,6.011,22,6.141z
	 M22,9.891v0.469c0,0.129-0.105,0.234-0.234,0.234h-0.703v0.234c0,0.129-0.105,0.234-0.234,0.234h-1.641V9.188h1.641
	c0.129,0,0.234,0.105,0.234,0.234v0.234h0.703C21.895,9.656,22,9.761,22,9.891z M22,13.641v0.469c0,0.129-0.105,0.234-0.234,0.234
	h-0.703v0.234c0,0.129-0.105,0.234-0.234,0.234h-1.641v-1.875h1.641c0.129,0,0.234,0.105,0.234,0.234v0.234h0.703
	C21.895,13.406,22,13.512,22,13.641z M22,17.391v0.469c0,0.129-0.105,0.234-0.234,0.234h-0.703v0.234
	c0,0.129-0.105,0.234-0.234,0.234h-1.641v-1.875h1.641c0.129,0,0.234,0.105,0.234,0.234v0.234h0.703
	C21.895,17.156,22,17.262,22,17.391z M3.172,16.688h1.641v1.875H3.172c-0.129,0-0.234-0.105-0.234-0.234v-0.234H2.234
	C2.105,18.094,2,17.988,2,17.859v-0.469c0-0.129,0.105-0.234,0.234-0.234h0.703v-0.234C2.938,16.793,3.042,16.688,3.172,16.688z
	 M3.172,12.938h1.641v1.875H3.172c-0.129,0-0.234-0.105-0.234-0.234v-0.234H2.234C2.105,14.344,2,14.238,2,14.109v-0.469
	c0-0.129,0.105-0.234,0.234-0.234h0.703v-0.234C2.938,13.043,3.042,12.938,3.172,12.938z M3.172,9.188h1.641v1.875H3.172
	c-0.129,0-0.234-0.105-0.234-0.234v-0.234H2.234C2.105,10.594,2,10.489,2,10.359V9.891c0-0.129,0.105-0.234,0.234-0.234h0.703V9.422
	C2.938,9.292,3.042,9.188,3.172,9.188z M3.172,5.438h1.641v1.875H3.172c-0.129,0-0.234-0.105-0.234-0.234V6.844H2.234
	C2.105,6.844,2,6.739,2,6.609V6.141c0-0.129,0.105-0.234,0.234-0.234h0.703V5.672C2.938,5.542,3.042,5.438,3.172,5.438z"/>
</svg>
