<svg version="1.1" id="master" xmlns="http://www.w3.org/2000/svg" xmlns:xlink="http://www.w3.org/1999/xlink" x="0px" y="0px"
	 width="24px" height="24px" viewBox="0 0 24 24" enable-background="new 0 0 24 24" xml:space="preserve">
<path d="M21.956,10.487v2.994c0,0.115-0.042,0.215-0.124,0.298c-0.084,0.083-0.184,0.126-0.298,0.126h-0.649v-3.844h0.649
	c0.115,0,0.215,0.042,0.298,0.125C21.914,10.271,21.956,10.368,21.956,10.487z M21.533,14.349c0.115,0,0.215,0.042,0.298,0.124
	c0.083,0.083,0.123,0.184,0.123,0.298v3.006c0,0.115-0.04,0.215-0.123,0.3c-0.083,0.081-0.184,0.122-0.298,0.122h-0.648v-3.852
	h0.648V14.349z M21.533,5.773c0.115,0,0.223,0.043,0.32,0.125C21.951,5.983,22,6.083,22,6.198v2.995
	c0,0.122-0.051,0.226-0.146,0.305c-0.098,0.074-0.205,0.112-0.32,0.112h-1.074v9.236c0,0.113-0.044,0.2-0.131,0.275
	c-0.088,0.063-0.187,0.101-0.303,0.101h-5.587v-1.888h4.339v-0.901h-4.339v-1.061h4.339v-0.851h-4.339v-1.087h4.339v-0.838h-4.339
	v-1.062h4.339v-0.839h-4.339V9.61h4.339V8.76h-4.339V7.697h4.339V6.811h-4.339V4.699h5.738c0.015,0,0.063,0.037,0.142,0.112
	c0.079,0.078,0.127,0.175,0.142,0.287v0.676L21.533,5.773L21.533,5.773z M13.372,2.554v18.893L2,19.483V4.567L13.372,2.554
	L13.372,2.554z M10.127,8.153L8.793,8.241v2.482c-0.015,1.454-0.015,2.294,0,2.518l-2.658-4.85L4.777,8.445v6.88l1.062,0.086v-5.076
	l2.867,5.222l1.421,0.086L10.127,8.153L10.127,8.153z"/>
</svg>
