<svg version="1.1" id="master" xmlns="http://www.w3.org/2000/svg" xmlns:xlink="http://www.w3.org/1999/xlink" x="0px" y="0px"
	 width="24px" height="24px" viewBox="0 0 24 24" enable-background="new 0 0 24 24" xml:space="preserve">
<path d="M19.368,11.474h-1.789c0,0.779-0.168,1.506-0.452,2.158l1.294,1.294C19.011,13.895,19.368,12.727,19.368,11.474z
	 M15.138,11.652c0-0.063,0.021-0.115,0.021-0.179V5.158C15.158,3.41,13.748,2,12,2c-1.748,0-3.158,1.41-3.158,3.158v0.19
	L15.138,11.652z M3.863,3.053L2.526,4.39l6.326,6.326v0.758c0,1.748,1.4,3.158,3.147,3.158c0.231,0,0.463-0.031,0.685-0.085
	l1.748,1.748c-0.749,0.348-1.579,0.547-2.433,0.547c-2.905,0-5.579-2.21-5.579-5.368h-1.79c0,3.59,2.863,6.559,6.315,7.074V22h2.105
	v-3.452c0.958-0.138,1.862-0.475,2.674-0.947L20.138,22l1.336-1.336L3.863,3.053z"/>
</svg>
