<?xml version="1.0" encoding="utf-8"?>
<!-- Generator: Adobe Illustrator 16.0.0, SVG Export Plug-In . SVG Version: 6.00 Build 0)  -->
<!DOCTYPE svg PUBLIC "-//W3C//DTD SVG 1.1//EN" "http://www.w3.org/Graphics/SVG/1.1/DTD/svg11.dtd">
<svg version="1.1" id="master" xmlns="http://www.w3.org/2000/svg" xmlns:xlink="http://www.w3.org/1999/xlink" x="0px" y="0px"
	 width="24px" height="24px" viewBox="0 0 24 24" enable-background="new 0 0 24 24" xml:space="preserve">
<path d="M2.714,10.878c0.004-0.008,0.01-0.013,0.015-0.021c-0.001,0.009-0.003,0.014-0.003,0.021H2.714z M21.286,11.503
	c0-1.777-0.313-3.406-1.161-4.938C18.473,3.607,15.545,2,12.116,2c-5.644-0.011-8.802,4.243-9.389,8.856
	c1.71-2.471,4.721-4.893,8.886-5.038c0,0,4.421,0,4.009,4.232H8.532c0.256-1.508,0.747-2.378,1.384-3.183
	c-3.025,1.407-4.913,3.875-4.868,7.594c0.034,2.881,2.021,5.84,4.868,6.935c3.361,1.285,7.773,0.291,9.684-0.859v-4.209
	c-3.261,2.277-10.923,2.456-10.979-2.725h12.665V11.503L21.286,11.503z"/>
</svg>
