<svg version="1.1" id="master" xmlns="http://www.w3.org/2000/svg" xmlns:xlink="http://www.w3.org/1999/xlink" x="0px" y="0px"
	 width="24px" height="24px" viewBox="0 0 24 24" enable-background="new 0 0 24 24" xml:space="preserve">
<rect fill="none" width="24" height="24"/>
<path d="M12,14.632c1.748,0,3.146-1.41,3.146-3.158l0.012-6.316C15.158,3.41,13.748,2,12,2c-1.748,0-3.158,1.41-3.158,3.158v6.316
	C8.842,13.222,10.252,14.632,12,14.632z M17.578,11.474c0,3.158-2.674,5.368-5.578,5.368c-2.905,0-5.579-2.21-5.579-5.368h-1.79
	c0,3.6,2.863,6.559,6.316,7.074V22h2.105v-3.452c3.451-0.506,6.316-3.475,6.316-7.074H17.578z"/>
</svg>
