<svg version="1.1" id="master" xmlns="http://www.w3.org/2000/svg" xmlns:xlink="http://www.w3.org/1999/xlink" x="0px" y="0px"
	 width="24px" height="24px" viewBox="0 0 24 24" enable-background="new 0 0 24 24" xml:space="preserve">
<path d="M21.627,4.585h-6.699v1.24h1.975v1.962h-1.975v0.625h1.975v1.964h-1.975v0.643h1.975v1.857h-1.975v0.743h1.975v1.862h-1.975
	v0.744h1.975v1.873h-1.975v1.365h6.699c0.106-0.031,0.195-0.156,0.266-0.373c0.07-0.218,0.107-0.396,0.107-0.53V4.812
	c0-0.106-0.037-0.171-0.107-0.193C21.822,4.597,21.733,4.585,21.627,4.585z M20.758,18.097h-3.214v-1.871h3.214v1.873V18.097z
	 M20.758,15.481h-3.214v-1.862h3.214V15.481z M20.758,12.875h-3.214v-1.849h3.214v1.851V12.875z M20.758,10.375h-3.214V8.413h3.214
	V10.375L20.758,10.375z M20.758,7.776h-3.214v-1.95h3.214v1.962V7.776z M2,4.276v15.5l11.8,2.041V2.183L2,4.283V4.276z
	 M8.994,16.002c-0.045-0.122-0.257-0.639-0.632-1.553c-0.374-0.914-0.6-1.445-0.666-1.597H7.676L6.41,15.865l-1.691-0.114
	l2.006-3.75l-1.838-3.75L6.613,8.16l1.14,2.935h0.023l1.287-3.068l1.782-0.112l-2.122,4.059l2.188,4.141L8.994,16V16.002z"/>
</svg>
