<svg version="1.1" id="master" xmlns="http://www.w3.org/2000/svg" xmlns:xlink="http://www.w3.org/1999/xlink" x="0px" y="0px"
	 width="24px" height="24px" viewBox="0 0 24 24" enable-background="new 0 0 24 24" xml:space="preserve">
<rect fill="none" width="24" height="24"/>
<path d="M8.25,14.5h0.469v0.625c0,0.345,0.279,0.625,0.625,0.625h1.563c0.346,0,0.625-0.28,0.625-0.625V14.5H12
	c0.69,0,1.25-0.56,1.25-1.25V4.5c0-0.69-0.56-1.25-1.25-1.25V2.625C12,2.279,11.721,2,11.375,2h-2.5C8.529,2,8.25,2.279,8.25,2.625
	V3.25C7.56,3.25,7,3.81,7,4.5v8.75C7,13.94,7.56,14.5,8.25,14.5z M20.125,19.5h-0.051c1.193-1.328,1.926-3.078,1.926-5
	c0-4.136-3.364-7.5-7.5-7.5v2.5c2.757,0,5,2.243,5,5c0,2.757-2.243,5-5,5H3.875C2.839,19.5,2,20.34,2,21.375
	C2,21.72,2.279,22,2.625,22h18.75C21.72,22,22,21.72,22,21.375C22,20.34,21.16,19.5,20.125,19.5z M6.063,18.25h8.125
	c0.173,0,0.313-0.14,0.313-0.313v-0.625C14.5,17.14,14.36,17,14.188,17H6.063C5.89,17,5.75,17.14,5.75,17.313v0.625
	C5.75,18.11,5.89,18.25,6.063,18.25z"/>
</svg>
