<svg version="1.1" id="master" xmlns="http://www.w3.org/2000/svg" xmlns:xlink="http://www.w3.org/1999/xlink" x="0px" y="0px"
	 width="24px" height="24px" viewBox="0 0 24 24" enable-background="new 0 0 24 24" xml:space="preserve">
<path d="M22,5.11v13.789c0,0.118-0.041,0.214-0.124,0.289c-0.084,0.079-0.184,0.115-0.3,0.115h-7.132v-1.913h5.817v-0.87h-5.823
	v-1.066h5.818v-0.869h-5.814v-1.076h5.817v-0.859h-5.817v-1.078h5.817v-0.87h-5.817V9.636h5.817V8.767h-5.817V7.679h5.817V6.851
	h-5.817V4.689h7.136c0.124,0,0.225,0.04,0.298,0.124C21.964,4.896,22.001,4.997,22,5.11z M13.376,2.533V21.47L2,19.501V4.556
	L13.376,2.53V2.533z M11.659,8.124l-1.424,0.087l-0.913,5.655H9.3c-0.045-0.268-0.212-1.204-0.513-2.807L8.255,8.341L6.918,8.407
	L6.383,11.06c-0.313,1.546-0.487,2.444-0.532,2.696H5.838L5.026,8.548L3.801,8.613l1.313,6.569l1.362,0.088l0.513-2.558
	c0.3-1.5,0.475-2.372,0.513-2.609h0.037c0.051,0.254,0.213,1.145,0.513,2.675l0.513,2.632l1.475,0.088l1.65-7.376h-0.029V8.124z"/>
</svg>
