<svg version="1.1" id="master" xmlns="http://www.w3.org/2000/svg" xmlns:xlink="http://www.w3.org/1999/xlink" x="0px" y="0px"
	 width="24px" height="24px" viewBox="0 0 24 24" enable-background="new 0 0 24 24" xml:space="preserve">
<rect fill="none" width="24" height="24"/>
<path d="M22,8.156v8.731c0,0.192-0.066,0.354-0.198,0.48c-0.132,0.128-0.293,0.19-0.483,0.19h-7.123V11.76l1.333,1.024
	c0.086,0.07,0.191,0.104,0.316,0.104c0.123,0,0.23-0.034,0.324-0.105L22,8.156z M14.195,6.472h7.123c0.176,0,0.328,0.053,0.452,0.16
	c0.125,0.106,0.195,0.25,0.207,0.425l-6.142,4.896l-1.641-1.29V6.472z M13.17,2.721v18.559L2,19.349V4.703l11.172-1.982H13.17z
	 M9.796,12.037c-0.017-0.944-0.261-1.727-0.732-2.346c-0.463-0.616-1.063-0.942-1.776-0.97c-0.687,0.027-1.274,0.353-1.75,0.97
	c-0.475,0.619-0.712,1.402-0.725,2.346c0.013,0.931,0.263,1.705,0.737,2.325c0.476,0.617,1.062,0.944,1.751,0.979
	c0.712-0.028,1.312-0.353,1.788-0.975c0.475-0.623,0.725-1.399,0.738-2.33H9.796z M7.196,9.969c0.359,0.017,0.662,0.213,0.902,0.597
	c0.238,0.385,0.363,0.871,0.363,1.461c0,0.601-0.124,1.089-0.363,1.475c-0.25,0.387-0.55,0.587-0.913,0.587
	s-0.663-0.188-0.913-0.574c-0.25-0.388-0.362-0.876-0.362-1.462c0-0.588,0.112-1.076,0.362-1.45
	c0.237-0.375,0.538-0.575,0.901-0.601L7.196,9.969z"/>
</svg>
