<svg version="1.1" id="icon_microsoftedge" xmlns="http://www.w3.org/2000/svg" xmlns:xlink="http://www.w3.org/1999/xlink" x="0px"
	 y="0px" width="24px" height="24px" viewBox="0 0 24 24" enable-background="new 0 0 24 24" xml:space="preserve">
<path d="M2.714,10.878c0.005-0.007,0.01-0.013,0.014-0.02c-0.001,0.007-0.002,0.013-0.002,0.02H2.714z M21.286,11.503
	c0-1.776-0.313-3.406-1.161-4.936C18.472,3.608,15.545,2,12.116,2c-5.643-0.011-8.802,4.243-9.389,8.858
	c1.711-2.472,4.721-4.894,8.887-5.039c0,0,4.421,0,4.009,4.232H8.532C8.789,8.543,9.28,7.673,9.916,6.869
	c-3.025,1.407-4.912,3.875-4.868,7.593c0.034,2.881,2.021,5.84,4.868,6.935c3.362,1.284,7.774,0.291,9.684-0.86v-4.209
	c-3.261,2.277-10.923,2.456-10.979-2.725h12.665V11.503L21.286,11.503z"/>
</svg>
