<svg version="1.1" id="master" xmlns="http://www.w3.org/2000/svg" xmlns:xlink="http://www.w3.org/1999/xlink" x="0px" y="0px"
	 width="24px" height="24px" viewBox="0 0 24 24" enable-background="new 0 0 24 24" xml:space="preserve">
<rect fill="none" width="24" height="24"/>
<path d="M22,14.517c-0.042,0.45-0.645,0.812-1.805,1.074c-1.159,0.267-2.614,0.399-4.365,0.399c-0.518,0-1.015-0.008-1.488-0.022
	v2.736c0.474,0.027,0.971,0.044,1.488,0.044c1.744-0.017,3.199-0.171,4.361-0.469c1.161-0.299,1.767-0.674,1.809-1.126V14.517z
	 M15.807,12.544c-0.503,0-0.999-0.015-1.486-0.043l0.021,2.787c0.475,0.014,0.969,0.025,1.488,0.025
	c1.749-0.013,3.206-0.162,4.365-0.463c1.16-0.288,1.763-0.662,1.804-1.112V11.05c-0.042,0.453-0.646,0.815-1.815,1.088
	c-1.165,0.275-2.625,0.412-4.378,0.412L15.807,12.544L15.807,12.544z M15.807,9.108c-0.503,0-0.999-0.016-1.486-0.044v2.779
	c0.487,0.029,0.984,0.044,1.486,0.044c1.751-0.016,3.213-0.169,4.379-0.463c1.167-0.295,1.772-0.669,1.814-1.122V7.632
	c-0.042,0.454-0.646,0.813-1.814,1.079C19.02,8.975,17.56,9.11,15.807,9.11V9.108z M15.807,5.252c-0.503,0-0.999,0.021-1.486,0.064
	v3.081c0.487,0.028,0.984,0.042,1.486,0.042c1.751-0.013,3.213-0.166,4.379-0.457c1.168-0.29,1.772-0.667,1.814-1.125
	c-0.042-0.452-0.646-0.83-1.814-1.13c-1.166-0.3-2.626-0.45-4.379-0.463V5.252z M7.395,9.592c-0.027,0.165-0.142,0.687-0.343,1.563
	l-0.375,1.529l1.5,0.021l-0.35-1.53C7.613,10.284,7.476,9.75,7.451,9.6h-0.05L7.395,9.592z M2,4.627v14.799l11.287,1.948V2.625
	L2,4.627z M8.903,15.655l-0.42-1.668l-2.078-0.075l-0.399,1.572L4.68,15.396l2.016-7.063l1.542-0.086l2.199,7.496l-1.538-0.088
	H8.903z"/>
</svg>
