<?xml version="1.0" encoding="utf-8"?>
<!-- Generator: Adobe Illustrator 16.0.0, SVG Export Plug-In . SVG Version: 6.00 Build 0)  -->
<!DOCTYPE svg PUBLIC "-//W3C//DTD SVG 1.1//EN" "http://www.w3.org/Graphics/SVG/1.1/DTD/svg11.dtd">
<svg version="1.1" id="master" xmlns="http://www.w3.org/2000/svg" xmlns:xlink="http://www.w3.org/1999/xlink" x="0px" y="0px"
	 width="24px" height="24px" viewBox="0 0 24 24" enable-background="new 0 0 24 24" xml:space="preserve">
<path d="M20.869,8.239c0.425-0.96,0.836-2.361,0.836-3.433c0-2.841-3.109-3.842-8.189-1.507c-4.205-0.281-8.25,2.877-9.262,7.284
	c1.205-1.362,3.058-3.215,4.765-3.952c-2.12,1.886-3.928,4.275-5.3,6.764C2.908,14.877,2,17.271,2,19.061
	c0,3.852,3.627,3.379,7.041,1.642c1.228,0.604,2.6,0.608,3.973,0.608c3.795,0,7.197-2.121,8.469-5.705h-4.719
	c-2.052,3.461-7.688,2.07-7.688-1.853h12.844C22.168,12.05,21.854,10.014,20.869,8.239z M4.522,15.55
	c0.692,1.999,2.098,3.745,3.917,4.816C4.972,22.277,1.67,21.504,4.522,15.55z M9.052,11.297c0.078-2.154,1.964-3.706,4.063-3.706
	c2.086,0,3.982,1.551,4.062,3.706H9.052z M16.262,3.969c0.836-0.402,1.896-0.86,2.834-0.86c1.228,0,2.12,0.848,2.12,2.099
	c0,0.781-0.291,1.914-0.569,2.651C19.619,6.207,18.068,4.672,16.262,3.969z"/>
</svg>
