<svg version="1.1" id="master" xmlns="http://www.w3.org/2000/svg" xmlns:xlink="http://www.w3.org/1999/xlink" x="0px" y="0px"
	 width="24px" height="24px" viewBox="0 0 24 24" enable-background="new 0 0 24 24" xml:space="preserve">
<rect fill="none" width="24" height="24"/>
<path d="M21.57,5.334h-7.119v2.654c0.43-0.325,0.944-0.489,1.546-0.489v2.581h2.563c-0.014,0.725-0.263,1.335-0.751,1.828
	c-0.486,0.493-1.099,0.746-1.823,0.763c-0.563-0.017-1.075-0.186-1.524-0.513v1.773h5.599v0.872h-5.601v1.077h5.596v0.86h-5.599
	v1.95h7.119c0.288,0,0.425-0.151,0.425-0.448V5.759c0-0.285-0.137-0.425-0.425-0.425H21.57z M16.399,9.655V7.052
	c0.726,0.017,1.334,0.269,1.823,0.759c0.489,0.489,0.743,1.104,0.756,1.845H16.399z M8.88,9.698
	C8.836,9.531,8.764,9.401,8.661,9.306c-0.1-0.094-0.235-0.162-0.403-0.205C8.071,9.05,7.878,9.025,7.683,9.025l-0.6,0.012v2.499
	h0.021c0.218,0.014,0.446,0.014,0.688,0c0.237-0.013,0.462-0.075,0.674-0.188c0.261-0.188,0.417-0.438,0.468-0.762
	c0.05-0.326,0.033-0.639-0.053-0.926L8.88,9.698L8.88,9.698z M2,4.55v14.954l11.406,1.971V2.525L2,4.55z M10.511,11.288
	c-0.313,0.725-0.779,1.188-1.403,1.388c-0.624,0.199-1.298,0.276-2.024,0.232v2.852l-1.501-0.174V7.751l2.383-0.124
	C8.407,7.6,8.843,7.647,9.27,7.777c0.429,0.126,0.768,0.382,1.019,0.768c0.25,0.385,0.391,0.83,0.425,1.338
	C10.745,10.39,10.678,10.859,10.511,11.288z"/>
</svg>
