<svg version="1.1" id="master" xmlns="http://www.w3.org/2000/svg" xmlns:xlink="http://www.w3.org/1999/xlink" x="0px" y="0px"
	 width="24px" height="24px" viewBox="0 0 24 24" enable-background="new 0 0 24 24" xml:space="preserve">
<path d="M6.1,16.636C5.684,16.89,5.217,17.017,4.7,17.017c-0.767-0.024-1.4-0.289-1.906-0.793C2.289,15.723,2.026,15.084,2,14.321
	c0.013-0.718,0.243-1.328,0.692-1.827c0.45-0.5,1.021-0.789,1.715-0.874c-0.025-0.148-0.035-0.307-0.035-0.472
	c0.025-0.95,0.35-1.737,0.975-2.35c0.628-0.612,1.417-0.938,2.368-0.962c0.599,0,1.137,0.137,1.611,0.425
	c0.4-0.639,0.914-1.162,1.551-1.55c0.649-0.387,1.375-0.587,2.174-0.601c1.075,0.025,1.987,0.364,2.762,1.013
	c0.774,0.65,1.263,1.487,1.463,2.525h-0.237c-0.388,0-0.725,0.05-1.025,0.161c-0.398-0.425-0.862-0.748-1.387-0.974
	c-0.512-0.226-1.074-0.325-1.675-0.325c-0.55,0-1.075,0.087-1.575,0.274c-0.5,0.188-0.95,0.449-1.35,0.8
	c-0.35,0.3-0.637,0.639-0.875,1.024c-0.238,0.387-0.4,0.8-0.487,1.237c-0.3,0.063-0.588,0.149-0.851,0.262
	c-0.425,0.199-0.786,0.475-1.074,0.838c-0.275,0.313-0.488,0.676-0.625,1.087c-0.137,0.414-0.213,0.839-0.213,1.288
	c0,0.5,0.076,0.963,0.25,1.388L6.1,16.636z M20.139,13.512c1.313,0.326,1.932,1.101,1.854,2.318
	c-0.077,1.219-0.786,1.905-2.13,2.059H9.25c-1.753-0.23-2.615-1.137-2.585-2.718c0.028-1.589,0.92-2.463,2.675-2.613
	c0.229-1.7,1.097-2.75,2.6-3.15c1.504-0.411,2.784,0.051,3.842,1.4c0.364-0.3,0.821-0.425,1.375-0.388
	c0.557,0.037,1.028,0.151,1.414,0.363c0.499,0.262,0.899,0.638,1.163,1.113c0.261,0.474,0.399,1.013,0.399,1.6L20.139,13.512z"/>
</svg>
