<svg version="1.1" id="master" xmlns="http://www.w3.org/2000/svg" xmlns:xlink="http://www.w3.org/1999/xlink" x="0px" y="0px"
	 width="24px" height="24px" viewBox="0 0 24 24" enable-background="new 0 0 24 24" xml:space="preserve">
<path d="M17.626,18.251h-12.5c-0.344,0-0.625,0.281-0.625,0.625v2.5C4.501,21.719,4.782,22,5.126,22h12.5
	c0.343,0,0.625-0.281,0.625-0.624v-2.5C18.251,18.532,17.969,18.251,17.626,18.251z M19.853,10.083
	c-1.063-0.883-2.637-0.742-3.52,0.32l-0.816,0.977L14.36,6.364c-0.703-3.027-3.727-4.917-6.75-4.218S2.697,5.864,3.396,8.891
	l1.872,8.11h12.07l2.832-3.398C21.055,12.54,20.911,10.965,19.853,10.083z"/>
</svg>
