<svg version="1.1" id="master" xmlns="http://www.w3.org/2000/svg" xmlns:xlink="http://www.w3.org/1999/xlink" x="0px" y="0px"
	 width="24px" height="24px" viewBox="0 0 24 24" enable-background="new 0 0 24 24" xml:space="preserve">
<rect fill="none" width="24" height="24"/>
<path d="M4.046,3.146C3.537,3.147,3.047,3.338,2.671,3.681C1.888,4.403,1.824,5.623,2.46,6.483l4.098,5.492l-4.122,5.542
	c-0.635,0.86-0.585,2.08,0.211,2.803c0.833,0.762,2.124,0.703,2.885-0.13c0.046-0.05,0.089-0.103,0.13-0.157l5.753-7.733
	c0.137-0.189,0.137-0.446,0-0.635l-5.73-7.696C5.301,3.448,4.692,3.142,4.046,3.146z M19.953,3.146
	c-0.646-0.003-1.255,0.302-1.64,0.822l-5.717,7.684c-0.137,0.189-0.137,0.445,0,0.635l5.742,7.747
	c0.674,0.904,1.953,1.091,2.856,0.417c0.056-0.041,0.107-0.084,0.158-0.13c0.796-0.723,0.846-1.942,0.211-2.803l-4.122-5.542
	l4.098-5.492c0.635-0.86,0.571-2.08-0.213-2.802C20.951,3.338,20.461,3.147,19.953,3.146L19.953,3.146z"/>
</svg>
