<svg version="1.1" id="master" xmlns="http://www.w3.org/2000/svg" xmlns:xlink="http://www.w3.org/1999/xlink" x="0px" y="0px"
	 width="24px" height="24px" viewBox="0 0 24 24" enable-background="new 0 0 24 24" xml:space="preserve">
<path d="M16.318,9.932c-1.053-4.633-3.535-6.156-3.802-6.738C12.223,2.782,11.905,2,11.905,2c-0.002,0.016-0.003,0.026-0.004,0.041
	v0.011h0c-0.002,0.013-0.002,0.021-0.003,0.032v0.013h-0.001c0,0.008-0.002,0.015-0.002,0.021V2.14h-0.002
	c0,0.006,0,0.015-0.002,0.021v0.018h-0.002c0,0.006,0,0.013-0.001,0.018v0.017h-0.001c0,0.008-0.001,0.018-0.002,0.027v0.001
	c-0.002,0.014-0.005,0.029-0.007,0.042v0.007h-0.001c-0.001,0.003-0.003,0.007-0.003,0.01v0.015h-0.002v0.018h-0.004v0.015h-0.004
	v0.018h-0.003V2.38h-0.004v0.015h-0.005v0.011h-0.003v0.015h-0.003v0.012h-0.004v0.011h-0.003v0.012h-0.003
	C11.83,2.457,11.83,2.458,11.83,2.459v0.009h-0.002c0,0.001,0,0.003,0,0.005v0.005h-0.002c0,0.002-0.001,0.007-0.001,0.008
	c-0.002,0.006-0.006,0.012-0.008,0.018v0.001c-0.002,0.002-0.003,0.004-0.004,0.006v0.007h-0.003v0.006h-0.004v0.007h-0.003v0.008
	h-0.005v0.012h-0.003v0.003H11.79v0.006h-0.003v0.01h-0.003v0.006h-0.005v0.009h-0.003v0.006h-0.004v0.007h-0.002v0.008h-0.004
	v0.007H11.76v0.005h-0.003v0.007h-0.005v0.007h-0.003v0.005h-0.004v0.006h-0.003v0.009h-0.004v0.003h-0.002v0.006h-0.005v0.003
	h-0.003v0.008h-0.003v0.003H11.72v0.007h-0.004v0.005h-0.002l-0.002,0.003v0.003h-0.001c-0.001,0.002-0.001,0.002-0.001,0.003v0.001
	h-0.001c-0.001,0.002-0.001,0.004-0.003,0.006V2.71h0c-0.004,0.005-0.007,0.01-0.01,0.015v0.001
	c-0.002,0.001-0.006,0.005-0.007,0.008v0.002h-0.001c-0.001,0-0.002,0.001-0.002,0.002v0.003h-0.001l-0.003,0.002v0.001h-0.001
	c0,0.001-0.001,0.002-0.002,0.003v0.003h-0.002L11.67,2.752v0.001h-0.001c0,0.002-0.002,0.002-0.002,0.003v0.002h-0.003
	c0,0.001-0.001,0.001-0.002,0.002v0.005h-0.002V2.77h-0.003v0.005h-0.003v0.006h-0.004V2.775h-0.004v0.003h-0.003v0.005h-0.004V2.79
	h-0.004v0.003H11.63v0.005h-0.004v0.003h-0.003v0.007h-0.005v0.003h-0.003v0.005H11.61V2.82h-0.003v0.004h-0.004v0.008h-0.002v0.003
	h-0.005V2.84h-0.003v0.001h-0.003v0.004h-0.004v0.008h-0.003v0.003h-0.004V2.86h-0.004v0.005H11.57v0.003h-0.004v0.003h-0.003v0.003
	H11.56v0.008h-0.003v0.004h-0.005v0.003h-0.003v0.004h-0.004v0.005H11.54v0.003h-0.004v0.006h-0.003v0.003h-0.005v0.005h-0.001V2.92
	h-0.004v0.003h-0.004v0.003h-0.003v0.005h-0.004v0.003h-0.002c-0.001,0.001-0.001,0.001-0.001,0.001v0.002h-0.001l-0.003,0.003
	c0,0-0.002,0.002-0.003,0.002v0.005h-0.003v0.004h-0.003v0.003H11.49V2.96h-0.003l-0.002,0.002v0.003h-0.001l-0.002,0.001v0.002
	h-0.001c-0.004,0.005-0.006,0.008-0.012,0.013c-0.001,0.002-0.006,0.006-0.01,0.008c-0.01,0.006-0.023,0.018-0.033,0.027
	c-0.007,0.004-0.013,0.01-0.018,0.014v0.001h-0.001c-0.013,0.011-0.026,0.021-0.041,0.032v0c-0.02,0.017-0.039,0.033-0.062,0.052v0
	h-0.001c-0.048,0.04-0.098,0.083-0.155,0.132V3.25h0c-0.141,0.123-0.309,0.282-0.496,0.473l-0.012,0.013l-0.004,0.003
	c-1.133,1.172-2.919,3.616-3.107,7.564c-0.017,0.327-0.013,0.644,0.005,0.954v0.007c0.091,1.555,0.579,2.883,1.19,3.963v0.001
	c0.243,0.43,0.505,0.82,0.771,1.17V17.4c0.918,1.213,1.855,1.931,2.095,2.104c0.368,0.853,0.333,2.316,0.333,2.316L12.458,22
	c0,0-0.109-1.418,0.044-2.102c0.048-0.215,0.16-0.396,0.291-0.552c0.088-0.063,0.351-0.25,0.664-0.538
	c0.015-0.015,0.023-0.029,0.037-0.044C14.762,17.583,17.13,14.673,16.318,9.932z"/>
</svg>
