<svg version="1.1" id="master" xmlns="http://www.w3.org/2000/svg" xmlns:xlink="http://www.w3.org/1999/xlink"
	 x="0px" y="0px" width="24px" height="24px" viewBox="0 0 24 24" enable-background="new 0 0 24 24" xml:space="preserve">
<path d="M19.171,12.351C18.545,12.758,17.801,13,17,13c-1.771,0-3.26-1.165-3.784-2.762C10.216,11.028,8,13.751,8,17v1
	c-0.551,0-1-0.448-1-1V9.5C7,8.122,5.878,7,4.5,7S2,8.122,2,9.5V11c0,0.552,0.448,1,1,1c0.552,0,1-0.448,1-1V9.5
	C4,9.224,4.224,9,4.5,9S5,9.224,5,9.5V17c0,1.654,1.346,3,3,3h7.5c0.276,0,0.5-0.224,0.5-0.5V19c0-0.553-0.447-1-1-1h-2l4.865-3.244
	l1.083,3.252L19,18.323V19.5c0,0.276,0.224,0.5,0.5,0.5h1c0.276,0,0.5-0.224,0.5-0.5v-1.175c0-0.324-0.053-0.645-0.154-0.951
	L19.171,12.351z M20.5,6h-0.685C19.403,4.837,18.305,4,17,4s-2.403,0.837-2.815,2H13.5C12.672,6,12,6.671,12,7.5S12.672,9,13.5,9H14
	c0,1.657,1.343,3,3,3s3-1.343,3-3h0.5C21.328,9,22,8.329,22,7.5S21.328,6,20.5,6z M15.75,7.75c-0.276,0-0.5-0.224-0.5-0.5
	s0.224-0.5,0.5-0.5s0.5,0.224,0.5,0.5S16.026,7.75,15.75,7.75z M18.25,7.75c-0.276,0-0.5-0.224-0.5-0.5s0.224-0.5,0.5-0.5
	s0.5,0.224,0.5,0.5S18.526,7.75,18.25,7.75z"/>
</svg>
