<svg version="1.1" id="master" xmlns="http://www.w3.org/2000/svg" xmlns:xlink="http://www.w3.org/1999/xlink" x="0px" y="0px"
	 width="24px" height="24px" viewBox="0 0 24 24" enable-background="new 0 0 24 24" xml:space="preserve">
<path d="M18.875,19.5H5.125c-0.346,0-0.625,0.28-0.625,0.625v1.25C4.5,21.72,4.779,22,5.125,22h13.75
	c0.345,0,0.625-0.28,0.625-0.625v-1.25C19.5,19.78,19.22,19.5,18.875,19.5z M15.794,5.935c-0.027-0.287-0.154-0.555-0.359-0.759
	l-2.993-2.993c-0.244-0.244-0.64-0.244-0.884,0L8.566,5.176C8.361,5.38,8.234,5.648,8.206,5.935L7,18.25h10L15.794,5.935z
	 M13.875,14c0,0.25-0.25,0.5-0.5,0.5h-2.75c-0.25,0-0.5-0.25-0.5-0.5v-1.5c0-0.25,0.25-0.5,0.5-0.5h2.75c0.25,0,0.5,0.25,0.5,0.5V14
	z"/>
</svg>
