<svg version="1.1" id="master" xmlns="http://www.w3.org/2000/svg" xmlns:xlink="http://www.w3.org/1999/xlink" x="0px" y="0px"
	 width="24px" height="24px" viewBox="0 0 24 24" enable-background="new 0 0 24 24" xml:space="preserve">
<path d="M15.5,8C16.328,8,17,8.671,17,9.5S16.328,11,15.5,11S14,10.329,14,9.5S14.672,8,15.5,8z M8.5,8C9.329,8,10,8.671,10,9.5
	S9.329,11,8.5,11S7,10.329,7,9.5S7.671,8,8.5,8z M11.99,2C6.47,2,2,6.48,2,12c0,5.52,4.47,10,9.99,10C17.52,22,22,17.52,22,12
	C22,6.48,17.52,2,11.99,2z M12,20c-4.42,0-8-3.58-8-8s3.58-8,8-8s8,3.58,8,8S16.42,20,12,20z M12,14c-2.33,0-4.32,1.45-5.12,3.5
	h1.67c0.69-1.189,1.97-2,3.45-2c1.48,0,2.75,0.811,3.45,2h1.67C16.32,15.45,14.33,14,12,14z"/>
</svg>
