<svg version="1.1" id="master" xmlns="http://www.w3.org/2000/svg" xmlns:xlink="http://www.w3.org/1999/xlink" x="0px" y="0px"
	 width="24px" height="24px" viewBox="0 0 24 24" enable-background="new 0 0 24 24" xml:space="preserve">
<g>
	<circle cx="15.5" cy="9.5" r="1.5"/>
	<circle cx="8.5" cy="9.5" r="1.5"/>
	<path d="M11.99,2C6.47,2,2,6.48,2,12c0,5.52,4.47,10,9.99,10C17.52,22,22,17.52,22,12C22,6.48,17.52,2,11.99,2z M12,20
		c-4.42,0-8-3.58-8-8s3.58-8,8-8s8,3.58,8,8S16.42,20,12,20z M12,16.5c0.73,0,1.391,0.189,1.971,0.53
		c0.119-0.14,0.859-0.98,1.01-1.14C14.13,15.33,13.109,15,12,15c-1.11,0-2.13,0.33-2.99,0.88c0.97,1.09,0.01,0.021,1.01,1.14
		C10.61,16.689,11.27,16.5,12,16.5z"/>
</g>
</svg>
