<svg version="1.1" id="master" xmlns="http://www.w3.org/2000/svg" xmlns:xlink="http://www.w3.org/1999/xlink" x="0px" y="0px"
	 width="24px" height="24px" viewBox="0 0 24 24" enable-background="new 0 0 24 24" xml:space="preserve">
<g>
	<circle cx="15.5" cy="9.5" r="1.5"/>
	<circle cx="8.5" cy="9.5" r="1.5"/>
	<path d="M11.99,2C6.47,2,2,6.48,2,12c0,5.52,4.47,10,9.99,10C17.52,22,22,17.52,22,12C22,6.48,17.52,2,11.99,2z M12,20
		c-4.42,0-8-3.58-8-8s3.58-8,8-8s8,3.58,8,8S16.42,20,12,20z M12,16c-0.73,0-1.38-0.18-1.96-0.52c-0.12,0.14-0.86,0.979-1.01,1.149
		C9.89,17.18,10.9,17.5,12,17.5c1.109,0,2.12-0.33,2.98-0.88c-0.971-1.09-0.01-0.021-1.01-1.15C13.38,15.82,12.73,16,12,16z"/>
</g>
</svg>
