<svg version="1.1" id="icon_mood_bad" xmlns="http://www.w3.org/2000/svg" xmlns:xlink="http://www.w3.org/1999/xlink" x="0px"
	 y="0px" width="24px" height="24px" viewBox="0 0 24 24" enable-background="new 0 0 24 24" xml:space="preserve">
<path d="M11.99,2C6.47,2,2,6.48,2,12c0,5.52,4.47,10,9.99,10C17.52,22,22,17.52,22,12C22,6.48,17.52,2,11.99,2z M12,20
	c-4.42,0-8-3.58-8-8s3.58-8,8-8s8,3.58,8,8S16.42,20,12,20z M15.5,11c0.83,0,1.5-0.67,1.5-1.5S16.33,8,15.5,8S14,8.67,14,9.5
	S14.67,11,15.5,11z M8.5,11c0.83,0,1.5-0.67,1.5-1.5S9.33,8,8.5,8S7,8.67,7,9.5S7.67,11,8.5,11z M12,14c-2.33,0-4.31,1.46-5.11,3.5
	h10.219C16.311,15.46,14.33,14,12,14z"/>
</svg>
