<svg version="1.1" id="master" xmlns="http://www.w3.org/2000/svg" xmlns:xlink="http://www.w3.org/1999/xlink" x="0px" y="0px"
	 width="24px" height="24px" viewBox="0 0 24 24" enable-background="new 0 0 24 24" xml:space="preserve">
<path d="M18.994,18.124c-2.901-0.604-4.983-3.159-4.99-6.123c0.006-2.964,2.088-5.52,4.99-6.124
	c0.676-0.135,1.114-0.792,0.979-1.468c-0.066-0.333-0.267-0.624-0.552-0.807C17.81,2.558,15.927,2,14.003,2c-5.512,0-10,4.485-10,10
	s4.486,10,10,10c1.924,0,3.807-0.558,5.419-1.604c0.579-0.375,0.745-1.148,0.37-1.729C19.61,18.388,19.321,18.19,18.994,18.124"/>
</svg>
