<svg version="1.1" id="master" xmlns="http://www.w3.org/2000/svg" xmlns:xlink="http://www.w3.org/1999/xlink" x="0px" y="0px"
	 width="24px" height="24px" viewBox="0 0 24 24" enable-background="new 0 0 24 24" xml:space="preserve">
<rect fill="none" width="24" height="24"/>
<path d="M12,7c1.375,0,2.5-1.125,2.5-2.5S13.375,2,12,2S9.5,3.125,9.5,4.5S10.625,7,12,7z M12,9.5c-1.375,0-2.5,1.125-2.5,2.5
	s1.125,2.5,2.5,2.5s2.5-1.125,2.5-2.5S13.375,9.5,12,9.5z M12,17c-1.375,0-2.5,1.125-2.5,2.5S10.625,22,12,22s2.5-1.125,2.5-2.5
	S13.375,17,12,17z"/>
</svg>
