<svg version="1.1" id="master" xmlns="http://www.w3.org/2000/svg" xmlns:xlink="http://www.w3.org/1999/xlink" x="0px" y="0px"
	 width="24px" height="24px" viewBox="0 0 24 24" enable-background="new 0 0 24 24" xml:space="preserve">
<path d="M2,19c0,0.552,0.448,1,1,1h2c0.552,0,1-0.448,1-1V9H2V19z M20.099,13C20.657,12.457,21,11.833,21,11.159
	c0-1.651-1.307-2.931-2.748-3.84c-1.311-0.827-2.52-1.805-3.498-3.007L14.5,4l-0.254,0.312c-0.979,1.202-2.188,2.18-3.499,3.007
	C9.306,8.228,8,9.507,8,11.159C8,11.833,8.343,12.457,8.901,13H20.099z M21,14H8c-0.552,0-1,0.448-1,1v4c0,0.552,0.448,1,1,1h1v-2
	c0-0.553,0.448-1,1-1s1,0.447,1,1v2h2v-2.25c0-1.5,1.5-2.25,1.5-2.25s1.5,0.75,1.5,2.25V20h2v-2c0-0.553,0.447-1,1-1
	c0.552,0,1,0.447,1,1v2h1c0.553,0,1-0.448,1-1v-4C22,14.448,21.553,14,21,14z M4,4c0,0-2,1-2,3v1h4V7C6,5,4,4,4,4z"/>
</svg>
