<svg version="1.1" id="master" xmlns="http://www.w3.org/2000/svg" xmlns:xlink="http://www.w3.org/1999/xlink" x="0px" y="0px"
	 width="24px" height="24px" viewBox="0 0 24 24" enable-background="new 0 0 24 24" xml:space="preserve">
<rect fill="none" width="24" height="24"/>
<path d="M12.002,11.389c0-0.65-0.39-1.231-0.98-1.481l-5.581-2.36c-1.48,1.681-2.32,3.701-2.801,5.45h7.752
	C11.282,12.998,12.002,12.279,12.002,11.389z M21.963,11.219c-0.41-4.412-4.559-7.492-8.979-7.202
	c-2.511,0.16-4.442,0.939-5.932,2.04l4.741,2.01c1.331,0.571,2.2,1.871,2.2,3.322c0,1.99-1.62,3.612-3.611,3.612H2.21
	C2,16.312,2,17.2,2,17.2v0.801c0,1.1,0.9,2,2,2h10.001C18.674,20.001,22.414,15.991,21.963,11.219z"/>
</svg>
