<svg version="1.1" id="master" xmlns="http://www.w3.org/2000/svg" xmlns:xlink="http://www.w3.org/1999/xlink" x="0px" y="0px"
	 width="24px" height="24px" viewBox="0 0 24 24" enable-background="new 0 0 24 24" xml:space="preserve">
<path d="M13.248,4.5c0.692,0,1.25-0.559,1.25-1.25S13.94,2,13.248,2c-0.691,0-1.25,0.559-1.25,1.25S12.557,4.5,13.248,4.5z
	 M21.979,4.027c-0.089-0.336-0.43-0.531-0.766-0.441l-18.75,5c-0.332,0.09-0.531,0.43-0.441,0.766
	c0.074,0.277,0.324,0.461,0.602,0.461c0.054,0,0.109-0.008,0.16-0.02l8.59-2.293v3.25H4.499c-0.691,0-1.25,0.559-1.25,1.25v8.75
	c0,0.691,0.559,1.25,1.25,1.25h15c0.692,0,1.25-0.559,1.25-1.25V12c0-0.691-0.558-1.25-1.25-1.25h-6.875V7.168l8.91-2.375
	C21.87,4.703,22.065,4.359,21.979,4.027z M8.874,17h-3.75v-3.75h3.75V17z M15.123,13.25h3.75V17h-3.75V13.25z M13.873,13.25V17
	h-3.75v-3.75H13.873z M9.499,5.75c0.691,0,1.25-0.559,1.25-1.25s-0.559-1.25-1.25-1.25c-0.691,0-1.25,0.559-1.25,1.25
	S8.807,5.75,9.499,5.75z"/>
</svg>
