<svg version="1.1" id="master" xmlns="http://www.w3.org/2000/svg" xmlns:xlink="http://www.w3.org/1999/xlink" x="0px" y="0px"
	 width="24px" height="24px" viewBox="0 0 24 24" enable-background="new 0 0 24 24" xml:space="preserve">
<path d="M14.5,7C15.328,7,16,6.329,16,5.5C16,4.672,15.328,4,14.5,4S13,4.672,13,5.5C13,6.329,13.672,7,14.5,7z M7.397,9.318
	c0.177,0.212,0.481,0.244,0.681,0.07l3.26-2.778c0.2-0.173,0.219-0.486,0.042-0.698c-0.881-1.062-2.403-1.219-3.4-0.354L6.163,7.083
	C5.964,7.256,5.944,7.568,6.121,7.78L7.397,9.318z M9.5,15H9.338c-0.068-0.227-0.159-0.444-0.271-0.653l0.115-0.113
	c0.195-0.195,0.195-0.513,0-0.708l0,0l-0.707-0.707c-0.195-0.195-0.512-0.195-0.707-0.001v0.001l-0.115,0.114
	C7.445,12.82,7.226,12.729,7,12.662V12.5C7,12.224,6.776,12,6.5,12h-1C5.224,12,5,12.224,5,12.5v0.163
	c-0.226,0.067-0.445,0.158-0.653,0.271l-0.115-0.114c-0.195-0.195-0.512-0.195-0.707-0.001v0.001l-0.707,0.707
	c-0.195,0.195-0.195,0.512,0,0.707c0,0,0,0,0,0.001l0.114,0.113C2.821,14.556,2.73,14.773,2.663,15H2.5C2.224,15,2,15.225,2,15.5v1
	C2,16.776,2.224,17,2.5,17h0.163c0.067,0.227,0.158,0.445,0.27,0.652l-0.114,0.115c-0.195,0.195-0.195,0.512,0,0.707h0l0.707,0.707
	c0.195,0.195,0.512,0.195,0.707,0l0,0l0.115-0.114C4.555,19.18,4.774,19.27,5,19.337V19.5C5,19.776,5.224,20,5.5,20h1
	C6.776,20,7,19.776,7,19.5v-0.163c0.226-0.066,0.445-0.157,0.653-0.27l0.115,0.114c0.195,0.195,0.512,0.195,0.707,0l0,0l0.707-0.707
	c0.195-0.195,0.195-0.512,0-0.707l0,0l-0.115-0.115C9.179,17.445,9.27,17.227,9.338,17H9.5c0.276,0,0.5-0.224,0.5-0.5v-1
	C10,15.225,9.776,15,9.5,15z M6,18c-1.104,0-2-0.896-2-2s0.896-2,2-2s2,0.896,2,2S7.104,18,6,18z M21.5,15h-0.162
	c-0.068-0.227-0.158-0.444-0.271-0.653l0.114-0.113c0.195-0.195,0.195-0.513,0-0.708l0,0l-0.707-0.707
	c-0.195-0.195-0.512-0.195-0.707-0.001c0,0,0,0.001-0.001,0.001l-0.113,0.114c-0.209-0.112-0.427-0.203-0.653-0.271V12.5
	c0-0.276-0.225-0.5-0.5-0.5h-1c-0.276,0-0.5,0.224-0.5,0.5v0.163c-0.227,0.067-0.444,0.158-0.652,0.271l-0.114-0.114
	c-0.195-0.195-0.513-0.195-0.708-0.001v0.001l-0.706,0.707c-0.195,0.195-0.195,0.512-0.001,0.707c0,0,0,0,0.001,0.001l0.113,0.113
	c-0.112,0.209-0.203,0.427-0.27,0.653H14.5c-0.276,0-0.5,0.225-0.5,0.5v1c0,0.276,0.224,0.5,0.5,0.5h0.163
	c0.066,0.227,0.157,0.445,0.27,0.652l-0.114,0.115c-0.195,0.195-0.195,0.512,0,0.707l0,0l0.707,0.707
	c0.195,0.195,0.512,0.195,0.707,0l0,0l0.115-0.114c0.207,0.112,0.426,0.202,0.652,0.27V19.5c0,0.276,0.224,0.5,0.5,0.5h1
	c0.275,0,0.5-0.224,0.5-0.5v-0.163c0.227-0.066,0.444-0.157,0.653-0.27l0.114,0.114c0.195,0.195,0.512,0.195,0.707,0l0,0
	l0.707-0.707c0.195-0.195,0.195-0.512,0-0.707l0,0l-0.114-0.115c0.112-0.207,0.202-0.426,0.271-0.652H21.5
	c0.276,0,0.5-0.224,0.5-0.5v-1C22,15.225,21.776,15,21.5,15z M18,18c-1.104,0-2-0.896-2-2s0.896-2,2-2s2,0.896,2,2S19.104,18,18,18z
	 M14.375,10.781C14.552,10.923,14.773,11,15,11h2c0.552,0,1-0.448,1-1s-0.448-1-1-1h-1.649l-2.226-1.781
	C12.75,6.918,12.214,6.927,11.85,7.24l-3.5,3C7.93,10.6,7.882,11.23,8.241,11.65c0.06,0.07,0.128,0.13,0.205,0.181L11,13.535V17
	c0,0.552,0.448,1,1,1c0.552,0,1-0.448,1-1v-4c-0.001-0.334-0.167-0.646-0.445-0.832l-1.292-0.861l1.819-1.56L14.375,10.781z"/>
</svg>
