<svg version="1.1" id="master" xmlns="http://www.w3.org/2000/svg" xmlns:xlink="http://www.w3.org/1999/xlink" x="0px" y="0px"
	 width="24px" height="24px" viewBox="0 0 24 24" enable-background="new 0 0 24 24" xml:space="preserve">
<rect fill="none" width="24" height="24"/>
<path d="M18.667,2v2.222h-2.223V2H7.556v2.222H5.333V2H3.111v20h2.222v-2.223h2.222V22h8.889v-2.223h2.223V22h2.222V2H18.667z
	 M7.556,17.556H5.333v-2.223h2.222V17.556z M7.556,13.111H5.333v-2.223h2.222V13.111z M7.556,8.667H5.333V6.444h2.222V8.667z
	 M18.667,17.556h-2.223v-2.223h2.223V17.556z M18.667,13.111h-2.223v-2.223h2.223V13.111z M18.667,8.667h-2.223V6.444h2.223V8.667z"
	/>
</svg>
