<svg version="1.1" id="master" xmlns="http://www.w3.org/2000/svg" xmlns:xlink="http://www.w3.org/1999/xlink" x="0px" y="0px"
	 width="24px" height="24px" viewBox="0 0 24 24" enable-background="new 0 0 24 24" xml:space="preserve">
<path d="M18.238,18.533c0,0.371-0.026,0.686-0.078,0.943c-0.053,0.258-0.135,0.492-0.248,0.703s-0.259,0.416-0.438,0.613
	c-0.18,0.196-0.399,0.416-0.66,0.66c-0.191,0.186-0.395,0.322-0.608,0.412S15.75,22,15.484,22H7.942
	c-0.22,0-0.424-0.041-0.612-0.121c-0.188-0.082-0.354-0.193-0.495-0.335S6.581,21.236,6.5,21.049
	c-0.081-0.188-0.121-0.393-0.121-0.613v-0.616c0-0.37,0.032-0.712,0.096-1.025c0.063-0.313,0.211-0.622,0.442-0.93
	c-0.179-0.087-0.341-0.21-0.486-0.369c-0.145-0.159-0.267-0.336-0.364-0.53c-0.099-0.193-0.176-0.396-0.23-0.607
	c-0.055-0.212-0.083-0.413-0.083-0.604c0-0.348,0.044-0.664,0.131-0.947c0.087-0.284,0.252-0.557,0.495-0.816v-1.461
	c-0.145-0.126-0.258-0.256-0.339-0.386c-0.081-0.13-0.144-0.267-0.187-0.409c-0.044-0.142-0.071-0.291-0.083-0.447
	s-0.018-0.327-0.018-0.513c0-0.365,0.057-0.705,0.17-1.021c0.112-0.315,0.3-0.604,0.561-0.864l1.772-1.772V5.25l2.493-2.502
	c0.168-0.168,0.345-0.301,0.53-0.399c0.185-0.099,0.378-0.174,0.577-0.226c0.2-0.052,0.407-0.085,0.621-0.1
	C12.692,2.007,12.912,2,13.138,2h0.6c0.151,0,0.3,0.001,0.448,0.004c0.147,0.003,0.296,0.013,0.447,0.03
	c0.145,0.018,0.28,0.042,0.408,0.074c0.127,0.032,0.252,0.064,0.373,0.096c0.122,0.032,0.245,0.061,0.369,0.087
	c0.125,0.026,0.263,0.039,0.413,0.039c0.133,0,0.264,0.004,0.391,0.013c0.128,0.009,0.258,0.019,0.392,0.03
	c0.186,0.122,0.356,0.25,0.513,0.387s0.291,0.285,0.403,0.447c0.113,0.162,0.2,0.339,0.261,0.53
	c0.062,0.191,0.092,0.405,0.092,0.643c0,0.104-0.009,0.208-0.026,0.313l-1.164,7.897c-0.041,0.261-0.119,0.492-0.234,0.694
	c-0.116,0.203-0.281,0.38-0.495,0.531c-0.064,0.358-0.2,0.684-0.409,0.973l1.321,1.32c0.324,0.324,0.571,0.695,0.742,1.112
	S18.238,18.076,18.238,18.533z M7.004,15.754h2.494l3.744-3.745v-4.37c-0.196,0-0.348-0.007-0.451-0.022
	c-0.104-0.014-0.194-0.044-0.27-0.091c-0.075-0.046-0.149-0.11-0.222-0.191S12.127,7.146,12,7.013l-1.251,3.745l-1.65,1.659
	c-0.146,0.146-0.322,0.218-0.53,0.218c-0.11,0-0.207-0.02-0.291-0.057c-0.084-0.038-0.162-0.087-0.234-0.148
	C7.97,12.369,7.9,12.301,7.834,12.226s-0.135-0.148-0.204-0.217v2.06c0,0.18-0.033,0.322-0.1,0.43
	c-0.067,0.107-0.14,0.213-0.218,0.316C7.234,14.92,7.164,15.041,7.1,15.18C7.036,15.318,7.004,15.51,7.004,15.754z M11.088,6.388
	c-0.099,0-0.191,0.012-0.278,0.035s-0.168,0.072-0.243,0.147L7.369,9.767c-0.11,0.11-0.194,0.232-0.252,0.365h1.26
	c0.324,0,0.582-0.139,0.773-0.417l2.198-3.284C11.25,6.402,11.163,6.388,11.088,6.388z M15.484,20.749
	c0.069,0,0.147-0.015,0.234-0.044l-3.093-3.075l1.867-1.876h0.626c-0.186-0.186-0.335-0.371-0.447-0.557
	c-0.113-0.186-0.173-0.414-0.179-0.687l-1.764,1.764c-0.231,0.231-0.501,0.411-0.808,0.538c-0.307,0.128-0.626,0.191-0.956,0.191
	H8.872v0.626c-0.139,0.14-0.28,0.274-0.426,0.408c-0.145,0.134-0.277,0.274-0.399,0.421c-0.122,0.148-0.222,0.309-0.3,0.482
	S7.63,19.31,7.63,19.523v0.912c0,0.088,0.03,0.161,0.091,0.223c0.062,0.061,0.135,0.091,0.222,0.091H15.484z M12.513,3.269
	c-0.342,0-0.635,0.122-0.878,0.365l-1.512,1.503h3.119l1.251-1.859c-0.028,0-0.054-0.001-0.073-0.004
	c-0.021-0.003-0.045-0.004-0.074-0.004H12.513z M16.058,3.581c-0.081,0-0.158,0.021-0.23,0.061s-0.114,0.107-0.126,0.2l-1.208,7.854
	l-0.625,0.625h1.251l1.199-8.393V3.885c0-0.063-0.026-0.13-0.078-0.2C16.188,3.616,16.127,3.581,16.058,3.581z"/>
</svg>
