<svg version="1.1" id="master" xmlns="http://www.w3.org/2000/svg" xmlns:xlink="http://www.w3.org/1999/xlink" x="0px" y="0px"
	 width="24px" height="24px" viewBox="0 0 24 24" enable-background="new 0 0 24 24" xml:space="preserve">
<path d="M21.62,11.139c-0.028-0.182-0.056-0.287-0.056-0.287s-0.073,0.081-0.19,0.239c-0.036-0.433-0.112-0.857-0.233-1.277
	c-0.149-0.521-0.345-1.026-0.586-1.511C20.4,7.98,20.223,7.672,20.016,7.382c-0.072-0.109-0.147-0.219-0.226-0.319
	c-0.354-0.582-0.769-0.941-1.24-1.616c-0.308-0.517-0.521-1.087-0.622-1.681c-0.13,0.359-0.229,0.727-0.3,1.103
	c-0.487-0.493-0.909-0.84-1.168-1.079C15.208,2.61,15.354,2,15.354,2s-2.354,2.63-1.338,5.37c0.354,0.929,0.963,1.742,1.754,2.339
	c0.986,0.816,2.054,1.454,2.614,3.096c-0.452-0.861-1.136-1.583-1.972-2.082c0.25,0.594,0.38,1.236,0.376,1.878
	c0,2.465-2.005,4.465-4.47,4.461c-0.335,0-0.666-0.037-0.989-0.113c-0.384-0.073-0.756-0.197-1.107-0.376
	c-0.521-0.314-0.97-0.73-1.325-1.224l-0.008-0.013l0.081,0.027c0.186,0.063,0.371,0.112,0.565,0.149
	c0.756,0.161,1.548,0.067,2.247-0.268c0.707-0.393,1.131-0.684,1.479-0.564h0.008c0.338,0.108,0.605-0.224,0.362-0.565
	c-0.42-0.541-1.106-0.81-1.786-0.688c-0.707,0.103-1.354,0.606-2.278,0.117c-0.061-0.031-0.117-0.064-0.174-0.102
	c-0.064-0.035,0.198,0.054,0.138,0.014c-0.202-0.102-0.396-0.219-0.582-0.348c-0.012-0.014,0.142,0.043,0.125,0.031
	c-0.238-0.162-0.444-0.371-0.605-0.613c-0.166-0.299-0.182-0.663-0.041-0.975c0.085-0.154,0.219-0.279,0.376-0.352
	c0.121,0.061,0.194,0.105,0.194,0.105s-0.053-0.101-0.085-0.154c0.012-0.004,0.021,0,0.032-0.008
	c0.104,0.044,0.335,0.162,0.461,0.234c0.084,0.044,0.153,0.109,0.21,0.19c0,0,0.04-0.021,0.012-0.109
	c-0.044-0.109-0.117-0.202-0.218-0.267h0.008c0.093,0.048,0.182,0.105,0.267,0.166c0.077-0.178,0.113-0.372,0.105-0.565
	c0.008-0.105-0.008-0.214-0.045-0.315c-0.032-0.064,0.021-0.089,0.077-0.02c-0.009-0.053-0.028-0.101-0.049-0.149v-0.004
	c0,0,0.032-0.044,0.049-0.061c0.04-0.041,0.085-0.077,0.137-0.109c0.291-0.182,0.599-0.339,0.917-0.469
	c0.26-0.113,0.473-0.198,0.518-0.226c0.065-0.041,0.126-0.089,0.182-0.142c0.215-0.182,0.364-0.437,0.412-0.715
	c0.003-0.034,0.006-0.07,0.011-0.11V8.412c-0.036-0.142-0.279-0.247-1.552-0.368C10,7.971,9.641,7.636,9.539,7.192v0.004
	C9.522,7.24,9.503,7.289,9.486,7.337C9.503,7.289,9.52,7.244,9.539,7.196V7.188c0.243-0.634,0.679-1.176,1.244-1.547
	c0.032-0.028-0.129,0.008-0.097-0.02c0.109-0.053,0.218-0.101,0.331-0.142c0.057-0.024-0.242-0.137-0.509-0.109
	c-0.161,0.008-0.323,0.048-0.473,0.113c0.064-0.053,0.251-0.125,0.206-0.125c-0.339,0.065-0.667,0.19-0.966,0.364
	c0-0.033,0.004-0.061,0.021-0.089c-0.237,0.1-0.443,0.262-0.606,0.464c0.004-0.036,0.009-0.073,0.009-0.109
	c-0.109,0.08-0.21,0.174-0.296,0.279L8.399,6.271C7.696,6,6.934,5.935,6.193,6.081L6.186,6.077h0.008
	C6.04,5.951,5.907,5.806,5.802,5.636L5.794,5.64L5.777,5.632C5.729,5.56,5.681,5.479,5.628,5.39C5.592,5.325,5.556,5.252,5.52,5.18
	c0-0.004-0.005-0.008-0.009-0.008c-0.016,0-0.024,0.068-0.036,0.052V5.22c-0.129-0.335-0.19-0.695-0.178-1.058L5.288,4.166
	C5.083,4.307,4.925,4.513,4.84,4.751C4.804,4.836,4.775,4.885,4.751,4.933v-0.02c0.004-0.044,0.024-0.134,0.021-0.125
	C4.768,4.796,4.764,4.8,4.76,4.804C4.699,4.873,4.642,4.953,4.602,5.038C4.565,5.115,4.533,5.196,4.509,5.276
	c-0.004,0.012,0-0.012,0-0.04c0-0.028,0.004-0.081,0-0.069L4.497,5.196c-0.27,0.602-0.44,1.244-0.502,1.903
	c-0.016,0.113-0.023,0.226-0.02,0.335v0.008c-0.193,0.21-0.364,0.444-0.514,0.69C2.974,8.958,2.61,9.85,2.379,10.784
	c0.162-0.355,0.356-0.695,0.578-1.014c-0.432,1.095-0.654,2.263-0.654,3.442c0.073-0.348,0.17-0.687,0.283-1.022
	c-0.069,1.393,0.197,2.785,0.783,4.052c0.784,1.758,2.085,3.232,3.729,4.23c0.671,0.451,1.402,0.805,2.174,1.043
	c0.101,0.035,0.206,0.071,0.312,0.107c-0.033-0.012-0.064-0.028-0.098-0.041C10.399,21.857,11.354,22,12.307,22
	c3.382,0,4.498-1.289,4.599-1.414c0.164-0.15,0.303-0.332,0.398-0.538c0.064-0.026,0.131-0.057,0.198-0.084l0.041-0.021l0.076-0.037
	c0.51-0.238,0.989-0.541,1.426-0.893c0.659-0.474,1.128-1.16,1.329-1.943c0.122-0.287,0.126-0.605,0.018-0.896
	c0.037-0.057,0.067-0.113,0.108-0.174c0.728-1.168,1.14-2.501,1.196-3.875v-0.113C21.697,11.717,21.673,11.426,21.62,11.139z"/>
</svg>
