<svg version="1.1" id="master" xmlns="http://www.w3.org/2000/svg" xmlns:xlink="http://www.w3.org/1999/xlink" x="0px" y="0px"
	 width="24px" height="24px" viewBox="0 0 24 24" enable-background="new 0 0 24 24" xml:space="preserve">
<path d="M20.374,2.059L7.875,5.749C7.355,5.913,7,6.396,7,6.941v10.211c-0.409-0.1-0.829-0.15-1.25-0.153
	c-2.07,0-3.75,1.12-3.75,2.5s1.68,2.5,3.75,2.5s3.75-1.12,3.75-2.5v-9.128l10-2.93v7.211c-0.409-0.1-0.828-0.15-1.25-0.153
	c-2.07,0-3.75,1.12-3.75,2.5s1.68,2.5,3.75,2.5S22,18.38,22,16.999V3.249C21.999,2.559,21.439,2,20.748,2.001
	C20.621,2.001,20.495,2.021,20.374,2.059z"/>
</svg>
