<svg version="1.1" id="master" xmlns="http://www.w3.org/2000/svg" xmlns:xlink="http://www.w3.org/1999/xlink" x="0px" y="0px"
	 width="24px" height="24px" viewBox="0 0 24 24" enable-background="new 0 0 24 24" xml:space="preserve">
<rect fill="none" width="24" height="24"/>
<path d="M15.67,6.584c-0.095,0-0.16,0.012-0.228,0.028v0.011h0.012c0.045,0.087,0.122,0.15,0.179,0.228
	c0.045,0.089,0.083,0.178,0.129,0.267l0.011-0.013c0.078-0.055,0.116-0.143,0.116-0.277c-0.033-0.039-0.038-0.078-0.066-0.116
	c-0.033-0.056-0.104-0.083-0.149-0.128L15.67,6.584z M6.809,17.579H6.036c-0.025-1.301-0.102-2.525-0.225-3.675H5.804l-1.175,3.675
	H4.042l-1.167-3.675H2.867c-0.086,1.103-0.14,2.327-0.163,3.675H2c0.046-1.638,0.16-3.175,0.342-4.608H3.3l1.113,3.387h0.006
	l1.123-3.387h0.913c0.202,1.68,0.32,3.217,0.356,4.608H6.809z M10.156,14.18c-0.315,1.704-0.73,2.944-1.243,3.716
	c-0.402,0.597-0.842,0.895-1.319,0.895c-0.127,0-0.283-0.038-0.472-0.114v-0.412c0.092,0.014,0.2,0.021,0.322,0.021
	c0.223,0,0.402-0.063,0.539-0.185c0.164-0.151,0.246-0.318,0.246-0.504c0-0.131-0.064-0.393-0.192-0.788L7.191,14.18H7.95
	l0.606,1.967c0.137,0.445,0.194,0.758,0.17,0.936c0.333-0.887,0.565-1.856,0.696-2.902H10.156z M20.426,17.579h-2.19v-4.608h0.737
	v4.041h1.453V17.579z M17.66,17.691l-0.848-0.416c0.076-0.063,0.148-0.132,0.214-0.209c0.36-0.421,0.54-1.048,0.54-1.877
	c0-1.525-0.599-2.289-1.797-2.289c-0.586,0-1.045,0.194-1.375,0.581c-0.358,0.424-0.537,1.047-0.537,1.871
	c0,0.81,0.157,1.405,0.478,1.783c0.292,0.342,0.731,0.513,1.319,0.513c0.22,0,0.421-0.027,0.604-0.081l1.105,0.643l0.299-0.519
	H17.66z M14.917,16.657c-0.188-0.301-0.281-0.783-0.281-1.447c0-1.161,0.354-1.741,1.059-1.741c0.369,0,0.642,0.139,0.814,0.417
	c0.187,0.301,0.279,0.779,0.279,1.436c0,1.17-0.353,1.756-1.058,1.756c-0.371,0-0.643-0.139-0.815-0.417L14.917,16.657z
	 M13.535,16.303c0,0.392-0.144,0.713-0.43,0.963c-0.287,0.25-0.669,0.375-1.154,0.375c-0.453,0-0.887-0.144-1.311-0.429l0.197-0.396
	c0.365,0.183,0.694,0.273,0.992,0.273c0.276,0,0.494-0.062,0.652-0.185c0.157-0.122,0.25-0.294,0.25-0.513
	c0-0.273-0.192-0.508-0.54-0.703c-0.323-0.177-0.969-0.548-0.969-0.548c-0.352-0.256-0.526-0.529-0.526-0.98
	c0-0.376,0.13-0.675,0.392-0.904c0.263-0.231,0.6-0.346,1.017-0.346c0.427,0,0.816,0.112,1.167,0.342l-0.178,0.396
	c-0.3-0.126-0.596-0.19-0.886-0.19c-0.236,0-0.418,0.057-0.545,0.171c-0.127,0.114-0.207,0.259-0.207,0.437
	c0,0.273,0.195,0.51,0.555,0.709C12.338,14.952,13,15.332,13,15.332c0.36,0.254,0.54,0.524,0.54,0.973L13.535,16.303z
	 M21.354,11.426c-0.445-0.011-0.792,0.033-1.081,0.157c-0.083,0.033-0.217,0.033-0.229,0.139c0.046,0.044,0.053,0.117,0.093,0.179
	c0.065,0.111,0.181,0.261,0.288,0.339c0.116,0.092,0.232,0.18,0.355,0.258c0.216,0.133,0.462,0.212,0.675,0.346
	c0.121,0.079,0.244,0.178,0.367,0.262c0.061,0.041,0.1,0.116,0.178,0.143v-0.017c-0.038-0.05-0.051-0.122-0.088-0.178
	c-0.056-0.056-0.11-0.105-0.166-0.161c-0.162-0.217-0.363-0.406-0.579-0.563c-0.179-0.121-0.568-0.291-0.642-0.495l-0.012-0.012
	c0.122-0.011,0.268-0.055,0.384-0.088c0.189-0.05,0.362-0.039,0.559-0.088c0.088-0.022,0.178-0.05,0.267-0.078v-0.05
	c-0.101-0.1-0.175-0.236-0.278-0.329c-0.283-0.246-0.598-0.485-0.921-0.686c-0.174-0.111-0.396-0.183-0.58-0.278
	c-0.066-0.033-0.178-0.05-0.217-0.105c-0.1-0.122-0.158-0.283-0.229-0.429c-0.161-0.306-0.317-0.646-0.456-0.969
	c-0.101-0.219-0.161-0.436-0.284-0.636c-0.574-0.947-1.197-1.521-2.155-2.083c-0.205-0.117-0.452-0.167-0.713-0.229
	c-0.139-0.007-0.278-0.017-0.416-0.022c-0.092-0.039-0.181-0.145-0.259-0.196c-0.316-0.2-1.137-0.633-1.37-0.06
	c-0.149,0.362,0.223,0.718,0.353,0.902c0.096,0.127,0.217,0.273,0.283,0.417c0.039,0.097,0.05,0.196,0.089,0.297
	c0.089,0.245,0.173,0.518,0.289,0.748c0.061,0.116,0.128,0.239,0.206,0.344c0.044,0.061,0.121,0.089,0.139,0.188
	c-0.078,0.114-0.083,0.279-0.129,0.417c-0.199,0.631-0.121,1.411,0.162,1.875c0.09,0.138,0.302,0.445,0.586,0.327
	c0.25-0.1,0.194-0.417,0.268-0.696c0.016-0.066,0.005-0.11,0.039-0.156v0.013c0.078,0.157,0.156,0.306,0.229,0.463
	c0.172,0.273,0.472,0.557,0.723,0.746c0.133,0.1,0.239,0.273,0.406,0.335v-0.017h-0.013c-0.036-0.048-0.084-0.072-0.129-0.111
	c-0.1-0.1-0.212-0.223-0.291-0.333c-0.233-0.314-0.439-0.658-0.623-1.015c-0.092-0.175-0.168-0.363-0.241-0.536
	c-0.034-0.067-0.034-0.167-0.09-0.2c-0.083,0.122-0.205,0.228-0.267,0.377c-0.105,0.24-0.116,0.535-0.156,0.842
	c-0.022,0.006-0.012,0-0.022,0.012c-0.179-0.043-0.239-0.229-0.307-0.383c-0.166-0.396-0.193-1.032-0.049-1.487
	c0.039-0.117,0.205-0.485,0.139-0.597c-0.035-0.105-0.145-0.166-0.206-0.252c-0.072-0.104-0.149-0.238-0.199-0.356
	c-0.134-0.312-0.2-0.657-0.345-0.969c-0.067-0.144-0.185-0.294-0.278-0.427c-0.106-0.15-0.224-0.256-0.308-0.433
	c-0.028-0.061-0.067-0.162-0.022-0.229c0.012-0.045,0.035-0.063,0.078-0.075c0.073-0.06,0.279,0.019,0.353,0.052
	c0.205,0.083,0.379,0.162,0.551,0.278c0.079,0.055,0.163,0.161,0.263,0.188h0.116c0.179,0.04,0.38,0.012,0.547,0.061
	c0.296,0.095,0.563,0.233,0.801,0.383c0.73,0.463,1.33,1.121,1.738,1.905c0.066,0.128,0.096,0.246,0.156,0.379
	c0.117,0.275,0.261,0.553,0.379,0.819c0.117,0.262,0.229,0.53,0.397,0.748c0.083,0.116,0.418,0.177,0.567,0.238
	c0.111,0.05,0.283,0.096,0.384,0.157c0.191,0.117,0.378,0.25,0.559,0.378C21.06,11.175,21.337,11.314,21.354,11.426z"/>
</svg>
