<svg version="1.1" id="master" xmlns="http://www.w3.org/2000/svg" xmlns:xlink="http://www.w3.org/1999/xlink"
	 x="0px" y="0px" width="24px" height="24px" viewBox="0 0 24 24" enable-background="new 0 0 24 24" xml:space="preserve">
<path d="M20.775,10.595l1.216-5.192c0.032-0.14-0.029-0.289-0.161-0.362c-0.158-0.087-0.358-0.03-0.445,0.128L18.718,10
	c0,0,0.013,0.005,0.035,0.014C11.362,10.169,9.124,17,7.121,17C6.503,17,6,16.497,6,15.879v-3.062l1.555-0.954
	C7.833,11.678,8,11.366,8,11.031v-2.53c0-0.4-0.445-0.638-0.778-0.416L5,9.567L2.777,8.085C2.445,7.864,2,8.102,2,8.501v2.53
	c0,0.334,0.167,0.646,0.445,0.832L4,12.817v3.062C4,17.601,5.4,19,7.121,19h12.878c1.104,0,2-0.895,2-2v-4
	C21.999,12.013,21.513,11.142,20.775,10.595z M15.499,15c-0.275,0-0.5-0.224-0.5-0.5s0.225-0.5,0.5-0.5c0.276,0,0.5,0.224,0.5,0.5
	S15.775,15,15.499,15z"/>
</svg>
