<svg version="1.1" id="master" xmlns="http://www.w3.org/2000/svg" xmlns:xlink="http://www.w3.org/1999/xlink" x="0px" y="0px"
	 width="24px" height="24px" viewBox="0 0 24 24" enable-background="new 0 0 24 24" xml:space="preserve">
<rect fill="none" width="24" height="24"/>
<path d="M6.49,2.003l3.959,11.218v-0.006l0.313,0.884c1.74,4.924,2.676,7.563,2.681,7.57c0.003,0,0.266,0.016,0.584,0.032
	c0.964,0.042,2.159,0.149,3.063,0.259c0.209,0.024,0.39,0.033,0.4,0.024l-3.925-11.135l-0.364-1.025l-2.02-5.709
	c-0.383-1.083-0.708-2.007-0.725-2.042L10.432,2H6.494L6.49,2.003z M13.581,2.01l-0.008,4.422l-0.007,4.423l-0.364-1.027V9.826
	l-0.471,9.844c0.463,1.307,0.71,2.003,0.712,2.006c0.003,0.004,0.267,0.02,0.586,0.034c0.964,0.043,2.158,0.15,3.066,0.259
	c0.209,0.025,0.39,0.034,0.4,0.025c0.01-0.009,0.017-4.518,0.014-10.01l-0.007-9.976h-3.922V2.01z M6.49,2.001v9.994
	c0,5.496,0.005,9.997,0.012,10.004s0.347-0.025,0.756-0.071c0.408-0.05,0.975-0.108,1.258-0.134
	c0.432-0.041,1.724-0.124,1.874-0.124c0.043,0,0.047-0.226,0.052-4.234l0.007-4.234l0.317,0.884l0.108,0.313l0.475-9.834
	l-0.158-0.455l-0.734-2.034l-0.025-0.073H6.49L6.49,2.001z"/>
</svg>
