<svg version="1.1" id="master" xmlns="http://www.w3.org/2000/svg" xmlns:xlink="http://www.w3.org/1999/xlink" x="0px" y="0px"
	 width="24px" height="24px" viewBox="0 0 24 24" enable-background="new 0 0 24 24" xml:space="preserve">
<rect fill="none" width="24" height="24"/>
<path d="M4.496,2v4.374l0.001,13.13c0,0.168-0.062,0.314-0.183,0.436c-0.123,0.121-0.269,0.183-0.436,0.183
	s-0.314-0.062-0.438-0.183c-0.125-0.123-0.188-0.268-0.188-0.436V6.374H2v13.13c0,0.342,0.065,0.666,0.195,0.971
	c0.131,0.305,0.308,0.568,0.535,0.795c0.226,0.227,0.491,0.404,0.796,0.535C3.83,21.936,4.153,22,4.496,22h15
	c0.342,0,0.665-0.066,0.969-0.2c0.305-0.134,0.57-0.313,0.796-0.539s0.406-0.489,0.539-0.79c0.134-0.303,0.2-0.625,0.2-0.967V2
	H4.496z M7,8.878h3.122v0.626H7V8.878z M7,10.748h3.122v0.626H7V10.748z M7,12.626h3.122v0.626H7V12.626z M7,14.504h3.122v0.617H7
	V14.504z M19.496,18.879H7v-0.627h12.496V18.879z M19.496,17H7v-0.626h12.496V17z M19.496,15.121h-8.122V8.878h8.122V15.121z
	 M19.496,7.626H7V7h12.496V7.626z M19.496,5.748H7V4.504h12.496V5.748z"/>
</svg>
