<svg version="1.1" id="master" xmlns="http://www.w3.org/2000/svg" xmlns:xlink="http://www.w3.org/1999/xlink" x="0px" y="0px"
	 width="24px" height="24px" viewBox="0 0 24 24" enable-background="new 0 0 24 24" xml:space="preserve">
<rect fill="none" width="24" height="24"/>
<path d="M13.813,22h3.062C19.688,22,22,19.688,22,16.875v-9.75C22,4.313,19.688,2,16.875,2H13.75c-0.063,0-0.125,0.062-0.125,0.125
	v19.75C13.624,21.938,13.688,22,13.813,22z M17.625,11c1.126,0,1.999,0.938,1.999,1.999c0,1.127-0.938,2.001-1.999,2.001
	c-1.125,0-2-0.875-2-2.001C15.563,11.875,16.5,11,17.625,11z M11.5,2H7.125C4.313,2,2,4.313,2,7.125v9.75
	C2,19.688,4.313,22,7.125,22H11.5c0.062,0,0.125-0.062,0.125-0.124V2.125C11.625,2.062,11.563,2,11.5,2z M10.063,20.376H7.125
	c-1.938,0-3.5-1.563-3.5-3.501v-9.75c0-1.938,1.563-3.5,3.5-3.5H10L10.063,20.376z M5.125,8c0,1.062,0.813,1.875,1.875,1.875
	S8.875,9.062,8.875,8c0-1.062-0.813-1.875-1.875-1.875S5.125,6.938,5.125,8z"/>
</svg>
