<svg version="1.1" id="master" xmlns="http://www.w3.org/2000/svg" xmlns:xlink="http://www.w3.org/1999/xlink" x="0px" y="0px"
	 width="256px" height="256px" viewBox="0 0 256 256" enable-background="new 0 0 256 256" xml:space="preserve">
<path d="M126.763,193.535c-0.701,0-1.403-0.2-2.04-0.535l-6.42-3.813c-0.97-0.535-0.501-0.735-0.167-0.836
	c1.271-0.437,1.538-0.535,2.909-1.338c0.134-0.065,0.334-0.033,0.468,0.031l4.949,2.943c0.167,0.1,0.436,0.1,0.602,0l19.329-11.17
	c0.166-0.102,0.301-0.303,0.301-0.533V155.98c0-0.232-0.102-0.437-0.301-0.533l-19.329-11.137c-0.166-0.102-0.4-0.102-0.602,0
	l-19.327,11.137c-0.2,0.1-0.301,0.334-0.301,0.533v22.305c0,0.199,0.134,0.398,0.301,0.501l5.283,3.043
	c2.876,1.438,4.648-0.271,4.648-1.938v-22.033c0-0.303,0.233-0.568,0.567-0.568h2.441c0.301,0,0.568,0.232,0.568,0.568v22.033
	c0,3.848-2.073,6.021-5.719,6.021c-1.104,0-2.006,0-4.447-1.203l-5.082-2.909c-1.236-0.736-2.039-2.072-2.039-3.511v-22.304
	c0-1.438,0.769-2.812,2.039-3.512l19.327-11.168c1.237-0.703,2.843-0.703,4.046,0l19.324,11.168c1.237,0.734,2.04,2.071,2.04,3.512
	v22.304c0,1.438-0.769,2.81-2.04,3.511l-19.324,11.168C128.201,193.335,127.499,193.535,126.763,193.535L126.763,193.535z
	 M142.378,171.533c0-4.18-2.81-5.283-8.761-6.086c-6.02-0.803-6.62-1.203-6.62-2.607c0-1.171,0.501-2.709,4.948-2.709
	c3.979,0,5.449,0.869,6.053,3.545c0.064,0.271,0.268,0.436,0.535,0.436h2.508c0.167,0,0.301-0.065,0.398-0.165
	c0.103-0.136,0.17-0.271,0.137-0.438c-0.402-4.613-3.445-6.754-9.631-6.754c-5.52,0-8.794,2.342-8.794,6.221
	c0,4.246,3.276,5.383,8.56,5.918c6.32,0.638,6.822,1.537,6.822,2.774c0,2.174-1.739,3.076-5.818,3.076
	c-5.116,0-6.253-1.271-6.621-3.813c-0.034-0.268-0.268-0.469-0.568-0.469h-2.509c-0.301,0-0.567,0.234-0.567,0.568
	c0,3.244,1.771,7.123,10.231,7.123C138.867,178.154,142.378,175.746,142.378,171.533L142.378,171.533z M160.604,154.781
	c0,2.039-1.674,3.711-3.713,3.711c-2.041,0-3.713-1.672-3.713-3.711c0-2.106,1.739-3.713,3.713-3.713
	C158.896,151.036,160.604,152.675,160.604,154.781z M160,154.781c0-1.739-1.404-3.11-3.145-3.11c-1.705,0-3.108,1.371-3.108,3.11
	c0,1.736,1.403,3.143,3.108,3.143C158.596,157.891,160,156.486,160,154.781z M158.495,156.854h-0.87
	c-0.033-0.198-0.166-1.271-0.166-1.305c-0.066-0.232-0.135-0.367-0.438-0.367h-0.733v1.672h-0.802v-4.18h1.438
	c0.501,0,1.473,0,1.473,1.104c0,0.771-0.502,0.938-0.805,1.037c0.568,0.031,0.604,0.399,0.703,0.938
	C158.328,156.085,158.396,156.652,158.495,156.854L158.495,156.854z M157.561,153.912c0-0.569-0.399-0.569-0.604-0.569h-0.669v1.171
	h0.636C157.459,154.514,157.561,154.146,157.561,153.912z M66.91,106.264c0-0.902-0.468-1.706-1.237-2.14L45.176,92.32
	c-0.334-0.2-0.735-0.302-1.137-0.334h-0.201c-0.401,0-0.769,0.134-1.137,0.334l-20.464,11.804c-0.77,0.435-1.237,1.271-1.237,2.14
	l0.033,31.767c0,0.435,0.233,0.836,0.602,1.068c0.368,0.232,0.836,0.232,1.237,0l12.171-6.988c0.769-0.469,1.237-1.271,1.237-2.142
	v-14.846c0-0.87,0.468-1.706,1.236-2.14l5.184-2.977c0.4-0.233,0.802-0.334,1.236-0.334c0.436,0,0.87,0.101,1.237,0.334l5.183,2.977
	c0.77,0.435,1.237,1.271,1.237,2.14v14.846c0,0.869,0.468,1.705,1.237,2.142l12.171,6.988c0.368,0.232,0.869,0.232,1.237,0
	c0.367-0.201,0.602-0.637,0.602-1.068L66.91,106.264L66.91,106.264z M178.992,71.589v58.983c0,0.869-0.471,1.705-1.237,2.14
	l-20.497,11.837c-0.77,0.436-1.705,0.436-2.475,0l-20.497-11.837c-0.771-0.435-1.237-1.271-1.237-2.14v-23.673
	c0-0.87,0.471-1.706,1.237-2.141l20.497-11.837c0.77-0.435,1.705-0.435,2.475,0l5.115,2.942c0.568,0.334,1.305-0.101,1.305-0.735
	v-31.43c0-0.938,1.004-1.539,1.842-1.07l12.203,6.821C178.49,69.85,178.992,70.686,178.992,71.589z M163.611,114.69
	c0-0.234-0.137-0.436-0.303-0.535l-7.021-4.08c-0.2-0.101-0.438-0.101-0.637,0l-7.021,4.08c-0.2,0.1-0.301,0.301-0.301,0.535v8.125
	c0,0.233,0.134,0.435,0.301,0.534l7.021,4.047c0.199,0.1,0.437,0.1,0.604,0l7.021-4.047c0.199-0.101,0.303-0.301,0.303-0.534v-8.125
	H163.611z M233.764,114.456c0.771-0.435,1.236-1.271,1.236-2.14v-5.719c0-0.869-0.469-1.705-1.236-2.14L213.4,92.62
	c-0.771-0.436-1.705-0.436-2.477,0l-20.497,11.837c-0.77,0.435-1.235,1.271-1.235,2.14v23.674c0,0.9,0.469,1.705,1.235,2.141
	l20.363,11.604c0.733,0.438,1.672,0.438,2.438,0l12.308-6.854c0.836-0.469,0.836-1.672,0-2.141l-20.631-11.837
	c-0.401-0.233-0.638-0.635-0.638-1.069v-7.423c0-0.436,0.233-0.836,0.638-1.07l6.42-3.711c0.366-0.234,0.868-0.234,1.235,0
	l6.42,3.711c0.369,0.234,0.638,0.635,0.638,1.07v5.817c0,0.938,1.036,1.538,1.872,1.07L233.764,114.456z M207.916,115.626
	c-0.135,0.1-0.234,0.234-0.234,0.401v4.547c0,0.167,0.103,0.334,0.234,0.4l3.945,2.273c0.134,0.101,0.334,0.101,0.469,0l3.943-2.273
	c0.135-0.101,0.233-0.233,0.233-0.4v-4.547c0-0.167-0.103-0.334-0.233-0.401l-3.943-2.274c-0.135-0.1-0.335-0.1-0.469,0
	L207.916,115.626z M122.917,130.171v-23.54c0-0.87-0.535-1.706-1.304-2.14L101.182,92.72c-0.701-0.4-1.672-0.468-2.474,0
	l-20.431,11.771c-0.77,0.435-1.305,1.237-1.305,2.14v23.54c0,0.938,0.635,1.739,1.337,2.142l20.464,11.771
	c0.803,0.468,1.738,0.436,2.475,0l20.396-11.771c0.603-0.336,1.037-0.901,1.204-1.57
	C122.884,130.572,122.917,130.372,122.917,130.171L122.917,130.171z"/>
</svg>
