<svg version="1.1" id="master" xmlns="http://www.w3.org/2000/svg" xmlns:xlink="http://www.w3.org/1999/xlink" x="0px" y="0px"
	 width="24px" height="24px" viewBox="0 0 24 24" enable-background="new 0 0 24 24" xml:space="preserve">
<path d="M12,22c1.128,0,2.052-0.924,2.052-2.052H9.949C9.949,21.076,10.872,22,12,22z M18.154,15.846v-5.128
	c0-3.148-1.672-5.785-4.616-6.482V3.539C13.538,2.687,12.852,2,12,2c-0.851,0-1.539,0.687-1.539,1.539v0.697
	c-2.933,0.697-4.615,3.323-4.615,6.482v5.128l-2.051,2.052v1.025h16.41v-1.025L18.154,15.846z M16.103,16.872H7.897v-6.154
	c0-2.543,1.548-4.615,4.103-4.615c2.554,0,4.103,2.072,4.103,4.615V16.872z"/>
</svg>
