<?xml version="1.0" encoding="utf-8"?>
<!-- Generator: Adobe Illustrator 16.0.0, SVG Export Plug-In . SVG Version: 6.00 Build 0)  -->
<!DOCTYPE svg PUBLIC "-//W3C//DTD SVG 1.1//EN" "http://www.w3.org/Graphics/SVG/1.1/DTD/svg11.dtd">
<svg version="1.1" id="master" xmlns="http://www.w3.org/2000/svg" xmlns:xlink="http://www.w3.org/1999/xlink" x="0px" y="0px"
	 width="24px" height="24px" viewBox="0 0 24 24" enable-background="new 0 0 24 24" xml:space="preserve">
<path d="M7.467,3.621L6,2.154c-2.462,1.877-4.082,4.769-4.227,8.051h2.052C3.979,7.487,5.374,5.107,7.467,3.621z M20.175,10.205
	h2.052C22.072,6.923,20.451,4.031,18,2.154l-1.457,1.467C18.615,5.107,20.021,7.487,20.175,10.205z M18.154,10.718
	c0-3.148-1.684-5.785-4.616-6.482V3.539C13.538,2.687,12.852,2,12,2s-1.539,0.687-1.539,1.539v0.697
	c-2.942,0.697-4.614,3.323-4.614,6.482v5.128l-2.052,2.053v1.024h16.41v-1.024l-2.051-2.053V10.718z M12,22
	c0.145,0,0.276-0.01,0.41-0.041c0.667-0.145,1.21-0.595,1.477-1.211c0.104-0.245,0.154-0.514,0.154-0.8H9.938
	C9.948,21.076,10.861,22,12,22z"/>
</svg>
