<?xml version="1.0" encoding="utf-8"?>
<!-- Generator: Adobe Illustrator 16.0.0, SVG Export Plug-In . SVG Version: 6.00 Build 0)  -->
<!DOCTYPE svg PUBLIC "-//W3C//DTD SVG 1.1//EN" "http://www.w3.org/Graphics/SVG/1.1/DTD/svg11.dtd">
<svg version="1.1" id="master" xmlns="http://www.w3.org/2000/svg" xmlns:xlink="http://www.w3.org/1999/xlink" x="0px" y="0px"
	 width="24px" height="24px" viewBox="0 0 24 24" enable-background="new 0 0 24 24" xml:space="preserve">
<path d="M18.154,15.846v-5.128c0-3.148-1.683-5.785-4.616-6.482V3.539C13.538,2.687,12.852,2,12,2c-0.851,0-1.539,0.687-1.539,1.539
	v0.697c-2.943,0.697-4.615,3.323-4.615,6.482v5.128l-2.051,2.052v1.025h16.41v-1.025L18.154,15.846z M13.025,15.846h-2.051v-2.051
	h2.051V15.846z M13.025,11.744h-2.051V7.641h2.051V11.744z M12,22c1.128,0,2.052-0.924,2.052-2.052H9.949
	C9.949,21.076,10.862,22,12,22z"/>
</svg>
