<svg version="1.1" id="master" xmlns="http://www.w3.org/2000/svg" xmlns:xlink="http://www.w3.org/1999/xlink" x="0px" y="0px"
	 width="24px" height="24px" viewBox="0 0 24 24" enable-background="new 0 0 24 24" xml:space="preserve">
<rect fill="none" width="24" height="24"/>
<path d="M10.104,20.104C10.104,21.151,10.953,22,12,22c1.048,0,1.896-0.849,1.896-1.896H10.104z M18.553,16.114v-5.543
	c0-3.095-2.144-5.686-5.038-6.371V3.514C13.515,2.676,12.838,2,12,2s-1.514,0.676-1.514,1.514V4.2
	c-2.895,0.686-5.038,3.276-5.038,6.371v5.543l-2.019,2.019v1.01h17.143v-1.01L18.553,16.114z M15.81,12.485h-2.857v2.857h-1.904
	v-2.857H8.19v-1.914h2.857V7.714h1.904v2.857h2.857V12.485z"/>
</svg>
