<svg version="1.1" id="master" xmlns="http://www.w3.org/2000/svg" xmlns:xlink="http://www.w3.org/1999/xlink" x="0px" y="0px"
	 width="24px" height="24px" viewBox="0 0 24 24" enable-background="new 0 0 24 24" xml:space="preserve">
<rect fill="none" width="24" height="24"/>
<path d="M7.466,3.621L5.999,2.154c-2.461,1.877-4.082,4.769-4.226,8.051h2.051C3.979,7.487,5.374,5.108,7.466,3.621z M20.175,10.205
	h2.052c-0.154-3.282-1.775-6.174-4.228-8.051l-1.456,1.467C18.615,5.108,20.021,7.487,20.175,10.205z M18.153,10.718
	c0-3.148-1.683-5.785-4.615-6.482V3.539C13.538,2.687,12.852,2,12,2s-1.539,0.687-1.539,1.539v0.697
	c-2.944,0.697-4.615,3.323-4.615,6.482v5.128l-2.052,2.052v1.025h16.411v-1.025l-2.052-2.052V10.718z M12,22
	c0.143,0,0.276-0.01,0.409-0.041c0.667-0.144,1.211-0.595,1.478-1.21c0.103-0.246,0.154-0.513,0.154-0.801H9.938
	C9.949,21.076,10.861,22,12,22z"/>
</svg>
