<svg version="1.1" id="master" xmlns="http://www.w3.org/2000/svg" xmlns:xlink="http://www.w3.org/1999/xlink" x="0px" y="0px"
	 width="24px" height="24px" viewBox="0 0 24 24" enable-background="new 0 0 24 24" xml:space="preserve">
<path d="M19.692,18.604L7.221,5.733L4.585,3.016L3.282,4.318L6.154,7.19V7.2c-0.533,1.016-0.82,2.216-0.82,3.508v5.128l-2.051,2.052
	v1.025h14.083l2.051,2.051l1.302-1.303L19.692,18.604z M11.487,22c1.138,0,2.052-0.913,2.052-2.052H9.436
	C9.436,21.087,10.349,22,11.487,22z M17.642,14.492v-3.774c0-3.159-1.683-5.785-4.616-6.482V3.539C13.025,2.687,12.339,2,11.487,2
	c-0.851,0-1.539,0.687-1.539,1.539v0.697C9.795,4.267,9.651,4.318,9.518,4.359C9.416,4.39,9.313,4.431,9.21,4.472H9.2
	c-0.011,0-0.011,0-0.021,0.01C8.944,4.574,8.708,4.688,8.482,4.8c0,0-0.01,0-0.01,0.011L17.642,14.492z"/>
</svg>
