<svg version="1.1" id="master" xmlns="http://www.w3.org/2000/svg" xmlns:xlink="http://www.w3.org/1999/xlink" x="0px" y="0px"
	 width="24px" height="24px" viewBox="0 0 24 24" enable-background="new 0 0 24 24" xml:space="preserve">
<path d="M5.507,13.25h3.217C9.604,14.019,10.741,14.5,12,14.5c1.26,0,2.396-0.481,3.276-1.25h3.216c0.346,0,0.625-0.28,0.625-0.626
	c0-0.097-0.022-0.193-0.066-0.279c-0.595-1.166-1.223-2.431-1.646-3.732C17.109,7.707,17,6.75,17,5.797V3.875L12,2L7,3.875v1.922
	c0,0.953-0.107,1.91-0.404,2.815c-0.425,1.302-1.052,2.567-1.647,3.732c-0.155,0.308-0.03,0.684,0.278,0.839
	C5.314,13.228,5.41,13.25,5.507,13.25z M10.438,4.799c0-0.108,0.087-0.195,0.195-0.195h0.846V3.758c0-0.108,0.087-0.195,0.195-0.195
	h0.651c0.107,0,0.195,0.087,0.195,0.195v0.846h0.847c0.107,0,0.195,0.087,0.195,0.195v0.651c0,0.108-0.088,0.195-0.195,0.195h-0.847
	v0.846c0,0.108-0.087,0.195-0.195,0.195h-0.651c-0.108,0-0.195-0.087-0.195-0.195V5.646h-0.846c-0.108,0-0.195-0.087-0.195-0.195
	V4.799z M8.875,8.25h6.25V9.5c0,1.726-1.398,3.125-3.125,3.125c-1.726,0-3.125-1.399-3.125-3.125V8.25z M15.728,14.5L12,18.226
	L8.273,14.5C5.48,14.621,3.25,16.906,3.25,19.727C3.25,20.982,4.268,22,5.524,22h12.953c1.256,0,2.273-1.018,2.273-2.273l0,0
	C20.75,16.906,18.52,14.621,15.728,14.5z"/>
</svg>
