<svg version="1.1" id="master" xmlns="http://www.w3.org/2000/svg" xmlns:xlink="http://www.w3.org/1999/xlink" x="0px" y="0px"
	 width="24px" height="24px" viewBox="0 0 24 24" enable-background="new 0 0 24 24" xml:space="preserve">
<rect fill="none" width="24" height="24"/>
<path d="M9.457,9.332V8.14C9.574,8.131,9.692,8.126,9.81,8.125c3.268-0.104,5.411,2.812,5.411,2.812s-2.312,3.209-4.792,3.209
	c-0.332,0-0.656-0.052-0.965-0.154V10.37c1.273,0.154,1.531,0.714,2.289,1.988l1.7-1.429c0,0-1.243-1.626-3.333-1.626
	C9.898,9.297,9.677,9.307,9.457,9.332 M9.457,5.386v1.782L9.81,7.145c4.542-0.154,7.508,3.725,7.508,3.725s-3.4,4.137-6.942,4.137
	c-0.308,0-0.611-0.029-0.912-0.081v1.104c0.25,0.028,0.508,0.051,0.758,0.051c3.298,0,5.684-1.686,7.994-3.673
	c0.383,0.309,1.95,1.053,2.274,1.377c-2.193,1.84-7.31,3.319-10.21,3.319c-0.279,0-0.544-0.015-0.809-0.044v1.554H22V5.386H9.457z
	 M9.457,13.99v0.943c-3.047-0.546-3.894-3.717-3.894-3.717s1.465-1.62,3.894-1.885v1.031H9.45C8.177,10.207,7.175,11.4,7.175,11.4
	S7.742,13.41,9.457,13.99 M4.047,11.083c0,0,1.803-2.664,5.417-2.944V7.167C5.461,7.491,2,10.877,2,10.877s1.958,5.668,7.457,6.183
	v-1.03C5.423,15.529,4.047,11.083,4.047,11.083z"/>
</svg>
