<svg version="1.1" id="master" xmlns="http://www.w3.org/2000/svg" xmlns:xlink="http://www.w3.org/1999/xlink" x="0px" y="0px"
	 width="24px" height="24px" viewBox="0 0 24 24" enable-background="new 0 0 24 24" xml:space="preserve">
<rect fill="none" width="24" height="24"/>
<path d="M17.112,13.624c-0.266,0.184-0.563,0.296-0.881,0.347c-0.318,0.05-0.635,0.04-0.952,0.04h-6.56
	c-0.318,0-0.635,0.012-0.954-0.04c-0.317-0.054-0.612-0.163-0.881-0.347c-0.536-0.376-0.855-0.976-0.855-1.627
	c0-0.663,0.323-1.263,0.857-1.625c0.262-0.188,0.562-0.299,0.875-0.35s0.625-0.051,0.951-0.051h6.563
	c0.313,0,0.638-0.011,0.95,0.038c0.313,0.05,0.612,0.162,0.876,0.338c0.537,0.362,0.85,0.975,0.85,1.624
	c0,0.651-0.326,1.25-0.863,1.625L17.112,13.624z M19.757,7.327c-0.704-0.565-1.509-0.955-2.388-1.165
	c-0.499-0.122-1.002-0.176-1.518-0.191c-0.374-0.013-0.749-0.009-1.137-0.009H9.3c-0.38,0-0.762-0.004-1.143,0.009
	C7.642,5.988,7.138,6.04,6.636,6.162C5.76,6.374,4.948,6.764,4.249,7.329C2.825,8.466,2,10.182,2,11.999
	c0,1.819,0.825,3.535,2.241,4.672c0.705,0.565,1.513,0.955,2.388,1.167c0.502,0.122,1.005,0.176,1.519,0.19
	c0.375,0.014,0.75,0.01,1.138,0.01h5.413c0.375,0,0.762,0.004,1.137-0.01c0.513-0.015,1.012-0.068,1.512-0.19
	c0.875-0.214,1.676-0.603,2.389-1.169C21.175,15.533,22,13.815,22,11.999C22,10.181,21.175,8.464,19.757,7.327z"/>
</svg>
