<svg version="1.1" id="master" xmlns="http://www.w3.org/2000/svg" xmlns:xlink="http://www.w3.org/1999/xlink" x="0px" y="0px"
	 width="24px" height="24px" viewBox="0 0 24 24" enable-background="new 0 0 24 24" xml:space="preserve">
<rect fill="none" width="24" height="24"/>
<path d="M22,12c0,0.51-0.113,0.986-0.339,1.426c-0.227,0.44-0.548,0.809-0.966,1.104c0.035,0.19,0.053,0.388,0.053,0.591
	c0,0.377-0.064,0.736-0.191,1.078c-0.128,0.343-0.305,0.65-0.53,0.922c-0.227,0.273-0.494,0.504-0.805,0.691
	c-0.311,0.188-0.65,0.317-1.021,0.387c-0.069,0.371-0.199,0.712-0.387,1.021c-0.188,0.311-0.419,0.579-0.691,0.805
	c-0.272,0.227-0.58,0.403-0.922,0.531c-0.342,0.127-0.702,0.191-1.078,0.191c-0.197,0-0.392-0.018-0.583-0.053
	c-0.296,0.418-0.665,0.739-1.108,0.965C12.987,21.887,12.51,22,12,22s-0.987-0.113-1.431-0.34c-0.443-0.226-0.813-0.547-1.108-0.965
	c-0.191,0.035-0.386,0.053-0.583,0.053c-0.376,0-0.736-0.064-1.078-0.191c-0.342-0.128-0.649-0.305-0.922-0.531
	c-0.272-0.226-0.503-0.494-0.691-0.805c-0.188-0.31-0.317-0.65-0.387-1.021c-0.371-0.069-0.711-0.198-1.021-0.387
	c-0.311-0.188-0.578-0.418-0.805-0.691c-0.226-0.271-0.402-0.579-0.53-0.922c-0.127-0.342-0.191-0.701-0.191-1.078
	c0-0.203,0.018-0.4,0.053-0.591c-0.418-0.296-0.739-0.664-0.966-1.104C2.113,12.985,2,12.51,2,12c0-0.324,0.048-0.633,0.144-0.926
	c0.096-0.293,0.23-0.573,0.404-0.839l2.4-3.644L3.687,5.087C3.548,4.918,3.44,4.73,3.365,4.521S3.252,4.099,3.252,3.878
	c0-0.261,0.05-0.505,0.148-0.735C3.499,2.914,3.632,2.716,3.8,2.547c0.168-0.168,0.367-0.301,0.596-0.4C4.625,2.049,4.869,2,5.131,2
	c0.22,0,0.433,0.038,0.639,0.113S6.162,2.295,6.33,2.435l1.635,1.374C8.574,3.426,9.219,3.133,9.9,2.93
	c0.681-0.203,1.381-0.304,2.1-0.304s1.419,0.101,2.1,0.304c0.682,0.203,1.326,0.496,1.936,0.878l1.635-1.374
	c0.168-0.139,0.354-0.247,0.561-0.322S18.649,2,18.869,2c0.262,0,0.506,0.049,0.735,0.147c0.229,0.099,0.428,0.232,0.596,0.4
	c0.168,0.168,0.301,0.367,0.399,0.596c0.099,0.229,0.148,0.474,0.148,0.735c0,0.221-0.038,0.435-0.113,0.644
	s-0.183,0.397-0.321,0.565l-1.262,1.504l2.409,3.661c0.168,0.261,0.3,0.539,0.396,0.834C21.952,11.382,22,11.687,22,12z
	 M4.496,3.878c0,0.151,0.049,0.284,0.147,0.4l1.86,2.226C6.586,6.603,6.665,6.701,6.743,6.8s0.161,0.187,0.248,0.265
	s0.185,0.144,0.291,0.196c0.107,0.052,0.23,0.078,0.37,0.078c0.127,0,0.248-0.024,0.36-0.074c0.113-0.049,0.214-0.118,0.301-0.205
	s0.154-0.187,0.204-0.3C8.566,6.647,8.592,6.527,8.592,6.4c0-0.226-0.062-0.409-0.183-0.548c-0.122-0.139-0.262-0.272-0.418-0.4
	L5.53,3.4C5.414,3.301,5.278,3.252,5.122,3.252c-0.168,0-0.314,0.063-0.439,0.187S4.496,3.71,4.496,3.878z M12,19.504
	c0.574,0,1.128-0.075,1.661-0.227c0.533-0.15,1.03-0.36,1.491-0.63s0.883-0.596,1.265-0.978c0.383-0.383,0.709-0.805,0.979-1.266
	s0.479-0.958,0.631-1.492c0.15-0.533,0.226-1.086,0.226-1.66v-5c-0.649,0-1.279-0.084-1.891-0.252
	c-0.612-0.168-1.188-0.41-1.727-0.726c-0.539-0.316-1.033-0.698-1.482-1.147S12.318,5.171,12,4.608
	c-0.318,0.563-0.703,1.068-1.152,1.518S9.904,6.958,9.365,7.273C8.826,7.59,8.251,7.832,7.639,8
	C7.027,8.168,6.397,8.252,5.748,8.252v5c0,0.863,0.164,1.674,0.491,2.43c0.327,0.758,0.775,1.42,1.344,1.988
	c0.567,0.567,1.23,1.016,1.986,1.343C10.326,19.34,11.137,19.504,12,19.504z M10.435,10.748c0,0.301-0.057,0.585-0.169,0.852
	c-0.113,0.267-0.269,0.499-0.466,0.696s-0.429,0.353-0.695,0.47c-0.267,0.115-0.551,0.174-0.853,0.174
	c-0.301,0-0.585-0.059-0.852-0.174c-0.267-0.117-0.499-0.273-0.696-0.47s-0.354-0.429-0.47-0.696
	c-0.115-0.267-0.174-0.551-0.174-0.852s0.059-0.585,0.174-0.852C6.351,9.629,6.507,9.397,6.704,9.2
	C6.901,9.003,7.134,8.848,7.4,8.734c0.267-0.113,0.551-0.169,0.852-0.169c0.302,0,0.586,0.057,0.853,0.169
	C9.371,8.848,9.603,9.003,9.8,9.2c0.197,0.197,0.353,0.429,0.466,0.696C10.378,10.162,10.435,10.446,10.435,10.748z M6.687,10.748
	c0,0.22,0.041,0.425,0.122,0.613c0.081,0.188,0.193,0.354,0.335,0.496s0.308,0.253,0.495,0.334c0.188,0.082,0.394,0.122,0.613,0.122
	c0.215,0,0.416-0.04,0.604-0.122c0.188-0.081,0.354-0.192,0.496-0.334c0.142-0.142,0.253-0.309,0.334-0.5
	c0.082-0.191,0.122-0.395,0.122-0.609s-0.04-0.416-0.122-0.604C9.605,9.955,9.494,9.79,9.353,9.647
	C9.21,9.505,9.045,9.394,8.856,9.313c-0.188-0.082-0.39-0.122-0.604-0.122c-0.214,0-0.417,0.041-0.608,0.122
	c-0.191,0.081-0.358,0.192-0.5,0.334S6.89,9.955,6.809,10.143C6.728,10.332,6.687,10.533,6.687,10.748z M9.156,10.748
	c0,0.261-0.085,0.478-0.256,0.652c-0.172,0.174-0.388,0.261-0.648,0.261S7.774,11.574,7.6,11.4
	c-0.174-0.174-0.261-0.392-0.261-0.652c0-0.122,0.025-0.238,0.074-0.348c0.049-0.11,0.114-0.208,0.195-0.292S7.787,9.959,7.9,9.913
	c0.112-0.046,0.23-0.069,0.352-0.069c0.122,0,0.238,0.023,0.348,0.069c0.11,0.047,0.208,0.112,0.292,0.196S9.041,10.29,9.087,10.4
	C9.134,10.51,9.156,10.626,9.156,10.748z M8.252,15.748h3.696c-0.169-0.006-0.325-0.043-0.47-0.109
	c-0.146-0.066-0.272-0.156-0.383-0.27s-0.195-0.243-0.257-0.391c-0.061-0.148-0.091-0.307-0.091-0.475H9.496
	c0-0.197,0.031-0.387,0.096-0.569c0.063-0.183,0.15-0.351,0.261-0.505c0.109-0.152,0.241-0.289,0.396-0.408
	c0.153-0.119,0.32-0.213,0.5-0.283v-1.991c0-0.174,0.033-0.336,0.1-0.487s0.156-0.283,0.27-0.396
	c0.113-0.113,0.245-0.201,0.396-0.265C11.664,9.536,11.826,9.504,12,9.504s0.336,0.032,0.487,0.096
	c0.15,0.064,0.282,0.152,0.396,0.265c0.113,0.113,0.203,0.245,0.27,0.396s0.1,0.313,0.1,0.487v1.991
	c0.186,0.07,0.355,0.164,0.509,0.283s0.284,0.256,0.392,0.408c0.107,0.154,0.191,0.322,0.252,0.505s0.092,0.372,0.092,0.569h-1.244
	c0,0.168-0.031,0.326-0.096,0.475c-0.063,0.147-0.149,0.277-0.256,0.391c-0.107,0.113-0.235,0.203-0.383,0.27
	c-0.148,0.066-0.303,0.104-0.466,0.109h3.696v0.625c0,0.262-0.05,0.505-0.148,0.73c-0.099,0.227-0.231,0.426-0.399,0.596
	c-0.168,0.172-0.365,0.307-0.592,0.404c-0.226,0.1-0.47,0.148-0.73,0.148h-3.756c-0.261,0-0.505-0.049-0.73-0.148
	c-0.227-0.098-0.424-0.232-0.592-0.404c-0.168-0.17-0.301-0.369-0.399-0.596c-0.099-0.226-0.148-0.469-0.148-0.73V15.748z
	 M10.565,16.052H9.496v0.644c0,0.081,0.031,0.154,0.096,0.217c0.063,0.064,0.136,0.096,0.217,0.096c0.104,0,0.188-0.04,0.252-0.121
	c0.029-0.041,0.053-0.082,0.07-0.126c0.017-0.044,0.037-0.089,0.061-0.135c0.058-0.099,0.119-0.194,0.183-0.287
	S10.501,16.15,10.565,16.052z M11.374,17.947v-0.643c0-0.088-0.03-0.162-0.092-0.223c-0.061-0.061-0.135-0.091-0.222-0.091
	c-0.099,0-0.183,0.044-0.252,0.13c-0.099,0.128-0.186,0.264-0.261,0.409c-0.075,0.145-0.156,0.284-0.243,0.417H11.374z
	 M12.626,17.305v0.643h1.069c-0.081-0.139-0.168-0.275-0.261-0.408c-0.093-0.134-0.177-0.273-0.252-0.418
	c-0.058-0.086-0.139-0.13-0.243-0.13c-0.087,0-0.161,0.03-0.222,0.091C12.656,17.143,12.626,17.217,12.626,17.305z M14.496,16.052
	h-1.062c0.087,0.134,0.18,0.267,0.278,0.399c0.099,0.135,0.174,0.279,0.227,0.436c0.052,0.081,0.136,0.121,0.252,0.121
	c0.081,0,0.152-0.031,0.213-0.096c0.061-0.063,0.092-0.136,0.092-0.217V16.052z M15.748,8.565c0.301,0,0.585,0.057,0.852,0.169
	c0.267,0.113,0.499,0.269,0.696,0.465c0.197,0.197,0.354,0.429,0.47,0.696c0.115,0.267,0.174,0.551,0.174,0.852
	s-0.059,0.585-0.174,0.852c-0.116,0.267-0.272,0.499-0.47,0.696s-0.43,0.353-0.696,0.47c-0.267,0.115-0.551,0.174-0.852,0.174
	c-0.302,0-0.586-0.059-0.853-0.174c-0.267-0.117-0.498-0.273-0.695-0.47s-0.353-0.429-0.466-0.696
	c-0.112-0.267-0.169-0.551-0.169-0.852s0.057-0.585,0.169-0.852C13.848,9.629,14.003,9.397,14.2,9.2
	c0.197-0.197,0.428-0.352,0.691-0.465C15.155,8.622,15.44,8.565,15.748,8.565z M15.748,12.313c0.214,0,0.417-0.04,0.608-0.122
	c0.191-0.081,0.358-0.192,0.5-0.334s0.254-0.308,0.335-0.496c0.081-0.188,0.122-0.393,0.122-0.613c0-0.214-0.041-0.416-0.122-0.604
	c-0.081-0.188-0.193-0.354-0.335-0.496s-0.309-0.253-0.5-0.334c-0.191-0.082-0.395-0.122-0.608-0.122
	c-0.215,0-0.416,0.041-0.604,0.122c-0.188,0.081-0.354,0.192-0.496,0.334c-0.142,0.142-0.253,0.308-0.334,0.496
	c-0.082,0.188-0.122,0.39-0.122,0.604s0.04,0.417,0.122,0.609c0.081,0.191,0.192,0.358,0.334,0.5
	c0.143,0.142,0.308,0.253,0.496,0.334C15.332,12.272,15.533,12.313,15.748,12.313z M15.748,9.843c0.121,0,0.239,0.023,0.352,0.069
	c0.113,0.047,0.211,0.112,0.292,0.196s0.146,0.181,0.195,0.292c0.049,0.11,0.074,0.226,0.074,0.348c0,0.127-0.025,0.247-0.074,0.356
	c-0.049,0.11-0.114,0.208-0.195,0.292s-0.177,0.149-0.287,0.195c-0.11,0.047-0.229,0.07-0.356,0.07
	c-0.261,0-0.477-0.087-0.648-0.261c-0.171-0.174-0.256-0.392-0.256-0.652c0-0.122,0.022-0.238,0.069-0.348
	c0.046-0.11,0.111-0.208,0.195-0.292S15.29,9.959,15.4,9.913C15.51,9.866,15.626,9.843,15.748,9.843z M18.878,3.252
	c-0.156,0-0.292,0.049-0.408,0.148l-2.461,2.052c-0.156,0.127-0.296,0.261-0.418,0.4C15.47,5.991,15.408,6.174,15.408,6.4
	c0,0.127,0.025,0.248,0.074,0.361c0.05,0.113,0.117,0.213,0.204,0.3s0.188,0.155,0.301,0.205c0.112,0.049,0.233,0.074,0.36,0.074
	c0.14,0,0.263-0.026,0.37-0.078c0.106-0.052,0.204-0.118,0.291-0.196s0.17-0.167,0.248-0.265s0.157-0.197,0.239-0.296l1.86-2.226
	c0.093-0.11,0.14-0.243,0.14-0.4c0-0.168-0.062-0.314-0.183-0.439C19.191,3.314,19.046,3.252,18.878,3.252z"/>
</svg>
