<svg version="1.1" id="master" xmlns="http://www.w3.org/2000/svg" xmlns:xlink="http://www.w3.org/1999/xlink" x="0px" y="0px"
	 width="24px" height="24px" viewBox="0 0 24 24" enable-background="new 0 0 24 24" xml:space="preserve">
<rect fill="none" width="24" height="24"/>
<path d="M12,2.298c-5.513,0-10,4.443-10,9.912c0,3.634,1.965,6.795,4.913,8.504l0.642-4.229c-0.983-1.074-1.531-2.476-1.539-3.933
	c0-3.248,2.65-5.897,5.942-5.897c3.291,0,5.938,2.649,5.938,5.897c0,1.54-0.597,2.907-1.538,3.975L17,20.758
	c2.991-1.709,5-4.915,5-8.548C22,6.741,17.513,2.298,12,2.298z M11.958,9.094C10.216,9.09,8.8,10.499,8.795,12.241
	c0,0.005,0,0.011,0,0.016c-0.009,1.318,0.812,2.499,2.051,2.949l-1.238,6.496h4.699l-1.195-6.496
	c1.155-0.47,2.009-1.582,2.009-2.949c0.004-1.742-1.405-3.158-3.148-3.163C11.968,9.094,11.963,9.094,11.958,9.094z"/>
</svg>
