<svg version="1.1" id="icon_opera_browser" xmlns="http://www.w3.org/2000/svg" xmlns:xlink="http://www.w3.org/1999/xlink" x="0px"
	 y="0px" width="24px" height="24px" viewBox="0 0 24 24" enable-background="new 0 0 24 24" xml:space="preserve">
<path d="M14.656,3.318c-6.862,0-10.185,9.024-5.947,14.318c1.472,1.831,3.573,3.05,5.947,3.05c1.464,0,2.835-0.449,4.008-1.227
	C16.898,21.041,14.557,22,12,22c-0.157,0-0.322,0-0.479-0.012C6.218,21.742,2,17.367,2,12C2,6.476,6.476,2,12,2h0.032
	c2.543,0.012,4.866,0.972,6.628,2.544C17.491,3.762,16.116,3.318,14.656,3.318z M18.762,19.354c-1.65,0.996-3.658,0.953-5.322-0.232
	c2.266-0.826,3.938-3.693,3.938-7.121c0-3.415-1.661-6.282-3.928-7.121c1.686-1.177,3.678-1.222,5.358-0.202
	C23.079,8.657,23.063,15.393,18.762,19.354z"/>
</svg>
