<svg version="1.1" id="master" xmlns="http://www.w3.org/2000/svg" xmlns:xlink="http://www.w3.org/1999/xlink" x="0px" y="0px"
	 width="24px" height="24px" viewBox="0 0 24 24" enable-background="new 0 0 24 24" xml:space="preserve">
<rect fill="none" width="24" height="24"/>
<path d="M8.709,6.365c-1.106,1.305-1.821,3.236-1.871,5.4v0.471c0.051,2.165,0.765,4.093,1.871,5.398
	c1.435,1.864,3.566,3.046,5.949,3.046c1.463,0,2.833-0.448,4.006-1.227C16.899,21.038,14.562,22,12,22
	c-0.16,0-0.319-0.003-0.475-0.012C6.22,21.741,2,17.363,2,12C2,6.476,6.478,2,12,2h0.038c2.545,0.01,4.867,0.972,6.627,2.546
	c-1.174-0.775-2.542-1.226-4.009-1.226c-2.381,0-4.514,1.184-5.95,3.045H8.709z M22,12c0,2.964-1.287,5.623-3.335,7.454
	c-2.565,1.25-4.955,0.376-5.747-0.171c2.52-0.553,4.423-3.6,4.423-7.283c0-3.685-1.902-6.729-4.423-7.284
	c0.791-0.544,3.182-1.418,5.747-0.17C20.713,6.375,22,9.037,22,12z"/>
</svg>
