<svg version="1.1" id="master" xmlns="http://www.w3.org/2000/svg" xmlns:xlink="http://www.w3.org/1999/xlink" x="0px" y="0px"
	 width="24px" height="24px" viewBox="0 0 24 24" enable-background="new 0 0 24 24" xml:space="preserve">
<rect fill="none" width="24" height="24"/>
<path d="M21.643,9.342c-0.238-0.85-0.573-1.646-1.006-2.389c-0.434-0.742-0.954-1.418-1.563-2.027s-1.285-1.13-2.027-1.563
	c-0.741-0.433-1.538-0.769-2.389-1.007C13.808,2.119,12.922,2,12,2s-1.808,0.119-2.657,0.357C8.492,2.595,7.695,2.931,6.954,3.364
	C6.212,3.796,5.536,4.318,4.927,4.927s-1.13,1.285-1.563,2.027C2.931,7.696,2.596,8.492,2.357,9.342C2.119,10.193,2,11.079,2,12
	c0,0.922,0.119,1.808,0.357,2.658c0.238,0.85,0.573,1.646,1.006,2.389c0.434,0.742,0.954,1.418,1.563,2.026
	c0.609,0.609,1.285,1.13,2.027,1.563c0.741,0.433,1.538,0.768,2.389,1.006C10.192,21.881,11.078,22,12,22s1.808-0.119,2.657-0.357
	c0.851-0.238,1.647-0.573,2.389-1.006c0.742-0.434,1.418-0.954,2.027-1.563c0.609-0.608,1.13-1.284,1.563-2.026
	c0.433-0.742,0.768-1.539,1.006-2.389C21.881,13.808,22,12.922,22,12C22,11.079,21.881,10.193,21.643,9.342z M15.07,13.299
	c-0.173,0.402-0.411,0.754-0.714,1.058c-0.304,0.303-0.656,0.541-1.058,0.714c-0.402,0.174-0.835,0.26-1.299,0.26
	c-0.458,0-0.889-0.086-1.294-0.26c-0.405-0.173-0.759-0.411-1.063-0.714c-0.303-0.304-0.541-0.657-0.714-1.063
	C8.756,12.889,8.67,12.458,8.67,12c0-0.458,0.088-0.889,0.265-1.294c0.176-0.405,0.414-0.757,0.714-1.058
	c0.3-0.3,0.652-0.538,1.058-0.714S11.542,8.67,12,8.67s0.889,0.088,1.294,0.264s0.758,0.415,1.058,0.714
	c0.3,0.3,0.538,0.652,0.714,1.058c0.177,0.405,0.265,0.836,0.265,1.294C15.33,12.464,15.244,12.896,15.07,13.299z M14.463,10.961
	c-0.139-0.321-0.329-0.603-0.57-0.844s-0.524-0.431-0.849-0.57C12.719,9.407,12.371,9.338,12,9.338s-0.718,0.069-1.039,0.208
	s-0.603,0.329-0.844,0.57s-0.432,0.523-0.571,0.844C9.407,11.283,9.338,11.629,9.338,12s0.069,0.719,0.208,1.043
	c0.14,0.325,0.33,0.608,0.571,0.85s0.522,0.432,0.844,0.57s0.668,0.209,1.039,0.209s0.719-0.07,1.044-0.209
	c0.324-0.139,0.607-0.329,0.849-0.57s0.432-0.524,0.57-0.85c0.139-0.324,0.209-0.672,0.209-1.043S14.602,11.283,14.463,10.961z
	 M13.229,12.52c-0.071,0.16-0.167,0.301-0.288,0.422c-0.12,0.121-0.261,0.217-0.422,0.287c-0.161,0.072-0.334,0.107-0.52,0.107
	s-0.358-0.035-0.52-0.107c-0.161-0.07-0.302-0.166-0.422-0.287c-0.121-0.121-0.217-0.262-0.288-0.422
	c-0.07-0.161-0.106-0.334-0.106-0.52s0.036-0.358,0.106-0.52c0.071-0.161,0.167-0.301,0.288-0.422
	c0.12-0.121,0.261-0.217,0.422-0.288c0.161-0.071,0.334-0.107,0.52-0.107s0.358,0.036,0.52,0.107
	c0.161,0.071,0.302,0.167,0.422,0.288c0.121,0.121,0.217,0.261,0.288,0.422c0.07,0.161,0.106,0.334,0.106,0.52
	S13.3,12.359,13.229,12.52z"/>
</svg>
