<svg version="1.1" id="master" xmlns="http://www.w3.org/2000/svg" xmlns:xlink="http://www.w3.org/1999/xlink" x="0px" y="0px"
	 width="24px" height="24px" viewBox="0 0 24 24" enable-background="new 0 0 24 24" xml:space="preserve">
<rect fill="none" width="24" height="24"/>
<path d="M15.677,5.677h-7.35C4.834,5.675,2.002,8.504,2,11.997c-0.002,3.492,2.828,6.325,6.32,6.327h7.357
	C19.169,18.323,22,15.493,22,12C22,8.508,19.169,5.677,15.677,5.677z M15.516,16.095H8.488c-2.261-0.045-4.058-1.915-4.012-4.177
	C4.521,9.72,6.291,7.949,8.488,7.905h7.027c2.263,0,4.095,1.833,4.095,4.095S17.778,16.095,15.516,16.095z"/>
</svg>
