<svg version="1.1" id="master" xmlns="http://www.w3.org/2000/svg" xmlns:xlink="http://www.w3.org/1999/xlink" x="0px" y="0px"
	 width="24px" height="24px" viewBox="0 0 24 24" enable-background="new 0 0 24 24" xml:space="preserve">
<path d="M12.49,4.591c0.992,0.06,1.959,0.32,2.848,0.766c0.859,0.429,1.625,1.021,2.255,1.746c0.626,0.721,1.102,1.544,1.429,2.469
	c0.326,0.924,0.458,1.898,0.388,2.918c-0.027,0.531-0.113,1.043-0.256,1.54c-0.139,0.49-0.327,0.967-0.562,1.42
	c-0.366,0.708-0.774,1.377-1.226,2.01c-0.447,0.634-0.938,1.221-1.468,1.766c-0.531,0.544-1.094,1.045-1.693,1.501
	c-0.6,0.454-1.226,0.865-1.878,1.233l-0.031,0.021c-0.028,0.015-0.059,0.021-0.091,0.02c-0.052-0.013-0.099-0.04-0.133-0.081
	c-0.034-0.042-0.052-0.093-0.051-0.145c0-0.023,0.003-0.049,0.01-0.07c0.007-0.02,0.018-0.037,0.031-0.052
	c0.23-0.327,0.421-0.673,0.571-1.029c0.151-0.361,0.253-0.737,0.308-1.133c0-0.026-0.013-0.054-0.032-0.071
	c-0.018-0.021-0.044-0.031-0.07-0.031c-0.22,0.026-0.44,0.044-0.663,0.052c-0.222,0.007-0.443-0.003-0.663-0.03
	c-0.991-0.061-1.961-0.321-2.849-0.765c-0.859-0.43-1.624-1.022-2.254-1.747c-0.628-0.725-1.114-1.563-1.429-2.469
	C4.651,13.492,4.52,12.5,4.592,11.51c0.027-0.53,0.112-1.043,0.255-1.541c0.143-0.499,0.33-0.962,0.563-1.4
	c0.366-0.72,0.776-1.396,1.224-2.03c0.449-0.631,0.938-1.22,1.468-1.765c0.532-0.543,1.095-1.043,1.694-1.5
	c0.6-0.455,1.225-0.865,1.877-1.232l0.032-0.021C11.733,2.004,11.763,1.999,11.796,2c0.054,0.013,0.099,0.042,0.132,0.082
	c0.036,0.042,0.052,0.088,0.052,0.145c0,0.022-0.002,0.048-0.01,0.07c-0.006,0.02-0.017,0.036-0.03,0.051
	c-0.228,0.322-0.421,0.667-0.572,1.03c-0.151,0.361-0.25,0.738-0.305,1.132c0,0.027,0.01,0.052,0.03,0.072
	c0.018,0.02,0.045,0.031,0.071,0.031c0.218-0.028,0.439-0.044,0.663-0.051C12.052,4.555,12.272,4.565,12.49,4.591L12.49,4.591z
	 M11.818,14.897c0.768,0.066,1.532-0.192,2.1-0.712c0.6-0.533,0.925-1.199,0.98-2c0.065-0.773-0.193-1.539-0.713-2.113
	c-0.501-0.59-1.227-0.942-2-0.968c-0.772-0.065-1.538,0.193-2.112,0.712c-0.591,0.502-0.943,1.228-0.97,2
	c-0.065,0.772,0.19,1.535,0.706,2.112C10.332,14.533,11.001,14.858,11.818,14.897z"/>
</svg>
