<svg version="1.1" id="master" xmlns="http://www.w3.org/2000/svg" xmlns:xlink="http://www.w3.org/1999/xlink" x="0px" y="0px"
	 width="24px" height="24px" viewBox="0 0 24 24" enable-background="new 0 0 24 24" xml:space="preserve">
<rect fill="none" width="24" height="24"/>
<path d="M16.5,22c1.66,0,3-1.34,3-3s-1.34-3-3-3c-1.3,0-2.4,0.84-2.82,2H8.64l1.99-3.061C10.92,14.98,11.21,15,11.5,15
	s0.58-0.02,0.87-0.061l1.021,1.57c0.42-0.529,0.959-0.949,1.6-1.21l-0.6-0.93C16.811,13.27,18.5,10.84,18.5,8h-14
	c0,2.84,1.69,5.27,4.12,6.37l-3.95,6.08c-0.3,0.46-0.17,1.079,0.29,1.38l0,0c0.46,0.3,1.08,0.17,1.38-0.29l1-1.55h6.34
	C14.1,21.16,15.2,22,16.5,22z M16.5,18c0.55,0,1,0.45,1,1s-0.45,1-1,1s-1-0.45-1-1S15.95,18,16.5,18z M8.91,7h1
	c0.15-1.15,0.23-1.64-0.89-2.96C8.6,3.54,8.34,3.27,8.56,2H7.57C7.36,3.11,7.6,4.05,8.46,4.96C8.68,5.2,9.25,5.63,8.91,7z M11.39,7
	h1C12.54,5.85,12.62,5.36,11.5,4.04c-0.42-0.5-0.68-0.78-0.46-2.04h-0.99c-0.21,1.11,0.03,2.05,0.89,2.96
	C11.17,5.2,11.74,5.63,11.39,7z M13.91,7h1c0.15-1.15,0.23-1.64-0.891-2.96C13.6,3.54,13.34,3.27,13.561,2h-0.99
	c-0.211,1.11,0.029,2.05,0.89,2.96C13.68,5.2,14.25,5.63,13.91,7z"/>
</svg>
