<svg version="1.1" id="master" xmlns="http://www.w3.org/2000/svg" xmlns:xlink="http://www.w3.org/1999/xlink" x="0px" y="0px"
	 width="24px" height="24px" viewBox="0 0 24 24" enable-background="new 0 0 24 24" xml:space="preserve">
<path d="M12,2C6.478,2,2,6.478,2,12c0,5.523,4.478,10,10,10c0.922,0,1.667-0.744,1.667-1.667c0-0.434-0.167-0.822-0.435-1.122
	c-0.255-0.288-0.421-0.678-0.421-1.1c0-0.923,0.744-1.667,1.667-1.667h1.966c3.066,0,5.556-2.489,5.556-5.556
	C22,5.978,17.523,2,12,2z M5.889,12c-0.922,0-1.667-0.744-1.667-1.667s0.745-1.667,1.667-1.667c0.922,0,1.667,0.745,1.667,1.667
	S6.811,12,5.889,12z M9.222,7.556c-0.922,0-1.667-0.745-1.667-1.667c0-0.922,0.744-1.667,1.667-1.667s1.667,0.745,1.667,1.667
	C10.889,6.811,10.145,7.556,9.222,7.556z M14.777,7.556c-0.922,0-1.666-0.745-1.666-1.667c0-0.922,0.744-1.667,1.666-1.667
	c0.923,0,1.667,0.745,1.667,1.667C16.444,6.811,15.7,7.556,14.777,7.556z M18.111,12c-0.923,0-1.667-0.744-1.667-1.667
	s0.744-1.667,1.667-1.667c0.922,0,1.666,0.745,1.666,1.667S19.033,12,18.111,12z"/>
</svg>
