<svg version="1.1" id="master" xmlns="http://www.w3.org/2000/svg" xmlns:xlink="http://www.w3.org/1999/xlink" x="0px" y="0px"
	 width="24px" height="24px" viewBox="0 0 24 24" enable-background="new 0 0 24 24" xml:space="preserve">
<path d="M4.939,20.209c-2.283-2.355-2.24-6.153,0.054-8.5l8.194-8.381c1.73-1.771,4.545-1.771,6.276,0
	c1.714,1.753,1.716,4.583,0,6.339l-7.143,7.299c-1.167,1.193-3.071,1.177-4.218-0.039c-1.104-1.17-1.069-3.025,0.057-4.178
	l5.615-5.736c0.241-0.247,0.638-0.251,0.884-0.009l0.894,0.874c0.246,0.242,0.25,0.637,0.01,0.884l-5.615,5.735
	c-0.192,0.196-0.205,0.524-0.025,0.714c0.171,0.182,0.439,0.185,0.613,0.007l7.143-7.299c0.766-0.784,0.766-2.059-0.001-2.843
	c-0.749-0.767-1.952-0.768-2.701,0l-8.194,8.381c-1.358,1.389-1.379,3.638-0.046,5.012c1.329,1.371,3.476,1.373,4.807,0.012
	l6.721-6.875c0.241-0.247,0.637-0.251,0.884-0.01l0.894,0.874c0.246,0.241,0.251,0.637,0.01,0.884l-6.721,6.875
	C11.001,22.608,7.237,22.579,4.939,20.209z"/>
</svg>
