<svg version="1.1" id="master" xmlns="http://www.w3.org/2000/svg" xmlns:xlink="http://www.w3.org/1999/xlink" x="0px" y="0px"
	 width="24px" height="24px" viewBox="0 0 24 24" enable-background="new 0 0 24 24" xml:space="preserve">
<rect fill="none" width="24" height="24"/>
<path d="M15.636,6.546V17c0,2.01-1.626,3.636-3.636,3.636c-2.009,0-3.637-1.626-3.637-3.636V5.637c0-1.254,1.019-2.273,2.273-2.273
	s2.272,1.019,2.272,2.273v9.545c0,0.501-0.41,0.91-0.909,0.91c-0.5,0-0.909-0.409-0.909-0.91V6.546H9.728v8.636
	c0,1.255,1.019,2.274,2.272,2.274s2.273-1.02,2.273-2.274V5.637C14.273,3.627,12.645,2,10.637,2C8.627,2,7,3.627,7,5.637V17
	c0,2.764,2.237,5,5,5c2.764,0,5-2.236,5-5V6.546H15.636z"/>
</svg>
