<svg version="1.1" id="master" xmlns="http://www.w3.org/2000/svg" xmlns:xlink="http://www.w3.org/1999/xlink" x="0px" y="0px"
	 width="24px" height="24px" viewBox="0 0 24 24" enable-background="new 0 0 24 24" xml:space="preserve">
<rect fill="none" width="24" height="24"/>
<path d="M21.996,8.836c-0.355-2.953-3.063-5.172-6.184-6.199c1.422,1.539,2.438,3.93,2.438,6.863h1.098l-4.555,5.059
	C14.695,14.535,14.605,14.5,14.5,14.5h-1.875v-5H17C17,5,14.309,2,12,2S7,5,7,9.5h4.375v5H9.5c-0.105,0-0.195,0.035-0.293,0.059
	L4.652,9.5H5.75c0-2.934,1.016-5.324,2.438-6.863c-3.121,1.031-5.828,3.25-6.184,6.199C1.961,9.191,2.27,9.5,2.629,9.5h0.34
	l5.34,5.934c-0.027,0.102-0.063,0.203-0.063,0.316v5c0,0.691,0.559,1.25,1.25,1.25h5c0.691,0,1.25-0.559,1.25-1.25v-5
	c0-0.113-0.035-0.211-0.063-0.316L21.027,9.5h0.34C21.73,9.5,22.039,9.195,21.996,8.836z"/>
</svg>
