<svg version="1.1" id="master" xmlns="http://www.w3.org/2000/svg" xmlns:xlink="http://www.w3.org/1999/xlink" x="0px" y="0px"
	 width="24px" height="24px" viewBox="0 0 24 24" enable-background="new 0 0 24 24" xml:space="preserve">
<path d="M21.286,2.714v1.429c0,0.394-0.32,0.714-0.715,0.714h-2.143v16.429c0,0.394-0.32,0.714-0.715,0.714h-1.428
	c-0.395,0-0.715-0.32-0.715-0.714V4.857h-1.429v16.429c0,0.394-0.319,0.714-0.714,0.714H12c-0.395,0-0.715-0.32-0.715-0.714v-5
	H9.856c-3.944,0-7.143-3.198-7.143-7.143S5.912,2,9.856,2h10.715C20.966,2,21.286,2.32,21.286,2.714z"/>
</svg>
