<svg version="1.1" id="master" xmlns="http://www.w3.org/2000/svg" xmlns:xlink="http://www.w3.org/1999/xlink" x="0px" y="0px"
	 width="24px" height="24px" viewBox="0 0 24 24" enable-background="new 0 0 24 24" xml:space="preserve">
<rect fill="none" width="24" height="24"/>
<path d="M8.313,8.875H9.84c0.058-1.056,0.255-2.006,0.555-2.75C9.313,6.642,8.52,7.655,8.313,8.875z M8.313,10.125
	c0.206,1.22,1,2.233,2.082,2.751c-0.3-0.745-0.497-1.695-0.555-2.751H8.313z M12,13.199c0.3-0.291,0.812-1.345,0.915-3.074h-1.831
	C11.188,11.854,11.7,12.908,12,13.199z M11.085,8.875h1.831C12.813,7.146,12.301,6.092,12,5.801
	C11.7,6.092,11.188,7.146,11.085,8.875z M13.604,12.876c1.083-0.518,1.876-1.531,2.082-2.751H14.16
	C14.102,11.181,13.904,12.131,13.604,12.876z M19.5,2H5.75c-1.381,0-2.5,1.119-2.5,2.5v15c0,1.381,1.119,2.5,2.5,2.5H19.5
	c0.69,0,1.25-0.56,1.25-1.25V3.25C20.75,2.56,20.19,2,19.5,2z M16.375,18.25h-8.75C7.281,18.25,7,17.969,7,17.625S7.281,17,7.625,17
	h8.75C16.719,17,17,17.281,17,17.625S16.719,18.25,16.375,18.25z M12,14.5c-2.761,0-5-2.239-5-5s2.239-5,5-5c2.762,0,5,2.239,5,5
	S14.762,14.5,12,14.5z M13.604,6.125c0.3,0.744,0.497,1.694,0.556,2.75h1.526C15.48,7.655,14.688,6.642,13.604,6.125z"/>
</svg>
