<svg version="1.1" id="master" xmlns="http://www.w3.org/2000/svg" xmlns:xlink="http://www.w3.org/1999/xlink" x="0px" y="0px"
	 width="24px" height="24px" viewBox="0 0 24 24" enable-background="new 0 0 24 24" xml:space="preserve">
<path d="M4.5,6.498c1.381,0,2.5,1.119,2.5,2.5s-1.119,2.5-2.5,2.5S2,10.378,2,8.998S3.119,6.498,4.5,6.498z M9,2.498
	c1.381,0,2.5,1.119,2.5,2.5s-1.119,2.5-2.5,2.5s-2.5-1.119-2.5-2.5S7.619,2.498,9,2.498z M15,2.498c1.381,0,2.5,1.119,2.5,2.5
	s-1.119,2.5-2.5,2.5s-2.5-1.119-2.5-2.5S13.619,2.498,15,2.498z M19.5,6.498c1.381,0,2.5,1.119,2.5,2.5s-1.119,2.5-2.5,2.5
	s-2.5-1.119-2.5-2.5S18.119,6.498,19.5,6.498z M17.34,14.357c-0.869-1.02-1.6-1.889-2.48-2.91c-0.459-0.54-1.049-1.08-1.75-1.32
	c-0.109-0.04-0.219-0.07-0.33-0.09c-0.25-0.04-0.52-0.04-0.779-0.04s-0.53,0-0.79,0.05c-0.11,0.02-0.22,0.05-0.33,0.09
	c-0.7,0.24-1.28,0.78-1.75,1.32c-0.87,1.021-1.6,1.89-2.48,2.911c-1.31,1.31-2.92,2.76-2.62,4.79c0.29,1.02,1.02,2.029,2.33,2.32
	c0.73,0.149,3.06-0.44,5.54-0.44h0.18c2.48,0,4.811,0.58,5.54,0.44c1.31-0.291,2.04-1.311,2.33-2.32
	C20.26,17.118,18.65,15.668,17.34,14.357z"/>
</svg>
