<svg version="1.1" id="master" xmlns="http://www.w3.org/2000/svg" xmlns:xlink="http://www.w3.org/1999/xlink" x="0px" y="0px"
	 width="24px" height="24px" viewBox="0 0 24 24" enable-background="new 0 0 24 24" xml:space="preserve">
<path d="M7.758,22H5.171c-0.553,0-0.905-0.441-0.78-0.983l0.124-0.562h1.726c0.555,0,1.113-0.444,1.235-0.985l0.887-3.826
	c0.125-0.54,0.68-0.984,1.233-0.984h0.736c3.158,0,5.611-0.648,7.367-1.949c1.755-1.301,2.634-3,2.634-5.113
	c0-0.938-0.163-1.712-0.49-2.324c0-0.013-0.014-0.026-0.014-0.039l0.112,0.063c0.625,0.388,1.1,0.887,1.426,1.512
	c0.337,0.625,0.499,1.4,0.499,2.326c0,2.113-0.874,3.812-2.637,5.113c-1.75,1.287-4.213,1.937-7.362,1.937h-0.75
	c-0.55,0-1.112,0.437-1.237,0.988l-0.887,3.838c-0.124,0.537-0.675,0.975-1.225,0.975L7.758,22z M5.526,19.754H2.939
	c-0.552,0-0.903-0.441-0.78-0.983L5.803,2.985C5.929,2.44,6.482,2,7.038,2h5.387c1.163,0,2.175,0.082,3.04,0.241
	c0.862,0.158,1.601,0.433,2.236,0.825c0.614,0.388,1.103,0.894,1.415,1.516c0.323,0.623,0.486,1.399,0.486,2.331
	c0,2.113-0.877,3.812-2.637,5.099c-1.751,1.301-4.213,1.938-7.363,1.938H8.866c-0.549,0-1.106,0.437-1.231,0.974l-0.884,3.825
	c-0.125,0.538-0.681,0.977-1.238,0.977L5.526,19.754z M11.731,5.28h-0.845c-0.555,0-1.11,0.44-1.233,0.981l-0.775,3.35
	c-0.125,0.541,0.225,0.983,0.775,0.983h0.639c1.386,0,2.475-0.286,3.25-0.851c0.773-0.571,1.162-1.378,1.162-2.427
	c0-0.691-0.251-1.204-0.75-1.533c-0.5-0.337-1.25-0.504-2.238-0.504L11.731,5.28z"/>
</svg>
