<svg version="1.1" id="master" xmlns="http://www.w3.org/2000/svg" xmlns:xlink="http://www.w3.org/1999/xlink" x="0px" y="0px"
	 width="24px" height="24px" viewBox="0 0 24 24" enable-background="new 0 0 24 24" xml:space="preserve">
<rect fill="none" width="24" height="24"/>
<path d="M14.917,12.278V8.773l-2.061-0.946c-2.285,2.718-3.138,9.797-8.669,9.797C2.979,17.624,2,18.604,2,19.812
	s0.979,2.188,2.188,2.188c8.306,0,14.479-4.8,16.374-8.216l-1.447-1.505H14.917z M20.037,7.263c1.257-2.337,0.603-4.229-0.122-5.146
	c-0.109-0.134-0.306-0.155-0.439-0.047c-0.01,0.007-0.018,0.015-0.027,0.024l-0.894,0.898C18.448,3.1,18.434,3.268,18.52,3.392
	c0.268,0.405,0.666,1.371-0.055,2.825C17.76,5.909,17,5.75,16.231,5.75c-1.094,0-2.109,0.334-2.981,0.883l2.917,1.339v3.057h3.479
	l2.136,2.221c0.128-0.493,0.218-1,0.218-1.535C22.002,10.021,21.289,8.404,20.037,7.263z"/>
</svg>
