<svg version="1.1" id="master" xmlns="http://www.w3.org/2000/svg" xmlns:xlink="http://www.w3.org/1999/xlink" x="0px" y="0px"
	 width="24px" height="24px" viewBox="0 0 24 24" enable-background="new 0 0 24 24" xml:space="preserve">
<path d="M12.112,22c1.563,0,7.762-7.033,7.762-11.747C19.874,5.742,16.351,2,12.112,2C7.65,2,4.126,5.74,4.126,10.253
	C4.126,14.967,10.325,22,12.112,22z M10.866,5.205c0.404-0.1,0.829-0.154,1.27-0.154c2.5,0,4.651,2.126,4.651,4.888
	c0,2.487-2.151,4.612-4.664,4.612c-2.787,0-4.937-2.125-4.937-4.612c0-1.164,0.374-2.2,1.023-3.025v0.025
	c0,1.038,0.839,1.862,1.875,1.862C11.124,8.801,12,7.95,12,6.913c0-0.766-0.467-1.423-1.132-1.711L10.866,5.205z"/>
</svg>
