<svg version="1.1" id="master" xmlns="http://www.w3.org/2000/svg" xmlns:xlink="http://www.w3.org/1999/xlink" x="0px" y="0px"
	 width="24px" height="24px" viewBox="0 0 24 24" enable-background="new 0 0 24 24" xml:space="preserve">
<rect fill="none" width="24" height="24"/>
<path d="M14.728,12c2.009,0,3.636-1.627,3.636-3.636c0-2.01-1.627-3.637-3.636-3.637c-2.01,0-3.637,1.627-3.637,3.637
	C11.091,10.373,12.718,12,14.728,12z M6.545,10.182V7.455H4.727v2.727H2V12h2.727v2.728h1.818V12h2.728v-1.818H6.545z
	 M14.728,13.818c-2.427,0-7.273,1.218-7.273,3.636v1.818H22v-1.818C22,15.036,17.154,13.818,14.728,13.818z"/>
</svg>
