<?xml version="1.0" encoding="utf-8"?>
<!-- Generator: Adobe Illustrator 16.0.0, SVG Export Plug-In . SVG Version: 6.00 Build 0)  -->
<!DOCTYPE svg PUBLIC "-//W3C//DTD SVG 1.1//EN" "http://www.w3.org/Graphics/SVG/1.1/DTD/svg11.dtd">
<svg version="1.1" id="master" xmlns="http://www.w3.org/2000/svg" xmlns:xlink="http://www.w3.org/1999/xlink" x="0px" y="0px"
	 width="24px" height="24px" viewBox="0 0 24 24" enable-background="new 0 0 24 24" xml:space="preserve">
<path d="M6.022,10.656c1.6,3.144,4.177,5.71,7.322,7.322l2.444-2.444c0.3-0.3,0.744-0.399,1.133-0.269
	c1.244,0.414,2.589,0.635,3.968,0.635C21.5,15.898,22,16.4,22,17.011v3.878C22,21.5,21.5,22,20.889,22C10.456,22,2,13.545,2,3.111
	C2,2.5,2.5,2,3.111,2H7c0.611,0,1.111,0.5,1.111,1.111c0,1.389,0.222,2.722,0.633,3.966C8.867,7.467,8.778,7.9,8.466,8.211
	L6.022,10.656z"/>
</svg>
