<svg version="1.1" id="master" xmlns="http://www.w3.org/2000/svg" xmlns:xlink="http://www.w3.org/1999/xlink" x="0px" y="0px"
	 width="24px" height="24px" viewBox="0 0 24 24" enable-background="new 0 0 24 24" xml:space="preserve">
<rect fill="none" width="24" height="24"/>
<path d="M7.841,10.505H7.055l-0.429,2.208h0.699c0.463,0,0.808-0.088,1.035-0.263c0.227-0.175,0.379-0.466,0.458-0.874
	c0.077-0.392,0.042-0.668-0.103-0.829C8.568,10.586,8.278,10.505,7.841,10.505z M12,6.74C6.478,6.74,2,9.095,2,12
	s4.478,5.26,10,5.26S22,14.904,22,12S17.522,6.74,12,6.74z M9.284,12.949c-0.218,0.207-0.479,0.365-0.764,0.459
	c-0.28,0.09-0.638,0.137-1.071,0.137H6.464l-0.272,1.4H5.043l1.025-5.271h2.208c0.664,0,1.148,0.174,1.453,0.523
	c0.305,0.349,0.396,0.835,0.275,1.46c-0.046,0.248-0.132,0.486-0.254,0.706C9.632,12.576,9.476,12.771,9.284,12.949z M12.637,13.545
	l0.452-2.333c0.053-0.266,0.032-0.447-0.057-0.543c-0.089-0.097-0.28-0.145-0.572-0.145h-0.91l-0.586,3.021h-1.14l1.025-5.272h1.139
	l-0.272,1.401h1.015c0.639,0,1.078,0.112,1.321,0.334c0.242,0.222,0.314,0.583,0.219,1.083l-0.477,2.454H12.637z M18.968,11.657
	c-0.046,0.248-0.132,0.486-0.254,0.706c-0.12,0.213-0.275,0.409-0.468,0.586c-0.218,0.207-0.479,0.363-0.765,0.459
	c-0.279,0.09-0.638,0.137-1.071,0.137h-0.984l-0.271,1.402h-1.148l1.024-5.273h2.208c0.664,0,1.148,0.174,1.453,0.523
	C18.997,10.545,19.089,11.032,18.968,11.657z M16.805,10.505H16.02l-0.431,2.208h0.698c0.465,0,0.81-0.088,1.035-0.263
	c0.227-0.175,0.379-0.466,0.459-0.874c0.076-0.392,0.041-0.668-0.104-0.829C17.532,10.586,17.241,10.505,16.805,10.505
	L16.805,10.505z"/>
</svg>
