<svg version="1.1" id="master" xmlns="http://www.w3.org/2000/svg" xmlns:xlink="http://www.w3.org/1999/xlink" x="0px" y="0px"
	 width="24px" height="24px" viewBox="0 0 24 24" enable-background="new 0 0 24 24" xml:space="preserve">
<rect fill="none" width="24" height="24"/>
<path d="M17.93,13.667c-0.352,0.24-1.257,1.111-2.959,1.111c-1.704,0-2.61-0.869-2.961-1.111h-0.003
	c-0.254,0.174-1.222,1.111-2.961,1.111c-1.706,0-2.61-0.869-2.963-1.111H6.075c-0.29,0.197-0.927,0.786-2.069,1.014l1.076,3.226
	c0.151,0.453,0.575,0.76,1.053,0.761h11.731c0.479,0,0.903-0.307,1.055-0.761l1.075-3.224c-1.148-0.23-1.821-0.849-2.064-1.015
	L17.93,13.667z M20.889,11.444c-0.224,0-0.36-0.042-0.502-0.122C19.186,7.839,15.892,5.333,12,5.333
	c-3.891,0-7.188,2.507-8.387,5.991c-0.142,0.079-0.278,0.12-0.501,0.12C2.498,11.444,2,11.942,2,12.555
	c0,0.614,0.498,1.112,1.111,1.112c1.111,0,1.736-0.468,2.149-0.778c0.315-0.236,0.446-0.334,0.817-0.334
	c0.371,0,0.502,0.098,0.818,0.334c0.413,0.311,1.038,0.778,2.149,0.778s1.736-0.468,2.148-0.778
	c0.313-0.236,0.445-0.334,0.814-0.334s0.5,0.098,0.814,0.334c0.413,0.31,1.036,0.778,2.148,0.778c1.11,0,1.734-0.468,2.146-0.778
	c0.314-0.236,0.444-0.334,0.813-0.334c0.37,0,0.498,0.098,0.813,0.334c0.412,0.311,1.035,0.778,2.146,0.778
	c0.613,0,1.111-0.498,1.111-1.112C22,11.942,21.502,11.444,20.889,11.444z M9.164,8.36L8.608,9.471
	C8.28,10.125,7.283,9.637,7.614,8.974l0.556-1.11C8.5,7.208,9.492,7.702,9.164,8.36z M12.555,9.222c0,0.735-1.11,0.736-1.11,0V8.111
	c0-0.735,1.11-0.736,1.11,0V9.222z M15.392,9.471L14.837,8.36c-0.329-0.658,0.664-1.153,0.993-0.497l0.556,1.11
	C16.717,9.636,15.721,10.125,15.392,9.471z"/>
</svg>
