<svg version="1.1" id="master" xmlns="http://www.w3.org/2000/svg" xmlns:xlink="http://www.w3.org/1999/xlink" x="0px" y="0px"
	 width="24px" height="24px" viewBox="0 0 24 24" enable-background="new 0 0 24 24" xml:space="preserve">
<rect fill="none" width="24" height="24"/>
<path d="M21.445,9.222H20.42c-0.305-0.696-0.752-1.31-1.298-1.822l0.656-2.623h-1.111c-1.021,0-1.924,0.469-2.534,1.192
	c-0.264-0.038-0.526-0.081-0.8-0.081h-4.444c-2.687,0-4.929,1.909-5.443,4.444h-1.5c-0.514,0-0.921-0.467-0.818-1
	c0.077-0.396,0.447-0.667,0.851-0.667h0.035c0.116,0,0.209-0.094,0.209-0.21V7.765c0-0.116-0.094-0.209-0.209-0.209
	c-0.988,0-1.87,0.708-1.997,1.688c-0.152,1.186,0.772,2.201,1.929,2.201h1.389c0,1.812,0.88,3.404,2.222,4.419v2.803
	c0,0.308,0.249,0.557,0.556,0.557h2.222c0.307,0,0.555-0.249,0.555-0.557v-1.667h4.444v1.667c0,0.308,0.249,0.557,0.556,0.557h2.223
	c0.307,0,0.556-0.249,0.556-0.557v-2.803c0.41-0.31,0.776-0.676,1.085-1.086h1.693c0.306,0,0.555-0.249,0.555-0.555V9.777
	C22,9.471,21.751,9.222,21.445,9.222z M17,11.444c-0.307,0-0.555-0.249-0.555-0.556s0.248-0.556,0.555-0.556
	s0.555,0.249,0.555,0.556S17.307,11.444,17,11.444z"/>
</svg>
