<svg version="1.1" id="master" xmlns="http://www.w3.org/2000/svg" xmlns:xlink="http://www.w3.org/1999/xlink" x="0px" y="0px"
	 width="24px" height="24px" viewBox="0 0 24 24" enable-background="new 0 0 24 24" xml:space="preserve">
<path d="M12.015,2c-5.518,0-9.99,4.473-9.99,9.989c0,4.232,2.632,7.848,6.349,9.301c-0.088-0.79-0.166-2.002,0.034-2.865
	c0.183-0.78,1.171-4.964,1.171-4.964s-0.299-0.6-0.299-1.484c0-1.386,0.806-2.426,1.807-2.426c0.854,0,1.265,0.641,1.265,1.407
	c0,0.857-0.544,2.139-0.826,3.327c-0.237,0.994,0.5,1.805,1.479,1.805c1.773,0,3.141-1.871,3.141-4.573
	c0-2.384-1.72-4.058-4.174-4.058c-2.841,0-4.507,2.135-4.507,4.333c0,0.861,0.328,1.786,0.74,2.284
	c0.083,0.1,0.094,0.188,0.071,0.287c-0.075,0.313-0.244,0.999-0.278,1.136c-0.044,0.188-0.144,0.226-0.334,0.138
	c-1.246-0.575-2.028-2.398-2.028-3.872c0-3.147,2.29-6.043,6.601-6.043c3.465,0,6.159,2.473,6.159,5.77
	c0,3.446-2.172,6.218-5.194,6.218c-1.011,0-1.961-0.524-2.297-1.149l-0.625,2.373c-0.224,0.872-0.836,1.961-1.248,2.622
	C9.965,21.842,10.951,22,11.987,22c5.506,0,9.988-4.471,9.988-9.989c0-5.519-4.482-9.989-9.988-9.989L12.015,2z"/>
</svg>
