<svg version="1.1" id="master" xmlns="http://www.w3.org/2000/svg" xmlns:xlink="http://www.w3.org/1999/xlink" x="0px" y="0px"
	 width="24px" height="24px" viewBox="0 0 24 24" enable-background="new 0 0 24 24" xml:space="preserve">
<rect fill="none" width="24" height="24"/>
<path d="M9.487,4.163v14.624l3.262,1.05V7.573c0-0.575,0.254-0.959,0.661-0.826c0.53,0.151,0.634,0.679,0.634,1.255v4.896
	c2.034,0.994,3.636-0.002,3.636-2.628c0-2.697-0.939-3.896-3.699-4.855c-1.09-0.373-3.106-0.988-4.492-1.252H9.487z M13.366,17.698
	l5.247-1.896c0.596-0.215,0.688-0.521,0.205-0.681c-0.488-0.16-1.364-0.116-1.964,0.103l-3.505,1.249v-1.987l0.2-0.071
	c0,0,1.001-0.351,2.427-0.513c1.415-0.15,3.154,0.024,4.531,0.552c1.54,0.5,1.701,1.226,1.313,1.727
	c-0.387,0.5-1.352,0.862-1.352,0.862l-7.12,2.59v-1.914L13.366,17.698z M3.506,17.5c-1.583-0.454-1.845-1.391-1.127-1.934
	c0.667-0.488,1.799-0.876,1.799-0.876l4.68-1.678v1.927l-3.354,1.228c-0.587,0.226-0.688,0.526-0.199,0.688s1.364,0.125,1.953-0.101
	l1.615-0.588v1.729c-0.101,0.024-0.213,0.036-0.326,0.06c-1.615,0.277-3.33,0.164-5.031-0.398L3.506,17.5z"/>
</svg>
