<svg version="1.1" id="master" xmlns="http://www.w3.org/2000/svg" xmlns:xlink="http://www.w3.org/1999/xlink" x="0px" y="0px"
	 width="24px" height="24px" viewBox="0 0 24 24" enable-background="new 0 0 24 24" xml:space="preserve">
<path d="M19.329,7.424c-0.274-0.463-0.756-0.766-1.292-0.812c0.253-0.456,0.248-1.011-0.013-1.462
	c-0.356-0.625-1.094-0.925-1.78-0.788c-0.012-0.65-0.448-1.25-1.133-1.462c-0.521-0.168-1.09-0.075-1.529,0.25
	c-0.002-0.027-0.012-0.053-0.026-0.075c-0.277-0.825-1.213-1.263-2.083-0.998c-0.508,0.158-0.907,0.555-1.067,1.062
	C9.967,2.822,9.403,2.734,8.889,2.901c-0.686,0.212-1.12,0.812-1.133,1.462C7.07,4.225,6.332,4.524,5.976,5.149
	c-0.268,0.45-0.272,1.008-0.013,1.462c-0.526,0.05-1.028,0.337-1.292,0.812C4.519,7.688,4.485,7.971,4.504,8.249h14.991
	C19.515,7.971,19.482,7.688,19.329,7.424z M16.313,9.499l-1.094,10H13.46l0.845-10H9.697l0.842,10H8.78l-1.094-10H4.5l1.715,11.437
	C6.307,21.547,6.833,22,7.452,22h9.097c0.619,0,1.145-0.453,1.236-1.064L19.5,9.499H16.313z"/>
</svg>
