<svg version="1.1" id="master" xmlns="http://www.w3.org/2000/svg" xmlns:xlink="http://www.w3.org/1999/xlink" x="0px" y="0px"
	 width="24px" height="24px" viewBox="0 0 24 24" enable-background="new 0 0 24 24" xml:space="preserve">
<rect fill="none" width="24" height="24"/>
<path d="M20.123,15.933c-0.045,2.019-0.826,3.855-2.086,5.253C17.564,21.71,16.885,22,16.179,22H7.818
	c-0.694,0-1.369-0.278-1.836-0.793c-1.309-1.441-2.107-3.356-2.107-5.457c0-3.13,1.782-5.826,4.375-7.183V5.75h2.5v4.331
	c-0.789,0.413-3.919,1.513-4.33,5.022c2.572-1.286,4.986-1.213,7.102-0.155c1.757,0.879,3.177,0.803,4.096,0.803
	c-0.01-3.588-2.943-4.887-4.367-5.652V5.75h2.5v2.854C18.375,10.015,20.191,12.809,20.123,15.933z M7.625,4.5h8.75
	C16.721,4.5,17,4.221,17,3.875v-1.25C17,2.28,16.721,2,16.375,2h-8.75C7.28,2,7,2.28,7,2.625v1.25C7,4.221,7.28,4.5,7.625,4.5z"/>
</svg>
