<svg version="1.1" id="master" xmlns="http://www.w3.org/2000/svg" xmlns:xlink="http://www.w3.org/1999/xlink" x="0px" y="0px"
	 width="24px" height="24px" viewBox="0 0 24 24" enable-background="new 0 0 24 24" xml:space="preserve">
<rect fill="none" width="24" height="24"/>
<path d="M13.111,2h-2.223v11.111h2.223V2z M18.478,4.411L16.9,5.989C18.656,7.4,19.777,9.567,19.777,12
	c0,4.3-3.478,7.777-7.777,7.777c-4.3,0-7.778-3.478-7.778-7.777c0-2.433,1.122-4.6,2.867-6.022L5.522,4.411
	C3.367,6.244,2,8.955,2,12c0,5.523,4.478,10,10,10c5.523,0,10-4.477,10-10C22,8.955,20.633,6.244,18.478,4.411z"/>
</svg>
