<svg version="1.1" id="master" xmlns="http://www.w3.org/2000/svg" xmlns:xlink="http://www.w3.org/1999/xlink" x="0px" y="0px"
	 width="24px" height="24px" viewBox="0 0 24 24" enable-background="new 0 0 24 24" xml:space="preserve">
<rect fill="none" width="24" height="24"/>
<path d="M21.318,4.479c0.473,0,0.768,0.386,0.659,0.862l-3.049,13.317c-0.109,0.478-0.581,0.863-1.055,0.863H2.683
	c-0.474,0-0.769-0.386-0.66-0.863L5.072,5.341C5.18,4.864,5.652,4.479,6.126,4.479H21.318z M14.339,12.266
	c0.208-0.328,0.188-0.754-0.076-1.035L9.602,6.271C9.285,5.934,8.737,5.932,8.38,6.268C8.022,6.604,7.99,7.148,8.307,7.485
	l3.885,4.133v0.092l-6.183,4.478c-0.375,0.272-0.444,0.814-0.156,1.211c0.288,0.396,0.826,0.497,1.2,0.226l6.858-4.925
	C14.144,12.535,14.275,12.395,14.339,12.266z M12.008,15.932c-0.427-0.002-0.776,0.342-0.778,0.769v0.001
	c0,0.425,0.349,0.77,0.778,0.77h3.695c0.426,0.002,0.774-0.342,0.777-0.769c0-0.001,0-0.001,0-0.001
	c-0.002-0.427-0.35-0.771-0.777-0.77l0,0H12.008z"/>
</svg>
