<svg version="1.1" id="master" xmlns="http://www.w3.org/2000/svg" xmlns:xlink="http://www.w3.org/1999/xlink" x="0px" y="0px"
	 width="24px" height="24px" viewBox="0 0 24 24" enable-background="new 0 0 24 24" xml:space="preserve">
<path d="M13.111,6.444h-2.223v11.111h2.223V6.444z M20.542,17.18c0.169-0.277,0.323-0.563,0.465-0.857
	c0.022-0.045,0.044-0.09,0.065-0.136c0.118-0.254,0.224-0.515,0.32-0.78c0.028-0.078,0.059-0.154,0.085-0.232
	c0.081-0.242,0.149-0.489,0.212-0.739c0.024-0.099,0.054-0.196,0.076-0.297c0.054-0.248,0.093-0.501,0.128-0.755
	c0.014-0.102,0.035-0.2,0.046-0.303C21.978,12.725,22,12.365,22,12s-0.022-0.725-0.061-1.08c-0.011-0.103-0.032-0.203-0.047-0.305
	c-0.035-0.253-0.073-0.504-0.127-0.751c-0.022-0.103-0.053-0.202-0.078-0.303c-0.063-0.247-0.129-0.492-0.209-0.731
	c-0.027-0.081-0.059-0.16-0.088-0.239c-0.096-0.263-0.2-0.521-0.316-0.772c-0.022-0.048-0.047-0.096-0.07-0.145
	c-0.14-0.291-0.292-0.572-0.458-0.846c-0.005-0.007-0.009-0.014-0.013-0.021C18.777,3.928,15.617,2,12,2
	C8.379,2,5.217,3.931,3.462,6.813C3.461,6.814,3.46,6.816,3.459,6.818C3.29,7.096,3.134,7.383,2.992,7.678
	C2.971,7.723,2.949,7.767,2.928,7.813C2.81,8.067,2.704,8.328,2.607,8.594C2.579,8.672,2.549,8.748,2.522,8.826
	c-0.081,0.243-0.149,0.49-0.212,0.741C2.286,9.666,2.257,9.762,2.235,9.861c-0.054,0.249-0.093,0.502-0.128,0.757
	c-0.014,0.101-0.035,0.2-0.046,0.302C2.022,11.275,2,11.635,2,12s0.022,0.725,0.061,1.08c0.011,0.103,0.032,0.201,0.046,0.303
	c0.036,0.254,0.074,0.507,0.128,0.755c0.022,0.101,0.052,0.198,0.077,0.299c0.062,0.248,0.13,0.494,0.21,0.735
	c0.027,0.08,0.058,0.158,0.087,0.237c0.096,0.264,0.201,0.522,0.317,0.774c0.022,0.048,0.045,0.096,0.068,0.143
	c0.141,0.291,0.294,0.574,0.461,0.85c0.003,0.006,0.007,0.011,0.01,0.017C5.222,20.071,8.382,22,12,22
	c3.621,0,6.781-1.93,8.537-4.811C20.539,17.186,20.54,17.184,20.542,17.18z M7.083,18.027L7.1,18.011
	c-0.864-0.694-1.573-1.573-2.071-2.576c-0.018-0.035-0.034-0.07-0.051-0.105c-0.097-0.203-0.184-0.411-0.263-0.624
	c-0.023-0.063-0.047-0.125-0.068-0.188c-0.067-0.194-0.123-0.393-0.175-0.594c-0.019-0.075-0.041-0.15-0.058-0.227
	c-0.046-0.204-0.079-0.412-0.108-0.622c-0.01-0.072-0.025-0.144-0.033-0.216C4.241,12.577,4.223,12.291,4.223,12
	c0-0.023,0.003-0.046,0.003-0.07c0.002-0.263,0.017-0.523,0.045-0.78c0.01-0.091,0.028-0.179,0.041-0.269
	c0.028-0.19,0.057-0.38,0.098-0.566c0.02-0.091,0.046-0.179,0.069-0.269c0.048-0.184,0.099-0.366,0.16-0.544
	c0.027-0.079,0.057-0.157,0.086-0.235c0.071-0.189,0.148-0.376,0.234-0.558c0.028-0.06,0.057-0.12,0.086-0.179
	c0.103-0.205,0.213-0.404,0.333-0.598c0.02-0.033,0.039-0.065,0.059-0.098c0.449-0.704,1.007-1.332,1.651-1.856L7.084,5.973
	c1.339-1.094,3.05-1.75,4.916-1.75s3.577,0.657,4.916,1.75L16.9,5.989c0.863,0.694,1.571,1.572,2.069,2.573
	c0.019,0.037,0.036,0.074,0.054,0.112c0.097,0.201,0.182,0.407,0.26,0.617c0.024,0.065,0.05,0.13,0.072,0.196
	c0.064,0.189,0.119,0.382,0.17,0.578c0.021,0.082,0.044,0.162,0.063,0.245c0.044,0.195,0.075,0.394,0.104,0.594
	c0.012,0.081,0.028,0.161,0.037,0.242c0.03,0.281,0.049,0.565,0.049,0.854s-0.019,0.574-0.049,0.854
	c-0.009,0.082-0.025,0.162-0.037,0.243c-0.028,0.199-0.06,0.398-0.104,0.592c-0.019,0.086-0.043,0.17-0.064,0.254
	c-0.049,0.189-0.103,0.377-0.165,0.561c-0.025,0.075-0.054,0.148-0.081,0.223c-0.073,0.193-0.152,0.385-0.239,0.57
	c-0.026,0.057-0.054,0.113-0.082,0.169c-0.104,0.208-0.217,0.411-0.339,0.608c-0.018,0.029-0.034,0.059-0.053,0.088
	c-0.449,0.705-1.008,1.334-1.653,1.859l0.005,0.005c-1.339,1.094-3.05,1.751-4.916,1.751C10.133,19.777,8.423,19.12,7.083,18.027z"
	/>
</svg>
