<svg version="1.1" id="master" xmlns="http://www.w3.org/2000/svg" xmlns:xlink="http://www.w3.org/1999/xlink" x="0px" y="0px"
	 width="24px" height="24px" viewBox="0 0 24 24" enable-background="new 0 0 24 24" xml:space="preserve">
<path d="M14.5,7C15.881,7,17,5.881,17,4.5S15.881,2,14.5,2S12,3.119,12,4.5S13.119,7,14.5,7z M13.304,13.631
	c0.549,0.652,1.523,0.745,2.186,0.203l3.438-2.813c0.668-0.546,0.766-1.531,0.22-2.199c-0.545-0.668-1.53-0.765-2.199-0.219
	l-2.244,1.836l-1.52-1.809c-0.603-0.718-1.532-1.09-2.5-0.99C9.739,7.738,8.916,8.276,8.481,9.083l-1.928,3.595
	c-0.915,1.704-0.339,3.764,1.335,4.834l1.75,1.362H6.063c-0.863,0-1.563,0.7-1.563,1.563S5.199,22,6.063,22h8.125
	c1.331,0,2.101-1.672,1.105-2.668L11,15.042l1.359-2.534L13.304,13.631z"/>
</svg>
