<svg version="1.1" id="master" xmlns="http://www.w3.org/2000/svg" xmlns:xlink="http://www.w3.org/1999/xlink" x="0px" y="0px"
	 width="24px" height="24px" viewBox="0 0 24 24" enable-background="new 0 0 24 24" xml:space="preserve">
<rect fill="none" width="24" height="24"/>
<path d="M19.207,15.693h2.612v-5.405c0-1.532-1.171-2.703-2.702-2.703h-8.108L19.207,15.693z M19.117,9.388
	c0.495,0,0.9,0.405,0.9,0.901c0,0.495-0.405,0.901-0.9,0.901s-0.901-0.406-0.901-0.901C18.216,9.793,18.622,9.388,19.117,9.388z
	 M18.216,6.685V3.081H7.405v0.991l2.703,2.613H18.216z M3.081,2L2,3.081l4.414,4.505c-1.441,0.09-2.612,1.261-2.612,2.703v5.405
	h3.604v3.604h10.721L20.829,22L22,20.829L3.081,2z M9.207,17.495v-4.504h2.613l4.504,4.504H9.207z"/>
</svg>
