<svg version="1.1" id="master" xmlns="http://www.w3.org/2000/svg" xmlns:xlink="http://www.w3.org/1999/xlink" x="0px" y="0px"
	 width="24px" height="24px" viewBox="0 0 24 24" enable-background="new 0 0 24 24" xml:space="preserve">
<rect fill="none" width="24" height="24"/>
<path d="M14.222,7.042V4.354c0-0.21-0.118-0.403-0.306-0.497L12.54,3.17c-0.29-0.146-0.644-0.012-0.764,0.291L10.472,6.72
	C10.933,6.556,11.43,6.444,12,6.444C12.874,6.444,13.604,6.657,14.222,7.042z M19.198,8.428c-1.098-0.939-2.737-1.1-4.046-0.522
	c0.106,0.138,0.227,0.256,0.319,0.414c0.29,0.496,0.505,1.104,0.664,1.792c-0.129-0.306-0.276-0.586-0.446-0.838
	C14.902,8.128,13.673,7.555,12,7.555c-1.672,0-2.902,0.573-3.689,1.719c-0.17,0.252-0.318,0.532-0.446,0.837
	c0.16-0.688,0.375-1.296,0.664-1.792c0.093-0.158,0.213-0.276,0.32-0.414C7.539,7.328,5.9,7.489,4.802,8.428
	c-3.735,3.194-3.735,8.393,0,11.587c1.342,1.147,3.501,1.158,4.866,0.044c0.619,0.534,1.385,0.829,2.333,0.829
	s1.714-0.295,2.333-0.829c1.365,1.114,3.524,1.104,4.865-0.044C22.935,16.821,22.935,11.623,19.198,8.428z"/>
</svg>
