<svg version="1.1" id="master" xmlns="http://www.w3.org/2000/svg" xmlns:xlink="http://www.w3.org/1999/xlink" x="0px" y="0px"
	 width="24px" height="24px" viewBox="0 0 24 24" enable-background="new 0 0 24 24" xml:space="preserve">
<rect fill="none" width="24" height="24"/>
<path d="M13.865,2.15l0.746,0.167l0.604,0.217l0.489,0.25l0.374,0.268l0.28,0.283l0.207,0.283L16.7,3.894l0.083,0.25l0.033,0.217
	l0.017,0.167l-0.007,0.105v4.45l-0.042,0.525l-0.107,0.458l-0.174,0.383l-0.216,0.317l-0.249,0.258l-0.272,0.209l-0.291,0.158
	l-0.291,0.116l-0.272,0.083l-0.249,0.059l-0.215,0.033L14.271,11.7h-4.95L8.75,11.742l-0.49,0.117l-0.415,0.184l-0.34,0.226
	l-0.273,0.265l-0.224,0.292l-0.166,0.301l-0.124,0.308l-0.083,0.292l-0.058,0.268l-0.033,0.226l-0.017,0.174v2.55H4.678
	l-0.174-0.024l-0.232-0.06l-0.265-0.1l-0.291-0.15l-0.298-0.215L3.12,16.091l-0.291-0.383l-0.265-0.491l-0.232-0.608l-0.174-0.732
	l-0.116-0.875L2,11.975l0.05-1.017l0.133-0.867l0.198-0.725l0.266-0.592L2.945,8.3l0.332-0.367l0.348-0.274l0.349-0.201l0.332-0.133
	l0.298-0.084L4.87,7.199l0.199-0.008h0.133l0.05,0.008h6.766v-0.69H7.174L7.166,4.217L7.149,3.909l0.042-0.284l0.091-0.258
	l0.141-0.233L7.63,2.917l0.257-0.192l0.315-0.167l0.365-0.149L8.99,2.284l0.48-0.1l0.531-0.083l0.589-0.05l0.639-0.033L11.925,2
	l1.054,0.042L13.865,2.15z M8.642,3.8l-0.19,0.275L8.386,4.417l0.066,0.341l0.19,0.284l0.274,0.184l0.34,0.076l0.34-0.076
	L9.87,5.042l0.19-0.284l0.066-0.341L10.06,4.075L9.87,3.8L9.595,3.616l-0.34-0.074l-0.34,0.074L8.642,3.8z M19.496,7.092l0.232,0.05
	l0.265,0.101l0.29,0.149l0.299,0.225l0.299,0.292l0.29,0.391l0.267,0.492l0.23,0.608l0.175,0.733l0.115,0.866L22,12.025l-0.05,1.025
	l-0.134,0.866l-0.198,0.718l-0.265,0.591L21.055,15.7l-0.332,0.375l-0.349,0.274l-0.349,0.2l-0.332,0.134l-0.299,0.074l-0.266,0.041
	l-0.199,0.019l-0.133-0.01h-6.815v0.684h4.843l0.008,2.3l0.017,0.301l-0.041,0.283l-0.092,0.259l-0.141,0.241l-0.207,0.209
	l-0.258,0.199l-0.314,0.166l-0.365,0.143l-0.423,0.125l-0.479,0.107l-0.531,0.075l-0.589,0.06l-0.64,0.032L12.074,22l-1.053-0.033
	l-0.887-0.117l-0.746-0.167l-0.605-0.208l-0.489-0.249L7.92,20.949l-0.282-0.283L7.43,20.384l-0.133-0.275l-0.083-0.249
	l-0.033-0.208l-0.017-0.167l0.008-0.108v-4.451l0.042-0.533l0.107-0.45l0.174-0.383l0.215-0.316l0.249-0.267l0.273-0.2l0.291-0.167
	l0.29-0.115l0.273-0.084l0.249-0.051l0.215-0.033l0.174-0.017L9.832,12.3h4.843l0.571-0.042l0.488-0.117l0.416-0.175l0.34-0.233
	l0.273-0.268l0.223-0.291l0.166-0.301l0.125-0.299l0.082-0.292l0.06-0.268l0.033-0.233l0.017-0.174v-2.55h1.732l0.115,0.008
	L19.496,7.092L19.496,7.092z M14.131,18.967l-0.189,0.275l-0.066,0.342l0.066,0.341l0.189,0.275l0.273,0.191l0.34,0.065l0.341-0.065
	l0.272-0.191l0.19-0.275l0.065-0.341l-0.065-0.342l-0.19-0.275l-0.272-0.191l-0.341-0.066l-0.34,0.066L14.131,18.967z"/>
</svg>
