<svg version="1.1" id="master" xmlns="http://www.w3.org/2000/svg" xmlns:xlink="http://www.w3.org/1999/xlink"
	 x="0px" y="0px" width="24px" height="24px" viewBox="0 0 24 24" enable-background="new 0 0 24 24" xml:space="preserve">
<path d="M20.654,21.044L17,15.197v-2.572h0.287c1.222,0,2.213-0.991,2.213-2.213c0-0.715-0.345-1.385-0.926-1.801l-1.901-1.357
	c-0.042-0.021-0.088-0.029-0.132-0.047c0.305-0.488,0.594-1.163,0.803-1.94c0.442-1.65,0.354-3.107-0.195-3.254
	c-0.551-0.147-1.354,1.07-1.797,2.721c-0.106,0.397-0.18,0.78-0.227,1.139c-0.046-0.359-0.119-0.742-0.227-1.139
	c-0.442-1.65-1.246-2.868-1.797-2.721c-0.55,0.147-0.637,1.604-0.195,3.254c0.272,1.012,0.679,1.857,1.081,2.329
	c-0.356,0.31-0.622,0.723-0.705,1.232c-0.021,0.13-0.032,0.263-0.032,0.398V12h-0.5c-3.249,0-5.974,2.218-6.762,5.22
	C5.728,17.084,5.438,17,5.125,17c-1.036,0-1.875,0.84-1.875,1.875s0.839,1.875,1.875,1.875c0.31,0,0.598-0.083,0.855-0.215
	C6.374,21.397,7.239,22,8.25,22h5.625c0.345,0,0.625-0.28,0.625-0.625V20.75c0-0.69-0.56-1.25-1.25-1.25h-0.882l2.904-2.351
	l2.849,4.557C18.233,21.89,18.434,22,18.65,22h1.474C20.615,22,20.914,21.46,20.654,21.044z M16.375,10.125
	c-0.345,0-0.625-0.28-0.625-0.625c0-0.346,0.28-0.625,0.625-0.625S17,9.154,17,9.5C17,9.845,16.72,10.125,16.375,10.125z"/>
</svg>
