<svg version="1.1" id="master" xmlns="http://www.w3.org/2000/svg" xmlns:xlink="http://www.w3.org/1999/xlink" x="0px" y="0px"
	 width="24px" height="24px" viewBox="0 0 24 24" enable-background="new 0 0 24 24" xml:space="preserve">
<rect fill="none" width="24" height="24"/>
<path d="M3.657,6.905C2.961,7.171,2.476,7.876,2.476,8.667v11.429C2.476,21.143,3.324,22,4.381,22h15.238
	c1.057,0,1.904-0.857,1.904-1.904V8.667c0-1.057-0.848-1.905-1.904-1.905H8.476l7.868-3.181L15.695,2L3.657,6.905z M7.238,20.096
	c-1.581,0-2.857-1.276-2.857-2.857s1.276-2.857,2.857-2.857s2.857,1.276,2.857,2.857S8.819,20.096,7.238,20.096z M19.619,12.476
	h-1.904v-1.905h-1.906v1.905H4.381v-3.81h15.238V12.476z"/>
</svg>
