<svg version="1.1" id="master" xmlns="http://www.w3.org/2000/svg" xmlns:xlink="http://www.w3.org/1999/xlink" x="0px" y="0px"
	 width="24px" height="24px" viewBox="0 0 24 24" enable-background="new 0 0 24 24" xml:space="preserve">
<path d="M14.581,12h3.189c0.37,0,0.681-0.311,0.645-0.678c-0.186-1.758-1.088-3.298-2.398-4.347
	c-0.307-0.246-0.759-0.182-0.968,0.153l-1.682,2.694C14.093,10.274,14.581,11.081,14.581,12z M10.637,14.182l-1.686,2.697
	c-0.198,0.314-0.097,0.742,0.234,0.907c0.851,0.419,1.802,0.665,2.814,0.665c1.013,0,1.964-0.246,2.818-0.665
	c0.331-0.165,0.428-0.593,0.234-0.907l-1.686-2.697c-0.396,0.249-0.863,0.399-1.363,0.399
	C11.504,14.581,11.032,14.431,10.637,14.182z M6.229,12h3.19c0-0.919,0.488-1.726,1.218-2.182L8.956,7.125
	C8.746,6.791,8.294,6.726,7.988,6.972C6.673,8.02,5.774,9.561,5.589,11.319C5.544,11.689,5.859,12,6.229,12z M12,22
	c5.524,0,10-4.476,10-10S17.524,2,12,2S2,6.476,2,12S6.476,22,12,22z M12,4.581c4.093,0,7.419,3.327,7.419,7.419
	S16.093,19.419,12,19.419S4.581,16.093,4.581,12S7.907,4.581,12,4.581z M12,13.29c0.714,0,1.29-0.576,1.29-1.29
	s-0.576-1.291-1.29-1.291S10.709,11.286,10.709,12S11.286,13.29,12,13.29z"/>
</svg>
