<svg version="1.1" id="master" xmlns="http://www.w3.org/2000/svg" xmlns:xlink="http://www.w3.org/1999/xlink" x="0px" y="0px"
	 width="24px" height="24px" viewBox="0 0 24 24" enable-background="new 0 0 24 24" xml:space="preserve">
<path d="M15.427,16.448c-0.714,0.824-1.111,2.325-0.591,2.81c0.497,0.374,1.835,0.325,2.821-1.025c0.716-0.9,0.474-2.411,0.067-2.81
	c-0.608-0.463-1.482,0.137-2.298,1.035V16.448z M8.712,16.699c-0.757-0.868-1.741-1.382-2.376-1
	c-0.425,0.317-0.504,1.404,0.103,2.473c0.898,1.27,2.163,1.398,2.684,1.089C9.672,18.854,9.373,17.48,8.712,16.699z M12.133,19.319
	c-0.919-0.022-2.332,0.366-2.313,0.859c-0.015,0.336,1.109,1.311,2.254,1.262c1.106,0.024,2.25-0.949,2.235-1.374
	c-0.003-0.437-1.248-0.773-2.172-0.737L12.133,19.319z M12.07,7.699c-1.063-0.026-2.085,0.777-2.085,1.244
	c-0.003,0.567,0.84,1.146,2.091,1.162c1.287,0.008,2.099-0.466,2.111-1.05c0.014-0.662-1.161-1.365-2.099-1.355H12.07z M9.511,8.143
	c-1.779-0.288-3.261,0.75-3.202,2.66c0.059,0.736,3.858-2.534,3.203-2.648L9.511,8.143z M17.636,10.852
	c0.06-1.897-1.424-2.934-3.203-2.646C13.776,8.317,17.575,11.589,17.636,10.852z M17.939,11.538
	c-1.033-0.274-0.351,4.208,0.489,3.846c0.925-0.725,1.222-2.871-0.489-3.833V11.538z M5.524,15.435
	c0.839,0.374,1.522-4.108,0.491-3.834c-1.711,0.961-1.415,3.108-0.491,3.846V15.435z M13.37,10.478
	c-0.956,0.625-1.129,2.023-0.385,3.122c0.743,1.098,2.119,1.511,3.076,0.898c0.956-0.611,1.128-2.011,0.385-3.122
	c-0.742-1.111-2.12-1.511-3.076-0.886V10.478z M10.79,10.59c-0.955-0.611-2.333-0.211-3.074,0.887
	c-0.744,1.111-0.572,2.51,0.384,3.134c0.956,0.624,2.333,0.225,3.076-0.887c0.738-1.098,0.563-2.497-0.388-3.12L10.79,10.59z
	 M14.431,16.559c-0.007-1.161-1.043-2.099-2.318-2.086c-1.272,0.015-2.301,0.95-2.295,2.11v0.024
	c0.008,1.162,1.045,2.098,2.319,2.085c1.273,0,2.297-0.948,2.286-2.098V16.57L14.431,16.559z M17.105,3.947
	c-1.923,0.987-3.044,1.773-3.657,2.448c0.313,1.249,1.953,1.299,2.552,1.26c-0.122-0.05-0.227-0.124-0.262-0.224
	c0.149-0.1,0.684-0.013,1.056-0.212c-0.143-0.025-0.21-0.051-0.274-0.163c0.35-0.112,0.729-0.2,0.952-0.388
	c-0.12,0-0.232,0.025-0.39-0.075c0.314-0.162,0.648-0.299,0.912-0.548c-0.163,0-0.338,0-0.388-0.063
	c0.288-0.175,0.529-0.362,0.73-0.586c-0.227,0.037-0.325,0.013-0.379-0.025c0.218-0.212,0.495-0.399,0.625-0.675
	c-0.169,0.063-0.326,0.076-0.436,0c0.076-0.161,0.392-0.261,0.575-0.649c-0.179,0.025-0.367,0.039-0.405,0
	c0.082-0.324,0.225-0.511,0.363-0.711c-0.381,0-0.959,0-0.931-0.024l0.235-0.238c-0.374-0.1-0.753,0.013-1.03,0.1
	c-0.124-0.087,0-0.213,0.154-0.338c-0.325,0.051-0.611,0.113-0.862,0.213c-0.137-0.125,0.088-0.237,0.2-0.363
	c-0.499,0.1-0.699,0.225-0.911,0.35c-0.149-0.137-0.013-0.261,0.086-0.374c-0.374,0.137-0.562,0.312-0.762,0.473
	c-0.074-0.087-0.174-0.149-0.05-0.374c-0.261,0.15-0.461,0.325-0.61,0.524c-0.163-0.111-0.1-0.249-0.1-0.374
	c-0.275,0.225-0.451,0.45-0.662,0.676c-0.051-0.026-0.088-0.125-0.112-0.288c-0.649,0.625-1.575,2.186-0.238,2.796
	c1.125-0.912,2.484-1.585,3.983-2.085L17.105,3.947z M6.889,3.947c1.499,0.5,2.849,1.174,3.981,2.099
	c1.33-0.625,0.411-2.186-0.235-2.797c-0.034,0.162-0.071,0.274-0.112,0.299c-0.212-0.225-0.385-0.45-0.657-0.675
	c0,0.125,0.064,0.275-0.098,0.375c-0.146-0.2-0.341-0.375-0.604-0.525c0.124,0.213,0.021,0.275-0.047,0.374
	c-0.2-0.188-0.388-0.362-0.749-0.5c0.1,0.125,0.25,0.25,0.1,0.388c-0.2-0.124-0.412-0.25-0.898-0.35
	c0.112,0.125,0.336,0.25,0.198,0.375C7.505,2.909,7.218,2.834,6.906,2.796c0.15,0.125,0.285,0.241,0.16,0.337
	c-0.288-0.1-0.672-0.212-1.046-0.112l0.237,0.236c0.025,0.031-0.549,0.025-0.935,0.029c0.138,0.188,0.281,0.375,0.363,0.711
	c-0.038,0.038-0.225,0.014-0.402,0C5.47,4.373,5.781,4.473,5.855,4.636c-0.112,0.08-0.262,0.063-0.436,0
	c0.137,0.262,0.412,0.449,0.624,0.675c-0.062,0.037-0.15,0.062-0.387,0.03C5.855,5.559,6.093,5.753,6.38,5.928
	C6.33,5.987,6.154,5.986,5.981,5.991c0.262,0.253,0.6,0.387,0.912,0.553C6.73,6.657,6.618,6.631,6.505,6.631
	c0.212,0.188,0.6,0.274,0.949,0.387C7.379,7.13,7.318,7.155,7.168,7.18c0.374,0.212,0.898,0.113,1.048,0.225
	C8.179,7.504,8.08,7.579,7.955,7.63c0.599,0.038,2.247-0.012,2.56-1.261c-0.613-0.673-1.736-1.46-3.659-2.435L6.889,3.947z
	 M8.334,2.086C8.53,2.08,8.697,2.198,8.877,2.253c0.441-0.142,0.542,0.053,0.758,0.132c0.481-0.1,0.627,0.118,0.857,0.349
	l0.269-0.007c0.724,0.422,1.087,1.28,1.214,1.721c0.126-0.44,0.487-1.299,1.214-1.721l0.269,0.006
	c0.23-0.236,0.377-0.449,0.857-0.349c0.217-0.087,0.316-0.275,0.759-0.138c0.274-0.086,0.518-0.313,0.881-0.038
	c0.307-0.124,0.604-0.162,0.871,0.075c0.412-0.05,0.544,0.051,0.646,0.175c0.089,0,0.674-0.087,0.942,0.3
	c0.675-0.075,0.887,0.387,0.646,0.823c0.137,0.212,0.28,0.412-0.042,0.813c0.125,0.224,0.052,0.46-0.225,0.761
	c0.075,0.312-0.062,0.525-0.313,0.699c0.051,0.425-0.399,0.675-0.524,0.762c-0.05,0.25-0.15,0.487-0.662,0.612
	c-0.073,0.374-0.386,0.436-0.687,0.512c0.987,0.563,1.823,1.298,1.823,3.109l0.15,0.249c1.125,0.674,2.136,2.835,0.562,4.595
	c-0.099,0.549-0.273,0.938-0.425,1.373c-0.225,1.762-1.734,2.585-2.135,2.685c-0.573,0.438-1.198,0.85-2.035,1.136
	C13.764,21.688,12.901,22,12.053,22h-0.076c-0.861,0-1.719-0.313-2.51-1.112c-0.839-0.287-1.462-0.698-2.039-1.136
	c-0.399-0.101-1.903-0.923-2.135-2.685c-0.156-0.437-0.328-0.837-0.432-1.385c-1.578-1.761-0.567-3.921,0.555-4.596l0.143-0.25
	c0-1.81,0.837-2.548,1.823-3.108c-0.299-0.075-0.6-0.138-0.686-0.513C6.184,7.091,6.083,6.854,6.034,6.604
	C5.909,6.517,5.459,6.268,5.509,5.831C5.26,5.655,5.122,5.443,5.197,5.119C4.936,4.831,4.86,4.582,4.972,4.357
	C4.647,3.958,4.798,3.746,4.935,3.545C4.697,3.107,4.91,2.633,5.583,2.708c0.262-0.388,0.85-0.299,0.936-0.299
	C6.62,2.284,6.757,2.172,7.169,2.222c0.262-0.237,0.562-0.2,0.874-0.085C8.168,2.037,8.281,2,8.381,2L8.334,2.086z"/>
</svg>
