<svg version="1.1" id="master" xmlns="http://www.w3.org/2000/svg" xmlns:xlink="http://www.w3.org/1999/xlink" x="0px" y="0px"
	 width="24px" height="24px" viewBox="0 0 24 24" enable-background="new 0 0 24 24" xml:space="preserve">
<rect fill="none" width="24" height="24"/>
<path d="M18,17H6v-2h12V17z M18,13H6v-2h12V13z M18,9H6V7h12V9z M3,22l1.5-1.5L6,22l1.5-1.5L9,22l1.5-1.5L12,22l1.5-1.5L15,22
	l1.5-1.5L18,22l1.5-1.5L21,22V2l-1.5,1.5L18,2l-1.5,1.5L15,2l-1.5,1.5L12,2l-1.5,1.5L9,2L7.5,3.5L6,2L4.5,3.5L3,2V22z"/>
</svg>
