<svg version="1.1" id="master" xmlns="http://www.w3.org/2000/svg" xmlns:xlink="http://www.w3.org/1999/xlink"
	 x="0px" y="0px" width="24px" height="24px" viewBox="0 0 24 24" enable-background="new 0 0 24 24" xml:space="preserve">
<path d="M21.412,12.416l-1.821-1.821c-0.375-0.375-0.888-0.587-1.418-0.587l-3.175-0.006V17.5h0.006
	c0.003,1.065,0.69,2.071,1.716,2.381C18.432,20.399,20,19.134,20,17.5V17h1c0.55,0,1-0.45,1-1v-2.172
	C21.997,13.298,21.787,12.792,21.412,12.416z M17.497,18.5c-0.55,0-0.999-0.45-0.999-1c0-0.551,0.449-1,0.999-1s1,0.449,1,1
	C18.497,18.05,18.047,18.5,17.497,18.5z M16.998,13.001v-1.5h1.171c0.135,0,0.259,0.053,0.354,0.147l1.353,1.354H16.998z
	 M20.997,7.976c-0.013-1.644-1.351-2.975-2.999-2.975h-4v-0.5c0-0.275-0.225-0.5-0.5-0.5H9.499c-0.275,0-0.5,0.225-0.5,0.5v0.5H4
	c-1.103,0-2,0.897-2,2v6.172c0,0.531,0.209,1.04,0.584,1.415L5,17v0.356c0,1.306,0.94,2.5,2.243,2.627
	c1.497,0.151,2.756-1.021,2.756-2.487v-0.499h3.999V9.001h5.999C20.557,9.001,21,8.539,20.997,7.976z M7.499,18.5
	c-0.55,0-1-0.45-1-1c0-0.551,0.45-1,1-1s1,0.449,1,1C8.499,18.05,8.049,18.5,7.499,18.5z M9.999,10.501c0,0.274-0.225,0.5-0.5,0.5
	h-4c-0.275,0-0.5-0.225-0.5-0.5v-2c0-0.275,0.225-0.5,0.5-0.5h4c0.275,0,0.5,0.225,0.5,0.5V10.501z"/>
</svg>
