<svg version="1.1" id="icon_reddit" xmlns="http://www.w3.org/2000/svg" xmlns:xlink="http://www.w3.org/1999/xlink" x="0px" y="0px"
	 width="24px" height="24px" viewBox="0 0 24 24" enable-background="new 0 0 24 24" xml:space="preserve">
<path d="M9.692,14.096c-0.584,0-1.054-0.47-1.054-1.041C8.639,12.47,9.108,12,9.692,12c0.576,0,1.042,0.47,1.042,1.055
	C10.734,13.63,10.264,14.096,9.692,14.096z M22.5,12c0,5.801-4.699,10.5-10.5,10.5C6.2,22.5,1.5,17.801,1.5,12
	C1.5,6.2,6.2,1.5,12,1.5C17.801,1.5,22.5,6.2,22.5,12z M16.899,10.256c-0.399,0-0.75,0.165-1.009,0.423
	c-0.948-0.656-2.228-1.08-3.645-1.126l0.737-3.315l2.346,0.529c0,0.576,0.47,1.042,1.042,1.042c0.584,0,1.054-0.479,1.054-1.054
	c0-0.576-0.47-1.055-1.054-1.055c-0.411,0-0.763,0.246-0.937,0.584l-2.592-0.576c-0.127-0.034-0.258,0.06-0.291,0.187l-0.809,3.658
	c-1.406,0.06-2.671,0.479-3.62,1.135c-0.258-0.271-0.622-0.432-1.02-0.432c-1.478,0-1.96,1.985-0.61,2.658
	c-0.046,0.213-0.072,0.432-0.072,0.656c0,2.228,2.507,4.03,5.589,4.03c3.095,0,5.602-1.803,5.602-4.03
	c0-0.225-0.026-0.457-0.081-0.669C18.854,12.225,18.367,10.256,16.899,10.256z M13.981,15.176c-0.771,0.771-3.222,0.757-3.963,0
	c-0.093-0.094-0.258-0.094-0.352,0c-0.106,0.105-0.106,0.271,0,0.364c0.965,0.965,3.696,0.965,4.666,0
	c0.105-0.094,0.105-0.259,0-0.364C14.239,15.082,14.074,15.082,13.981,15.176z M14.308,12c-0.576,0-1.042,0.47-1.042,1.055
	c0,0.575,0.471,1.041,1.042,1.041c0.584,0,1.054-0.47,1.054-1.041C15.361,12.47,14.896,12,14.308,12z"/>
</svg>
