<?xml version="1.0" encoding="utf-8"?>
<!-- Generator: Adobe Illustrator 16.0.0, SVG Export Plug-In . SVG Version: 6.00 Build 0)  -->
<!DOCTYPE svg PUBLIC "-//W3C//DTD SVG 1.1//EN" "http://www.w3.org/Graphics/SVG/1.1/DTD/svg11.dtd">
<svg version="1.1" id="master" xmlns="http://www.w3.org/2000/svg" xmlns:xlink="http://www.w3.org/1999/xlink" x="0px" y="0px"
	 width="24px" height="24px" viewBox="0 0 24 24" enable-background="new 0 0 24 24" xml:space="preserve">
<path d="M19.77,9.789c-0.631,0-1.188,0.261-1.598,0.67c-1.504-1.041-3.531-1.711-5.779-1.783l1.168-5.261l3.719,0.834
	c0,0.91,0.742,1.652,1.652,1.652c0.928,0,1.674-0.763,1.674-1.673c0-0.911-0.742-1.674-1.674-1.674
	c-0.648,0-1.209,0.392-1.488,0.927l-4.105-0.91c-0.207-0.055-0.408,0.093-0.463,0.299l-1.283,5.801
	c-2.23,0.094-4.236,0.764-5.746,1.805c-0.41-0.426-0.987-0.687-1.619-0.687c-2.344,0-3.111,3.145-0.966,4.219
	c-0.076,0.334-0.109,0.688-0.109,1.041c0,3.533,3.979,6.396,8.864,6.396c4.907,0,8.888-2.863,8.888-6.396
	c0-0.354-0.039-0.725-0.131-1.057C22.877,12.912,22.102,9.789,19.77,9.789z M6.664,14.232c0-0.928,0.742-1.674,1.674-1.674
	c0.91,0,1.652,0.74,1.652,1.674c0,0.91-0.742,1.651-1.652,1.651C7.41,15.889,6.664,15.143,6.664,14.232z M15.698,18.174
	c-1.535,1.533-5.865,1.533-7.4,0c-0.168-0.148-0.168-0.408,0-0.578c0.147-0.146,0.409-0.146,0.556,0
	c1.172,1.201,5.061,1.223,6.282,0c0.146-0.146,0.408-0.146,0.557,0C15.867,17.766,15.867,18.025,15.698,18.174z M15.664,15.889
	c-0.911,0-1.652-0.742-1.652-1.652c0-0.928,0.741-1.674,1.652-1.674c0.928,0,1.674,0.742,1.674,1.674
	C17.333,15.143,16.592,15.889,15.664,15.889z"/>
</svg>
