<svg version="1.1" id="icon_reddit" xmlns="http://www.w3.org/2000/svg" xmlns:xlink="http://www.w3.org/1999/xlink" x="0px"
	 y="0px" width="24px" height="24px" viewBox="0 0 24 24" enable-background="new 0 0 24 24" xml:space="preserve">
<path d="M9.802,13.996c-0.556,0-1.003-0.447-1.003-0.991C8.799,12.448,9.246,12,9.802,12c0.549,0,0.992,0.448,0.992,1.005
	C10.794,13.553,10.347,13.996,9.802,13.996z M22,12c0,5.524-4.476,10-10,10C6.477,22,2,17.524,2,12C2,6.477,6.477,2,12,2
	C17.524,2,22,6.477,22,12z M16.665,10.339c-0.379,0-0.714,0.157-0.96,0.403c-0.903-0.625-2.122-1.029-3.472-1.072l0.702-3.158
	l2.234,0.504c0,0.548,0.447,0.993,0.992,0.993c0.556,0,1.004-0.457,1.004-1.004C17.166,6.457,16.718,6,16.162,6
	c-0.392,0-0.727,0.234-0.892,0.556l-2.47-0.548c-0.121-0.033-0.245,0.057-0.277,0.178l-0.77,3.484
	c-1.339,0.057-2.544,0.456-3.448,1.081c-0.246-0.258-0.592-0.412-0.971-0.412c-1.408,0-1.867,1.891-0.581,2.531
	c-0.044,0.203-0.069,0.411-0.069,0.625c0,2.122,2.388,3.838,5.323,3.838c2.949,0,5.334-1.717,5.334-3.838
	c0-0.214-0.023-0.435-0.076-0.638C18.527,12.214,18.064,10.339,16.665,10.339z M13.886,15.024c-0.733,0.735-3.068,0.722-3.773,0
	c-0.089-0.089-0.246-0.089-0.335,0c-0.101,0.101-0.101,0.259,0,0.347c0.919,0.919,3.52,0.919,4.443,0
	c0.101-0.09,0.101-0.246,0-0.347C14.133,14.936,13.976,14.936,13.886,15.024z M14.198,12c-0.548,0-0.993,0.448-0.993,1.005
	c0,0.548,0.448,0.991,0.993,0.991c0.557,0,1.003-0.447,1.003-0.991C15.201,12.448,14.759,12,14.198,12z"/>
</svg>
