<svg version="1.1" id="icon_redeem" xmlns="http://www.w3.org/2000/svg" xmlns:xlink="http://www.w3.org/1999/xlink" x="0px"
	 y="0px" width="24px" height="24px" viewBox="0 0 24 24" enable-background="new 0 0 24 24" xml:space="preserve">
<path d="M20,6.5h-2.18C17.93,6.19,18,5.85,18,5.5c0-1.66-1.34-3-3-3c-1.05,0-1.96,0.54-2.5,1.35L12,4.52l-0.5-0.68
	C10.96,3.04,10.05,2.5,9,2.5c-1.66,0-3,1.34-3,3c0,0.35,0.07,0.69,0.18,1H4c-1.11,0-1.99,0.89-1.99,2L2,19.5c0,1.109,0.89,2,2,2h16
	c1.109,0,2-0.891,2-2v-11C22,7.39,21.109,6.5,20,6.5z M15,4.5c0.55,0,1,0.45,1,1s-0.45,1-1,1s-1-0.45-1-1S14.45,4.5,15,4.5z M9,4.5
	c0.55,0,1,0.45,1,1s-0.45,1-1,1s-1-0.45-1-1S8.45,4.5,9,4.5z M20,19.5H4v-2h16V19.5z M20,14.5H4v-6h5.08L7,11.33l1.62,1.17L11,9.26
	l1-1.36l1,1.36l2.38,3.24L17,11.33L14.92,8.5H20V14.5z"/>
</svg>
