<svg version="1.1" id="master" xmlns="http://www.w3.org/2000/svg" xmlns:xlink="http://www.w3.org/1999/xlink" x="0px" y="0px"
	 width="24px" height="24px" viewBox="0 0 24 24" enable-background="new 0 0 24 24" xml:space="preserve">
<path d="M19.057,4.938C17.244,3.125,14.756,2,11.994,2C6.469,2,2.006,6.475,2.006,12c0,5.525,4.463,10,9.988,10
	c4.662,0,8.549-3.188,9.662-7.5h-2.6c-1.025,2.912-3.801,5-7.063,5c-4.138,0-7.5-3.361-7.5-7.5c0-4.138,3.362-7.5,7.5-7.5
	c2.074,0,3.926,0.862,5.275,2.226l-4.025,4.024h8.75V2L19.057,4.938z"/>
</svg>
