<?xml version="1.0" encoding="utf-8"?>
<!-- Generator: Adobe Illustrator 16.0.0, SVG Export Plug-In . SVG Version: 6.00 Build 0)  -->
<!DOCTYPE svg PUBLIC "-//W3C//DTD SVG 1.1//EN" "http://www.w3.org/Graphics/SVG/1.1/DTD/svg11.dtd">
<svg version="1.1" id="master" xmlns="http://www.w3.org/2000/svg" xmlns:xlink="http://www.w3.org/1999/xlink" x="0px" y="0px"
	 width="24px" height="24px" viewBox="0 0 24 24" enable-background="new 0 0 24 24" xml:space="preserve">
<path d="M19.059,4.938C17.244,3.125,14.758,2,11.996,2C6.47,2,2.006,6.475,2.006,12c0,5.525,4.462,10,9.988,10
	c4.662,0,8.549-3.187,9.662-7.5h-2.6c-1.023,2.912-3.803,5-7.063,5c-4.138,0-7.5-3.361-7.5-7.5c0-4.137,3.362-7.5,7.5-7.5
	c2.075,0,3.926,0.863,5.277,2.225l-4.027,4.025h8.75V2L19.059,4.938z"/>
</svg>
