<svg version="1.1" id="master" xmlns="http://www.w3.org/2000/svg" xmlns:xlink="http://www.w3.org/1999/xlink" x="0px" y="0px"
	 width="24px" height="24px" viewBox="0 0 24 24" enable-background="new 0 0 24 24" xml:space="preserve">
<path d="M11.403,6.963h1.88v2.744l6.494,6.494l1.024-1.033V8.156L15.85,3.203H8.838L7.813,4.237l3.59,3.59V6.963z M21.995,20.808
	L3.199,2L2.005,3.194l3.421,3.42L3.885,8.156v7.012l4.953,4.953h7.012l1.541-1.532L20.802,22L21.995,20.808z M12.343,16.644
	c-0.677,0-1.222-0.545-1.222-1.222c0-0.678,0.545-1.222,1.222-1.222c0.677,0,1.222,0.544,1.222,1.222
	C13.565,16.099,13.021,16.644,12.343,16.644z"/>
</svg>
