<svg version="1.1" id="master" xmlns="http://www.w3.org/2000/svg" xmlns:xlink="http://www.w3.org/1999/xlink" x="0px" y="0px"
	 width="24px" height="24px" viewBox="0 0 24 24" enable-background="new 0 0 24 24" xml:space="preserve">
<rect fill="none" width="24" height="24"/>
<path d="M3.486,19.355c-0.375,0.422-0.293,1.078,0.176,1.395l2.687,1.09c0.387,0.262,0.91,0.195,1.223-0.148l3.586-3.98
	l-3.094-3.434L3.486,19.355z M20.51,19.355c0,0-11.407-12.68-11.539-12.895c0.601-0.328,1.57-0.699,3.027-0.699
	s2.427,0.371,3.027,0.699c-0.128,0.219-2.188,2.523-2.188,2.523l3.091,3.426l1.335-1.484c1.121-1.246,1.302-3.07,0.446-4.512
	l-1.708-2.871c-0.167-0.281-0.386-0.52-0.655-0.703c-1.591-1.079-4.978-1.16-6.696,0C8.38,3.023,8.162,3.262,7.994,3.543
	L6.291,6.402C6.232,6.5,4.842,8.832,6.74,10.934l9.692,10.754c0.313,0.348,0.836,0.41,1.223,0.148l2.688-1.09
	C20.808,20.434,20.89,19.777,20.51,19.355z"/>
</svg>
