<svg version="1.1" id="master" xmlns="http://www.w3.org/2000/svg" xmlns:xlink="http://www.w3.org/1999/xlink" x="0px" y="0px"
	 width="24px" height="24px" viewBox="0 0 24 24" enable-background="new 0 0 24 24" xml:space="preserve">
<path d="M21.902,17.093L17.049,5.981c-0.173-0.396-0.549-0.648-0.963-0.648h-3.389l0.086,0.804c0.017,0.164-0.112,0.308-0.277,0.308
	h-1.012c-0.165,0-0.293-0.144-0.276-0.308l0.085-0.804H7.914c-0.415,0-0.791,0.253-0.963,0.648L2.097,17.093
	c-0.321,0.735,0.191,1.574,0.963,1.574h6.835l0.358-3.393c0.03-0.282,0.269-0.496,0.553-0.496h2.389
	c0.284,0,0.522,0.214,0.552,0.496l0.358,3.393h6.835C21.712,18.667,22.224,17.828,21.902,17.093z M11.042,7.804
	c0.015-0.142,0.134-0.249,0.276-0.249h1.364c0.143,0,0.263,0.107,0.277,0.249l0.159,1.514c0.026,0.246-0.167,0.46-0.413,0.46h-1.409
	c-0.248,0-0.44-0.214-0.414-0.46L11.042,7.804z M12.96,13.667h-1.92c-0.33,0-0.587-0.286-0.553-0.614l0.176-1.667
	c0.03-0.282,0.268-0.497,0.552-0.497h1.567c0.284,0,0.522,0.215,0.553,0.497l0.176,1.667C13.547,13.381,13.289,13.667,12.96,13.667z
	"/>
</svg>
