<svg version="1.1" id="master" xmlns="http://www.w3.org/2000/svg" xmlns:xlink="http://www.w3.org/1999/xlink" x="0px" y="0px"
	 width="24px" height="24px" viewBox="0 0 24 24" enable-background="new 0 0 24 24" xml:space="preserve">
<path d="M10.683,8.272c-0.076-0.172-0.114-0.358-0.114-0.557V4.853h2.863v2.863c0,0.199-0.038,0.384-0.114,0.557
	s-0.18,0.323-0.309,0.452s-0.28,0.232-0.452,0.308S12.199,9.147,12,9.147s-0.385-0.038-0.557-0.114s-0.323-0.179-0.452-0.308
	S10.759,8.445,10.683,8.272z M15.171,13.829c0.1,0.099,0.214,0.177,0.343,0.233c0.13,0.057,0.267,0.084,0.413,0.084
	c0.146,0,0.283-0.027,0.412-0.084s0.243-0.135,0.343-0.233c0.1-0.1,0.178-0.214,0.233-0.343C16.972,13.357,17,13.219,17,13.074
	v-1.432c0-0.146-0.028-0.283-0.085-0.413c-0.056-0.129-0.134-0.243-0.233-0.343s-0.214-0.177-0.343-0.233
	c-0.129-0.057-0.267-0.085-0.412-0.085c-0.146,0-0.283,0.028-0.413,0.085c-0.129,0.056-0.243,0.134-0.343,0.233
	s-0.177,0.214-0.233,0.343c-0.057,0.129-0.085,0.267-0.085,0.413v1.432c0,0.145,0.028,0.283,0.085,0.412
	S15.071,13.729,15.171,13.829z M7.661,10.653c-0.129,0.056-0.243,0.134-0.343,0.233s-0.178,0.214-0.233,0.343
	C7.028,11.359,7,11.497,7,11.642v1.432c0,0.145,0.028,0.283,0.085,0.412c0.056,0.129,0.134,0.243,0.233,0.343
	c0.1,0.099,0.214,0.177,0.343,0.233s0.267,0.084,0.412,0.084c0.146,0,0.283-0.027,0.413-0.084c0.129-0.057,0.241-0.135,0.338-0.233
	c0.096-0.1,0.172-0.214,0.229-0.343s0.084-0.268,0.084-0.412v-1.432c0-0.146-0.027-0.283-0.084-0.413
	c-0.057-0.129-0.133-0.243-0.229-0.343c-0.097-0.1-0.209-0.177-0.338-0.233c-0.13-0.057-0.267-0.085-0.413-0.085
	C7.928,10.568,7.79,10.597,7.661,10.653z M21.915,2.656C21.972,2.789,22,2.928,22,3.074c0,0.225-0.066,0.431-0.199,0.616
	c-0.132,0.186-0.305,0.315-0.517,0.388v7.207c0,0.199-0.036,0.384-0.109,0.557s-0.174,0.323-0.303,0.453
	c-0.13,0.129-0.28,0.232-0.452,0.308c-0.173,0.076-0.358,0.114-0.557,0.114v1.431l-2.982,2.804c-0.192,0.186-0.34,0.413-0.442,0.681
	c-0.103,0.269-0.154,0.535-0.154,0.801v2.296c-0.643,0.417-1.327,0.733-2.053,0.949S12.762,22,12,22s-1.506-0.107-2.231-0.323
	s-1.41-0.532-2.053-0.949v-2.296c0-0.278-0.052-0.545-0.154-0.801c-0.103-0.255-0.25-0.482-0.442-0.681l-2.982-2.804v-1.431
	c-0.198,0-0.384-0.038-0.557-0.114c-0.172-0.076-0.322-0.179-0.452-0.308c-0.129-0.129-0.23-0.28-0.303-0.453
	c-0.073-0.172-0.109-0.358-0.109-0.557V4.078C2.504,4.005,2.331,3.875,2.199,3.69C2.066,3.504,2,3.299,2,3.074
	c0-0.146,0.028-0.285,0.085-0.417c0.056-0.133,0.132-0.247,0.229-0.343c0.096-0.096,0.208-0.172,0.338-0.229
	C2.78,2.028,2.921,2,3.073,2C3.22,2,3.356,2.028,3.486,2.084c0.129,0.056,0.241,0.134,0.338,0.233
	c0.096,0.1,0.172,0.214,0.229,0.343C4.109,2.79,4.137,2.928,4.137,3.074c0,0.159-0.034,0.312-0.104,0.457
	c-0.07,0.146-0.168,0.269-0.294,0.368l0.835,3.38c0.18-0.364,0.404-0.697,0.677-0.999C5.522,5.978,5.825,5.723,6.16,5.514
	c0.335-0.208,0.694-0.371,1.078-0.487c0.385-0.116,0.782-0.174,1.193-0.174v5H6.643c-0.146,0-0.284,0.028-0.413,0.084
	s-0.243,0.134-0.343,0.233c-0.1,0.1-0.178,0.214-0.233,0.343c-0.057,0.129-0.085,0.267-0.085,0.413v2.863
	c0,0.146,0.028,0.283,0.085,0.412c0.056,0.13,0.134,0.244,0.233,0.344s0.214,0.178,0.343,0.233s0.267,0.085,0.413,0.085h10.715
	c0.146,0,0.284-0.029,0.413-0.085s0.243-0.134,0.343-0.233s0.178-0.214,0.233-0.344c0.057-0.129,0.085-0.266,0.085-0.412v-2.863
	c0-0.146-0.028-0.283-0.085-0.413c-0.056-0.129-0.134-0.243-0.233-0.343c-0.1-0.099-0.214-0.177-0.343-0.233
	s-0.267-0.084-0.413-0.084h-1.789v-5c0.411,0,0.809,0.058,1.193,0.174c0.384,0.116,0.743,0.278,1.078,0.487
	c0.335,0.209,0.638,0.464,0.909,0.766c0.272,0.302,0.497,0.635,0.677,0.999l0.835-3.38c-0.126-0.099-0.224-0.222-0.294-0.368
	c-0.069-0.146-0.104-0.298-0.104-0.457c0-0.146,0.027-0.284,0.084-0.413c0.057-0.129,0.133-0.244,0.229-0.343
	c0.097-0.099,0.209-0.177,0.338-0.233C20.644,2.028,20.78,2,20.927,2c0.146,0,0.284,0.028,0.417,0.084s0.247,0.133,0.343,0.229
	C21.783,2.409,21.859,2.523,21.915,2.656z M14.853,17H9.137v1.432h5.716V17z"/>
</svg>
