<svg version="1.1" id="master" xmlns="http://www.w3.org/2000/svg" xmlns:xlink="http://www.w3.org/1999/xlink" x="0px" y="0px"
	 width="24px" height="24px" viewBox="0 0 24 24" enable-background="new 0 0 24 24" xml:space="preserve">
<rect fill="none" width="24" height="24"/>
<path d="M21.729,2.746c-0.051-0.239-0.238-0.425-0.477-0.477C19.995,2,19.011,2,18.031,2C14,2,11.581,4.156,9.777,7h-4.07
	C4.997,7.001,4.35,7.401,4.032,8.035l-1.931,3.859c-0.231,0.463-0.042,1.026,0.42,1.257c0.13,0.064,0.274,0.099,0.419,0.099h4.053
	l-0.877,0.877c-0.488,0.488-0.488,1.28,0,1.768l1.988,1.989c0.488,0.488,1.28,0.488,1.768,0c0,0,0,0,0,0l0.878-0.877v4.056
	C10.75,21.58,11.17,22,11.688,22c0.145,0,0.289-0.033,0.418-0.098l3.856-1.93c0.636-0.317,1.036-0.966,1.035-1.676v-4.078
	c2.836-1.809,5-4.235,5-8.246C22.001,4.988,22.001,4.004,21.729,2.746z M17.001,8.563c-0.862,0-1.563-0.699-1.563-1.563
	s0.7-1.563,1.563-1.563S18.563,6.137,18.563,7S17.863,8.563,17.001,8.563z"/>
</svg>
