<svg version="1.1" id="master" xmlns="http://www.w3.org/2000/svg" xmlns:xlink="http://www.w3.org/1999/xlink" x="0px" y="0px"
	 width="24px" height="24px" viewBox="0 0 24 24" enable-background="new 0 0 24 24" xml:space="preserve">
<rect fill="none" width="24" height="24"/>
<path d="M6.797,9.956l-1.489-1.5c-0.951,1.226-1.543,2.641-1.723,4.11h2.134C5.867,11.646,6.237,10.748,6.797,9.956z M5.719,14.679
	H3.585c0.18,1.469,0.761,2.885,1.712,4.11l1.489-1.5C6.237,16.496,5.867,15.608,5.719,14.679z M6.786,20.3
	c1.226,0.951,2.652,1.521,4.12,1.7v-2.144c-0.919-0.159-1.807-0.519-2.599-1.089L6.786,20.3z M13.02,5.243V2L8.213,6.807
	l4.807,4.702V7.377c3,0.507,5.283,3.106,5.283,6.245c0,3.139-2.283,5.736-5.283,6.244V22c4.174-0.518,7.396-4.067,7.396-8.378
	C20.415,9.311,17.193,5.761,13.02,5.243z"/>
</svg>
