<svg version="1.1" id="master" xmlns="http://www.w3.org/2000/svg" xmlns:xlink="http://www.w3.org/1999/xlink" x="0px" y="0px"
	 width="24px" height="24px" viewBox="0 0 24 24" enable-background="new 0 0 24 24" xml:space="preserve">
<path d="M15.788,6.807L10.981,2v3.243c-4.163,0.518-7.396,4.068-7.396,8.379c0,4.311,3.222,7.86,7.396,8.378v-2.134
	c-3-0.508-5.283-3.105-5.283-6.244c0-3.138,2.282-5.737,5.283-6.245v4.131L15.788,6.807z M20.415,12.565
	c-0.18-1.469-0.76-2.884-1.71-4.11l-1.501,1.5c0.57,0.792,0.929,1.69,1.077,2.61H20.415z M13.094,19.856v2.133
	c1.47-0.179,2.896-0.75,4.121-1.7l-1.521-1.521C14.9,19.338,14.013,19.707,13.094,19.856z M17.204,17.299l1.501,1.49
	c0.95-1.226,1.53-2.642,1.71-4.11h-2.134C18.133,15.598,17.774,16.496,17.204,17.299z"/>
</svg>
