<svg version="1.1" id="master" xmlns="http://www.w3.org/2000/svg" xmlns:xlink="http://www.w3.org/1999/xlink" x="0px" y="0px"
	 width="24px" height="24px" viewBox="0 0 24 24" enable-background="new 0 0 24 24" xml:space="preserve">
<path d="M21.111,5.222L22,4.333C20.444,2.778,18.444,2,16.444,2s-4,0.778-5.556,2.333l0.889,0.889c1.334-1.222,3-1.889,4.667-1.889
	S19.777,4,21.111,5.222z M20.111,6.111c-1-1-2.333-1.556-3.667-1.556c-1.333,0-2.667,0.556-3.666,1.556L13.667,7
	c0.777-0.778,1.777-1.111,2.777-1.111c1.001,0,2,0.333,2.778,1.111L20.111,6.111z M19.777,13.111h-2.222V8.667h-2.223v4.445H4.222
	C3,13.111,2,14.111,2,15.333v4.444C2,21,3,22,4.222,22h15.555C21,22,22,21,22,19.777v-4.444C22,14.111,21,13.111,19.777,13.111z
	 M7.556,18.667H5.333v-2.223h2.222V18.667z M11.444,18.667H9.222v-2.223h2.222V18.667z M15.333,18.667h-2.222v-2.223h2.222V18.667z"
	/>
</svg>
