<svg version="1.1" id="master" xmlns="http://www.w3.org/2000/svg" xmlns:xlink="http://www.w3.org/1999/xlink" x="0px" y="0px"
	 width="24px" height="24px" viewBox="0 0 24 24" enable-background="new 0 0 24 24" xml:space="preserve">
<path d="M18.25,14.5H14.5c-0.688,0-1.25-0.563-1.25-1.25S13.813,12,14.5,12h3.75c0,0,3.75-4.18,3.75-6.25S20.32,2,18.25,2
	S14.5,3.68,14.5,5.75c0,0.996,0.867,2.477,1.77,3.75H14.5c-2.066,0-3.75,1.684-3.75,3.75S12.434,17,14.5,17h3.75
	c0.688,0,1.25,0.563,1.25,1.25s-0.563,1.25-1.25,1.25H9.246c-0.625,0.969-1.32,1.863-1.848,2.5H18.25c2.066,0,3.75-1.684,3.75-3.75
	S20.316,14.5,18.25,14.5z M18.25,4.5c0.691,0,1.25,0.559,1.25,1.25S18.941,7,18.25,7S17,6.441,17,5.75S17.559,4.5,18.25,4.5z
	 M5.75,12C3.68,12,2,13.68,2,15.75S5.75,22,5.75,22s3.75-4.18,3.75-6.25S7.82,12,5.75,12z M5.75,17c-0.691,0-1.25-0.559-1.25-1.25
	s0.559-1.25,1.25-1.25S7,15.059,7,15.75S6.441,17,5.75,17z"/>
</svg>
