<svg version="1.1" id="master" xmlns="http://www.w3.org/2000/svg" xmlns:xlink="http://www.w3.org/1999/xlink" x="0px" y="0px"
	 width="24px" height="24px" viewBox="0 0 24 24" enable-background="new 0 0 24 24" xml:space="preserve">
<path d="M8.521,13.739l-3.913,3.913l1.305,1.304l3.043-3.043h1.739L8.521,13.739z M14.174,2c-0.956,0-1.739,0.783-1.739,1.739
	s0.783,1.739,1.739,1.739s1.739-0.782,1.739-1.739S15.13,2,14.174,2z M19.392,19.399L16.782,22l-2.6-2.617v-1.296l-6.174-6.165
	c-0.27,0.043-0.531,0.061-0.792,0.061v-1.878c1.444,0.026,3.14-0.756,4.062-1.774l1.218-1.348c0.165-0.183,0.373-0.33,0.6-0.435
	c0.252-0.122,0.539-0.2,0.835-0.2h0.025c1.079,0.009,1.957,0.887,1.957,1.965v5c0,0.73-0.304,1.4-0.8,1.879L12,12.078v-1.974
	c-0.548,0.452-1.244,0.887-1.991,1.209l5.47,5.469h1.304L19.392,19.399z"/>
</svg>
