<svg version="1.1" id="master" xmlns="http://www.w3.org/2000/svg" xmlns:xlink="http://www.w3.org/1999/xlink" x="0px" y="0px"
	 width="24px" height="24px" viewBox="0 0 24 24" enable-background="new 0 0 24 24" xml:space="preserve">
<path d="M18.797,2.069c2.527,0.438,3.244,2.165,3.19,3.975L22,6.019l-1.138,14.906L6.075,21.938h0.013
	C4.861,21.887,2.125,21.773,2,17.949l1.371-2.5l2.349,5.488l0.419,0.977l2.337-7.62L8.452,14.3l0.013-0.024l7.713,2.463
	l-1.163-4.525l-0.825-3.25l7.35-0.475l-0.513-0.425L15.75,3.762l3.049-1.7L18.797,2.069z M2,17.907v0.022v-0.024V17.907z
	 M6.275,6.228c2.967-2.944,6.797-4.684,8.268-3.2c1.469,1.48-0.087,5.088-3.061,8.03C8.513,14,4.73,15.836,3.263,14.355
	C1.791,12.874,3.3,9.174,6.272,6.23L6.275,6.228z"/>
</svg>
