<svg version="1.1" id="master" xmlns="http://www.w3.org/2000/svg" xmlns:xlink="http://www.w3.org/1999/xlink" x="0px" y="0px"
	 width="24px" height="24px" viewBox="0 0 24 24" enable-background="new 0 0 24 24" xml:space="preserve">
<path d="M20.975,3.025C20.383,2.434,18.702,2,16.577,2c-3.256,0-7.558,1.015-10.55,4.006C1.07,10.975,1.535,19.474,3.025,20.975
	C3.617,21.566,5.298,22,7.423,22c3.256,0,7.559-1.015,10.55-4.007C22.93,13.026,22.466,4.526,20.975,3.025z M7.518,7.518
	c2.791-2.79,6.712-3.297,8.489-3.372c-2.167,0.994-4.715,2.59-6.988,4.874c-2.283,2.283-3.88,4.841-4.884,7.009
	C4.241,13.406,5.065,9.959,7.518,7.518z M16.482,16.482c-2.792,2.79-6.713,3.297-8.489,3.371c2.167-0.993,4.714-2.589,6.988-4.872
	c2.283-2.283,3.879-4.842,4.883-7.009C19.759,10.594,18.936,14.04,16.482,16.482z"/>
</svg>
