<svg version="1.1" id="master" xmlns="http://www.w3.org/2000/svg" xmlns:xlink="http://www.w3.org/1999/xlink" x="0px" y="0px"
	 width="24px" height="24px" viewBox="0 0 24 24" enable-background="new 0 0 24 24" xml:space="preserve">
<path d="M21.866,9.601L18.976,4.51c-0.237-0.422-0.827-0.688-1.365-0.372L2.5,13.009c-0.478,0.282-0.644,0.903-0.366,1.391
	l2.891,5.091c0.238,0.419,0.828,0.688,1.366,0.372l15.11-8.872C21.979,10.71,22.142,10.088,21.866,9.601z M6.072,18.287
	l-2.387-4.209l1.437-0.844l1.069,1.884c0.069,0.122,0.222,0.163,0.341,0.095l0.831-0.488c0.119-0.068,0.16-0.225,0.091-0.347
	l-1.069-1.884l1.263-0.74l0.584,1.028c0.068,0.122,0.222,0.163,0.34,0.094l0.832-0.487c0.119-0.069,0.159-0.225,0.09-0.347
	L8.91,11.013l1.263-0.74l1.069,1.884c0.069,0.122,0.222,0.162,0.34,0.094l0.832-0.488c0.119-0.069,0.159-0.225,0.091-0.347
	l-1.066-1.891l1.263-0.741l0.584,1.028c0.068,0.122,0.222,0.163,0.341,0.094l0.831-0.488c0.118-0.068,0.159-0.225,0.091-0.347
	l-0.584-1.028l1.262-0.741l1.068,1.884c0.068,0.122,0.223,0.163,0.341,0.094l0.831-0.488c0.119-0.068,0.16-0.225,0.092-0.347
	l-1.069-1.884l1.437-0.844l2.392,4.209L6.072,18.287z"/>
</svg>
