<svg version="1.1" id="master" xmlns="http://www.w3.org/2000/svg" xmlns:xlink="http://www.w3.org/1999/xlink" x="0px" y="0px"
	 width="24px" height="24px" viewBox="0 0 24 24" enable-background="new 0 0 24 24" xml:space="preserve">
<rect fill="none" width="24" height="24"/>
<path d="M14.372,5.721c1.022,0,1.86-0.837,1.86-1.86c0-1.023-0.838-1.86-1.86-1.86c-1.023,0-1.86,0.837-1.86,1.86
	C12.512,4.883,13.349,5.721,14.372,5.721z M11.023,18.65l0.93-4.093l1.953,1.861V22h1.861v-6.977l-1.953-1.86l0.558-2.792
	c1.209,1.396,3.069,2.326,5.116,2.326v-1.86c-1.768,0-3.256-0.93-4.001-2.232l-0.93-1.489c-0.372-0.558-0.931-0.93-1.581-0.93
	c-0.279,0-0.465,0.093-0.745,0.093L7.395,8.325v4.372h1.861V9.535l1.674-0.651l-1.488,7.536l-4.558-0.931l-0.372,1.86L11.023,18.65z
	"/>
</svg>
