<svg version="1.1" id="master" xmlns="http://www.w3.org/2000/svg" xmlns:xlink="http://www.w3.org/1999/xlink" x="0px" y="0px"
	 width="24px" height="24px" viewBox="0 0 24 24" enable-background="new 0 0 24 24" xml:space="preserve">
<path d="M12,22C6.478,22,2,17.522,2,12S6.478,2,12,2s10,4.478,10,10S17.522,22,12,22z M12,21.375c5.178,0,9.375-4.197,9.375-9.375
	c0-5.177-4.197-9.375-9.375-9.375c-5.177,0-9.375,4.198-9.375,9.375C2.625,17.178,6.823,21.375,12,21.375z M12,3.667
	c0.115,0,0.208,0.093,0.208,0.208v0.833c0,0.115-0.093,0.208-0.208,0.208s-0.208-0.093-0.208-0.208V3.875
	C11.792,3.76,11.885,3.667,12,3.667z M12,19.083c0.115,0,0.208,0.093,0.208,0.209v0.833c0,0.115-0.093,0.208-0.208,0.208
	s-0.208-0.093-0.208-0.208v-0.833C11.792,19.176,11.885,19.083,12,19.083z M17.892,6.107c0.082,0.081,0.082,0.213,0,0.294
	l-0.589,0.59c-0.081,0.082-0.213,0.082-0.295,0c-0.081-0.082-0.081-0.213,0-0.295l0.59-0.589C17.68,6.026,17.812,6.026,17.892,6.107
	z M6.992,17.008c0.082,0.082,0.082,0.214,0,0.295c0,0,0,0,0,0.001l-0.59,0.588c-0.077,0.087-0.208,0.094-0.294,0.018
	c-0.085-0.077-0.093-0.208-0.017-0.294c0.005-0.007,0.011-0.012,0.017-0.018l0.589-0.59C6.778,16.927,6.91,16.927,6.992,17.008
	C6.991,17.008,6.991,17.008,6.992,17.008z M6.107,6.108c0.081-0.081,0.213-0.081,0.294,0l0.59,0.589
	c0.082,0.082,0.082,0.213,0,0.295s-0.213,0.082-0.295,0l-0.589-0.59C6.026,6.321,6.026,6.189,6.107,6.108z M17.008,17.008
	c0.082-0.081,0.214-0.081,0.295,0l0,0l0.589,0.59c0.087,0.078,0.094,0.21,0.018,0.294c-0.077,0.087-0.208,0.094-0.294,0.018
	c-0.007-0.006-0.012-0.011-0.018-0.018l-0.59-0.588C16.927,17.223,16.927,17.09,17.008,17.008L17.008,17.008z M3.667,12
	c0-0.115,0.093-0.208,0.208-0.208h0.833c0.115,0,0.208,0.093,0.208,0.208s-0.093,0.208-0.208,0.208H3.875
	C3.76,12.208,3.667,12.115,3.667,12z M19.083,12c0-0.115,0.093-0.208,0.209-0.208h0.833c0.115,0,0.208,0.093,0.208,0.208
	s-0.093,0.208-0.208,0.208h-0.833C19.176,12.208,19.083,12.115,19.083,12z M15.256,4.329c0.105,0.045,0.155,0.167,0.111,0.273v0
	L15.04,5.369C15,5.477,14.879,5.531,14.771,5.49s-0.161-0.161-0.12-0.269c0.002-0.005,0.003-0.01,0.007-0.015l0.324-0.767
	C15.027,4.334,15.149,4.284,15.256,4.329C15.255,4.329,15.255,4.329,15.256,4.329z M9.233,18.521
	c0.105,0.044,0.154,0.166,0.11,0.272l-0.325,0.767c-0.049,0.104-0.173,0.147-0.277,0.099c-0.099-0.045-0.145-0.16-0.106-0.262
	l0.325-0.767C9.005,18.525,9.127,18.475,9.233,18.521C9.233,18.521,9.233,18.521,9.233,18.521L9.233,18.521z M19.727,8.877
	c0.043,0.106-0.009,0.228-0.115,0.271l-0.772,0.313c-0.106,0.043-0.228-0.008-0.271-0.115c-0.043-0.106,0.008-0.228,0.115-0.271
	l0.771-0.312C19.562,8.719,19.684,8.771,19.727,8.877L19.727,8.877z M5.433,14.653c0.043,0.105-0.008,0.228-0.115,0.271c0,0,0,0,0,0
	l-0.772,0.312c-0.105,0.048-0.228,0-0.275-0.105c-0.047-0.104,0-0.228,0.105-0.275c0.004-0.001,0.009-0.003,0.014-0.005l0.772-0.313
	C5.268,14.494,5.389,14.546,5.433,14.653C5.432,14.652,5.433,14.652,5.433,14.653z M8.878,4.273C8.985,4.23,9.106,4.282,9.149,4.389
	l0.313,0.772c0.043,0.107-0.008,0.229-0.115,0.272C9.24,5.476,9.118,5.424,9.075,5.317l0,0L8.764,4.545
	C8.72,4.438,8.771,4.317,8.878,4.273L8.878,4.273z M14.653,18.567c0.107-0.043,0.228,0.008,0.271,0.114c0,0,0,0,0,0.001l0.312,0.771
	c0.047,0.106,0,0.229-0.104,0.276c-0.106,0.046-0.229-0.001-0.275-0.105c-0.002-0.005-0.004-0.01-0.006-0.014l-0.313-0.772
	C14.495,18.732,14.547,18.611,14.653,18.567L14.653,18.567z M4.329,8.744c0.045-0.106,0.167-0.156,0.273-0.111h0l0.767,0.326
	c0.104,0.049,0.149,0.173,0.1,0.277c-0.046,0.099-0.16,0.145-0.262,0.106L4.44,9.018C4.334,8.973,4.284,8.851,4.329,8.744
	C4.329,8.744,4.329,8.744,4.329,8.744z M18.521,14.767c0.044-0.104,0.166-0.153,0.272-0.108l0.767,0.324
	c0.107,0.041,0.161,0.161,0.12,0.269s-0.161,0.162-0.269,0.121c-0.005-0.001-0.01-0.004-0.015-0.006l-0.767-0.326
	C18.525,14.996,18.475,14.874,18.521,14.767C18.521,14.768,18.521,14.768,18.521,14.767L18.521,14.767z M12.732,12.732l-1.466-1.466
	l-3.451,4.916L12.732,12.732L12.732,12.732z M17.892,6.107L13.03,13.03l-6.923,4.861l4.862-6.922L17.892,6.107z"/>
</svg>
