<svg version="1.1" id="master" xmlns="http://www.w3.org/2000/svg" xmlns:xlink="http://www.w3.org/1999/xlink" x="0px" y="0px"
	 width="24px" height="24px" viewBox="0 0 24 24" enable-background="new 0 0 24 24" xml:space="preserve">
<path d="M5.756,12.003h2.867L5.224,8.604c-0.122-0.122-0.122-0.322,0-0.444l0.439-0.439c0.122-0.122,0.322-0.122,0.445,0
	l4.024,4.024v-5.68c0-0.176,0.137-0.313,0.313-0.313h0.625c0.171,0,0.313,0.137,0.313,0.313v5.938h2.05
	c-0.112-0.41-0.171-0.83-0.176-1.25c0-2.759,2.236-5,5.001-5c0.098,0,0.195,0.024,0.303,0.029c-0.693-0.776-1.685-1.279-2.804-1.279
	c-0.332,0.005-0.664,0.054-0.986,0.146c-0.952-2.222-3.52-3.248-5.742-2.291c-1.03,0.44-1.851,1.26-2.29,2.291
	C6.416,4.556,6.089,4.507,5.756,4.502c-2.07,0-3.75,1.68-3.75,3.75C2.006,10.323,3.686,12.003,5.756,12.003z M14.507,10.753
	c0,0.425,0.078,0.85,0.229,1.25h6.607c0.146,0,0.283,0.015,0.42,0.049c0.713-1.939-0.273-4.097-2.207-4.815
	c-1.943-0.723-4.098,0.269-4.815,2.207C14.585,9.859,14.502,10.304,14.507,10.753z M21.344,13.254H2.636
	c-0.356,0-0.659,0.298-0.63,0.654c0.259,2.983,2.275,5.445,5,6.402v0.439c0,0.693,0.557,1.25,1.25,1.25h7.5
	c0.689,0,1.251-0.557,1.251-1.25v-0.449c2.705-0.957,4.707-3.413,4.971-6.393C22.008,13.552,21.705,13.254,21.344,13.254z"/>
</svg>
