<svg version="1.1" id="master" xmlns="http://www.w3.org/2000/svg" xmlns:xlink="http://www.w3.org/1999/xlink" x="0px" y="0px"
	 width="24px" height="24px" viewBox="0 0 24 24" enable-background="new 0 0 24 24" xml:space="preserve">
<path d="M20.75,3.25H3.25C2.56,3.25,2,3.81,2,4.5v3.75C2,8.94,2.56,9.5,3.25,9.5h17.5C21.44,9.5,22,8.94,22,8.25V4.5
	C22,3.81,21.44,3.25,20.75,3.25z M21.449,11.972c-0.589-0.065-0.938-0.241-1.388-0.465c-0.674-0.337-1.512-0.757-3.057-0.757
	s-2.383,0.42-3.057,0.757C13.375,11.793,12.962,12,12.009,12c-0.954,0-1.371-0.207-1.943-0.493C9.39,11.17,8.55,10.75,7.004,10.75
	c-1.546,0-2.387,0.419-3.06,0.757c-0.45,0.225-0.801,0.4-1.394,0.465C2.237,12.009,2.001,12.273,2,12.589v1.255
	c0.004,0.352,0.292,0.633,0.642,0.629c0.019,0,0.037-0.001,0.055-0.004c1.116-0.103,1.797-0.442,2.364-0.726
	c0.572-0.286,0.987-0.493,1.943-0.493s1.371,0.207,1.944,0.493c0.674,0.338,1.515,0.757,3.061,0.757s2.382-0.42,3.057-0.757
	c0.572-0.286,0.985-0.493,1.939-0.493s1.367,0.207,1.938,0.493c0.565,0.282,1.246,0.625,2.359,0.726
	c0.35,0.034,0.661-0.221,0.695-0.57C21.998,13.881,22,13.862,22,13.844v-1.255C21.998,12.273,21.763,12.009,21.449,11.972z
	 M20.75,15.75h-2.5l-3.75,1.875l-3.75-1.875h-7.5C2.56,15.75,2,16.31,2,17v2.5c0,0.69,0.56,1.25,1.25,1.25h17.5
	c0.69,0,1.25-0.56,1.25-1.25V17C22,16.31,21.44,15.75,20.75,15.75z"/>
</svg>
