<svg version="1.1" id="master" xmlns="http://www.w3.org/2000/svg" xmlns:xlink="http://www.w3.org/1999/xlink" x="0px" y="0px"
	 width="24px" height="24px" viewBox="0 0 24 24" enable-background="new 0 0 24 24" xml:space="preserve">
<path d="M12,2c5.522,0,10,4.478,10,10s-4.478,10-10,10S2,17.522,2,12S6.478,2,12,2z M10.013,15.332
	c0.146,0.537,0.13,1.04-0.021,1.493l-0.054,0.15c-0.02,0.051-0.043,0.1-0.065,0.146c-0.117,0.241-0.272,0.466-0.462,0.675
	c-0.582,0.632-1.394,0.872-1.742,0.67c-0.375-0.218-0.188-1.112,0.487-1.825c0.725-0.765,1.766-1.256,1.766-1.256v-0.004
	L10.013,15.332z M18.271,6.281c-0.451-1.778-3.397-2.362-6.185-1.371C10.429,5.5,8.633,6.425,7.343,7.632
	c-1.536,1.434-1.78,2.684-1.68,3.207c0.356,1.843,2.881,3.048,3.919,3.942v0.004c-0.306,0.151-2.547,1.275-3.072,2.438
	c-0.563,1.226,0.088,2.102,0.513,2.213c1.313,0.364,2.663-0.3,3.387-1.374c0.7-1.05,0.638-2.401,0.337-3.063
	c0.414-0.112,0.9-0.163,1.525-0.086c1.751,0.2,2.101,1.3,2.024,1.749c-0.074,0.449-0.435,0.712-0.561,0.787
	c-0.125,0.076-0.162,0.101-0.151,0.15c0.013,0.075,0.076,0.075,0.175,0.063c0.138-0.025,0.914-0.376,0.951-1.227
	c0.037-1.074-0.989-2.274-2.813-2.25c-0.75,0.014-1.226,0.076-1.563,0.214c-0.025-0.038-0.051-0.063-0.088-0.088
	c-1.125-1.213-3.212-2.063-3.125-3.675c0.025-0.587,0.238-2.137,4-4.012C14.21,5.087,16.675,5.512,17.1,6.45
	c0.61,1.337-1.313,3.826-4.526,4.187c-1.225,0.137-1.862-0.337-2.026-0.513c-0.174-0.188-0.199-0.2-0.262-0.161
	c-0.1,0.05-0.038,0.212,0,0.313c0.1,0.25,0.488,0.687,1.164,0.912c0.586,0.188,2.025,0.299,3.75-0.375
	c1.937-0.75,3.449-2.837,3.012-4.588L18.271,6.281z"/>
</svg>
