<svg version="1.1" id="master" xmlns="http://www.w3.org/2000/svg" xmlns:xlink="http://www.w3.org/1999/xlink" x="0px" y="0px"
	 width="24px" height="24px" viewBox="0 0 24 24" enable-background="new 0 0 24 24" xml:space="preserve">
<rect fill="none" width="24" height="24"/>
<path d="M9.376,15.515l1.07-1.07c0.102,0.027,0.195,0.063,0.305,0.063c0.691,0,1.25-0.56,1.25-1.25c0-0.692-0.559-1.25-1.25-1.25
	s-1.25,0.558-1.25,1.25c0,0.109,0.035,0.202,0.063,0.305l-1.071,1.07L3.93,10.068C3.645,9.783,3.145,9.83,2.953,10.186
	c-1.633,3.039-1.168,6.904,1.395,9.466c2.563,2.563,6.431,3.028,9.466,1.396c0.359-0.191,0.406-0.691,0.117-0.977L9.376,15.515z
	 M10.166,2.001c-0.359-0.02-0.664,0.266-0.664,0.625v1.235c0,0.332,0.258,0.605,0.586,0.621c5.055,0.273,9.119,4.375,9.412,9.435
	c0.02,0.328,0.293,0.586,0.621,0.586h1.254c0.359,0,0.645-0.305,0.625-0.664C21.667,7.463,16.542,2.337,10.166,2.001z M10.177,5.751
	C9.814,5.724,9.501,6.013,9.501,6.38v1.254c0,0.329,0.254,0.598,0.578,0.622c3,0.246,5.391,2.665,5.662,5.672
	c0.03,0.325,0.296,0.575,0.621,0.575h1.257c0.364,0,0.657-0.313,0.63-0.676C17.921,9.525,14.479,6.083,10.177,5.751z"/>
</svg>
