<svg version="1.1" id="master" xmlns="http://www.w3.org/2000/svg" xmlns:xlink="http://www.w3.org/1999/xlink" x="0px" y="0px"
	 width="24px" height="24px" viewBox="0 0 24 24" enable-background="new 0 0 24 24" xml:space="preserve">
<rect fill="none" width="24" height="24"/>
<path d="M21.637,12.353l-3.138-3.141l1.868-1.872c0.511-0.512,0.511-1.344,0-1.856l-1.855-1.855c-0.513-0.512-1.345-0.512-1.856,0
	L14.787,5.5l-3.136-3.137C11.405,2.121,11.088,2,10.768,2s-0.637,0.121-0.879,0.363L6.111,6.141c-0.485,0.484-0.485,1.273,0,1.762
	l3.137,3.141l-0.383,0.383c-2.098-0.949-4.54-0.887-6.583,0.211c-0.332,0.18-0.375,0.641-0.109,0.907l4.2,4.199L5.678,17.44
	c-0.102-0.028-0.196-0.063-0.305-0.063c-0.691,0-1.25,0.558-1.25,1.25c0,0.69,0.559,1.25,1.25,1.25c0.692,0,1.25-0.56,1.25-1.25
	c0-0.11-0.035-0.204-0.063-0.306l0.696-0.694l4.2,4.199c0.265,0.266,0.73,0.223,0.906-0.109c1.097-2.043,1.159-4.485,0.211-6.582
	l0.387-0.388l3.137,3.142c0.242,0.241,0.563,0.363,0.879,0.363s0.637-0.122,0.879-0.363l3.778-3.778
	C22.121,13.627,22.121,12.838,21.637,12.353z M7.885,7.02l2.883-2.883l2.691,2.692l-2.882,2.883L7.885,7.02z M16.979,16.115
	l-2.691-2.691l2.883-2.884l2.691,2.692L16.979,16.115z"/>
</svg>
