<svg version="1.1" id="master" xmlns="http://www.w3.org/2000/svg" xmlns:xlink="http://www.w3.org/1999/xlink" x="0px" y="0px"
	 width="24px" height="24px" viewBox="0 0 24 24" enable-background="new 0 0 24 24" xml:space="preserve">
<rect fill="none" width="24" height="24"/>
<path d="M19.493,4.728l0.593-1.784c0.125-0.375-0.077-0.782-0.452-0.907C19.561,2.013,19.483,2,19.407,2h-2.314
	c-0.396,0.001-0.716,0.322-0.716,0.719c0,0.077,0.013,0.153,0.037,0.226l0.594,1.784C15.55,5.242,14.5,6.617,14.5,8.25
	c0,3.446-2.804,6.25-6.25,6.25c-1.633,0-3.008,1.05-3.522,2.507l-1.784-0.593c-0.375-0.125-0.782,0.077-0.907,0.452
	C2.013,16.939,2,17.017,2,17.093v2.314c0.001,0.396,0.323,0.716,0.719,0.716c0.077,0,0.153-0.013,0.225-0.037l1.784-0.594
	C5.242,20.95,6.617,22,8.25,22C15.831,22,22,15.831,22,8.25C22,6.617,20.95,5.242,19.493,4.728z M8.25,17.625
	c-0.345,0-0.625-0.28-0.625-0.625s0.28-0.625,0.625-0.625c4.48,0,8.125-3.645,8.125-8.125c0-0.345,0.28-0.625,0.625-0.625
	s0.625,0.28,0.625,0.625C17.625,13.419,13.419,17.625,8.25,17.625z"/>
</svg>
