<svg version="1.1" id="master" xmlns="http://www.w3.org/2000/svg" xmlns:xlink="http://www.w3.org/1999/xlink" x="0px" y="0px"
	 width="24px" height="24px" viewBox="0 0 24 24" enable-background="new 0 0 24 24" xml:space="preserve">
<rect fill="none" width="24" height="24"/>
<path d="M2,11v8.5C2,19.776,2.224,20,2.5,20H5V10H3C2.448,10,2,10.448,2,11z M13.25,9.5H12.5V8.25C12.5,8.112,12.388,8,12.25,8h-0.5
	c-0.138,0-0.25,0.112-0.25,0.25v2c0,0.138,0.112,0.25,0.25,0.25h1.5c0.139,0,0.25-0.112,0.25-0.25v-0.5
	C13.5,9.612,13.389,9.5,13.25,9.5z M17.555,7.501l-5-3.333c-0.336-0.224-0.773-0.224-1.109,0l-5,3.333C6.167,7.687,6,7.999,6,8.333
	V20h4v-4.5c0-0.275,0.224-0.5,0.5-0.5h3c0.275,0,0.5,0.225,0.5,0.5V20h4V8.333C18,7.999,17.833,7.687,17.555,7.501z M12,12
	c-1.381,0-2.5-1.119-2.5-2.5S10.619,7,12,7c1.38,0,2.5,1.119,2.5,2.5S13.38,12,12,12z M21,10h-2v10h2.5c0.276,0,0.5-0.224,0.5-0.5
	V11C22,10.448,21.553,10,21,10z"/>
</svg>
