<svg version="1.1" id="圖層_1" xmlns="http://www.w3.org/2000/svg" xmlns:xlink="http://www.w3.org/1999/xlink" x="0px" y="0px"
	 width="24px" height="24px" viewBox="0 0 24 24" enable-background="new 0 0 24 24" xml:space="preserve">
<path d="M12,7c0-0.458-0.375-0.833-0.833-0.833H6.85l0.55-2.65l0.017-0.192c0-0.258-0.108-0.491-0.275-0.667L6.483,2L2.367,6.117
	C2.142,6.342,2,6.658,2,7v5.417c0,0.692,0.558,1.25,1.25,1.25h5.625c0.517,0,0.958-0.316,1.15-0.758L11.908,8.5
	C11.967,8.358,12,8.2,12,8.042V7z M20.75,10.333h-5.625c-0.517,0-0.959,0.316-1.15,0.758L12.092,15.5
	C12.033,15.642,12,15.801,12,15.958V17c0,0.458,0.375,0.833,0.834,0.833h4.315l-0.55,2.65l-0.017,0.2
	c0,0.259,0.108,0.491,0.275,0.666L17.517,22l4.117-4.116C21.858,17.658,22,17.342,22,17v-5.417
	C22,10.892,21.441,10.333,20.75,10.333z"/>
</svg>
