<svg version="1.1" id="master" xmlns="http://www.w3.org/2000/svg" xmlns:xlink="http://www.w3.org/1999/xlink" x="0px" y="0px"
	 width="24px" height="24px" viewBox="0 0 24 24" enable-background="new 0 0 24 24" xml:space="preserve">
<rect fill="none" width="24" height="24"/>
<path d="M19.5,2l-5,3.75v2.424l-3.243,3.243c0.265,0.166,0.518,0.354,0.745,0.581c0.227,0.227,0.415,0.48,0.582,0.746L15.826,9.5
	h2.424l3.75-5L19.5,2z M7,12.882l-4.574,4.574c-0.568,0.567-0.568,1.49,0,2.059l2.059,2.059c0.568,0.568,1.49,0.568,2.059,0
	L11.118,17c1.137-1.138,1.137-2.98,0-4.118C9.98,11.745,8.137,11.745,7,12.882z"/>
</svg>
