<?xml version="1.0" encoding="utf-8"?>
<!-- Generator: Adobe Illustrator 16.0.0, SVG Export Plug-In . SVG Version: 6.00 Build 0)  -->
<!DOCTYPE svg PUBLIC "-//W3C//DTD SVG 1.1//EN" "http://www.w3.org/Graphics/SVG/1.1/DTD/svg11.dtd">
<svg version="1.1" id="master" xmlns="http://www.w3.org/2000/svg" xmlns:xlink="http://www.w3.org/1999/xlink" x="0px" y="0px"
	 width="24px" height="24px" viewBox="0 0 24 24" enable-background="new 0 0 24 24" xml:space="preserve">
<path d="M16.294,14.578h-0.903l-0.321-0.308c1.122-1.304,1.796-2.997,1.796-4.837C16.865,5.328,13.538,2,9.433,2
	C5.327,2,2,5.328,2,9.433c0,4.104,3.328,7.433,7.433,7.433c1.84,0,3.533-0.676,4.838-1.796l0.307,0.321v0.903L20.296,22L22,20.296
	L16.294,14.578z M9.433,14.578c-2.848,0-5.146-2.298-5.146-5.145c0-2.847,2.297-5.146,5.146-5.146c2.847,0,5.145,2.297,5.145,5.146
	C14.578,12.28,12.28,14.578,9.433,14.578z"/>
</svg>
