<?xml version="1.0" encoding="utf-8"?>
<!-- Generator: Adobe Illustrator 16.0.0, SVG Export Plug-In . SVG Version: 6.00 Build 0)  -->
<!DOCTYPE svg PUBLIC "-//W3C//DTD SVG 1.1//EN" "http://www.w3.org/Graphics/SVG/1.1/DTD/svg11.dtd">
<svg version="1.1" id="master" xmlns="http://www.w3.org/2000/svg" xmlns:xlink="http://www.w3.org/1999/xlink" x="0px" y="0px"
	 width="24px" height="24px" viewBox="0 0 24 24" enable-background="new 0 0 24 24" xml:space="preserve">
<path d="M20.889,13.111H3.111C2.5,13.111,2,13.611,2,14.223v6.666C2,21.499,2.5,22,3.111,22h17.778C21.499,22,22,21.499,22,20.889
	v-6.666C22,13.611,21.499,13.111,20.889,13.111z M6.444,19.777c-1.223,0-2.223-1-2.223-2.222c0.001-1.222,1.001-2.223,2.223-2.223
	c1.221,0,2.222,1.001,2.222,2.223S7.667,19.777,6.444,19.777z M20.889,2H3.111C2.5,2,2,2.5,2,3.111v6.667
	c0,0.611,0.5,1.111,1.111,1.111h17.778c0.61,0,1.11-0.5,1.11-1.111V3.111C22,2.5,21.499,2,20.889,2z M6.444,8.667
	c-1.222,0-2.222-1-2.222-2.222c0-1.223,1-2.223,2.222-2.223c1.223,0,2.222,1.001,2.222,2.223C8.667,7.666,7.667,8.667,6.444,8.667z"
	/>
</svg>
