<svg version="1.1" id="icon_settings" xmlns="http://www.w3.org/2000/svg" xmlns:xlink="http://www.w3.org/1999/xlink" x="0px"
	 y="0px" width="24px" height="24px" viewBox="-2 -2 24 24" enable-background="new -2 -2 24 24" xml:space="preserve">
<path d="M17.438,10.975C17.476,10.662,17.5,10.337,17.5,10s-0.024-0.662-0.076-0.975l2.113-1.65c0.187-0.15,0.238-0.425,0.126-0.637
	l-2.001-3.462c-0.126-0.226-0.387-0.301-0.611-0.226l-2.488,1c-0.524-0.4-1.075-0.725-1.688-0.975L12.5,0.425
	C12.463,0.175,12.25,0,11.999,0H8C7.75,0,7.55,0.175,7.512,0.425l-0.375,2.65C6.525,3.325,5.962,3.663,5.45,4.05l-2.487-1
	c-0.225-0.087-0.487,0-0.613,0.226l-2,3.462C0.225,6.962,0.275,7.225,0.475,7.375l2.113,1.65C2.537,9.338,2.5,9.675,2.5,10
	s0.025,0.662,0.075,0.975l-2.113,1.65c-0.187,0.15-0.237,0.424-0.125,0.637l2,3.463c0.125,0.227,0.388,0.301,0.612,0.227
	l2.488-1.002c0.525,0.4,1.075,0.726,1.688,0.976l0.375,2.65C7.55,19.824,7.75,20,8,20h3.999c0.251,0,0.464-0.176,0.488-0.425
	l0.375-2.65c0.611-0.25,1.176-0.587,1.688-0.976l2.486,1.002c0.226,0.086,0.487,0,0.613-0.227l2-3.463
	c0.125-0.225,0.073-0.486-0.125-0.637L17.438,10.975z M10,13.75c-2.063,0-3.75-1.688-3.75-3.75S7.938,6.25,10,6.25
	s3.75,1.688,3.75,3.75S12.063,13.75,10,13.75z"/>
</svg>
