<?xml version="1.0" encoding="utf-8"?>
<!-- Generator: Adobe Illustrator 16.0.0, SVG Export Plug-In . SVG Version: 6.00 Build 0)  -->
<!DOCTYPE svg PUBLIC "-//W3C//DTD SVG 1.1//EN" "http://www.w3.org/Graphics/SVG/1.1/DTD/svg11.dtd">
<svg version="1.1" id="master" xmlns="http://www.w3.org/2000/svg" xmlns:xlink="http://www.w3.org/1999/xlink" x="0px" y="0px"
	 width="24px" height="24px" viewBox="0 0 24 24" enable-background="new 0 0 24 24" xml:space="preserve">
<path d="M19.438,12.976c0.038-0.312,0.063-0.638,0.063-0.976s-0.023-0.663-0.076-0.976l2.111-1.649
	c0.188-0.149,0.239-0.425,0.124-0.637l-1.999-3.461c-0.124-0.226-0.388-0.302-0.609-0.226l-2.489,1
	c-0.524-0.399-1.074-0.725-1.687-0.975l-0.373-2.65C14.464,2.176,14.249,2,13.999,2H10C9.75,2,9.551,2.176,9.514,2.424L9.138,5.076
	C8.526,5.326,7.963,5.663,7.45,6.051l-2.487-1c-0.225-0.087-0.486,0-0.613,0.226l-2,3.461C2.225,8.962,2.275,9.225,2.474,9.375
	l2.113,1.649C4.538,11.337,4.5,11.675,4.5,12s0.024,0.664,0.075,0.976l-2.112,1.648c-0.188,0.151-0.238,0.426-0.124,0.639
	l1.999,3.463c0.124,0.226,0.388,0.299,0.612,0.226l2.487-1.002c0.526,0.4,1.076,0.726,1.688,0.977l0.376,2.652
	C9.551,21.824,9.75,22,10,22h3.999c0.253,0,0.465-0.176,0.489-0.426l0.375-2.65c0.609-0.252,1.175-0.586,1.687-0.979l2.483,1.002
	c0.226,0.087,0.488,0,0.613-0.226l2-3.462c0.126-0.226,0.073-0.487-0.123-0.64L19.438,12.976z M12.001,15.75
	c-2.063,0-3.751-1.688-3.751-3.75s1.688-3.75,3.751-3.75c2.062,0,3.75,1.688,3.75,3.75S14.063,15.75,12.001,15.75z"/>
</svg>
