<svg version="1.1" id="master" xmlns="http://www.w3.org/2000/svg" xmlns:xlink="http://www.w3.org/1999/xlink" x="0px" y="0px"
	 width="24px" height="24px" viewBox="0 0 24 24" enable-background="new 0 0 24 24" xml:space="preserve">
<path d="M18.024,16.137c-0.763,0-1.445,0.301-1.968,0.772l-7.159-4.166c0.05-0.231,0.09-0.462,0.09-0.703s-0.04-0.472-0.09-0.703
	l7.078-4.126c0.543,0.502,1.255,0.813,2.049,0.813c1.667,0,3.012-1.345,3.012-3.012C21.036,3.345,19.691,2,18.024,2
	s-3.013,1.345-3.013,3.012c0,0.241,0.041,0.472,0.091,0.703L8.024,9.841C7.482,9.339,6.769,9.028,5.976,9.028
	c-1.667,0-3.012,1.345-3.012,3.012c0,1.667,1.345,3.013,3.012,3.013c0.793,0,1.506-0.313,2.048-0.814l7.149,4.177
	c-0.051,0.212-0.08,0.433-0.08,0.653c0,1.616,1.315,2.932,2.932,2.932c1.615,0,2.932-1.315,2.932-2.932S19.64,16.137,18.024,16.137z
	"/>
</svg>
