<?xml version="1.0" encoding="utf-8"?>
<!-- Generator: Adobe Illustrator 16.0.0, SVG Export Plug-In . SVG Version: 6.00 Build 0)  -->
<!DOCTYPE svg PUBLIC "-//W3C//DTD SVG 1.1//EN" "http://www.w3.org/Graphics/SVG/1.1/DTD/svg11.dtd">
<svg version="1.1" id="master" xmlns="http://www.w3.org/2000/svg" xmlns:xlink="http://www.w3.org/1999/xlink" x="0px" y="0px"
	 width="24px" height="24px" viewBox="0 0 24 24" enable-background="new 0 0 24 24" xml:space="preserve">
<path d="M18.023,16.135c-0.762,0-1.443,0.303-1.967,0.773l-7.159-4.164c0.05-0.232,0.09-0.463,0.09-0.705
	c0-0.242-0.04-0.473-0.09-0.703l7.077-4.126c0.543,0.501,1.256,0.813,2.049,0.813c1.668,0,3.012-1.345,3.012-3.012
	C21.035,3.344,19.689,2,18.023,2s-3.012,1.345-3.012,3.012c0,0.241,0.041,0.472,0.09,0.703L8.024,9.84
	C7.482,9.337,6.77,9.026,5.977,9.026c-1.667,0-3.012,1.345-3.012,3.013c0,1.667,1.345,3.011,3.012,3.011
	c0.793,0,1.506-0.313,2.048-0.813l7.149,4.178c-0.053,0.211-0.082,0.432-0.082,0.652c0,1.615,1.316,2.932,2.934,2.932
	c1.615,0,2.934-1.314,2.934-2.932C20.957,17.451,19.641,16.135,18.023,16.135z"/>
</svg>
