<svg version="1.1" id="master" xmlns="http://www.w3.org/2000/svg" xmlns:xlink="http://www.w3.org/1999/xlink" x="0px" y="0px"
	 width="24px" height="24px" viewBox="0 0 24 24" enable-background="new 0 0 24 24" xml:space="preserve">
<path d="M12,2C6.478,2,2,6.476,2,12c0,5.521,4.478,10,10,10s10-4.479,10-10C22,6.476,17.522,2,12,2 M10.227,15.947
	c-1.072,0-2.144-0.355-2.967-1.068c-1.012-0.874-1.612-2.065-1.69-3.354c-0.075-1.249,0.35-2.453,1.196-3.389
	c0.951-1.053,2.657-2.688,2.729-2.758c0.463-0.443,1.196-0.426,1.639,0.038c0.441,0.464,0.427,1.199-0.037,1.642
	c-0.018,0.017-1.717,1.647-2.614,2.637c-0.423,0.47-0.636,1.069-0.599,1.689c0.041,0.657,0.356,1.274,0.892,1.738
	c0.703,0.608,2.092,0.743,2.961-0.036c0.516-0.465,1.144-1.146,1.15-1.154c0.433-0.473,1.166-0.503,1.637-0.068
	c0.471,0.434,0.502,1.169,0.068,1.642c-0.028,0.029-0.709,0.77-1.31,1.31C12.444,15.567,11.335,15.947,10.227,15.947 M17.235,15.864
	c-0.953,1.051-2.658,2.687-2.73,2.757c-0.225,0.214-0.513,0.321-0.8,0.321c-0.307,0-0.609-0.121-0.839-0.359
	c-0.442-0.465-0.427-1.198,0.037-1.642c0.018-0.017,1.719-1.647,2.613-2.639c0.424-0.469,0.637-1.069,0.6-1.689
	c-0.039-0.656-0.356-1.273-0.892-1.736c-0.704-0.608-2.092-0.744-2.96,0.037c-0.518,0.463-1.144,1.146-1.149,1.153
	c-0.435,0.472-1.166,0.504-1.638,0.07c-0.471-0.435-0.504-1.171-0.068-1.643c0.027-0.031,0.708-0.771,1.309-1.311
	c1.649-1.482,4.35-1.511,6.021-0.064c1.013,0.876,1.613,2.066,1.69,3.354C18.507,13.722,18.08,14.928,17.235,15.864"/>
</svg>
