<svg version="1.1" id="master" xmlns="http://www.w3.org/2000/svg" xmlns:xlink="http://www.w3.org/1999/xlink" x="0px" y="0px"
	 width="24px" height="24px" viewBox="0 0 24 24" enable-background="new 0 0 24 24" xml:space="preserve">
<rect fill="none" width="24" height="24"/>
<path d="M14.413,12l7.43-7.43c0.209-0.21,0.209-0.549,0-0.758c-1.465-1.464-3.838-1.464-5.303,0L11.383,8.97l-1.109-1.11
	c0.192-0.487,0.298-1.019,0.298-1.574C10.571,3.918,8.653,2,6.286,2S2,3.918,2,6.286s1.918,4.286,4.286,4.286
	c0.203,0,0.401-0.014,0.597-0.042L8.352,12l-1.47,1.47c-0.195-0.026-0.395-0.041-0.597-0.041C3.918,13.429,2,15.348,2,17.714
	C2,20.081,3.918,22,6.286,22s4.286-1.919,4.286-4.286c0-0.556-0.106-1.086-0.298-1.573l1.109-1.11l5.157,5.157
	c1.465,1.465,3.838,1.465,5.303,0c0.209-0.209,0.209-0.548,0-0.758L14.413,12z M6.286,7.714c-0.787,0-1.429-0.642-1.429-1.429
	s0.642-1.429,1.429-1.429s1.429,0.642,1.429,1.429S7.073,7.714,6.286,7.714z M6.286,19.143c-0.787,0-1.429-0.642-1.429-1.429
	c0-0.786,0.642-1.428,1.429-1.428s1.429,0.642,1.429,1.428C7.714,18.501,7.073,19.143,6.286,19.143z"/>
</svg>
