<svg version="1.1" id="master" xmlns="http://www.w3.org/2000/svg" xmlns:xlink="http://www.w3.org/1999/xlink" x="0px" y="0px"
	 width="24px" height="24px" viewBox="0 0 24 24" enable-background="new 0 0 24 24" xml:space="preserve">
<rect fill="none" width="24" height="24"/>
<path d="M21.445,7.311L20,6.601V6c0-0.552-0.448-1-1-1h-2c0-0.552-0.447-1-1-1s-1,0.448-1,1v2.401
	c-0.548-0.498-1.471-0.496-2.02,0.013C12.712,7.159,12.351,7,11.95,7c-0.39,0-0.75,0.15-1.02,0.4C10.66,7.15,10.31,7,9.91,7
	C9.52,7,9.16,7.15,8.9,7.4C8.63,7.15,8.27,7,7.88,7C7.47,7,7.1,7.17,6.83,7.43C6.48,7.14,6.01,7,5.53,7.11
	C4.98,7.23,4.56,7.64,4.41,8.15c-0.52-0.09-1.07,0.1-1.42,0.54c-0.36,0.44-0.42,1.02-0.22,1.51C2.31,10.46,2,10.95,2,11.51
	c0,0.569,0.32,1.06,0.78,1.31c-0.2,0.491-0.13,1.07,0.22,1.51c0.36,0.441,0.91,0.631,1.43,0.54c0.128,0.425,0.458,0.773,0.89,0.946
	l-0.192,0.512c-0.143,0.38-0.166,0.794-0.067,1.188l0.526,2.106C5.642,19.844,5.842,20,6.071,20h2.062
	c0.326,0,0.564-0.306,0.485-0.621L8.046,17.09l0.461-1.23c0.148-0.067,0.288-0.149,0.403-0.259C9.18,15.85,9.54,16,9.93,16
	c0.39,0,0.75-0.15,1.02-0.399C11.22,15.85,11.57,16,11.97,16c0.392,0,0.746-0.155,1.013-0.405c0.006,0.006,0.012,0.006,0.018,0.012
	V19.5c0,0.276,0.224,0.5,0.5,0.5h2c0.276,0,0.5-0.224,0.5-0.5v-5.166l1.109-0.74c0.557-0.371,0.89-0.995,0.891-1.664V10h2.739
	c0.289,0,0.556-0.153,0.699-0.404C21.676,9.181,22,8.55,22,8.202C22,7.824,21.785,7.479,21.445,7.311z M18,7.5
	c-0.275,0-0.5-0.224-0.5-0.5s0.225-0.5,0.5-0.5c0.276,0,0.5,0.224,0.5,0.5S18.276,7.5,18,7.5z"/>
</svg>
