<svg version="1.1" id="master" xmlns="http://www.w3.org/2000/svg" xmlns:xlink="http://www.w3.org/1999/xlink" x="0px" y="0px"
	 width="24px" height="24px" viewBox="0 0 24 24" enable-background="new 0 0 24 24" xml:space="preserve">
<rect fill="none" width="24" height="24"/>
<path d="M12,2.719c-5.55,0-10,4.49-10,10.099c0,0.83,0.032,1.143,0.205,1.941l3.052,2.258l0.475,3.762h5.085l0.271,0.189
	c0.314,0.219,0.587,0.313,0.901,0.313c0.293,0,0.611-0.084,0.853-0.26l0.326-0.242h5.078l0.469-3.762l3.079-2.258
	C21.969,13.961,22,13.648,22,12.818C22,7.21,17.551,2.719,12,2.719z M12.83,4.602c0.75,0,1.481,0.187,2.093,0.541L12.869,15.6
	l2.85-10.053c0.883,0.3,1.553,0.784,2.09,1.512l0.021,0.028l-4.085,8.847l4.644-8.095l0.027,0.025
	c0.632,0.59,1.038,1.306,1.243,2.207l-5.162,6.389l5.362-5.417l0.009,0.018c0.211,0.469,0.348,1.133,0.348,1.663
	c0,0.424-0.021,0.594-0.137,1.043l-2.962,2.168l-0.389,3.092h-3.729l-0.431,0.328c-0.166,0.133-0.401,0.223-0.568,0.223
	c-0.166,0-0.402-0.09-0.568-0.223L11,19.025H7.268l-0.371-3.008l-3.022-2.223c-0.092-0.363-0.133-0.691-0.133-1.051
	c0-0.6,0.132-1.241,0.355-1.71l0.011-0.02l5.375,5.459l-5.191-6.455C4.5,9.132,5.02,8.276,5.658,7.757l4.619,8.147l-4.127-8.82
	c0.462-0.678,1.208-1.213,2.121-1.523l2.854,10.058L8.962,5.18l0.046-0.024c0.678-0.375,1.332-0.548,2.048-0.548
	c0.162,0,0.238,0.003,0.44,0.025l0.489,10.875l0.383-10.882C12.555,4.604,12.626,4.602,12.83,4.602z"/>
</svg>
