<svg version="1.1" id="master" xmlns="http://www.w3.org/2000/svg" xmlns:xlink="http://www.w3.org/1999/xlink" x="0px" y="0px"
	 width="24px" height="24px" viewBox="0 0 24 24" enable-background="new 0 0 24 24" xml:space="preserve">
<path d="M19.273,20.182c-1.264,0-2.526-0.427-3.637-1.2c-2.217,1.556-5.054,1.556-7.272,0c-1.109,0.773-2.373,1.2-3.636,1.2H2.91V22
	h1.818c1.254,0,2.491-0.317,3.636-0.9c2.291,1.173,4.982,1.173,7.272,0c1.146,0.592,2.383,0.9,3.637,0.9h1.818v-1.818H19.273z
	 M4.683,18.363h0.045c1.455,0,2.746-0.8,3.636-1.817c0.891,1.018,2.182,1.817,3.637,1.817c1.454,0,2.745-0.8,3.636-1.817
	c0.892,1.018,2.183,1.817,3.637,1.817h0.045l1.719-6.073c0.072-0.236,0.055-0.49-0.055-0.708c-0.109-0.219-0.309-0.382-0.546-0.455
	l-1.163-0.382v-4.2c0-1-0.818-1.818-1.818-1.818h-2.727V2H9.273v2.727H6.546c-1,0-1.818,0.818-1.818,1.818v4.2l-1.173,0.382
	C3.319,11.2,3.119,11.363,3.01,11.582c-0.109,0.218-0.136,0.473-0.055,0.708L4.683,18.363z M6.546,6.545h10.909v3.609l-5.454-1.791
	l-5.455,1.791V6.545z"/>
</svg>
