<svg version="1.1" id="master" xmlns="http://www.w3.org/2000/svg" xmlns:xlink="http://www.w3.org/1999/xlink" x="0px" y="0px"
	 width="24px" height="24px" viewBox="0 0 24 24" enable-background="new 0 0 24 24" xml:space="preserve">
<rect fill="none" width="24" height="24"/>
<path d="M11.924,9.619h1.904V6.762h2.857V4.857h-2.857V2h-1.904v2.857H9.066v1.905h2.857V9.619z M8.114,18.19
	c-1.048,0-1.896,0.857-1.896,1.905C6.219,21.143,7.066,22,8.114,22s1.905-0.857,1.905-1.904C10.019,19.048,9.162,18.19,8.114,18.19z
	 M17.639,18.19c-1.049,0-1.896,0.857-1.896,1.905c0,1.047,0.848,1.904,1.896,1.904c1.047,0,1.904-0.857,1.904-1.904
	C19.543,19.048,18.686,18.19,17.639,18.19z M8.276,15.096l0.029-0.115l0.857-1.552h7.096c0.713,0,1.342-0.391,1.666-0.981
	L21.6,5.771l-1.656-0.915h-0.01l-1.047,1.905l-2.629,4.762H9.571l-0.124-0.257L7.314,6.762L6.409,4.857L5.514,2.952H2.4v1.905h1.905
	l3.429,7.229l-1.286,2.333C6.295,14.686,6.209,15,6.209,15.333c0,1.048,0.857,1.905,1.905,1.905h11.429v-1.905H8.514
	C8.391,15.333,8.276,15.229,8.276,15.096z"/>
</svg>
