<svg version="1.1" id="master" xmlns="http://www.w3.org/2000/svg" xmlns:xlink="http://www.w3.org/1999/xlink" x="0px" y="0px"
	 width="24px" height="24px" viewBox="0 0 24 24" enable-background="new 0 0 24 24" xml:space="preserve">
<path d="M22,20.884L4.438,3.32L3.76,2.643L3.118,2L2,3.118L5.863,6.98l1.945,4.101L6.62,13.236c-0.141,0.247-0.22,0.537-0.22,0.845
	c0,0.968,0.792,1.76,1.76,1.76h6.564l1.214,1.215c-0.44,0.316-0.73,0.836-0.73,1.425c0,0.968,0.783,1.76,1.751,1.76
	c0.59,0,1.108-0.29,1.426-0.738L20.883,22L22,20.884z M8.529,14.081c-0.124,0-0.22-0.096-0.22-0.22l0.027-0.105l0.792-1.435h2.076
	l1.759,1.76H8.529z M15.683,12.321c0.659,0,1.24-0.36,1.539-0.906l3.15-5.711c0.07-0.123,0.105-0.272,0.105-0.422
	c0-0.483-0.396-0.88-0.88-0.88H7.754L15.683,12.321z M8.159,16.721c-0.968,0-1.751,0.793-1.751,1.76c0,0.968,0.783,1.76,1.751,1.76
	c0.968,0,1.76-0.792,1.76-1.76C9.919,17.514,9.127,16.721,8.159,16.721z"/>
</svg>
