<svg version="1.1" id="master" xmlns="http://www.w3.org/2000/svg" xmlns:xlink="http://www.w3.org/1999/xlink" x="0px" y="0px"
	 width="24px" height="24px" viewBox="0 0 24 24" enable-background="new 0 0 24 24" xml:space="preserve">
<path d="M18.667,6.762h-1.905C16.762,4.134,14.629,2,12,2C9.372,2,7.238,4.134,7.238,6.762H5.333c-1.048,0-1.896,0.857-1.896,1.905
	L3.429,20.096C3.429,21.143,4.286,22,5.333,22h13.333c1.047,0,1.904-0.857,1.904-1.904V8.667
	C20.571,7.619,19.714,6.762,18.667,6.762z M12,3.905c1.581,0,2.857,1.276,2.857,2.857H9.143C9.143,5.181,10.419,3.905,12,3.905z
	 M12,13.429c-2.628,0-4.762-2.134-4.762-4.762h1.905c0,1.581,1.276,2.857,2.857,2.857s2.857-1.276,2.857-2.857h1.904
	C16.762,11.295,14.629,13.429,12,13.429z"/>
</svg>
