<?xml version="1.0" encoding="utf-8"?>
<!-- Generator: Adobe Illustrator 16.0.0, SVG Export Plug-In . SVG Version: 6.00 Build 0)  -->
<!DOCTYPE svg PUBLIC "-//W3C//DTD SVG 1.1//EN" "http://www.w3.org/Graphics/SVG/1.1/DTD/svg11.dtd">
<svg version="1.1" id="master" xmlns="http://www.w3.org/2000/svg" xmlns:xlink="http://www.w3.org/1999/xlink" x="0px" y="0px"
	 width="24px" height="24px" viewBox="0 0 24 24" enable-background="new 0 0 24 24" xml:space="preserve">
<path d="M8,18c-1.1,0-1.99,0.9-1.99,2S6.9,22,8,22s2-0.9,2-2S9.1,18,8,18z M2,2v2h2l3.6,7.59l-1.35,2.45C6.09,14.32,6,14.65,6,15
	c0,1.1,0.9,2,2,2h12v-2H8.42c-0.14,0-0.25-0.109-0.25-0.25l0.03-0.12L9.1,13h7.45c0.75,0,1.41-0.41,1.75-1.03l3.58-6.49
	C21.96,5.34,22,5.17,22,5c0-0.55-0.45-1-1-1H6.21L5.27,2H2z M18,18c-1.1,0-1.99,0.9-1.99,2S16.9,22,18,22s2-0.9,2-2S19.1,18,18,18z"
	/>
</svg>
