<svg version="1.1" id="master" xmlns="http://www.w3.org/2000/svg" xmlns:xlink="http://www.w3.org/1999/xlink" x="0px" y="0px"
	 width="24px" height="24px" viewBox="0 0 24 24" enable-background="new 0 0 24 24" xml:space="preserve">
<rect fill="none" width="24" height="24"/>
<path d="M16.736,9.718l-3.982-5.963C12.582,3.5,12.291,3.373,12,3.373S11.418,3.5,11.246,3.764L7.264,9.718H2.909
	c-0.5,0-0.909,0.41-0.909,0.909c0,0.082,0.009,0.164,0.037,0.246L4.346,19.3c0.209,0.764,0.909,1.327,1.745,1.327h11.818
	c0.836,0,1.536-0.563,1.754-1.327l2.311-8.427L22,10.627c0-0.499-0.409-0.909-0.909-0.909H16.736z M9.273,9.718L12,5.719
	l2.728,3.999H9.273z M12,16.991c-1,0-1.818-0.819-1.818-1.818c0-1,0.818-1.818,1.818-1.818s1.818,0.818,1.818,1.818
	C13.818,16.172,13,16.991,12,16.991z"/>
</svg>
