<svg version="1.1" id="master" xmlns="http://www.w3.org/2000/svg" xmlns:xlink="http://www.w3.org/1999/xlink" x="0px" y="0px"
	 width="24px" height="24px" viewBox="0 0 24 24" enable-background="new 0 0 24 24" xml:space="preserve">
<rect fill="none" width="24" height="24"/>
<path d="M21.543,5.765l-3.308-3.308c-0.608-0.609-1.601-0.609-2.209,0l-1.277,1.276c-0.739,0.74-1.143,1.73-1.143,2.755
	c0,0.255,0.026,0.513,0.076,0.77c0.068,0.339,0.186,0.658,0.334,0.958l-4.307,4.306l-1.768-1.768c-0.488-0.488-1.28-0.488-1.768,0
	l-2.652,2.651c-1.953,1.953-1.768,7.072-0.884,7.956c0.884,0.884,6.002,1.068,7.955-0.884l2.652-2.652
	c0.488-0.488,0.488-1.28,0-1.768l-1.768-1.769l4.307-4.307c0.301,0.148,0.62,0.266,0.96,0.333c1.281,0.256,2.598-0.142,3.522-1.066
	l1.276-1.276C22.152,7.365,22.152,6.374,21.543,5.765z M18.499,7.483c-0.331,0.331-0.807,0.475-1.267,0.382
	c-0.556-0.111-0.986-0.543-1.099-1.1c-0.091-0.462,0.051-0.934,0.383-1.265l0.613-0.614l1.982,1.982L18.499,7.483z"/>
</svg>
