<svg version="1.1" id="master" xmlns="http://www.w3.org/2000/svg" xmlns:xlink="http://www.w3.org/1999/xlink" x="0px" y="0px"
	 width="24px" height="24px" viewBox="0 0 24 24" enable-background="new 0 0 24 24" xml:space="preserve">
<rect fill="none" width="24" height="24"/>
<path d="M17.222,7.297l-6.175,6.175c-0.366,0.366-0.96,0.366-1.326,0l-0.441-0.443c-0.366-0.366-0.366-0.959,0-1.325l0.004-0.004
	c-1.33-1.57-1.374-3.865-0.132-5.484C8.684,5.92,8.129,5.75,7.538,5.75C5.862,5.75,4.5,7.112,4.5,8.788V20.75H2V8.788
	C2,5.734,4.484,3.25,7.538,3.25c1.442,0,2.758,0.555,3.745,1.461c1.402-0.45,2.988-0.176,4.167,0.822l0.004-0.004
	c0.366-0.366,0.959-0.366,1.325,0l0.443,0.441C17.588,6.337,17.588,6.931,17.222,7.297z M17,10.125c0,0.345-0.28,0.625-0.625,0.625
	s-0.625-0.28-0.625-0.625S16.03,9.5,16.375,9.5S17,9.78,17,10.125z M18.25,10.125c0-0.345,0.28-0.625,0.625-0.625
	S19.5,9.78,19.5,10.125s-0.28,0.625-0.625,0.625S18.25,10.47,18.25,10.125z M22,10.125c0,0.345-0.28,0.625-0.625,0.625
	s-0.625-0.28-0.625-0.625S21.03,9.5,21.375,9.5S22,9.78,22,10.125z M15.75,11.375c0,0.345-0.28,0.625-0.625,0.625
	S14.5,11.72,14.5,11.375s0.28-0.625,0.625-0.625S15.75,11.03,15.75,11.375z M17.625,10.75c0.345,0,0.625,0.28,0.625,0.625
	S17.97,12,17.625,12S17,11.72,17,11.375S17.28,10.75,17.625,10.75z M20.75,11.375c0,0.345-0.28,0.625-0.625,0.625
	S19.5,11.72,19.5,11.375s0.28-0.625,0.625-0.625S20.75,11.03,20.75,11.375z M14.5,12.625c0,0.345-0.28,0.625-0.625,0.625
	s-0.625-0.28-0.625-0.625c0-0.345,0.28-0.625,0.625-0.625S14.5,12.28,14.5,12.625z M15.75,12.625c0-0.345,0.28-0.625,0.625-0.625
	S17,12.28,17,12.625c0,0.345-0.28,0.625-0.625,0.625S15.75,12.97,15.75,12.625z M19.5,12.625c0,0.345-0.28,0.625-0.625,0.625
	s-0.625-0.28-0.625-0.625c0-0.345,0.28-0.625,0.625-0.625S19.5,12.28,19.5,12.625z M14.5,13.875c0-0.345,0.28-0.625,0.625-0.625
	s0.625,0.28,0.625,0.625S15.47,14.5,15.125,14.5S14.5,14.22,14.5,13.875z M18.25,13.875c0,0.345-0.28,0.625-0.625,0.625
	S17,14.22,17,13.875s0.28-0.625,0.625-0.625S18.25,13.53,18.25,13.875z M14.5,15.125c0,0.345-0.28,0.625-0.625,0.625
	s-0.625-0.28-0.625-0.625s0.28-0.625,0.625-0.625S14.5,14.78,14.5,15.125z M17,15.125c0,0.345-0.28,0.625-0.625,0.625
	s-0.625-0.28-0.625-0.625s0.28-0.625,0.625-0.625S17,14.78,17,15.125z M15.75,16.375c0,0.345-0.28,0.625-0.625,0.625
	S14.5,16.72,14.5,16.375s0.28-0.625,0.625-0.625S15.75,16.03,15.75,16.375z M14.5,17.625c0,0.345-0.28,0.625-0.625,0.625
	s-0.625-0.28-0.625-0.625S13.53,17,13.875,17S14.5,17.28,14.5,17.625z"/>
</svg>
