<svg version="1.1" id="master" xmlns="http://www.w3.org/2000/svg" xmlns:xlink="http://www.w3.org/1999/xlink"
	 x="0px" y="0px" width="24px" height="24px" viewBox="0 0 24 24" enable-background="new 0 0 24 24" xml:space="preserve">
<path d="M11.063,21.375c0,0.345,0.279,0.625,0.625,0.625h0.625c0.345,0,0.625-0.28,0.625-0.625V18.25h-1.875V21.375z M7.313,21.375
	C7.313,21.72,7.592,22,7.938,22h0.625c0.346,0,0.625-0.28,0.625-0.625V18.25H7.313V21.375z M3.563,21.375
	C3.563,21.72,3.842,22,4.188,22h0.625c0.346,0,0.625-0.28,0.625-0.625V18.25H3.563V21.375z M14.813,21.375
	c0,0.345,0.28,0.625,0.625,0.625h0.625c0.345,0,0.625-0.28,0.625-0.625V18.25h-1.875V21.375z M19.5,9.5V5.018
	c0-0.332-0.132-0.649-0.366-0.884l-1.768-1.768C17.132,2.132,16.813,2,16.482,2H5.75C5.06,2,4.5,2.56,4.5,3.25V9.5
	C3.119,9.5,2,10.619,2,12v4.375C2,16.72,2.279,17,2.625,17h18.75C21.72,17,22,16.72,22,16.375V12C22,10.619,20.881,9.5,19.5,9.5z
	 M17,10.75H7V4.5h7.5v1.875C14.5,6.721,14.78,7,15.125,7H17V10.75z M18.875,13.563c-0.518,0-0.938-0.42-0.938-0.938
	c0-0.518,0.42-0.938,0.938-0.938s0.938,0.419,0.938,0.938C19.813,13.143,19.393,13.563,18.875,13.563z M18.563,21.375
	c0,0.345,0.28,0.625,0.625,0.625h0.625c0.345,0,0.625-0.28,0.625-0.625V18.25h-1.875V21.375z"/>
</svg>
