<svg version="1.1" id="master" xmlns="http://www.w3.org/2000/svg" xmlns:xlink="http://www.w3.org/1999/xlink" x="0px" y="0px"
	 width="24px" height="24px" viewBox="0 0 24 24" enable-background="new 0 0 24 24" xml:space="preserve">
<path d="M19,4h-4.18C14.4,2.84,13.3,2,12,2S9.6,2.84,9.18,4H5C3.9,4,3,4.9,3,6v14c0,1.1,0.9,2,2,2h14c1.1,0,2-0.9,2-2V6
	C21,4.9,20.1,4,19,4z M12,4c0.55,0,1,0.45,1,1s-0.45,1-1,1s-1-0.45-1-1S11.45,4,12,4z M12,8c1.66,0,3,1.34,3,3s-1.34,3-3,3
	s-3-1.34-3-3S10.34,8,12,8z M18,20H6v-1.4c0-2,4-3.1,6-3.1s6,1.1,6,3.1V20z"/>
</svg>
