<svg version="1.1" id="master" xmlns="http://www.w3.org/2000/svg" xmlns:xlink="http://www.w3.org/1999/xlink" x="0px" y="0px"
	 width="24px" height="24px" viewBox="0 0 24 24" enable-background="new 0 0 24 24" xml:space="preserve">
<rect fill="none" width="24" height="24"/>
<path d="M8.316,17l3.158-3.094c-0.411-0.043-0.716-0.064-1.053-0.064c-2.81,0-8.421,1.41-8.421,4.211v2.105h9.474L8.316,17z
	 M10.421,11.737c2.326,0,4.211-1.884,4.211-4.21c0-2.326-1.885-4.21-4.211-4.21C8.095,3.317,6.21,5.2,6.21,7.526
	C6.21,9.852,8.095,11.737,10.421,11.737 M15.127,20.684L11.474,17l1.475-1.484l2.179,2.189l5.399-5.442L22,13.748L15.127,20.684z"/>
</svg>
