<svg version="1.1" id="master" xmlns="http://www.w3.org/2000/svg" xmlns:xlink="http://www.w3.org/1999/xlink" x="0px" y="0px"
	 width="24px" height="24px" viewBox="0 0 24 24" enable-background="new 0 0 24 24" xml:space="preserve">
<path d="M18.25,2H5.75C5.059,2,4.5,2.559,4.5,3.25v7.5h6.982L9.866,9.134c-0.489-0.489-0.489-1.278,0-1.768s1.278-0.489,1.768,0
	l3.75,3.75c0.489,0.489,0.489,1.278,0,1.768l-3.75,3.75C11.391,16.877,11.07,17,10.75,17s-0.641-0.123-0.884-0.366
	c-0.489-0.489-0.489-1.278,0-1.768l1.616-1.616H4.5v7.5C4.5,21.441,5.059,22,5.75,22h12.5c0.691,0,1.25-0.559,1.25-1.25V3.25
	C19.5,2.559,18.941,2,18.25,2"/>
</svg>
