<svg version="1.1" id="master" xmlns="http://www.w3.org/2000/svg" xmlns:xlink="http://www.w3.org/1999/xlink" x="0px" y="0px"
	 width="24px" height="24px" viewBox="0 0 24 24" enable-background="new 0 0 24 24" xml:space="preserve">
<path d="M18.874,2c-1.035,0-1.875,0.84-1.875,1.875s0.84,1.875,1.875,1.875s1.875-0.84,1.875-1.875S19.909,2,18.874,2z M18.874,19.5
	c-0.343,0-0.625,0.281-0.625,0.625s-0.281,0.625-0.625,0.625h-3.75c-0.343,0-0.625,0.281-0.625,0.625S13.531,22,13.874,22h3.75
	c1.035,0,1.875-0.84,1.875-1.875C19.499,19.781,19.218,19.5,18.874,19.5z M7.851,19.836c-0.242,0.242-0.641,0.246-0.883,0
	l-2.652-2.652c-0.242-0.242-0.641-0.242-0.883,0s-0.242,0.641,0,0.883l2.653,2.652c0.367,0.367,0.848,0.547,1.328,0.547
	c0.48,0,0.96-0.184,1.324-0.547c0.242-0.242,0.242-0.641,0-0.883C8.496,19.594,8.097,19.59,7.851,19.836z M10.042,12.813l-3.66,3.66
	c-0.488,0.488-0.488,1.281,0,1.766c0.242,0.242,0.563,0.367,0.883,0.367c0.32,0,0.64-0.121,0.882-0.367l3.59-3.59l-1.18-1.18
	C10.363,13.273,10.19,13.051,10.042,12.813z M8.249,8.25h4.121l-0.785,0.672c-0.527,0.449-0.843,1.109-0.871,1.801
	c-0.028,0.695,0.238,1.375,0.73,1.863l3.054,3.055v3.234c0,0.691,0.559,1.25,1.25,1.25c0.692,0,1.25-0.559,1.25-1.25v-3.492
	c0-0.492-0.199-0.977-0.551-1.324l-2.383-2.383c0.02-0.016,0.047-0.023,0.066-0.043l3.215-3.215c0.449-0.449,0.582-1.117,0.34-1.703
	S16.878,5.75,16.241,5.75H8.249c-0.691,0-1.25,0.559-1.25,1.25S7.558,8.25,8.249,8.25z"/>
</svg>
