<svg version="1.1" id="master" xmlns="http://www.w3.org/2000/svg" xmlns:xlink="http://www.w3.org/1999/xlink" x="0px" y="0px"
	 width="24px" height="24px" viewBox="0 0 24 24" enable-background="new 0 0 24 24" xml:space="preserve">
<path d="M13.667,6.444c0.919,0,1.666-0.747,1.666-1.667c0-0.92-0.747-1.667-1.666-1.667C12.747,3.111,12,3.857,12,4.778
	C12,5.698,12.747,6.444,13.667,6.444z M21.167,17.555c-0.458,0-0.834,0.372-0.834,0.834c0,0.459-0.375,0.833-0.833,0.833h-2.414
	l0.886-6.194c0.407-0.163,0.698-0.562,0.698-1.027c0-0.614-0.496-1.111-1.111-1.111h-1.527l-0.906-1.847
	c-0.435-0.886-1.232-1.535-2.146-1.768l-2.472-0.736C9.524,6.302,8.5,6.521,7.702,7.132L6.323,8.188
	c-0.486,0.372-0.58,1.069-0.205,1.559c0.024,0.031,0.059,0.045,0.083,0.073l-1.878,9.402h-1.49C2.375,19.222,2,19.594,2,20.055
	c0,0.463,0.375,0.834,0.833,0.834H19.5c1.379,0,2.5-1.122,2.5-2.5C22,17.931,21.625,17.555,21.167,17.555z M12.122,19.222H8.757
	l1.497-3.159l-0.764-0.451c-0.42-0.25-0.76-0.587-1.024-0.966l-2.17,4.576h-0.84l1.816-9.076c0.142-0.034,0.281-0.1,0.406-0.194
	l1.378-1.056C9.323,8.691,9.66,8.618,9.934,8.684l0.51,0.153l-1.302,3.035c-0.438,1.024-0.045,2.222,0.913,2.788l2.952,1.743
	L12.122,19.222z M15.962,19.222h-1.514l0.819-2.62c0.204-0.723-0.102-1.498-0.75-1.89l-2.125-1.254l1.087-2.719l0.705,1.438
	c0.277,0.566,0.864,0.935,1.495,0.935h1.157L15.962,19.222L15.962,19.222z"/>
</svg>
