<svg version="1.1" id="master" xmlns="http://www.w3.org/2000/svg" xmlns:xlink="http://www.w3.org/1999/xlink" x="0px" y="0px"
	 width="24px" height="24px" viewBox="0 0 24 24" enable-background="new 0 0 24 24" xml:space="preserve">
<path d="M18.876,5.752c1.036,0,1.876-0.84,1.876-1.875s-0.84-1.875-1.876-1.875c-1.035,0-1.875,0.84-1.875,1.875
	S17.841,5.752,18.876,5.752z M21.729,19.662c-0.367-0.367-0.962-0.367-1.324,0c-0.473,0.475-1.191,0.602-1.763,0.34l-5.305-2.742
	l1.922-2.883c0.496-0.742,0.398-1.738-0.234-2.367l-1.578-1.582L9.266,8.354c-0.113,0.777,0.133,1.562,0.691,2.125l2.935,2.938
	l-1.794,2.688l-7.731-3.996c-0.457-0.234-1.023-0.059-1.262,0.402c-0.238,0.461-0.059,1.027,0.402,1.262l15.31,7.91
	c0.465,0.215,0.957,0.316,1.449,0.316c0.907,0,1.798-0.352,2.462-1.016C22.091,20.619,22.091,20.025,21.729,19.662z M6.688,5.58
	L6.238,6.459C6.801,6.744,7.457,6.65,7.91,6.271l1.844,0.914C9.75,7.19,9.75,7.193,9.747,7.197l4.473,2.219l1.267-0.507l0.249,0.745
	c0.156,0.473,0.493,0.86,0.938,1.083l2.271,1.133c0.621,0.309,1.367,0.059,1.676-0.559s0.059-1.367-0.56-1.676l-2.034-1.019
	l-0.669-2C17.04,5.67,15.76,4.404,14.056,5.084l-3.173,1.27L8.441,5.143C8.453,4.576,8.16,4.025,7.625,3.752L7.191,4.6H7.184
	L5.84,4.326C5.77,4.311,5.695,4.334,5.645,4.393C5.57,4.479,5.578,4.607,5.664,4.682L6.688,5.58z"/>
</svg>
