<svg version="1.1" id="master" xmlns="http://www.w3.org/2000/svg" xmlns:xlink="http://www.w3.org/1999/xlink"
	 x="0px" y="0px" width="24px" height="24px" viewBox="0 0 24 24" enable-background="new 0 0 24 24" xml:space="preserve">
<path d="M12,2C6.477,2,2,5.918,2,10.75c0,2.738,1.441,5.18,3.691,6.785c0.375,0.27,0.594,0.707,0.527,1.168l-0.367,2.586
	C5.797,21.664,6.086,22,6.465,22H9.5v-2.188c0-0.172,0.141-0.313,0.313-0.313h0.625c0.172,0,0.313,0.141,0.313,0.313V22h2.5v-2.188
	c0-0.172,0.141-0.313,0.313-0.313h0.625c0.172,0,0.313,0.141,0.313,0.313V22h3.035c0.379,0,0.668-0.336,0.613-0.711l-0.367-2.586
	c-0.066-0.457,0.148-0.898,0.527-1.168C20.559,15.93,22,13.488,22,10.75C22,5.918,17.523,2,12,2z M8.25,14.5
	c-1.379,0-2.5-1.121-2.5-2.5s1.121-2.5,2.5-2.5s2.5,1.121,2.5,2.5S9.629,14.5,8.25,14.5z M15.75,14.5c-1.379,0-2.5-1.121-2.5-2.5
	s1.121-2.5,2.5-2.5s2.5,1.121,2.5,2.5S17.129,14.5,15.75,14.5z"/>
</svg>
