<svg version="1.1" id="master" xmlns="http://www.w3.org/2000/svg" xmlns:xlink="http://www.w3.org/1999/xlink" x="0px" y="0px"
	 width="24px" height="24px" viewBox="0 0 24 24" enable-background="new 0 0 24 24" xml:space="preserve">
<path d="M6.414,17.592c0.325,0.328,0.706,0.562,1.143,0.701c-0.186,0.357-0.325,0.729-0.417,1.112C7.046,19.79,7,20.181,7,20.578
	c0,0.199-0.038,0.385-0.114,0.557c-0.076,0.173-0.179,0.323-0.308,0.453c-0.129,0.129-0.28,0.229-0.452,0.303
	C5.953,21.964,5.768,22,5.568,22c-0.199,0-0.384-0.036-0.557-0.109c-0.172-0.073-0.323-0.174-0.452-0.303
	c-0.129-0.13-0.232-0.28-0.308-0.453c-0.076-0.172-0.114-0.357-0.114-0.557c0-0.065-0.01-0.136-0.03-0.208
	c0.02-0.047,0.03-0.097,0.03-0.149c0-0.146,0.028-0.285,0.084-0.418c0.056-0.132,0.132-0.246,0.229-0.343
	c0.096-0.096,0.209-0.172,0.338-0.229c0.129-0.057,0.27-0.084,0.423-0.084c0.099,0,0.184-0.035,0.253-0.104
	c0.069-0.069,0.104-0.154,0.104-0.254s-0.035-0.184-0.104-0.254c-0.07-0.068-0.154-0.104-0.253-0.104
	c-0.212,0-0.415,0.036-0.606,0.109c-0.192,0.072-0.366,0.172-0.522,0.298s-0.288,0.276-0.397,0.452s-0.184,0.366-0.224,0.572
	c-0.199,0-0.388-0.037-0.567-0.109c-0.179-0.073-0.334-0.175-0.467-0.304c-0.132-0.129-0.237-0.28-0.313-0.452S2,18.637,2,18.432
	c0-0.199,0.037-0.385,0.109-0.557s0.174-0.323,0.303-0.453c0.129-0.129,0.28-0.231,0.452-0.308S3.223,17,3.421,17
	c0.397,0,0.789-0.047,1.173-0.139c0.385-0.094,0.756-0.232,1.113-0.418C5.854,16.881,6.089,17.264,6.414,17.592z M17.587,17.592
	c-0.325,0.328-0.706,0.562-1.144,0.701c0.186,0.357,0.324,0.729,0.417,1.112C16.953,19.79,17,20.181,17,20.578
	c0,0.199,0.038,0.385,0.114,0.557c0.076,0.173,0.179,0.323,0.309,0.453c0.129,0.129,0.279,0.229,0.452,0.303
	C18.047,21.964,18.232,22,18.432,22c0.205,0,0.395-0.038,0.566-0.114s0.323-0.181,0.452-0.313c0.129-0.132,0.23-0.288,0.304-0.467
	c0.072-0.179,0.109-0.368,0.109-0.566c-0.206-0.04-0.396-0.114-0.572-0.224s-0.326-0.242-0.452-0.397
	c-0.126-0.156-0.226-0.33-0.298-0.522c-0.073-0.192-0.109-0.395-0.109-0.606c0-0.1,0.034-0.184,0.104-0.254
	c0.069-0.068,0.153-0.104,0.253-0.104s0.185,0.035,0.254,0.104c0.069,0.07,0.104,0.154,0.104,0.254c0,0.152,0.027,0.293,0.084,0.423
	c0.057,0.129,0.133,0.241,0.229,0.338c0.097,0.096,0.209,0.172,0.338,0.229c0.13,0.057,0.271,0.085,0.423,0.085
	c0.046,0,0.096,0.01,0.149,0.029c0.066-0.02,0.132-0.029,0.198-0.029c0.199,0,0.385-0.038,0.557-0.115
	c0.173-0.076,0.323-0.179,0.452-0.308c0.13-0.129,0.232-0.28,0.309-0.452S22,18.631,22,18.432s-0.038-0.385-0.114-0.557
	s-0.179-0.323-0.309-0.453c-0.129-0.129-0.279-0.231-0.452-0.308C20.953,17.038,20.768,17,20.568,17
	c-0.397,0-0.788-0.047-1.173-0.139c-0.384-0.094-0.752-0.232-1.104-0.418C18.146,16.881,17.911,17.264,17.587,17.592z M18.968,8.546
	c0.12,0.401,0.18,0.82,0.18,1.257v0.378c0,0.218-0.004,0.431-0.011,0.636c-0.006,0.206-0.026,0.408-0.06,0.606
	s-0.084,0.399-0.153,0.602c-0.07,0.202-0.168,0.409-0.294,0.622c-0.105,0.179-0.214,0.354-0.322,0.526
	c-0.109,0.173-0.208,0.347-0.294,0.522s-0.157,0.357-0.214,0.547c-0.056,0.188-0.084,0.396-0.084,0.621
	c0,0.086,0.002,0.168,0.005,0.248s0.005,0.162,0.005,0.248c0,0.066-0.002,0.131-0.005,0.194s-0.009,0.124-0.015,0.185
	c-0.021,0.231-0.075,0.451-0.164,0.66c-0.09,0.209-0.206,0.399-0.349,0.572c-0.142,0.172-0.31,0.319-0.502,0.441
	c-0.191,0.123-0.403,0.207-0.636,0.254c-0.112,0.026-0.227,0.043-0.343,0.05s-0.23,0.01-0.343,0.01
	c-0.087,0-0.173-0.001-0.259-0.005s-0.172-0.005-0.259-0.005v1.014c0,0.112-0.041,0.211-0.124,0.293
	c-0.083,0.083-0.181,0.125-0.293,0.125h-0.587c-0.112,0-0.21-0.042-0.293-0.125c-0.083-0.082-0.124-0.181-0.124-0.293v-1.014h-0.716
	v1.014c0,0.112-0.042,0.211-0.124,0.293c-0.083,0.083-0.181,0.125-0.294,0.125h-0.596c-0.113,0-0.211-0.042-0.294-0.125
	c-0.082-0.082-0.124-0.181-0.124-0.293v-1.014h-0.716v1.014c0,0.112-0.041,0.211-0.124,0.293c-0.083,0.083-0.181,0.125-0.293,0.125
	H9.564c-0.112,0-0.212-0.04-0.298-0.12c-0.086-0.079-0.129-0.178-0.129-0.298v-1.014H8.362c-0.292,0-0.563-0.06-0.815-0.179
	c-0.252-0.119-0.471-0.277-0.656-0.473s-0.333-0.42-0.442-0.676s-0.164-0.525-0.164-0.811c0-0.092,0.002-0.188,0.005-0.288
	c0.003-0.099,0.005-0.195,0.005-0.288c0-0.066,0-0.131,0-0.193c0-0.063-0.007-0.125-0.02-0.185c-0.033-0.259-0.091-0.488-0.174-0.69
	c-0.083-0.202-0.176-0.393-0.278-0.572c-0.103-0.178-0.212-0.355-0.328-0.531c-0.116-0.176-0.22-0.366-0.313-0.572
	c-0.093-0.205-0.171-0.434-0.234-0.686s-0.094-0.543-0.094-0.875v-0.169c0-0.285,0.003-0.547,0.01-0.785
	c0.007-0.239,0.026-0.472,0.06-0.701c0.033-0.229,0.086-0.458,0.159-0.686s0.179-0.479,0.318-0.75
	c0.298-0.583,0.693-1.092,1.183-1.526s1.034-0.795,1.63-1.083c0.596-0.288,1.221-0.503,1.874-0.646S11.377,4.137,12,4.137
	c0.849,0,1.682,0.118,2.5,0.353c0.818,0.235,1.575,0.601,2.271,1.098c0.345,0.245,0.662,0.522,0.954,0.83s0.542,0.64,0.751,0.994
	C18.685,7.767,18.849,8.145,18.968,8.546z M10.568,11.642v-0.716c0-0.245-0.046-0.475-0.139-0.691
	c-0.093-0.215-0.221-0.404-0.383-0.566C9.884,9.507,9.695,9.379,9.48,9.286C9.265,9.193,9.035,9.147,8.789,9.147
	c-0.245,0-0.477,0.046-0.696,0.139C7.875,9.379,7.684,9.505,7.522,9.664c-0.163,0.159-0.29,0.348-0.383,0.566S7,10.681,7,10.926
	v0.716c0,0.245,0.046,0.477,0.139,0.696s0.22,0.409,0.383,0.572c0.162,0.162,0.353,0.289,0.571,0.383
	c0.219,0.092,0.451,0.139,0.696,0.139c0.246,0,0.476-0.049,0.691-0.145s0.404-0.225,0.567-0.388c0.162-0.162,0.29-0.351,0.383-0.566
	C10.522,12.118,10.568,11.887,10.568,11.642z M13.432,15.191c0-0.054-0.009-0.106-0.025-0.16c-0.017-0.053-0.038-0.105-0.064-0.158
	l-0.935-1.77c-0.046-0.08-0.098-0.164-0.153-0.254c-0.057-0.09-0.142-0.134-0.254-0.134s-0.197,0.046-0.254,0.14
	c-0.056,0.092-0.107,0.178-0.153,0.258l-0.935,1.75c-0.026,0.053-0.048,0.105-0.064,0.158s-0.025,0.106-0.025,0.16
	c0,0.132,0.043,0.229,0.13,0.293c0.086,0.063,0.188,0.094,0.308,0.094h1.998c0.119,0,0.221-0.031,0.304-0.094
	C13.39,15.411,13.432,15.316,13.432,15.191z M17,10.926c0-0.245-0.047-0.477-0.14-0.696s-0.22-0.407-0.382-0.566
	c-0.163-0.159-0.354-0.285-0.572-0.378c-0.219-0.093-0.45-0.139-0.695-0.139s-0.476,0.046-0.691,0.139
	c-0.215,0.093-0.404,0.221-0.566,0.383c-0.162,0.163-0.29,0.352-0.383,0.566c-0.093,0.216-0.139,0.446-0.139,0.691v0.716
	c0,0.252,0.046,0.486,0.139,0.701c0.093,0.216,0.221,0.404,0.383,0.567c0.162,0.162,0.354,0.289,0.571,0.383
	c0.219,0.092,0.454,0.139,0.706,0.139c0.245,0,0.476-0.049,0.691-0.145c0.215-0.096,0.402-0.225,0.562-0.388
	c0.159-0.162,0.284-0.351,0.377-0.566c0.093-0.215,0.14-0.446,0.14-0.691V10.926z M7.179,4.763C7.06,4.326,7,3.882,7,3.432
	c0-0.199-0.038-0.384-0.114-0.557C6.81,2.703,6.707,2.552,6.578,2.422C6.448,2.293,6.297,2.19,6.125,2.114
	C5.953,2.038,5.768,2,5.568,2C5.363,2,5.174,2.038,5.002,2.114S4.679,2.295,4.55,2.427C4.42,2.56,4.319,2.716,4.247,2.895
	C4.174,3.074,4.137,3.262,4.137,3.461c0.206,0.04,0.396,0.114,0.572,0.224c0.175,0.109,0.326,0.242,0.452,0.397
	s0.225,0.33,0.298,0.522c0.073,0.192,0.109,0.394,0.109,0.606c0,0.099-0.035,0.184-0.104,0.253C5.395,5.534,5.31,5.568,5.211,5.568
	c-0.1,0-0.184-0.035-0.254-0.104C4.888,5.395,4.853,5.31,4.853,5.211c0-0.146-0.028-0.284-0.084-0.413
	C4.712,4.669,4.634,4.555,4.535,4.455C4.436,4.356,4.321,4.278,4.192,4.222S3.925,4.137,3.779,4.137c-0.053,0-0.103-0.01-0.149-0.03
	c-0.073,0.02-0.143,0.03-0.209,0.03c-0.199,0-0.384,0.038-0.557,0.114S2.542,4.43,2.413,4.56s-0.23,0.28-0.303,0.452
	C2.037,5.185,2,5.37,2,5.568c0,0.199,0.037,0.385,0.109,0.557s0.174,0.323,0.303,0.452c0.129,0.129,0.28,0.232,0.452,0.308
	S3.223,7,3.421,7c0.464,0,0.931,0.066,1.402,0.199c0.278-0.51,0.62-0.967,1.023-1.372C6.251,5.423,6.695,5.068,7.179,4.763z
	 M22,5.568c0-0.205-0.038-0.394-0.114-0.566s-0.181-0.323-0.313-0.452c-0.132-0.129-0.288-0.23-0.467-0.303
	s-0.368-0.109-0.566-0.109c-0.04,0.206-0.114,0.396-0.224,0.572c-0.109,0.175-0.242,0.326-0.397,0.452
	c-0.156,0.126-0.33,0.225-0.522,0.298c-0.192,0.073-0.395,0.109-0.606,0.109c-0.1,0-0.184-0.035-0.253-0.104
	c-0.07-0.07-0.104-0.154-0.104-0.253c0-0.1,0.034-0.184,0.104-0.254c0.069-0.069,0.153-0.104,0.253-0.104
	c0.146,0,0.283-0.028,0.413-0.084c0.129-0.056,0.243-0.134,0.343-0.234c0.1-0.099,0.177-0.213,0.233-0.343s0.085-0.267,0.085-0.413
	c0-0.046,0.01-0.096,0.029-0.149c-0.02-0.066-0.029-0.133-0.029-0.199c0-0.199-0.038-0.384-0.115-0.557
	c-0.076-0.172-0.179-0.323-0.308-0.452c-0.129-0.129-0.28-0.232-0.452-0.308C18.815,2.038,18.63,2,18.432,2
	c-0.199,0-0.385,0.038-0.557,0.114c-0.173,0.076-0.323,0.179-0.452,0.308c-0.13,0.129-0.232,0.28-0.309,0.452
	C17.038,3.047,17,3.232,17,3.432c0,0.451-0.06,0.895-0.179,1.332c0.483,0.305,0.928,0.661,1.332,1.069s0.745,0.863,1.023,1.367
	C19.634,7.066,20.098,7,20.568,7c0.199,0,0.385-0.038,0.557-0.114c0.173-0.076,0.323-0.179,0.452-0.308
	c0.13-0.129,0.232-0.28,0.309-0.452S22,5.768,22,5.568z"/>
</svg>
