<svg version="1.1" id="icon_skype" xmlns="http://www.w3.org/2000/svg" xmlns:xlink="http://www.w3.org/1999/xlink" x="0px" y="0px"
	 width="24px" height="24px" viewBox="0 0 24 24" enable-background="new 0 0 24 24" xml:space="preserve">
<path d="M21.413,14.056c0.136-0.656,0.22-1.354,0.22-2.053c0-5.322-4.309-9.626-9.625-9.626c-0.699,0-1.393,0.08-2.054,0.221
	C9.063,1.908,7.956,1.5,6.751,1.5C3.854,1.5,1.5,3.854,1.5,6.751c0,1.205,0.408,2.312,1.093,3.198
	c-0.137,0.656-0.221,1.355-0.221,2.054c0,5.322,4.309,9.625,9.625,9.625c0.699,0,1.393-0.079,2.054-0.22
	c0.891,0.685,1.996,1.092,3.197,1.092c2.897,0,5.251-2.354,5.251-5.251C22.505,16.048,22.097,14.942,21.413,14.056z M12.289,18.346
	c-3.076,0-5.65-1.368-5.65-3.048c0-0.75,0.422-1.434,1.383-1.434c1.463,0,1.599,2.104,4.13,2.104c1.205,0,1.983-0.534,1.983-1.233
	c0-0.876-0.75-1.012-1.969-1.313c-2.93-0.722-5.523-1.031-5.523-4.088c0-2.776,2.748-3.803,5.116-3.803
	c2.583,0,5.195,1.026,5.195,2.597c0,0.792-0.534,1.491-1.422,1.491c-1.326,0-1.368-1.571-3.516-1.571
	c-1.205,0-1.969,0.328-1.969,1.055c0,0.928,0.975,1.022,3.24,1.547c1.94,0.437,4.253,1.257,4.253,3.638
	C17.54,17.062,14.862,18.346,12.289,18.346z"/>
</svg>
