<svg version="1.1" id="master" xmlns="http://www.w3.org/2000/svg" xmlns:xlink="http://www.w3.org/1999/xlink" x="0px" y="0px"
	 width="24px" height="24px" viewBox="0 0 24 24" enable-background="new 0 0 24 24" xml:space="preserve">
<rect fill="none" width="24" height="24"/>
<path d="M20.965,13.959c0.129-0.625,0.209-1.29,0.209-1.956c0-5.068-4.104-9.168-9.166-9.168c-0.666,0-1.326,0.077-1.956,0.211
	C9.203,2.389,8.149,2,7.001,2C4.242,2,2,4.242,2,7.001c0,1.147,0.389,2.202,1.041,3.046c-0.13,0.625-0.21,1.291-0.21,1.956
	c0,5.067,4.104,9.167,9.167,9.167c0.665,0,1.327-0.076,1.956-0.21c0.849,0.651,1.901,1.04,3.045,1.04C19.758,22,22,19.759,22,16.999
	C22.005,15.855,21.617,14.802,20.965,13.959z M12.276,18.044c-2.93,0-5.381-1.303-5.381-2.903c0-0.714,0.402-1.365,1.317-1.365
	c1.393,0,1.523,2.005,3.933,2.005c1.148,0,1.888-0.509,1.888-1.175c0-0.834-0.715-0.965-1.875-1.25
	c-2.791-0.688-5.26-0.982-5.26-3.895c0-2.644,2.617-3.622,4.872-3.622c2.46,0,4.947,0.977,4.947,2.473
	c0,0.754-0.509,1.42-1.354,1.42c-1.264,0-1.305-1.497-3.349-1.497c-1.147,0-1.875,0.313-1.875,1.005
	c0,0.884,0.929,0.973,3.085,1.473c1.848,0.416,4.051,1.197,4.051,3.464C17.275,16.82,14.725,18.044,12.276,18.044z"/>
</svg>
