<svg version="1.1" id="master" xmlns="http://www.w3.org/2000/svg" xmlns:xlink="http://www.w3.org/1999/xlink" x="0px" y="0px"
	 width="24px" height="24px" viewBox="0 0 24 24" enable-background="new 0 0 24 24" xml:space="preserve">
<rect fill="none" width="24" height="24"/>
<path d="M6.203,14.639c-0.002,1.158-0.941,2.098-2.101,2.102c-1.161-0.004-2.1-0.943-2.102-2.102
	c0.003-1.16,0.942-2.099,2.102-2.102h2.101V14.639z M7.261,14.639c0.003-1.16,0.942-2.099,2.101-2.102
	c1.159,0.003,2.098,0.941,2.102,2.102v5.26c-0.003,1.16-0.941,2.1-2.102,2.102c-1.159-0.002-2.098-0.941-2.101-2.102V14.639z
	 M9.362,6.203C8.204,6.2,7.265,5.261,7.261,4.102C7.264,2.942,8.203,2.003,9.362,2c1.159,0.003,2.099,0.942,2.102,2.102v2.101H9.362
	z M9.362,7.261c1.159,0.003,2.098,0.942,2.102,2.101c-0.003,1.159-0.942,2.098-2.102,2.102h-5.26C2.942,11.459,2.003,10.521,2,9.362
	c0.003-1.159,0.942-2.098,2.102-2.101H9.362z M17.797,9.362c0.004-1.159,0.941-2.098,2.102-2.101
	c1.16,0.003,2.098,0.941,2.102,2.101c-0.004,1.159-0.941,2.099-2.102,2.102h-2.102V9.362L17.797,9.362z M16.738,9.362
	c-0.002,1.16-0.941,2.099-2.102,2.102c-1.158-0.003-2.098-0.942-2.101-2.102v-5.26C12.54,2.942,13.479,2.003,14.639,2
	c1.158,0.002,2.1,0.941,2.102,2.102v5.26H16.738z M14.639,17.797c1.158,0.002,2.1,0.941,2.102,2.102
	C16.738,21.059,15.799,22,14.639,22c-1.16-0.002-2.099-0.941-2.102-2.102v-2.102H14.639L14.639,17.797z M14.639,16.74
	c-1.16-0.004-2.1-0.943-2.102-2.104c0.003-1.158,0.941-2.098,2.102-2.101h5.26c1.16,0.003,2.1,0.94,2.102,2.101
	c0,1.16-0.939,2.1-2.102,2.104H14.639L14.639,16.74z"/>
</svg>
