<svg version="1.1" id="master" xmlns="http://www.w3.org/2000/svg" xmlns:xlink="http://www.w3.org/1999/xlink" x="0px" y="0px"
	 width="24px" height="24px" viewBox="0 0 24 24" enable-background="new 0 0 24 24" xml:space="preserve">
<rect fill="none" width="24" height="24"/>
<path d="M21.146,14.959l-0.291-0.231c-0.215-0.172-0.53-0.137-0.703,0.078l-0.313,0.391c-0.171,0.217-0.137,0.531,0.078,0.703
	l0.291,0.231c0.185,0.147,0.288,0.366,0.288,0.601c0,0.425-0.345,0.768-0.77,0.768H3.5C3.225,17.499,3,17.725,3,18v0.5
	C3,18.774,3.225,19,3.5,19h16.125c1.219,0,2.303-0.916,2.371-2.135C22.04,16.122,21.725,15.419,21.146,14.959z M3,11
	c0,1.862,1.278,3.412,3,3.859V16.5h2V15h6v1.5h2V15c1.656,0,3-1.344,3-3V9c0.554,0,0.999-0.447,0.999-1c0-0.554-0.445-1-0.999-1h-3
	v2c0,1.103-0.897,2-2,2h-0.647C11.296,11,9.418,9.837,8.5,8C7.581,6.163,5.7,5,3.646,5H3C2.447,5,2,5.447,2,6c0,0.554,0.447,1,1,1
	V11z"/>
</svg>
