<svg version="1.1" id="master" xmlns="http://www.w3.org/2000/svg" xmlns:xlink="http://www.w3.org/1999/xlink" x="0px" y="0px"
	 width="24px" height="24px" viewBox="0 0 24 24" enable-background="new 0 0 24 24" xml:space="preserve">
<rect fill="none" width="24" height="24"/>
<path d="M12.171,2.661c0.825,0,3.622,0.229,4.942,3.185c0.441,0.993,0.336,2.682,0.25,4.038l-0.004,0.051
	c-0.01,0.149-0.02,0.287-0.025,0.425c0.064,0.038,0.17,0.075,0.334,0.075c0.252-0.015,0.551-0.102,0.861-0.251
	c0.139-0.073,0.287-0.087,0.387-0.087c0.152,0,0.299,0.023,0.424,0.074c0.375,0.124,0.611,0.399,0.611,0.698
	c0.014,0.374-0.324,0.699-1.01,0.974c-0.074,0.023-0.174,0.063-0.287,0.1c-0.375,0.112-0.949,0.301-1.111,0.676
	c-0.074,0.186-0.051,0.437,0.102,0.722l0.014,0.014c0.049,0.113,1.271,2.896,3.992,3.346c0.211,0.035,0.361,0.225,0.35,0.424
	c0,0.063-0.012,0.125-0.037,0.188c-0.199,0.475-1.061,0.822-2.621,1.059c-0.051,0.076-0.102,0.313-0.137,0.475
	c-0.023,0.15-0.063,0.301-0.113,0.461c-0.063,0.229-0.225,0.338-0.463,0.338h-0.023c-0.111,0-0.262-0.023-0.449-0.061
	c-0.299-0.064-0.637-0.113-1.061-0.113c-0.248,0-0.498,0.012-0.762,0.063c-0.498,0.088-0.936,0.387-1.436,0.736
	c-0.711,0.5-1.521,1.072-2.746,1.072c-0.05,0-0.099-0.012-0.149-0.012h-0.125c-1.223,0-2.021-0.563-2.731-1.074
	c-0.5-0.352-0.923-0.648-1.423-0.736c-0.263-0.039-0.524-0.063-0.773-0.063c-0.45,0-0.798,0.072-1.06,0.123
	c-0.177,0.035-0.326,0.063-0.45,0.063c-0.313,0-0.437-0.188-0.486-0.35c-0.051-0.16-0.075-0.324-0.112-0.475
	c-0.038-0.15-0.088-0.41-0.139-0.475c-1.598-0.186-2.457-0.535-2.656-1.021C2.021,17.27,2.003,17.195,2,17.133
	c-0.013-0.201,0.138-0.387,0.35-0.424c2.72-0.449,3.941-3.232,3.992-3.352l0.014-0.023c0.149-0.287,0.187-0.536,0.1-0.724
	c-0.163-0.36-0.737-0.548-1.109-0.673c-0.102-0.024-0.2-0.063-0.288-0.1c-0.923-0.362-1.047-0.774-0.998-1.062
	c0.075-0.398,0.562-0.66,0.973-0.66c0.122,0,0.225,0.023,0.319,0.063c0.35,0.16,0.656,0.25,0.92,0.25
	c0.194,0,0.319-0.051,0.387-0.089L6.622,9.866C6.54,8.513,6.434,6.824,6.876,5.836c1.283-2.938,4.071-3.163,4.895-3.163l0.35-0.013
	L12.171,2.661L12.171,2.661z"/>
</svg>
