<svg version="1.1" id="master" xmlns="http://www.w3.org/2000/svg" xmlns:xlink="http://www.w3.org/1999/xlink" x="0px" y="0px"
	 width="24px" height="24px" viewBox="0 0 24 24" enable-background="new 0 0 24 24" xml:space="preserve">
<path d="M21.954,7.952l-0.23-0.566c-0.128-0.313-0.492-0.465-0.812-0.34l-1.102,0.449V6.362c0-0.336-0.282-0.609-0.625-0.609h-0.625
	c-0.344,0-0.625,0.273-0.625,0.609v1.832c0,0.02,0.012,0.039,0.012,0.059L15.744,9.15c-0.23-0.39-0.519-0.737-0.859-1.039
	c0.531-0.647,0.859-1.46,0.859-2.362c0-2.07-1.679-3.749-3.749-3.749c-2.07,0-3.749,1.679-3.749,3.749
	c0,0.902,0.332,1.715,0.859,2.362C8.766,8.413,8.48,8.761,8.246,9.15L6.043,8.253c0.004-0.02,0.012-0.039,0.012-0.059V6.362
	c0.008-0.336-0.273-0.609-0.617-0.609H4.813c-0.344,0-0.625,0.273-0.625,0.609v1.133L3.091,7.046
	c-0.32-0.125-0.684,0.027-0.812,0.34L2.048,7.952C1.919,8.265,2.075,8.619,2.396,8.745l5.28,2.155
	c-0.016,0.156-0.047,0.313-0.047,0.477c0,0.395,0.066,0.766,0.164,1.128c-1.07,1.074-1.73,2.551-1.73,4.184
	c0,2.108,1.109,3.94,2.765,4.99C9.191,21.91,9.621,22,10.05,22h3.874c0.521,0,1.028-0.161,1.453-0.458
	c1.816-1.261,2.906-3.491,2.457-5.959c-0.215-1.18-0.801-2.25-1.625-3.085c0.098-0.359,0.164-0.73,0.164-1.121
	c0-0.164-0.03-0.316-0.047-0.477l5.28-2.155C21.923,8.624,22.079,8.268,21.954,7.952z M10.75,5.753
	c-0.344,0-0.625-0.281-0.625-0.625s0.281-0.625,0.625-0.625s0.625,0.281,0.625,0.625S11.093,5.753,10.75,5.753z M11.999,16.376
	c-0.344,0-0.625-0.282-0.625-0.625c0-0.344,0.281-0.625,0.625-0.625s0.625,0.281,0.625,0.625
	C12.624,16.094,12.343,16.376,11.999,16.376z M11.999,13.876c-0.344,0-0.625-0.281-0.625-0.625c0-0.343,0.281-0.625,0.625-0.625
	s0.625,0.282,0.625,0.625C12.624,13.595,12.343,13.876,11.999,13.876z M11.999,11.377c-0.344,0-0.625-0.281-0.625-0.625
	s0.281-0.625,0.625-0.625s0.625,0.281,0.625,0.625S12.343,11.377,11.999,11.377z M11.999,7.94c0,0-0.625-0.906-0.625-1.25
	s0.281-0.625,0.625-0.625s0.625,0.281,0.625,0.625S11.999,7.94,11.999,7.94z M13.249,5.753c-0.344,0-0.625-0.281-0.625-0.625
	s0.281-0.625,0.625-0.625s0.625,0.281,0.625,0.625S13.593,5.753,13.249,5.753z"/>
</svg>
