<svg version="1.1" id="master" xmlns="http://www.w3.org/2000/svg" xmlns:xlink="http://www.w3.org/1999/xlink" x="0px" y="0px"
	 width="24px" height="24px" viewBox="0 0 24 24" enable-background="new 0 0 24 24" xml:space="preserve">
<path d="M18.872,5.75c1.035,0,1.875-0.84,1.875-1.875S19.907,2,18.872,2s-1.875,0.84-1.875,1.875S17.837,5.75,18.872,5.75z
	 M19.996,11.75c0.228,0.168,0.488,0.25,0.751,0.25c0.379,0,0.753-0.172,1-0.5c0.414-0.551,0.305-1.336-0.25-1.75l-4.353-3.262
	c-0.538-0.402-1.136-0.719-1.772-0.93L12.884,4.73l-1.02-2.035c-0.309-0.617-1.059-0.867-1.676-0.559S9.32,3.195,9.629,3.813
	l1.137,2.27c0.223,0.445,0.61,0.777,1.082,0.938l0.641,0.215l-1.61,0.805c-0.851,0.426-1.383,1.281-1.383,2.234v2.074l-2.895,0.965
	c-0.656,0.219-1.007,0.926-0.789,1.582c0.066,0.203,0.192,0.367,0.34,0.504l-1.512-0.551c-0.379-0.137-0.679-0.414-0.852-0.781
	c-0.218-0.469-0.777-0.672-1.246-0.453s-0.671,0.777-0.453,1.246c0.383,0.82,1.059,1.441,1.911,1.75l14.25,5.184
	C18.629,21.93,19.02,22,19.41,22c0.488,0,0.974-0.105,1.426-0.32c0.469-0.219,0.673-0.777,0.454-1.246
	c-0.22-0.469-0.777-0.672-1.246-0.453c-0.363,0.172-0.773,0.188-1.152,0.051l-3.547-1.293c0.34-0.16,0.608-0.461,0.695-0.855
	l0.855-3.984c0.151-0.711-0.125-1.453-0.708-1.891l-2.031-1.523l2.578-1.191L19.996,11.75z M14.356,13.77l-0.77,3.594
	c-0.059,0.277-0.004,0.543,0.109,0.781l-6.618-2.406c0.105-0.008,0.21-0.016,0.313-0.051l3.32-1.109
	c0.765-0.254,1.281-0.969,1.281-1.777V12L14.356,13.77z"/>
</svg>
