<svg version="1.1" id="master" xmlns="http://www.w3.org/2000/svg" xmlns:xlink="http://www.w3.org/1999/xlink" x="0px" y="0px"
	 width="24px" height="24px" viewBox="0 0 24 24" enable-background="new 0 0 24 24" xml:space="preserve">
<rect fill="none" width="24" height="24"/>
<path d="M18.25,18.25H5.75l-1.852,2.777C3.621,21.445,3.918,22,4.418,22h15.164c0.5,0,0.797-0.555,0.52-0.973L18.25,18.25z
	 M10.75,17v-1.25H8.488c-0.555,0-0.859-0.586-0.504-0.973L10.543,12H9.367c-0.418,0-0.645-0.438-0.379-0.73l2.633-2.859
	c0.195-0.215,0.559-0.215,0.754,0l2.633,2.859c0.266,0.289,0.039,0.73-0.379,0.73h-1.176l2.559,2.777
	c0.355,0.387,0.051,0.973-0.504,0.973H13.25V17h4.848c1.629-1.586,2.652-3.793,2.652-6.25C20.75,5.918,16.832,2,12,2
	s-8.75,3.918-8.75,8.75c0,2.457,1.02,4.664,2.652,6.25H10.75z M16.375,8.25C16.719,8.25,17,8.531,17,8.875S16.719,9.5,16.375,9.5
	S15.75,9.219,15.75,8.875S16.031,8.25,16.375,8.25z M12.625,4.5c0.344,0,0.625,0.281,0.625,0.625S12.969,5.75,12.625,5.75
	S12,5.469,12,5.125S12.281,4.5,12.625,4.5z M6.375,10.75C6.719,10.75,7,11.031,7,11.375S6.719,12,6.375,12S5.75,11.719,5.75,11.375
	S6.031,10.75,6.375,10.75z"/>
</svg>
