<svg version="1.1" id="master" xmlns="http://www.w3.org/2000/svg" xmlns:xlink="http://www.w3.org/1999/xlink" x="0px" y="0px"
	 width="24px" height="24px" viewBox="0 0 24 24" enable-background="new 0 0 24 24" xml:space="preserve">
<path d="M5.75,15.75C5.335,15.75,5,16.085,5,16.501c0,0.415,0.335,0.749,0.75,0.749c0.416,0,0.75-0.334,0.75-0.749
	C6.5,16.085,6.166,15.75,5.75,15.75z M8.25,15.75c-0.415,0-0.75,0.335-0.75,0.751c0,0.415,0.335,0.749,0.75,0.749
	c0.416,0,0.75-0.334,0.75-0.749C9,16.085,8.666,15.75,8.25,15.75z M10.751,15.75c-0.416,0-0.75,0.335-0.75,0.751
	c0,0.415,0.334,0.749,0.75,0.749c0.415,0,0.75-0.334,0.75-0.749C11.501,16.085,11.166,15.75,10.751,15.75z M13.251,15.75
	c-0.415,0-0.751,0.335-0.751,0.751c0,0.415,0.336,0.749,0.751,0.749s0.75-0.334,0.75-0.749C14.001,16.085,13.666,15.75,13.251,15.75
	z M20.707,17.294c-0.452-0.453-0.706-1.065-0.706-1.706v-3.175c0-0.642,0.254-1.254,0.706-1.707l1.147-1.146
	c0.194-0.193,0.194-0.513,0-0.706l-0.706-0.706c-0.193-0.194-0.513-0.194-0.706,0l-1.147,1.146c-0.828,0.828-1.294,1.95-1.294,3.122
	V13h-2v-1.591c0-0.271-0.057-0.537-0.162-0.787l-2.447-5.713C13.154,4.356,12.613,4,12.01,4H7.5C6.672,4,6,4.672,6,5.5V9H5.5
	C4.672,9,4,9.672,4,10.5v2.851c-1.178,0.562-2,1.756-2,3.15C2,18.435,3.565,20,5.5,20h8.001c1.935,0,3.5-1.565,3.5-3.499
	c0-0.541-0.132-1.045-0.35-1.501h1.35v0.584c0,1.172,0.466,2.294,1.294,3.122l1.147,1.147c0.193,0.193,0.513,0.193,0.706,0
	l0.706-0.706c0.194-0.194,0.194-0.513,0-0.707L20.707,17.294z M8.001,6h3.681l2.144,5h-3.824l-2-2V6z M13.501,18H5.5
	C4.672,18,4,17.328,4,16.501C4,15.672,4.672,15,5.5,15h8.001c0.828,0,1.5,0.672,1.5,1.501C15.001,17.328,14.329,18,13.501,18z"/>
</svg>
