<svg version="1.1" id="master" xmlns="http://www.w3.org/2000/svg" xmlns:xlink="http://www.w3.org/1999/xlink" x="0px" y="0px"
	 width="24px" height="24px" viewBox="0 0 24 24" enable-background="new 0 0 24 24" xml:space="preserve">
<rect fill="none" width="24" height="24"/>
<path d="M10.385,14.148L13.25,12V5.75H7v6.875l-3.385,2.524c-1.539,1.154-2.104,3.298-1.141,4.963C3.187,21.346,4.472,22,5.753,22
	C6.536,22,7.326,21.756,8,21.25l0.854-0.64C7.688,18.447,8.325,15.694,10.385,14.148z M13.25,3.25c0-0.432,0.12-0.832,0.313-1.187
	C13.461,2.036,13.361,2,13.25,2h-5C7.56,2,7,2.56,7,3.25V4.5h6.25V3.25z M20.75,2h-5c-0.69,0-1.25,0.56-1.25,1.25V4.5H22V3.25
	C22,2.56,21.44,2,20.75,2z M14.5,12.625l-3.364,2.524c-1.539,1.154-2.104,3.298-1.142,4.963C10.707,21.346,11.972,22,13.253,22
	c0.783,0,1.572-0.244,2.247-0.75l4.5-3.375c1.26-0.944,2-2.426,2-4V5.75h-7.5V12.625z"/>
</svg>
