<svg version="1.1" id="master" xmlns="http://www.w3.org/2000/svg" xmlns:xlink="http://www.w3.org/1999/xlink" x="0px" y="0px"
	 width="24px" height="24px" viewBox="0 0 24 24" enable-background="new 0 0 24 24" xml:space="preserve">
<path d="M17.62,8.261h-0.037c0.354-3.083-1.858-5.871-4.942-6.225c-3.083-0.354-5.87,1.859-6.224,4.942
	c-0.049,0.426-0.049,0.856,0,1.282H6.38c-1.034,0-1.873,0.839-1.873,1.874s0.839,1.874,1.873,1.874h11.24
	c1.034,0,1.873-0.839,1.873-1.874S18.654,8.261,17.62,8.261z M10.883,21.284c0.285,0.617,1.016,0.887,1.633,0.603
	c0.265-0.123,0.479-0.336,0.602-0.603l3.879-8.027H7.005L10.883,21.284z"/>
</svg>
