<svg version="1.1" id="icon_soundcloud" xmlns="http://www.w3.org/2000/svg" xmlns:xlink="http://www.w3.org/1999/xlink" x="0px"
	 y="0px" width="24px" height="24px" viewBox="0 0 24 24" enable-background="new 0 0 24 24" xml:space="preserve">
<path d="M5.482,12.008l0.181,2.031l-0.181,2.135c-0.01,0.078-0.069,0.137-0.138,0.137c-0.068,0-0.131-0.059-0.131-0.137
	l-0.175-2.135l0.175-2.031c0-0.069,0.06-0.132,0.131-0.132C5.413,11.876,5.472,11.939,5.482,12.008z M6.151,10.583
	c-0.088,0-0.147,0.069-0.157,0.156l-0.156,3.3l0.156,2.135c0.01,0.088,0.069,0.156,0.157,0.156c0.078,0,0.146-0.068,0.146-0.156
	l0.181-2.135l-0.181-3.3C6.297,10.651,6.229,10.583,6.151,10.583z M6.947,9.829c-0.097,0-0.166,0.069-0.175,0.166l-0.138,4.062
	l0.138,2.121c0.009,0.096,0.078,0.166,0.175,0.166c0.088,0,0.166-0.07,0.166-0.166l0.166-2.121L7.113,9.995
	C7.113,9.898,7.035,9.829,6.947,9.829z M2.225,12.848c-0.044,0-0.069,0.035-0.078,0.078L2,14.039l0.147,1.094
	c0.009,0.045,0.034,0.078,0.078,0.078c0.043,0,0.069-0.033,0.078-0.078l0.175-1.094l-0.175-1.113
	C2.294,12.883,2.269,12.848,2.225,12.848z M2.962,12.164c-0.043,0-0.078,0.035-0.078,0.078l-0.2,1.797l0.2,1.754
	c0,0.053,0.035,0.088,0.078,0.088c0.044,0,0.078-0.035,0.087-0.078l0.225-1.764L3.05,12.242C3.041,12.199,3.006,12.164,2.962,12.164
	z M3.753,11.808c-0.053,0-0.097,0.044-0.103,0.103l-0.181,2.128l0.181,2.057c0.009,0.053,0.053,0.098,0.103,0.098
	c0.053,0,0.097-0.045,0.097-0.098l0.215-2.057l-0.215-2.128C3.851,11.852,3.807,11.808,3.753,11.808z M4.544,11.739
	c-0.06,0-0.113,0.043-0.113,0.112L4.25,14.039l0.181,2.119c0,0.068,0.053,0.113,0.113,0.113c0.059,0,0.112-0.045,0.122-0.113
	l0.2-2.119l-0.2-2.188C4.657,11.783,4.604,11.739,4.544,11.739z M12.089,8.272c-0.034-0.025-0.088-0.043-0.132-0.043
	c-0.068,0-0.131,0.025-0.175,0.06c-0.06,0.053-0.097,0.131-0.103,0.209v0.025l-0.103,5.522l0.053,1.016l0.053,0.99
	c0.009,0.148,0.131,0.27,0.278,0.27s0.269-0.121,0.269-0.27l0.122-2.006L12.23,8.498C12.217,8.404,12.167,8.316,12.089,8.272z
	 M11.254,8.75c-0.043-0.024-0.087-0.043-0.137-0.043S11.02,8.726,10.979,8.75c-0.068,0.044-0.112,0.122-0.112,0.21l-0.01,0.053
	l-0.087,5.025c0,0,0,0.01,0.097,2.051v0.01c0,0.053,0.019,0.104,0.053,0.146c0.053,0.059,0.122,0.098,0.2,0.098
	c0.069,0,0.131-0.035,0.175-0.078c0.054-0.045,0.078-0.104,0.078-0.176l0.01-0.209l0.097-1.832L11.376,8.96
	C11.367,8.873,11.323,8.794,11.254,8.75z M7.773,9.454c-0.097,0-0.181,0.088-0.181,0.19l-0.138,4.395l0.138,2.1
	c0.009,0.104,0.087,0.182,0.181,0.182c0.103,0,0.181-0.078,0.19-0.182l0.156-2.1L7.963,9.645C7.957,9.542,7.879,9.454,7.773,9.454z
	 M19.547,11.417c-0.338,0-0.659,0.068-0.957,0.19c-0.199-2.212-2.057-3.951-4.322-3.951c-0.557,0-1.094,0.104-1.572,0.294
	c-0.191,0.069-0.244,0.137-0.244,0.288v7.805c0,0.156,0.122,0.268,0.268,0.287h6.824c1.353,0,2.456-1.094,2.456-2.447
	C22.003,12.521,20.899,11.417,19.547,11.417z M10.273,9.532c-0.132,0-0.234,0.103-0.244,0.244l-0.103,4.272l0.103,2.051
	c0.01,0.131,0.112,0.234,0.244,0.234c0.131,0,0.234-0.104,0.234-0.234l0.122-2.051l-0.122-4.272
	C10.498,9.635,10.405,9.532,10.273,9.532z M8.598,9.288c-0.103,0-0.2,0.098-0.2,0.21l-0.122,4.541l0.122,2.09
	c0.009,0.113,0.097,0.201,0.2,0.201c0.113,0,0.2-0.088,0.209-0.201l0.138-2.09L8.807,9.498C8.798,9.386,8.71,9.288,8.598,9.288z
	 M9.433,9.395c-0.122,0-0.216,0.097-0.216,0.215l-0.122,4.429l0.122,2.076c0.009,0.121,0.097,0.215,0.216,0.215
	c0.119,0,0.215-0.098,0.215-0.215l0.132-2.076L9.648,9.61C9.648,9.488,9.555,9.395,9.433,9.395z"/>
</svg>
