<svg version="1.1" id="master" xmlns="http://www.w3.org/2000/svg" xmlns:xlink="http://www.w3.org/1999/xlink" x="0px" y="0px"
	 width="24px" height="24px" viewBox="0 0 24 24" enable-background="new 0 0 24 24" xml:space="preserve">
<rect fill="none" width="24" height="24"/>
<path d="M9.465,7.723C9.517,8.027,9.781,8.25,10.09,8.25h0.645c0.382,0,0.688-0.332,0.636-0.703
	c-0.146-1.103-0.647-2.127-1.429-2.918c-0.56-0.567-0.921-1.3-1.032-2.09C8.865,2.228,8.597,1.997,8.282,2H7.641
	c-0.352-0.001-0.638,0.282-0.64,0.634c0,0.023,0.001,0.046,0.003,0.069C7.155,3.947,7.712,5.106,8.59,6
	C9.054,6.469,9.359,7.072,9.465,7.723z M13.841,7.723c0.052,0.305,0.315,0.527,0.625,0.527h0.645c0.383,0,0.687-0.332,0.637-0.703
	c-0.146-1.103-0.648-2.127-1.431-2.918c-0.56-0.567-0.921-1.3-1.03-2.09C13.24,2.227,12.97,1.996,12.654,2h-0.64
	c-0.383,0-0.684,0.332-0.637,0.703c0.15,1.244,0.708,2.403,1.586,3.297c0.464,0.469,0.77,1.072,0.874,1.723H13.841z M20.75,9.5H3.25
	C2.56,9.5,2,10.06,2,10.75c0,3.699,2.014,6.921,5,8.65v1.35C7,21.44,7.56,22,8.25,22h7.5c0.69,0,1.25-0.56,1.25-1.25V19.4
	c2.986-1.729,5-4.951,5-8.65C22,10.06,21.44,9.5,20.75,9.5z"/>
</svg>
