<svg version="1.1" id="master" xmlns="http://www.w3.org/2000/svg" xmlns:xlink="http://www.w3.org/1999/xlink" x="0px" y="0px"
	 width="24px" height="24px" viewBox="0 0 24 24" enable-background="new 0 0 24 24" xml:space="preserve">
<path d="M15.49,9.63C15.311,6.84,14.18,4.12,12.06,2C9.92,4.14,8.74,6.86,8.51,9.63c1.28,0.68,2.46,1.56,3.49,2.63
	C13.029,11.2,14.21,10.32,15.49,9.63z M8.99,12.28c-0.14-0.1-0.3-0.19-0.45-0.29C8.69,12.1,8.85,12.18,8.99,12.28z M15.41,12.03
	c-0.131,0.09-0.27,0.16-0.4,0.26C15.141,12.19,15.279,12.12,15.41,12.03z M12,15.45C9.85,12.17,6.18,10,2,10
	c0,5.32,3.36,9.82,8.03,11.49c0.63,0.229,1.29,0.4,1.97,0.51c0.68-0.12,1.33-0.29,1.971-0.51C18.641,19.82,22,15.32,22,10
	C17.82,10,14.15,12.17,12,15.45z"/>
</svg>
