<svg version="1.1" id="master" xmlns="http://www.w3.org/2000/svg" xmlns:xlink="http://www.w3.org/1999/xlink" x="0px" y="0px"
	 width="24px" height="24px" viewBox="0 0 24 24" enable-background="new 0 0 24 24" xml:space="preserve">
<rect fill="none" width="24" height="24"/>
<path d="M20.519,10.507c-1.026-0.481-2.4-0.757-3.769-0.757H7.823C7.668,9.545,7.492,9.375,7.3,9.25h6.45C9.161,8.305,8.856,5,5,5
	l0,0v4H4.5V5C3.671,5,3,5.896,3,7v2C2.275,9,2,9.313,2,9.75V11c0,0.437,0.275,0.75,1,0.75v0.5c-0.725,0-1,0.313-1,0.75v1.25
	C2,14.688,2.275,15,3,15v2c0,1.105,0.671,2,1.5,2v-4H5v4l0,0c3.856,0,4.161-3.305,8.75-4.25H7.3c0.192-0.125,0.368-0.296,0.522-0.5
	h8.927c1.368,0,2.742-0.275,3.769-0.758C21.446,13.058,22,12.5,22,12S21.446,10.942,20.519,10.507z M17.25,13.25
	C17.112,13.25,17,13.138,17,13v-2c0-0.138,0.112-0.25,0.25-0.25C18.247,10.75,18.248,13.25,17.25,13.25z"/>
</svg>
