<svg version="1.1" id="master" xmlns="http://www.w3.org/2000/svg" xmlns:xlink="http://www.w3.org/1999/xlink" x="0px" y="0px"
	 width="24px" height="24px" viewBox="0 0 24 24" enable-background="new 0 0 24 24" xml:space="preserve">
<rect fill="none" width="24" height="24"/>
<path d="M20.379,8.546l-1.232,1.853c1.207,2.407,1.123,5.26-0.221,7.592H5.042c-2.21-3.834-0.894-8.733,2.941-10.943
	c2.331-1.344,5.18-1.428,7.586-0.224l1.854-1.232C12.768,2.604,6.571,3.959,3.585,8.616c-2.014,3.14-2.116,7.138-0.265,10.377
	c0.355,0.617,1.011,0.998,1.722,1.002h13.874c0.717,0.002,1.383-0.379,1.742-1.002c1.883-3.261,1.777-7.3-0.27-10.457L20.379,8.546z
	 M10.572,15.396c0.782,0.783,2.05,0.783,2.833,0.002c0.002,0,0.002-0.002,0.002-0.002l5.67-8.504l-8.504,5.67
	c-0.782,0.783-0.783,2.051-0.001,2.832C10.571,15.396,10.572,15.396,10.572,15.396z"/>
</svg>
