<svg version="1.1" id="master" xmlns="http://www.w3.org/2000/svg" xmlns:xlink="http://www.w3.org/1999/xlink" x="0px" y="0px"
	 width="24px" height="24px" viewBox="0 0 24 24" enable-background="new 0 0 24 24" xml:space="preserve">
<rect fill="none" width="24" height="24"/>
<path d="M7.249,8.922l0.9,0.3h0.162l0.181-0.907c0.025-0.124,0.063-0.263,0.111-0.409L7.899,6.497l0.827-2.479
	c0.097-0.291-0.06-0.606-0.352-0.703L7.848,3.14C7.557,3.042,7.242,3.2,7.145,3.491L6.246,6.188c-0.093,0.28-0.071,0.585,0.06,0.849
	L7.249,8.922z M21.906,15.242l-1.832-2.748C19.869,12.186,19.521,12,19.15,12h-2.705l2.395-0.846
	c0.234-0.078,0.437-0.232,0.574-0.438l1.86-2.792c0.171-0.255,0.101-0.6-0.154-0.77l-0.462-0.309
	C20.403,6.676,20.058,6.745,19.888,7l-1.756,2.633l-2.101,0.701h-1.253l-0.36-1.8C14.342,8.152,13.814,6.444,12,6.444
	c-1.815,0-2.342,1.708-2.418,2.089l-0.36,1.8H7.969L5.868,9.633L4.113,7c-0.17-0.255-0.515-0.324-0.771-0.154L2.88,7.154
	c-0.255,0.17-0.325,0.515-0.154,0.77l1.861,2.792c0.137,0.205,0.339,0.359,0.574,0.438L7.555,12H4.849
	c-0.372,0-0.718,0.186-0.924,0.495l-1.831,2.748c-0.171,0.256-0.102,0.601,0.154,0.771l0.462,0.309
	c0.255,0.17,0.601,0.101,0.771-0.154l1.667-2.5h1.634l-2.112,3.379c-0.11,0.177-0.169,0.381-0.169,0.59v2.697
	c0,0.307,0.249,0.556,0.555,0.556h0.556c0.307,0,0.555-0.249,0.555-0.556v-2.539l2.573-4.114c-0.036,0.487-0.073,0.975-0.073,1.465
	c0,1.843,1.416,3.522,3.333,3.522s3.333-1.68,3.333-3.522c0-0.49-0.037-0.978-0.072-1.465l2.572,4.114v2.539
	c0,0.307,0.249,0.556,0.556,0.556h0.557c0.306,0,0.555-0.249,0.555-0.556v-2.698c0-0.208-0.059-0.412-0.169-0.589l-2.112-3.379
	h1.634l1.667,2.5c0.17,0.255,0.516,0.323,0.771,0.154l0.463-0.31C22.008,15.843,22.076,15.498,21.906,15.242z M16.1,6.497
	l-0.704,1.409c0.049,0.146,0.087,0.285,0.112,0.409l0.181,0.907h0.162l0.9-0.3l0.942-1.885c0.132-0.264,0.153-0.569,0.061-0.849
	l-0.898-2.697C16.758,3.2,16.443,3.042,16.152,3.14l-0.527,0.175c-0.29,0.097-0.448,0.412-0.352,0.703L16.1,6.497z"/>
</svg>
