<svg version="1.1" id="icon_spotify" xmlns="http://www.w3.org/2000/svg" xmlns:xlink="http://www.w3.org/1999/xlink" x="0px"
	 y="0px" width="24px" height="24px" viewBox="0 0 24 24" enable-background="new 0 0 24 24" xml:space="preserve">
<path d="M12,2C6.48,2,2,6.48,2,12c0,5.52,4.48,10,10,10c5.52,0,10-4.48,10-10C22,6.48,17.52,2,12,2z M16.061,16.714
	c-0.169,0-0.273-0.053-0.432-0.146c-2.516-1.516-5.443-1.579-8.333-0.987c-0.158,0.04-0.363,0.104-0.48,0.104
	c-0.392,0-0.637-0.31-0.637-0.636c0-0.417,0.246-0.614,0.548-0.678c3.303-0.73,6.678-0.665,9.558,1.056
	c0.244,0.157,0.391,0.298,0.391,0.665C16.674,16.461,16.386,16.714,16.061,16.714z M17.146,14.068c-0.211,0-0.351-0.093-0.497-0.169
	c-2.521-1.492-6.277-2.093-9.62-1.186c-0.194,0.053-0.298,0.104-0.48,0.104c-0.431,0-0.783-0.351-0.783-0.782
	s0.21-0.717,0.625-0.834c1.122-0.315,2.267-0.549,3.944-0.549c2.618,0,5.144,0.649,7.138,1.836c0.325,0.191,0.455,0.442,0.455,0.792
	C17.925,13.719,17.585,14.068,17.146,14.068z M18.396,10.996c-0.211,0-0.339-0.052-0.521-0.157
	C15.004,9.125,9.872,8.714,6.548,9.641c-0.145,0.04-0.326,0.104-0.52,0.104c-0.532,0-0.938-0.416-0.938-0.952
	c0-0.548,0.338-0.859,0.702-0.963C7.21,7.415,8.8,7.217,10.53,7.217c2.943,0,6.029,0.613,8.282,1.927
	c0.314,0.181,0.521,0.432,0.521,0.912C19.331,10.605,18.886,10.996,18.396,10.996z"/>
</svg>
