<svg version="1.1" id="icon_spotify" xmlns="http://www.w3.org/2000/svg" xmlns:xlink="http://www.w3.org/1999/xlink" x="0px"
	 y="0px" width="24px" height="24px" viewBox="0 0 24 24" enable-background="new 0 0 24 24" xml:space="preserve">
<path d="M12,1.5C6.204,1.5,1.5,6.204,1.5,12S6.204,22.5,12,22.5S22.5,17.796,22.5,12S17.796,1.5,12,1.5z M16.264,16.949
	c-0.178,0-0.288-0.055-0.453-0.152c-2.642-1.592-5.716-1.659-8.751-1.037c-0.166,0.042-0.381,0.109-0.504,0.109
	c-0.411,0-0.669-0.325-0.669-0.668c0-0.437,0.258-0.645,0.576-0.712c3.468-0.766,7.011-0.698,10.035,1.109
	c0.257,0.165,0.41,0.313,0.41,0.699C16.907,16.683,16.606,16.949,16.264,16.949z M17.402,14.172c-0.221,0-0.368-0.098-0.521-0.178
	c-2.646-1.566-6.591-2.197-10.101-1.244c-0.204,0.055-0.313,0.109-0.504,0.109c-0.453,0-0.822-0.368-0.822-0.821
	s0.221-0.753,0.656-0.876c1.177-0.331,2.38-0.576,4.141-0.576c2.749,0,5.402,0.682,7.495,1.927c0.342,0.202,0.478,0.466,0.478,0.833
	C18.22,13.804,17.864,14.172,17.402,14.172z M18.715,10.946c-0.221,0-0.355-0.055-0.546-0.165c-3.015-1.8-8.404-2.231-11.893-1.258
	c-0.152,0.042-0.343,0.11-0.546,0.11c-0.559,0-0.986-0.436-0.986-0.999c0-0.576,0.355-0.902,0.737-1.012
	c1.49-0.437,3.159-0.644,4.975-0.644c3.09,0,6.33,0.644,8.696,2.024c0.331,0.19,0.547,0.453,0.547,0.957
	C19.697,10.535,19.231,10.946,18.715,10.946z"/>
</svg>
