<svg version="1.1" id="master" xmlns="http://www.w3.org/2000/svg" xmlns:xlink="http://www.w3.org/1999/xlink" x="0px" y="0px"
	 width="24px" height="24px" viewBox="0 0 24 24" enable-background="new 0 0 24 24" xml:space="preserve">
<rect fill="none" width="24" height="24"/>
<path d="M10.75,3.25C10.75,2.56,10.19,2,9.5,2H7C6.31,2,5.75,2.56,5.75,3.25V7h5V3.25z M20.75,7c-0.69,0-1.25,0.56-1.25,1.25
	s0.56,1.25,1.25,1.25S22,8.94,22,8.25S21.44,7,20.75,7z M10.75,8.25h-5C3.679,8.25,2,9.929,2,12v8.75C2,21.44,2.56,22,3.25,22h10
	c0.69,0,1.25-0.56,1.25-1.25V12C14.5,9.929,12.821,8.25,10.75,8.25z M8.25,18.25c-1.726,0-3.125-1.399-3.125-3.125S6.524,12,8.25,12
	s3.125,1.399,3.125,3.125S9.976,18.25,8.25,18.25z M20.75,5.75C21.44,5.75,22,5.19,22,4.5s-0.56-1.25-1.25-1.25S19.5,3.81,19.5,4.5
	S20.06,5.75,20.75,5.75z M17,7c-0.69,0-1.25,0.56-1.25,1.25S16.31,9.5,17,9.5s1.25-0.56,1.25-1.25S17.69,7,17,7z M13.25,3.25
	C12.56,3.25,12,3.81,12,4.5s0.56,1.25,1.25,1.25S14.5,5.19,14.5,4.5S13.94,3.25,13.25,3.25z M17,3.25c-0.69,0-1.25,0.56-1.25,1.25
	S16.31,5.75,17,5.75s1.25-0.56,1.25-1.25S17.69,3.25,17,3.25z M20.75,10.75c-0.69,0-1.25,0.56-1.25,1.25c0,0.69,0.56,1.25,1.25,1.25
	S22,12.69,22,12C22,11.31,21.44,10.75,20.75,10.75z"/>
</svg>
