<svg version="1.1" id="master" xmlns="http://www.w3.org/2000/svg" xmlns:xlink="http://www.w3.org/1999/xlink" x="0px" y="0px"
	 width="24px" height="24px" viewBox="0 0 24 24" enable-background="new 0 0 24 24" xml:space="preserve">
<rect fill="none" width="24" height="24"/>
<path d="M19.075,19.075L17.75,20.4l-0.887-0.889l1.324-1.324l-2.426-2.426l-1.324,1.326l-0.887-0.889l1.324-1.324L12.45,12.45
	l-1.325,1.326l-0.888-0.888l1.325-1.325L9.125,9.125L7.8,10.45L6.913,9.563l1.325-1.325L5.813,5.813L4.488,7.137L3.6,6.25
	l1.325-1.325L2,2v17.5C2,20.875,3.125,22,4.5,22H22L19.075,19.075z M5.75,18.25v-7.2l7.199,7.2H5.75z"/>
</svg>
