<svg version="1.1" id="master" xmlns="http://www.w3.org/2000/svg" xmlns:xlink="http://www.w3.org/1999/xlink" x="0px" y="0px"
	 width="24px" height="24px" viewBox="0 0 24 24" enable-background="new 0 0 24 24" xml:space="preserve">
<rect fill="none" width="24" height="24"/>
<path d="M20.744,19.5h-1.208c0.711-0.719,1.208-1.646,1.208-2.5c0-1.037-0.862-2.063-1.869-2.386V10.75h1.869
	c0.797,0,1.395-0.738,1.229-1.519C21.563,7.329,20.23,5.75,18.245,5.75V4.5c-1.875,0-2.899,2.45-3.493,4.23L12.2,16.406
	c-0.054,0.164-0.231,0.253-0.395,0.198l-0.593-0.197c-0.164-0.055-0.252-0.23-0.198-0.396l1.349-4.056C14.207,6.41,10.366,2,6.999,2
	C4.238,2,2,4.239,2,7s2.238,5,4.999,5c0.01,0,0.02-0.003,0.031-0.003c-0.817,1.081-1.311,2.42-1.279,3.888
	C5.826,19.339,8.869,22,12.323,22h9.046c0.345,0,0.624-0.28,0.624-0.625V20.75C21.993,20.06,21.435,19.5,20.744,19.5z M18.87,7.625
	c0.345,0,0.625,0.28,0.625,0.625c0,0.346-0.28,0.625-0.625,0.625s-0.625-0.279-0.625-0.625C18.245,7.905,18.525,7.625,18.87,7.625z"
	/>
</svg>
