<svg version="1.1" id="master" xmlns="http://www.w3.org/2000/svg" xmlns:xlink="http://www.w3.org/1999/xlink" x="0px" y="0px"
	 width="24px" height="24px" viewBox="0 0 24 24" enable-background="new 0 0 24 24" xml:space="preserve">
<path d="M17.822,20.221v-5.337H19.6V22H3.536v-7.116h1.775v5.337H17.822z M7.092,18.442h8.949v-1.781H7.092V18.442L7.092,18.442z
	 M7.309,14.399l8.732,1.824l0.376-1.726l-8.731-1.822L7.309,14.399z M8.44,10.186l8.088,3.775l0.753-1.625L9.192,8.561L8.44,10.174
	V10.186z M10.703,6.198l6.848,5.713l1.132-1.351l-6.846-5.71l-1.125,1.348L10.703,6.198z M15.126,2l-1.455,1.078l5.338,7.17
	l1.455-1.078L15.124,2H15.126z"/>
</svg>
