<svg version="1.1" id="master" xmlns="http://www.w3.org/2000/svg" xmlns:xlink="http://www.w3.org/1999/xlink" x="0px" y="0px"
	 width="24px" height="24px" viewBox="0 0 24 24" enable-background="new 0 0 24 24" xml:space="preserve">
<path d="M3.25,22h17.5v-2.5H3.25V22z M18.25,12h-2.6c-0.636,0-1.15-0.515-1.15-1.15v-0.37c0-1.069,0.347-2.086,0.838-3.036
	c0.356-0.688,0.505-1.5,0.354-2.36c-0.264-1.515-1.502-2.762-3.018-3.025C10.306,1.647,8.25,3.458,8.25,5.75
	c0,0.553,0.122,1.076,0.339,1.546C9.11,8.423,9.5,9.605,9.5,10.847v0.003C9.5,11.485,8.985,12,8.35,12h-2.6
	C3.679,12,2,13.679,2,15.75V17c0,0.69,0.56,1.25,1.25,1.25h17.5c0.69,0,1.25-0.56,1.25-1.25v-1.25C22,13.679,20.321,12,18.25,12z"/>
</svg>
