<svg version="1.1" id="icon_steam" xmlns="http://www.w3.org/2000/svg" xmlns:xlink="http://www.w3.org/1999/xlink" x="0px" y="0px"
	 width="24px" height="24px" viewBox="0 0 24 24" enable-background="new 0 0 24 24" xml:space="preserve">
<path d="M22.5,12c0,5.801-4.708,10.5-10.517,10.5c-4.818,0-8.875-3.23-10.119-7.638l4.031,1.663
	c0.271,1.359,1.477,2.388,2.917,2.388c1.659,0,3.044-1.371,2.972-3.111l3.578-2.548c2.206,0.055,4.057-1.732,4.057-3.959
	c0-2.185-1.778-3.959-3.968-3.959c-2.188,0-3.967,1.778-3.967,3.959v0.05l-2.506,3.628c-0.656-0.038-1.3,0.144-1.842,0.513
	L1.5,11.158C1.932,5.75,6.458,1.5,11.983,1.5C17.792,1.5,22.5,6.2,22.5,12z M8.092,17.432l-1.292-0.532
	c0.237,0.492,0.647,0.881,1.151,1.092c1.139,0.475,2.447-0.068,2.921-1.202c0.229-0.551,0.233-1.157,0.004-1.707
	c-0.229-0.551-0.656-0.981-1.207-1.21c-0.546-0.229-1.13-0.221-1.647-0.026l1.334,0.551c0.838,0.347,1.236,1.309,0.885,2.146
	C9.892,17.386,8.931,17.779,8.092,17.432z M15.45,11.932c-1.456,0-2.642-1.186-2.642-2.637c0-1.453,1.186-2.638,2.642-2.638
	c1.457,0,2.643,1.186,2.643,2.638C18.093,10.747,16.911,11.932,15.45,11.932z M15.455,11.272c1.097,0,1.985-0.889,1.985-1.981
	c0-1.097-0.889-1.982-1.985-1.982S13.47,8.198,13.47,9.291C13.473,10.383,14.362,11.272,15.455,11.272z"/>
</svg>
