<svg version="1.1" id="master" xmlns="http://www.w3.org/2000/svg" xmlns:xlink="http://www.w3.org/1999/xlink" x="0px" y="0px"
	 width="24px" height="24px" viewBox="0 0 24 24" enable-background="new 0 0 24 24" xml:space="preserve">
<rect fill="none" width="24" height="24"/>
<path d="M14.808,6.445c-0.949,0-1.802,0.823-2.175,2.096c-0.216,0.742-0.928,3.688-6.012,5.904
	c-4.819,2.095,5.692,5.883,11.154-0.342c1.326-1.511,1.139-4.375-0.402-6.132C16.509,6.986,15.597,6.445,14.808,6.445z
	 M15.333,11.997c-0.613,0-1.111-0.498-1.111-1.111c0-0.613,0.498-1.111,1.111-1.111c0.614,0,1.112,0.498,1.112,1.111
	C16.445,11.5,15.947,11.997,15.333,11.997z M19.879,5.773c-1.632-1.859-3.424-2.662-5.071-2.662c-2.451,0-4.578,1.776-5.373,4.492
	C7.729,12.462,2.048,10.484,2,15.321c-0.042,4.223,4.835,5.716,8.889,5.556c3.047-0.118,6.503-1.288,9.392-4.577
	C22.721,13.52,22.542,8.806,19.879,5.773z M18.611,14.836c-2.645,3.012-5.706,3.742-7.806,3.823
	c-1.308,0.048-4.567-0.227-5.946-1.619c-0.086-0.087-2.064-2.145,1.319-3.616c2.487-1.084,4.594-2.475,5.39-5.196
	c0.514-1.759,1.786-2.894,3.239-2.894c1.131,0,2.307,0.659,3.402,1.905C20.125,9.421,20.309,12.901,18.611,14.836L18.611,14.836z"/>
</svg>
