<svg version="1.1" id="master" xmlns="http://www.w3.org/2000/svg" xmlns:xlink="http://www.w3.org/1999/xlink"
	 x="0px" y="0px" width="24px" height="24px" viewBox="0 0 24 24" enable-background="new 0 0 24 24" xml:space="preserve">
<path d="M19.656,8.493c0,1.509-1.228,2.723-2.724,2.723c-1.508,0-2.723-1.219-2.723-2.723s1.218-2.723,2.723-2.723
	C18.429,5.77,19.656,6.984,19.656,8.493z M22,8.502c0,2.813-2.276,5.08-5.076,5.08l-4.879,3.563c-0.178,1.92-1.808,3.43-3.772,3.43
	c-1.808,0-3.335-1.287-3.706-2.992L2,16.551v-4.79l4.339,1.755c0.674-0.412,1.437-0.594,2.321-0.514l3.169-4.54
	c0.022-2.781,2.3-5.036,5.09-5.036C19.724,3.426,22,5.703,22,8.502z M11.063,16.775c0-1.551-1.241-2.791-2.79-2.791
	c-0.201,0-0.402,0.021-0.603,0.066l1.161,0.469c1.138,0.457,1.696,1.742,1.236,2.881c-0.455,1.137-1.75,1.695-2.888,1.227
	c-0.456-0.178-0.916-0.369-1.371-0.545c0.469,0.881,1.393,1.482,2.464,1.482C9.821,19.564,11.063,18.324,11.063,16.775z
	 M20.326,8.502c0-1.875-1.531-3.401-3.402-3.401c-1.888,0-3.415,1.526-3.415,3.401c0,1.884,1.531,3.402,3.415,3.402
	C18.795,11.908,20.326,10.391,20.326,8.502z"/>
</svg>
