<svg version="1.1" id="master" xmlns="http://www.w3.org/2000/svg" xmlns:xlink="http://www.w3.org/1999/xlink" x="0px" y="0px"
	 width="24px" height="24px" viewBox="0 0 24 24" enable-background="new 0 0 24 24" xml:space="preserve">
<path d="M22,12c0,5.523-4.482,10-10.016,10c-4.588,0-8.453-3.076-9.637-7.275l3.839,1.586c0.258,1.293,1.407,2.273,2.778,2.273
	c1.58,0,2.899-1.307,2.831-2.963l3.407-2.428c2.103,0.053,3.864-1.648,3.864-3.771c0-2.081-1.693-3.771-3.778-3.771
	c-2.084,0-3.779,1.693-3.779,3.771v0.048l-2.386,3.455c-0.625-0.035-1.238,0.139-1.755,0.489L2,11.198C2.412,6.048,6.722,2,11.984,2
	C17.518,2,22,6.477,22,12z M8.278,17.173l-1.23-0.506c0.226,0.469,0.616,0.839,1.097,1.04c1.084,0.452,2.33-0.064,2.782-1.146
	c0.218-0.523,0.222-1.102,0.004-1.625c-0.218-0.523-0.625-0.935-1.15-1.151c-0.52-0.218-1.076-0.211-1.568-0.024l1.271,0.524
	c0.798,0.33,1.177,1.246,0.843,2.043C9.993,17.129,9.077,17.504,8.278,17.173z M15.286,11.936c-1.388,0-2.517-1.13-2.517-2.512
	c0-1.384,1.129-2.512,2.517-2.512s2.517,1.129,2.517,2.512C17.803,10.807,16.678,11.936,15.286,11.936z M15.291,11.307
	c1.044,0,1.891-0.847,1.891-1.887c0-1.045-0.848-1.888-1.891-1.888c-1.044,0-1.891,0.847-1.891,1.888
	C13.402,10.46,14.249,11.307,15.291,11.307z"/>
</svg>
