<svg version="1.1" id="icon_steeringwheel" xmlns="http://www.w3.org/2000/svg" xmlns:xlink="http://www.w3.org/1999/xlink" x="0px"
	 y="0px" width="24px" height="24px" viewBox="0 0 24 24" enable-background="new 0 0 24 24" xml:space="preserve">
<path fill="#030104" d="M12,2C6.478,2,2,6.478,2,12s4.478,10,10,10s10-4.478,10-10S17.522,2,12,2z M12,4.5
	c3.254,0,6.003,2.096,7.041,5H4.958C5.997,6.596,8.746,4.5,12,4.5z M12,13.25c-0.69,0-1.25-0.56-1.25-1.25s0.56-1.25,1.25-1.25
	s1.25,0.56,1.25,1.25S12.69,13.25,12,13.25z M4.5,12c3.416,0,6.182,3.291,6.24,7.373C7.205,18.768,4.5,15.703,4.5,12z M13.26,19.373
	C13.318,15.291,16.084,12,19.5,12C19.5,15.703,16.795,18.768,13.26,19.373z"/>
</svg>
