<svg version="1.1" id="master" xmlns="http://www.w3.org/2000/svg" xmlns:xlink="http://www.w3.org/1999/xlink" x="0px" y="0px"
	 width="24px" height="24px" viewBox="0 0 24 24" enable-background="new 0 0 24 24" xml:space="preserve">
<path d="M19.465,6.375c-1.336,0.02-2.434,1.109-2.461,2.446c-0.02,0.949,0.488,1.781,1.25,2.218v4.398
	c0,2.238-1.961,4.063-4.375,4.063c-2.344,0-4.266-1.723-4.371-3.875C12.352,15.038,14.5,12.515,14.5,9.5V3.43
	c0-0.446-0.316-0.833-0.754-0.918l-2.457-0.493c-0.508-0.102-1,0.227-1.102,0.734l-0.125,0.613c-0.102,0.508,0.227,1,0.734,1.102
	l1.199,0.238v4.742c0,2.067-1.648,3.777-3.715,3.796c-2.086,0.02-3.785-1.667-3.785-3.75V4.71l1.199-0.238
	C6.203,4.371,6.531,3.879,6.43,3.371L6.309,2.757C6.207,2.25,5.715,1.921,5.207,2.023L2.754,2.507C2.316,2.597,2,2.98,2,3.43V9.5
	c0,3.019,2.152,5.546,5.004,6.125c0.102,3.531,3.145,6.375,6.871,6.375c3.789,0,6.875-2.945,6.875-6.563v-4.398
	C21.496,10.605,22,9.8,22,8.875C22,7.48,20.859,6.355,19.465,6.375z M19.5,9.5c-0.344,0-0.625-0.281-0.625-0.625
	S19.156,8.25,19.5,8.25s0.625,0.281,0.625,0.625S19.844,9.5,19.5,9.5z"/>
</svg>
