<svg version="1.1" id="master" xmlns="http://www.w3.org/2000/svg" xmlns:xlink="http://www.w3.org/1999/xlink" x="0px" y="0px"
	 width="24px" height="24px" viewBox="0 0 24 24" enable-background="new 0 0 24 24" xml:space="preserve">
<rect fill="none" width="24" height="24"/>
<path fill="#010101" d="M6.711,10.05C6.422,9.517,6.278,8.906,6.278,8.194c0-0.677,0.145-1.289,0.444-1.855
	c0.289-0.555,0.7-1.033,1.233-1.433c0.533-0.389,1.167-0.7,1.889-0.922c0.733-0.211,1.544-0.322,2.422-0.322
	c0.899,0,1.71,0.122,2.456,0.377c0.732,0.245,1.366,0.6,1.878,1.044c0.521,0.445,0.923,0.979,1.2,1.589s0.421,1.277,0.421,2.011
	h-3.344c0-0.345-0.056-0.656-0.167-0.945c-0.101-0.3-0.267-0.544-0.488-0.755C14,6.772,13.722,6.617,13.389,6.494
	c-0.333-0.11-0.733-0.177-1.178-0.177c-0.434,0-0.822,0.044-1.144,0.144c-0.322,0.1-0.589,0.233-0.8,0.4
	c-0.211,0.178-0.377,0.378-0.489,0.612C9.667,7.706,9.611,7.95,9.611,8.206c0,0.533,0.278,0.978,0.822,1.344
	c0.423,0.278,0.855,0.533,1.567,0.778H6.878C6.822,10.239,6.755,10.139,6.711,10.05z M22,13.661v-2.222H2v2.222h10.689
	c0.199,0.077,0.443,0.155,0.61,0.223c0.411,0.188,0.733,0.377,0.967,0.566c0.233,0.188,0.39,0.4,0.479,0.633
	c0.077,0.223,0.122,0.479,0.122,0.768c0,0.255-0.057,0.499-0.156,0.732c-0.101,0.223-0.256,0.422-0.467,0.59
	c-0.211,0.167-0.467,0.288-0.788,0.388c-0.323,0.089-0.701,0.146-1.123,0.146c-0.478,0-0.922-0.045-1.311-0.146
	c-0.389-0.1-0.733-0.256-1.011-0.466c-0.278-0.211-0.5-0.488-0.656-0.834c-0.155-0.345-0.277-0.844-0.277-1.344h-3.3
	c0,0.61,0.089,1.255,0.267,1.755c0.178,0.501,0.411,0.945,0.722,1.345c0.311,0.389,0.667,0.733,1.089,1.022
	c0.411,0.288,0.867,0.533,1.356,0.723c0.489,0.188,1,0.333,1.533,0.433c0.533,0.089,1.067,0.145,1.6,0.145
	c0.888,0,1.699-0.1,2.422-0.311c0.723-0.212,1.345-0.501,1.855-0.879c0.512-0.378,0.912-0.855,1.189-1.41
	c0.278-0.556,0.421-1.189,0.421-1.9c0-0.667-0.11-1.267-0.344-1.789c-0.056-0.122-0.123-0.255-0.188-0.366H22V13.661z"/>
</svg>
