<svg version="1.1" id="master" xmlns="http://www.w3.org/2000/svg" xmlns:xlink="http://www.w3.org/1999/xlink" x="0px" y="0px"
	 width="24px" height="24px" viewBox="0 0 24 24" enable-background="new 0 0 24 24" xml:space="preserve">
<path d="M9.349,10.232L7.581,12l1.768,1.768L11.116,12L9.349,10.232z M13.768,9.349L12,7.581l-1.768,1.768L12,11.116L13.768,9.349z
	 M10.232,14.651L12,16.419l1.768-1.768L12,12.884L10.232,14.651z M12,2C6.478,2,2,6.478,2,12s4.478,10,10,10s10-4.478,10-10
	S17.522,2,12,2z M19.292,13.547l-0.441,0.442c-0.122,0.122-0.32,0.122-0.442,0l-1.104-1.105l-1.768,1.768l1.325,1.325l0.663-0.663
	c0.122-0.122,0.32-0.122,0.442,0l0.441,0.442c0.122,0.122,0.122,0.319,0,0.441l-0.663,0.663l0.663,0.663
	c0.122,0.122,0.122,0.319,0,0.441l-0.441,0.442c-0.122,0.121-0.32,0.121-0.442,0l-0.663-0.663l-0.662,0.663
	c-0.122,0.121-0.32,0.121-0.442,0l-0.441-0.442c-0.122-0.122-0.122-0.319,0-0.441l0.662-0.663l-1.325-1.325l-1.769,1.768
	l1.105,1.105c0.122,0.122,0.122,0.319,0,0.441l-0.441,0.442c-0.122,0.122-0.32,0.122-0.442,0L12,18.187l-1.105,1.105
	c-0.122,0.122-0.32,0.122-0.442,0l-0.441-0.441c-0.122-0.122-0.122-0.32,0-0.442l1.104-1.104l-1.768-1.769l-1.326,1.326l0.663,0.663
	c0.122,0.122,0.122,0.32,0,0.441l-0.441,0.442c-0.122,0.122-0.32,0.122-0.442,0L7.14,17.745l-0.663,0.663
	c-0.122,0.122-0.32,0.122-0.442,0l-0.442-0.442c-0.122-0.121-0.122-0.319,0-0.441l0.663-0.663l-0.663-0.663
	c-0.122-0.121-0.122-0.319,0-0.441l0.442-0.441c0.122-0.122,0.32-0.122,0.442,0l0.663,0.662l1.326-1.326l-1.768-1.768l-1.105,1.105
	c-0.122,0.122-0.32,0.122-0.442,0l-0.442-0.442c-0.122-0.122-0.122-0.319,0-0.441L5.813,12l-1.105-1.105
	c-0.122-0.122-0.122-0.32,0-0.442l0.441-0.441c0.122-0.122,0.32-0.122,0.442,0l1.105,1.104l1.768-1.768L7.138,8.022L6.476,8.686
	c-0.122,0.122-0.32,0.122-0.442,0L5.592,8.244c-0.122-0.122-0.122-0.32,0-0.442l0.663-0.663L5.592,6.477
	c-0.122-0.122-0.122-0.32,0-0.442l0.442-0.441c0.122-0.122,0.32-0.122,0.442,0l0.663,0.663l0.663-0.663
	c0.122-0.122,0.32-0.122,0.442,0l0.441,0.441c0.122,0.122,0.122,0.32,0,0.442L8.021,7.139l1.326,1.326l1.768-1.768l-1.105-1.105
	c-0.122-0.122-0.122-0.32,0-0.442l0.441-0.441c0.122-0.122,0.32-0.122,0.442,0L12,5.813l1.105-1.105
	c0.122-0.122,0.319-0.122,0.441,0l0.442,0.441c0.122,0.122,0.122,0.32,0,0.442l-1.105,1.105l1.768,1.768l1.326-1.326l-0.663-0.663
	c-0.122-0.122-0.122-0.32,0-0.442l0.442-0.442c0.122-0.122,0.319-0.122,0.44,0l0.664,0.663l0.663-0.663
	c0.122-0.122,0.319-0.122,0.44,0l0.443,0.442c0.121,0.122,0.121,0.32,0,0.442l-0.664,0.663l0.664,0.663
	c0.121,0.122,0.121,0.32,0,0.442l-0.443,0.441c-0.121,0.122-0.318,0.122-0.44,0l-0.663-0.663l-1.326,1.326l1.768,1.768l1.105-1.105
	c0.122-0.122,0.319-0.122,0.441,0l0.442,0.441c0.122,0.122,0.122,0.32,0,0.442L18.187,12l1.105,1.105
	C19.414,13.228,19.414,13.424,19.292,13.547z M12.884,12l1.768,1.768L16.419,12l-1.768-1.768L12.884,12z"/>
</svg>
