<svg version="1.1" id="master" xmlns="http://www.w3.org/2000/svg" xmlns:xlink="http://www.w3.org/1999/xlink" x="0px" y="0px"
	 width="24px" height="24px" viewBox="0 0 24 24" enable-background="new 0 0 24 24" xml:space="preserve">
<path d="M3.182,19.087l1.284,0.536v-8.647l-2.327,5.611C1.746,17.564,2.215,18.685,3.182,19.087z M21.855,15.543L17.107,4.08
	c-0.298-0.718-0.997-1.158-1.734-1.178c-0.249,0-0.507,0.038-0.756,0.144L7.559,5.967C6.841,6.264,6.4,6.953,6.381,7.69
	c-0.01,0.259,0.039,0.518,0.144,0.766l4.75,11.463c0.297,0.728,1.005,1.169,1.753,1.179c0.249,0,0.498-0.048,0.737-0.145l7.048-2.92
	C21.789,17.631,22.259,16.511,21.855,15.543z M8.306,8.648c-0.526,0-0.958-0.432-0.958-0.958s0.431-0.958,0.958-0.958
	c0.527,0,0.958,0.432,0.958,0.958S8.833,8.648,8.306,8.648z M6.39,19.182c0,1.054,0.862,1.916,1.916,1.916h1.389L6.39,13.111V19.182
	z"/>
</svg>
