<svg version="1.1" id="master" xmlns="http://www.w3.org/2000/svg" xmlns:xlink="http://www.w3.org/1999/xlink" x="0px" y="0px"
	 width="24px" height="24px" viewBox="0 0 24 24" enable-background="new 0 0 24 24" xml:space="preserve">
<g>
	<circle cx="15.5" cy="16" r="1"/>
	<circle cx="8.5" cy="16" r="1"/>
	<path d="M7.01,9h10v5h-10V9z M17.8,2.8C16,2.09,13.859,2,12,2c-1.86,0-4,0.09-5.8,0.8C3.53,3.84,2,6.05,2,8.86V22h20V8.86
		C22,6.05,20.471,3.84,17.8,2.8z M18,15.88c0,1.45-1.18,2.62-2.63,2.62l1.13,1.12V20H15l-1.5-1.5h-2.83L9.17,20H7.5v-0.38l1.12-1.12
		C7.18,18.5,6,17.32,6,15.88V9c0-2.63,3-3,6-3c3.32,0,6,0.38,6,3V15.88z"/>
</g>
</svg>
