<svg version="1.1" id="master" xmlns="http://www.w3.org/2000/svg" xmlns:xlink="http://www.w3.org/1999/xlink" x="0px" y="0px"
	 width="24px" height="24px" viewBox="0 0 24 24" enable-background="new 0 0 24 24" xml:space="preserve">
<rect fill="none" width="24" height="24"/>
<path d="M19.073,9.073V4.927h-4.146L12,2L9.073,4.927H4.927v4.146L2,12l2.927,2.928v4.146h4.146L12,22l2.928-2.927h4.146v-4.146
	L22,12L19.073,9.073z M12,17.305c-2.927,0-5.305-2.377-5.305-5.305c0-2.927,2.378-5.305,5.305-5.305
	c2.928,0,5.305,2.378,5.305,5.305C17.305,14.928,14.928,17.305,12,17.305z M12,8.464c-1.954,0-3.536,1.582-3.536,3.536
	s1.582,3.537,3.536,3.537s3.537-1.583,3.537-3.537S13.954,8.464,12,8.464z"/>
</svg>
