<svg version="1.1" id="master" xmlns="http://www.w3.org/2000/svg" xmlns:xlink="http://www.w3.org/1999/xlink" x="0px" y="0px"
	 width="24px" height="24px" viewBox="0 0 24 24" enable-background="new 0 0 24 24" xml:space="preserve">
<rect fill="none" width="24" height="24"/>
<path d="M7.236,5.945L5.6,4.318L4.318,5.6l1.627,1.627L7.236,5.945z M4.727,11.091H2v1.818h2.727V11.091z M12.909,2.045h-1.818
	v2.682h1.818V2.045z M19.682,5.6L18.4,4.318l-1.628,1.627l1.282,1.282L19.682,5.6z M16.764,18.055l1.627,1.637l1.281-1.283
	l-1.635-1.627L16.764,18.055z M19.272,11.091v1.818H22v-1.818H19.272z M12,6.545c-3.009,0-5.455,2.446-5.455,5.455
	c0,3.01,2.445,5.455,5.455,5.455c3.01,0,5.454-2.445,5.454-5.455C17.454,8.991,15.01,6.545,12,6.545z M11.091,21.955h1.818v-2.682
	h-1.818V21.955z M4.318,18.4L5.6,19.682l1.627-1.635l-1.282-1.283L4.318,18.4z"/>
</svg>
