<svg version="1.1" id="master" xmlns="http://www.w3.org/2000/svg" xmlns:xlink="http://www.w3.org/1999/xlink" x="0px" y="0px"
	 width="24px" height="24px" viewBox="0 0 24 24" enable-background="new 0 0 24 24" xml:space="preserve">
<path d="M20.319,15.623c0.047-0.093,0.047-0.187,0.093-0.28C21.534,10.95,18.87,5.81,14.29,3.099c2.01,2.71,2.804,5.935,2.104,8.833
	c-0.047,0.233-0.14,0.514-0.233,0.747c-0.129-0.071-0.255-0.149-0.375-0.233c0,0-4.533-2.804-9.392-7.711
	c-0.141-0.14,2.617,3.925,5.701,7.15C10.646,11.043,6.533,8.1,3.962,5.716C4.243,6.23,4.664,6.744,5.084,7.258
	c2.15,2.758,4.954,6.122,8.319,8.692c-2.383,1.45-5.702,1.542-9.066,0C3.495,15.577,2.795,15.108,2,14.549
	c1.402,2.195,3.598,4.206,6.216,5.28c3.131,1.355,6.308,1.263,8.598,0h0.048c0.094-0.047,0.187-0.093,0.28-0.187
	c1.122-0.561,3.318-1.168,4.534,1.169C22.002,21.465,22.609,18.428,20.319,15.623L20.319,15.623z"/>
</svg>
