<svg version="1.1" id="master" xmlns="http://www.w3.org/2000/svg" xmlns:xlink="http://www.w3.org/1999/xlink" x="0px" y="0px"
	 width="24px" height="24px" viewBox="0 0 24 24" enable-background="new 0 0 24 24" xml:space="preserve">
<path d="M7.925,13.706C8.036,13.808,8.402,14,9,14s0.964-0.192,1.075-0.294c0.5-0.463,1.078-0.706,1.67-0.706h0.51
	c0.593,0,1.17,0.243,1.671,0.706C14.036,13.808,14.402,14,15,14c0.597,0,0.965-0.192,1.074-0.294
	c0.465-0.429,0.996-0.66,1.544-0.693l-3.526-2.518l0.563-0.402c0.114-0.081,0.259-0.11,0.395-0.081l3.136,0.672
	c0.81,0.173,1.607-0.343,1.781-1.152c0.174-0.81-0.342-1.607-1.152-1.781l-3.136-0.673c-0.961-0.206-1.97,0.004-2.768,0.574
	l-2.501,1.787c-0.324,0.231-0.605,0.514-0.835,0.842L7.43,13.344C7.601,13.444,7.768,13.561,7.925,13.706z M21.5,15H21
	c-0.814,0-1.432-0.264-1.752-0.56C18.97,14.185,18.633,14,18.255,14h-0.51c-0.379,0-0.715,0.185-0.992,0.44
	C16.432,14.736,15.813,15,15,15c-0.814,0-1.431-0.264-1.753-0.56C12.969,14.185,12.633,14,12.254,14h-0.509
	c-0.379,0-0.715,0.185-0.993,0.44C10.432,14.736,9.813,15,9,15c-0.814,0-1.431-0.264-1.752-0.56C6.969,14.185,6.633,14,6.254,14
	H5.745c-0.378,0-0.715,0.185-0.993,0.44C4.431,14.736,3.814,15,3,15H2.5C2.224,15,2,15.225,2,15.5v1C2,16.776,2.224,17,2.5,17H3
	c1.207,0,2.272-0.381,3-0.994C6.728,16.619,7.793,17,9,17s2.272-0.381,3-0.994C12.728,16.619,13.794,17,15,17
	c1.207,0,2.272-0.381,3-0.994C18.728,16.619,19.793,17,21,17h0.5c0.276,0,0.5-0.224,0.5-0.5v-1C22,15.225,21.776,15,21.5,15z
	 M5.5,12C6.881,12,8,10.88,8,9.5C8,8.119,6.881,7,5.5,7C4.12,7,3,8.119,3,9.5C3,10.88,4.12,12,5.5,12z"/>
</svg>
