<svg version="1.1" id="master" xmlns="http://www.w3.org/2000/svg" xmlns:xlink="http://www.w3.org/1999/xlink" x="0px" y="0px"
	 width="24px" height="24px" viewBox="0 0 24 24" enable-background="new 0 0 24 24" xml:space="preserve">
<rect fill="none" width="24" height="24"/>
<path d="M22,21c-1.109,0-1.73-0.37-2.18-0.641C19.45,20.141,19.221,20,18.67,20c-0.561,0-0.779,0.13-1.15,0.359
	C17.061,20.63,16.45,21,15.34,21c-1.109,0-1.73-0.37-2.18-0.641C12.79,20.141,12.561,20,12.01,20c-0.56,0-0.78,0.13-1.15,0.359
	C10.4,20.63,9.78,21,8.67,21s-1.73-0.37-2.18-0.641C6.12,20.13,5.89,20,5.34,20c-0.55,0-0.78,0.13-1.15,0.359
	C3.73,20.63,3.11,21,2,21v-2c0.56,0,0.78-0.13,1.15-0.359C3.61,18.37,4.23,18,5.34,18c1.11,0,1.73,0.37,2.18,0.641
	C7.89,18.87,8.11,19,8.67,19s0.78-0.13,1.15-0.359C10.28,18.37,10.9,18,12.01,18c1.11,0,1.73,0.37,2.18,0.641
	C14.561,18.859,14.79,19,15.34,19c0.551,0,0.78-0.13,1.15-0.359C16.939,18.37,17.561,18,18.67,18s1.73,0.37,2.18,0.641
	C21.221,18.87,21.439,19,22,19V21z M22,16.5c-1.109,0-1.73-0.37-2.18-0.641c-0.37-0.219-0.6-0.359-1.15-0.359
	c-0.561,0-0.779,0.13-1.15,0.359C17.07,16.13,16.45,16.5,15.34,16.5c-1.109,0-1.73-0.37-2.18-0.641
	c-0.37-0.219-0.6-0.359-1.15-0.359c-0.56,0-0.78,0.13-1.15,0.359C10.41,16.13,9.79,16.5,8.68,16.5c-1.11,0-1.73-0.37-2.18-0.641
	C6.13,15.641,5.9,15.5,5.35,15.5c-0.55,0-0.78,0.13-1.15,0.359C3.73,16.13,3.11,16.5,2,16.5v-2c0.56,0,0.78-0.13,1.15-0.359
	C3.6,13.87,4.22,13.5,5.33,13.5s1.73,0.37,2.18,0.641c0.37,0.219,0.6,0.359,1.15,0.359c0.56,0,0.78-0.13,1.15-0.359
	c0.45-0.271,1.07-0.641,2.18-0.641c1.109,0,1.73,0.37,2.18,0.641c0.37,0.219,0.6,0.359,1.15,0.359c0.55,0,0.779-0.13,1.15-0.359
	C16.92,13.87,17.54,13.5,18.65,13.5c1.109,0,1.729,0.37,2.18,0.641c0.37,0.219,0.6,0.359,1.15,0.359v2H22z M8.67,12
	c0.56,0,0.78-0.13,1.15-0.36C10.28,11.37,10.9,11,12.01,11c1.11,0,1.73,0.37,2.18,0.64C14.561,11.86,14.79,12,15.34,12
	c0.551,0,0.78-0.13,1.15-0.36c0.119-0.07,0.26-0.15,0.41-0.23L10.48,5C8.93,3.45,7.5,2.99,5,3v2.5C6.82,5.49,7.89,5.89,9,7l1,1
	l-3.25,3.25c0.31,0.12,0.56,0.27,0.77,0.39C7.89,11.87,8.11,12,8.67,12z M16.5,3C17.881,3,19,4.119,19,5.5S17.881,8,16.5,8
	S14,6.881,14,5.5S15.119,3,16.5,3z"/>
</svg>
