<svg version="1.1" id="master" xmlns="http://www.w3.org/2000/svg" xmlns:xlink="http://www.w3.org/1999/xlink"
	 x="0px" y="0px" width="24px" height="24px" viewBox="0 0 24 24" enable-background="new 0 0 24 24" xml:space="preserve">
<path d="M6.301,10.891c-0.244-0.244-0.64-0.244-0.884,0l-0.734,0.734c-0.21,0.21-0.243,0.541-0.078,0.789l2.086,3.128l-2.087,2.087
	L3.46,17.057C3.251,16.953,3,16.993,2.834,17.159l-0.675,0.676c-0.212,0.212-0.212,0.555,0,0.767l3.239,3.239
	c0.211,0.212,0.555,0.212,0.767,0l0.675-0.676c0.165-0.164,0.207-0.417,0.102-0.625l-0.571-1.144l2.087-2.087l3.128,2.085
	c0.249,0.166,0.578,0.133,0.789-0.078l0.735-0.733c0.244-0.244,0.244-0.641,0-0.885L6.301,10.891z M21.286,2.006l-3.661,0.619
	l-8.911,8.911l3.75,3.75l8.911-8.911l0.618-3.661C22.052,2.302,21.699,1.948,21.286,2.006z"/>
</svg>
