<svg version="1.1" id="master" xmlns="http://www.w3.org/2000/svg" xmlns:xlink="http://www.w3.org/1999/xlink" x="0px" y="0px"
	 width="24px" height="24px" viewBox="0 0 24 24" enable-background="new 0 0 24 24" xml:space="preserve">
<rect fill="none" width="24" height="24"/>
<path d="M14.084,17.209l3.125-3.125L5.646,2.521L2.595,2.006c-0.344-0.049-0.638,0.246-0.59,0.59l0.517,3.051L14.084,17.209z
	 M21.816,20.049L19.5,17.732l1.234-2.307c0.131-0.242,0.086-0.543-0.107-0.736l-0.686-0.686c-0.244-0.244-0.641-0.244-0.885,0
	l-5.053,5.053c-0.244,0.244-0.244,0.641,0,0.885l0.684,0.686c0.195,0.193,0.496,0.238,0.738,0.107l2.307-1.234l2.316,2.316
	c0.244,0.244,0.639,0.244,0.883,0l0.885-0.885C22.061,20.688,22.061,20.293,21.816,20.049z M21.479,5.646l0.516-3.051
	c0.049-0.344-0.246-0.639-0.59-0.59l-3.051,0.517l-5.47,5.47l3.124,3.125L21.479,5.646z M7.992,12.884l-2.085,2.085l-0.965-0.965
	c-0.244-0.244-0.64-0.244-0.883,0l-0.686,0.684c-0.194,0.195-0.239,0.496-0.108,0.738L4.5,17.732l-2.316,2.316
	c-0.244,0.244-0.244,0.639,0,0.883l0.884,0.885c0.244,0.244,0.64,0.244,0.884,0L6.268,19.5l2.306,1.234
	c0.243,0.131,0.542,0.086,0.737-0.107l0.685-0.686c0.244-0.244,0.244-0.641,0-0.885l-0.964-0.963l2.085-2.086L7.992,12.884z"/>
</svg>
