<svg version="1.1" id="master" xmlns="http://www.w3.org/2000/svg" xmlns:xlink="http://www.w3.org/1999/xlink" x="0px" y="0px"
	 width="24px" height="24px" viewBox="0 0 24 24" enable-background="new 0 0 24 24" xml:space="preserve">
<rect fill="none" width="24" height="24"/>
<path d="M4.188,10.141l-1.979,2.244C2.074,12.536,2,12.732,2,12.936V20h4v-8.513l-1.188-1.346C4.646,9.953,4.354,9.953,4.188,10.141
	L4.188,10.141z M21.792,12.384l-1.979-2.244c-0.166-0.188-0.459-0.188-0.625,0L18,11.487V20h4v-7.064
	C22,12.732,21.926,12.536,21.792,12.384z M12.625,4.219c-0.366-0.292-0.884-0.292-1.25,0l-4,3.2C7.138,7.609,7,7.896,7,8.2V20h3
	v-2.893c0-0.996,0.681-1.92,1.664-2.08C12.916,14.824,14,15.786,14,17v3h3V8.2c0-0.303-0.139-0.591-0.375-0.781L12.625,4.219z
	 M14.252,10.955c0.062,0.099-0.009,0.226-0.125,0.226H12.91l-0.785,1.25c-0.058,0.092-0.192,0.092-0.25,0l-0.785-1.25H9.873
	c-0.116,0-0.187-0.128-0.125-0.226l0.6-0.955l-0.6-0.955C9.687,8.947,9.757,8.819,9.873,8.819h1.217l0.785-1.25
	c0.058-0.092,0.192-0.092,0.25,0l0.785,1.25h1.217c0.116,0,0.188,0.128,0.126,0.226L13.652,10L14.252,10.955z"/>
</svg>
