<svg version="1.1" id="master" xmlns="http://www.w3.org/2000/svg" xmlns:xlink="http://www.w3.org/1999/xlink" x="0px" y="0px"
	 width="24px" height="24px" viewBox="0 0 24 24" enable-background="new 0 0 24 24" xml:space="preserve">
<path d="M12,4.727V2L8.363,5.636L12,9.273V6.545c3.01,0,5.455,2.445,5.455,5.455c0,0.918-0.229,1.791-0.637,2.545l1.326,1.327
	c0.709-1.117,1.129-2.444,1.129-3.872C19.273,7.982,16.018,4.727,12,4.727z M12,17.454c-3.009,0-5.455-2.444-5.455-5.454
	c0-0.918,0.227-1.791,0.636-2.545L5.854,8.127C5.145,9.245,4.727,10.573,4.727,12c0,4.019,3.254,7.272,7.273,7.272V22l3.637-3.637
	L12,14.728V17.454z"/>
</svg>
