<svg version="1.1" id="master" xmlns="http://www.w3.org/2000/svg" xmlns:xlink="http://www.w3.org/1999/xlink" x="0px" y="0px"
	 width="24px" height="24px" viewBox="0 0 24 24" enable-background="new 0 0 24 24" xml:space="preserve">
<path d="M10.331,4.742V2.303c-0.933,0.245-1.808,0.63-2.602,1.12l1.703,1.704C9.725,4.987,10.017,4.847,10.331,4.742z M2,3.646
	l2.754,2.753c-0.898,1.424-1.423,3.115-1.423,4.936c0,2.578,1.062,4.9,2.753,6.581l-2.753,2.753h7v-7.001l-2.613,2.614
	c-1.26-1.271-2.054-3.011-2.054-4.947c0-1.167,0.292-2.264,0.794-3.232l9.428,9.429c-0.292,0.15-0.584,0.291-0.898,0.396v2.438
	c0.934-0.245,1.809-0.63,2.603-1.12L20.343,22l1.481-1.482L3.494,2.164L2,3.646z M22,2h-7.001v7.001l2.614-2.614
	c1.26,1.272,2.053,3.01,2.053,4.948c0,1.166-0.291,2.263-0.793,3.231l1.702,1.704C21.475,14.847,22,13.155,22,11.335
	c0-2.579-1.063-4.901-2.753-6.582L22,2z"/>
</svg>
