<svg version="1.1" id="master" xmlns="http://www.w3.org/2000/svg" xmlns:xlink="http://www.w3.org/1999/xlink" x="0px" y="0px"
	 width="24px" height="24px" viewBox="0 0 24 24" enable-background="new 0 0 24 24" xml:space="preserve">
<rect fill="none" width="24" height="24"/>
<path d="M2,12c0,2.456,1.011,4.667,2.622,6.268L2,20.889h6.667v-6.666l-2.489,2.489c-1.2-1.211-1.956-2.867-1.956-4.712
	c0-2.899,1.855-5.367,4.444-6.277V3.4C4.833,4.389,2,7.856,2,12z M10.889,17.556h2.223v-2.222h-2.223V17.556z M22,3.111h-6.667
	v6.667l2.489-2.489c1.2,1.211,1.955,2.867,1.955,4.711c0,2.899-1.855,5.367-4.444,6.278v2.322C19.167,19.611,22,16.146,22,12
	c0-2.455-1.012-4.667-2.621-6.267L22,3.111z M10.889,13.111h2.223V6.445h-2.223V13.111z"/>
</svg>
