<svg version="1.1" id="master" xmlns="http://www.w3.org/2000/svg" xmlns:xlink="http://www.w3.org/1999/xlink" x="0px" y="0px"
	 width="24px" height="24px" viewBox="0 0 24 24" enable-background="new 0 0 24 24" xml:space="preserve">
<rect fill="none" width="24" height="24"/>
<path d="M9.871,8.831l2.176,2.18c0.121,0.121,0.121,0.32,0,0.441l-0.441,0.441c-0.121,0.121-0.32,0.121-0.441,0l-2.176-2.18
	l-1.769,1.77l2.179,2.179c0.121,0.122,0.121,0.321,0,0.441l-0.441,0.442c-0.121,0.121-0.321,0.121-0.441,0l-2.18-2.184l-1.031,1.031
	c-0.676,0.675-1,1.605-0.898,2.554l0.277,2.484l-2.593,2.594c-0.121,0.121-0.121,0.32,0,0.44l0.441,0.442
	c0.121,0.121,0.32,0.121,0.441,0l2.59-2.59l2.484,0.277c0.933,0.102,1.871-0.211,2.554-0.898l7.105-7.104l-5.301-5.3L9.871,8.831z
	 M21.909,5.187l-3.094-3.094c-0.121-0.121-0.32-0.121-0.44,0l-0.442,0.441c-0.121,0.121-0.121,0.32,0,0.441l1.106,1.105L17.269,5.85
	l-2.211-2.21l-0.664-0.664c-0.12-0.121-0.319-0.121-0.44,0L12.629,4.3c-0.121,0.121-0.121,0.32,0,0.441l0.664,0.664l5.3,5.308
	l0.664,0.664c0.121,0.122,0.32,0.122,0.441,0l1.324-1.328c0.121-0.122,0.121-0.32,0-0.441l-2.871-2.871l1.77-1.77l1.105,1.105
	c0.121,0.122,0.32,0.122,0.441,0l0.441-0.441C22.03,5.506,22.03,5.311,21.909,5.187z"/>
</svg>
