<svg version="1.1" id="master" xmlns="http://www.w3.org/2000/svg" xmlns:xlink="http://www.w3.org/1999/xlink" x="0px" y="0px"
	 width="24px" height="24px" viewBox="0 0 24 24" enable-background="new 0 0 24 24" xml:space="preserve">
<rect fill="none" width="24" height="24"/>
<path d="M21.384,13.58c1.23-3.039,0.616-6.652-1.844-9.116c-3.277-3.285-8.593-3.285-11.87,0L5.483,6.655l8.261,8.261
	C15.545,12.49,18.88,11.893,21.384,13.58z M12.872,16.693L4.264,8.088c-1.066,1.77-0.847,4.101,0.676,5.629l1.348,1.352L2.265,18.56
	c-0.335,0.293-0.355,0.81-0.039,1.125l2.086,2.09c0.313,0.316,0.828,0.297,1.121-0.039l3.488-4.034l1.394,1.395
	c0.77,0.769,1.742,1.191,2.746,1.3c-0.277-0.664-0.43-1.391-0.43-2.152C12.627,17.705,12.729,17.188,12.872,16.693z M18.251,14.498
	c-2.07,0-3.75,1.68-3.75,3.75c0,2.069,1.68,3.749,3.75,3.749S22,20.317,22,18.248C22,16.178,20.321,14.498,18.251,14.498z"/>
</svg>
