<svg version="1.1" id="master" xmlns="http://www.w3.org/2000/svg" xmlns:xlink="http://www.w3.org/1999/xlink" x="0px" y="0px"
	 width="24px" height="24px" viewBox="0 0 24 24" enable-background="new 0 0 24 24" xml:space="preserve">
<rect fill="none" width="24" height="24"/>
<path d="M12,4.222c-5.523,0-10,4.477-10,10c0,1.834,0.495,3.552,1.356,5.028c0.195,0.334,0.566,0.528,0.953,0.528H19.69
	c0.388,0,0.759-0.194,0.954-0.528C21.505,17.773,22,16.056,22,14.222C22,8.699,17.522,4.222,12,4.222z M12,6.445
	c0.511,0,0.923,0.352,1.053,0.821c-0.039,0.079-0.092,0.147-0.12,0.231l-0.319,0.961C12.435,8.579,12.232,8.667,12,8.667
	c-0.614,0-1.111-0.498-1.111-1.111S11.386,6.445,12,6.445z M5.333,16.445c-0.614,0-1.111-0.498-1.111-1.112
	c0-0.613,0.498-1.111,1.111-1.111c0.613,0,1.111,0.498,1.111,1.111C6.444,15.947,5.947,16.445,5.333,16.445z M7,10.889
	c-0.614,0-1.111-0.498-1.111-1.111S6.386,8.667,7,8.667s1.111,0.498,1.111,1.111S7.614,10.889,7,10.889z M15.568,8.375l-2.13,6.389
	c0.476,0.408,0.783,1.005,0.783,1.682c0,0.406-0.117,0.782-0.308,1.109h-3.828c-0.191-0.327-0.308-0.703-0.308-1.109
	c0-1.18,0.92-2.134,2.08-2.209l2.13-6.389c0.145-0.436,0.615-0.675,1.055-0.526C15.479,7.466,15.713,7.938,15.568,8.375z
	 M16.077,10.361l0.539-1.616C16.736,8.7,16.864,8.667,17,8.667c0.613,0,1.111,0.498,1.111,1.111c0,0.613-0.498,1.111-1.111,1.111
	C16.604,10.889,16.274,10.671,16.077,10.361z M18.667,16.445c-0.614,0-1.112-0.498-1.112-1.112c0-0.613,0.498-1.111,1.112-1.111
	c0.613,0,1.111,0.498,1.111,1.111C19.778,15.947,19.28,16.445,18.667,16.445z"/>
</svg>
