<svg version="1.1" id="master" xmlns="http://www.w3.org/2000/svg" xmlns:xlink="http://www.w3.org/1999/xlink" x="0px" y="0px"
	 width="24px" height="24px" viewBox="0 0 24 24" enable-background="new 0 0 24 24" xml:space="preserve">
<rect fill="none" width="24" height="24"/>
<path d="M12,9.5c-5.085,0-9.292,4.195-9.987,9.651c-0.107,0.843,0.496,1.599,1.26,1.599h17.455c0.765,0,1.367-0.756,1.26-1.599
	C21.292,13.695,17.085,9.5,12,9.5z M6.375,18.25c-0.345,0-0.625-0.28-0.625-0.625S6.03,17,6.375,17C6.72,17,7,17.28,7,17.625
	S6.72,18.25,6.375,18.25z M8.875,15.75c-0.345,0-0.625-0.28-0.625-0.625S8.53,14.5,8.875,14.5c0.345,0,0.625,0.28,0.625,0.625
	S9.22,15.75,8.875,15.75z M2.287,12.917c0.1,0.359,0.159,0.728,0.177,1.1C4.5,10.536,8.051,8.25,12,8.25
	c3.948,0,7.5,2.286,9.536,5.767c0.019-0.371,0.078-0.739,0.178-1.097c0-0.004,0.001-0.007,0.003-0.01
	c0.2-0.677,0.43-1.443,0.163-2.149c-0.28-0.745-0.968-1.147-1.575-1.502c-0.37-0.217-0.754-0.441-0.927-0.685
	c-0.185-0.261-0.286-0.723-0.384-1.172c-0.153-0.706-0.329-1.507-0.923-1.978c-0.613-0.486-1.406-0.43-2.109-0.383
	c-0.422,0.029-0.859,0.059-1.14-0.043c-0.271-0.098-0.591-0.396-0.898-0.684c-1.135-1.057-1.979-1.738-3.843-0.002
	C9.771,4.6,9.451,4.898,9.182,4.996C8.9,5.098,8.464,5.069,8.042,5.039C7.339,4.991,6.546,4.936,5.933,5.422
	C5.339,5.894,5.164,6.694,5.01,7.4C4.912,7.848,4.811,8.31,4.625,8.572C4.454,8.816,4.07,9.041,3.699,9.257
	c-0.607,0.355-1.295,0.757-1.574,1.502c-0.266,0.707-0.039,1.473,0.163,2.149C2.285,12.91,2.286,12.914,2.287,12.917z"/>
</svg>
