<svg version="1.1" id="master" xmlns="http://www.w3.org/2000/svg" xmlns:xlink="http://www.w3.org/1999/xlink" x="0px" y="0px"
	 width="24px" height="24px" viewBox="0 0 24 24" enable-background="new 0 0 24 24" xml:space="preserve">
<rect fill="none" width="24" height="24"/>
<path d="M21.41,11.58l-9-9C12.05,2.22,11.55,2,11,2H4C2.9,2,2,2.9,2,4v7c0,0.55,0.22,1.05,0.59,1.42l9,9C11.95,21.78,12.45,22,13,22
	s1.05-0.22,1.41-0.59l7-7C21.779,14.05,22,13.55,22,13S21.77,11.94,21.41,11.58z M5.5,7C4.67,7,4,6.33,4,5.5S4.67,4,5.5,4
	S7,4.67,7,5.5S6.33,7,5.5,7z"/>
</svg>
