<svg version="1.1" id="master" xmlns="http://www.w3.org/2000/svg" xmlns:xlink="http://www.w3.org/1999/xlink" x="0px" y="0px"
	 width="24px" height="24px" viewBox="0 0 24 24" enable-background="new 0 0 24 24" xml:space="preserve">
<rect fill="none" width="24" height="24"/>
<path d="M9,10c-1.103,0-2,0.897-2,2c0,1.104,0.897,2,2,2s2-0.896,2-2C11,10.897,10.103,10,9,10z M21.5,17h-7.606
	C15.19,15.729,16,13.96,16,12c0-3.866-3.134-7-7-7c-3.866,0-7,3.134-7,7c0,3.865,3.134,7,7,7h12.5c0.275,0,0.5-0.225,0.5-0.5v-1
	C22,17.225,21.775,17,21.5,17z M9,15c-1.656,0-3-1.344-3-3s1.344-3,3-3s3,1.344,3,3S10.656,15,9,15z"/>
</svg>
