<svg version="1.1" id="master" xmlns="http://www.w3.org/2000/svg" xmlns:xlink="http://www.w3.org/1999/xlink" x="0px" y="0px"
	 width="24px" height="24px" viewBox="0 0 24 24" enable-background="new 0 0 24 24" xml:space="preserve">
<path d="M12,8.364c-2.009,0-3.636,1.627-3.636,3.636c0,2.009,1.627,3.637,3.636,3.637c2.009,0,3.637-1.628,3.637-3.637
	C15.637,9.991,14.009,8.364,12,8.364z M20.127,11.091C19.71,7.3,16.7,4.291,12.909,3.873V2h-1.818v1.873
	C7.3,4.291,4.291,7.3,3.873,11.091H2v1.818h1.873C4.291,16.7,7.3,19.71,11.091,20.127V22h1.818v-1.873
	c3.791-0.417,6.801-3.427,7.218-7.218H22v-1.818H20.127z M12,18.363c-3.518,0-6.364-2.845-6.364-6.363
	c0-3.518,2.846-6.364,6.364-6.364c3.519,0,6.363,2.846,6.363,6.364C18.363,15.519,15.519,18.363,12,18.363z"/>
</svg>
