<svg version="1.1" id="master" xmlns="http://www.w3.org/2000/svg" xmlns:xlink="http://www.w3.org/1999/xlink" x="0px" y="0px"
	 width="24px" height="24px" viewBox="0 0 24 24" enable-background="new 0 0 24 24" xml:space="preserve">
<path d="M19.688,5.344c-0.221-0.655-0.844-1.122-1.577-1.122h-2.778V2H8.667v2.222H5.889c-0.733,0-1.344,0.467-1.578,1.122L2,12
	v8.889C2,21.5,2.5,22,3.111,22h1.111c0.611,0,1.111-0.5,1.111-1.111v-1.111h13.333v1.111c0,0.611,0.5,1.111,1.11,1.111h1.111
	C21.5,22,22,21.5,22,20.889V12L19.688,5.344z M5.889,16.444c-0.922,0-1.667-0.744-1.667-1.667c0-0.922,0.745-1.666,1.667-1.666
	c0.922,0,1.667,0.744,1.667,1.666C7.556,15.7,6.811,16.444,5.889,16.444z M18.111,16.444c-0.923,0-1.667-0.744-1.667-1.667
	c0-0.922,0.744-1.666,1.667-1.666c0.922,0,1.666,0.744,1.666,1.666C19.777,15.7,19.033,16.444,18.111,16.444z M4.222,10.889l1.667-5
	h12.223l1.666,5H4.222z"/>
</svg>
