<svg version="1.1" id="master" xmlns="http://www.w3.org/2000/svg" xmlns:xlink="http://www.w3.org/1999/xlink" x="0px" y="0px"
	 width="24px" height="24px" viewBox="0 0 24 24" enable-background="new 0 0 24 24" xml:space="preserve">
<rect fill="none" width="24" height="24"/>
<path d="M19.777,4.223H7.556v2.666L9.567,8.5C9.7,8.601,9.778,8.767,9.778,8.934v4.733c0,0.311-0.245,0.556-0.556,0.556H4.778
	c-0.311,0-0.556-0.245-0.556-0.556V8.934c0-0.167,0.078-0.333,0.211-0.434l2.011-1.611V4.223H2v11.11
	c0,2.456,1.989,4.444,4.444,4.444h6.667c2.455,0,4.444-1.988,4.444-4.444V12h2.222C21.011,12,22,11,22,9.778V6.444
	C22,5.212,21.011,4.223,19.777,4.223z M19.777,9.778h-2.222V6.444h2.222V9.778z"/>
</svg>
