<svg version="1.1" id="master" xmlns="http://www.w3.org/2000/svg" xmlns:xlink="http://www.w3.org/1999/xlink" x="0px" y="0px"
	 width="24px" height="24px" viewBox="0 0 24 24" enable-background="new 0 0 24 24" xml:space="preserve">
<rect fill="none" width="24" height="24"/>
<path d="M20.828,22H3.172C2.525,21.998,2.001,21.475,2,20.828V3.172C2.001,2.525,2.525,2.001,3.172,2h17.656
	c0.646,0.001,1.17,0.525,1.172,1.172v17.656C21.998,21.475,21.475,21.998,20.828,22z M11.925,3.757
	c-4.504,0.04-8.136,3.735-8.168,8.242c-0.033,4.589,3.65,8.237,8.241,8.241c4.512,0.004,8.162-3.75,8.24-8.241
	C20.319,7.355,16.566,3.717,11.925,3.757z M10.04,9.194L9.3,10.993h5.448l-0.741-1.799l5.534,2.805l-5.534,2.804l0.741-1.799H9.3
	l0.734,1.799l-5.548-2.804L10.04,9.194z"/>
</svg>
