<svg version="1.1" id="master" xmlns="http://www.w3.org/2000/svg" xmlns:xlink="http://www.w3.org/1999/xlink" x="0px" y="0px"
	 width="24px" height="24px" viewBox="0 0 24 24" enable-background="new 0 0 24 24" xml:space="preserve">
<rect fill="none" width="24" height="24"/>
<path d="M20.753,17.246c-0.169-0.223-0.374-0.41-0.616-0.566c-0.241-0.156-0.512-0.267-0.81-0.333
	c0.166-0.179,0.295-0.382,0.388-0.61s0.139-0.466,0.139-0.711c0-0.225-0.041-0.436-0.124-0.631s-0.195-0.366-0.338-0.512
	c-0.142-0.146-0.313-0.258-0.512-0.338c-0.198-0.08-0.41-0.119-0.636-0.119c-0.231,0-0.453-0.045-0.665-0.135
	c-0.212-0.089-0.385-0.239-0.517-0.451c-0.054-0.08-0.098-0.16-0.135-0.244c-0.036-0.082-0.081-0.16-0.134-0.233
	c-0.199-0.318-0.426-0.609-0.681-0.875c-0.255-0.265-0.538-0.5-0.85-0.706c-0.457,0.397-0.964,0.699-1.52,0.904
	c-0.557,0.206-1.137,0.308-1.739,0.308c0.49,0,0.952,0.094,1.386,0.283c0.435,0.188,0.812,0.445,1.133,0.771
	c0.321,0.324,0.576,0.703,0.766,1.137c0.188,0.434,0.283,0.896,0.283,1.387c0,0.45-0.087,0.894-0.259,1.331l-0.269,0.06
	c-0.251,0.06-0.486,0.148-0.705,0.268s-0.414,0.266-0.586,0.438c-0.173,0.172-0.318,0.367-0.438,0.586s-0.202,0.457-0.248,0.716
	c-0.358,0.112-0.712,0.169-1.063,0.169c-0.357,0-0.715-0.057-1.073-0.169c-0.039-0.245-0.122-0.483-0.248-0.716
	c-0.126-0.231-0.275-0.434-0.447-0.605c-0.238-0.232-0.477-0.397-0.715-0.497c-0.239-0.099-0.514-0.183-0.825-0.248
	c-0.086-0.212-0.152-0.431-0.198-0.655c-0.047-0.226-0.07-0.454-0.07-0.686c0-0.49,0.095-0.953,0.283-1.387
	c0.189-0.434,0.446-0.811,0.771-1.133c0.324-0.32,0.704-0.576,1.138-0.765c0.434-0.189,0.896-0.283,1.386-0.283
	c-0.603,0-1.183-0.103-1.738-0.308c-0.557-0.205-1.063-0.507-1.521-0.904c-0.318,0.206-0.606,0.444-0.864,0.715
	c-0.259,0.272-0.487,0.566-0.686,0.884c-0.047,0.073-0.088,0.149-0.124,0.229c-0.037,0.079-0.078,0.155-0.124,0.229
	c-0.113,0.186-0.273,0.329-0.482,0.432c-0.208,0.104-0.419,0.154-0.631,0.154c-0.238,0-0.46,0.037-0.666,0.109
	c-0.205,0.072-0.384,0.178-0.536,0.313C4.48,13.984,4.361,14.15,4.275,14.35s-0.129,0.424-0.129,0.676
	c0,0.245,0.048,0.482,0.144,0.711s0.227,0.432,0.393,0.61c-0.298,0.066-0.569,0.177-0.814,0.333s-0.452,0.344-0.621,0.566
	c-0.169,0.222-0.3,0.469-0.393,0.74s-0.139,0.56-0.139,0.864c0,0.417,0.086,0.816,0.258,1.197s0.404,0.716,0.695,1.003
	c0.292,0.289,0.63,0.519,1.014,0.691C5.066,21.914,5.468,22,5.885,22c0.192,0,0.378-0.02,0.557-0.06
	c0.278-0.054,0.555-0.109,0.829-0.169c0.275-0.06,0.552-0.119,0.83-0.179c0.119-0.026,0.258-0.054,0.417-0.079
	c0.159-0.027,0.321-0.057,0.487-0.09c0.165-0.033,0.324-0.071,0.477-0.114s0.285-0.095,0.397-0.154
	c0.357,0.054,0.712,0.088,1.063,0.104c0.352,0.017,0.706,0.025,1.063,0.025s0.712-0.009,1.063-0.025
	c0.351-0.017,0.702-0.051,1.053-0.104c0.08,0.04,0.227,0.088,0.442,0.144c0.215,0.057,0.46,0.117,0.735,0.18
	c0.274,0.063,0.566,0.125,0.874,0.188s0.598,0.12,0.869,0.169c0.271,0.05,0.505,0.09,0.7,0.119C17.938,21.984,18.065,22,18.125,22
	c0.417,0,0.818-0.084,1.202-0.254c0.385-0.168,0.721-0.396,1.009-0.686c0.288-0.287,0.519-0.622,0.69-1.003s0.258-0.783,0.258-1.207
	c0-0.305-0.046-0.593-0.139-0.864S20.922,17.468,20.753,17.246z M5.109,14.39c0.166-0.165,0.378-0.249,0.637-0.249
	c0.165,0,0.324,0.035,0.477,0.105c0.152,0.068,0.286,0.162,0.402,0.277c0.116,0.116,0.209,0.248,0.278,0.397
	s0.104,0.307,0.104,0.472c0,0.259-0.085,0.471-0.254,0.637c-0.169,0.165-0.379,0.248-0.631,0.248c-0.165,0-0.324-0.035-0.477-0.104
	s-0.287-0.162-0.402-0.278c-0.116-0.115-0.209-0.248-0.278-0.397s-0.104-0.306-0.104-0.472C4.861,14.768,4.944,14.555,5.109,14.39z
	 M7.072,19.948c-0.063,0.155-0.152,0.292-0.269,0.407c-0.116,0.116-0.252,0.207-0.407,0.273s-0.326,0.1-0.512,0.1
	c-0.245,0-0.481-0.052-0.71-0.154s-0.431-0.242-0.606-0.418c-0.176-0.175-0.316-0.375-0.422-0.601
	C4.04,19.33,3.987,19.092,3.987,18.84c0-0.185,0.031-0.357,0.094-0.516c0.063-0.159,0.152-0.295,0.269-0.408
	c0.116-0.112,0.252-0.201,0.407-0.268s0.33-0.1,0.521-0.1c0.245,0,0.482,0.053,0.711,0.159s0.429,0.245,0.601,0.417
	c0.173,0.172,0.312,0.373,0.418,0.602c0.105,0.229,0.158,0.465,0.158,0.71C7.166,19.622,7.135,19.793,7.072,19.948z M17.106,14.921
	c0.07-0.149,0.163-0.281,0.278-0.397c0.116-0.115,0.25-0.209,0.402-0.277c0.152-0.07,0.312-0.105,0.478-0.105
	c0.251,0,0.462,0.085,0.631,0.254s0.253,0.379,0.253,0.631c0,0.166-0.035,0.322-0.104,0.472s-0.164,0.282-0.283,0.397
	c-0.119,0.116-0.255,0.209-0.407,0.278s-0.312,0.104-0.477,0.104c-0.252,0-0.461-0.084-0.626-0.254
	c-0.166-0.168-0.248-0.379-0.248-0.631C17.003,15.228,17.037,15.07,17.106,14.921z M19.864,19.551
	c-0.106,0.229-0.247,0.43-0.423,0.602s-0.377,0.311-0.605,0.417s-0.466,0.159-0.711,0.159c-0.384,0-0.693-0.123-0.929-0.367
	c-0.235-0.246-0.353-0.557-0.353-0.935c0-0.245,0.053-0.48,0.159-0.706c0.105-0.225,0.245-0.425,0.417-0.601
	c0.172-0.175,0.372-0.314,0.601-0.417c0.229-0.104,0.466-0.154,0.711-0.154c0.377,0,0.687,0.121,0.929,0.363
	c0.242,0.241,0.362,0.551,0.362,0.928C20.022,19.086,19.97,19.322,19.864,19.551z M7.604,8.428L7.365,9.144h0.924
	c0.192,0.332,0.422,0.629,0.69,0.894c0.269,0.265,0.562,0.49,0.88,0.676c0.317,0.186,0.658,0.326,1.022,0.422
	c0.364,0.096,0.739,0.144,1.123,0.144s0.757-0.048,1.118-0.144c0.36-0.096,0.7-0.237,1.018-0.422
	c0.318-0.186,0.611-0.409,0.88-0.671c0.269-0.261,0.498-0.561,0.69-0.899h0.934l-0.238-0.715h0.597l-1.044-3.12
	c0.133-0.126,0.262-0.249,0.388-0.368s0.237-0.245,0.333-0.377c0.096-0.133,0.174-0.275,0.233-0.427s0.09-0.328,0.09-0.527
	c0-0.218-0.044-0.425-0.13-0.621s-0.202-0.366-0.348-0.512s-0.316-0.262-0.512-0.348C15.818,2.043,15.611,2,15.393,2
	c-0.198,0-0.376,0.03-0.531,0.089s-0.3,0.139-0.432,0.238c-0.133,0.1-0.261,0.212-0.383,0.338c-0.123,0.126-0.247,0.255-0.373,0.388
	C13.409,2.94,13.136,2.856,12.854,2.8s-0.568-0.084-0.859-0.084c-0.285,0-0.568,0.028-0.85,0.084s-0.555,0.141-0.819,0.253
	c-0.133-0.132-0.259-0.262-0.378-0.388C9.829,2.54,9.703,2.427,9.57,2.328C9.438,2.229,9.294,2.149,9.139,2.089S8.806,2,8.607,2
	C8.382,2,8.172,2.043,7.977,2.129C7.78,2.215,7.612,2.332,7.47,2.477S7.215,2.793,7.132,2.989S7.008,3.391,7.008,3.609
	c0,0.199,0.029,0.375,0.089,0.527S7.234,4.431,7.33,4.563c0.097,0.132,0.206,0.258,0.328,0.377s0.25,0.242,0.383,0.368l-1.033,3.12
	H7.604z M14.568,3.163c0.073-0.08,0.15-0.152,0.233-0.219c0.083-0.066,0.172-0.121,0.269-0.164c0.096-0.043,0.203-0.064,0.322-0.064
	c0.252,0,0.464,0.086,0.637,0.258c0.172,0.172,0.258,0.384,0.258,0.636c0,0.12-0.021,0.227-0.064,0.323
	c-0.043,0.096-0.098,0.185-0.164,0.268S15.92,4.361,15.84,4.434c-0.079,0.073-0.159,0.149-0.238,0.229
	c-0.166-0.251-0.354-0.483-0.566-0.695s-0.443-0.401-0.695-0.566C14.419,3.321,14.495,3.242,14.568,3.163z M13.426,6.282
	c0-0.192,0.071-0.359,0.214-0.502c0.143-0.142,0.31-0.213,0.501-0.213c0.199,0,0.368,0.069,0.507,0.208
	c0.14,0.139,0.209,0.308,0.209,0.507v0.715c0,0.199-0.069,0.368-0.209,0.507c-0.139,0.139-0.308,0.208-0.507,0.208
	c-0.191,0-0.358-0.071-0.501-0.214c-0.143-0.142-0.214-0.309-0.214-0.501V6.282z M11.384,8.518c0.063-0.06,0.138-0.089,0.224-0.089
	h0.785c0.093,0,0.171,0.03,0.233,0.089s0.095,0.136,0.095,0.229c0,0.053-0.027,0.123-0.08,0.208
	c-0.053,0.086-0.117,0.169-0.193,0.249s-0.156,0.149-0.238,0.208c-0.083,0.06-0.154,0.09-0.214,0.09c-0.053,0-0.121-0.03-0.204-0.09
	c-0.082-0.06-0.16-0.13-0.233-0.213c-0.072-0.083-0.136-0.167-0.188-0.253S11.29,8.79,11.29,8.736
	C11.29,8.65,11.321,8.577,11.384,8.518z M11.578,10.053c0.165-0.083,0.308-0.194,0.427-0.333c0.245,0.285,0.56,0.447,0.944,0.487
	c-0.266,0.245-0.58,0.368-0.944,0.368s-0.679-0.123-0.943-0.368C11.24,10.187,11.412,10.136,11.578,10.053z M10.365,5.775
	c0.14,0.139,0.209,0.308,0.209,0.507v0.715c0,0.199-0.069,0.368-0.209,0.507c-0.139,0.139-0.308,0.208-0.506,0.208
	c-0.199,0-0.368-0.069-0.507-0.208c-0.14-0.139-0.209-0.308-0.209-0.507V6.282c0-0.199,0.069-0.368,0.209-0.507
	C9.491,5.636,9.66,5.567,9.859,5.567C10.058,5.567,10.227,5.636,10.365,5.775z M7.951,4.201C7.885,4.118,7.83,4.028,7.787,3.933
	C7.744,3.836,7.723,3.729,7.723,3.609c0-0.251,0.085-0.463,0.254-0.636s0.379-0.258,0.631-0.258c0.119,0,0.227,0.021,0.322,0.064
	c0.097,0.043,0.186,0.096,0.269,0.159S9.36,3.075,9.437,3.158C9.513,3.24,9.591,3.321,9.67,3.401
	C9.16,3.732,8.739,4.153,8.408,4.663C8.329,4.583,8.249,4.507,8.17,4.434C8.091,4.361,8.018,4.284,7.951,4.201z"/>
</svg>
