<svg version="1.1" id="master" xmlns="http://www.w3.org/2000/svg" xmlns:xlink="http://www.w3.org/1999/xlink" x="0px" y="0px"
	 width="24px" height="24px" viewBox="0 0 24 24" enable-background="new 0 0 24 24" xml:space="preserve">
<rect fill="none" width="24" height="24"/>
<path d="M12,2C6.477,2,2,6.477,2,12c0,5.523,4.477,10,10,10c5.523,0,10-4.477,10-10C22,6.477,17.523,2,12,2z M16.911,8.851
	l-1.642,7.734c-0.121,0.547-0.447,0.681-0.903,0.423l-2.5-1.844l-1.206,1.162c-0.133,0.133-0.246,0.244-0.503,0.244l0.177-2.545
	l4.633-4.185c0.202-0.177-0.046-0.278-0.311-0.101L8.93,13.345l-2.467-0.771c-0.536-0.17-0.549-0.536,0.113-0.794l9.642-3.718
	C16.665,7.903,17.059,8.173,16.911,8.851z"/>
</svg>
