<svg version="1.1" id="icon_telegram" xmlns="http://www.w3.org/2000/svg" xmlns:xlink="http://www.w3.org/1999/xlink" x="0px"
	 y="0px" width="24px" height="24px" viewBox="0 0 24 24" enable-background="new 0 0 24 24" xml:space="preserve">
<path d="M12,2C6.477,2,2,6.477,2,12c0,5.524,4.477,10,10,10c5.524,0,10-4.476,10-10C22,6.477,17.524,2,12,2z M16.911,8.851
	l-1.641,7.734c-0.121,0.547-0.448,0.681-0.904,0.423l-2.5-1.844l-1.206,1.162c-0.133,0.133-0.246,0.245-0.503,0.245l0.177-2.545
	l4.633-4.185c0.202-0.177-0.046-0.278-0.311-0.101l-5.726,3.605l-2.467-0.771c-0.536-0.17-0.549-0.536,0.113-0.794l9.642-3.718
	C16.665,7.903,17.058,8.173,16.911,8.851z"/>
</svg>
