<svg version="1.1" id="icon_telegram" xmlns="http://www.w3.org/2000/svg" xmlns:xlink="http://www.w3.org/1999/xlink" x="0px" y="0px"
	 width="24px" height="24px" viewBox="0 0 24 24" enable-background="new 0 0 24 24" xml:space="preserve">
<path d="M12,1.5C6.2,1.5,1.5,6.2,1.5,12c0,5.801,4.7,10.5,10.5,10.5c5.801,0,10.5-4.699,10.5-10.5C22.5,6.2,17.801,1.5,12,1.5z
	 M17.156,8.693l-1.723,8.121c-0.127,0.575-0.47,0.715-0.948,0.444l-2.625-1.936l-1.266,1.22c-0.14,0.14-0.258,0.258-0.529,0.258
	l0.186-2.672l4.865-4.394c0.212-0.186-0.047-0.292-0.326-0.106l-6.012,3.785l-2.591-0.809c-0.563-0.178-0.576-0.563,0.119-0.834
	l10.123-3.904C16.899,7.698,17.31,7.982,17.156,8.693z"/>
</svg>
