<svg version="1.1" id="master" xmlns="http://www.w3.org/2000/svg" xmlns:xlink="http://www.w3.org/1999/xlink" x="0px" y="0px"
	 width="24px" height="24px" viewBox="0 0 24 24" enable-background="new 0 0 24 24" xml:space="preserve">
<rect fill="none" width="24" height="24"/>
<path d="M18.909,3.353c-2.127-2.128-6.018-1.7-8.682,0.963C8.772,5.771,7.936,7.835,7.918,9.28C7.9,10.717,8.154,12.817,6.69,14.281
	l-3.855,3.854l1.291,1.291l3.855-3.854c1.464-1.464,3.564-1.21,5.001-1.228c1.437-0.018,3.509-0.854,4.964-2.309
	C20.601,9.372,21.037,5.48,18.909,3.353z M10.545,11.708c-1.391-1.392-0.955-4.192,0.963-6.11c1.919-1.918,4.71-2.355,6.109-0.964
	c1.392,1.391,0.956,4.191-0.963,6.11C14.736,12.663,11.945,13.1,10.545,11.708z M17.528,16.545c0.48,0,0.945,0.191,1.281,0.536
	c0.709,0.71,0.709,1.865,0,2.573c-0.336,0.337-0.801,0.527-1.281,0.527c-0.481,0-0.946-0.19-1.282-0.536
	c-0.709-0.709-0.709-1.864,0-2.573C16.582,16.736,17.047,16.545,17.528,16.545 M17.528,14.727c-0.928,0-1.864,0.355-2.573,1.063
	c-1.419,1.419-1.419,3.719,0,5.146C15.664,21.645,16.601,22,17.528,22c0.927,0,1.863-0.355,2.572-1.063
	c1.419-1.419,1.419-3.719,0-5.146C19.392,15.082,18.455,14.727,17.528,14.727L17.528,14.727z"/>
</svg>
