<svg version="1.1" id="master" xmlns="http://www.w3.org/2000/svg" xmlns:xlink="http://www.w3.org/1999/xlink" x="0px" y="0px"
	 width="24px" height="24px" viewBox="0 0 24 24" enable-background="new 0 0 24 24" xml:space="preserve">
<rect fill="none" width="24" height="24"/>
<path d="M10.062,12.442l-6.074,6.074c-0.292,0.293-0.768,0.293-1.06,0L2.22,17.807c-0.292-0.293-0.293-0.766-0.001-1.059
	l4.813-4.836L2.218,7.076C1.927,6.783,1.927,6.309,2.22,6.017l0.708-0.708c0.293-0.293,0.768-0.293,1.06,0l6.074,6.073
	C10.355,11.674,10.355,12.149,10.062,12.442z M22,18.162v-1c0-0.414-0.335-0.75-0.75-0.75h-9.5c-0.414,0-0.75,0.336-0.75,0.75v1
	c0,0.414,0.336,0.75,0.75,0.75h9.5C21.665,18.912,22,18.576,22,18.162z"/>
</svg>
