<svg version="1.1" id="master" xmlns="http://www.w3.org/2000/svg" xmlns:xlink="http://www.w3.org/1999/xlink" x="0px" y="0px"
	 width="24px" height="24px" viewBox="0 0 24 24" enable-background="new 0 0 24 24" xml:space="preserve">
<path d="M12,6.468l2.063-2.521c0,0,3.538,0.075,7.059,1.711C20.22,7.021,18.429,7.69,18.429,7.69
	c-0.122-1.199-0.962-1.492-3.628-1.492L12,22L9.183,6.195c-2.65,0-3.49,0.295-3.612,1.493c0,0-1.789-0.663-2.691-2.025
	C6.4,4.026,9.938,3.95,9.938,3.95L12,6.468L11.997,6.47H12V6.468z M12,3.219c2.846-0.025,6.105,0.44,9.44,1.9
	C21.886,4.313,22,3.957,22,3.957C18.354,2.51,14.939,2.013,12,2C9.06,2.013,5.646,2.508,2,3.958c0,0,0.162,0.438,0.56,1.164
	C5.895,3.658,9.154,3.196,12,3.217V3.219z"/>
</svg>
