<svg version="1.1" id="master" xmlns="http://www.w3.org/2000/svg" xmlns:xlink="http://www.w3.org/1999/xlink" x="0px" y="0px"
	 width="24px" height="24px" viewBox="0 0 24 24" enable-background="new 0 0 24 24" xml:space="preserve">
<rect fill="none" width="24" height="24"/>
<path d="M15.748,13.705c0.399,0.451,0.708,0.961,0.926,1.529S17,16.391,17,17c0,0.689-0.132,1.338-0.396,1.943
	s-0.622,1.135-1.074,1.587s-0.982,0.811-1.592,1.074C13.33,21.868,12.684,22,12,22c-0.69,0-1.338-0.132-1.943-0.396
	C9.45,21.341,8.922,20.982,8.47,20.53c-0.453-0.452-0.811-0.981-1.074-1.587S7,17.689,7,17c0-0.609,0.108-1.197,0.326-1.766
	c0.217-0.568,0.525-1.078,0.926-1.529V5.748c0-0.516,0.099-1.001,0.296-1.457C8.744,3.836,9.013,3.439,9.352,3.1
	c0.34-0.339,0.736-0.607,1.191-0.805C10.998,2.099,11.483,2,12,2c0.516,0,1.001,0.099,1.456,0.295
	c0.455,0.197,0.853,0.465,1.191,0.805c0.339,0.339,0.607,0.736,0.805,1.191s0.296,0.94,0.296,1.457V13.705z M12,20.748
	c0.516,0,1.001-0.099,1.456-0.296s0.853-0.466,1.191-0.804c0.339-0.34,0.607-0.736,0.805-1.191s0.296-0.941,0.296-1.457
	c0-0.533-0.109-1.042-0.326-1.525c-0.218-0.484-0.526-0.904-0.927-1.258V5.748c0-0.342-0.064-0.666-0.195-0.97
	s-0.309-0.57-0.535-0.796c-0.226-0.226-0.491-0.404-0.795-0.535c-0.305-0.13-0.628-0.196-0.97-0.196s-0.664,0.067-0.966,0.2
	c-0.301,0.133-0.566,0.313-0.795,0.539c-0.229,0.226-0.41,0.491-0.544,0.796c-0.133,0.304-0.2,0.625-0.2,0.961v8.469
	c-0.399,0.354-0.707,0.773-0.922,1.258C8.359,15.958,8.252,16.467,8.252,17c0,0.516,0.099,1.002,0.296,1.457
	c0.196,0.455,0.465,0.852,0.804,1.191c0.34,0.338,0.736,0.606,1.191,0.804S11.483,20.748,12,20.748z M13.252,14.844
	c0.383,0.226,0.686,0.529,0.909,0.908c0.223,0.38,0.334,0.796,0.334,1.248c0,0.348-0.064,0.674-0.195,0.979
	s-0.309,0.569-0.535,0.795c-0.226,0.227-0.489,0.404-0.791,0.535S12.348,19.504,12,19.504s-0.674-0.064-0.979-0.195
	S10.452,19,10.226,18.773c-0.226-0.226-0.404-0.49-0.534-0.795C9.561,17.674,9.495,17.348,9.495,17c0-0.452,0.113-0.868,0.34-1.248
	c0.226-0.379,0.53-0.683,0.913-0.908V8.878h2.504V14.844z"/>
</svg>
