<?xml version="1.0" encoding="utf-8"?>
<!-- Generator: Adobe Illustrator 16.0.0, SVG Export Plug-In . SVG Version: 6.00 Build 0)  -->
<!DOCTYPE svg PUBLIC "-//W3C//DTD SVG 1.1//EN" "http://www.w3.org/Graphics/SVG/1.1/DTD/svg11.dtd">
<svg version="1.1" id="master" xmlns="http://www.w3.org/2000/svg" xmlns:xlink="http://www.w3.org/1999/xlink" x="0px" y="0px"
	 width="24px" height="24px" viewBox="0 0 24 24" enable-background="new 0 0 24 24" xml:space="preserve">
<path d="M2,21.091h3.636V10.182H2V21.091z M22,11.091c0-1-0.818-1.818-1.818-1.818h-5.736l0.865-4.155l0.025-0.291
	c0-0.373-0.154-0.718-0.398-0.964l-0.965-0.954L7.991,8.9c-0.336,0.328-0.536,0.782-0.536,1.282v9.091c0,1,0.818,1.817,1.818,1.817
	h8.181c0.755,0,1.399-0.454,1.673-1.108l2.745-6.408C21.955,13.363,22,13.145,22,12.909V11.091z"/>
</svg>
