<svg version="1.1" id="master" xmlns="http://www.w3.org/2000/svg" xmlns:xlink="http://www.w3.org/1999/xlink" x="0px" y="0px"
	 width="24px" height="24px" viewBox="0 0 24 24" enable-background="new 0 0 24 24" xml:space="preserve">
<path d="M14.728,2.909H6.545c-0.754,0-1.4,0.455-1.672,1.109l-2.746,6.409C2.045,10.636,2,10.855,2,11.091v1.818
	c0,1,0.818,1.818,1.818,1.818h5.736l-0.864,4.154l-0.027,0.291c0,0.372,0.155,0.718,0.4,0.964l0.964,0.954l5.991-5.99
	c0.326-0.328,0.527-0.782,0.527-1.282V4.727C16.546,3.727,15.727,2.909,14.728,2.909z M18.363,2.909v10.909H22V2.909H18.363z"/>
</svg>
