<svg version="1.1" id="master" xmlns="http://www.w3.org/2000/svg" xmlns:xlink="http://www.w3.org/1999/xlink" x="0px" y="0px"
	 width="24px" height="24px" viewBox="0 0 24 24" enable-background="new 0 0 24 24" xml:space="preserve">
<rect fill="none" width="24" height="24"/>
<path d="M16.143,10.37l-0.479-4.62h1.648c0.518,0,0.938-0.42,0.938-0.938V2.938C18.25,2.42,17.83,2,17.313,2H6.688
	C6.17,2,5.75,2.42,5.75,2.938v1.875c0,0.518,0.42,0.938,0.938,0.938h1.649l-0.479,4.62C5.963,11.251,4.5,12.83,4.5,14.813
	c0,0.518,0.42,0.938,0.938,0.938h5.313v4.063c0,0.049,0.011,0.097,0.033,0.14l0.938,1.875c0.115,0.229,0.444,0.23,0.56,0
	l0.938-1.875c0.021-0.043,0.032-0.091,0.032-0.14V15.75h5.313c0.518,0,0.938-0.42,0.938-0.938
	C19.5,12.813,18.017,11.242,16.143,10.37z"/>
</svg>
