<svg version="1.1" id="master" xmlns="http://www.w3.org/2000/svg" xmlns:xlink="http://www.w3.org/1999/xlink" x="0px" y="0px"
	 width="24px" height="24px" viewBox="0 0 24 24" enable-background="new 0 0 24 24" xml:space="preserve">
<rect fill="none" width="24" height="24"/>
<path d="M12.437,2.017C13.529,2,14.613,2.008,15.696,2c0.065,1.274,0.524,2.575,1.457,3.476c0.936,0.925,2.25,1.35,3.535,1.491
	v3.358c-1.201-0.042-2.41-0.291-3.501-0.809c-0.475-0.216-0.916-0.491-1.351-0.775c-0.009,2.434,0.009,4.867-0.017,7.292
	c-0.066,1.168-0.45,2.325-1.124,3.284c-1.093,1.6-2.984,2.642-4.925,2.674c-1.192,0.068-2.384-0.258-3.401-0.858
	c-1.683-0.991-2.867-2.807-3.042-4.758c-0.016-0.416-0.025-0.832-0.009-1.242c0.15-1.584,0.934-3.1,2.15-4.132
	C6.854,9.8,8.787,9.226,10.596,9.566c0.017,1.234-0.034,2.467-0.034,3.701c-0.825-0.269-1.791-0.191-2.517,0.307
	c-0.524,0.343-0.925,0.867-1.133,1.46c-0.175,0.426-0.125,0.891-0.116,1.341c0.2,1.367,1.516,2.518,2.916,2.393
	c0.934-0.009,1.826-0.55,2.309-1.343c0.159-0.274,0.334-0.559,0.342-0.882c0.083-1.494,0.05-2.977,0.058-4.468
	C12.429,8.716,12.413,5.367,12.437,2.017z"/>
</svg>
