<svg version="1.1" id="master" xmlns="http://www.w3.org/2000/svg" xmlns:xlink="http://www.w3.org/1999/xlink" x="0px" y="0px"
	 width="24px" height="24px" viewBox="0 0 24 24" enable-background="new 0 0 24 24" xml:space="preserve">
<rect fill="none" width="24" height="24"/>
<path d="M22,8.364c0,1-0.818,1.818-1.818,1.818c-0.163,0-0.317-0.018-0.463-0.063l-3.237,3.228c0.046,0.146,0.064,0.309,0.064,0.473
	c0,1-0.819,1.818-1.818,1.818c-1,0-1.818-0.818-1.818-1.818c0-0.164,0.018-0.326,0.063-0.473l-2.318-2.318
	c-0.146,0.045-0.309,0.063-0.473,0.063c-0.164,0-0.327-0.018-0.473-0.063l-4.136,4.146c0.045,0.145,0.063,0.299,0.063,0.463
	c0,1-0.818,1.818-1.818,1.818c-1,0-1.818-0.818-1.818-1.818s0.818-1.818,1.818-1.818c0.164,0,0.318,0.018,0.463,0.064l4.146-4.137
	C8.382,9.6,8.364,9.437,8.364,9.272c0-1,0.818-1.818,1.818-1.818c1,0,1.818,0.818,1.818,1.818c0,0.164-0.018,0.327-0.063,0.473
	l2.318,2.318C14.4,12.018,14.563,12,14.728,12c0.163,0,0.326,0.018,0.472,0.063l3.229-3.236c-0.046-0.146-0.064-0.3-0.064-0.463
	c0-1,0.819-1.818,1.818-1.818C21.182,6.545,22,7.363,22,8.364z"/>
</svg>
