<svg version="1.1" id="master" xmlns="http://www.w3.org/2000/svg" xmlns:xlink="http://www.w3.org/1999/xlink" x="0px" y="0px"
	 width="24px" height="24px" viewBox="0 0 24 24" enable-background="new 0 0 24 24" xml:space="preserve">
<path d="M14.857,2H9.143v1.905h5.714V2z M11.048,14.381h1.904V8.667h-1.904V14.381z M18.694,8.086l1.354-1.353
	c-0.41-0.486-0.857-0.943-1.343-1.343l-1.353,1.352C15.877,5.562,14.02,4.857,12,4.857c-4.733,0-8.571,3.838-8.571,8.572
	C3.429,18.162,7.257,22,12,22c4.743,0,8.571-3.838,8.571-8.571C20.571,11.409,19.866,9.553,18.694,8.086z M12,20.096
	c-3.686,0-6.667-2.981-6.667-6.667c0-3.686,2.981-6.667,6.667-6.667s6.667,2.981,6.667,6.667C18.667,17.114,15.686,20.096,12,20.096
	z"/>
</svg>
