<svg version="1.1" id="master" xmlns="http://www.w3.org/2000/svg" xmlns:xlink="http://www.w3.org/1999/xlink" x="0px" y="0px"
	 width="24px" height="24px" viewBox="0 0 24 24" enable-background="new 0 0 24 24" xml:space="preserve">
<path d="M16.24,7.76C15.07,6.59,13.54,6,12,6v6l-4.24,4.24c2.34,2.34,6.141,2.34,8.49,0C18.59,13.9,18.59,10.1,16.24,7.76z M12,2
	C6.48,2,2,6.48,2,12c0,5.52,4.48,10,10,10c5.52,0,10-4.48,10-10C22,6.48,17.52,2,12,2z M12,20c-4.42,0-8-3.58-8-8s3.58-8,8-8
	s8,3.58,8,8S16.42,20,12,20z"/>
</svg>
