<svg version="1.1" id="master" xmlns="http://www.w3.org/2000/svg" xmlns:xlink="http://www.w3.org/1999/xlink" x="0px" y="0px"
	 width="24px" height="24px" viewBox="0 0 24 24" enable-background="new 0 0 24 24" xml:space="preserve">
<rect fill="none" width="24" height="24"/>
<path d="M18.968,5.227l-1.29,1.292c-1.409-1.118-3.183-1.792-5.109-1.792c-1.664,0-3.209,0.5-4.5,1.346L9.395,7.4
	c0.928-0.536,2.019-0.854,3.173-0.854c3.519,0,6.363,2.845,6.363,6.364c0,1.154-0.317,2.246-0.854,3.173l1.317,1.317
	c0.854-1.282,1.354-2.826,1.354-4.49c0-1.927-0.673-3.7-1.792-5.1l1.292-1.291L18.968,5.227z M15.296,2H9.841v1.818h5.455V2z
	 M11.659,9.673l1.817,1.818V8.364h-1.817V9.673z M4.405,4.727L3.25,5.882l2.5,2.509c-0.864,1.292-1.364,2.846-1.364,4.519
	c0,4.519,3.655,8.182,8.182,8.182c1.673,0,3.227-0.5,4.527-1.363L19.368,22l1.154-1.154l-7.009-7.01L4.405,4.727z M12.568,19.272
	c-3.519,0-6.364-2.845-6.364-6.363c0-1.164,0.318-2.254,0.864-3.2l8.69,8.691C14.823,18.955,13.73,19.272,12.568,19.272z"/>
</svg>
