<svg version="1.1" id="master" xmlns="http://www.w3.org/2000/svg" xmlns:xlink="http://www.w3.org/1999/xlink" x="0px" y="0px"
	 width="24px" height="24px" viewBox="0 0 24 24" enable-background="new 0 0 24 24" xml:space="preserve">
<rect fill="none" width="24" height="24"/>
<path d="M6.445,3.111c-1.841,0-3.333,2.984-3.333,6.667v5.974c0,1.429-0.341,2.18-1.083,4.405c-0.12,0.36,0.148,0.731,0.527,0.731
	h9.754c0.478,0,0.903-0.306,1.054-0.76c0.445-1.335,0.857-2.514,0.857-4.377V9.778c0-2.903,0.822-5.331,2.1-6.667H6.445z
	 M5.333,10.889c-0.307,0-0.556-0.249-0.556-0.555c0-0.307,0.249-0.556,0.556-0.556c0.307,0,0.555,0.249,0.555,0.556
	C5.889,10.64,5.64,10.889,5.333,10.889z M7.556,10.889C7.249,10.889,7,10.64,7,10.333c0-0.307,0.249-0.556,0.556-0.556
	s0.556,0.249,0.556,0.556C8.111,10.64,7.863,10.889,7.556,10.889z M9.778,10.889c-0.307,0-0.556-0.249-0.556-0.555
	c0-0.307,0.249-0.556,0.556-0.556c0.307,0,0.556,0.249,0.556,0.556C10.333,10.64,10.084,10.889,9.778,10.889z M12,10.889
	c-0.307,0-0.556-0.249-0.556-0.555c0-0.307,0.249-0.556,0.556-0.556s0.555,0.249,0.555,0.556C12.555,10.64,12.307,10.889,12,10.889z
	 M18.667,3.111c-1.841,0-3.334,2.984-3.334,6.667s1.493,6.667,3.334,6.667S22,13.46,22,9.778S20.508,3.111,18.667,3.111z M18.667,12
	c-0.614,0-1.112-0.995-1.112-2.222c0-1.228,0.498-2.223,1.112-2.223c0.613,0,1.111,0.995,1.111,2.223
	C19.778,11.005,19.28,12,18.667,12z"/>
</svg>
