<svg version="1.1" id="master" xmlns="http://www.w3.org/2000/svg" xmlns:xlink="http://www.w3.org/1999/xlink" x="0px" y="0px"
	 width="24px" height="24px" viewBox="0 0 24 24" enable-background="new 0 0 24 24" xml:space="preserve">
<rect fill="none" width="24" height="24"/>
<path d="M18.875,3.875c0.344,0,0.625-0.281,0.625-0.625V2.625C19.5,2.281,19.219,2,18.875,2H5.125C4.781,2,4.5,2.281,4.5,2.625V3.25
	c0,0.344,0.281,0.625,0.625,0.625H5.75v6.121c-0.789,0.395-1.25,0.867-1.25,1.379c0,2.625,1.352,4.93,3.391,6.27l-0.836,2.742
	C6.809,21.188,7.41,22,8.25,22h7.5c0.84,0,1.441-0.813,1.195-1.613l-0.836-2.742c2.039-1.34,3.391-3.645,3.391-6.27
	c0-0.512-0.461-0.984-1.25-1.379V3.875H18.875z M7.625,4.813c0-0.172,0.141-0.313,0.313-0.313h1.875
	c0.172,0,0.313,0.141,0.313,0.313v0.625c0,0.172-0.141,0.313-0.313,0.313H7.938c-0.172,0-0.313-0.141-0.313-0.313V4.813z M12,12.625
	c-3.012,0-5.453-0.559-5.453-1.25s2.441-1.25,5.453-1.25s5.453,0.559,5.453,1.25S15.012,12.625,12,12.625z"/>
</svg>
