<svg version="1.1" id="master" xmlns="http://www.w3.org/2000/svg" xmlns:xlink="http://www.w3.org/1999/xlink" x="0px" y="0px"
	 width="24px" height="24px" viewBox="0 0 24 24" enable-background="new 0 0 24 24" xml:space="preserve">
<rect fill="none" width="24" height="24"/>
<path d="M14.896,14.866h2.354c-0.318,0.278-0.559,0.6-0.721,0.964s-0.243,0.755-0.243,1.172V22H6.292
	c0-0.02,0.021-0.121,0.064-0.303c0.043-0.183,0.098-0.402,0.164-0.661s0.138-0.542,0.214-0.849c0.076-0.309,0.15-0.602,0.224-0.88
	c0.072-0.278,0.136-0.523,0.188-0.735s0.09-0.354,0.109-0.428c0.629,0.192,1.259,0.289,1.888,0.289c0.616,0,1.211-0.083,1.783-0.249
	c0.573-0.165,1.106-0.403,1.6-0.716c0.494-0.311,0.942-0.686,1.347-1.122S14.618,15.416,14.896,14.866z M14.856,12.005H3.431
	c0,0.769,0.149,1.499,0.447,2.19c0.298,0.692,0.702,1.301,1.212,1.824c0.51,0.522,1.107,0.937,1.793,1.241s1.416,0.457,2.191,0.457
	h0.179c0.563,0,1.109-0.089,1.64-0.269c0.529-0.179,1.021-0.426,1.475-0.74c0.454-0.314,0.858-0.689,1.213-1.127
	s0.637-0.914,0.85-1.432h5.474c0.08,0,0.157-0.018,0.233-0.055c0.076-0.035,0.147-0.084,0.214-0.144s0.119-0.128,0.159-0.204
	s0.06-0.153,0.06-0.232V3.44h-5.713V12.005z M14.141,8.349c0-0.02-0.018-0.111-0.054-0.273C14.05,7.913,14,7.703,13.938,7.445
	c-0.063-0.258-0.134-0.55-0.214-0.875c-0.079-0.324-0.162-0.657-0.248-0.999s-0.173-0.679-0.259-1.013s-0.164-0.641-0.233-0.919
	c-0.069-0.278-0.131-0.515-0.184-0.71s-0.09-0.323-0.109-0.383c-0.053-0.172-0.136-0.306-0.248-0.402
	C12.329,2.048,12.181,2,11.995,2s-0.352,0.056-0.497,0.169s-0.219,0.265-0.219,0.457c0,0.046,0.004,0.08,0.011,0.099
	c0.032,0.153,0.069,0.305,0.108,0.457c0.04,0.153,0.08,0.305,0.12,0.457l1.708,6.935h-9.08c-0.199,0-0.368,0.07-0.507,0.208
	c-0.14,0.139-0.209,0.308-0.209,0.507h10.71V8.349z M20.36,2.233c-0.06-0.063-0.126-0.116-0.198-0.159
	C20.089,2.031,20.02,2.01,19.953,2.01h-4.48c-0.113,0-0.222,0.046-0.328,0.139c-0.105,0.093-0.179,0.189-0.219,0.288
	c-0.02,0.04-0.036,0.083-0.05,0.129c-0.013,0.046-0.02,0.099-0.02,0.159h5.713V2.646c0-0.066-0.02-0.136-0.06-0.209
	C20.47,2.364,20.42,2.296,20.36,2.233z"/>
</svg>
