<svg version="1.1" id="master" xmlns="http://www.w3.org/2000/svg" xmlns:xlink="http://www.w3.org/1999/xlink" x="0px" y="0px"
	 width="24px" height="24px" viewBox="0 0 24 24" enable-background="new 0 0 24 24" xml:space="preserve">
<rect fill="none" width="24" height="24"/>
<path d="M21.575,17.455l-4.574-4.574c-0.902-0.902-2.25-1.078-3.335-0.542L9.501,8.175V5.749l-5-3.75l-2.5,2.5l3.75,5h2.426
	l4.164,4.163c-0.531,1.086-0.359,2.434,0.544,3.336l4.574,4.574c0.569,0.57,1.491,0.57,2.058,0l2.059-2.059
	C22.142,18.943,22.142,18.021,21.575,17.455z M14.959,10.788c1.104,0,2.144,0.43,2.925,1.21l0.758,0.757
	c0.617-0.269,1.203-0.644,1.711-1.152c1.449-1.449,1.941-3.488,1.48-5.339c-0.086-0.352-0.527-0.472-0.785-0.215l-2.905,2.906
	l-2.653-0.441l-0.441-2.652l2.906-2.906c0.258-0.258,0.133-0.699-0.222-0.789c-1.853-0.457-3.891,0.035-5.336,1.48
	c-1.113,1.113-1.637,2.582-1.61,4.046l3.208,3.207C14.311,10.827,14.639,10.788,14.959,10.788z M10.9,13.99l-2.215-2.214
	l-5.953,5.956c-0.977,0.977-0.977,2.559,0,3.535s2.558,0.977,3.535,0l4.828-4.828C10.798,15.662,10.708,14.814,10.9,13.99z
	 M4.502,20.436c-0.516,0-0.938-0.422-0.938-0.938c0-0.52,0.418-0.938,0.938-0.938s0.937,0.418,0.937,0.938
	C5.439,20.014,5.021,20.436,4.502,20.436z"/>
</svg>
