<svg version="1.1" id="master" xmlns="http://www.w3.org/2000/svg" xmlns:xlink="http://www.w3.org/1999/xlink" x="0px" y="0px"
	 width="24px" height="24px" viewBox="0 0 24 24" enable-background="new 0 0 24 24" xml:space="preserve">
<rect fill="none" width="24" height="24"/>
<path d="M21.634,10.384l-1.768-1.768c-0.234-0.234-0.552-0.366-0.884-0.366H17V5.125c0-1.036-0.84-1.875-1.875-1.875h-6.25
	C7.839,3.25,7,4.089,7,5.125V8.25H5.018c-0.332,0-0.649,0.132-0.884,0.366l-1.768,1.768C2.132,10.618,2,10.937,2,11.268V14.5h5
	v-0.625c0-0.345,0.279-0.625,0.625-0.625h1.25c0.346,0,0.625,0.28,0.625,0.625V14.5h5v-0.625c0-0.345,0.28-0.625,0.625-0.625h1.25
	c0.345,0,0.625,0.28,0.625,0.625V14.5h5v-3.232C22,10.937,21.868,10.618,21.634,10.384z M14.5,8.25h-5v-2.5h5V8.25z M17,16.375
	C17,16.72,16.72,17,16.375,17h-1.25c-0.345,0-0.625-0.28-0.625-0.625V15.75h-5v0.625C9.5,16.72,9.221,17,8.875,17h-1.25
	C7.279,17,7,16.72,7,16.375V15.75H2v3.75c0,0.69,0.56,1.25,1.25,1.25h17.5c0.69,0,1.25-0.56,1.25-1.25v-3.75h-5V16.375z"/>
</svg>
