<svg version="1.1" id="master" xmlns="http://www.w3.org/2000/svg" xmlns:xlink="http://www.w3.org/1999/xlink" x="0px" y="0px"
	 width="24px" height="24px" viewBox="0 0 24 24" enable-background="new 0 0 24 24" xml:space="preserve">
<rect fill="none" width="24" height="24"/>
<path d="M20.593,5.76c-0.431-1.766-1.84-3.206-3.595-3.661c-1.256-0.327-2.461,0.199-3.481,0.95
	c-0.127,0.093-0.271,0.146-0.41,0.214l1.106,0.711c0.29,0.187,0.374,0.573,0.188,0.864c-0.174,0.271-0.558,0.385-0.864,0.188
	L9.611,2.502c-0.809-0.424-1.695-0.641-2.61-0.403C5.247,2.555,3.837,3.994,3.407,5.76c-0.396,1.626-0.017,3.157,0.84,4.313
	c0.913,1.233,1.276,2.682,1.417,4.194c0.172,1.841,0.403,3.677,0.818,5.48l0.305,1.326C6.911,21.616,7.392,22,7.946,22
	c0.545,0,1.021-0.373,1.154-0.905l1.346-5.406c0.178-0.716,0.819-1.218,1.553-1.218c0.735,0,1.375,0.503,1.554,1.218l1.346,5.406
	C15.031,21.627,15.508,22,16.053,22c0.554,0,1.034-0.384,1.159-0.926l0.304-1.326c0.415-1.803,0.646-3.64,0.819-5.48
	c0.141-1.513,0.504-2.961,1.417-4.194C20.609,8.917,20.989,7.386,20.593,5.76z"/>
</svg>
