<svg version="1.1" id="master" xmlns="http://www.w3.org/2000/svg" xmlns:xlink="http://www.w3.org/1999/xlink" x="0px" y="0px"
	 width="24px" height="24px" viewBox="0 0 24 24" enable-background="new 0 0 24 24" xml:space="preserve">
<rect fill="none" width="24" height="24"/>
<path d="M20.378,4.865c-0.246-0.571-0.581-1.068-1.004-1.491c-0.423-0.423-0.92-0.758-1.491-1.004S16.704,2,16.061,2h-0.617
	c-0.51,0-1.016,0.06-1.518,0.178c-0.501,0.119-0.978,0.292-1.43,0.518C12.42,2.73,12.339,2.78,12.252,2.843
	c-0.087,0.064-0.177,0.096-0.27,0.096c-0.377-0.197-0.72-0.356-1.03-0.478s-0.619-0.217-0.926-0.287
	C9.719,2.104,9.398,2.058,9.065,2.035C8.731,2.012,8.356,2,7.939,2C7.296,2,6.688,2.123,6.117,2.37S5.049,2.951,4.626,3.374
	c-0.423,0.423-0.758,0.92-1.004,1.491c-0.247,0.571-0.37,1.178-0.37,1.822v0.626c0,0.934,0.106,1.852,0.317,2.756
	c0.212,0.905,0.523,1.774,0.935,2.608v1.514c0,0.284,0.02,0.609,0.057,0.979c0.038,0.367,0.096,0.758,0.174,1.17
	c0.079,0.411,0.177,0.834,0.296,1.27c0.119,0.434,0.261,0.859,0.426,1.273c0.166,0.414,0.353,0.806,0.562,1.174
	s0.441,0.693,0.7,0.974c0.258,0.281,0.539,0.509,0.843,0.683c0.305,0.174,0.637,0.27,0.996,0.287h0.069
	c0.296,0,0.572-0.06,0.83-0.178c0.259-0.119,0.483-0.279,0.675-0.479c0.19-0.2,0.342-0.434,0.452-0.7
	c0.109-0.267,0.165-0.545,0.165-0.835v-2.695c0-0.18,0.03-0.352,0.091-0.514c0.062-0.162,0.146-0.307,0.257-0.435
	s0.242-0.229,0.396-0.304c0.153-0.076,0.323-0.113,0.509-0.113c0.018,0,0.039,0,0.065,0c0.025,0,0.048,0.003,0.065,0.008
	c0.348,0.07,0.621,0.224,0.821,0.461c0.2,0.238,0.3,0.537,0.3,0.896v2.695c0,0.313,0.056,0.6,0.165,0.861
	c0.11,0.261,0.262,0.486,0.452,0.678c0.191,0.191,0.418,0.344,0.679,0.457S15.09,21.982,15.392,22h0.069
	c0.122-0.012,0.236-0.024,0.344-0.039c0.106-0.015,0.219-0.045,0.334-0.092c0.383-0.145,0.732-0.385,1.048-0.721
	c0.316-0.337,0.599-0.729,0.849-1.174c0.249-0.447,0.466-0.932,0.651-1.453s0.338-1.042,0.457-1.561s0.209-1.019,0.27-1.5
	s0.091-0.904,0.091-1.27v-1.514c0.25-0.504,0.454-0.995,0.613-1.473c0.159-0.479,0.286-0.959,0.379-1.444
	c0.093-0.484,0.157-0.978,0.195-1.482c0.037-0.504,0.057-1.035,0.057-1.591C20.748,6.043,20.625,5.436,20.378,4.865z M15.878,5.561
	c-0.121,0.125-0.267,0.187-0.435,0.187s-0.321,0.013-0.461,0.039c-0.139,0.026-0.272,0.061-0.399,0.104
	c-0.128,0.043-0.254,0.095-0.379,0.152c-0.124,0.058-0.256,0.122-0.396,0.191L13.67,6.304c-0.261,0.127-0.533,0.223-0.817,0.287
	S12.284,6.687,12,6.687c-0.278,0-0.561-0.03-0.848-0.091s-0.556-0.155-0.805-0.283l-0.139-0.069c-0.14-0.07-0.271-0.135-0.396-0.196
	C9.688,5.987,9.563,5.935,9.435,5.891C9.308,5.848,9.173,5.813,9.03,5.787C8.889,5.761,8.733,5.748,8.565,5.748
	c-0.174,0-0.322-0.061-0.443-0.183C8,5.443,7.939,5.295,7.939,5.122c0-0.168,0.062-0.313,0.187-0.435s0.271-0.183,0.439-0.183
	c0.313,0,0.624,0.035,0.935,0.104c0.311,0.069,0.604,0.177,0.883,0.322l0.104,0.052c0.127,0.07,0.249,0.132,0.365,0.187
	c0.115,0.055,0.233,0.102,0.352,0.139c0.119,0.038,0.241,0.068,0.365,0.091c0.125,0.023,0.266,0.035,0.422,0.035
	c0.15,0,0.29-0.01,0.418-0.03c0.127-0.02,0.247-0.051,0.36-0.091s0.227-0.085,0.339-0.135c0.113-0.049,0.233-0.105,0.361-0.169
	l0.174-0.087c0.278-0.139,0.569-0.244,0.874-0.313c0.304-0.07,0.613-0.104,0.926-0.104c0.168,0,0.313,0.061,0.435,0.183
	C16,4.809,16.061,4.954,16.061,5.122C16.061,5.29,16,5.436,15.878,5.561z"/>
</svg>
