<svg version="1.1" id="master" xmlns="http://www.w3.org/2000/svg" xmlns:xlink="http://www.w3.org/1999/xlink" x="0px" y="0px"
	 width="24px" height="24px" viewBox="0 0 24 24" enable-background="new 0 0 24 24" xml:space="preserve">
<rect fill="none" width="24" height="24"/>
<path d="M16.647,12.167c-0.633-0.577-1.434-1.042-2.253-1.508c-0.372-0.205-1.509-1.098-1.117-2.365l-0.709-0.298
	c1.118-1.732,2.571-3.445,4.357-5.047c-1.434,0.484-2.7,1.23-3.648,2.552C13.835,4.328,14.748,3.173,15.754,2
	c-1.379,0.987-2.57,2.104-3.316,3.594l0.522-2.086c-0.745,1.34-1.267,2.7-1.472,4.059l-1.097-0.446L10.205,7.27
	c0.969,1.731,0.466,2.645-0.018,2.961c-0.968,0.652-2.365,1.49-3.074,2.216c-1.34,1.378-1.731,2.681-1.601,4.414
	c0.131,2.217,1.751,4.061,3.892,4.786C10.354,21.963,11.229,22,12.198,22c1.564,0,3.166-0.409,4.339-1.396
	c1.247-1.034,1.97-2.569,1.974-4.189C18.516,14.799,17.84,13.257,16.647,12.167L16.647,12.167z M13.687,19.561
	c-0.074,0.335-0.316,0.745-0.614,1.118c0.112-0.205,0.205-0.41,0.262-0.634c0.465-1.657,0.67-2.42,0.447-4.246
	c-0.038-0.187-0.112-0.781-0.393-1.434c-0.391-0.987-0.987-1.919-1.06-2.124c-0.131-0.317-0.317-1.658-0.336-2.57
	c0.019,0.781,0.074,2.216,0.279,2.774c0.056,0.187,0.595,1.024,0.988,2.049c0.26,0.707,0.316,1.36,0.371,1.545
	c0.187,0.839-0.037,2.254-0.334,3.595c-0.093,0.483-0.354,1.043-0.689,1.471c0.187-0.261,0.335-0.596,0.447-0.987
	c0.224-0.781,0.316-1.787,0.296-2.421c-0.017-0.371-0.185-1.172-0.465-1.898c-0.167-0.392-0.41-0.801-0.576-1.08
	c-0.187-0.279-0.187-0.894-0.261-1.602c0.018,0.764-0.057,1.154,0.13,1.694c0.111,0.315,0.521,0.764,0.633,1.191
	c0.167,0.578,0.335,1.211,0.317,1.603c0,0.446-0.019,1.267-0.225,2.16c-0.131,0.67-0.429,1.248-0.913,1.619
	c0.205-0.26,0.317-0.521,0.373-0.781c0.074-0.391,0.093-0.764,0.13-1.229c0.039-0.479,0.008-0.963-0.092-1.435
	c-0.149-0.67-0.391-1.34-0.503-1.807c0.019,0.522,0.224,1.174,0.317,1.863c0.074,0.503,0.037,1.005,0.018,1.451
	c-0.018,0.522-0.186,1.436-0.41,1.882c-0.224-0.093-0.298-0.225-0.448-0.409c-0.186-0.242-0.297-0.503-0.409-0.802
	c-0.105-0.246-0.186-0.501-0.242-0.763c-0.088-0.651,0.079-1.312,0.466-1.844c0.391-0.56,0.466-0.597,0.596-1.247
	c-0.186,0.576-0.316,0.632-0.726,1.117c-0.466,0.539-0.54,1.321-0.54,1.955c0,0.261,0.112,0.559,0.205,0.839
	c0.112,0.297,0.224,0.595,0.373,0.818c0.112,0.186,0.261,0.315,0.391,0.409c-0.484-0.13-0.986-0.315-1.303-0.577
	c-0.782-0.67-1.471-1.806-1.564-2.813c-0.074-0.817,0.67-2.011,1.731-2.606c0.895-0.521,1.099-1.099,1.285-2.049
	c-0.261,0.819-0.521,1.527-1.378,1.957c-1.229,0.67-1.862,1.75-1.806,2.793c0.093,1.321,0.614,2.235,1.676,2.962
	c0.243,0.166,0.578,0.334,0.932,0.466c-1.322-0.317-1.49-0.504-1.937-1.024c0-0.037-0.112-0.112-0.112-0.13
	c-0.596-0.671-1.341-1.825-1.602-2.887c-0.093-0.373-0.187-0.764-0.074-1.136c0.484-1.751,1.545-2.421,2.606-3.146
	c0.261-0.188,0.522-0.354,0.764-0.54c0.596-0.466,0.745-1.677,0.875-2.365c-0.242,0.838-0.502,1.882-0.968,2.216
	c-0.242,0.187-0.54,0.335-0.782,0.503c-1.099,0.745-2.198,1.453-2.7,3.259c-0.112,0.467-0.037,0.802,0.074,1.248
	c0.279,1.098,1.024,2.29,1.658,2.998l0.111,0.112c0.279,0.317,0.633,0.558,1.062,0.726c-0.374-0.088-0.737-0.219-1.08-0.391
	c-1.732-0.838-2.886-2.645-2.961-4.116c-0.149-2.997,1.285-3.872,2.626-4.972c0.745-0.614,1.787-0.912,2.383-2.011
	c0.111-0.242,0.187-0.763,0.038-1.322c-0.056-0.187-0.335-0.857-0.448-1.006l1.658,0.727c-0.037,0.782-0.056,1.415,0.093,1.993
	c0.167,0.633,0.987,1.545,1.322,2.607C14.32,14.887,14.153,17.513,13.687,19.561z"/>
</svg>
