<svg version="1.1" id="master" xmlns="http://www.w3.org/2000/svg" xmlns:xlink="http://www.w3.org/1999/xlink" x="0px" y="0px"
	 width="24px" height="24px" viewBox="0 0 24 24" enable-background="new 0 0 24 24" xml:space="preserve">
<path d="M16.705,3.25h-9.41C5.457,3.25,3.644,2.822,2,2v3.75C2,6.44,2.56,7,3.25,7H4.5v2.5H2.625C2.279,9.5,2,9.779,2,10.125v1.25
	C2,11.721,2.279,12,2.625,12H4.5v9.375C4.5,21.72,4.779,22,5.125,22h1.25C6.721,22,7,21.72,7,21.375V12h10v9.375
	C17,21.72,17.28,22,17.625,22h1.25c0.345,0,0.625-0.28,0.625-0.625V12h1.875C21.72,12,22,11.721,22,11.375v-1.25
	C22,9.779,21.72,9.5,21.375,9.5H19.5V7h1.25C21.44,7,22,6.44,22,5.75V2C20.356,2.822,18.543,3.25,16.705,3.25z M7,7h3.75v2.5H7V7z
	 M17,9.5h-3.75V7H17V9.5z"/>
</svg>
