<svg version="1.1" id="master" xmlns="http://www.w3.org/2000/svg" xmlns:xlink="http://www.w3.org/1999/xlink" x="0px" y="0px"
	 width="24px" height="24px" viewBox="0 0 24 24" enable-background="new 0 0 24 24" xml:space="preserve">
<path d="M18.5,14.5c-1.519,0-2.75,1.231-2.75,2.75c0,1.52,1.231,2.75,2.75,2.75c1.52,0,2.75-1.23,2.75-2.75
	C21.25,15.731,20.02,14.5,18.5,14.5z M18.5,18c-0.414,0-0.75-0.337-0.75-0.75c0-0.414,0.336-0.75,0.75-0.75
	c0.413,0,0.75,0.336,0.75,0.75C19.25,17.663,18.913,18,18.5,18z M21,9h-2V7.744c0-0.441,0.146-0.867,0.41-1.214
	c0.139-0.181,0.111-0.439-0.04-0.609l-0.676-0.755c-0.208-0.232-0.573-0.216-0.772,0.024C17.33,5.903,17,6.807,17,7.744V9h-3.198
	l-1.752-4.089C11.814,4.358,11.271,4,10.67,4H6.5C5.673,4,5,4.673,5,5.5v4.579c-0.27-0.21-0.655-0.202-0.903,0.046l-0.972,0.972
	c-0.269,0.269-0.269,0.704,0,0.973l0.158,0.158c-0.156,0.29-0.28,0.588-0.372,0.898H2.688C2.308,13.125,2,13.433,2,13.813v1.374
	c0,0.38,0.308,0.688,0.688,0.688h0.223c0.092,0.311,0.216,0.608,0.373,0.898l-0.159,0.158c-0.269,0.268-0.269,0.704,0,0.973
	l0.972,0.972c0.269,0.269,0.704,0.269,0.972,0l0.158-0.158c0.29,0.156,0.588,0.28,0.898,0.372v0.224c0,0.38,0.308,0.688,0.687,0.688
	h1.375c0.379,0,0.687-0.308,0.687-0.688V19.09c0.31-0.093,0.608-0.217,0.898-0.373l0.158,0.158c0.268,0.269,0.703,0.269,0.972,0
	l0.972-0.972c0.269-0.269,0.269-0.704,0-0.973l-0.158-0.158c0.156-0.289,0.28-0.588,0.373-0.897h0.224
	c0.379,0,0.688-0.308,0.688-0.688V15h2.518c0.684-0.905,1.759-1.499,2.982-1.499c0.582,0,1.127,0.143,1.618,0.381l1.589-1.588
	C21.895,12.106,22,11.852,22,11.586V10C22,9.448,21.553,9,21,9z M7.5,17C6.12,17,5,15.88,5,14.5S6.12,12,7.5,12
	c1.381,0,2.5,1.12,2.5,2.5S8.881,17,7.5,17z M8.188,9H7V6h3.34l1.286,3H8.188z"/>
</svg>
