<svg version="1.1" id="master" xmlns="http://www.w3.org/2000/svg" xmlns:xlink="http://www.w3.org/1999/xlink" x="0px" y="0px"
	 width="24px" height="24px" viewBox="0 0 24 24" enable-background="new 0 0 24 24" xml:space="preserve">
<rect fill="none" width="24" height="24"/>
<path d="M20.889,9.778h-3.333V8.511c1.912-0.5,3.333-2.222,3.333-4.289h-3.333V3.111C17.556,2.5,17.056,2,16.444,2H7.556
	C6.945,2,6.445,2.5,6.445,3.111v1.111H3.111c0,2.066,1.422,3.789,3.333,4.289v1.267H3.111c0,2.067,1.422,3.789,3.333,4.289v1.267
	H3.111c0,2.066,1.422,3.789,3.333,4.288v1.268C6.445,21.5,6.945,22,7.556,22h8.889c0.611,0,1.111-0.5,1.111-1.111v-1.268
	c1.912-0.499,3.333-2.222,3.333-4.288h-3.333v-1.267C19.468,13.566,20.889,11.845,20.889,9.778z M12,19.777
	c-1.233,0-2.222-1-2.222-2.222s0.989-2.223,2.222-2.223c1.222,0,2.223,1.001,2.223,2.223S13.232,19.777,12,19.777z M12,14.223
	c-1.233,0-2.222-1.001-2.222-2.223c0-1.222,0.989-2.222,2.222-2.222c1.222,0,2.223,1,2.223,2.222
	C14.223,13.222,13.232,14.223,12,14.223z M12,8.667c-1.233,0-2.222-1-2.222-2.222c0-1.233,0.989-2.222,2.222-2.222
	c1.222,0,2.223,0.989,2.223,2.222C14.223,7.667,13.232,8.667,12,8.667z"/>
</svg>
