<svg version="1.1" id="master" xmlns="http://www.w3.org/2000/svg" xmlns:xlink="http://www.w3.org/1999/xlink" x="0px" y="0px"
	 width="24px" height="24px" viewBox="0 0 24 24" enable-background="new 0 0 24 24" xml:space="preserve">
<rect fill="none" width="24" height="24"/>
<path d="M12,2C7.79,2,3.579,2.526,3.579,6.21v10c0,2.031,1.652,3.684,3.684,3.684l-1.579,1.579V22h2.347l2.105-2.105h3.968
	L16.211,22h2.105v-0.526l-1.579-1.579c2.031,0,3.684-1.652,3.684-3.684v-10C20.421,2.526,16.652,2,12,2z M7.263,17.789
	c-0.874,0-1.579-0.705-1.579-1.578c0-0.874,0.705-1.579,1.579-1.579c0.874,0,1.579,0.705,1.579,1.579
	C8.842,17.084,8.137,17.789,7.263,17.789z M10.948,10.421H5.685V6.21h5.263V10.421z M13.053,10.421V6.21h5.264v4.21H13.053z
	 M16.737,17.789c-0.874,0-1.579-0.705-1.579-1.578c0-0.874,0.705-1.579,1.579-1.579c0.873,0,1.579,0.705,1.579,1.579
	C18.316,17.084,17.61,17.789,16.737,17.789z"/>
</svg>
