<?xml version="1.0" encoding="utf-8"?>
<!-- Generator: Adobe Illustrator 16.0.0, SVG Export Plug-In . SVG Version: 6.00 Build 0)  -->
<!DOCTYPE svg PUBLIC "-//W3C//DTD SVG 1.1//EN" "http://www.w3.org/Graphics/SVG/1.1/DTD/svg11.dtd">
<svg version="1.1" id="master" xmlns="http://www.w3.org/2000/svg" xmlns:xlink="http://www.w3.org/1999/xlink" x="0px" y="0px"
	 width="24px" height="24px" viewBox="0 0 24 24" enable-background="new 0 0 24 24" xml:space="preserve">
<path d="M20.75,5.75v10c0,2.023-2.407,3.75-5.079,3.75l2.46,1.941C18.363,21.626,18.232,22,17.938,22H6.063
	c-0.296,0-0.426-0.374-0.194-0.559l2.46-1.941c-2.664,0-5.079-1.721-5.079-3.75v-10c0-2.071,2.5-3.75,5-3.75h7.5
	C18.289,2,20.75,3.679,20.75,5.75z M11.063,11.063V6.688c0-0.518-0.42-0.938-0.938-0.938H6.063c-0.518,0-0.938,0.42-0.938,0.938
	v4.375C5.125,11.58,5.545,12,6.063,12h4.063C10.643,12,11.063,11.58,11.063,11.063z M18.875,11.063V6.688
	c0-0.518-0.42-0.938-0.938-0.938h-4.063c-0.519,0-0.938,0.42-0.938,0.938v4.375c0,0.518,0.42,0.938,0.938,0.938h4.063
	C18.455,12,18.875,11.58,18.875,11.063z M17,13.25c-1.035,0-1.875,0.84-1.875,1.875S15.965,17,17,17s1.875-0.84,1.875-1.875
	S18.035,13.25,17,13.25z M7,13.25c-1.036,0-1.875,0.84-1.875,1.875S5.964,17,7,17s1.875-0.84,1.875-1.875S8.036,13.25,7,13.25z"/>
</svg>
