<svg version="1.1" id="master" xmlns="http://www.w3.org/2000/svg" xmlns:xlink="http://www.w3.org/1999/xlink" x="0px" y="0px"
	 width="24px" height="24px" viewBox="0 0 24 24" enable-background="new 0 0 24 24" xml:space="preserve">
<rect fill="none" width="24" height="24"/>
<path d="M19,16.939V8.5c0-2.79-2.609-3.4-6.01-3.49l0.76-1.51H17V2H7v1.5h4.75l-0.76,1.52C7.86,5.11,5,5.73,5,8.5v8.439
	c0,1.451,1.19,2.66,2.59,2.971L6,21.5V22h2.23l2-2H14l2,2h2v-0.5L16.5,20h-0.08C18.109,20,19,18.63,19,16.939z M12,18.5
	c-0.83,0-1.5-0.67-1.5-1.5s0.67-1.5,1.5-1.5s1.5,0.67,1.5,1.5S12.83,18.5,12,18.5z M17,14H7V9h10V14z"/>
</svg>
