<svg version="1.1" id="master" xmlns="http://www.w3.org/2000/svg" xmlns:xlink="http://www.w3.org/1999/xlink" x="0px" y="0px"
	 width="24px" height="24px" viewBox="0 0 24 24" enable-background="new 0 0 24 24" xml:space="preserve">
<path d="M12,4H5C3.34,4,2,5.34,2,7v8c0,1.66,1.34,3,3,3l-1,1v1h1l2-2.029L9,18v-5H4V5.98L13,6v2h2V7C15,5.34,13.66,4,12,4z M5,14
	c0.55,0,1,0.45,1,1s-0.45,1-1,1s-1-0.45-1-1S4.45,14,5,14z M20.57,9.66C20.43,9.26,20.05,9,19.6,9H12.41
	c-0.46,0-0.83,0.26-0.98,0.66L10,13.77l0.01,5.51C10.01,19.66,10.32,20,10.7,20h0.62C11.7,20,12,19.62,12,19.24V18h8v1.24
	c0,0.38,0.311,0.76,0.689,0.76h0.61c0.38,0,0.69-0.34,0.69-0.721L22,17.91V13.77L20.57,9.66z M12.41,10H19.6l1.03,3h-9.25L12.41,10z
	 M12,16c-0.55,0-1-0.45-1-1s0.45-1,1-1s1,0.45,1,1S12.55,16,12,16z M20,16c-0.55,0-1-0.45-1-1s0.45-1,1-1s1,0.45,1,1S20.55,16,20,16
	z"/>
</svg>
