<svg version="1.1" id="master" xmlns="http://www.w3.org/2000/svg" xmlns:xlink="http://www.w3.org/1999/xlink" x="0px" y="0px"
	 width="24px" height="24px" viewBox="0 0 24 24" enable-background="new 0 0 24 24" xml:space="preserve">
<rect fill="none" width="24" height="24"/>
<path d="M18.722,9.737V9.72c0.008-0.033,0.116-0.792-0.067-1.867c-0.007-0.05-0.043-0.093-0.092-0.108l-0.292-0.083
	c-0.065-2.258-0.999-3.333-1.024-3.357c0.833,1.333,0.825,2.924,0.808,3.299l-1.808-0.525h-0.032c-0.012-0.001-0.022-0.001-0.034,0
	h-0.024l-0.008,0.008l-0.025,0.017l-0.009,0.008l-0.125,0.117c0.048-1.292-0.238-2.576-0.833-3.724
	c0.025,0.05,0.666,1.941,0.441,4.058c-0.069,0.059-0.142,0.114-0.216,0.167c-0.036,0.025-0.058,0.065-0.059,0.108
	c-0.021,0.449-0.135,0.889-0.334,1.292c-1.484-0.102-2.972-0.102-4.457,0l-0.008-0.034c-0.188-0.391-0.296-0.816-0.317-1.25
	c0-0.05-0.017-0.083-0.058-0.117c-0.078-0.052-0.152-0.108-0.225-0.167c-0.216-2.116,0.425-4.008,0.442-4.058
	C9.773,4.654,9.49,5.937,9.54,7.229L9.415,7.112L9.407,7.104L9.382,7.087L9.357,7.079H9.324H9.29L7.474,7.596
	C7.432,6.442,7.711,5.3,8.282,4.296c-0.025,0.034-0.958,1.1-1.025,3.358L6.966,7.737C6.917,7.753,6.881,7.795,6.874,7.846
	C6.691,8.929,6.791,9.679,6.799,9.711v0.017L6.732,9.745c-0.277,0.083-0.545,0.195-0.8,0.333c0.133-0.05,0.267-0.083,0.417-0.125
	c0.698-0.162,1.409-0.268,2.124-0.316l0.85-0.067c1.149-0.066,2.291-0.083,3.44-0.083c1.435-0.005,2.869,0.045,4.3,0.149
	c0.713,0.064,1.423,0.17,2.124,0.316c0.142,0.034,0.275,0.075,0.417,0.125c-0.257-0.14-0.528-0.251-0.809-0.333l-0.074-0.017V9.737z
	 M9.298,9.246C8.546,9.339,7.801,9.478,7.066,9.662C7.049,9.537,6.982,8.878,7.124,7.979l2.049-0.583
	C9.14,8.018,9.202,8.642,9.357,9.246H9.298z M9.607,9.212V9.146C9.475,8.612,9.418,8.062,9.44,7.512
	c0.133,0.125,0.316,0.283,0.5,0.417c0.017,0.183,0.067,0.725,0.308,1.224L9.607,9.212z M15.922,9.146v0.066
	c-0.214-0.022-0.428-0.042-0.643-0.059c0.251-0.5,0.292-1.042,0.31-1.233c0.183-0.125,0.366-0.283,0.5-0.417
	C16.104,7.871,16.089,8.529,15.922,9.146z M18.463,9.662c-0.729-0.201-1.473-0.341-2.225-0.417h-0.075L16.18,9.22
	c0.148-0.596,0.205-1.211,0.167-1.825l2.049,0.583c0.09,0.556,0.109,1.122,0.059,1.683H18.463z M15.996,14.694
	c0.584-0.016,0.893-0.191,1.185-0.05c0-0.017-0.093-0.291-0.501-0.241c0.055-0.132,0.075-0.274,0.058-0.416
	c-0.058-0.676-0.44-1.209-0.873-1.2c-0.426,0.017-0.701,0.583-0.684,1.249C15.205,14.711,15.571,14.703,15.996,14.694z
	 M15.83,13.221c0.122,0,0.221,0.099,0.221,0.22c0,0.122-0.099,0.221-0.221,0.221s-0.221-0.099-0.221-0.221
	C15.609,13.319,15.708,13.221,15.83,13.221z M9.298,14.812h0.267c0.433,0,0.783,0.033,0.783-0.643
	c-0.008-0.665-0.308-1.216-0.733-1.216c-0.433,0-0.85,0.559-0.825,1.233c0.009,0.175,0.034,0.3,0.083,0.391
	c-0.383,0.102-0.483,0.334-0.491,0.342C8.615,14.794,8.882,14.812,9.298,14.812z M9.673,13.378c0.122-0.002,0.223,0.095,0.225,0.217
	s-0.095,0.223-0.216,0.225l0,0c-0.122,0.003-0.223-0.095-0.225-0.217C9.455,13.48,9.551,13.38,9.673,13.378z M21.945,9.045
	c-0.009-0.073-0.02-0.145-0.033-0.217l-0.05-0.225l-0.017-0.05l-0.042-0.033c-0.225-0.173-0.468-0.321-0.725-0.442
	c-0.208-0.091-0.416-0.183-0.633-0.258c-0.571-1.634-1.602-3.069-2.967-4.133c-2.783-2.138-6.656-2.138-9.439,0
	c-1.363,1.068-2.39,2.505-2.958,4.141L4.458,8.087c-0.25,0.125-0.5,0.258-0.733,0.441L3.683,8.562l-0.017,0.05
	C3.626,8.756,3.598,8.904,3.583,9.054c-0.062,0.434-0.067,0.873-0.017,1.308c0.062,0.51,0.193,1.009,0.392,1.483l0.05,0.108
	l0.033,0.05l0.033,0.059L4.1,12.103l0.05,0.025c0.044,0.023,0.088,0.045,0.133,0.067l0.133,0.058l0.067,0.033
	c-0.583,0.542-1.225,1.25-1.783,2.126L2,15.503l0.983-0.858C3,14.628,3.816,13.92,5.199,13.111l0.017,0.158
	c-0.083,0.042-0.524,0.267-0.649,0.376c-0.217,0.174-0.225,0.449-0.167,0.966c0.025,0.259,0.125,0.767,0.258,1.233
	c0.233,0.808,0.4,0.949,0.542,0.982c0.067,0.018,0.158,0.025,0.25,0.025c0.266,0,0.6-0.059,0.824-0.117
	c0.25,0.801,0.625,1.524,1.067,2.167c-0.025,0-0.042,0-0.067,0.017l-1.517-0.708l-0.666-0.293l0.392,0.609
	c0.033,0.042,0.7,1.083,1.25,1.791c0.565,0.848,1.523,1.35,2.541,1.333c0.167,0,0.333,0,0.5-0.024l0.917-0.109
	c1.819,0.685,3.853,0.478,5.498-0.558c0.55-0.126,1.167-0.275,1.467-0.358l0.167-0.042c0.425-0.1,1.133-0.267,1.508-1.016l1-1.941
	l0.3-0.542l-0.566,0.25c-0.033,0.009-0.75,0.324-1.116,0.517c-0.017,0-0.024,0.017-0.042,0.024c0.301-0.616,0.45-1.107,0.5-1.299
	c0.217,0.049,0.524,0.041,0.75,0.041c0.108,0,0.226-0.017,0.3-0.032c0.142-0.043,0.258-0.142,0.476-0.967
	c0.124-0.483,0.216-1.009,0.232-1.275c0.051-0.532,0.033-0.808-0.175-0.991c-0.108-0.083-0.417-0.25-0.583-0.333l0.008-0.059
	l0.125,0.025l0.15-0.542c0.14-0.063,0.281-0.122,0.424-0.175l0.134-0.058l0.134-0.067l0.05-0.025l0.024-0.042l0.043-0.058
	l0.024-0.05l0.05-0.108c0.098-0.2,0.176-0.41,0.233-0.625C22.003,10.507,22.051,9.77,21.945,9.045z M5.066,11.387
	c0.235-0.051,0.471-0.098,0.708-0.142c-0.216,0.142-0.417,0.3-0.625,0.458L5.066,11.387z M9.982,11.153
	c-0.3,0.208-0.633,0.475-0.958,0.8c-0.725,0.075-1.441,0.167-2.158,0.283C7.782,11.811,8.84,11.42,9.982,11.153z M8.641,12.37
	c-0.109,0.125-0.2,0.25-0.3,0.392L7.774,13.57l0.833-0.55c0,0,0.533-0.359,1.391-0.776c1.181-0.088,2.365-0.122,3.548-0.1
	c-0.166,0.133-0.341,0.266-0.524,0.375l-0.608,0.367c-0.383,0.05-0.716,0.142-0.733,0.149c-0.012,0-0.023,0.004-0.034,0.009
	c-0.029,0.02-0.05,0.05-0.059,0.083l-0.625,2.042l-3.316,0.741l-1.05-0.733l-0.3-2.467c0.591-0.107,1.383-0.233,2.333-0.333
	L8.641,12.37z M13.139,12.87c0.059-0.009,1.209-0.15,2.566-0.617c1.516,0.117,2.749,0.301,3.591,0.45l-0.3,2.1l-1.05,0.733
	l-3.315-0.375l-0.617-2.033c-0.013-0.044-0.047-0.078-0.091-0.092c-0.026-0.008-0.434-0.125-0.867-0.166H13.139z M14.738,10.92
	c-0.19,0.25-0.458,0.558-0.783,0.858c-0.997-0.028-1.994-0.016-2.99,0.033c1.239-0.517,2.541-0.861,3.874-1.024L14.738,10.92z
	 M5.308,16.46c-0.167-0.166-0.467-1.29-0.534-1.891c-0.05-0.483-0.017-0.592,0.034-0.633c0.058-0.051,0.275-0.167,0.458-0.275
	l0.25,2.05c0,0.033,0.025,0.075,0.058,0.092l0.517,0.366l0.067,0.208C5.941,16.436,5.508,16.503,5.308,16.46z M13.672,20.343
	l-0.316,0.043H13.13l0.192-0.425l0.357,0.382H13.672z M13.08,21.593c-0.556,0.032-1.113-0.029-1.649-0.184l0.117-0.017
	c0.05,0,1.024-0.133,1.467-0.783h0.149l0.208-0.008c0.166-0.017,0.325-0.042,0.483-0.074l0.05,0.049
	c0.333,0.334,0.75,0.517,1.192,0.551c-0.643,0.258-1.334,0.416-2.018,0.458V21.593z M19.154,16.278
	c-0.192,0.625-0.417,1.166-0.676,1.666h-0.182c-0.2,0-0.4-0.017-0.625-0.034l-1.192-0.124l-1.216-0.967l-0.051-0.042
	c-0.098-0.101-0.234-0.154-0.374-0.149c-0.167,0-0.425,0.066-1.05,0.249c0.324-0.241,0.333-0.549,0.333-0.549
	s-0.467,0.424-1.2,0.517c-0.74,0.099-1.315-0.351-1.315-0.351c0.025,0.075,0.059,0.25,0.225,0.399
	c-0.29-0.034-0.583-0.045-0.875-0.033c-0.45,0.025-1.083,0.717-1.542,1.408l-1.7,0.518c-0.75-1.025-1.116-2.083-1.149-2.192
	L6.524,16.47l0.191,0.132l0.467,0.334l0.167,0.109c0.017,0.016,0.042,0.024,0.075,0.024h0.033l4.333-0.976
	c0.058,0,0.092-0.041,0.108-0.083l0.616-2.05c0.188-0.026,0.379-0.026,0.566,0l0.634,2.108c0.017,0.05,0.067,0.083,0.125,0.092
	l0.292,0.033l4.074,0.466c0.033,0,0.065,0,0.1-0.024l0.408-0.283l0.375-0.267l0.142-0.1L19.154,16.278z M18.188,16.377l-4.232-0.482
	l-0.633-2.092c-0.015-0.05-0.057-0.089-0.108-0.1c-0.138-0.023-0.276-0.038-0.417-0.042c-0.116,0-0.249,0.017-0.416,0.042
	c-0.049,0.014-0.087,0.051-0.1,0.1l-0.625,2.042l-4.199,0.933l-1.666-1.166l-0.333-2.649l0.217-0.125l0.35-0.067l0.308,2.5
	c0,0.042,0.025,0.083,0.059,0.1l1.149,0.8c0.017,0.017,0.05,0.025,0.075,0.025h0.033l3.458-0.767l0.034-0.017
	c0.032-0.018,0.057-0.048,0.066-0.083l0.625-2.05c0.167-0.042,0.583-0.142,0.966-0.142c0.376,0,0.8,0.1,0.976,0.142l0.616,2.05
	c0.018,0.059,0.066,0.091,0.116,0.1l3.458,0.392c0.033,0,0.066,0,0.1-0.024l1.143-0.801c0.03-0.021,0.052-0.054,0.059-0.091
	l0.307-2.149l0.575,0.125l-0.341,2.366l-1.625,1.132H18.188z M20.746,13.628c0.05,0.042,0.083,0.15,0.041,0.658
	c-0.051,0.647-0.212,1.281-0.475,1.875c-0.176,0.033-0.55,0-0.775-0.059l0.084-0.392l0.392-0.275
	c0.031-0.02,0.053-0.054,0.058-0.092l0.283-1.949L20.746,13.628z M20.271,12.52c-0.607-0.133-1.941-0.4-3.766-0.583
	c0.6-0.25,1.208-0.567,1.749-0.958c1.084,0.15,1.883,0.317,2.316,0.417L20.271,12.52z M21.546,10.304
	c-0.064,0.465-0.186,0.921-0.359,1.358l-0.041,0.083l-0.017,0.033l-0.058,0.033l-0.126,0.05L20.82,11.92l0.217-0.809
	c-0.438-0.108-0.881-0.203-1.325-0.283l0.083-0.017c0.249-0.063,0.488-0.152,0.718-0.267c0.075-0.041,0.143-0.095,0.199-0.158
	c-0.8,0.267-2.466,0.142-3.94,0c-1.347-0.149-2.702-0.23-4.058-0.242c-1.366,0-2.715,0.1-4.065,0.233
	c-1.475,0.158-3.133,0.275-3.941,0.008c0.058,0.066,0.133,0.117,0.208,0.158l0.225,0.117c0.216,0.084,0.439,0.148,0.667,0.191
	c-0.725,0.134-1.15,0.25-1.2,0.258l0.225,0.85l-0.017,0.017L4.583,11.87l-0.125-0.059l-0.059-0.033l-0.017-0.033l-0.042-0.083
	c-0.191-0.431-0.312-0.89-0.358-1.358C3.918,9.786,3.92,9.262,3.992,8.746c0.183-0.15,0.383-0.284,0.591-0.417
	c0.593-0.322,1.208-0.6,1.841-0.833l0.391-0.133C6.369,7.433,5.929,7.539,5.5,7.679C6.604,4.6,9.494,2.522,12.764,2.455
	c3.167,0,6.057,2.058,7.266,5.224c-0.43-0.134-0.865-0.24-1.308-0.316c0.511,0.181,1.014,0.384,1.507,0.608
	c0.242,0.108,0.483,0.233,0.709,0.366c0.217,0.117,0.417,0.25,0.6,0.409l0.025,0.142l0.017,0.2
	C21.608,9.492,21.599,9.9,21.546,10.304L21.546,10.304z M11.881,5.679h-1.2v-1.7h4.248v1.7h-1.207v-0.5h-0.275v2.3h0.417v1.283
	h-2.116V7.479h0.417v-2.3H11.89v0.5H11.881z"/>
</svg>
