<svg version="1.1" id="master" xmlns="http://www.w3.org/2000/svg" xmlns:xlink="http://www.w3.org/1999/xlink"
	 x="0px" y="0px" width="24px" height="24px" viewBox="0 0 24 24" enable-background="new 0 0 24 24" xml:space="preserve">
<path d="M19.277,16.785l-3.12-3.535h1.196c0.352,0,0.664-0.195,0.812-0.511c0.148-0.313,0.1-0.673-0.128-0.938l-3.052-3.55h1.128
	c0.356,0,0.677-0.209,0.815-0.532c0.137-0.317,0.073-0.687-0.166-0.94l-4.307-4.589c-0.236-0.252-0.675-0.252-0.911,0L7.237,6.778
	c-0.238,0.253-0.303,0.623-0.166,0.94C7.21,8.042,7.531,8.25,7.886,8.25h1.129l-3.053,3.551c-0.227,0.265-0.276,0.625-0.127,0.939
	c0.148,0.314,0.459,0.51,0.812,0.51h1.197l-3.121,3.535c-0.234,0.266-0.287,0.628-0.139,0.947c0.146,0.314,0.469,0.518,0.821,0.518
	h5.346v0.955l-1.183,1.891C9.359,21.512,9.661,22,10.126,22h3.748c0.465,0,0.768-0.488,0.56-0.904l-1.184-1.891V18.25h5.347
	c0.352,0,0.674-0.203,0.82-0.518C19.565,17.413,19.512,17.051,19.277,16.785z"/>
</svg>
