<svg version="1.1" id="master" xmlns="http://www.w3.org/2000/svg" xmlns:xlink="http://www.w3.org/1999/xlink" x="0px" y="0px"
	 width="24px" height="24px" viewBox="0 0 24 24" enable-background="new 0 0 24 24" xml:space="preserve">
<rect fill="none" width="24" height="24"/>
<path d="M19.5,2h-15C3.119,2,2,3.119,2,4.5v15C2,20.88,3.119,22,4.5,22h15c1.38,0,2.5-1.12,2.5-2.5v-15C22,3.119,20.88,2,19.5,2z
	 M10.7,17.149c0,0.663-0.538,1.2-1.2,1.2H5.8c-0.662,0-1.2-0.537-1.2-1.2V5.8c0-0.662,0.538-1.2,1.2-1.2h3.7
	c0.663,0,1.2,0.538,1.2,1.2V17.149z M19.4,12.15c0,0.662-0.538,1.199-1.201,1.199H14.5c-0.662,0-1.199-0.537-1.199-1.199V5.8
	c0-0.662,0.537-1.2,1.199-1.2h3.699c0.663,0,1.201,0.538,1.201,1.2V12.15z"/>
</svg>
