<svg version="1.1" id="master" xmlns="http://www.w3.org/2000/svg" xmlns:xlink="http://www.w3.org/1999/xlink" x="0px" y="0px"
	 width="24px" height="24px" viewBox="0 0 24 24" enable-background="new 0 0 24 24" xml:space="preserve">
<rect fill="none" width="24" height="24"/>
<path d="M19.272,8.363h-2.727V4.727H3.818C2.818,4.727,2,5.545,2,6.545v10h1.818c0,1.51,1.218,2.729,2.727,2.729
	s2.728-1.219,2.728-2.729h5.455c0,1.51,1.218,2.729,2.727,2.729c1.51,0,2.728-1.219,2.728-2.729H22V12L19.272,8.363z M6.545,17.908
	c-0.754,0-1.364-0.607-1.364-1.363c0-0.754,0.609-1.363,1.364-1.363c0.755,0,1.364,0.609,1.364,1.363
	C7.909,17.301,7.3,17.908,6.545,17.908z M18.818,9.727L20.6,12h-4.054V9.727H18.818z M17.454,17.908
	c-0.754,0-1.363-0.607-1.363-1.363c0-0.754,0.609-1.363,1.363-1.363c0.755,0,1.364,0.609,1.364,1.363
	C18.818,17.301,18.209,17.908,17.454,17.908z"/>
</svg>
