<svg version="1.1" id="icon_truck" xmlns="http://www.w3.org/2000/svg" xmlns:xlink="http://www.w3.org/1999/xlink" x="0px" y="0px"
	 width="24px" height="24px" viewBox="0 0 24 24" enable-background="new 0 0 24 24" xml:space="preserve">
<path d="M21.416,11.416l-1.828-1.828c-0.376-0.375-0.885-0.584-1.416-0.584H17V6c0-0.553-0.447-1-1-1H3C2.447,5,2,5.447,2,6v10.5
	C2,17.882,3.119,19,4.5,19c0.822,0,1.544-0.403,2-1.012C6.956,18.6,7.678,19,8.5,19c1.381,0,2.5-1.118,2.5-2.5
	c0-0.172-0.019-0.337-0.05-0.5h5.1C16.016,16.163,16,16.328,16,16.5c0,1.382,1.119,2.5,2.5,2.5s2.5-1.118,2.5-2.5
	c0-0.172-0.019-0.337-0.05-0.5h0.55c0.275,0,0.5-0.226,0.5-0.5v-2.672C22,12.297,21.79,11.791,21.416,11.416z M4.5,17.5
	c-0.55,0-1-0.449-1-1c0-0.55,0.45-1,1-1s1,0.45,1,1C5.5,17.051,5.05,17.5,4.5,17.5z M8.5,17.5c-0.55,0-1-0.449-1-1
	c0-0.55,0.45-1,1-1s1,0.45,1,1C9.5,17.051,9.05,17.5,8.5,17.5z M17,10.5h1.172c0.135,0,0.259,0.053,0.354,0.147L19.878,12H17V10.5z
	 M18.5,17.5c-0.55,0-1-0.449-1-1c0-0.55,0.45-1,1-1s1,0.45,1,1C19.5,17.051,19.05,17.5,18.5,17.5z"/>
</svg>
