<?xml version="1.0" encoding="utf-8"?>
<!-- Generator: Adobe Illustrator 16.0.0, SVG Export Plug-In . SVG Version: 6.00 Build 0)  -->
<!DOCTYPE svg PUBLIC "-//W3C//DTD SVG 1.1//EN" "http://www.w3.org/Graphics/SVG/1.1/DTD/svg11.dtd">
<svg version="1.1" id="master" xmlns="http://www.w3.org/2000/svg" xmlns:xlink="http://www.w3.org/1999/xlink" x="0px" y="0px"
	 width="24px" height="24px" viewBox="0 0 24 24" enable-background="new 0 0 24 24" xml:space="preserve">
<path d="M21.416,11.416l-1.827-1.828c-0.376-0.375-0.884-0.584-1.414-0.584h-1.174V6c0-0.554-0.446-1-1-1h-13C2.448,5,2,5.447,2,6
	v10.5C2,17.881,3.118,19,4.5,19c0.822,0,1.545-0.403,2-1.012C6.957,18.599,7.679,19,8.5,19c1.382,0,2.5-1.119,2.5-2.5
	c0-0.172-0.018-0.338-0.049-0.501h5.099c-0.034,0.162-0.051,0.329-0.051,0.501c0,1.381,1.12,2.5,2.5,2.5c1.382,0,2.5-1.119,2.5-2.5
	c0-0.172-0.018-0.338-0.05-0.501h0.549c0.274,0,0.502-0.227,0.502-0.501v-2.671C22.001,12.296,21.791,11.791,21.416,11.416z
	 M4.5,17.5c-0.55,0-1-0.449-1-1c0-0.548,0.45-0.998,1-0.998s1,0.45,1,0.998C5.501,17.051,5.051,17.5,4.5,17.5z M8.5,17.5
	c-0.549,0-1-0.449-1-1c0-0.548,0.451-0.998,1-0.998c0.55,0,1,0.45,1,0.998C9.5,17.051,9.05,17.5,8.5,17.5z M17.001,10.5h1.172
	c0.133,0,0.259,0.053,0.353,0.146L19.878,12h-2.877V10.5z M18.501,17.5c-0.55,0-1.001-0.449-1.001-1
	c0-0.548,0.451-0.998,1.001-0.998c0.551,0,1,0.449,1,0.998C19.501,17.051,19.052,17.5,18.501,17.5z"/>
</svg>
