<svg version="1.1" id="master" xmlns="http://www.w3.org/2000/svg" xmlns:xlink="http://www.w3.org/1999/xlink"
	 x="0px" y="0px" width="24px" height="24px" viewBox="0 0 24 24" enable-background="new 0 0 24 24" xml:space="preserve">
<path d="M21.725,7.016l-6.083-3.015c-0.629,0.869-2.02,1.475-3.641,1.475c-1.622,0-3.013-0.606-3.64-1.475L2.277,7.016
	C2.03,7.141,1.93,7.441,2.052,7.688l1.787,3.578c0.125,0.247,0.425,0.347,0.672,0.225l1.769-0.866
	c0.331-0.163,0.718,0.078,0.718,0.45v7.924c0,0.554,0.447,1,1,1h8c0.552,0,0.999-0.446,0.999-1v-7.927
	c0-0.369,0.387-0.612,0.719-0.45l1.769,0.865c0.247,0.125,0.547,0.025,0.671-0.225l1.791-3.575
	C22.071,7.441,21.972,7.138,21.725,7.016z"/>
</svg>
