<svg version="1.1" id="master" xmlns="http://www.w3.org/2000/svg" xmlns:xlink="http://www.w3.org/1999/xlink" x="0px" y="0px"
	 width="24px" height="24px" viewBox="0 0 24 24" enable-background="new 0 0 24 24" xml:space="preserve">
<path d="M20.638,6.613c-0.25-0.044-0.506-0.029-0.749,0.043c0.246-0.325,0.361-0.729,0.321-1.135
	c-0.063-0.649-0.508-1.233-1.128-1.437c-0.87-0.289-1.81,0.183-2.098,1.053c-0.025,0.076-0.045,0.153-0.06,0.232
	c-0.039,0.216-0.034,0.438,0.015,0.652c0.109,0.49-0.043,1-0.455,1.287C16,7.645,15.727,7.86,14.981,8.185
	C13.781,7.458,12.432,7,11,7c-4.971,0-9,5.41-9,9s4.029,4,9,4s9-0.41,9-4c0-1.563-0.767-3.467-2.039-5.122
	c-0.892,0.738-1.554,1.716-1.905,2.818c-0.596,1.817-2.13,3.104-3.907,3.279C11.982,16.992,11.818,17,11.658,17
	c-1.542,0-2.932-0.719-3.811-1.969c-0.366-0.521-0.62-1.112-0.746-1.737c-0.025-0.135,0.065-0.266,0.202-0.29
	C7.318,13.001,7.334,12.999,7.35,13h0.513c0.117,0.001,0.216,0.082,0.241,0.196C8.476,14.765,9.864,16,11.658,16
	c0.129,0,0.26-0.007,0.393-0.019c1.432-0.142,2.604-1.221,3.054-2.597c0.647-1.977,1.972-3.163,2.833-3.762
	c0.461-0.321,1.046-0.261,1.519,0.042c0.281,0.18,0.612,0.27,0.945,0.258c0.654-0.018,1.255-0.449,1.485-1.061
	C22.269,7.853,21.642,6.797,20.638,6.613z"/>
</svg>
