<svg version="1.1" id="master" xmlns="http://www.w3.org/2000/svg" xmlns:xlink="http://www.w3.org/1999/xlink"
	 x="0px" y="0px" width="24px" height="24px" viewBox="0 0 24 24" enable-background="new 0 0 24 24" xml:space="preserve">
<path d="M4.37,12h9.706c0.817,0,1.423-0.688,1.219-1.391c-0.695-2.395-3.144-5.276-6.058-5.276H9.208
	c-2.914,0-5.362,2.881-6.057,5.276C2.947,11.313,3.552,12,4.37,12z M21.177,7.877L19.487,6.67c-1.221-0.604-2.795,0.055-3.015,1.4
	c-0.018,0.115-0.027,0.233-0.027,0.354v2.473c-0.002,0.482-0.16,0.944-0.462,1.334c-0.431,0.56-1.085,0.88-1.794,0.88H2.646
	C2.289,13.111,2,13.4,2,13.757c0,0.277,0.178,0.525,0.441,0.613l3.413,0.767l-1.557,2.696c-0.213,0.37,0.054,0.834,0.481,0.834
	h1.283c0.199,0,0.382-0.106,0.481-0.278l1.399-2.424c0.902,0.296,1.582,0.48,2.947,0.48c1.366,0,2.045-0.185,2.947-0.48l1.399,2.424
	c0.1,0.172,0.282,0.278,0.481,0.278H17c0.428,0,0.695-0.464,0.48-0.834l-1.64-2.838c0.739-0.293,1.401-0.757,1.903-1.408
	c0.489-0.635,0.781-1.368,0.879-2.142h1.411c1.085,0,1.966-0.88,1.966-1.967C22,8.842,21.693,8.246,21.177,7.877z M18.667,9.222
	c-0.308,0-0.556-0.249-0.556-0.556c0-0.307,0.248-0.555,0.556-0.555c0.307,0,0.555,0.249,0.555,0.555
	C19.222,8.974,18.974,9.222,18.667,9.222z"/>
</svg>
