<svg version="1.1" id="master" xmlns="http://www.w3.org/2000/svg" xmlns:xlink="http://www.w3.org/1999/xlink" x="0px" y="0px"
	 width="24px" height="24px" viewBox="0 0 24 24" enable-background="new 0 0 24 24" xml:space="preserve">
<path d="M19.943,7.927c0.014,0.178,0.014,0.355,0.014,0.533c0,5.419-4.124,11.662-11.663,11.662c-2.322,0-4.479-0.672-6.294-1.84
	c0.33,0.038,0.647,0.051,0.99,0.051c1.916,0,3.68-0.647,5.088-1.751c-1.802-0.039-3.312-1.219-3.833-2.844
	c0.254,0.039,0.508,0.063,0.774,0.063c0.368,0,0.736-0.05,1.079-0.139c-1.878-0.381-3.287-2.03-3.287-4.023v-0.05
	c0.546,0.305,1.18,0.495,1.853,0.521C3.561,9.373,2.837,8.117,2.837,6.695c0-0.762,0.203-1.459,0.559-2.068
	c2.018,2.487,5.05,4.112,8.452,4.289c-0.063-0.304-0.102-0.621-0.102-0.938c0-2.259,1.828-4.1,4.1-4.1
	c1.18,0,2.246,0.495,2.994,1.295c0.928-0.178,1.814-0.521,2.602-0.99c-0.303,0.952-0.951,1.751-1.801,2.259
	C20.465,6.354,21.266,6.125,22,5.807C21.441,6.619,20.743,7.343,19.943,7.927z"/>
</svg>
