<svg version="1.1" id="master" xmlns="http://www.w3.org/2000/svg" xmlns:xlink="http://www.w3.org/1999/xlink" x="0px" y="0px"
	 width="24px" height="24px" viewBox="0 0 24 24" enable-background="new 0 0 24 24" xml:space="preserve">
<path d="M2,12v10h20V2H2V12z M18.117,11.203c0.509,0.127,0.896,0.353,1.251,0.721c0.184,0.197,0.457,0.555,0.479,0.642
	c0.006,0.024-0.863,0.607-1.391,0.936c-0.019,0.012-0.096-0.07-0.18-0.196c-0.259-0.376-0.528-0.537-0.94-0.565
	c-0.607-0.042-0.997,0.275-0.993,0.806c-0.006,0.131,0.023,0.26,0.085,0.375c0.134,0.275,0.381,0.441,1.158,0.777
	c1.433,0.617,2.045,1.022,2.426,1.601c0.425,0.645,0.521,1.673,0.231,2.438c-0.316,0.832-1.104,1.396-2.212,1.584
	c-0.343,0.061-1.156,0.051-1.523-0.016c-0.805-0.143-1.565-0.539-2.036-1.061c-0.184-0.202-0.542-0.733-0.521-0.771
	c0.009-0.013,0.092-0.063,0.184-0.117c0.09-0.05,0.426-0.244,0.743-0.43l0.575-0.332l0.121,0.178
	c0.168,0.257,0.536,0.609,0.759,0.727c0.638,0.337,1.514,0.289,1.945-0.099c0.176-0.147,0.271-0.369,0.261-0.6
	c0-0.231-0.029-0.333-0.15-0.509c-0.154-0.221-0.472-0.408-1.373-0.799c-1.032-0.444-1.477-0.721-1.884-1.159
	c-0.254-0.289-0.44-0.63-0.548-1c-0.077-0.282-0.097-0.99-0.036-1.275c0.213-0.998,0.965-1.691,2.051-1.898
	C16.953,11.093,17.771,11.117,18.117,11.203z M13.423,12.038l0.006,0.819h-2.604v7.396H8.983v-7.396H6.381v-0.803
	c0-0.445,0.009-0.817,0.022-0.825c0.01-0.014,1.594-0.021,3.514-0.017l3.496,0.01L13.423,12.038z"/>
</svg>
