<svg version="1.1" id="master" xmlns="http://www.w3.org/2000/svg" xmlns:xlink="http://www.w3.org/1999/xlink" x="0px" y="0px"
	 width="24px" height="24px" viewBox="0 0 24 24" enable-background="new 0 0 24 24" xml:space="preserve">
<rect fill="none" width="24" height="24"/>
<path d="M11.977,2C6.841,2,2.54,5.89,2.026,11h6.949v-1.5c0-0.276,0.225-0.5,0.5-0.5h4.998c0.279,0,0.5,0.224,0.5,0.5v4.999
	c0,0.276-0.223,0.5-0.499,0.501H9.474c-0.276-0.001-0.499-0.225-0.499-0.501l0,0V13H2.027c0.553,5.495,5.455,9.501,10.949,8.949
	c5.496-0.554,9.501-5.454,8.947-10.95C21.41,5.891,17.11,2,11.977,2z"/>
</svg>
