<svg version="1.1" id="master" xmlns="http://www.w3.org/2000/svg" xmlns:xlink="http://www.w3.org/1999/xlink" x="0px" y="0px"
	 width="24px" height="24px" viewBox="0 0 24 24" enable-background="new 0 0 24 24" xml:space="preserve">
<path d="M21.635,11.991C21.418,1.747,7.795-2.075,2.546,7.528C2.782,7.7,3.097,7.925,3.333,8.088
	c-0.387,0.811-0.661,1.671-0.813,2.556c-0.101,0.57-0.153,1.147-0.153,1.726c0,5.311,4.318,9.63,9.639,9.63
	c5.322,0,9.63-4.31,9.63-9.63V11.991L21.635,11.991z M4.742,13.706c-0.126,1.039-0.045,1.364-0.045,1.49l-0.235,0.082
	c-0.09-0.172-0.308-0.776-0.407-1.59c-0.253-3.098,1.861-5.89,5.085-6.414c2.954-0.434,5.781,1.399,6.441,3.965l-0.236,0.082
	c-0.07-0.073-0.189-0.28-0.641-0.732C11.137,7.022,5.537,8.657,4.742,13.706L4.742,13.706z M13.91,15.44
	c-0.488,0.709-1.297,1.131-2.158,1.129c-1.45,0.002-2.627-1.172-2.629-2.622c0-0.002,0-0.005,0-0.007
	c0.002-1.377,1.066-2.518,2.439-2.619c0.849-0.036,1.645,0.425,2.014,1.165c0.408,0.816,0.256,1.801-0.379,2.457
	C13.441,15.115,13.676,15.277,13.91,15.44L13.91,15.44z M19.395,15.54c-1.391,3.152-4.254,4.805-7.308,4.761
	c-5.863-0.289-7.57-7.055-3.65-9.494l0.171,0.171c-0.063,0.09-0.298,0.271-0.659,0.985c-0.425,0.867-0.561,1.733-0.506,2.276
	c0.307,4.725,6.928,5.691,9.205,1.011c2.898-6.404-4.797-12.917-11.627-7.939L4.868,7.158c1.797-2.818,5.312-4.074,8.663-3.234
	c5.123,1.292,7.877,6.63,5.861,11.617L19.395,15.54z"/>
</svg>
