<svg version="1.1" id="master" xmlns="http://www.w3.org/2000/svg" xmlns:xlink="http://www.w3.org/1999/xlink" x="0px" y="0px"
	 width="24px" height="24px" viewBox="0 0 24 24" enable-background="new 0 0 24 24" xml:space="preserve">
<path d="M12,2c5.52,0,10,4.481,10,10c0,5.52-4.48,10-10,10C6.481,22,2,17.52,2,12C2,6.481,6.481,2,12,2z M14.732,16.733
	c-0.638,0.367-0.857,1.185-0.488,1.824c0.367,0.638,1.186,0.856,1.823,0.486c0.638-0.367,0.857-1.185,0.487-1.824
	C16.188,16.582,15.371,16.363,14.732,16.733L14.732,16.733z M12,15.899c-0.587,0-1.144-0.13-1.643-0.362L9.43,17.2
	c0.775,0.383,1.648,0.601,2.57,0.601c0.539,0,1.057-0.076,1.55-0.213c0.087-0.536,0.405-1.029,0.913-1.322s1.094-0.322,1.6-0.131
	c0.988-0.969,1.631-2.291,1.726-3.763l-1.904-0.027C15.709,14.337,14.038,15.899,12,15.899z M8.1,12
	c0-1.319,0.656-2.484,1.659-3.192L8.783,7.174c-1.17,0.775-2.038,1.974-2.401,3.362c0.422,0.336,0.692,0.862,0.692,1.45
	c0,0.587-0.27,1.1-0.692,1.449c0.363,1.389,1.231,2.587,2.401,3.361l0.975-1.637C8.756,14.476,8.1,13.312,8.1,12z M5.2,10.665
	c-0.737,0-1.335,0.598-1.335,1.335s0.598,1.335,1.335,1.335c0.738,0,1.334-0.598,1.334-1.335S5.938,10.665,5.2,10.665z M12,8.1
	c2.038,0,3.709,1.563,3.884,3.555l1.904-0.029c-0.095-1.47-0.737-2.791-1.726-3.763c-0.508,0.193-1.094,0.162-1.6-0.129
	c-0.508-0.293-0.825-0.787-0.913-1.326C13.055,6.275,12.539,6.2,12,6.2c-0.925,0-1.796,0.216-2.57,0.6l0.927,1.663
	C10.857,8.23,11.414,8.1,12,8.1z M14.732,7.266c0.638,0.368,1.455,0.151,1.824-0.487c0.367-0.638,0.15-1.455-0.49-1.825
	c-0.637-0.366-1.455-0.149-1.823,0.491C13.875,6.081,14.093,6.897,14.732,7.266z"/>
</svg>
