<svg version="1.1" id="master" xmlns="http://www.w3.org/2000/svg" xmlns:xlink="http://www.w3.org/1999/xlink" x="0px" y="0px"
	 width="24px" height="24px" viewBox="0 0 24 24" enable-background="new 0 0 24 24" xml:space="preserve">
<rect fill="none" width="24" height="24"/>
<path d="M21.99,12.863c-0.993-4.733-4.806-7.577-8.879-8.018V4.224c0-0.615-0.497-1.111-1.111-1.111s-1.111,0.497-1.111,1.111v0.622
	C6.802,5.287,3.024,8.13,2.01,12.863c-0.077,0.352,0.295,0.74,0.649,0.395c1.806-1.908,3.74-1.818,5.507,1.285
	c0.184,0.33,0.518,0.299,0.684,0c0.701-1.229,1.559-2.541,3.149-2.541c2.031,0,3.063,2.389,3.149,2.541
	c0.166,0.299,0.5,0.33,0.684,0c1.771-3.107,3.72-3.173,5.508-1.285C21.698,13.605,22.066,13.215,21.99,12.863z M10.889,13.59v4.523
	c0,0.307-0.25,0.557-0.555,0.557c-0.271,0-0.458-0.186-0.525-0.371c-0.205-0.582-0.836-0.883-1.417-0.678
	c-0.58,0.203-0.882,0.84-0.677,1.416c0.389,1.107,1.444,1.85,2.618,1.85c1.531,0,2.778-1.246,2.778-2.777v-4.523
	c-0.316-0.275-0.688-0.473-1.111-0.473C11.573,13.117,11.222,13.279,10.889,13.59z"/>
</svg>
