<svg version="1.1" id="master" xmlns="http://www.w3.org/2000/svg" xmlns:xlink="http://www.w3.org/1999/xlink" x="0px" y="0px"
	 width="24px" height="24px" viewBox="0 0 24 24" enable-background="new 0 0 24 24" xml:space="preserve">
<rect fill="none" width="24" height="24"/>
<path d="M21.5,4.467L19.956,2.6C19.645,2.233,19.189,2,18.667,2H5.333C4.811,2,4.355,2.233,4.056,2.611L2.511,4.467
	C2.189,4.855,2,5.344,2,5.889v13.889C2,21,2.989,22,4.222,22h15.555C21,22,22,21,22,19.777V5.889C22,5.344,21.812,4.855,21.5,4.467z
	 M12,9.222l6.111,6.111h-3.889v2.223H9.778v-2.223H5.889L12,9.222z M4.355,4.222l0.911-1.111H18.6l1.034,1.111H4.355z"/>
</svg>
