<svg version="1.1" id="master" xmlns="http://www.w3.org/2000/svg" xmlns:xlink="http://www.w3.org/1999/xlink" x="0px" y="0px"
	 width="24px" height="24px" viewBox="0 0 24 24" enable-background="new 0 0 24 24" xml:space="preserve">
<rect fill="none" width="24" height="24"/>
<path d="M18.584,18L15,12l3.584-6l1.749,6L18.584,18z M10.667,17.417L6.167,13h7.167l3.584,6L10.667,17.417z M10.667,6.5l6.25-1.583
	l-3.584,6h-7.25C6.083,11,10.667,6.5,10.667,6.5z M19.834,2l-8.167,2.083l-1.25,2.083H8L2,12l6,5.833h2.417l1.167,2.084L19.75,22
	l2.167-7.917L20.75,12L22,9.917L19.834,2z"/>
</svg>
