<svg version="1.1" id="master" xmlns="http://www.w3.org/2000/svg" xmlns:xlink="http://www.w3.org/1999/xlink" x="0px" y="0px"
	 width="24px" height="24px" viewBox="0 0 24 24" enable-background="new 0 0 24 24" xml:space="preserve">
<path d="M22,6.667v0.667c0,0.184-0.149,0.333-0.333,0.333h-1v0.5c0,0.276-0.225,0.5-0.5,0.5H3.833c-0.276,0-0.5-0.224-0.5-0.5v-0.5
	h-1C2.149,7.667,2,7.518,2,7.333V6.667C2,6.532,2.081,6.41,2.206,6.358l9.667-3.667c0.082-0.034,0.173-0.034,0.255,0l9.667,3.667
	C21.918,6.41,22,6.532,22,6.667z M21,19.333H3c-0.552,0-1,0.448-1,1V21c0,0.184,0.149,0.333,0.333,0.333h19.333
	C21.851,21.333,22,21.184,22,21v-0.667C22,19.781,21.552,19.333,21,19.333z M5.333,9.333v8h-1.5c-0.276,0-0.5,0.225-0.5,0.5v0.834
	h17.333v-0.834c0-0.275-0.225-0.5-0.5-0.5h-1.5v-8H16v8h-2.667v-8h-2.667v8H8v-8H5.333z"/>
</svg>
