<svg version="1.1" id="master" xmlns="http://www.w3.org/2000/svg" xmlns:xlink="http://www.w3.org/1999/xlink" x="0px" y="0px"
	 width="24px" height="24px" viewBox="0 0 24 24" enable-background="new 0 0 24 24" xml:space="preserve">
<rect fill="none" width="24" height="24"/>
<path d="M16.705,3.111c-2.916,0.01-5.261,2.413-5.261,5.33v2.448H3.667C2.747,10.889,2,11.635,2,12.555v6.667
	c0,0.921,0.747,1.667,1.667,1.667h12.222c0.921,0,1.666-0.746,1.666-1.667v-6.667c0-0.919-0.745-1.666-1.666-1.666h-1.667V8.42
	c0-1.375,1.101-2.517,2.477-2.531c1.389-0.014,2.523,1.115,2.523,2.5v2.778c0,0.462,0.372,0.833,0.833,0.833h1.112
	C21.629,12,22,11.628,22,11.167V8.389C22,5.472,19.622,3.101,16.705,3.111z"/>
</svg>
