<svg version="1.1" id="master" xmlns="http://www.w3.org/2000/svg" xmlns:xlink="http://www.w3.org/1999/xlink" x="0px" y="0px"
	 width="24px" height="24px" viewBox="0 0 24 24" enable-background="new 0 0 24 24" xml:space="preserve">
<path d="M12,2C6.522,2,2.084,6.478,2.084,12c0,5.523,4.438,10,9.916,10c5.477,0,9.916-4.477,9.916-10C21.916,6.478,17.477,2,12,2
	L12,2z M12,2.44c2.532,0,4.913,0.995,6.702,2.8c1.787,1.795,2.786,4.227,2.777,6.76c0,2.554-0.985,4.954-2.777,6.76
	c-1.767,1.796-4.182,2.805-6.701,2.801c-2.521,0.005-4.937-1.004-6.704-2.801C3.511,16.964,2.512,14.532,2.52,12
	c0-2.553,0.987-4.954,2.777-6.76C7.064,3.444,9.48,2.435,12,2.44L12,2.44z M11.504,5.959c-1.615,0.434-3.11,1.264-5.103,3.548
	c-1.993,2.285-1.615,4.172-1.615,4.172s0.55-1.299,1.873-2.667c0.626-0.647,1.095-0.864,1.415-0.865
	c0.274-0.016,0.51,0.194,0.525,0.469c0.001,0.011,0.001,0.022,0.001,0.033v4.639c0,0.459-0.295,0.558-0.566,0.552
	c-0.232-0.003-0.447-0.084-0.447-0.084c1.357,1.974,4.604,2.25,4.604,2.25l1.426-1.523l0.034,0.029l1.306,1.113
	c2.389-1.419,3.54-4.051,3.54-4.051c-1.064,1.128-1.744,1.392-2.148,1.391c-0.356-0.004-0.497-0.214-0.497-0.214
	c-0.02-0.098-0.052-1.508-0.064-2.92c-0.012-1.463-0.001-2.927,0.072-2.932c0.411-0.774,1.728-2.335,1.728-2.335
	C15.13,7.049,13.79,8.659,13.79,8.659C13.395,8.348,12.587,8.4,12.587,8.4c0.378,0.208,0.755,0.813,0.755,1.314v4.934
	c0,0-0.824,0.728-1.46,0.728c-0.375,0-0.607-0.205-0.733-0.375c-0.051-0.065-0.093-0.138-0.125-0.215V8.694
	c-0.088,0.064-0.194,0.1-0.303,0.103c-0.136,0-0.275-0.068-0.37-0.267c-0.071-0.149-0.117-0.375-0.117-0.701
	C10.233,6.703,11.504,5.959,11.504,5.959z"/>
</svg>
