<svg version="1.1" id="master" xmlns="http://www.w3.org/2000/svg" xmlns:xlink="http://www.w3.org/1999/xlink" x="0px" y="0px"
	 width="24px" height="24px" viewBox="0 0 24 24" enable-background="new 0 0 24 24" xml:space="preserve">
<path d="M21.999,9.911h-7.532l3.043-3.134c-3.032-3-7.943-3.111-10.977-0.11c-3.033,3.011-3.033,7.865,0,10.878
	c3.034,3.011,7.945,3.011,10.977,0c1.512-1.489,2.267-3.233,2.267-5.434h2.223c0,2.2-0.978,5.056-2.935,6.989
	c-3.899,3.866-10.232,3.866-14.131,0C1.044,15.244,1.01,8.978,4.911,5.122c3.9-3.855,10.155-3.855,14.054,0L21.999,2V9.911z
	 M12.555,7.556v4.722l3.889,2.311l-0.801,1.345l-4.754-2.822V7.556H12.555z"/>
</svg>
