<svg version="1.1" id="master" xmlns="http://www.w3.org/2000/svg" xmlns:xlink="http://www.w3.org/1999/xlink" x="0px" y="0px"
	 width="24px" height="24px" viewBox="0 0 24 24" enable-background="new 0 0 24 24" xml:space="preserve">
<path d="M12,6.545v2.728l3.637-3.637L12,2v2.727c-4.019,0-7.273,3.255-7.273,7.273c0,1.428,0.418,2.755,1.127,3.872l1.327-1.327
	C6.772,13.791,6.545,12.918,6.545,12C6.545,8.991,8.991,6.545,12,6.545z M18.145,8.127l-1.326,1.327
	c0.4,0.764,0.637,1.627,0.637,2.545c0,3.01-2.445,5.454-5.455,5.454v-2.727l-3.637,3.636L12,22v-2.728
	c4.018,0,7.273-3.254,7.273-7.272C19.273,10.573,18.854,9.245,18.145,8.127z"/>
</svg>
