<svg version="1.1" id="master" xmlns="http://www.w3.org/2000/svg" xmlns:xlink="http://www.w3.org/1999/xlink" x="0px" y="0px"
	 width="24px" height="24px" viewBox="0 0 24 24" enable-background="new 0 0 24 24" xml:space="preserve">
<path d="M14.925,7.66v3.774h0.943v1.886h-2.83V5.773h1.887L12.094,2l-2.83,3.773h1.887v7.547h-2.83v-1.952
	c0.661-0.349,1.132-1.019,1.132-1.821c0-1.141-0.934-2.075-2.076-2.075S5.302,8.406,5.302,9.547c0,0.802,0.472,1.472,1.132,1.821
	v1.952c0,1.047,0.84,1.887,1.887,1.887h2.83v2.878c-0.67,0.349-1.132,1.038-1.132,1.84c0,1.151,0.934,2.075,2.076,2.075
	c1.141,0,2.076-0.924,2.076-2.075c0-0.802-0.463-1.491-1.132-1.84v-2.878h2.83c1.046,0,1.887-0.84,1.887-1.887v-1.886h0.943V7.66
	H14.925z"/>
</svg>
