<svg version="1.1" id="master" xmlns="http://www.w3.org/2000/svg" xmlns:xlink="http://www.w3.org/1999/xlink" x="0px" y="0px"
	 width="24px" height="24px" viewBox="0 0 24 24" enable-background="new 0 0 24 24" xml:space="preserve">
<rect fill="none" width="24" height="24"/>
<path d="M11.5,2.001C9.895,2.023,6.443,2.287,4.513,4.056C3.079,5.481,2.578,7.582,2.52,10.184c-0.05,2.592-0.108,7.458,4.583,8.784
	v2.017c0,0-0.032,0.809,0.501,0.975c0.658,0.209,1.033-0.416,1.658-1.082l1.167-1.317c3.208,0.268,5.667-0.349,5.95-0.44
	c0.649-0.208,4.317-0.676,4.917-5.543c0.617-5.026-0.3-8.193-1.95-9.626l-0.008-0.002c-0.5-0.458-2.5-1.917-6.975-1.933
	C12.364,2.015,12.034,1.994,11.5,2.001L11.5,2.001z M11.555,3.416c0.454-0.003,0.733,0.017,0.733,0.017
	c3.783,0.008,5.593,1.15,6.018,1.533c1.392,1.191,2.106,4.047,1.583,8.243c-0.5,4.067-3.475,4.325-4.024,4.5
	c-0.233,0.075-2.4,0.608-5.127,0.434c0,0-2.033,2.451-2.666,3.084c-0.1,0.108-0.217,0.142-0.292,0.125
	c-0.108-0.024-0.142-0.158-0.134-0.342l0.017-3.349c-3.976-1.101-3.743-5.252-3.701-7.418c0.05-2.167,0.458-3.943,1.667-5.144
	C7.26,3.624,10.192,3.424,11.555,3.416L11.555,3.416z M11.855,5.583c-0.138,0-0.25,0.111-0.25,0.249v0c0,0.138,0.112,0.25,0.25,0.25
	l0,0c1.251-0.024,2.46,0.453,3.358,1.325c0.908,0.883,1.351,2.066,1.367,3.617c0,0.138,0.112,0.25,0.25,0.25v-0.008
	c0.139,0,0.25-0.112,0.25-0.25c0.063-1.473-0.482-2.907-1.508-3.966C14.581,6.083,13.33,5.583,11.855,5.583L11.855,5.583z
	 M8.56,6.157c-0.177-0.025-0.358,0.01-0.513,0.1h-0.01c-0.342,0.2-0.657,0.45-0.957,0.784C6.856,7.308,6.73,7.573,6.697,7.832
	c-0.02,0.152-0.005,0.306,0.042,0.451l0.017,0.008c0.257,0.755,0.592,1.481,1,2.167c0.529,0.96,1.179,1.848,1.934,2.642l0.025,0.034
	l0.033,0.024l0.025,0.025l0.025,0.024c0.797,0.757,1.688,1.409,2.65,1.942c1.1,0.6,1.769,0.883,2.168,1v0.008
	c0.117,0.033,0.224,0.05,0.332,0.05c0.342-0.024,0.665-0.163,0.918-0.393c0.325-0.292,0.584-0.615,0.775-0.957V14.85
	c0.191-0.357,0.125-0.7-0.15-0.934c-0.554-0.485-1.154-0.915-1.791-1.283c-0.426-0.233-0.858-0.092-1.033,0.142l-0.376,0.474
	c-0.191,0.233-0.541,0.2-0.541,0.2l-0.01,0.009c-2.601-0.667-3.292-3.299-3.292-3.299S9.414,9.799,9.655,9.616l0.466-0.375
	c0.225-0.183,0.383-0.617,0.142-1.042C9.895,7.562,9.465,6.961,8.98,6.408C8.875,6.276,8.726,6.188,8.56,6.157z M12.288,6.899
	c-0.138,0-0.25,0.113-0.249,0.251s0.113,0.25,0.251,0.249l0,0c0.834,0.015,1.628,0.359,2.208,0.958
	c0.529,0.583,0.799,1.356,0.75,2.142c0,0.138,0.112,0.25,0.25,0.25l0.009,0.01c0.138,0,0.25-0.112,0.25-0.25c0,0,0,0,0-0.001
	c0.024-0.992-0.284-1.825-0.893-2.492c-0.607-0.667-1.458-1.042-2.541-1.117C12.311,6.898,12.299,6.898,12.288,6.899L12.288,6.899z
	 M12.696,8.249c-0.141-0.004-0.258,0.106-0.262,0.247c-0.004,0.141,0.107,0.258,0.248,0.262l0,0
	c0.825,0.042,1.225,0.458,1.274,1.317c0.005,0.135,0.115,0.242,0.25,0.242h0.009c0.138-0.004,0.246-0.12,0.242-0.258
	c0-0.003,0-0.006-0.001-0.009c-0.058-1.117-0.666-1.743-1.75-1.801C12.703,8.248,12.699,8.248,12.696,8.249z"/>
</svg>
