<svg version="1.1" id="master" xmlns="http://www.w3.org/2000/svg" xmlns:xlink="http://www.w3.org/1999/xlink" x="0px" y="0px"
	 width="24px" height="24px" viewBox="0 0 24 24" enable-background="new 0 0 24 24" xml:space="preserve">
<path d="M2,14.5h1.667v-5H2V14.5z M4.5,16.167h1.667V7.833H4.5V16.167z M20.333,9.5v5H22v-5H20.333z M17.833,16.167H19.5V7.833
	h-1.667V16.167z M15.75,4.5h-7.5C7.558,4.5,7,5.058,7,5.75v12.5c0,0.691,0.558,1.25,1.25,1.25h7.5c0.691,0,1.25-0.559,1.25-1.25
	V5.75C17,5.058,16.441,4.5,15.75,4.5z M15.333,17.833H8.667V6.167h6.667V17.833z"/>
</svg>
