<svg version="1.1" id="master" xmlns="http://www.w3.org/2000/svg" xmlns:xlink="http://www.w3.org/1999/xlink" x="0px" y="0px"
	 width="24px" height="24px" viewBox="0 0 24 24" enable-background="new 0 0 24 24" xml:space="preserve">
<path d="M20.182,3.818H3.818C2.818,3.818,2,4.636,2,5.636v12.727c0,1,0.818,1.818,1.818,1.818h16.363c1,0,1.818-0.818,1.818-1.818
	V5.636C22,4.636,21.182,3.818,20.182,3.818z M12,17.454c-4.018,0-7.273-2.444-7.273-5.454c0-3.009,3.255-5.455,7.273-5.455
	c4.019,0,7.272,2.445,7.272,5.455C19.272,15.01,16.019,17.454,12,17.454z"/>
</svg>
