<svg version="1.1" id="master" xmlns="http://www.w3.org/2000/svg" xmlns:xlink="http://www.w3.org/1999/xlink" x="0px" y="0px"
	 width="24px" height="24px" viewBox="0 0 24 24" enable-background="new 0 0 24 24" xml:space="preserve">
<rect fill="none" width="24" height="24"/>
<path d="M21.777,16.522L19,15v-2l1.724-0.552c0.368-0.185,0.368-0.71,0-0.895L17,10V8l0.853-0.509
	c0.242-0.241,0.176-0.648-0.129-0.801L12,4L6.277,6.689c-0.305,0.153-0.371,0.56-0.13,0.801L7,8v2l-3.724,1.553
	c-0.368,0.185-0.368,0.71,0,0.895L5,13v2l-2.777,1.522c-0.169,0.113-0.241,0.3-0.219,0.478c0.02,0.156,0.112,0.305,0.273,0.386L4,18
	v1.5C4,19.776,4.224,20,4.5,20h1C5.776,20,6,19.776,6,19.5V18h5v1.5c0,0.276,0.224,0.5,0.5,0.5h1c0.276,0,0.5-0.224,0.5-0.5V18h5
	v1.5c0,0.276,0.224,0.5,0.5,0.5h1c0.276,0,0.5-0.224,0.5-0.5V18l1.724-0.614c0.161-0.081,0.253-0.229,0.272-0.386
	C22.018,16.822,21.946,16.636,21.777,16.522z M9,8h6v2H9V8z M7,15v-2h10v2H7z"/>
</svg>
