<svg version="1.1" id="master" xmlns="http://www.w3.org/2000/svg" xmlns:xlink="http://www.w3.org/1999/xlink" x="0px" y="0px"
	 width="24px" height="24px" viewBox="0 0 24 24" enable-background="new 0 0 24 24" xml:space="preserve">
<path d="M21.98,7.347c-0.088,1.948-1.449,4.619-4.08,8.007c-2.723,3.539-5.021,5.309-6.908,5.309c-1.174,0-2.148-1.078-2.96-3.234
	l-1.598-5.929c-0.599-2.153-1.24-3.231-1.926-3.231c-0.149,0-0.672,0.315-1.568,0.943L2,7.997c0.987-0.87,1.959-1.736,2.917-2.606
	c1.316-1.14,2.304-1.737,2.962-1.799c1.556-0.15,2.513,0.917,2.873,3.198c0.387,2.46,0.657,3.991,0.809,4.589
	c0.449,2.042,0.942,3.061,1.479,3.061c0.419,0,1.047-0.662,1.888-1.986c0.838-1.324,1.283-2.331,1.344-3.023
	c0.119-1.143-0.328-1.717-1.346-1.717c-0.478,0-0.972,0.101-1.48,0.326c0.988-3.223,2.861-4.797,5.636-4.697
	c2.062,0.05,3.022,1.387,2.911,3.998L21.98,7.347L21.98,7.347z"/>
</svg>
