<svg version="1.1" id="master" xmlns="http://www.w3.org/2000/svg" xmlns:xlink="http://www.w3.org/1999/xlink" x="0px" y="0px"
	 width="24px" height="24px" viewBox="0 0 24 24" enable-background="new 0 0 24 24" xml:space="preserve">
<path d="M20.768,11.936c-0.515,0.119-1.014,0.172-1.465,0.172c-2.523,0-4.468-1.764-4.468-4.829c0-1.501,0.589-2.276,1.414-2.276
	c0.788,0,1.302,0.701,1.302,2.127c0,0.813-0.214,1.701-0.375,2.227c0,0,0.774,1.364,2.9,0.938c0.45-1.001,0.702-2.302,0.702-3.439
	C20.778,3.788,19.215,2,16.35,2c-2.953-0.014-4.68,2.25-4.68,5.24c0,2.958,1.383,5.498,3.663,6.654
	c-0.959,1.918-2.179,3.607-3.452,4.881C9.573,15.982,7.486,12.258,6.629,4.99H3.222c1.574,12.105,6.265,15.958,7.504,16.697
	c0.7,0.42,1.305,0.399,1.947,0.04c1.013-0.573,4.04-3.596,5.716-7.136c0.7-0.003,1.551-0.084,2.39-0.273v-2.388L20.768,11.936
	L20.768,11.936z"/>
</svg>
