<svg version="1.1" id="master" xmlns="http://www.w3.org/2000/svg" xmlns:xlink="http://www.w3.org/1999/xlink" x="0px" y="0px"
	 width="24px" height="24px" viewBox="0 0 24 24" enable-background="new 0 0 24 24" xml:space="preserve">
<path d="M16.537,9.186c-0.322-0.122-0.824-0.251-1.449-0.251c-1.601,0-2.729,0.807-2.738,1.963c-0.01,0.85,0.803,1.328,1.417,1.613
	c0.631,0.292,0.842,0.476,0.84,0.737c-0.004,0.397-0.504,0.578-0.969,0.578c-0.638,0-0.987-0.09-1.525-0.313l-0.199-0.093
	l-0.226,1.332c0.388,0.162,1.088,0.302,1.813,0.313c1.7,0,2.813-0.802,2.825-2.033c0.014-0.678-0.425-1.191-1.351-1.615
	c-0.562-0.274-0.911-0.459-0.911-0.738c0-0.246,0.299-0.51,0.924-0.51c0.537-0.009,0.913,0.107,1.213,0.228l0.149,0.067l0.227-1.286
	L16.537,9.186z M20.69,9.044h-1.25c-0.39,0-0.681,0.105-0.852,0.492l-2.404,5.445h1.701l0.34-0.892l2.075,0.002
	c0.051,0.208,0.2,0.89,0.2,0.89H22L20.69,9.044z M10.05,8.994h1.619l-1.012,5.94h-1.62l1.013-5.942V8.994z M5.934,12.268
	l0.168,0.826l1.584-4.05h1.716l-2.551,5.93H5.14l-1.4-5.022C3.711,9.865,3.675,9.808,3.59,9.754C3.117,9.507,2.587,9.305,2,9.165
	L2.021,9.04H4.63c0.354,0.013,0.639,0.125,0.736,0.503l0.568,2.728V12.268z M18.69,12.874l0.646-1.662
	c-0.009,0.017,0.133-0.343,0.215-0.566l0.11,0.513l0.375,1.714H18.69V12.874L18.69,12.874z"/>
</svg>
