<svg version="1.1" id="master" xmlns="http://www.w3.org/2000/svg" xmlns:xlink="http://www.w3.org/1999/xlink" x="0px" y="0px"
	 width="24px" height="24px" viewBox="0 0 24 24" enable-background="new 0 0 24 24" xml:space="preserve">
<rect fill="none" width="24" height="24"/>
<path d="M12.004,6.998c2.51,0,4.547,2.037,4.547,4.547c0,0.591-0.118,1.146-0.327,1.664l2.656,2.656
	c1.373-1.146,2.455-2.629,3.119-4.32c-1.574-3.993-5.457-6.821-10.004-6.821c-1.274,0-2.492,0.228-3.62,0.637l1.964,1.964
	C10.859,7.116,11.414,6.998,12.004,6.998z M2.91,4.515l2.073,2.073l0.419,0.418C3.892,8.18,2.709,9.745,2,11.545
	c1.573,3.994,5.457,6.822,10.004,6.822c1.41,0,2.755-0.273,3.984-0.764l0.382,0.381l2.665,2.656l1.154-1.154L4.064,3.36L2.91,4.515z
	 M7.939,9.544l1.41,1.41c-0.045,0.191-0.073,0.391-0.073,0.591c0,1.509,1.219,2.728,2.729,2.728c0.2,0,0.4-0.025,0.591-0.072
	l1.41,1.41c-0.61,0.299-1.283,0.482-2.001,0.482c-2.51,0-4.547-2.039-4.547-4.548C7.457,10.827,7.639,10.154,7.939,9.544z
	 M11.859,8.835l2.865,2.865l0.019-0.146c0-1.509-1.219-2.729-2.729-2.729L11.859,8.835z"/>
</svg>
