<svg version="1.1" id="master" xmlns="http://www.w3.org/2000/svg" xmlns:xlink="http://www.w3.org/1999/xlink" x="0px" y="0px"
	 width="24px" height="24px" viewBox="0 0 24 24" enable-background="new 0 0 24 24" xml:space="preserve">
<rect fill="none" width="24" height="24"/>
<path d="M21.292,4.156l-4.117-1.981c-0.477-0.229-1.047-0.133-1.42,0.242L7.871,9.608L4.438,7.002
	c-0.32-0.243-0.767-0.223-1.063,0.047L2.273,8.051C1.932,8.36,1.907,8.888,2.217,9.228c0.018,0.02,0.036,0.038,0.055,0.056L5.25,12
	l-2.978,2.717c-0.34,0.31-0.364,0.837-0.054,1.177c0.017,0.02,0.036,0.038,0.055,0.056l1.103,1.001
	c0.296,0.27,0.744,0.29,1.063,0.048l3.434-2.607l7.883,7.191c0.374,0.375,0.943,0.472,1.42,0.242l4.118-1.98
	C21.726,19.635,22,19.197,22,18.717V5.283C22,4.802,21.725,4.364,21.292,4.156z M17.004,16.54L11.022,12l5.982-4.54V16.54z"/>
</svg>
