<svg version="1.1" id="master" xmlns="http://www.w3.org/2000/svg" xmlns:xlink="http://www.w3.org/1999/xlink" x="0px" y="0px"
	 width="24px" height="24px" viewBox="0 0 24 24" enable-background="new 0 0 24 24" xml:space="preserve">
<rect fill="none" width="24" height="24"/>
<path d="M15.07,2H8.93C3.327,2,2,3.327,2,8.93v6.14C2,20.674,3.327,22,8.93,22h6.14c5.604,0,6.93-1.326,6.93-6.93V8.93
	C22,3.327,20.659,2,15.07,2z M18.146,16.27h-1.453c-0.55,0-0.72-0.438-1.708-1.439c-0.861-0.833-1.242-0.946-1.454-0.946
	c-0.296,0-0.381,0.085-0.381,0.494v1.313c0,0.354-0.113,0.565-1.044,0.565c-1.539,0-3.247-0.932-4.446-2.668
	c-1.807-2.541-2.302-4.446-2.302-4.841c0-0.211,0.085-0.409,0.494-0.409h1.453c0.367,0,0.508,0.169,0.65,0.564
	c0.719,2.075,1.919,3.896,2.413,3.896c0.183,0,0.269-0.085,0.269-0.55v-2.147c-0.057-0.988-0.58-1.072-0.58-1.425
	c0-0.17,0.142-0.339,0.367-0.339h2.287c0.311,0,0.423,0.169,0.423,0.536v2.894c0,0.31,0.142,0.423,0.226,0.423
	c0.184,0,0.34-0.113,0.678-0.452c1.045-1.171,1.793-2.978,1.793-2.978c0.099-0.212,0.269-0.409,0.636-0.409h1.453
	c0.438,0,0.537,0.225,0.438,0.536c-0.184,0.848-1.962,3.359-1.962,3.359c-0.155,0.254-0.211,0.367,0,0.65
	c0.155,0.212,0.664,0.649,1.003,1.045c0.621,0.705,1.1,1.298,1.228,1.708C18.768,16.057,18.555,16.269,18.146,16.27L18.146,16.27z"
	/>
</svg>
