<svg version="1.1" id="master" xmlns="http://www.w3.org/2000/svg" xmlns:xlink="http://www.w3.org/1999/xlink" x="0px" y="0px"
	 width="24px" height="24px" viewBox="0 0 24 24" enable-background="new 0 0 24 24" xml:space="preserve">
<rect fill="none" width="24" height="24"/>
<path d="M21.213,17.958h-2.184c-0.827,0-1.083-0.657-2.567-2.161c-1.293-1.251-1.865-1.422-2.184-1.422
	c-0.445,0-0.571,0.13-0.571,0.743v1.972c0,0.532-0.171,0.85-1.569,0.85c-2.313,0-4.878-1.4-6.68-4.009C2.744,10.113,2,7.251,2,6.658
	c0-0.317,0.127-0.615,0.742-0.615h2.183c0.551,0,0.763,0.254,0.977,0.847c1.08,3.118,2.883,5.854,3.625,5.854
	c0.274,0,0.404-0.128,0.404-0.826V8.692C9.846,7.208,9.06,7.082,9.06,6.551c0-0.255,0.213-0.509,0.551-0.509h3.435
	c0.467,0,0.636,0.254,0.636,0.805v4.348c0,0.466,0.213,0.635,0.339,0.635c0.277,0,0.512-0.169,1.02-0.679
	c1.57-1.76,2.694-4.475,2.694-4.475c0.147-0.318,0.403-0.614,0.955-0.614h2.183c0.657,0,0.807,0.338,0.657,0.806
	c-0.275,1.273-2.946,5.046-2.946,5.046c-0.232,0.381-0.316,0.552,0,0.976c0.232,0.319,0.998,0.976,1.506,1.569
	c0.933,1.06,1.653,1.952,1.846,2.568C22.146,17.639,21.826,17.958,21.213,17.958L21.213,17.958z"/>
</svg>
