<svg version="1.1" id="master" xmlns="http://www.w3.org/2000/svg" xmlns:xlink="http://www.w3.org/1999/xlink" x="0px" y="0px"
	 width="24px" height="24px" viewBox="0 0 24 24" enable-background="new 0 0 24 24" xml:space="preserve">
<rect fill="none" width="24" height="24"/>
<path d="M11.909,13.219c3.131,0,4.045-1.122,4.221-1.395l-1.134-3.611c-0.299,0.283-1.104,0.78-3.066,0.78
	c-1.91,0-2.657-0.473-2.934-0.758L7.838,11.92C8.028,12.221,8.884,13.22,11.909,13.219L11.909,13.219z M11.931,5.173
	c0.682-0.008,1.355-0.151,1.98-0.423l-0.715-2.278c-0.061-0.161-0.183-0.292-0.339-0.364c0,0-0.096-0.107-0.831-0.107
	c-0.735,0-0.879,0.113-0.879,0.113c-0.159,0.066-0.284,0.196-0.342,0.358l-0.736,2.346C10.666,5.04,11.295,5.16,11.931,5.173z
	 M20.824,21.432c0.005-0.044,0-0.09-0.013-0.133l-1.945-6.359c-0.073-0.208-0.266-0.35-0.485-0.359h-1.386l0.166,0.533
	c-0.199,0.404-1.239,1.983-5.252,1.983c-3.833,0-4.856-1.442-5.091-1.923l0.186-0.594H5.619c-0.22,0.01-0.412,0.151-0.486,0.359
	L3.188,21.3c-0.013,0.041-0.017,0.083-0.014,0.125l-0.002,0.017c0.002,0.063,0.01,0.126,0.02,0.188
	c0.034,0.21,0.212,0.366,0.425,0.37h16.766c0.212-0.004,0.391-0.16,0.425-0.37c0.01-0.063,0.016-0.125,0.019-0.188L20.824,21.432z"
	/>
</svg>
