<svg version="1.1" id="master" xmlns="http://www.w3.org/2000/svg" xmlns:xlink="http://www.w3.org/1999/xlink" x="0px" y="0px"
	 width="24px" height="24px" viewBox="0 0 24 24" enable-background="new 0 0 24 24" xml:space="preserve">
<rect fill="none" width="24" height="24"/>
<path d="M17.417,7.417c-2.534,0-4.584,2.05-4.584,4.583c0,1.108,0.393,2.125,1.05,2.917h-3.766c0.658-0.792,1.05-1.809,1.05-2.917
	c0-2.533-2.05-4.583-4.583-4.583C4.05,7.417,2,9.467,2,12s2.05,4.583,4.583,4.583h10.833C19.95,16.583,22,14.533,22,12
	S19.95,7.417,17.417,7.417z M6.583,14.917c-1.609,0-2.917-1.309-2.917-2.917s1.308-2.916,2.917-2.916C8.192,9.084,9.5,10.392,9.5,12
	S8.192,14.917,6.583,14.917z M17.417,14.917c-1.608,0-2.917-1.309-2.917-2.917s1.309-2.916,2.917-2.916
	c1.607,0,2.916,1.308,2.916,2.916S19.024,14.917,17.417,14.917z"/>
</svg>
