<svg version="1.1" id="master" xmlns="http://www.w3.org/2000/svg" xmlns:xlink="http://www.w3.org/1999/xlink" x="0px" y="0px"
	 width="24px" height="24px" viewBox="0 0 24 24" enable-background="new 0 0 24 24" xml:space="preserve">
<rect fill="none" width="24" height="24"/>
<path d="M6.021,3.964c-2.426,1.835-4.01,4.732-4.01,8.01c0,1.463,0.32,2.856,0.892,4.12l3.118-1.803V3.964z M11.033,11.393V2
	C9.97,2.11,8.958,2.38,8.025,2.792v10.345L11.033,11.393z M12.035,13.127l-8.129,4.691c0.611,0.842,1.343,1.594,2.185,2.205
	l8.953-5.152L12.035,13.127z M13.038,7.924v3.469l8.129,4.691c0.42-0.932,0.703-1.936,0.822-2.986L13.038,7.924z M8.096,21.197
	C9.309,21.709,10.632,22,12.035,22c3.348,0,6.306-1.656,8.128-4.172l-3.117-1.805L8.096,21.197z M21.979,10.782
	C21.429,6.14,17.708,2.46,13.038,2v3.609L21.979,10.782z"/>
</svg>
