<svg version="1.1" id="master" xmlns="http://www.w3.org/2000/svg" xmlns:xlink="http://www.w3.org/1999/xlink" x="0px" y="0px"
	 width="24px" height="24px" viewBox="0 0 24 24" enable-background="new 0 0 24 24" xml:space="preserve">
<rect fill="none" width="24" height="24"/>
<path d="M17,12c0-1.967-1.133-3.656-2.777-4.478v2.456l2.722,2.722C16.979,12.478,17,12.245,17,12z M19.777,12
	c0,1.044-0.222,2.022-0.6,2.934l1.679,1.678C21.589,15.233,22,13.667,22,12c0-4.755-3.322-8.733-7.777-9.745v2.289
	C17.434,5.5,19.777,8.478,19.777,12z M3.411,2L2,3.411l5.255,5.255H2v6.667h4.444L12,20.889V13.41l4.723,4.723
	c-0.745,0.578-1.578,1.034-2.5,1.312v2.289c1.533-0.345,2.922-1.055,4.099-2.011L20.59,22L22,20.59L12,10.589L3.411,2z M12,3.111
	L9.678,5.433L12,7.756V3.111z"/>
</svg>
