<svg version="1.1" id="master" xmlns="http://www.w3.org/2000/svg" xmlns:xlink="http://www.w3.org/1999/xlink"
	 x="0px" y="0px" width="24px" height="24px" viewBox="0 0 24 24" enable-background="new 0 0 24 24" xml:space="preserve">
<path d="M21,6H3C2.448,6,2,6.448,2,7v10c0,0.552,0.448,1,1,1h5.007c0.787,0,1.501-0.461,1.824-1.179l0.866-1.928
	C10.944,14.346,11.448,14,12,14s1.057,0.346,1.302,0.894l0.868,1.928C14.492,17.539,15.206,18,15.993,18H21c0.553,0,1-0.448,1-1V7
	C22,6.448,21.553,6,21,6z M7,13.5c-1.104,0-2-0.896-2-2c0-1.105,0.896-2,2-2s2,0.895,2,2C9,12.604,8.104,13.5,7,13.5z M17,13.5
	c-1.105,0-2-0.896-2-2c0-1.105,0.895-2,2-2s2,0.895,2,2C19,12.604,18.105,13.5,17,13.5z"/>
</svg>
