<svg version="1.1" id="master" xmlns="http://www.w3.org/2000/svg" xmlns:xlink="http://www.w3.org/1999/xlink" x="0px" y="0px"
	 width="24px" height="24px" viewBox="0 0 24 24" enable-background="new 0 0 24 24" xml:space="preserve">
<path d="M12.931,5.721c1.022,0,1.86-0.837,1.86-1.86S13.953,2,12.931,2c-1.024,0-1.861,0.837-1.861,1.86S11.906,5.721,12.931,5.721z
	 M9.488,8.884L6.884,22h1.953l1.675-7.441l1.953,1.86V22h1.86v-6.977l-1.953-1.86l0.559-2.791c1.209,1.396,3.069,2.325,5.116,2.325
	v-1.86c-1.769,0-3.256-0.931-4-2.232l-0.931-1.489c-0.372-0.558-0.93-0.93-1.582-0.93c-0.278,0-0.465,0.093-0.743,0.093L5.953,8.325
	v4.372h1.86V9.535L9.488,8.884"/>
</svg>
