<svg version="1.1" id="master" xmlns="http://www.w3.org/2000/svg" xmlns:xlink="http://www.w3.org/1999/xlink" x="0px" y="0px"
	 width="24px" height="24px" viewBox="0 0 24 24" enable-background="new 0 0 24 24" xml:space="preserve">
<rect fill="none" width="24" height="24"/>
<path d="M20.016,7H5.125C4.779,7,4.5,6.721,4.5,6.375S4.779,5.75,5.125,5.75h15c0.345,0,0.625-0.279,0.625-0.625
	c0-1.036-0.84-1.875-1.875-1.875H4.5C3.119,3.25,2,4.369,2,5.75v12.5c0,1.381,1.119,2.5,2.5,2.5h15.516
	c1.094,0,1.984-0.842,1.984-1.875v-10C22,7.841,21.109,7,20.016,7z M18.25,15.125c-0.69,0-1.25-0.56-1.25-1.25s0.56-1.25,1.25-1.25
	s1.25,0.56,1.25,1.25S18.94,15.125,18.25,15.125z"/>
</svg>
