<svg version="1.1" id="master" xmlns="http://www.w3.org/2000/svg" xmlns:xlink="http://www.w3.org/1999/xlink" x="0px" y="0px"
	 width="24px" height="24px" viewBox="0 0 24 24" enable-background="new 0 0 24 24" xml:space="preserve">
<rect fill="none" width="24" height="24"/>
<path d="M17.75,15H6.263c-0.138,0-0.25,0.112-0.25,0.25l-0.003,1.5c0,0.138,0.113,0.25,0.25,0.25H17.75
	c0.137,0,0.25-0.112,0.25-0.25v-1.5C18,15.112,17.887,15,17.75,15z M17.75,18H6.253c-0.137,0-0.25,0.112-0.25,0.25L6,19.75
	C6,19.888,6.112,20,6.25,20h11.5c0.137,0,0.25-0.112,0.25-0.25v-1.5C18,18.112,17.887,18,17.75,18z M17.75,12H6.269
	c-0.137,0-0.25,0.112-0.25,0.25l-0.003,1.5c0,0.138,0.112,0.25,0.25,0.25H17.75c0.137,0,0.25-0.112,0.25-0.25v-1.5
	C18,12.112,17.887,12,17.75,12z M21.078,7.656l-8.504-3.541c-0.368-0.153-0.783-0.153-1.152,0l-8.5,3.541
	C2.366,7.891,2,8.435,2,9.041V19.75C2,19.888,2.112,20,2.25,20h2.5C4.887,20,5,19.888,5,19.75V12c0-0.55,0.456-1,1.019-1h11.963
	C18.544,11,19,11.45,19,12v7.75c0,0.138,0.112,0.25,0.25,0.25h2.5c0.138,0,0.25-0.112,0.25-0.25V9.041
	C22,8.435,21.634,7.891,21.078,7.656z"/>
</svg>
