<svg version="1.1" id="master" xmlns="http://www.w3.org/2000/svg" xmlns:xlink="http://www.w3.org/1999/xlink" x="0px" y="0px"
	 width="24px" height="24px" viewBox="0 0 24 24" enable-background="new 0 0 24 24" xml:space="preserve">
<rect fill="none" width="24" height="24"/>
<path d="M9.17,16.83c1.56,1.561,4.1,1.561,5.66,0s1.561-4.1,0-5.66L9.17,16.83z M18,2.01L6,2C4.89,2,4,2.89,4,4v16
	c0,1.109,0.89,2,2,2h12c1.109,0,2-0.891,2-2V4C20,2.89,19.109,2.01,18,2.01z M10,4c0.55,0,1,0.45,1,1s-0.45,1-1,1S9,5.55,9,5
	S9.45,4,10,4z M7,4c0.55,0,1,0.45,1,1S7.55,6,7,6S6,5.55,6,5S6.45,4,7,4z M12,20c-3.31,0-6-2.689-6-6c0-3.31,2.69-6,6-6
	c3.311,0,6,2.69,6,6C18,17.311,15.311,20,12,20z"/>
</svg>
