<svg version="1.1" id="master" xmlns="http://www.w3.org/2000/svg" xmlns:xlink="http://www.w3.org/1999/xlink" x="0px" y="0px"
	 width="24px" height="24px" viewBox="0 0 24 24" enable-background="new 0 0 24 24" xml:space="preserve">
<path d="M18.666,12c0-2.117-0.99-4.008-2.533-5.225L15.334,2H8.667L7.875,6.775C6.325,7.992,5.333,9.875,5.333,12
	s0.992,4.009,2.542,5.225L8.667,22h6.667l0.799-4.775C17.676,16.009,18.666,14.117,18.666,12z M7,12c0-2.758,2.242-5,5-5
	c2.76,0,5,2.242,5,5c0,2.759-2.24,5-5,5C9.242,17,7,14.759,7,12z"/>
</svg>
