<svg version="1.1" id="master" xmlns="http://www.w3.org/2000/svg" xmlns:xlink="http://www.w3.org/1999/xlink" x="0px" y="0px"
	 width="24px" height="24px" viewBox="0 0 24 24" enable-background="new 0 0 24 24" xml:space="preserve">
<path d="M20.499,17.415L12.357,22v-3.571l5.073-2.778L20.499,17.415L20.499,17.415z M21.056,16.913v-9.59l-2.979,1.712v6.164
	L21.056,16.913L21.056,16.913z M3.501,17.415L11.643,22v-3.571L6.57,15.65L3.501,17.415L3.501,17.415z M2.944,16.913v-9.59
	l2.979,1.712v6.164L2.944,16.913L2.944,16.913z M3.293,6.703L11.643,2v3.453L6.293,8.382L6.252,8.405L3.293,6.703z M20.707,6.703
	L12.357,2v3.453l5.35,2.929l0.041,0.023L20.707,6.703L20.707,6.703z M11.643,17.616l-5.004-2.738V9.449l5.004,2.877V17.616
	L11.643,17.616z M12.357,17.616l5.004-2.738V9.449l-5.004,2.877V17.616z M6.977,8.82l5.024-2.751l5.023,2.751l-5.023,2.889
	L6.977,8.82z"/>
</svg>
