<svg version="1.1" id="master" xmlns="http://www.w3.org/2000/svg" xmlns:xlink="http://www.w3.org/1999/xlink" x="0px" y="0px"
	 width="24px" height="24px" viewBox="0 0 24 24" enable-background="new 0 0 24 24" xml:space="preserve">
<path d="M17.898,9.586c0.297-0.938-0.523-1.828-1.461-1.629c-0.859,0.187-1.125-1.099-0.277-1.281
	c1.957-0.426,3.605,1.449,2.988,3.313C18.883,10.818,17.633,10.411,17.898,9.586z M10.391,20.099C6.238,20.099,2,18.09,2,14.774
	c0-1.73,1.094-3.726,2.98-5.613c3.895-3.895,7.938-3.941,6.781-0.223c-0.156,0.513,0.48,0.223,0.48,0.234
	c3.105-1.313,5.488-0.656,4.453,2.008c-0.146,0.367,0.043,0.426,0.324,0.512C22.32,13.345,18.379,20.099,10.391,20.099z
	 M16.004,14.383c-0.211-2.174-3.066-3.67-6.383-3.346c-3.313,0.336-5.813,2.355-5.602,4.531s3.065,3.672,6.383,3.348
	C13.715,18.578,16.215,16.56,16.004,14.383z M15.59,4.021c-1.012,0.218-0.656,1.707,0.324,1.496
	c2.824-0.595,5.266,2.062,4.363,4.844c-0.289,0.945,1.137,1.445,1.461,0.469C22.984,6.931,19.586,3.176,15.59,4.021L15.59,4.021z
	 M12.523,16.168c-0.668,1.517-2.609,2.345-4.262,1.81c-1.595-0.513-2.267-2.086-1.574-3.504c0.69-1.384,2.465-2.164,4.039-1.763
	C12.368,13.133,13.191,14.672,12.523,16.168z M9.152,14.996C8.648,14.785,7.98,15.008,7.668,15.5
	c-0.324,0.504-0.168,1.095,0.336,1.328c0.512,0.233,1.203,0.012,1.527-0.504C9.844,15.812,9.676,15.22,9.152,14.996z M10.426,14.474
	c-0.199-0.066-0.445,0.022-0.558,0.211c-0.114,0.198-0.056,0.414,0.144,0.504c0.199,0.078,0.457-0.013,0.57-0.211
	C10.691,14.772,10.625,14.551,10.426,14.474z"/>
</svg>
