<svg version="1.1" id="master" xmlns="http://www.w3.org/2000/svg" xmlns:xlink="http://www.w3.org/1999/xlink"
	 x="0px" y="0px" width="24px" height="24px" viewBox="0 0 24 24" enable-background="new 0 0 24 24" xml:space="preserve">
<path d="M19,8.5c-7.595,0-9.853,6.999-11.879,6.999C6.503,15.499,6,14.997,6,14.379v-3.062l1.555-0.954
	C7.833,10.178,8,9.865,8,9.531V7c0-0.399-0.445-0.637-0.777-0.416L5,8.066L2.777,6.584C2.445,6.363,2,6.602,2,7.001v2.53
	c0,0.334,0.167,0.646,0.445,0.832L4,11.317v3.062c0,1.72,1.4,3.121,3.121,3.121H20c1.104,0,2-0.896,2-2.001V11.5
	C22,9.845,20.654,8.5,19,8.5z M15.5,12.5c0.276,0,0.5,0.224,0.5,0.499c0,0.276-0.224,0.501-0.5,0.501c-0.275,0-0.5-0.225-0.5-0.501
	C15,12.724,15.225,12.5,15.5,12.5z"/>
</svg>
