<svg version="1.1" id="master" xmlns="http://www.w3.org/2000/svg" xmlns:xlink="http://www.w3.org/1999/xlink" x="0px" y="0px"
	 width="24px" height="24px" viewBox="0 0 24 24" enable-background="new 0 0 24 24" xml:space="preserve">
<path d="M13.406,2c0,0,0.694,2.485,0.694,4.5c0,1.932-1.265,3.498-3.197,3.498C8.962,9.999,7.5,8.433,7.5,6.5l0.028-0.337
	c-1.895,2.25-3.029,5.167-3.029,8.336C4.499,18.644,7.856,22,12,22c4.145,0,7.501-3.356,7.501-7.501
	C19.501,9.445,17.073,4.935,13.406,2z M11.728,19.188c-1.668,0-3.019-1.313-3.019-2.945c0-1.519,0.984-2.588,2.634-2.924
	c1.66-0.338,3.376-1.135,4.332-2.42c0.366,1.209,0.553,2.485,0.553,3.788C16.229,17.171,14.213,19.188,11.728,19.188L11.728,19.188z
	"/>
</svg>
