<?xml version="1.0" encoding="utf-8"?>
<!-- Generator: Adobe Illustrator 16.0.0, SVG Export Plug-In . SVG Version: 6.00 Build 0)  -->
<!DOCTYPE svg PUBLIC "-//W3C//DTD SVG 1.1//EN" "http://www.w3.org/Graphics/SVG/1.1/DTD/svg11.dtd">
<svg version="1.1" id="master" xmlns="http://www.w3.org/2000/svg" xmlns:xlink="http://www.w3.org/1999/xlink" x="0px" y="0px"
	 width="24px" height="24px" viewBox="0 0 24 24" enable-background="new 0 0 24 24" xml:space="preserve">
<path d="M13.405,2c0,0,0.695,2.484,0.695,4.5c0,1.932-1.267,3.499-3.198,3.499c-1.941,0-3.403-1.566-3.403-3.499l0.028-0.337
	c-1.895,2.25-3.028,5.167-3.028,8.335C4.498,18.644,7.854,22,11.999,22c4.144,0,7.502-3.356,7.502-7.501
	C19.501,9.445,17.072,4.934,13.405,2z M11.727,19.187c-1.668,0-3.02-1.313-3.02-2.944c0-1.518,0.984-2.587,2.634-2.925
	c1.661-0.337,3.377-1.134,4.332-2.419c0.366,1.21,0.554,2.485,0.554,3.788C16.228,17.171,14.211,19.187,11.727,19.187L11.727,19.187
	z"/>
</svg>
