<svg version="1.1" id="icon_whatsapp" xmlns="http://www.w3.org/2000/svg" xmlns:xlink="http://www.w3.org/1999/xlink" x="0px" y="0px"
	 width="24px" height="24px" viewBox="0 0 24 24" enable-background="new 0 0 24 24" xml:space="preserve">
<path d="M19.004,4.906C17.134,3.031,14.644,2,11.995,2c-5.464,0-9.911,4.447-9.911,9.911c0,1.746,0.456,3.451,1.322,4.956L2,22
	l5.254-1.379c1.447,0.789,3.076,1.205,4.737,1.205h0.004C17.456,21.826,22,17.38,22,11.916C22,9.268,20.875,6.781,19.004,4.906z
	 M11.995,20.156c-1.482,0-2.933-0.397-4.196-1.147L7.5,18.83l-3.116,0.816l0.831-3.039l-0.196-0.313
	c-0.826-1.313-1.259-2.826-1.259-4.384c0-4.54,3.696-8.236,8.241-8.236c2.2,0,4.268,0.857,5.821,2.415s2.509,3.625,2.505,5.826
	C20.326,16.46,16.536,20.156,11.995,20.156z M16.514,13.986c-0.246-0.124-1.465-0.724-1.691-0.804
	c-0.229-0.084-0.394-0.124-0.559,0.125c-0.165,0.25-0.639,0.804-0.786,0.974c-0.143,0.165-0.29,0.188-0.535,0.063
	c-1.456-0.728-2.411-1.299-3.371-2.946c-0.255-0.438,0.254-0.407,0.727-1.353c0.081-0.165,0.041-0.308-0.022-0.433
	c-0.062-0.125-0.558-1.344-0.763-1.839C9.313,7.29,9.107,7.357,8.956,7.348C8.813,7.339,8.647,7.339,8.482,7.339
	S8.049,7.402,7.821,7.647c-0.228,0.25-0.866,0.848-0.866,2.067s0.888,2.397,1.009,2.562c0.125,0.165,1.746,2.665,4.232,3.741
	c1.571,0.68,2.188,0.737,2.974,0.621c0.478-0.072,1.464-0.599,1.669-1.179c0.206-0.58,0.206-1.076,0.144-1.179
	C16.924,14.17,16.759,14.107,16.514,13.986z"/>
</svg>
