<svg version="1.1" id="icon_whatshot" xmlns="http://www.w3.org/2000/svg" xmlns:xlink="http://www.w3.org/1999/xlink" x="0px"
	 y="0px" width="24px" height="24px" viewBox="0 0 24 24" enable-background="new 0 0 24 24" xml:space="preserve">
<path d="M13.406,2c0,0,0.694,2.485,0.694,4.501c0,1.931-1.266,3.498-3.198,3.498C8.962,9.999,7.5,8.432,7.5,6.501l0.028-0.338
	c-1.894,2.25-3.028,5.167-3.028,8.336C4.499,18.644,7.855,22,12,22s7.501-3.356,7.501-7.501C19.501,9.445,17.073,4.935,13.406,2z
	 M11.728,19.188c-1.669,0-3.019-1.313-3.019-2.945c0-1.519,0.984-2.588,2.634-2.925c1.661-0.337,3.376-1.135,4.333-2.419
	c0.366,1.209,0.553,2.485,0.553,3.788C16.229,17.171,14.212,19.188,11.728,19.188z"/>
</svg>
