<svg version="1.1" id="master" xmlns="http://www.w3.org/2000/svg" xmlns:xlink="http://www.w3.org/1999/xlink" x="0px" y="0px"
	 width="24px" height="24px" viewBox="0 0 24 24" enable-background="new 0 0 24 24" xml:space="preserve">
<path d="M20.816,6.436c0.992-1.071,1.269-2.815,1.162-4.414c-1.133-0.076-3.135-0.01-4.396,1.167
	c-1.453,1.459-1.21,4.074-1.163,4.414C18.043,7.711,19.739,7.44,20.816,6.436z M19.116,8.623c-0.629,0.151-1.298,0.252-2.038,0.252
	c-0.247,0-0.495-0.009-0.742-0.025l-1.011-0.068l-0.144-1.004c-0.013-0.089-0.194-1.458,0.183-2.964
	c-0.503-1.247-1.602-2.165-1.789-2.306c-1.089,0.952-1.985,2.188-2.03,3.497c0.042,1.113,0.729,2.203,1.6,3.083l-1.621,1.621
	c0.062-0.233,0.109-0.471,0.118-0.718c-0.004-1.831-1.8-3.322-2.044-3.505c-1.089,0.952-1.985,2.188-2.03,3.497
	c0.042,1.113,0.729,2.203,1.599,3.084l-1.621,1.619c0.063-0.232,0.11-0.471,0.118-0.718c-0.003-1.831-1.8-3.322-2.044-3.505
	c-1.089,0.953-1.984,2.189-2.029,3.498c0.042,1.111,0.729,2.202,1.599,3.082l-2.823,2.824c-0.488,0.488-0.488,1.279,0,1.768
	C2.61,21.878,2.93,22,3.25,22s0.64-0.122,0.884-0.366l2.822-2.822c0.888,0.89,1.967,1.569,3.102,1.608
	c1.297-0.05,2.566-0.972,3.505-2.044c-0.664-0.759-1.964-1.977-3.497-2.03c-0.258,0.001-0.507,0.044-0.75,0.105l1.617-1.617
	c0.888,0.89,1.967,1.569,3.101,1.608c1.298-0.05,2.567-0.973,3.506-2.043c-0.664-0.761-1.964-1.978-3.497-2.031
	c-0.259,0-0.508,0.043-0.75,0.106l1.617-1.618c0.889,0.89,1.968,1.569,3.103,1.608c1.297-0.05,2.566-0.972,3.504-2.044
	C21.019,9.851,20.161,9.023,19.116,8.623z"/>
</svg>
