<svg version="1.1" id="master" xmlns="http://www.w3.org/2000/svg" xmlns:xlink="http://www.w3.org/1999/xlink" x="0px" y="0px"
	 width="24px" height="24px" viewBox="0 0 24 24" enable-background="new 0 0 24 24" xml:space="preserve">
<path d="M12,2C6.479,2,2,6.479,2,12s4.479,10,10,10s10-4.479,10-10S17.521,2,12,2z M12,19.5c-4.135,0-7.5-3.365-7.5-7.5
	S7.865,4.5,12,4.5s7.5,3.365,7.5,7.5S16.135,19.5,12,19.5z M8.875,12c0-0.696,0.236-1.333,0.62-1.854L7.61,7.555
	C6.462,8.688,5.75,10.26,5.75,12c0,0.348,0.048,0.679,0.104,1.01l3.025-0.981C8.877,12.018,8.875,12.011,8.875,12z M9.461,13.811
	l-3.024,0.982c0.891,1.774,2.589,3.055,4.625,3.362v-3.189C10.413,14.761,9.85,14.355,9.461,13.811z M12,8.875
	c0.348,0,0.674,0.07,0.984,0.173l1.874-2.576C13.997,6.027,13.035,5.75,12,5.75c-1.036,0-1.997,0.277-2.858,0.723l1.873,2.576
	C11.326,8.945,11.652,8.875,12,8.875z M16.392,7.555l-1.886,2.591c0.383,0.52,0.619,1.158,0.619,1.854
	c0,0.011-0.003,0.018-0.003,0.028l3.024,0.983c0.057-0.332,0.104-0.665,0.104-1.011C18.25,10.26,17.537,8.688,16.392,7.555
	L16.392,7.555z M12.938,14.966v3.189c2.034-0.309,3.732-1.588,4.627-3.362l-3.024-0.982C14.15,14.355,13.59,14.761,12.938,14.966z
	 M12,10.75c-0.69,0-1.25,0.56-1.25,1.25c0,0.691,0.56,1.25,1.25,1.25c0.691,0,1.25-0.559,1.25-1.25
	C13.25,11.31,12.691,10.75,12,10.75z"/>
</svg>
