<svg version="1.1" id="master" xmlns="http://www.w3.org/2000/svg" xmlns:xlink="http://www.w3.org/1999/xlink" x="0px" y="0px"
	 width="24px" height="24px" viewBox="0 0 24 24" enable-background="new 0 0 24 24" xml:space="preserve">
<path d="M11.23,5.996c-1.66,0-3.22,0.66-4.36,1.73c-0.33-1-1.26-1.73-2.37-1.73c-1.38,0-2.5,1.12-2.5,2.5s1.12,2.5,2.5,2.5
	c0.21,0,0.41-0.03,0.61-0.08c-0.05,0.25-0.09,0.51-0.1,0.78c-0.18,3.68,2.95,6.68,6.68,6.271c2.55-0.281,4.68-2.261,5.19-4.771
	c0.149-0.71,0.149-1.4,0.06-2.06c-0.09-0.6,0.381-1.13,0.99-1.13H22v-4.01H11.23z M4.5,8.996c-0.28,0-0.5-0.22-0.5-0.5
	s0.22-0.5,0.5-0.5S5,8.216,5,8.496S4.78,8.996,4.5,8.996z M11,14.996c-1.66,0-3-1.34-3-3s1.34-3,3-3s3,1.34,3,3
	S12.66,14.996,11,14.996z M11,9.996c1.104,0,2,0.896,2,2s-0.896,2-2,2s-2-0.896-2-2S9.896,9.996,11,9.996z"/>
</svg>
