<svg version="1.1" id="master" xmlns="http://www.w3.org/2000/svg" xmlns:xlink="http://www.w3.org/1999/xlink" x="0px" y="0px"
	 width="24px" height="24px" viewBox="0 0 24 24" enable-background="new 0 0 24 24" xml:space="preserve">
<path d="M22,10.277c-3.492-3.493-8.358-4.766-12.87-3.838l2.292,2.292c3.156-0.155,6.357,0.955,8.758,3.365L22,10.277z
	 M18.362,13.914c-1.174-1.173-2.583-1.937-4.084-2.328l3.21,3.21L18.362,13.914z M2.91,4.865l2.792,2.774
	C4.365,8.294,3.11,9.167,2,10.277l1.81,1.819c1.127-1.128,2.428-1.965,3.82-2.52l2.037,2.037c-1.473,0.382-2.874,1.146-4.029,2.301
	v0.01l1.81,1.811c1.237-1.236,2.855-1.855,4.475-1.875l6.431,6.422l1.154-1.146L4.083,3.719L2.91,4.865z M9.276,17.553l2.729,2.729
	l2.729-2.729C13.232,16.043,10.786,16.043,9.276,17.553z"/>
</svg>
