<svg version="1.1" id="master" xmlns="http://www.w3.org/2000/svg" xmlns:xlink="http://www.w3.org/1999/xlink" x="0px" y="0px"
	 width="24px" height="24px" viewBox="0 0 24 24" enable-background="new 0 0 24 24" xml:space="preserve">
<rect fill="none" width="24" height="24"/>
<path d="M16.92,7.218c-0.607-0.011-1.108,0.471-1.119,1.078V8.31c0.01,0.61,0.509,1.096,1.119,1.088
	c0.653,0,1.171-0.482,1.171-1.088C18.091,7.7,17.573,7.218,16.92,7.218z M20.845,7.218c-0.622,0-1.133,0.483-1.133,1.092
	c0,0.593,0.511,1.088,1.134,1.088C21.484,9.398,22,8.916,22,8.31C22,7.7,21.484,7.218,20.845,7.218z M8.479,7.67
	c-0.624,0-1.043,0.312-1.262,1.013c-0.201,0.714-1.495,5.684-1.495,5.684L4.025,7.748H2c0,0,1.945,7.053,2.21,7.88
	c0.201,0.637,0.7,1.154,1.417,1.154c0.84,0,1.232-0.61,1.403-1.154c0.188-0.564,1.448-5.218,1.448-5.218s1.262,4.658,1.433,5.218
	c0.187,0.544,0.575,1.154,1.401,1.154c0.732,0,1.213-0.518,1.433-1.154c0.263-0.825,2.215-7.88,2.215-7.88h-2.042l-1.684,6.619
	c0,0-1.292-4.97-1.51-5.684C9.522,7.979,9.083,7.67,8.479,7.67z M15.985,10.473v6.246h1.935v-6.246H15.985z M19.896,10.473v6.246
	h1.931v-6.246H19.896z"/>
</svg>
