<svg version="1.1" id="master" xmlns="http://www.w3.org/2000/svg" xmlns:xlink="http://www.w3.org/1999/xlink" x="0px" y="0px"
	 width="24px" height="24px" viewBox="0 0 24 24" enable-background="new 0 0 24 24" xml:space="preserve">
<path d="M12.075,12.933c-0.78,1.609-1.847,3.79-2.377,4.773c-0.513,0.895-0.939,0.775-1.276,0.024
	c-1.172-2.769-3.578-7.621-4.709-10.342c-0.209-0.5-0.368-0.822-0.516-0.949c-0.151-0.125-0.462-0.2-0.935-0.226
	C2.086,6.194,2,6.151,2,6.081V5.702l0.043-0.038c0.771-0.004,4.501,0,4.501,0l0.042,0.038v0.362c0,0.099-0.062,0.146-0.188,0.146
	l-0.47,0.026C5.525,6.26,5.323,6.373,5.323,6.6c0,0.112,0.044,0.275,0.138,0.501c0.902,2.205,4.015,8.769,4.015,8.769l0.113,0.037
	l2.009-4.008l-0.401-0.889l-1.382-2.72c0,0-0.265-0.545-0.356-0.727C8.853,6.359,8.866,6.297,8.253,6.215
	C8.081,6.196,7.992,6.173,7.992,6.091V5.7l0.05-0.037h3.577l0.094,0.031v0.375c0,0.088-0.063,0.125-0.189,0.125l-0.257,0.039
	c-0.66,0.051-0.551,0.317-0.113,1.185l1.318,2.71l1.465-2.92c0.244-0.534,0.194-0.667,0.092-0.789
	c-0.058-0.07-0.254-0.184-0.676-0.2l-0.168-0.018c-0.043,0-0.081-0.013-0.121-0.042c-0.037-0.026-0.056-0.063-0.056-0.108V5.696
	l0.051-0.038c1.04-0.007,3.369,0,3.369,0l0.05,0.038V6.06c0,0.101-0.05,0.148-0.16,0.148c-0.539,0.025-0.653,0.079-0.854,0.366
	c-0.1,0.154-0.313,0.491-0.538,0.865L13.009,11l-0.054,0.112l2.326,4.761l0.142,0.039l3.664-8.699
	c0.128-0.352,0.107-0.601-0.054-0.746c-0.164-0.144-0.288-0.228-0.714-0.246l-0.351-0.013c-0.051,0-0.087-0.011-0.126-0.038
	c-0.036-0.024-0.06-0.062-0.06-0.099V5.71l0.049-0.038h4.134L22,5.71v0.364c0,0.099-0.062,0.15-0.174,0.15
	c-0.541,0.025-0.939,0.15-1.203,0.351c-0.262,0.212-0.464,0.513-0.613,0.889c0,0-3.369,7.715-4.521,10.283
	c-0.438,0.838-0.878,0.764-1.252-0.026c-0.477-0.977-1.478-3.154-2.206-4.759L12.075,12.933z"/>
</svg>
