<svg version="1.1" id="master" xmlns="http://www.w3.org/2000/svg" xmlns:xlink="http://www.w3.org/1999/xlink" x="0px" y="0px"
	 width="24px" height="24px" viewBox="0 0 24 24" enable-background="new 0 0 24 24" xml:space="preserve">
<rect fill="none" width="24" height="24"/>
<path d="M8.121,11.999H2.625C2.281,11.999,2,12.28,2,12.624v1.25c0,0.344,0.281,0.625,0.625,0.625h5.554
	c0.622,0,1.203,0.426,1.305,1.039c0.128,0.781-0.473,1.461-1.235,1.461c-0.551,0-1.02-0.359-1.187-0.855
	c-0.082-0.246-0.336-0.395-0.594-0.395H5.188c-0.383,0-0.692,0.344-0.621,0.719c0.336,1.723,1.859,3.031,3.679,3.031
	c2.23,0,4.012-1.957,3.719-4.242C11.726,13.366,10.023,11.999,8.121,11.999z M2.625,10.749h13.124c2.332,0,4.171-2.141,3.663-4.558
	c-0.296-1.414-1.44-2.559-2.854-2.855c-2.164-0.453-4.105,0.973-4.488,2.949C11.996,6.66,12.308,7,12.687,7h1.281
	c0.262,0,0.512-0.149,0.594-0.395c0.168-0.496,0.637-0.855,1.188-0.855c0.758,0,1.363,0.679,1.234,1.46
	c-0.102,0.614-0.68,1.039-1.305,1.039H2.625C2.281,8.249,2,8.53,2,8.874v1.25C2,10.468,2.281,10.749,2.625,10.749z M17.624,11.999
	h-6.105c0.754,0.648,1.296,1.516,1.554,2.5h4.551c1.035,0,1.875,0.84,1.875,1.875s-0.84,1.875-1.875,1.875
	c-0.699,0-1.301-0.387-1.625-0.953c-0.113-0.195-0.34-0.297-0.566-0.297h-1.32c-0.426,0-0.742,0.422-0.598,0.824
	c0.695,1.977,2.754,3.313,5.055,2.824c1.609-0.34,2.933-1.626,3.309-3.23C22.546,14.558,20.378,11.999,17.624,11.999z"/>
</svg>
