<svg version="1.1" id="master" xmlns="http://www.w3.org/2000/svg" xmlns:xlink="http://www.w3.org/1999/xlink"
	 x="0px" y="0px" width="24px" height="24px" viewBox="0 0 24 24" enable-background="new 0 0 24 24" xml:space="preserve">
<path d="M21.817,4.835l-2.652-2.652c-0.244-0.244-0.64-0.244-0.884,0l-0.884,0.884c-0.244,0.244-0.244,0.64,0,0.884l-2.995,2.995
	c-1.819-0.77-4-0.419-5.484,1.063l-6.187,6.187c-0.976,0.976-0.976,2.56,0,3.536l3.536,3.535c0.976,0.977,2.559,0.977,3.536,0
	l6.188-6.187c1.482-1.483,1.832-3.664,1.063-5.484l2.996-2.995c0.244,0.244,0.64,0.244,0.884,0l0.884-0.884
	C22.062,5.475,22.062,5.079,21.817,4.835z M9,18.535L5.465,15l4.767-4.768l3.536,3.536L9,18.535z"/>
</svg>
