<svg version="1.1" id="master" xmlns="http://www.w3.org/2000/svg" xmlns:xlink="http://www.w3.org/1999/xlink"
	 x="0px" y="0px" width="24px" height="24px" viewBox="0 0 24 24" enable-background="new 0 0 24 24" xml:space="preserve">
<path d="M14.813,20.125H13.25v-4.578c2.674-0.62,4.611-3.121,4.352-6.021l-0.623-6.957C16.949,2.247,16.684,2,16.365,2h-8.73
	C7.317,2,7.05,2.247,7.022,2.568L6.398,9.525c-0.26,2.901,1.677,5.401,4.352,6.022v4.577H9.188c-0.863,0-1.563,0.7-1.563,1.563
	C7.625,21.86,7.765,22,7.938,22h8.125c0.173,0,0.313-0.14,0.313-0.313C16.375,20.825,15.675,20.125,14.813,20.125z M8.787,3.875
	h6.426L15.493,7H8.507L8.787,3.875z"/>
</svg>
