<svg version="1.1" id="master" xmlns="http://www.w3.org/2000/svg" xmlns:xlink="http://www.w3.org/1999/xlink"
	 x="0px" y="0px" width="24px" height="24px" viewBox="0 0 24 24" enable-background="new 0 0 24 24" xml:space="preserve">
<path d="M21.375,19.5H2.625C2.279,19.5,2,19.78,2,20.125v1.25C2,21.72,2.279,22,2.625,22h18.75C21.72,22,22,21.72,22,21.375v-1.25
	C22,19.78,21.72,19.5,21.375,19.5z M9.5,17L7,15.75l2.5-1.25l1.25-2.5L12,14.5l2.5,1.25L12,17l-0.625,1.25H19.5l-3.376-7.876
	c-0.24-0.563-0.267-1.195-0.073-1.776L18.25,2l-7.328,4.187C9.999,6.715,9.267,7.525,8.834,8.498L4.5,18.25h5.625L9.5,17z M12,8.25
	L12.625,7l0.625,1.25l1.25,0.625L13.25,9.5l-0.625,1.25L12,9.5l-1.25-0.625L12,8.25z"/>
</svg>
