<svg version="1.1" id="master" xmlns="http://www.w3.org/2000/svg" xmlns:xlink="http://www.w3.org/1999/xlink" x="0px" y="0px"
	 width="24px" height="24px" viewBox="0 0 24 24" enable-background="new 0 0 24 24" xml:space="preserve">
<path d="M19.891,7.688c0.7,1.281,1.099,2.75,1.099,4.313c0,3.315-1.797,6.213-4.47,7.771l2.746-7.94
	c0.513-1.283,0.684-2.309,0.684-3.22C19.949,8.274,19.928,7.961,19.891,7.688 M13.24,7.774c0.539-0.025,1.027-0.087,1.027-0.087
	c0.484-0.063,0.428-0.775-0.058-0.75c0,0-1.461,0.112-2.399,0.112c-0.886,0-2.375-0.125-2.375-0.125
	C8.948,6.9,8.885,7.638,9.374,7.663c0,0,0.45,0.051,0.938,0.075l1.4,3.838l-1.975,5.9L6.462,7.75C7.002,7.725,7.49,7.667,7.49,7.667
	C7.978,7.604,7.92,6.892,7.436,6.92c0,0-1.455,0.115-2.395,0.115c-0.167,0-0.365-0.007-0.575-0.013
	C6.093,4.625,8.862,3.012,12,3.012c2.341,0,4.471,0.894,6.072,2.361c-0.039-0.002-0.076-0.007-0.118-0.007
	c-0.884,0-1.51,0.769-1.51,1.595c0,0.741,0.427,1.369,0.883,2.109c0.344,0.6,0.742,1.369,0.742,2.481
	c0,0.763-0.295,1.662-0.685,2.898l-0.896,2.988l-3.251-9.675L13.24,7.774L13.24,7.774z M12,20.986c-0.883,0-1.734-0.127-2.54-0.363
	l2.697-7.839l2.763,7.572c0.02,0.044,0.042,0.084,0.065,0.124c-0.934,0.328-1.938,0.508-2.985,0.508 M3.009,12
	c0-1.303,0.28-2.542,0.779-3.658l4.287,11.749C5.078,18.633,3.01,15.56,3.009,12 M12,2C6.487,2,2,6.487,2,12s4.487,10,10,10
	s10-4.487,10-10S17.513,2,12,2"/>
</svg>
