<svg version="1.1" id="master" xmlns="http://www.w3.org/2000/svg" xmlns:xlink="http://www.w3.org/1999/xlink" x="0px" y="0px"
	 width="24px" height="24px" viewBox="0 0 24 24" enable-background="new 0 0 24 24" xml:space="preserve">
<rect fill="none" width="24" height="24"/>
<path d="M16.592,14.508c1.786,2.189,2.608,3.983,2.192,4.785c-0.318,0.609-2.285,1.798-3.732,2.253
	c-1.194,0.376-2.758,0.537-4.048,0.412c-1.54-0.149-3.101-0.701-4.439-1.573c-1.125-0.732-1.379-1.035-1.379-1.636
	c0-1.206,1.326-3.317,3.596-5.729c1.29-1.366,3.084-2.97,3.282-2.926C12.443,10.178,15.463,13.121,16.592,14.508z M9.283,7.477
	C8.084,6.392,6.94,5.304,5.799,4.92C5.186,4.715,5.142,4.728,4.642,5.248C3.465,6.473,2.485,8.46,2.211,10.182
	c-0.218,1.379-0.246,1.766-0.169,2.439c0.226,2.035,0.698,3.441,1.633,4.873c0.383,0.589,0.488,0.697,0.375,0.4
	c-0.169-0.444-0.012-1.514,0.383-2.58C5.009,13.742,6.605,10.763,9.283,7.477z M21.846,10.037c-0.683-3.226-2.722-5.253-3.009-5.253
	c-0.295,0-0.976,0.262-1.45,0.561c-0.938,0.584-1.652,1.266-2.594,2.129c1.711,2.149,4.121,5.62,4.956,8.156
	c0.272,0.835,0.392,1.656,0.298,2.106c-0.068,0.344-0.068,0.344,0.057,0.187c0.246-0.31,0.804-1.261,1.023-1.753
	c0.298-0.652,0.604-1.621,0.75-2.367C22.05,12.896,22.034,10.948,21.846,10.037z M7.375,3.413c1.923-0.101,4.422,1.391,4.608,1.427
	c0.028,0.004,0.419-0.169,0.871-0.391c2.576-1.254,3.791-1.041,4.33-1.016c-2.576-1.584-6.157-2.016-9.43-0.471
	C6.811,3.409,6.787,3.441,7.375,3.413z"/>
</svg>
