<svg version="1.1" id="master" xmlns="http://www.w3.org/2000/svg" xmlns:xlink="http://www.w3.org/1999/xlink" x="0px" y="0px"
	 width="24px" height="24px" viewBox="0 0 24 24" enable-background="new 0 0 24 24" xml:space="preserve">
<rect fill="none" width="24" height="24"/>
<path d="M17.883,15.597c-1.572,0.375-1.951,1.294-4.193,1.911c0,0-0.108,0.162-0.419,0.234c-0.54,0.133-2.577,0.241-2.762,0.246
	c-0.5,0.004-0.802-0.13-0.887-0.331C9.363,17.04,9.992,16.77,9.992,16.77c-0.326-0.201-0.363-0.398-0.395-0.325
	c-0.097,0.233-0.145,0.81-0.407,1.068c-0.355,0.358-1.028,0.237-1.423,0.031c-0.436-0.229,0.032-0.774,0.032-0.774
	s-0.234,0.138-0.423-0.145c-0.242-0.375-0.689-1.504,0.464-2.5c-0.053-0.407-0.186-2.166,1.637-3.452c0,0-0.831-0.919-0.52-1.746
	c0.202-0.541,0.282-0.537,0.347-0.561C9.532,8.278,9.758,8.182,9.923,8c0.831-0.895,1.887-0.726,1.887-0.726s0.5-1.524,0.964-1.226
	c0.142,0.093,0.657,1.234,0.657,1.234s0.549-0.318,0.608-0.202c0.331,0.645,0.371,1.875,0.227,2.625
	c-0.246,1.233-0.863,1.899-1.113,2.318c-0.057,0.097,0.665,0.403,1.121,1.665c0.419,1.153,0.044,2.125,0.113,2.23
	c0.031,0.056,0.552,0.031,1.468-0.533c0.516-0.318,1.133-0.681,1.83-0.686C18.359,14.682,18.396,15.477,17.883,15.597z M22,12
	c0,5.52-4.48,10-10,10C6.48,22,2,17.52,2,12C2,6.48,6.48,2,12,2C17.52,2,22,6.48,22,12z M18.803,15.032
	c-0.069-0.548-0.532-0.927-1.129-0.92c-0.887,0.013-1.633,0.473-2.13,0.775c-0.193,0.12-0.358,0.209-0.5,0.273
	c0.126-1.794-0.907-2.947-1.157-3.202c0.315-0.456,0.742-1.121,0.944-2.145c0.173-0.875,0.121-2.238-0.279-3.004
	c-0.063-0.125-0.298-0.452-0.847-0.299c-0.391-0.806-0.524-0.891-0.628-0.959c-0.045-0.029-0.952-0.662-1.67,1.129
	c-0.492,0.036-1.262,0.213-1.915,0.919C9.411,7.689,9.254,7.754,9.084,7.819h0.004C8.75,7.939,8.593,8.218,8.407,8.718
	c-0.262,0.702,0.008,1.395,0.274,1.843c-0.718,0.641-1.492,1.605-1.439,3.326c-1.371,1.451-0.476,2.943-0.226,3.21
	c-0.064,0.447,0.149,0.782,0.484,0.96c0.508,0.27,1.222,0.387,1.77,0.112c0.198,0.21,0.557,0.408,1.21,0.408
	c0.274,0,2.338-0.117,2.927-0.263c0.274-0.064,0.464-0.182,0.589-0.286c0.395-0.125,1.483-0.496,2.508-1.157
	c0.727-0.472,0.976-0.572,1.516-0.702C18.541,16.041,18.866,15.561,18.803,15.032z"/>
</svg>
