<svg version="1.1" id="master" xmlns="http://www.w3.org/2000/svg" xmlns:xlink="http://www.w3.org/1999/xlink"
	 x="0px" y="0px" width="24px" height="24px" viewBox="0 0 24 24" enable-background="new 0 0 24 24" xml:space="preserve">
<path d="M6.185,11.387l3.892,1.899c0.75,0.367,0.633,1.466-0.176,1.668l-4.2,1.048c-0.477,0.12-0.96-0.169-1.08-0.646
	c-0.01-0.04-0.017-0.08-0.022-0.12c-0.129-1.124-0.009-2.262,0.352-3.333c0.157-0.466,0.662-0.717,1.128-0.56
	C6.114,11.355,6.15,11.37,6.185,11.387z M7.903,20.733c0.931,0.638,1.99,1.065,3.103,1.254c0.484,0.084,0.944-0.242,1.027-0.726
	c0.007-0.04,0.011-0.08,0.012-0.121l0.153-4.329c0.027-0.832-0.996-1.246-1.555-0.629l-2.899,3.219
	c-0.329,0.366-0.299,0.931,0.067,1.259C7.84,20.687,7.872,20.711,7.903,20.733L7.903,20.733z M13.581,16.439l2.297,3.672
	c0.264,0.419,0.816,0.545,1.235,0.282c0.032-0.021,0.063-0.043,0.093-0.067c0.871-0.72,1.574-1.621,2.059-2.641
	c0.21-0.45,0.016-0.985-0.435-1.194c-0.03-0.015-0.063-0.026-0.096-0.038l-4.118-1.338C13.823,14.861,13.14,15.732,13.581,16.439z
	 M19.376,11.273c-0.451-1.035-1.123-1.96-1.97-2.707c-0.371-0.325-0.936-0.288-1.26,0.083c-0.024,0.029-0.048,0.058-0.068,0.089
	l-2.422,3.59c-0.466,0.692,0.184,1.587,0.984,1.356l4.165-1.192c0.477-0.14,0.749-0.639,0.609-1.115
	C19.403,11.342,19.391,11.308,19.376,11.273L19.376,11.273z M6.935,3.178C6.49,3.392,6.304,3.926,6.518,4.37
	c0.009,0.02,0.02,0.04,0.031,0.058l4.067,7.049c0.457,0.789,1.664,0.465,1.664-0.445V2.893C12.284,2.404,11.892,2.004,11.403,2
	c-0.027,0-0.054,0-0.08,0.002C9.801,2.124,8.314,2.522,6.935,3.178z"/>
</svg>
