<svg version="1.1" id="master" xmlns="http://www.w3.org/2000/svg" xmlns:xlink="http://www.w3.org/1999/xlink"
	 x="0px" y="0px" width="24px" height="24px" viewBox="0 0 24 24" enable-background="new 0 0 24 24" xml:space="preserve">
<path d="M12,2C6.477,2,2,6.477,2,12c0,5.522,4.477,10,10,10c5.522,0,10-4.478,10-10C22,6.477,17.522,2,12,2z M12,17.161
	c-0.712,0-1.291-0.578-1.291-1.29c0-0.713,0.578-1.29,1.291-1.29c0.712,0,1.29,0.577,1.29,1.29
	C13.29,16.583,12.712,17.161,12,17.161z M12,12c-2.138,0-3.871,1.733-3.871,3.871S9.862,19.742,12,19.742
	c-4.276,0-7.742-3.467-7.742-7.742c0-4.276,3.466-7.742,7.742-7.742c2.138,0,3.871,1.733,3.871,3.871C15.871,10.267,14.138,12,12,12
	z M12,6.839c-0.712,0-1.291,0.578-1.291,1.29S11.288,9.419,12,9.419c0.712,0,1.29-0.578,1.29-1.291S12.712,6.839,12,6.839z"/>
</svg>
