<?xml version="1.0" encoding="utf-8"?>
<!-- Generator: Adobe Illustrator 16.0.0, SVG Export Plug-In . SVG Version: 6.00 Build 0)  -->
<!DOCTYPE svg PUBLIC "-//W3C//DTD SVG 1.1//EN" "http://www.w3.org/Graphics/SVG/1.1/DTD/svg11.dtd">
<svg version="1.1" id="master" xmlns="http://www.w3.org/2000/svg" xmlns:xlink="http://www.w3.org/1999/xlink" x="0px" y="0px"
	 width="24px" height="24px" viewBox="0 0 24 24" enable-background="new 0 0 24 24" xml:space="preserve">
<path d="M21.582,7.169c-0.23-0.866-0.908-1.548-1.768-1.78C18.253,4.969,12,4.969,12,4.969s-6.254,0-7.814,0.42
	c-0.859,0.232-1.537,0.914-1.768,1.78C2,8.739,2,12.014,2,12.014s0,3.275,0.418,4.845c0.23,0.865,0.908,1.521,1.768,1.752
	C5.747,19.032,12,19.032,12,19.032s6.254,0,7.814-0.421c0.857-0.231,1.537-0.887,1.768-1.752C22,15.289,22,12.014,22,12.014
	S22,8.739,21.582,7.169z M9.955,14.988V9.04l5.227,2.974L9.955,14.988z"/>
</svg>
