<svg version="1.1" id="master" xmlns="http://www.w3.org/2000/svg" xmlns:xlink="http://www.w3.org/1999/xlink" x="0px" y="0px"
	 width="24px" height="24px" viewBox="0 0 24 24" enable-background="new 0 0 24 24" xml:space="preserve">
<path d="M7,4.728c-0.154,0-0.309,0.063-0.45,0.142L2.458,7.19C2.175,7.354,2.001,7.656,2,7.982v5.188
	c0,0.328,0.177,0.628,0.458,0.792l9.092,5.164c0.142,0.082,0.295,0.146,0.45,0.146c0.154,0,0.309-0.063,0.45-0.142l9.092-5.163
	C21.827,13.805,22,13.504,22,13.177V7.981c-0.002-0.327-0.176-0.628-0.458-0.791L17.45,4.868c-0.142-0.077-0.296-0.14-0.45-0.14
	s-0.309,0.063-0.45,0.142l-4.1,2.333c-0.278,0.158-0.617,0.158-0.9,0L7.45,4.87C7.309,4.791,7.154,4.727,7,4.728L7,4.728z
	 M17.113,5.183l4.433,2.5l-4.433,2.612V5.183z"/>
</svg>
