<svg version="1.1" id="master" xmlns="http://www.w3.org/2000/svg" xmlns:xlink="http://www.w3.org/1999/xlink" x="0px" y="0px"
	 width="24px" height="24px" viewBox="0 0 24 24" enable-background="new 0 0 24 24" xml:space="preserve">
<rect fill="none" width="24" height="24"/>
<path d="M16.294,14.578h-0.903l-0.321-0.308c1.122-1.305,1.796-2.997,1.796-4.838C16.865,5.328,13.538,2,9.433,2
	C5.328,2,2,5.328,2,9.433c0,4.105,3.328,7.433,7.433,7.433c1.841,0,3.533-0.674,4.838-1.796l0.308,0.321v0.903L20.296,22L22,20.296
	L16.294,14.578z M9.433,14.578c-2.848,0-5.146-2.298-5.146-5.146s2.298-5.146,5.146-5.146s5.146,2.298,5.146,5.146
	S12.28,14.578,9.433,14.578z M6.574,8.861h5.717v1.144H6.574V8.861z"/>
</svg>
