<svg version="1.1" id="master" xmlns="http://www.w3.org/2000/svg" xmlns:xlink="http://www.w3.org/1999/xlink" x="0px" y="0px"
	 width="24px" height="24px" viewBox="0 0 24 24" enable-background="new 0 0 24 24" xml:space="preserve">
<path d="M18.667,17.416c0.916,0,1.658-0.75,1.658-1.666l0.008-9.167c0-0.917-0.75-1.667-1.666-1.667H5.333
	c-0.917,0-1.667,0.75-1.667,1.667v9.167c0,0.916,0.75,1.666,1.667,1.666H2c0,0.916,0.75,1.668,1.667,1.668h16.667
	c0.917,0,1.667-0.752,1.667-1.668H18.667z M5.333,6.583h13.333v9.167H5.333V6.583z M12,18.25c-0.458,0-0.833-0.375-0.833-0.834
	c0-0.457,0.375-0.832,0.833-0.832s0.834,0.375,0.834,0.832C12.834,17.875,12.458,18.25,12,18.25z"/>
</svg>
