<svg version="1.1" id="master" xmlns="http://www.w3.org/2000/svg" xmlns:xlink="http://www.w3.org/1999/xlink" x="0px" y="0px"
	 width="24px" height="24px" viewBox="0 0 24 24" enable-background="new 0 0 24 24" xml:space="preserve">
<rect fill="none" width="24" height="24"/>
<path d="M12,2l8.104,8.093c0.494,0.495,0.873,1.062,1.135,1.701c0.261,0.639,0.392,1.31,0.392,2.011c0,0.721-0.136,1.4-0.407,2.035
	c-0.271,0.637-0.645,1.191-1.117,1.666c-0.476,0.475-1.029,0.848-1.666,1.123c-0.635,0.275-1.313,0.412-2.035,0.412
	c-0.688,0-1.346-0.129-1.975-0.387c-0.63-0.258-1.19-0.623-1.687-1.098v0.741c0,0.599,0.134,1.147,0.401,1.649
	c0.269,0.502,0.629,0.938,1.082,1.31V22H9.773v-0.742c0.453-0.371,0.814-0.808,1.082-1.31c0.269-0.501,0.402-1.052,0.402-1.649
	v-0.742c-0.495,0.476-1.057,0.84-1.686,1.098c-0.629,0.259-1.287,0.388-1.975,0.388c-0.48,0-0.944-0.063-1.392-0.19
	c-0.446-0.127-0.862-0.304-1.247-0.529c-0.385-0.229-0.737-0.5-1.057-0.82c-0.32-0.32-0.593-0.674-0.82-1.063
	s-0.401-0.805-0.525-1.246c-0.124-0.443-0.186-0.906-0.186-1.387c0-0.701,0.133-1.373,0.396-2.012
	c0.265-0.639,0.645-1.207,1.14-1.701L12,2z"/>
</svg>
