<svg version="1.1" id="master" xmlns="http://www.w3.org/2000/svg" xmlns:xlink="http://www.w3.org/1999/xlink" x="0px" y="0px"
	 width="24px" height="24px" viewBox="0 0 24 24" enable-background="new 0 0 24 24" xml:space="preserve">
<rect fill="none" width="24" height="24"/>
<path d="M19.143,2H4.857C3.279,2,2,3.279,2,4.857v14.286C2,20.721,3.279,22,4.857,22h14.286C20.721,22,22,20.721,22,19.143V4.857
	C22,3.279,20.721,2,19.143,2z M7.714,9.143c-0.789,0-1.429-0.64-1.429-1.429s0.64-1.429,1.429-1.429s1.429,0.64,1.429,1.429
	S8.503,9.143,7.714,9.143z M16.286,17.714c-0.789,0-1.429-0.64-1.429-1.428c0-0.789,0.64-1.429,1.429-1.429
	c0.788,0,1.428,0.64,1.428,1.429C17.714,17.074,17.074,17.714,16.286,17.714z"/>
</svg>
