<svg version="1.1" id="master" xmlns="http://www.w3.org/2000/svg" xmlns:xlink="http://www.w3.org/1999/xlink" x="0px" y="0px"
	 width="24px" height="24px" viewBox="0 0 24 24" enable-background="new 0 0 24 24" xml:space="preserve">
<rect fill="none" width="24" height="24"/>
<path d="M6.063,13.245c0,2.018,0.865,2.884,2.188,3.305v1.7h7.5v-1.7c1.323-0.421,2.188-1.289,2.188-3.305
	c0-1.195-0.419-2.621-1.043-4.006l-3.918,3.919c-0.122,0.122-0.32,0.122-0.441,0l-0.442-0.442c-0.122-0.122-0.122-0.319,0-0.441
	l4.215-4.216c-0.813-1.481-1.815-2.816-2.769-3.617C14.086,4.309,14.5,3.838,14.5,3.25C14.5,2.56,13.94,2,13.25,2h-2.5
	C10.06,2,9.5,2.56,9.5,3.25c0,0.586,0.414,1.059,0.961,1.192C8.399,6.172,6.063,10.379,6.063,13.245z M17.625,19.5H6.375
	c-0.345,0-0.625,0.28-0.625,0.625v1.25C5.75,21.72,6.03,22,6.375,22h11.25c0.345,0,0.625-0.28,0.625-0.625v-1.25
	C18.25,19.78,17.97,19.5,17.625,19.5z"/>
</svg>
