<svg version="1.1" id="master" xmlns="http://www.w3.org/2000/svg" xmlns:xlink="http://www.w3.org/1999/xlink"
	 x="0px" y="0px" width="24px" height="24px" viewBox="0 0 24 24" enable-background="new 0 0 24 24" xml:space="preserve">
<path d="M4.792,12.02l1.693,0.753c0.329,0.146,0.703,0.153,1.037,0.02l0.532-0.214c0.377-0.151,0.665-0.465,0.782-0.854l0.384-1.277
	c0.071-0.284,0.262-0.521,0.523-0.652l0.921-0.461v2.097c0,0.757-0.428,1.449-1.105,1.789l-2.384,1.193
	c-1.129,0.565-1.841,1.72-1.841,2.981V18h13.328v-8c0-4.417-3.58-8-7.997-8H4.5C4.224,2,4,2.224,4,2.5
	c0,0.11,0.025,0.218,0.075,0.316L4.667,4L4.292,4.375C4.104,4.563,3.999,4.818,4,5.083V10.8C4,11.328,4.31,11.806,4.792,12.02z
	 M6.167,6C6.627,6,7,6.373,7,6.833c0,0.46-0.373,0.833-0.833,0.833c-0.46,0-0.833-0.373-0.833-0.833C5.333,6.373,5.707,6,6.167,6z
	 M19.333,19.333H4.667C4.299,19.333,4,19.632,4,20v1.333C4,21.701,4.299,22,4.667,22h14.667C19.701,22,20,21.701,20,21.333V20
	C20,19.632,19.701,19.333,19.333,19.333z"/>
</svg>
