<svg version="1.1" id="master" xmlns="http://www.w3.org/2000/svg" xmlns:xlink="http://www.w3.org/1999/xlink"
	 x="0px" y="0px" width="24px" height="24px" viewBox="0 0 24 24" enable-background="new 0 0 24 24" xml:space="preserve">
<path d="M9.713,10H8.666C8.299,10,8,10.299,8,10.667V12c0,0.368,0.299,0.667,0.666,0.667h0.667v0.229c0,1.834-0.172,3.608-1,5.104
	h7.334c-0.828-1.496-1-3.271-1-5.104v-0.229h0.666C15.701,12.667,16,12.368,16,12v-1.333C16,10.299,15.701,10,15.333,10h-1.046
	c1.225-0.766,2.046-2.116,2.046-3.667C16.333,3.94,14.394,2,12,2S7.666,3.94,7.666,6.333C7.666,7.884,8.487,9.234,9.713,10z
	 M18,19.333H6c-0.368,0-0.667,0.299-0.667,0.667v1.333C5.333,21.701,5.632,22,6,22h12c0.368,0,0.667-0.299,0.667-0.667V20
	C18.667,19.632,18.368,19.333,18,19.333z"/>
</svg>
