<svg version="1.1" id="master" xmlns="http://www.w3.org/2000/svg" xmlns:xlink="http://www.w3.org/1999/xlink"
	 x="0px" y="0px" width="24px" height="24px" viewBox="0 0 24 24" enable-background="new 0 0 24 24" xml:space="preserve">
<path d="M12,6.375c1.208,0,2.188-0.979,2.188-2.188S13.208,2,12,2S9.813,2.979,9.813,4.188S10.792,6.375,12,6.375z M18.875,19.5
	H5.125C4.78,19.5,4.5,19.78,4.5,20.125v1.25C4.5,21.72,4.78,22,5.125,22h13.75c0.345,0,0.625-0.28,0.625-0.625v-1.25
	C19.5,19.78,19.22,19.5,18.875,19.5z M21.722,9.193l-1.113-0.622c-0.291-0.195-0.661-0.096-0.871,0.183
	c-0.428,0.572-1.144,0.849-1.846,0.712c-0.903-0.167-1.517-1.024-1.517-1.943C16.375,7.234,16.141,7,15.852,7h-1.515
	c-0.234,0-0.454,0.156-0.503,0.387c-0.213,1.014-1.207,1.662-2.221,1.449c-0.727-0.153-1.295-0.721-1.448-1.449
	C10.116,7.156,9.899,7,9.663,7H8.148C7.859,7,7.625,7.234,7.625,7.523c0,1.004-0.742,1.904-1.745,1.972
	C5.247,9.54,4.635,9.258,4.257,8.748C4.051,8.471,3.682,8.378,3.395,8.57L2.278,9.195C2.016,9.37,1.925,9.713,2.066,9.995
	l4.006,8.255h11.856l4.006-8.257C22.075,9.711,21.983,9.369,21.722,9.193z"/>
</svg>
