<svg version="1.1" id="master" xmlns="http://www.w3.org/2000/svg" xmlns:xlink="http://www.w3.org/1999/xlink"
	 x="0px" y="0px" width="24px" height="24px" viewBox="0 0 24 24" enable-background="new 0 0 24 24" xml:space="preserve">
<path d="M19.333,2H17c-0.368,0-0.667,0.299-0.667,0.667v2h-2v-2C14.333,2.299,14.035,2,13.667,2h-3.333
	C9.965,2,9.667,2.299,9.667,2.667v2H7.671v-2C7.671,2.299,7.373,2,7.004,2H4.667C4.299,2,4,2.299,4,2.667V10l2.667,1.333
	c0,2.014-0.064,3.958-0.55,6.667h11.768c-0.486-2.708-0.551-4.679-0.551-6.667L20,10V2.667C20,2.299,19.701,2,19.333,2z M13.333,14
	h-2.667v-2.667C10.667,10.597,11.264,10,12,10s1.333,0.597,1.333,1.333V14z M19.333,19.333H4.667C4.299,19.333,4,19.632,4,20v1.333
	C4,21.701,4.299,22,4.667,22h14.667C19.701,22,20,21.701,20,21.333V20C20,19.632,19.701,19.333,19.333,19.333z"/>
</svg>
