<?xml version="1.0" encoding="utf-8"?>
<!-- Generator: Adobe Illustrator 16.0.0, SVG Export Plug-In . SVG Version: 6.00 Build 0)  -->
<!DOCTYPE svg PUBLIC "-//W3C//DTD SVG 1.1//EN" "http://www.w3.org/Graphics/SVG/1.1/DTD/svg11.dtd">
<svg version="1.1" id="icon_calendar" xmlns="http://www.w3.org/2000/svg" xmlns:xlink="http://www.w3.org/1999/xlink" x="0px" y="0px"
	 width="64px" height="64px" viewBox="0 0 64 64" enable-background="new 0 0 64 64" xml:space="preserve">
<path d="M22.5,36h-5c-0.825,0-1.5-0.675-1.5-1.5v-5c0-0.825,0.675-1.5,1.5-1.5h5c0.825,0,1.5,0.675,1.5,1.5v5
	C24,35.325,23.325,36,22.5,36z M36,34.5v-5c0-0.825-0.675-1.5-1.5-1.5h-5c-0.825,0-1.5,0.675-1.5,1.5v5c0,0.825,0.675,1.5,1.5,1.5h5
	C35.325,36,36,35.325,36,34.5z M48,34.5v-5c0-0.825-0.675-1.5-1.5-1.5h-5c-0.825,0-1.5,0.675-1.5,1.5v5c0,0.825,0.675,1.5,1.5,1.5h5
	C47.325,36,48,35.325,48,34.5z M36,46.5v-5c0-0.825-0.675-1.5-1.5-1.5h-5c-0.825,0-1.5,0.675-1.5,1.5v5c0,0.825,0.675,1.5,1.5,1.5h5
	C35.325,48,36,47.325,36,46.5z M24,46.5v-5c0-0.825-0.675-1.5-1.5-1.5h-5c-0.825,0-1.5,0.675-1.5,1.5v5c0,0.825,0.675,1.5,1.5,1.5h5
	C23.325,48,24,47.325,24,46.5z M48,46.5v-5c0-0.825-0.675-1.5-1.5-1.5h-5c-0.825,0-1.5,0.675-1.5,1.5v5c0,0.825,0.675,1.5,1.5,1.5h5
	C47.325,48,48,47.325,48,46.5z M60,14v44c0,3.313-2.688,6-6,6H10c-3.313,0-6-2.688-6-6V14c0-3.313,2.688-6,6-6h6V1.5
	C16,0.675,16.675,0,17.5,0h5C23.325,0,24,0.675,24,1.5V8h16V1.5C40,0.675,40.675,0,41.5,0h5C47.325,0,48,0.675,48,1.5V8h6
	C57.313,8,60,10.688,60,14z M54,57.25V20H10v37.25c0,0.412,0.337,0.75,0.75,0.75h42.5C53.662,58,54,57.662,54,57.25z"/>
</svg>