<?xml version="1.0" encoding="utf-8"?>
<!-- Generator: Adobe Illustrator 16.0.0, SVG Export Plug-In . SVG Version: 6.00 Build 0)  -->
<!DOCTYPE svg PUBLIC "-//W3C//DTD SVG 1.1//EN" "http://www.w3.org/Graphics/SVG/1.1/DTD/svg11.dtd">
<svg version="1.1" id="icon_facebook" xmlns="http://www.w3.org/2000/svg" xmlns:xlink="http://www.w3.org/1999/xlink" x="0px" y="0px"
	 width="64px" height="64px" viewBox="0 0 64 64" enable-background="new 0 0 64 64" xml:space="preserve">
<path d="M59.999,7.087V56.9c0,1.711-1.389,3.086-3.088,3.086H42.638V38.313h7.273l1.088-8.45h-8.375v-5.4
	c0-2.45,0.675-4.112,4.188-4.112h4.476v-7.563c-0.774-0.1-3.425-0.337-6.524-0.337c-6.449,0-10.875,3.938-10.875,11.175v6.237h-7.3
	v8.45h7.3V60h-26.8c-1.7,0-3.087-1.389-3.087-3.088V7.087C4.001,5.387,5.39,4,7.088,4h49.812C58.61,4,59.999,5.388,59.999,7.087z"/>
</svg>