<?xml version="1.0" encoding="utf-8"?>
<!-- Generator: Adobe Illustrator 16.0.0, SVG Export Plug-In . SVG Version: 6.00 Build 0)  -->
<!DOCTYPE svg PUBLIC "-//W3C//DTD SVG 1.1//EN" "http://www.w3.org/Graphics/SVG/1.1/DTD/svg11.dtd">
<svg version="1.1" id="icon_github" xmlns="http://www.w3.org/2000/svg" xmlns:xlink="http://www.w3.org/1999/xlink" x="0px" y="0px"
	 width="64px" height="64px" viewBox="0 0 64 64" enable-background="new 0 0 64 64" xml:space="preserve">
<path d="M21.736,50.449c0,0.25-0.286,0.45-0.649,0.45c-0.413,0.037-0.7-0.162-0.7-0.45c0-0.25,0.287-0.45,0.65-0.45
	C21.413,49.962,21.736,50.163,21.736,50.449z M17.85,49.886c-0.086,0.25,0.164,0.539,0.539,0.613c0.324,0.125,0.699,0,0.774-0.25
	S19,49.712,18.625,49.6C18.3,49.511,17.938,49.636,17.85,49.886z M23.375,49.675c-0.361,0.086-0.611,0.324-0.575,0.611
	c0.038,0.25,0.363,0.412,0.738,0.325c0.362-0.088,0.612-0.325,0.575-0.575C24.075,49.8,23.736,49.636,23.375,49.675z M31.6,1.774
	C14.264,1.774,1,14.938,1,32.274c0,13.861,8.725,25.725,21.188,29.9c1.601,0.287,2.164-0.7,2.164-1.514
	c0-0.775-0.039-5.05-0.039-7.675c0,0-8.75,1.875-10.586-3.726c0,0-1.426-3.639-3.476-4.575c0,0-2.862-1.962,0.2-1.925
	c0,0,3.111,0.25,4.824,3.226c2.738,4.824,7.326,3.438,9.113,2.612c0.287-2,1.101-3.389,2-4.213C19.4,43.612,12.35,42.6,12.35,30.574
	c0-3.438,0.95-5.162,2.95-7.362c-0.325-0.813-1.387-4.163,0.325-8.487c2.611-0.813,8.625,3.375,8.625,3.375
	c2.5-0.7,5.188-1.063,7.85-1.063s5.351,0.362,7.851,1.063c0,0,6.013-4.2,8.625-3.375c1.712,4.337,0.649,7.675,0.325,8.487
	c2,2.212,3.225,3.938,3.225,7.362c0,12.063-7.361,13.025-14.35,13.813c1.148,0.986,2.125,2.861,2.125,5.8
	c0,4.213-0.039,9.426-0.039,10.45c0,0.813,0.576,1.8,2.164,1.513C54.525,57.999,63,46.136,63,32.274
	C63,14.938,48.938,1.774,31.6,1.774z M13.15,44.886c-0.164,0.125-0.125,0.414,0.086,0.65c0.201,0.2,0.488,0.287,0.65,0.125
	c0.162-0.125,0.125-0.412-0.088-0.65C13.6,44.812,13.313,44.725,13.15,44.886z M11.8,43.874c-0.087,0.164,0.038,0.363,0.288,0.488
	c0.2,0.125,0.45,0.087,0.538-0.088c0.087-0.162-0.038-0.361-0.288-0.486C12.087,43.712,11.889,43.749,11.8,43.874z M15.85,48.324
	c-0.199,0.163-0.125,0.538,0.164,0.775c0.286,0.286,0.649,0.325,0.813,0.125c0.162-0.163,0.087-0.538-0.163-0.775
	C16.389,48.163,16.014,48.124,15.85,48.324z M14.425,46.487c-0.2,0.125-0.2,0.449,0,0.737c0.2,0.286,0.538,0.411,0.7,0.286
	c0.2-0.161,0.2-0.486,0-0.773C14.95,46.449,14.625,46.324,14.425,46.487z"/>
</svg>