<?xml version="1.0" encoding="utf-8"?>
<!-- Generator: Adobe Illustrator 16.0.0, SVG Export Plug-In . SVG Version: 6.00 Build 0)  -->
<!DOCTYPE svg PUBLIC "-//W3C//DTD SVG 1.1//EN" "http://www.w3.org/Graphics/SVG/1.1/DTD/svg11.dtd">
<svg version="1.1" id="icon_googleplus" xmlns="http://www.w3.org/2000/svg" xmlns:xlink="http://www.w3.org/1999/xlink" x="0px" y="0px"
	 width="64px" height="64px" viewBox="0 0 64 64" enable-background="new 0 0 64 64" xml:space="preserve">
<path d="M32,1C14.889,1,1,14.888,1,32c0,17.111,13.889,31,31,31s31-13.889,31-31C63,14.888,49.111,1,32,1z M23.163,47.5
	c-8.601,0-15.5-6.938-15.5-15.5c0-8.562,6.899-15.5,15.5-15.5c3.913,0,7.512,1.375,10.375,4.038l-4.2,4.075
	c-1.65-1.612-3.913-2.387-6.175-2.387c-5.363,0-9.649,4.438-9.649,9.762c0,5.325,4.274,9.763,9.649,9.763
	c4.075,0,8.112-2.388,8.762-6.662h-8.762v-5.325h14.612c0.162,0.85,0.238,1.7,0.238,2.587C38.014,41.2,32.075,47.5,23.163,47.5
	L23.163,47.5z M51.938,34.225v4.438H47.5v-4.438h-4.438v-4.437H47.5V25.35h4.438v4.438h4.4v4.437H51.938z"/>
</svg>