<?xml version="1.0" encoding="utf-8"?>
<!-- Generator: Adobe Illustrator 16.0.0, SVG Export Plug-In . SVG Version: 6.00 Build 0)  -->
<!DOCTYPE svg PUBLIC "-//W3C//DTD SVG 1.1//EN" "http://www.w3.org/Graphics/SVG/1.1/DTD/svg11.dtd">
<svg version="1.1" id="icon_whatsapp" xmlns="http://www.w3.org/2000/svg" xmlns:xlink="http://www.w3.org/1999/xlink" x="0px" y="0px"
	 width="64px" height="64px" viewBox="0 0 64 64" enable-background="new 0 0 64 64" xml:space="preserve">
<path d="M51.611,12.138C46.375,6.888,39.4,4,31.986,4C16.688,4,4.236,16.45,4.236,31.75c0,4.889,1.275,9.662,3.701,13.875L4,60
	l14.712-3.861c4.05,2.211,8.613,3.375,13.263,3.375h0.012C47.275,59.514,60,47.063,60,31.763C60,24.35,56.85,17.388,51.611,12.138z
	 M31.986,54.838c-4.149,0-8.211-1.113-11.75-3.213l-0.836-0.5l-8.726,2.287L13,44.9l-0.55-0.875
	c-2.313-3.676-3.525-7.914-3.525-12.275C8.925,19.038,19.275,8.687,32,8.687c6.162,0,11.95,2.4,16.3,6.763
	c4.351,4.362,7.025,10.15,7.013,16.313C55.313,44.486,44.7,54.838,31.986,54.838z M44.639,37.563
	c-0.688-0.35-4.102-2.024-4.738-2.25c-0.637-0.236-1.101-0.35-1.563,0.351c-0.463,0.7-1.788,2.25-2.199,2.726
	c-0.4,0.463-0.813,0.524-1.5,0.176c-4.076-2.037-6.75-3.639-9.438-8.25c-0.714-1.225,0.712-1.138,2.036-3.788
	c0.226-0.462,0.113-0.862-0.063-1.212c-0.175-0.35-1.563-3.763-2.137-5.15c-0.563-1.35-1.139-1.163-1.563-1.188
	c-0.4-0.025-0.863-0.025-1.326-0.025c-0.461,0-1.211,0.175-1.85,0.862c-0.637,0.7-2.425,2.375-2.425,5.788s2.487,6.712,2.825,7.174
	c0.35,0.463,4.887,7.463,11.85,10.476c4.4,1.899,6.125,2.063,8.325,1.737c1.338-0.2,4.101-1.676,4.675-3.301
	c0.575-1.625,0.575-3.013,0.4-3.299C45.787,38.075,45.325,37.9,44.639,37.563z"/>
</svg>